<svg width="124" height="48" viewBox="0 0 124 48" fill="none" xmlns="http://www.w3.org/2000/svg">
<g clip-path="url(#clip0_14787_2117)">
<path d="M10.2938 -0.000946045C4.61678 -0.000946045 0 4.62843 0 10.3209V37.6791C0 43.3697 4.61678 48.0009 10.2938 48.0009H37.5775C43.2526 48.0009 47.8713 43.3716 47.8713 37.6791V10.3209C47.8713 4.6303 43.2545 -0.000946045 37.5775 -0.000946045H10.2938ZM2.99184 10.3209C2.99184 6.27843 6.26042 2.99905 10.2938 2.99905H14.3253C14.9928 2.99905 15.5669 3.46593 15.7109 4.11843C16.414 7.32093 15.4659 10.7484 13.093 13.1259C10.7201 15.5053 7.30382 16.4559 4.11004 15.7509C3.45931 15.6066 2.99371 15.0309 2.99371 14.3634V10.3209H2.99184ZM28.0391 44.9991H10.2938C6.26229 44.9991 2.99184 41.7216 2.99184 37.6772V19.8816C2.99184 19.2272 3.5715 18.7172 4.21662 18.8203C4.87295 18.9253 5.53303 18.9778 6.1931 18.9778C7.56 18.9778 8.91941 18.7584 10.2153 18.3272C10.7033 18.1659 11.1614 18.6366 10.9819 19.1184C9.13445 24.0572 10.1891 29.8378 14.1495 33.8091C18.1118 37.7822 23.8749 38.8378 28.8002 36.9853C29.2826 36.8034 29.7519 37.2684 29.5893 37.7597C28.9572 39.6816 28.7815 41.7422 29.0975 43.7597C29.1985 44.4103 28.6973 44.9972 28.0391 44.9972V44.9991ZM44.8775 37.6772C44.8775 41.7197 41.609 44.9991 37.5756 44.9991H33.5441C32.8765 44.9991 32.3025 44.5322 32.1585 43.8797C31.4554 40.6772 32.4035 37.2497 34.7764 34.8722C37.1493 32.4928 40.5656 31.5422 43.7593 32.2472C44.4101 32.3916 44.8757 32.9672 44.8757 33.6347V37.6772H44.8775ZM44.8775 28.1147C44.8775 28.7728 44.2923 29.2772 43.6434 29.1759C41.6314 28.8609 39.5764 29.0353 37.6597 29.6691C37.1698 29.8303 36.708 29.3616 36.8875 28.8778C38.7349 23.9409 37.6803 18.1603 33.7199 14.1872C29.7576 10.2141 23.9945 9.15843 19.0692 11.0109C18.5868 11.1928 18.1174 10.7278 18.2801 10.2366C18.9121 8.31468 19.0879 6.25405 18.7719 4.23655C18.6709 3.58593 19.1721 2.99905 19.8303 2.99905H37.5775C41.609 2.99905 44.8794 6.27655 44.8794 10.3209V28.1166L44.8775 28.1147Z" fill="#26827C"/>
<path d="M56.7324 6.24655H60.3263V20.4216H56.7324V6.24655Z" fill="#26827C"/>
<path d="M63.5986 10.2159H66.8092V10.7428C67.415 10.2159 68.2228 9.81093 69.313 9.81093C70.5041 9.81093 71.555 10.2966 72.2412 11.2884C72.9069 10.4991 73.8363 9.81093 75.5135 9.81093C77.5536 9.81093 79.2496 11.2697 79.2496 14.2247V20.4216H76.0184V14.3672C76.0184 13.4559 75.5547 12.8278 74.6459 12.8278C73.6156 12.8278 73.2117 13.7184 73.0509 13.9828V20.4216H69.8197V14.3672C69.8197 13.4559 69.356 12.8278 68.4472 12.8278C67.4375 12.8278 67.0336 13.7184 66.8111 14.0634V20.4216H63.6004V10.2159H63.5986Z" fill="#26827C"/>
<path d="M81.7739 10.2159H84.9845V10.7822C85.6707 10.1541 86.5589 9.81093 87.8118 9.81093C91.0635 9.81093 92.9409 12.3422 92.9409 15.3197C92.9409 18.2972 91.0635 20.8284 87.8118 20.8284C86.5589 20.8284 85.6707 20.4834 84.9845 19.8572V25.4053H81.7739V10.2159ZM84.9845 14.0428V16.5947C85.5903 17.3841 86.3383 17.8097 87.348 17.8097C88.7617 17.8097 89.6312 16.8178 89.6312 15.3197C89.6312 13.8216 88.7635 12.8297 87.348 12.8297C86.3177 12.8297 85.5511 13.2759 84.9845 14.0447V14.0428Z" fill="#26827C"/>
<path d="M94.093 17.5472C94.093 15.9872 95.2841 14.7928 97.5055 14.4291L100.374 13.9434C100.353 13.1747 99.6877 12.5859 98.7378 12.5859C97.8888 12.5859 97.2643 12.9909 96.7987 13.6584L94.4557 11.8772C95.3851 10.5816 96.9389 9.81093 98.8388 9.81093C102.07 9.81093 103.564 11.7553 103.564 13.9828V20.4216H100.374V19.6528C99.8092 20.2809 98.6574 20.7253 97.5878 20.7253C95.5272 20.7253 94.0948 19.5309 94.0948 17.5453L94.093 17.5472ZM98.2927 18.2353C99.3231 18.2353 99.9682 17.7497 100.372 17.1422V16.1297L98.3732 16.4747C97.5448 16.6172 97.2624 16.9209 97.2624 17.3859C97.2624 17.9128 97.6663 18.2372 98.2927 18.2372V18.2353Z" fill="#26827C"/>
<path d="M112.975 16.8778L115.479 18.7809C114.529 20.0372 113.014 20.8266 111.137 20.8266C107.543 20.8266 105.482 18.2953 105.482 15.3178C105.482 12.3403 107.543 9.80905 111.137 9.80905C113.014 9.80905 114.529 10.5984 115.479 11.8547L112.975 13.7578C112.612 13.2309 111.986 12.8259 111.098 12.8259C109.785 12.8259 108.816 13.8178 108.816 15.3159C108.816 16.8141 109.785 17.8059 111.159 17.8059C111.967 17.8059 112.614 17.4009 112.977 16.8741L112.975 16.8778Z" fill="#26827C"/>
<path d="M117.962 13.0903H116.064V10.2141H117.962V7.66218H121.193V10.2141H123.979V13.0903H121.193V16.4522C121.193 17.2622 121.618 17.7084 122.465 17.7084C123.213 17.7084 123.697 17.6072 124 17.4853V20.2603C123.454 20.5041 122.829 20.6241 121.88 20.6241C119.112 20.6241 117.962 18.9628 117.962 16.4522V13.0903Z" fill="#26827C"/>
<path d="M66.1845 36.7097L69.0324 38.8772C67.7197 40.6191 65.6198 41.7534 63.0338 41.7534C58.531 41.7534 55.4607 38.3109 55.4607 34.2609C55.4607 30.2109 58.531 26.7684 63.0338 26.7684C65.618 26.7684 67.7197 27.9028 69.0324 29.6241L66.1845 31.8103C65.5189 30.8391 64.4474 30.1491 63.0338 30.1491C60.7712 30.1491 59.1556 31.8909 59.1556 34.2591C59.1556 36.6272 60.7712 38.3691 63.0338 38.3691C64.4268 38.3691 65.517 37.6809 66.1845 36.7078V36.7097Z" fill="#26827C"/>
<path d="M85.2689 34.2591C85.2689 38.3091 82.1985 41.7516 77.7164 41.7516C73.2342 41.7516 70.1433 38.3091 70.1433 34.2591C70.1433 30.2091 73.2137 26.7666 77.7164 26.7666C82.2191 26.7666 85.2689 30.2091 85.2689 34.2591ZM81.574 34.2591C81.574 31.8703 79.9584 30.1491 77.7164 30.1491C75.4744 30.1491 73.8382 31.8909 73.8382 34.2591C73.8382 36.6272 75.4538 38.3691 77.7164 38.3691C79.979 38.3691 81.574 36.6272 81.574 34.2591Z" fill="#26827C"/>
<path d="M87.064 42.3291L90.2428 39.2747C90.6916 38.8509 91.1142 38.3616 91.1142 37.7672C91.1142 37.1728 90.7047 36.8016 90.1381 36.8016C89.321 36.8016 88.8591 37.3697 88.3973 38.1366L86.604 37.0247C87.4081 35.7028 88.6216 34.8159 90.3625 34.8159C92.1034 34.8159 93.3693 35.8734 93.3693 37.5272C93.3693 38.7966 92.526 39.7884 91.7724 40.4897L89.8071 42.3272H93.6068V44.3372H87.064V42.3272V42.3291Z" fill="#26827C"/>
</g>
<defs>
<clipPath id="clip0_14787_2117">
<rect width="124" height="48" fill="white"/>
</clipPath>
</defs>
</svg>
