<svg width="162" height="140" viewBox="0 0 162 140" fill="none" xmlns="http://www.w3.org/2000/svg">
<path d="M153.297 70.2635L5.81492 83.182C2.83548 83.443 0.631479 86.0727 0.892146 89.0558L2.79283 110.807C3.0535 113.79 5.68012 115.996 8.65956 115.735L156.142 102.817C159.121 102.556 161.325 99.9261 161.064 96.9431L159.164 75.1922C158.903 72.2092 156.276 70.0026 153.297 70.2635Z" fill="#0064C8"/>
<path d="M20.9146 91.0037C20.219 90.1019 19.3146 89.4567 18.2051 89.0644C17.092 88.6722 15.8435 88.5365 14.4594 88.6575L6.74463 89.332L8.50215 109.454L12.6836 109.087L12.0465 101.792L15.5798 101.484C16.9456 101.363 18.1429 101.012 19.1718 100.421C20.197 99.8311 20.9805 99.032 21.5188 98.0238C22.057 97.0157 22.2657 95.828 22.1449 94.4569C22.0204 93.0529 21.614 91.8982 20.9183 91L20.9146 91.0037ZM17.7218 96.2935C17.5168 96.7298 17.2055 97.0817 16.7954 97.353C16.3854 97.6243 15.8837 97.7856 15.2869 97.8406L11.7243 98.1522L11.241 92.6167L14.8036 92.3051C15.3968 92.2537 15.9203 92.3234 16.3707 92.5214C16.8211 92.7193 17.1872 93.0126 17.4692 93.4048C17.7474 93.7971 17.9122 94.2737 17.9598 94.8309C18.0074 95.3697 17.9269 95.8573 17.7218 96.2935Z" fill="white"/>
<path d="M38.4311 96.5611C38.9767 95.542 39.1891 94.3506 39.0682 92.9795C38.9438 91.5755 38.5373 90.4207 37.8416 89.5226C37.146 88.6208 36.2416 87.9756 35.1321 87.5834C34.019 87.1911 32.7705 87.0555 31.3864 87.1764L23.6973 87.851L25.4548 107.973L29.6362 107.606L28.9991 100.311L31.9649 100.051L36.6773 106.987L41.3713 106.576L36.0841 98.9549C37.102 98.3757 37.8856 97.5765 38.4311 96.5574V96.5611ZM34.6488 94.8088C34.4438 95.245 34.1325 95.597 33.7225 95.8682C33.3124 96.1395 32.8107 96.3008 32.2139 96.3558L28.6806 96.6637L28.1973 91.1283L31.7306 90.8203C32.3238 90.769 32.8474 90.8387 33.2977 91.0366C33.7517 91.2346 34.1142 91.5278 34.3962 91.9201C34.6744 92.3123 34.8392 92.7889 34.8868 93.3461C34.9344 93.885 34.8539 94.3726 34.6488 94.8088Z" fill="white"/>
<path d="M61.7806 90.5014C61.1398 89.288 60.2977 88.2542 59.2542 87.4037C58.2106 86.5533 57.017 85.9227 55.6769 85.5121C54.3368 85.1052 52.9014 84.9659 51.3746 85.1016C49.8441 85.2372 48.4564 85.6221 47.2078 86.2563C45.9592 86.8942 44.8937 87.719 44.0113 88.7418C43.1326 89.7609 42.4808 90.9267 42.0597 92.2317C41.6387 93.5404 41.4922 94.9298 41.624 96.4071C41.7522 97.8845 42.144 99.2299 42.792 100.443C43.4438 101.657 44.2896 102.694 45.3331 103.556C46.3767 104.417 47.5703 105.051 48.9104 105.462C50.2505 105.872 51.6785 106.008 53.187 105.876C54.6992 105.744 56.0796 105.359 57.3282 104.725C58.5768 104.091 59.6423 103.255 60.521 102.229C61.3998 101.198 62.0552 100.029 62.4836 98.7203C62.912 97.4116 63.0621 96.0222 62.934 94.5449C62.8058 93.0675 62.4214 91.7221 61.7806 90.5087V90.5014ZM58.5035 97.6205C58.2509 98.46 57.8518 99.1969 57.3099 99.8347C56.768 100.473 56.1199 100.986 55.3656 101.378C54.6114 101.77 53.7765 102.009 52.8575 102.089C51.9421 102.17 51.078 102.082 50.2652 101.825C49.456 101.569 48.7273 101.176 48.0829 100.641C47.4385 100.11 46.9186 99.4498 46.5231 98.669C46.1277 97.8882 45.8897 97.0084 45.8055 96.0369C45.7212 95.0654 45.8055 94.1636 46.0581 93.3351C46.3107 92.5066 46.7098 91.7661 47.2518 91.1209C47.7937 90.4758 48.4417 89.9589 49.196 89.5776C49.9503 89.1964 50.7888 88.9617 51.7041 88.8811C52.6195 88.8004 53.4836 88.8811 54.2928 89.1304C55.102 89.376 55.8307 89.7719 56.4751 90.3144C57.1195 90.857 57.6394 91.5132 58.0349 92.2867C58.4267 93.0602 58.6683 93.9327 58.7525 94.9041C58.8367 95.8756 58.7525 96.7811 58.4999 97.6205H58.5035Z" fill="white"/>
<path d="M81.2414 87.708C80.2272 86.271 78.8834 85.1932 77.2065 84.4674C75.5295 83.7416 73.6035 83.4776 71.4286 83.6682L64.8745 84.2438L66.632 104.366L73.1861 103.79C75.3611 103.6 77.2138 103.002 78.7406 101.998C80.2675 100.993 81.4025 99.6918 82.1495 98.0935C82.8964 96.4951 83.1857 94.7209 83.0172 92.7779C82.8452 90.8314 82.2557 89.1414 81.2414 87.708ZM78.3342 96.6051C77.8875 97.6169 77.2101 98.4271 76.3021 99.0429C75.394 99.6588 74.2846 100.022 72.9738 100.139L70.4913 100.355L69.3708 87.5247L71.8533 87.3085C73.1678 87.1948 74.3212 87.3561 75.3208 87.7923C76.3204 88.2322 77.1259 88.9031 77.741 89.8122C78.3562 90.7214 78.7186 91.8321 78.8358 93.1445C78.9493 94.4423 78.7809 95.5933 78.3379 96.6051H78.3342Z" fill="white"/>
<path d="M101.204 81.0581L97.0226 81.4247L98.1137 93.9034C98.1833 94.6952 98.0698 95.4284 97.7769 96.0956C97.484 96.7664 97.0482 97.3053 96.4771 97.7195C95.9059 98.1338 95.2248 98.3721 94.4339 98.4417C93.6614 98.5077 92.951 98.3904 92.3103 98.0825C91.6659 97.7745 91.1422 97.32 90.7358 96.7114C90.3294 96.1029 90.0914 95.4027 90.0218 94.6109L88.9307 82.1322L84.7493 82.4988L85.8624 95.2487C85.9905 96.7261 86.4629 98.0128 87.2757 99.1126C88.0886 100.212 89.1431 101.041 90.4429 101.598C91.7427 102.155 93.1817 102.364 94.7671 102.225C96.3489 102.086 97.7329 101.631 98.9156 100.854C100.098 100.08 100.995 99.0796 101.603 97.8552C102.211 96.6308 102.453 95.2817 102.324 93.8044L101.211 81.0544L101.204 81.0581Z" fill="white"/>
<path d="M118.376 95.3844C117.578 96.0993 116.568 96.5098 115.345 96.6161C114.158 96.7188 113.089 96.5318 112.141 96.0516C111.193 95.5714 110.427 94.8602 109.849 93.9107C109.267 92.9649 108.919 91.8322 108.805 90.5198C108.692 89.2037 108.838 88.0343 109.245 87.0115C109.655 85.9851 110.284 85.1566 111.134 84.5187C111.983 83.8809 113.001 83.5106 114.191 83.408C115.414 83.3017 116.48 83.5289 117.391 84.0935C118.3 84.658 118.97 85.4095 119.398 86.3553L122.939 84.2475C122.51 83.287 121.855 82.4365 120.976 81.696C120.097 80.9555 119.054 80.3946 117.853 80.0097C116.652 79.6248 115.319 79.4965 113.862 79.6248C112.404 79.7531 111.083 80.127 109.896 80.7465C108.71 81.3661 107.696 82.1836 106.861 83.1917C106.022 84.1998 105.411 85.3582 105.019 86.6743C104.627 87.9867 104.496 89.3907 104.624 90.8864C104.756 92.382 105.133 93.7348 105.755 94.9518C106.378 96.1689 107.191 97.2027 108.19 98.0605C109.19 98.9146 110.328 99.5525 111.606 99.9668C112.884 100.381 114.243 100.524 115.682 100.399C117.139 100.271 118.428 99.9154 119.544 99.3252C120.661 98.7387 121.591 98.0018 122.327 97.122C123.063 96.2422 123.561 95.2891 123.817 94.27L119.965 92.811C119.709 93.8117 119.182 94.6732 118.384 95.3844H118.376Z" fill="white"/>
<path d="M137.819 77.8541L123.521 79.1042L123.836 82.7517L128.936 82.3045L130.375 98.7826L134.56 98.416L133.118 81.9379L138.138 81.498L137.819 77.8541Z" fill="white"/>
<path d="M155.427 90.846C155.31 89.497 154.808 88.3862 153.926 87.5211C153.044 86.6559 151.769 86.0327 150.107 85.6515L146.142 84.746C145.512 84.603 145.032 84.3684 144.695 84.0421C144.358 83.7195 144.172 83.3236 144.128 82.8544C144.091 82.4218 144.172 82.0296 144.377 81.6776C144.582 81.3257 144.893 81.0398 145.307 80.8198C145.724 80.6035 146.208 80.4679 146.768 80.4203C147.738 80.3359 148.624 80.5266 149.426 80.9885C150.228 81.454 150.858 82.1396 151.319 83.0414L154.585 81.2047C154.113 80.1746 153.472 79.3168 152.659 78.624C151.846 77.9348 150.909 77.4252 149.847 77.1026C148.785 76.78 147.654 76.6701 146.449 76.7727C145.083 76.8937 143.893 77.2529 142.887 77.8468C141.88 78.4443 141.122 79.2178 140.616 80.1673C140.111 81.1204 139.91 82.1872 140.012 83.3786C140.129 84.7277 140.635 85.8494 141.528 86.7439C142.422 87.6347 143.692 88.2726 145.336 88.6538L149.389 89.607C150.019 89.7536 150.491 89.9772 150.806 90.2851C151.125 90.5931 151.301 90.9817 151.345 91.4509C151.381 91.8835 151.297 92.2684 151.092 92.602C150.887 92.9392 150.583 93.2142 150.184 93.4305C149.785 93.6467 149.298 93.7787 148.723 93.83C147.643 93.9254 146.632 93.6944 145.688 93.1445C144.743 92.591 143.97 91.7881 143.37 90.736L140.078 92.5763C140.572 93.6944 141.261 94.6402 142.132 95.4174C143.007 96.1945 144.018 96.7628 145.164 97.1257C146.31 97.4886 147.511 97.6132 148.771 97.5033C150.191 97.3786 151.414 97.012 152.439 96.4072C153.465 95.8023 154.245 95.0141 154.775 94.0537C155.306 93.0895 155.522 92.0228 155.42 90.8533L155.427 90.846Z" fill="white"/>
<path d="M52.5282 114.033C51.1624 114.033 49.9724 114.282 48.9655 114.781C47.9549 115.279 47.1824 116.001 46.6405 116.947C46.0986 117.893 45.8276 119.048 45.8276 120.415V120.969H42.7043V124.781H45.8276V138.693H50.0896V124.781H54.0257V120.969H50.0896V120.415C50.0896 119.502 50.3496 118.835 50.8695 118.41C51.3894 117.985 52.129 117.776 53.081 117.776C53.2312 117.776 53.3996 117.783 53.5863 117.79C53.7694 117.801 53.9708 117.827 54.1868 117.871V114.19C53.9708 114.146 53.7035 114.11 53.3886 114.077C53.0737 114.044 52.7881 114.029 52.5282 114.029V114.033Z" fill="white"/>
<path d="M66.6432 121.379C65.5375 120.848 64.2559 120.58 62.8023 120.58C61.6087 120.58 60.5029 120.774 59.485 121.167C58.4634 121.559 57.581 122.094 56.8341 122.78C56.0871 123.465 55.5379 124.272 55.1901 125.206L58.6722 126.9C58.998 126.119 59.5143 125.478 60.2173 124.979C60.9203 124.481 61.7295 124.231 62.6412 124.231C63.6188 124.231 64.3987 124.488 64.9846 124.997C65.5704 125.507 65.8633 126.145 65.8633 126.904V127.479L60.6237 128.337C59.236 128.553 58.0863 128.924 57.1746 129.444C56.2629 129.965 55.5855 130.614 55.1425 131.383C54.6958 132.153 54.4761 133.029 54.4761 134.004C54.4761 134.98 54.7251 135.922 55.223 136.692C55.721 137.461 56.4313 138.055 57.354 138.466C58.2767 138.876 59.3569 139.085 60.5908 139.085C61.5684 139.085 62.4508 138.953 63.2417 138.693C64.0326 138.433 64.7502 138.041 65.391 137.52C65.651 137.307 65.8926 137.073 66.1233 136.824V138.693H70.1583V126.9C70.1583 125.661 69.8507 124.565 69.2319 123.608C68.6131 122.651 67.7527 121.907 66.6469 121.376L66.6432 121.379ZM65.3105 133.678C64.9406 134.353 64.417 134.877 63.7323 135.258C63.0476 135.639 62.2641 135.83 61.3743 135.83C60.6787 135.83 60.1001 135.65 59.6351 135.291C59.1701 134.932 58.9358 134.448 58.9358 133.843C58.9358 133.238 59.1408 132.707 59.5546 132.329C59.9647 131.948 60.5944 131.684 61.4403 131.53L65.867 130.742V131.497C65.867 132.278 65.6839 133.007 65.3141 133.678H65.3105Z" fill="white"/>
<path d="M79.1949 125.192C79.9199 124.748 80.7511 124.525 81.6847 124.525C82.6807 124.525 83.5668 124.792 84.3357 125.324C85.1046 125.855 85.6538 126.577 85.9797 127.49L89.7217 125.83C89.3739 124.788 88.8064 123.876 88.0118 123.091C87.2209 122.31 86.2799 121.694 85.1961 121.251C84.1123 120.807 82.9406 120.584 81.6811 120.584C79.9016 120.584 78.3125 120.987 76.9138 121.79C75.5151 122.593 74.413 123.692 73.6111 125.082C72.8093 126.471 72.4065 128.047 72.4065 129.807C72.4065 131.567 72.8129 133.147 73.6258 134.547C74.4386 135.947 75.5407 137.054 76.9284 137.868C78.3162 138.682 79.9016 139.089 81.6774 139.089C82.9553 139.089 84.1379 138.865 85.2254 138.422C86.3092 137.978 87.2429 137.359 88.0228 136.563C88.8027 135.771 89.3666 134.873 89.7144 133.876L85.9724 132.183C85.6245 133.095 85.0789 133.821 84.3283 134.364C83.5814 134.906 82.6953 135.178 81.6774 135.178C80.7437 135.178 79.9162 134.95 79.1876 134.492C78.459 134.037 77.8914 133.407 77.4777 132.604C77.0639 131.801 76.8589 130.877 76.8589 129.836C76.8589 128.795 77.0639 127.897 77.4777 127.083C77.8878 126.269 78.459 125.639 79.1876 125.195L79.1949 125.192Z" fill="white"/>
<path d="M100.977 135.145C100.281 135.145 99.7138 135.035 99.2671 134.818C98.8204 134.602 98.4982 134.287 98.2895 133.872C98.0845 133.462 97.9819 132.96 97.9819 132.373V124.781H102.05V120.969H97.9819V116.929H93.687V118.296C93.687 119.165 93.4527 119.828 92.9876 120.283C92.5226 120.738 91.8526 120.969 90.9848 120.969H90.6589V124.781H93.6833V132.6C93.6833 134.598 94.2362 136.145 95.342 137.241C96.4478 138.338 98.0002 138.887 99.9958 138.887C100.322 138.887 100.68 138.865 101.069 138.821C101.46 138.777 101.805 138.733 102.108 138.689V135.042C101.914 135.064 101.713 135.086 101.508 135.108C101.303 135.13 101.124 135.141 100.97 135.141L100.977 135.145Z" fill="white"/>
<path d="M112.939 128.531L110.109 127.684C109.695 127.553 109.333 127.413 109.018 127.259C108.703 127.109 108.458 126.911 108.285 126.673C108.113 126.434 108.026 126.163 108.026 125.859C108.026 125.316 108.231 124.887 108.644 124.572C109.054 124.257 109.622 124.099 110.336 124.099C111.226 124.099 112.028 124.334 112.745 124.799C113.459 125.265 113.972 125.903 114.276 126.706L117.531 125.173C116.989 123.718 116.077 122.589 114.796 121.786C113.514 120.983 112.042 120.58 110.369 120.58C109.087 120.58 107.956 120.807 106.967 121.266C105.979 121.72 105.21 122.358 104.657 123.172C104.104 123.986 103.826 124.935 103.826 126.024C103.826 127.241 104.21 128.3 104.979 129.199C105.748 130.1 106.872 130.757 108.348 131.171L111.244 131.985C111.636 132.095 111.98 132.23 112.284 132.391C112.588 132.553 112.833 132.751 113.016 132.978C113.199 133.205 113.294 133.495 113.294 133.84C113.294 134.404 113.067 134.862 112.61 135.207C112.156 135.555 111.548 135.727 110.786 135.727C109.787 135.727 108.882 135.445 108.069 134.881C107.257 134.316 106.623 133.535 106.165 132.534L102.943 134.067C103.485 135.61 104.456 136.831 105.854 137.733C107.253 138.634 108.897 139.085 110.783 139.085C112.126 139.085 113.298 138.858 114.298 138.4C115.294 137.945 116.077 137.307 116.641 136.494C117.205 135.68 117.487 134.741 117.487 133.675C117.487 132.413 117.091 131.35 116.301 130.482C115.51 129.613 114.386 128.96 112.932 128.528L112.939 128.531Z" fill="white"/>
<path d="M56.5191 52.6768C55.1095 51.874 53.524 51.4708 51.7702 51.4708C50.0163 51.4708 48.4602 51.874 47.0505 52.6768C45.6408 53.4797 44.5131 54.5794 43.6673 55.9688C42.8215 57.3582 42.3967 58.9455 42.3967 60.7234C42.3967 62.5014 42.8215 64.0887 43.6673 65.4781C44.5131 66.8675 45.6481 67.9636 47.0688 68.7701C48.4895 69.5729 50.0566 69.9761 51.7702 69.9761C53.4837 69.9761 55.0765 69.5729 56.4898 68.7701C57.8995 67.9672 59.0273 66.8711 59.8731 65.4781C60.7189 64.0887 61.1436 62.5014 61.1436 60.7234C61.1436 58.9455 60.7262 57.3288 59.8914 55.9505C59.0566 54.5721 57.9325 53.4797 56.5228 52.6768H56.5191ZM56.0468 63.4765C55.6221 64.2904 55.0472 64.9245 54.3222 65.3828C53.5936 65.8373 52.7441 66.0683 51.7665 66.0683C50.7889 66.0683 49.965 65.841 49.2291 65.3828C48.4895 64.9282 47.9109 64.2904 47.4899 63.4765C47.0651 62.6627 46.8564 61.7462 46.8564 60.7234C46.8564 59.7007 47.0688 58.7915 47.4899 57.985C47.9146 57.1822 48.4931 56.5517 49.2291 56.0971C49.965 55.6425 50.8109 55.4116 51.7665 55.4116C52.7222 55.4116 53.5936 55.6389 54.3222 56.0971C55.0472 56.5517 55.6221 57.1822 56.0468 57.985C56.4715 58.7879 56.6802 59.7007 56.6802 60.7234C56.6802 61.7462 56.4679 62.6627 56.0468 63.4765Z" fill="white"/>
<path d="M77.69 52.7098C76.3462 51.885 74.8377 51.4708 73.1681 51.4708C71.8023 51.4708 70.5977 51.7384 69.5578 52.2699C68.723 52.6952 68.031 53.2597 67.4744 53.9599V51.863H63.4395V76.1018H67.7344V67.8829C68.258 68.4401 68.8804 68.8874 69.6054 69.2283C70.6782 69.7269 71.8572 69.9761 73.1351 69.9761C74.8487 69.9761 76.3792 69.5692 77.723 68.7554C79.0667 67.9416 80.1322 66.8271 80.9121 65.4158C81.692 64.0044 82.0838 62.4391 82.0838 60.7234C82.0838 59.0078 81.6884 57.4205 80.8975 56.0311C80.1066 54.6418 79.0374 53.5347 77.6937 52.7098H77.69ZM77.0053 63.4949C76.5696 64.2977 75.9801 64.9282 75.2331 65.3828C74.4862 65.8373 73.6221 66.0683 72.6445 66.0683C71.6668 66.0683 70.8723 65.841 70.1217 65.3828C69.3747 64.9282 68.7889 64.2977 68.3642 63.4949C67.9394 62.692 67.7307 61.7682 67.7307 60.7271C67.7307 59.686 67.9431 58.7952 68.3642 57.9887C68.7889 57.1859 69.3711 56.5553 70.1217 56.1008C70.8686 55.6462 71.7108 55.4153 72.6445 55.4153C73.5781 55.4153 74.4825 55.6425 75.2331 56.1008C75.9801 56.5553 76.5733 57.1859 77.0053 57.9887C77.4374 58.7915 77.6571 59.7043 77.6571 60.7271C77.6571 61.7499 77.441 62.692 77.0053 63.4949Z" fill="white"/>
<path d="M98.7765 54.0442C98.0406 53.2414 97.1435 52.6109 96.0927 52.1563C95.0418 51.7017 93.8189 51.4708 92.4311 51.4708C90.7615 51.4708 89.2639 51.874 87.9421 52.6768C86.6203 53.4797 85.5658 54.5721 84.7859 55.9505C84.006 57.3288 83.6143 58.9088 83.6143 60.6905C83.6143 62.4721 83.995 63.9714 84.753 65.3828C85.5109 66.7941 86.5801 67.9122 87.9568 68.7371C89.3335 69.5619 90.9336 69.9761 92.757 69.9761C93.9507 69.9761 95.0564 69.7928 96.0743 69.4226C97.0922 69.0523 97.971 68.5428 98.7106 67.8903C99.4466 67.2377 99.9921 66.4899 100.336 65.6431L96.8872 63.9494C96.4954 64.6459 95.9608 65.1995 95.2761 65.6101C94.5914 66.0243 93.7639 66.2296 92.7863 66.2296C91.8087 66.2296 90.9482 66.0023 90.1976 65.5441C89.4507 65.0895 88.8832 64.4407 88.506 63.6048C88.279 63.1026 88.1362 62.5527 88.074 61.9588H100.82C100.908 61.6986 100.966 61.409 100.999 61.0974C101.032 60.7821 101.047 60.4632 101.047 60.1369C101.047 58.9418 100.853 57.8311 100.461 56.7973C100.069 55.7672 99.5052 54.847 98.7692 54.0442H98.7765ZM88.1655 58.6706C88.2387 58.2966 88.3413 57.9484 88.4767 57.6294C88.8356 56.7826 89.3592 56.1301 90.0548 55.6755C90.7505 55.221 91.5414 54.99 92.4311 54.99C93.3209 54.99 94.1594 55.2173 94.8221 55.6755C95.4848 56.1301 95.9608 56.7496 96.2538 57.5341C96.3892 57.8897 96.4661 58.271 96.4918 58.6742H88.1655V58.6706Z" fill="white"/>
<path d="M115.92 52.3176C114.909 51.753 113.756 51.4708 112.456 51.4708C111.156 51.4708 110.098 51.7494 109.153 52.3029C108.424 52.7318 107.857 53.311 107.443 54.0442V51.863H103.408V69.5875H107.703V59.1948C107.703 58.4139 107.853 57.7394 108.157 57.1749C108.461 56.6103 108.882 56.1778 109.428 55.8735C109.97 55.5692 110.588 55.4189 111.284 55.4189C111.98 55.4189 112.595 55.5729 113.14 55.8735C113.682 56.1778 114.107 56.6103 114.411 57.1749C114.715 57.7394 114.865 58.4139 114.865 59.1948V69.5875H119.127V58.1867C119.127 56.8633 118.845 55.6939 118.281 54.6857C117.717 53.6776 116.93 52.8895 115.923 52.3249L115.92 52.3176Z" fill="white"/>
<path d="M80.978 35.0293C73.5964 35.0293 67.5915 29.0172 67.5915 21.6268H63.0476C63.0476 28.3684 66.7787 34.2521 72.2819 37.3205L69.0964 44.9345L73.2888 46.6941L76.5036 39.0141C77.9353 39.3844 79.4365 39.5823 80.9816 39.5823C90.8677 39.5823 98.912 31.5284 98.912 21.6305H94.3681C94.3681 29.0209 88.3632 35.033 80.9816 35.033L80.978 35.0293Z" fill="black"/>
<path d="M94.3644 21.6342C94.3644 29.0356 88.3706 35.0366 80.978 35.0366C73.5854 35.0366 67.5916 29.0356 67.5916 21.6342H94.3644Z" fill="white"/>
<path d="M92.3909 5.50793H69.5687C65.9658 5.50793 63.0476 8.42964 63.0476 12.0369V21.6305H67.5915C67.5915 14.2291 73.5854 8.22802 80.978 8.22802C88.3705 8.22802 94.3644 14.2291 94.3644 21.6305H98.9083V12.0369C98.9083 8.42964 95.9901 5.50793 92.3872 5.50793H92.3909Z" fill="#BEBEBE"/>
<path d="M88.3595 0.914612H83.5264C82.5085 0.914612 81.615 1.5928 81.3404 2.57526L80.5239 5.50796H91.362L90.5455 2.57526C90.2708 1.5928 89.3774 0.914612 88.3595 0.914612Z" fill="#646464"/>
<path d="M71.3483 2.73657H73.9662C74.3617 2.73657 74.6802 3.0555 74.6802 3.45142V5.50431H70.6343V3.45142C70.6343 3.0555 70.9528 2.73657 71.3483 2.73657Z" fill="#646464"/>
<path d="M93.9836 8.60931H93.9726C93.0202 8.60931 92.248 9.38235 92.248 10.3359C92.248 11.2895 93.0202 12.0626 93.9726 12.0626H93.9836C94.936 12.0626 95.7082 11.2895 95.7082 10.3359C95.7082 9.38235 94.936 8.60931 93.9836 8.60931Z" fill="#FFE600"/>
<path d="M80.978 8.22437C73.5854 8.22437 67.5916 14.2254 67.5916 21.6268H71.4251C71.4251 16.3443 75.7018 12.0625 80.978 12.0625C86.2542 12.0625 90.5308 16.3443 90.5308 21.6268H94.3644C94.3644 14.2254 88.3706 8.22437 80.978 8.22437Z" fill="#646464"/>
<path d="M80.9779 12.0626C75.7017 12.0626 71.425 16.3443 71.425 21.6268H90.5344C90.5344 16.3443 86.2578 12.0626 80.9816 12.0626H80.9779Z" fill="#82DCFF"/>
<path d="M87.1695 18.8444C86.9241 18.8444 86.6898 18.7125 86.569 18.4815C86.2614 17.8913 85.8586 17.3598 85.3753 16.9015C85.1044 16.6449 85.0934 16.216 85.3497 15.9447C85.606 15.6735 86.0381 15.6625 86.3053 15.9191C86.8948 16.4799 87.3855 17.1325 87.7626 17.851C87.9347 18.1809 87.8102 18.5915 87.477 18.7675C87.3782 18.8188 87.2683 18.8444 87.1621 18.8444H87.1695Z" fill="white"/>
<path d="M84.0719 15.8714C83.9767 15.8714 83.8779 15.8494 83.7827 15.8054C83.5813 15.7101 83.3726 15.6258 83.1639 15.5562C82.8087 15.4352 82.622 15.0503 82.7428 14.6947C82.8636 14.3391 83.2481 14.1521 83.6032 14.2731C83.8596 14.3611 84.1122 14.4637 84.3575 14.581C84.6944 14.7387 84.8408 15.1456 84.6797 15.4828C84.5662 15.7285 84.3209 15.8714 84.0683 15.8714H84.0719Z" fill="white"/>
</svg>
