<svg width="240" height="130" xml:space="preserve" xmlns="http://www.w3.org/2000/svg"><path fill="#fff" d="M.001 109.318C.001 120.723 9.682 130 21.579 130h196.85c11.894 0 21.573-9.28 21.573-20.682V20.681C240.002 9.277 230.322 0 218.428 0H21.577C9.682 0 0 9.279 0 20.68Z" style="stroke-width:1.636"/><path d="M100.57 18.063c1.59-.133 3.064 1.339 2.928 2.928-.196 2.265-3.014 53.727-19.483 70.196-15.783 15.783-34.38 12.08-46.526 3.349a12.903 12.903 0 0 1-.492-.377l-10.948 10.933a6.773 6.773 0 0 1-9.578-9.578l10.935-10.947a12.617 12.617 0 0 1-.38-.494c-8.729-12.144-12.434-30.743 3.349-46.528 16.469-16.47 67.928-19.29 70.195-19.482z" fill="#1e8f4e"/><path fill-rule="evenodd" clip-rule="evenodd" d="M74.489 77.264c0 2.238-1.699 3.829-4.071 3.829-2.292 0-3.505-1.052-4.233-3.586l-2.049-6.148H50.09l-2.049 6.067c-.754 2.588-1.968 3.667-4.125 3.667-2.534 0-4.125-1.483-4.125-3.829 0-.674.19-1.59.54-2.588l10.622-28.93c1.133-3.155 3.047-4.611 6.12-4.611 3.182 0 5.069 1.402 6.228 4.583l10.677 28.958c.377 1.051.512 1.78.512 2.588zM51.869 65.05h10.38l-5.15-15.934h-.188z" fill="#fff"/><path d="M80.25 51.858c-1.596 0-2.55-1.032-2.55-2.706v-5.568h-5.315c-1.597 0-2.61-.935-2.61-2.492 0-1.539 1.013-2.473 2.61-2.473H77.7v-5.607c0-1.655.973-2.707 2.55-2.707s2.531 1.052 2.531 2.707v5.607h5.296c1.617 0 2.628.934 2.628 2.473 0 1.557-1.03 2.492-2.647 2.492H82.78v5.568c0 1.674-.954 2.706-2.53 2.706z" fill="#fff"/><path fill="#1e8f4e" fill-rule="evenodd" d="M2.35 109.318c0 10.017 8.535 18.334 19.229 18.334h196.85c10.693 0 19.227-8.32 19.227-18.334V20.681c0-10.016-8.534-18.333-19.228-18.333H21.577c-10.694 0-19.228 8.32-19.228 18.333zM21.578 130C9.684 130 0 120.723 0 109.318V20.681C.001 9.28 9.68 0 21.577 0h196.851c11.895 0 21.574 9.277 21.574 20.681v88.64c0 11.402-9.68 20.681-21.574 20.681z" clip-rule="evenodd" style="stroke-width:1.636;fill:#1e8f4e;fill-opacity:1"/><path fill="#1d1d1b" d="M148.955 39.38h-26.141c.825 6.052 6.009 9.113 11.118 9.113 7.511 0 11.267-3.645 11.267-3.645v7.29s-3.756 3.649-11.267 3.649c-11.268 0-18.78-7.292-18.78-18.233s7.512-18.234 16.904-18.234c9.39 0 16.901 7.29 16.901 18.234v1.825zm-25.916-5.474h18.03c-1.053-4.883-4.434-7.29-9.018-7.29-4.58 0-7.96 2.407-9.012 7.293zM179.106 21.145v7.293s-5.473-1.825-9.116-1.825c-5.473 0-10.939 3.648-10.939 10.941 0 7.291 5.47 10.94 10.939 10.94 3.648 0 9.114-1.826 9.114-1.826v7.296s-3.646 1.823-9.114 1.823c-10.939 0-18.234-7.292-18.234-18.233S159.05 19.32 169.99 19.32c5.468 0 9.114 1.825 9.114 1.825zM218.342 37.556c0 10.94-7.293 18.233-18.232 18.233-10.941 0-18.234-7.291-18.234-18.233s7.293-18.234 18.234-18.234c10.939 0 18.232 7.293 18.232 18.234zm-29.173 0c0 7.292 5.473 10.94 10.941 10.94 5.47 0 10.939-3.648 10.939-10.94 0-7.295-5.473-10.94-10.939-10.94-5.47 0-10.941 3.645-10.941 10.94zM123.174 109.541c-3.714 0-7.426-1.236-7.426-1.236v-4.95s3.712 1.236 7.426 1.236c2.471 0 3.711-1.236 3.711-2.471 0-3.714-11.717-1.24-11.717-9.902 0-4.948 3.056-7.426 8.006-7.426 3.714 0 7.428 1.24 7.428 1.24v4.948s-3.714-1.236-7.428-1.236c-2.472 0-3.712 1.236-3.712 2.472 0 3.714 12.375 1.238 12.375 9.901-.002 4.95-3.716 7.426-8.663 7.426zM151.881 86.032v4.948s-3.711-1.236-6.187-1.236c-3.712 0-7.426 2.472-7.426 7.424 0 4.95 3.714 7.425 7.426 7.425 2.476 0 6.187-1.238 6.187-1.238v4.948s-2.473 1.24-6.187 1.24c-7.426 0-12.374-4.95-12.374-12.375 0-7.426 4.948-12.376 12.374-12.376 3.714 0 6.187 1.24 6.187 1.24zM178.663 97.168c0 7.425-4.95 12.375-12.376 12.375-7.426 0-12.375-4.95-12.375-12.375 0-7.426 4.95-12.376 12.375-12.376 7.426 0 12.376 4.95 12.376 12.376zm-19.802 0c0 4.95 3.712 7.425 7.426 7.425s7.426-2.473 7.426-7.425c0-4.95-3.712-7.426-7.426-7.426s-7.426 2.476-7.426 7.426zM195.64 84.792v4.95c-4.95 0-9.902 1.238-9.902 7.426v12.375h-4.948v-24.75h4.948v9.9c.002-6.187 3.713-9.9 9.901-9.9zM218.161 98.406h-17.226c.545 4.109 3.961 6.187 7.327 6.187 4.95 0 7.426-2.473 7.426-2.473v4.947s-2.476 2.476-7.426 2.476c-7.426 0-12.376-4.95-12.376-12.375 0-7.426 4.95-12.376 11.138-12.376s11.135 4.95 11.135 12.376v1.238zm-17.078-3.712h11.881c-.692-3.317-2.92-4.95-5.938-4.95-3.023 0-5.248 1.633-5.943 4.95z" style="stroke-width:1.636"/><g transform="translate(-44.151 174.2)" stroke="#fff" stroke-width="1.859"><rect x="236.495" y="-112.07" width="29.127" height="15.803" rx="7.902" fill="#bf3122"/><rect x="220.382" y="-112.07" width="29.127" height="15.803" rx="7.902" fill="#de4523"/><rect x="204.269" y="-112.07" width="29.127" height="15.803" rx="7.902" fill="#ef7e1a"/><rect x="188.156" y="-112.07" width="29.127" height="15.803" rx="7.902" fill="#f5c100"/><rect x="172.043" y="-112.07" width="29.127" height="15.803" rx="7.902" fill="#2ecc71"/><rect x="155.93" y="-112.07" width="29.127" height="15.803" rx="7.902" fill="#1e8f4e"/></g></svg>