<?xml version="1.0" encoding="UTF-8"?>
<svg width="200px" height="35px" viewBox="0 0 200 35" version="1.1" xmlns="http://www.w3.org/2000/svg" xmlns:xlink="http://www.w3.org/1999/xlink">
    <title>logo_text_black</title>
    <g id="logo_text_black" stroke="none" fill="none" fill-rule="evenodd" stroke-width="1">
        <g id="Group" transform="translate(0, 0)">
            <g transform="translate(84.2729, 3.7387)" fill-rule="nonzero">
                <path d="M4.83317588,2.62340813 L57.9849776,2.62340813 C60.1941166,2.62340813 61.9849776,4.41426913 61.9849776,6.62340813 L61.9849776,20.4125956 C61.9849776,22.6217346 60.1941166,24.4125956 57.9849776,24.4125956 L4.83317588,24.4125956 C2.62403688,24.4125956 0.833175875,22.6217346 0.833175875,20.4125956 L0.833175875,6.62340813 C0.833175875,4.41426913 2.62403688,2.62340813 4.83317588,2.62340813 Z" id="Rectangle" fill="#FF8714" transform="translate(31.4091, 13.518) rotate(-5) translate(-31.4091, -13.518)"></path>
                <g transform="translate(4.9195, 5.0352)" fill="#FFFFFF">
                    <polygon id="Path" points="1.17580776 17.4392696 1.3924361e-14 4.00321635 9.19824609 3.19729812 9.41136124 5.63220001 3.00810817 6.19315829 3.30695931 9.60300078 8.80875977 9.12287928 9.02187492 11.5577812 3.52007447 12.0379027 3.97080077 17.1967592 1.17580776 17.4417192"></polygon>
                    <path d="M18.0241531,16.1850746 C17.0149181,16.2732602 16.0620239,16.1801754 15.1654704,15.9082699 C14.268917,15.6363643 13.4727972,15.210134 12.7722117,14.6369277 C12.0740759,14.0612719 11.5082184,13.3704848 11.0721897,12.5596674 C10.6386106,11.7488499 10.3765034,10.8522965 10.2907675,9.86510793 C10.2050315,8.88036893 10.3030155,7.94952113 10.5822698,7.07746371 C10.8639737,6.20540629 11.2975529,5.42888325 11.8879063,4.74544499 C12.4758102,4.06445634 13.1886437,3.51084685 14.0239571,3.08706614 C14.8592705,2.66328543 15.7876687,2.40607748 16.8091517,2.3154423 C17.8306347,2.22480712 18.7908777,2.3154423 19.6874311,2.58979744 C20.5839845,2.86415259 21.3801044,3.2830341 22.0782402,3.85379078 C22.7763761,4.42209786 23.3397839,5.11288492 23.7684639,5.92370235 C24.1971438,6.73451978 24.4543517,7.63352279 24.5400877,8.61826179 C24.6258237,9.60545038 24.5253901,10.5338486 24.238787,11.405906 C23.9521838,12.2779634 23.5137055,13.0593857 22.9258016,13.7477231 C22.3378978,14.4360606 21.6250643,14.9921197 20.7897509,15.4159004 C19.9544374,15.8396811 19.0309384,16.096889 18.0217035,16.1850746 L18.0241531,16.1850746 Z M17.8036891,13.6595375 C18.416089,13.6056464 18.9745977,13.448872 19.4792151,13.1867648 C19.9838326,12.9246577 20.4174118,12.5817138 20.7799525,12.1554835 C21.1424932,11.7292531 21.4094995,11.2368836 21.5785219,10.678375 C21.7475443,10.1174167 21.8038851,9.5148152 21.7475443,8.86322174 C21.6912035,8.21407787 21.5295299,7.63107319 21.2674228,7.1142077 C21.0053156,6.59734221 20.6574725,6.1588639 20.226343,5.79632318 C19.7952135,5.43378245 19.3077432,5.17167531 18.7663817,5.00510254 C18.2250202,4.84097937 17.6469147,4.78463859 17.0345149,4.83852978 C16.422115,4.89242096 15.8636063,5.04674573 15.3589888,5.30395368 C14.8543713,5.56116162 14.4207922,5.90410555 14.0582515,6.33523506 C13.6957108,6.76636457 13.431154,7.25873407 13.259682,7.81234356 C13.0906597,8.36595304 13.0343189,8.96855452 13.0906597,9.61769838 C13.1470005,10.2668422 13.308674,10.8522965 13.5707812,11.3740612 C13.8353379,11.8958259 14.183181,12.3343042 14.611861,12.6919457 C15.0429905,13.0471377 15.5304608,13.3116944 16.0718223,13.4831664 C16.6131837,13.6546383 17.1912892,13.7134287 17.8036891,13.6595375 Z" id="Shape"></path>
                    <path d="M33.3561963,14.8426941 C32.3469613,14.9308797 31.3940671,14.8377949 30.4975137,14.5658894 C29.6009602,14.2939838 28.8048404,13.8677535 28.104255,13.2945472 C27.4061191,12.7188913 26.8402616,12.0281043 26.4042329,11.2172868 C25.9706538,10.4064694 25.7085467,9.509916 25.6228107,8.52272741 C25.5370747,7.53798841 25.6350587,6.60714061 25.914313,5.73508319 C26.196017,4.86302577 26.6295961,4.08650273 27.2199495,3.40306447 C27.8078534,2.72207582 28.5206869,2.16846633 29.3560003,1.74468562 C30.1913137,1.32090491 31.1197119,1.06369696 32.1411949,0.973061779 C33.1626779,0.884876198 34.1229209,0.973061779 35.0194743,1.24741692 C35.9160277,1.52177207 36.7121476,1.94065358 37.4102834,2.51141026 C38.1084193,3.07971734 38.6718272,3.7705044 39.1005071,4.58132183 C39.529187,5.39213926 39.7863949,6.29114227 39.8721309,7.27588127 C39.9578669,8.26306986 39.8574333,9.19146807 39.5708302,10.0635255 C39.284227,10.9380325 38.8457487,11.7170051 38.2578448,12.4053426 C37.669941,13.0936801 36.9571075,13.6497391 36.1217941,14.0735199 C35.2864807,14.4973006 34.3629817,14.7545085 33.3537467,14.8426941 L33.3561963,14.8426941 Z M33.1357323,12.317157 C33.7481322,12.2632658 34.3066409,12.1064915 34.8112584,11.8443843 C35.3158759,11.5822772 35.749455,11.2393332 36.1119957,10.8131029 C36.4745364,10.3868726 36.7415428,9.89450312 36.9105651,9.33599444 C37.0795875,8.77503616 37.1359283,8.17243468 37.0795875,7.52084122 C37.0232467,6.87169735 36.8615731,6.28869267 36.599466,5.77182718 C36.3373588,5.25496169 35.9895157,4.81648338 35.5583862,4.45394266 C35.1272567,4.09140193 34.6397864,3.82929479 34.0984249,3.66272202 C33.5570634,3.49859885 32.9789579,3.44225807 32.3665581,3.49614925 C31.7541582,3.55004044 31.1931999,3.70436521 30.6885824,3.96157316 C30.1839649,4.2187811 29.7503858,4.56172503 29.3878451,4.99285454 C29.0253044,5.42398405 28.7607476,5.91635355 28.5892757,6.46996304 C28.4202533,7.02357252 28.3639125,7.626174 28.4202533,8.27531786 C28.4765941,8.92446173 28.6382676,9.509916 28.9003748,10.0316807 C29.1649315,10.5534454 29.5127747,10.9919237 29.9414546,11.3495652 C30.3725841,11.7047571 30.8600544,11.9693139 31.4014159,12.1407859 C31.9427774,12.3122578 32.5208828,12.3710482 33.1332827,12.317157 L33.1357323,12.317157 Z" id="Shape"></path>
                    <path d="M42.1012664,13.8604047 L40.9254587,0.424351493 L45.3077922,0.0397643734 C46.7628543,-0.0876148001 48.0513436,0.0912059627 49.1708106,0.573777062 C50.2902775,1.05634816 51.1892806,1.77898001 51.8678196,2.73677341 C52.5439091,3.69456681 52.9407442,4.82383218 53.0534258,6.12211991 C53.1661073,7.42040764 52.972589,8.60356419 52.4728707,9.67158957 C51.9731524,10.7396149 51.2113269,11.6092228 50.1922936,12.280413 C49.1732602,12.9516033 47.9362124,13.350888 46.4811503,13.4782672 L42.0988168,13.8628543 L42.1012664,13.8604047 Z M44.6831443,11.1805429 L46.3415232,11.0360165 C47.2184798,10.9600789 47.9607084,10.715119 48.5682091,10.3060358 C49.1732602,9.89450312 49.6264361,9.35314164 49.9252872,8.67950178 C50.2241384,8.00586192 50.3343703,7.23423808 50.2584327,6.36952946 C50.1824952,5.49257284 49.9375352,4.75034419 49.5284521,4.14284352 C49.1169194,3.53779245 48.5780075,3.08706614 47.9117164,2.7931142 C47.2429758,2.49916226 46.4713519,2.39137988 45.5943953,2.46976707 L43.9360165,2.61429344 L44.6855939,11.1805429 L44.6831443,11.1805429 Z" id="Shape"></path>
                </g>
            </g>
            <g transform="translate(150.0404, 7.5815)" fill="#000000" fill-rule="nonzero">
                <path d="M6.56002744,-6.96218049e-15 C5.64632683,-6.96218049e-15 4.85510619,0.166572765 4.18146633,0.499718296 C3.50782647,0.832863827 2.99096098,1.31543493 2.62842025,1.944982 C2.26587953,2.57452906 2.08460917,3.3461529 2.08460917,4.25985351 L2.08460917,4.62974304 L0,4.62974304 L0,7.17242731 L2.08460917,7.17242731 L2.08460917,16.4490606 L4.93104377,16.4490606 L4.93104377,7.17242731 L7.55946403,7.17242731 L7.55946403,4.62974304 L4.93104377,4.62974304 L4.93104377,4.25985351 C4.93104377,3.65235284 5.10496534,3.20652573 5.45280847,2.92482179 C5.80065159,2.64311785 6.29302109,2.50104108 6.92991696,2.50104108 C7.03035054,2.50104108 7.14303211,2.50594028 7.26551209,2.51083948 C7.38799206,2.51818828 7.52272004,2.53533547 7.66724641,2.56473067 L7.66724641,0.110231977 C7.52272004,0.0808367832 7.34389927,0.0563407883 7.13568332,0.0342943929 C6.92501776,0.0122479975 6.733949,0.00244959949 6.56002744,0.00244959949 L6.56002744,-6.96218049e-15 Z" id="Path"></path>
                <path d="M15.9860863,4.89919898 C15.2463072,4.54400705 14.391397,4.36763589 13.4213556,4.36763589 C12.6252358,4.36763589 11.8854567,4.49746466 11.2044681,4.75957181 C10.5234794,5.01922936 9.93312593,5.37932048 9.43340764,5.83494599 C8.93368934,6.29057149 8.56869902,6.83193298 8.33598707,7.45413125 L10.660657,8.58339661 C10.8786713,8.06163192 11.2216153,7.63540161 11.6919384,7.30225608 C12.1622615,6.96911055 12.7011734,6.80253779 13.3111236,6.80253779 C13.9627171,6.80253779 14.4844818,6.97400975 14.8764177,7.31205448 C15.2683536,7.65254881 15.461872,8.07632952 15.461872,8.58339661 L15.461872,8.96553414 L11.9638439,9.53874042 C11.0354457,9.68326679 10.2687211,9.93067633 9.66122039,10.2785195 C9.05371972,10.6263626 8.60054381,11.0574921 8.30414227,11.571908 C8.00774073,12.0863239 7.85831517,12.6693286 7.85831517,13.320922 C7.85831517,13.9725155 8.02488793,14.599613 8.35803346,15.1140289 C8.69117899,15.6284447 9.16640129,16.0228303 9.78125077,16.2971854 C10.3961002,16.5715406 11.1162825,16.7111677 11.9442471,16.7111677 C12.5958406,16.7111677 13.1861941,16.6254317 13.7153075,16.4515102 C14.244421,16.2775886 14.7220929,16.0179311 15.1483232,15.6700879 C15.3222448,15.5280112 15.4839184,15.3712368 15.6382431,15.2071136 L15.6382431,16.4539598 L18.3328026,16.4539598 L18.3328026,8.58829581 C18.3328026,7.76278079 18.1270362,7.03035054 17.7130539,6.39345467 C17.2990716,5.7565588 16.7234157,5.25929011 15.9860863,4.90409818 L15.9860863,4.89919898 Z M15.0944321,13.1004581 C14.8470225,13.5487348 14.4967298,13.9014771 14.0411043,14.1537859 C13.5854788,14.4085442 13.0588149,14.5334738 12.4660118,14.5334738 C12.0030375,14.5334738 11.6160008,14.4134434 11.302452,14.1758323 C10.9913529,13.9357715 10.8345785,13.614874 10.8345785,13.2082405 C10.8345785,12.8016069 10.9717561,12.4513142 11.2485609,12.1990055 C11.522916,11.9466967 11.9442471,11.767876 12.507655,11.6674424 L15.461872,11.1432281 L15.461872,11.645396 C15.461872,12.1671607 15.339392,12.6521814 15.0919825,13.1004581 L15.0944321,13.1004581 Z" id="Shape"></path>
                <path d="M24.3661661,7.44188325 C24.8511868,7.14548171 25.4047963,6.99605614 26.0294442,6.99605614 C26.6957352,6.99605614 27.2860887,7.17242731 27.8005046,7.52761923 C28.3149205,7.88281116 28.6799108,8.36293266 28.8979252,8.97288293 L31.3965167,7.86566396 C31.1638047,7.16997771 30.7841168,6.56247704 30.2550033,6.04071234 C29.7258898,5.51894765 29.0987923,5.10986454 28.3761605,4.813463 C27.651079,4.51706146 26.8696568,4.36763589 26.0294442,4.36763589 C24.8413884,4.36763589 23.7807119,4.63464224 22.8474144,5.17110452 C21.914117,5.70756681 21.1767876,6.43754746 20.6427749,7.36594567 C20.1063126,8.29189428 19.8393063,9.34277246 19.8393063,10.5161306 C19.8393063,11.6894888 20.1112118,12.7428165 20.6550229,13.676114 C21.198834,14.6094114 21.9337138,15.3491904 22.8596624,15.8930015 C23.7856111,16.4368126 24.843838,16.7087181 26.0318938,16.7087181 C26.886804,16.7087181 27.675575,16.5592926 28.4006565,16.262891 C29.1257379,15.9664895 29.7479362,15.5525072 30.2697009,15.0233937 C30.7914656,14.4942802 31.1687039,13.8965779 31.3989663,13.2302868 L28.9003748,12.1010215 C28.6676628,12.7085222 28.3026725,13.1935429 27.8029542,13.5560836 C27.3032359,13.9186243 26.7128824,14.0998947 26.0318938,14.0998947 C25.4096955,14.0998947 24.8536364,13.9480195 24.3686157,13.6442692 C23.883595,13.3405188 23.5039071,12.9191877 23.2271024,12.385175 C22.9527472,11.8487127 22.8131201,11.2338633 22.8131201,10.538177 C22.8131201,9.84249075 22.9502976,9.24478848 23.2271024,8.70342699 C23.5014575,8.1596159 23.8811454,7.74073439 24.3686157,7.44433285 L24.3661661,7.44188325 Z" id="Path"></path>
                <path d="M38.9094383,14.0802979 C38.446464,14.0802979 38.0643265,14.0068099 37.7679249,13.8622835 C37.4715234,13.7177571 37.2535091,13.5070916 37.1163315,13.2327364 C36.9791539,12.9583813 36.9105651,12.6252358 36.9105651,12.2332999 L36.9105651,7.16997771 L39.627171,7.16997771 L39.627171,4.62729344 L36.9105651,4.62729344 L36.9105651,1.932734 L34.0420841,1.932734 L34.0420841,2.84643461 C34.0420841,3.42698969 33.8853098,3.8679176 33.5742106,4.17166793 C33.2631115,4.47541827 32.8172844,4.62729344 32.2391789,4.62729344 L32.0211645,4.62729344 L32.0211645,7.16997771 L34.0420841,7.16997771 L34.0420841,12.385175 C34.0420841,13.7177571 34.4119736,14.7490385 35.1493031,15.4814688 C35.8890821,16.213899 36.9228131,16.5788894 38.2553952,16.5788894 C38.4734096,16.5788894 38.7110207,16.5641918 38.9731279,16.5347966 C39.2327854,16.5054014 39.4654974,16.4760062 39.6688141,16.4490606 L39.6688141,14.0166083 C39.5389854,14.0313059 39.4042574,14.0460035 39.2670798,14.0607011 C39.1299023,14.0753987 39.0098719,14.0827475 38.9094383,14.0827475 L38.9094383,14.0802979 Z" id="Path"></path>
                <path d="M46.8975822,9.66856919 L45.0064914,9.10271171 C44.7321363,9.01697572 44.4896259,8.92144134 44.2789604,8.82100777 C44.0682948,8.72057419 43.9066213,8.59074541 43.7890405,8.42907185 C43.6739093,8.26984788 43.6151189,8.08857752 43.6151189,7.88526076 C43.6151189,7.52272004 43.7522965,7.23611689 44.0291012,7.02790094 C44.3034564,6.81723538 44.6806947,6.7119026 45.1583666,6.7119026 C45.7511697,6.7119026 46.287632,6.86867697 46.7653039,7.17977611 C47.2429758,7.49087524 47.5834701,7.91465595 47.7867869,8.45111824 L49.9595816,7.42963525 C49.5970409,6.45959386 48.9895402,5.70511721 48.13463,5.17110452 C47.2797198,4.63464224 46.2949808,4.36763589 45.180413,4.36763589 C44.3255028,4.36763589 43.5685765,4.51951106 42.9096343,4.8232614 C42.250692,5.12701173 41.7362761,5.55079245 41.3663866,6.09460353 C40.9964971,6.63841462 40.8127771,7.27041129 40.8127771,7.99549274 C40.8127771,8.80631017 41.0699851,9.51179482 41.584401,10.1143963 C42.0988168,10.7145482 42.8483943,11.1530265 43.8331333,11.4298312 L45.7658673,11.9736423 C46.0255248,12.0471303 46.2582368,12.1377655 46.4615535,12.2455479 C46.6648703,12.3533302 46.8265439,12.4856086 46.9514734,12.6374838 C47.0739534,12.7893589 47.1351934,12.9828773 47.1351934,13.2131397 C47.1351934,13.590378 46.9833182,13.8941283 46.6795679,14.1268403 C46.3758176,14.3595522 45.969184,14.4746834 45.4621169,14.4746834 C44.7958259,14.4746834 44.1907748,14.2860642 43.6469637,13.9088259 C43.1031526,13.5315876 42.6793719,13.0098229 42.3756216,12.3435318 L40.2248732,13.3650148 C40.587414,14.3938466 41.2341082,15.2095632 42.1698552,15.8097151 C43.1031526,16.409867 44.2005732,16.7111677 45.4621169,16.7111677 C46.36112,16.7111677 47.1425422,16.5592926 47.8088333,16.2555422 C48.4751243,15.9517919 48.996889,15.5280112 49.3741273,14.9842001 C49.7513657,14.440389 49.9399848,13.8157411 49.9399848,13.1053573 C49.9399848,12.2651446 49.6754281,11.5547608 49.1463146,10.9766553 C48.6172011,10.3985498 47.8676236,9.96252113 46.8975822,9.67346839 L46.8975822,9.66856919 Z" id="Path"></path>
            </g>
            <g transform="translate(29.9047, 11.9491)" fill="#000000" fill-rule="nonzero">
                <path d="M9.42850844,0.803468633 C8.48786223,0.267006344 7.42963525,0 6.2562771,0 C5.08291894,0 4.04673836,0.267006344 3.10609215,0.803468633 C2.16544595,1.33993092 1.41096931,2.06991157 0.847561424,2.99830978 C0.281703941,3.92425838 0,4.98248536 0,6.17054112 C0,7.35859687 0.281703941,8.41682385 0.847561424,9.34277246 C1.41341891,10.2687211 2.16789555,11.0011513 3.11834015,11.5376136 C4.06633515,12.0740759 5.11231414,12.3410822 6.2587267,12.3410822 C7.40513926,12.3410822 8.46826544,12.0740759 9.40891164,11.5376136 C10.3495578,11.0011513 11.1040345,10.2711707 11.6674424,9.34277246 C12.2332999,8.41682385 12.5150038,7.35859687 12.5150038,6.17054112 C12.5150038,4.98248536 12.2357495,3.90711119 11.6796904,2.98851138 C11.1211817,2.06991157 10.3716042,1.33993092 9.43095804,0.805918232 L9.42850844,0.803468633 Z M9.1125101,8.00529113 C8.83080616,8.54910222 8.44621904,8.97288293 7.96119834,9.27663327 C7.47617764,9.58038361 6.90787056,9.73225878 6.2562771,9.73225878 C5.60468363,9.73225878 5.05352375,9.58038361 4.56115425,9.27663327 C4.06878475,8.97288293 3.68174803,8.54910222 3.39759449,8.00529113 C3.11589055,7.46148005 2.97381378,6.85152977 2.97381378,6.17054112 C2.97381378,5.48955246 3.11589055,4.88205178 3.39759449,4.3455895 C3.67929843,3.80912721 4.06633515,3.39024569 4.56115425,3.08649536 C5.05352375,2.78274502 5.61938123,2.63086985 6.2562771,2.63086985 C6.89317297,2.63086985 7.47617764,2.78274502 7.96119834,3.08649536 C8.44621904,3.39024569 8.83080616,3.81157681 9.1125101,4.3455895 C9.39421405,4.88205178 9.53629082,5.48955246 9.53629082,6.17054112 C9.53629082,6.85152977 9.39421405,7.46392965 9.1125101,8.00529113 Z" id="Shape"></path>
                <path d="M23.5626975,0.825515028 C22.6636945,0.274355143 21.6569091,0 20.5423413,0 C19.6310903,0 18.8251721,0.176371163 18.1319354,0.531563089 C17.5758763,0.81571663 17.112902,1.19295495 16.7405629,1.65837886 L16.7405629,0.259657546 L14.0460035,0.259657546 L14.0460035,16.4245646 L16.9144845,16.4245646 L16.9144845,10.9448105 C17.2623276,11.3147 17.6787595,11.6160008 18.1637802,11.8413639 C18.8815129,12.1745095 19.6653847,12.3410822 20.5202949,12.3410822 C21.6642579,12.3410822 22.6857409,12.0691767 23.5847439,11.5253656 C24.4837469,10.9815545 25.1916812,10.2393259 25.7134459,9.29867967 C26.2352105,8.35803346 26.4948681,7.31450408 26.4948681,6.17054112 C26.4948681,5.02657815 26.2303113,3.96835117 25.7011979,3.04240257 C25.1720844,2.11645396 24.4592509,1.37667491 23.5602479,0.825515028 L23.5626975,0.825515028 Z M23.107072,8.01753913 C22.8180193,8.55400142 22.4236337,8.97288293 21.9239154,9.27663327 C21.4241971,9.58038361 20.8485413,9.73225878 20.1969478,9.73225878 C19.5453543,9.73225878 19.0137912,9.58038361 18.5140729,9.27663327 C18.0143547,8.97288293 17.6224187,8.55155182 17.3407148,8.01753913 C17.0590109,7.48107684 16.9169341,6.86622737 16.9169341,6.17054112 C16.9169341,5.47485486 17.0590109,4.88205178 17.3407148,4.3455895 C17.6224187,3.80912721 18.0143547,3.39024569 18.5140729,3.08649536 C19.0137912,2.78274502 19.5747495,2.63086985 20.1969478,2.63086985 C20.8191461,2.63086985 21.4241971,2.78274502 21.9239154,3.08649536 C22.4236337,3.39024569 22.8180193,3.81157681 23.107072,4.3455895 C23.3961247,4.88205178 23.5406511,5.48955246 23.5406511,6.17054112 C23.5406511,6.85152977 23.3961247,7.48107684 23.107072,8.01753913 Z" id="Shape"></path>
                <path d="M37.6429954,1.71716924 C37.1506259,1.18070695 36.5529236,0.761825442 35.8498885,0.458075105 C35.1468535,0.154324768 34.3335865,0.00244959949 33.4051883,0.00244959949 C32.2906205,0.00244959949 31.2911839,0.269455944 30.4068785,0.805918232 C29.5225731,1.34238052 28.8219876,2.06991157 28.3002229,2.98851138 C27.7784582,3.90956079 27.5188007,4.96288857 27.5188007,6.14849472 C27.5188007,7.33410087 27.7711094,8.33598707 28.2781765,9.27663327 C28.7852436,10.2172795 29.4980771,10.9644073 30.4191265,11.5155672 C31.3377263,12.0667271 32.4082013,12.3410822 33.6232026,12.3410822 C34.4193224,12.3410822 35.1591015,12.2186023 35.8400901,11.9711927 C36.5210788,11.7262328 37.1065331,11.3857384 37.5989026,10.9497097 C38.0912721,10.5161306 38.4538128,10.0164123 38.6840752,9.45055483 L36.3814516,8.32128947 C36.1217941,8.78426377 35.761703,9.1541533 35.3060775,9.42850844 C34.850452,9.70286358 34.2968425,9.84249075 33.6427994,9.84249075 C32.9887563,9.84249075 32.4155501,9.69061558 31.9158318,9.38686525 C31.4161135,9.08311491 31.0388751,8.6519854 30.7865664,8.09347672 C30.6346912,7.75788159 30.5391568,7.39289126 30.4999633,6.99605614 L39.0098719,6.99605614 C39.0686623,6.82213458 39.1078559,6.63106582 39.1299023,6.42040026 C39.1519487,6.20973471 39.1617471,5.99661955 39.1617471,5.7786052 C39.1617471,4.98248536 39.0319183,4.24025672 38.7698111,3.55191926 C38.5101536,2.8635818 38.1329153,2.25118193 37.6405458,1.71716924 L37.6429954,1.71716924 Z M30.5587536,4.801215 C30.6077456,4.55135585 30.6763344,4.3210935 30.7669696,4.10552875 C31.0070304,3.53967126 31.3573231,3.10609215 31.8202974,2.80234182 C32.2832717,2.49859148 32.8123852,2.34671631 33.4051883,2.34671631 C33.9979913,2.34671631 34.5589496,2.49859148 35.0023271,2.80234182 C35.443255,3.10609215 35.761703,3.52007447 35.9576709,4.04183916 C36.0458565,4.27945031 36.0997477,4.53420866 36.1168949,4.801215 L30.556304,4.801215 L30.5587536,4.801215 Z" id="Shape"></path>
                <path d="M49.0899738,0.565857482 C48.4163339,0.188619161 47.6447101,0 46.7751023,0 C45.9054945,0 45.2000098,0.183719962 44.5704627,0.553609485 C44.0829924,0.837763026 43.7057541,1.22724934 43.4289494,1.71471964 L43.4289494,0.262107145 L40.7343899,0.262107145 L40.7343899,12.0814247 L43.6028709,12.0814247 L43.6028709,5.15150773 C43.6028709,4.62974304 43.7033045,4.18146633 43.9066213,3.80422801 C44.109938,3.42698969 44.391642,3.13793695 44.7541827,2.93462019 C45.1167234,2.73130343 45.5282561,2.63086985 45.99368,2.63086985 C46.4591039,2.63086985 46.8706367,2.73130343 47.2331774,2.93462019 C47.5957181,3.13793695 47.877422,3.42698969 48.0807388,3.80422801 C48.2840556,4.18146633 48.3844891,4.62974304 48.3844891,5.15150773 L48.3844891,12.0814247 L51.2309237,12.0814247 L51.2309237,4.47786787 C51.2309237,3.59356245 51.0423046,2.81458981 50.6650663,2.14339955 C50.2878279,1.46975969 49.7636136,0.945545403 49.0899738,0.568307082 L49.0899738,0.565857482 Z" id="Path"></path>
            </g>
            <g fill-rule="nonzero">
                <g transform="translate(0.0024, 6.026)">
                    <path d="M0,11.9981383 C0,5.37197168 5.37197168,0 11.9981383,0 C18.6243049,0 23.9962766,5.37197168 23.9962766,11.9981383 L0,11.9981383 Z" id="Path" fill="#FF8C14"></path>
                    <circle id="Oval" fill="#8C3C00" cx="16.0620239" cy="4.25005512" r="1"></circle>
                    <circle id="Oval" fill="#8C3C00" cx="19.2758984" cy="7.1993729" r="1"></circle>
                    <circle id="Oval" fill="#8C3C00" cx="15.6406927" cy="7.92200475" r="1"></circle>
                </g>
                <path d="M6.18278911,28.5133381 L4.05163756,33.6036058 L6.85642897,34.7794136 L9.00717733,29.645053 C9.96497073,29.8924626 10.9693065,30.024741 12.0030375,30.024741 C18.6194057,30.024741 24.0011758,24.6429709 24.0011758,18.0266027 L20.9587732,18.0266027 C20.9587732,22.9649952 16.9414301,26.984788 12.0005879,26.984788 C7.05974573,26.984788 3.04240257,22.9674448 3.04240257,18.0266027 L0,18.0266027 C0,22.5314161 2.49859148,26.4630233 6.18033951,28.5157877 L6.18278911,28.5133381 Z" id="Path" fill="#000000"></path>
                <path d="M16.9634765,3.48109025e-15 C14.6045122,3.48109025e-15 12.5541974,1.31543493 11.49842,3.25061852 C12.311687,4.00509517 12.9216373,4.97268697 13.2400852,6.06765794 C15.9860863,5.45035887 18.0461994,3.02525537 18.0951914,0.105332778 C17.7277515,0.0367439924 17.3505132,3.48109025e-15 16.9634765,3.48109025e-15 L16.9634765,3.48109025e-15 Z" id="Path" fill="#00641E"></path>
                <path d="M7.26551209,1.58244127 C6.79763859,1.58244127 6.34446268,1.63633246 5.90598437,1.73186684 C6.65801142,4.3259927 9.04882052,6.22198271 11.8830071,6.22198271 C12.3508806,6.22198271 12.8040565,6.16809152 13.2425348,6.07255714 C12.4905078,3.47843128 10.0996987,1.58244127 7.26551209,1.58244127 Z" id="Path" fill="#00961E"></path>
            </g>
        </g>
    </g>
</svg>