<?xml version="1.0" encoding="UTF-8"?>
<svg width="1024px" height="1024px" viewBox="0 0 1024 1024" version="1.1" xmlns="http://www.w3.org/2000/svg" xmlns:xlink="http://www.w3.org/1999/xlink">
    <title>3 - Layer</title>
    <g id="Template---App-Icons" stroke="none" stroke-width="1" fill="none" fill-rule="evenodd">
        <g id="3---Layer" fill="color(display-p3 0.549 0.235 0.000)" fill-rule="nonzero">
            <g id="Group" transform="translate(242.9785, 123.2378)">
                <path d="M360.223781,245.290692 C368.403913,245.290692 375.035232,238.659373 375.035232,230.479241 C375.035232,222.299109 368.403913,215.66779 360.223781,215.66779 C352.043649,215.66779 345.41233,222.299109 345.41233,230.479241 C345.41233,238.659373 352.043649,245.290692 360.223781,245.290692 Z" id="Path"></path>
                <path d="M432.304369,311.480698 C440.484501,311.480698 447.11582,304.849379 447.11582,296.669247 C447.11582,288.489115 440.484501,281.857796 432.304369,281.857796 C424.124237,281.857796 417.492918,288.489115 417.492918,296.669247 C417.492918,304.849379 424.124237,311.480698 432.304369,311.480698 Z" id="Path"></path>
                <path d="M350.772407,327.654546 C358.952539,327.654546 365.583858,321.023227 365.583858,312.843095 C365.583858,304.662963 358.952539,298.031644 350.772407,298.031644 C342.592275,298.031644 335.960956,304.662963 335.960956,312.843095 C335.960956,321.023227 342.592275,327.654546 350.772407,327.654546 Z" id="Path"></path>
            </g>
        </g>
    </g>
</svg>