<svg width="109" height="169" viewBox="0 0 109 169" fill="none" xmlns="http://www.w3.org/2000/svg">
<path d="M33.6748 32.0168C33.6748 20.4881 42.9895 11.1451 54.4834 11.1451C65.9773 11.1451 75.292 20.4881 75.292 32.0168H33.6748Z" fill="#FF8C14"/>
<path d="M70.018 32.0168C70.018 40.624 63.0648 47.5982 54.4836 47.5982C45.9024 47.5982 38.9492 40.624 38.9492 32.0168H70.018Z" fill="white"/>
<path d="M61.53 19.6843C62.1622 19.6843 62.6747 19.1703 62.6747 18.5361C62.6747 17.902 62.1622 17.3879 61.53 17.3879C60.8978 17.3879 60.3853 17.902 60.3853 18.5361C60.3853 19.1703 60.8978 19.6843 61.53 19.6843Z" fill="#8C3C00"/>
<path d="M67.1052 24.8172C67.7374 24.8172 68.2499 24.3031 68.2499 23.669C68.2499 23.0349 67.7374 22.5208 67.1052 22.5208C66.473 22.5208 65.9604 23.0349 65.9604 23.669C65.9604 24.3031 66.473 24.8172 67.1052 24.8172Z" fill="#8C3C00"/>
<path d="M60.8005 26.0717C61.4327 26.0717 61.9452 25.5577 61.9452 24.9235C61.9452 24.2894 61.4327 23.7753 60.8005 23.7753C60.1683 23.7753 59.6558 24.2894 59.6558 24.9235C59.6558 25.5577 60.1683 26.0717 60.8005 26.0717Z" fill="#8C3C00"/>
<path d="M44.393 50.2604L40.696 59.1142L45.5632 61.1597L49.2941 52.2293C50.9561 52.6588 52.6944 52.8884 54.4878 52.8884C65.9605 52.8884 75.2964 43.5243 75.2964 32.0168H70.0222C70.0222 40.607 63.0521 47.5982 54.4878 47.5982C45.9236 47.5982 38.9534 40.607 38.9534 32.0168H33.6792C33.6792 39.8543 38.0122 46.6924 44.3972 50.2604H44.393Z" fill="black"/>
<path d="M63.0901 0.662537C58.9987 0.662537 55.4416 2.95042 53.6143 6.31847C55.0218 7.63251 56.086 9.31653 56.6372 11.2174C61.3984 10.1458 64.9725 5.92298 65.0573 0.845398C64.4213 0.726325 63.7642 0.662537 63.0943 0.662537H63.0901Z" fill="#00641E"/>
<path d="M46.2709 3.41394C45.4611 3.41394 44.6725 3.5075 43.9136 3.6776C45.2152 8.18958 49.3616 11.4896 54.2797 11.4896C55.0895 11.4896 55.8781 11.396 56.637 11.2259C55.3354 6.71394 51.189 3.41394 46.2709 3.41394Z" fill="#00961E"/>
<path d="M21.5363 139.275C19.9549 139.275 18.577 139.565 17.4111 140.143C16.2409 140.721 15.3463 141.559 14.7188 142.656C14.0914 143.753 13.7776 145.093 13.7776 146.679V147.321H10.1611V151.744H13.7776V167.882H18.7127V151.744H23.2704V147.321H18.7127V146.679C18.7127 145.62 19.0137 144.846 19.6157 144.353C20.2178 143.86 21.0742 143.617 22.1765 143.617C22.3504 143.617 22.5454 143.626 22.7616 143.634C22.9736 143.647 23.2068 143.677 23.4569 143.728V139.458C23.2068 139.407 22.8973 139.365 22.5327 139.326C22.1681 139.288 21.8374 139.271 21.5363 139.271V139.275Z" fill="white"/>
<path d="M37.8845 147.798C36.6041 147.181 35.1202 146.87 33.4371 146.87C32.0549 146.87 30.7745 147.096 29.5958 147.551C28.413 148.006 27.3912 148.627 26.5263 149.422C25.6614 150.217 25.0254 151.153 24.6226 152.237L28.6546 154.202C29.032 153.296 29.6298 152.552 30.4438 151.974C31.2578 151.395 32.1948 151.106 33.2505 151.106C34.3825 151.106 35.2856 151.404 35.9639 151.995C36.6423 152.586 36.9815 153.326 36.9815 154.206V154.874L30.9144 155.869C29.3075 156.12 27.9763 156.549 26.9206 157.153C25.8649 157.757 25.0805 158.51 24.5675 159.403C24.0503 160.296 23.7959 161.312 23.7959 162.443C23.7959 163.575 24.0842 164.668 24.6608 165.561C25.2374 166.454 26.0599 167.143 27.1283 167.619C28.1967 168.095 29.4475 168.338 30.8763 168.338C32.0083 168.338 33.03 168.184 33.9458 167.882C34.8616 167.581 35.6926 167.126 36.4345 166.522C36.7356 166.275 37.0154 166.003 37.2825 165.714V167.882H41.9547V154.202C41.9547 152.765 41.5985 151.493 40.882 150.383C40.1655 149.273 39.1692 148.41 37.8888 147.793L37.8845 147.798ZM36.3413 162.065C35.9131 162.847 35.3068 163.456 34.5139 163.898C33.7211 164.34 32.8138 164.561 31.7836 164.561C30.978 164.561 30.3081 164.353 29.7697 163.936C29.2312 163.519 28.9599 162.958 28.9599 162.256C28.9599 161.555 29.1973 160.938 29.6764 160.5C30.1513 160.058 30.8805 159.752 31.8599 159.573L36.9857 158.659V159.535C36.9857 160.44 36.7737 161.287 36.3455 162.065H36.3413Z" fill="white"/>
<path d="M52.4186 152.22C53.258 151.706 54.2205 151.446 55.3016 151.446C56.4548 151.446 57.4808 151.757 58.3712 152.373C59.2615 152.99 59.8975 153.828 60.2748 154.887L64.6078 152.96C64.205 151.752 63.5479 150.694 62.6278 149.784C61.7121 148.878 60.6225 148.163 59.3675 147.649C58.1125 147.134 56.7558 146.875 55.2974 146.875C53.2368 146.875 51.3968 147.343 49.7772 148.274C48.1576 149.205 46.8815 150.481 45.953 152.093C45.0245 153.704 44.5581 155.533 44.5581 157.574C44.5581 159.615 45.0287 161.448 45.9699 163.073C46.9112 164.697 48.1873 165.982 49.7942 166.926C51.401 167.87 53.2368 168.342 55.2931 168.342C56.7728 168.342 58.1422 168.082 59.4014 167.568C60.6564 167.053 61.7375 166.335 62.6406 165.412C63.5436 164.493 64.1966 163.451 64.5993 162.295L60.2663 160.33C59.8635 161.389 59.2318 162.231 58.3627 162.86C57.4978 163.49 56.4718 163.804 55.2931 163.804C54.212 163.804 53.2538 163.541 52.4101 163.009C51.5664 162.482 50.9092 161.75 50.4301 160.819C49.951 159.888 49.7136 158.816 49.7136 157.608C49.7136 156.401 49.951 155.359 50.4301 154.415C50.905 153.47 51.5664 152.739 52.4101 152.224L52.4186 152.22Z" fill="white"/>
<path d="M77.6409 163.766C76.8354 163.766 76.1782 163.638 75.661 163.387C75.1437 163.137 74.7706 162.771 74.529 162.29C74.2915 161.814 74.1728 161.231 74.1728 160.551V151.744H78.8832V147.321H74.1728V142.635H69.1996V144.221C69.1996 145.229 68.9283 145.999 68.3898 146.526C67.8514 147.053 67.0755 147.321 66.0707 147.321H65.6934V151.744H69.1954V160.815C69.1954 163.132 69.8356 164.927 71.116 166.198C72.3964 167.47 74.194 168.108 76.5047 168.108C76.882 168.108 77.2975 168.082 77.7469 168.031C78.2006 167.98 78.5991 167.929 78.951 167.878V163.647C78.7263 163.672 78.4931 163.698 78.2557 163.723C78.0183 163.749 77.8105 163.762 77.6324 163.762L77.6409 163.766Z" fill="white"/>
<path d="M91.4919 156.094L88.2146 155.112C87.7355 154.959 87.3158 154.797 86.9512 154.619C86.5866 154.444 86.3025 154.215 86.1033 153.938C85.904 153.662 85.8022 153.347 85.8022 152.994C85.8022 152.365 86.0396 151.867 86.5187 151.502C86.9936 151.136 87.6508 150.953 88.4775 150.953C89.5078 150.953 90.4363 151.225 91.2672 151.765C92.094 152.305 92.6876 153.045 93.0394 153.977L96.8086 152.199C96.1811 150.511 95.1254 149.201 93.6415 148.27C92.1576 147.338 90.4532 146.87 88.5157 146.87C87.0318 146.87 85.7217 147.134 84.5769 147.666C83.4322 148.193 82.5419 148.933 81.9017 149.877C81.2615 150.821 80.9392 151.923 80.9392 153.186C80.9392 154.597 81.3844 155.826 82.2748 156.868C83.1651 157.914 84.4667 158.676 86.1753 159.156L89.5289 160.1C89.9826 160.228 90.3811 160.385 90.733 160.572C91.0849 160.759 91.369 160.989 91.581 161.253C91.793 161.516 91.9032 161.852 91.9032 162.252C91.9032 162.907 91.6403 163.439 91.1104 163.838C90.5846 164.242 89.8808 164.442 88.999 164.442C87.8415 164.442 86.7943 164.115 85.8531 163.46C84.9119 162.805 84.1784 161.899 83.6484 160.738L79.9175 162.516C80.545 164.306 81.6685 165.722 83.2881 166.768C84.9076 167.814 86.8113 168.338 88.9947 168.338C90.5507 168.338 91.9074 168.074 93.0649 167.542C94.2181 167.015 95.1254 166.275 95.7783 165.331C96.4312 164.387 96.7577 163.298 96.7577 162.061C96.7577 160.598 96.2998 159.365 95.384 158.357C94.4682 157.349 93.1666 156.592 91.4835 156.09L91.4919 156.094Z" fill="white"/>
<path d="M26.1617 68.0957C24.5294 67.1644 22.6936 66.6966 20.6628 66.6966C18.632 66.6966 16.8301 67.1644 15.1978 68.0957C13.5655 69.027 12.2596 70.3028 11.2803 71.9145C10.3009 73.5262 9.80908 75.3676 9.80908 77.4301C9.80908 79.4926 10.3009 81.334 11.2803 82.9457C12.2596 84.5574 13.574 85.829 15.219 86.7645C16.864 87.6958 18.6786 88.1636 20.6628 88.1636C22.647 88.1636 24.4913 87.6958 26.1278 86.7645C27.7601 85.8332 29.066 84.5617 30.0453 82.9457C31.0247 81.334 31.5165 79.4926 31.5165 77.4301C31.5165 75.3676 31.0332 73.4922 30.0665 71.8932C29.0999 70.2943 27.7983 69.027 26.166 68.0957H26.1617ZM25.6148 80.6238C25.123 81.5679 24.4574 82.3036 23.6179 82.8351C22.7742 83.3625 21.7906 83.6304 20.6586 83.6304C19.5266 83.6304 18.5726 83.3667 17.7204 82.8351C16.864 82.3078 16.1941 81.5679 15.7066 80.6238C15.2147 79.6797 14.9731 78.6166 14.9731 77.4301C14.9731 76.2436 15.219 75.189 15.7066 74.2534C16.1984 73.3221 16.8682 72.5907 17.7204 72.0633C18.5726 71.536 19.552 71.2681 20.6586 71.2681C21.7651 71.2681 22.7742 71.5318 23.6179 72.0633C24.4574 72.5907 25.123 73.3221 25.6148 74.2534C26.1066 75.1847 26.3483 76.2436 26.3483 77.4301C26.3483 78.6166 26.1024 79.6797 25.6148 80.6238Z" fill="white"/>
<path d="M50.6758 68.134C49.1199 67.1771 47.3731 66.6966 45.4398 66.6966C43.8584 66.6966 42.4635 67.007 41.2594 67.6237C40.2927 68.117 39.4914 68.7719 38.847 69.5841V67.1516H34.1748V95.2697H39.148V85.7354C39.7543 86.3818 40.475 86.9006 41.3145 87.2961C42.5568 87.8744 43.922 88.1636 45.4016 88.1636C47.3858 88.1636 49.158 87.6916 50.714 86.7475C52.27 85.8034 53.5037 84.5107 54.4068 82.8734C55.3099 81.2362 55.7635 79.4203 55.7635 77.4301C55.7635 75.4399 55.3056 73.5985 54.3899 71.9868C53.4741 70.3751 52.2361 69.0908 50.6801 68.134H50.6758ZM49.883 80.6451C49.3785 81.5764 48.6959 82.3078 47.831 82.8351C46.9661 83.3625 45.9655 83.6304 44.8335 83.6304C43.7015 83.6304 42.7815 83.3667 41.9123 82.8351C41.0474 82.3078 40.3691 81.5764 39.8772 80.6451C39.3854 79.7137 39.1438 78.6421 39.1438 77.4344C39.1438 76.2266 39.3897 75.1932 39.8772 74.2577C40.3691 73.3264 41.0432 72.5949 41.9123 72.0676C42.7772 71.5403 43.7524 71.2724 44.8335 71.2724C45.9146 71.2724 46.9618 71.536 47.831 72.0676C48.6959 72.5949 49.3827 73.3264 49.883 74.2577C50.3833 75.189 50.6377 76.2479 50.6377 77.4344C50.6377 78.6208 50.3875 79.7137 49.883 80.6451Z" fill="white"/>
<path d="M75.0924 69.6862C74.2402 68.7549 73.2015 68.0234 71.9846 67.4961C70.7678 66.9688 69.3518 66.7009 67.7449 66.7009C65.8116 66.7009 64.0775 67.1686 62.547 68.1C61.0165 69.0313 59.7954 70.2986 58.8924 71.8975C57.9893 73.4965 57.5356 75.3294 57.5356 77.3961C57.5356 79.4629 57.9766 81.2022 58.8542 82.8394C59.7318 84.4766 60.9698 85.7737 62.564 86.7305C64.1581 87.6873 66.0109 88.1679 68.1223 88.1679C69.5044 88.1679 70.7848 87.9553 71.9635 87.5258C73.1421 87.0962 74.1596 86.5051 75.0161 85.7482C75.8683 84.9912 76.5 84.1237 76.8985 83.1413L72.9047 81.1766C72.451 81.9846 71.832 82.6268 71.0392 83.1031C70.2464 83.5836 69.2882 83.8217 68.1562 83.8217C67.0242 83.8217 66.0278 83.5581 65.1587 83.0265C64.2938 82.4992 63.6366 81.7465 63.1999 80.7769C62.9371 80.1943 62.7717 79.5564 62.6996 78.8675H77.4581C77.5599 78.5656 77.6277 78.2296 77.6659 77.8681C77.7041 77.5024 77.721 77.1324 77.721 76.754C77.721 75.3676 77.4963 74.0791 77.0427 72.8799C76.589 71.6849 75.9361 70.6175 75.0839 69.6862H75.0924ZM62.8056 75.0529C62.8904 74.6192 63.0091 74.2152 63.166 73.8452C63.5815 72.8629 64.1878 72.1059 64.9933 71.5786C65.7989 71.0513 66.7147 70.7833 67.7449 70.7833C68.7752 70.7833 69.7461 71.047 70.5135 71.5786C71.2809 72.1059 71.832 72.8246 72.1712 73.7346C72.3281 74.1471 72.4171 74.5894 72.4468 75.0572H62.8056V75.0529Z" fill="white"/>
<path d="M94.9427 67.6832C93.7726 67.0283 92.4371 66.7009 90.9319 66.7009C89.4268 66.7009 88.2016 67.0241 87.1077 67.6662C86.264 68.1638 85.6068 68.8357 85.1277 69.6862V67.1559H80.4556V87.7171H85.4288V75.661C85.4288 74.7552 85.6026 73.9728 85.9545 73.3179C86.3064 72.663 86.794 72.1612 87.4257 71.8082C88.0532 71.4552 88.7697 71.2809 89.5752 71.2809C90.3808 71.2809 91.0931 71.4595 91.7248 71.8082C92.3523 72.1612 92.8441 72.663 93.196 73.3179C93.5479 73.9728 93.7217 74.7552 93.7217 75.661V87.7171H98.6567V74.4916C98.6567 72.9564 98.3303 71.5998 97.6774 70.4304C97.0244 69.2609 96.1129 68.3466 94.947 67.6917L94.9427 67.6832Z" fill="white"/>
<path d="M99.4015 91.9091L6.26687 100.082C2.81224 100.385 0.256733 103.44 0.558974 106.905L2.75797 132.116C3.06021 135.581 6.10575 138.144 9.56038 137.841L102.695 129.668C106.15 129.365 108.705 126.31 108.403 122.845L106.204 97.6343C105.902 94.1692 102.856 91.6059 99.4015 91.9091Z" fill="#FF8714"/>
<path d="M10.5808 130.46L8.5415 107.088L24.4956 105.688L24.8645 109.924L13.7606 110.898L14.2779 116.826L23.8173 115.988L24.1861 120.224L14.6467 121.062L15.4311 130.034L10.5808 130.46Z" fill="white"/>
<path d="M39.8011 128.274C38.0501 128.427 36.3966 128.265 34.8406 127.793C33.2846 127.317 31.9025 126.581 30.6899 125.582C29.4773 124.583 28.498 123.379 27.7433 121.967C26.9886 120.56 26.5392 118.995 26.3908 117.281C26.2424 115.567 26.412 113.951 26.8996 112.433C27.3871 110.915 28.1418 109.563 29.1636 108.376C30.1854 107.19 31.4191 106.229 32.8691 105.489C34.3191 104.749 35.926 104.302 37.7024 104.149C39.4746 103.992 41.1366 104.149 42.6926 104.63C44.2486 105.106 45.6307 105.837 46.839 106.828C48.0474 107.819 49.0267 109.018 49.7687 110.426C50.5106 111.838 50.9558 113.398 51.1085 115.112C51.2568 116.826 51.083 118.446 50.587 119.964C50.0909 121.483 49.332 122.839 48.3102 124.038C47.2885 125.233 46.0547 126.203 44.6089 126.939C43.159 127.679 41.5606 128.125 39.8096 128.278L39.8011 128.274ZM39.4195 123.881C40.4837 123.787 41.4503 123.511 42.328 123.056C43.2013 122.601 43.9518 122.001 44.5835 121.261C45.211 120.522 45.6731 119.662 45.9657 118.689C46.2582 117.715 46.3557 116.664 46.2582 115.533C46.1607 114.402 45.8809 113.39 45.4272 112.493C44.9693 111.595 44.3673 110.83 43.6211 110.2C42.8706 109.571 42.0312 109.112 41.09 108.827C40.153 108.542 39.1482 108.444 38.084 108.538C37.0198 108.631 36.0532 108.899 35.1755 109.346C34.3021 109.792 33.5475 110.388 32.92 111.14C32.2925 111.889 31.8304 112.748 31.5378 113.713C31.2453 114.678 31.1478 115.725 31.2453 116.852C31.3428 117.983 31.6226 118.999 32.0805 119.909C32.5384 120.819 33.1405 121.58 33.8867 122.201C34.6328 122.822 35.4766 123.277 36.4178 123.575C37.359 123.873 38.3596 123.975 39.4237 123.881H39.4195Z" fill="white"/>
<path d="M66.3885 125.939C64.6375 126.092 62.984 125.931 61.428 125.459C59.872 124.982 58.4899 124.247 57.2773 123.247C56.0647 122.248 55.0854 121.045 54.3307 119.633C53.576 118.225 53.1266 116.66 52.9782 114.946C52.8298 113.233 52.9994 111.617 53.487 110.098C53.9745 108.58 54.7292 107.228 55.751 106.041C56.7728 104.855 58.0065 103.894 59.4565 103.154C60.9065 102.414 62.5134 101.967 64.2898 101.814C66.062 101.657 67.724 101.814 69.28 102.295C70.836 102.771 72.2181 103.503 73.4264 104.493C74.6348 105.484 75.6141 106.684 76.3561 108.091C77.098 109.503 77.5432 111.064 77.6958 112.778C77.8442 114.491 77.6704 116.112 77.1744 117.63C76.6783 119.148 75.9194 120.504 74.8976 121.704C73.8758 122.899 72.6421 123.868 71.1963 124.604C69.7464 125.344 68.148 125.79 66.397 125.944L66.3885 125.939ZM66.0069 121.546C67.0711 121.453 68.0377 121.176 68.9154 120.721C69.7887 120.266 70.5392 119.667 71.1709 118.927C71.7984 118.187 72.2605 117.328 72.553 116.354C72.8456 115.38 72.9431 114.33 72.8456 113.199C72.7481 112.067 72.4683 111.055 72.0146 110.158C71.5567 109.261 70.9547 108.495 70.2085 107.866C69.458 107.236 68.6186 106.777 67.6774 106.492C66.7404 106.207 65.7356 106.109 64.6714 106.203C63.6072 106.297 62.6406 106.564 61.7629 107.011C60.8895 107.458 60.1349 108.053 59.5074 108.806C58.8799 109.554 58.4178 110.413 58.1252 111.378C57.8327 112.344 57.7352 113.39 57.8327 114.517C57.9302 115.648 58.21 116.664 58.6679 117.574C59.1258 118.484 59.7279 119.246 60.4741 119.867C61.2202 120.487 62.064 120.942 63.0052 121.24C63.9464 121.538 64.947 121.64 66.0111 121.546H66.0069Z" fill="white"/>
<path d="M81.5584 124.23L79.519 100.858L87.1209 100.19C89.6435 99.9688 91.8779 100.279 93.8197 101.121C95.7614 101.963 97.3217 103.218 98.4961 104.885C99.6705 106.552 100.357 108.516 100.552 110.775C100.747 113.033 100.412 115.091 99.5475 116.949C98.6784 118.808 97.3598 120.317 95.5919 121.487C93.8239 122.652 91.6786 123.349 89.1559 123.571L81.5541 124.238L81.5584 124.23ZM86.0355 119.569L88.9143 119.318C90.4364 119.186 91.721 118.761 92.7724 118.046C93.8239 117.332 94.6083 116.388 95.1255 115.214C95.6427 114.041 95.8378 112.701 95.7063 111.196C95.5749 109.669 95.1509 108.38 94.4387 107.321C93.7264 106.267 92.7936 105.484 91.6319 104.974C90.4745 104.464 89.1348 104.277 87.6127 104.408L84.7339 104.659L86.0355 119.56V119.569Z" fill="white"/>
</svg>
