<?xml version="1.0" encoding="UTF-8"?>
<svg width="100px" height="100px" viewBox="0 0 100 100" version="1.1" xmlns="http://www.w3.org/2000/svg" xmlns:xlink="http://www.w3.org/1999/xlink">
    <title>Product error</title>
    <g id="Product-error" stroke="none" stroke-width="1" fill="none" fill-rule="evenodd">
        <rect fill="#FFCFCF" x="0" y="0" width="100" height="100"></rect>
        <g id="release_icon_transparent_70pct" transform="translate(63.1389, 106.1509) scale(-1, 1) rotate(-23) translate(-63.1389, -106.1509)translate(23.1389, 66.1509)">
            <circle id="Oval" fill="#F38282" cx="40" cy="40" r="40"></circle>
            <path d="M49.7637075,14.7687765 C50.983167,14.7687765 51.9717203,13.7802204 51.9717203,12.5607573 C51.9717203,11.3411799 50.983167,10.3526238 49.7637075,10.3526238 C48.5441336,10.3526238 47.5555803,11.3411799 47.5555803,12.5607573 C47.5555803,13.7802204 48.5441336,14.7687765 49.7637075,14.7687765 Z" id="path8" fill="#B3261E" fill-rule="nonzero"></path>
            <path d="M60.4642709,24.6032408 C61.6837304,24.6032408 62.672398,23.6146847 62.672398,22.3952217 C62.672398,21.1756443 61.6837304,20.1870882 60.4642709,20.1870882 C59.2448113,20.1870882 58.256258,21.1756443 58.256258,22.3952217 C58.256258,23.6146847 59.2448113,24.6032408 60.4642709,24.6032408 Z" id="path10" fill="#B3261E" fill-rule="nonzero"></path>
            <path d="M48.3538074,27.0151897 C49.5733812,27.0151897 50.5619345,26.0265193 50.5619345,24.8070562 C50.5619345,23.5875932 49.5733812,22.5990371 48.3538074,22.5990371 C47.1343478,22.5990371 46.1457945,23.5875932 46.1457945,24.8070562 C46.1457945,26.0265193 47.1343478,27.0151897 48.3538074,27.0151897 Z" id="path12" fill="#B3261E" fill-rule="nonzero"></path>
        </g>
        <g id="release_icon_transparent_70pct" transform="translate(77.7603, 58.1787) scale(-1, 1) rotate(-17) translate(-77.7603, -58.1787)translate(57.4376, 47.8007)" fill-rule="nonzero">
            <path d="M36.8577883,-2.50386106e-14 C28.9936001,-2.50386106e-14 22.1656324,4.38220248 18.649684,10.8365091 C21.3503732,13.3503085 23.4055535,16.577519 24.4585776,20.2293925 C33.6135549,18.1742063 40.4755869,10.0892622 40.6454517,0.356648366 C39.4225628,0.135915034 38.1656095,-2.50386106e-14 36.8747062,-2.50386106e-14 L36.8577883,-2.50386106e-14 Z" id="path16" fill="#00641E"></path>
            <path d="M4.53502245,5.28239667 C2.97240413,5.28239667 1.46076808,5.45226189 1.2048506e-14,5.79199232 C2.49687433,14.4374002 10.4798307,20.7559061 19.9235552,20.7559061 C21.4861735,20.7559061 22.9979238,20.5860409 24.4585776,20.2463104 C21.9618176,11.6009026 13.9787469,5.28239667 4.53502245,5.28239667 Z" id="path18" fill="#00961E"></path>
        </g>
    </g>
</svg>