<?xml version="1.0" encoding="UTF-8"?>
<svg width="100px" height="100px" viewBox="0 0 100 100" version="1.1" xmlns="http://www.w3.org/2000/svg" xmlns:xlink="http://www.w3.org/1999/xlink">
    <title>Product not found</title>
    <g id="Product-not-found" stroke="none" stroke-width="1" fill="none" fill-rule="evenodd">
        <rect fill="#EDE0DB" x="0" y="0" width="100" height="100"></rect>
        <g id="product_completed_graphic_light" transform="translate(40.0444, 42)" fill-rule="nonzero">
            <path d="M69.5229504,88.5669347 C84.7670165,73.3228477 84.7670165,48.6070856 69.5229504,33.3629985 C54.2786388,18.1187624 29.562979,18.1187624 14.3186673,33.3629985 C-0.925574187,48.6070856 -0.925574187,73.3228477 14.3186673,88.5669347 C29.562979,103.811022 54.2786388,103.811022 69.5229504,88.5669347 Z" id="svg_2" fill="#A08D84"></path>
            <path d="M41.9206115,34.2105248 C43.1319852,34.2105248 44.1137351,33.2286652 44.1137351,32.0175425 C44.1137351,30.8064197 43.1319852,29.8245601 41.9206115,29.8245601 C40.709501,29.8245601 39.7277511,30.8064197 39.7277511,32.0175425 C39.7277511,33.2286652 40.709501,34.2105248 41.9206115,34.2105248 Z" id="svg_3" fill="#52443D"></path>
            <path d="M46.306727,46.491226 C47.5177674,46.491226 48.499719,45.5091734 48.499719,44.2981121 C48.499719,43.0870595 47.5177674,42.1052613 46.306727,42.1052613 C45.0956867,42.1052613 44.1137351,43.0870595 44.1137351,44.2981121 C44.1137351,45.5091734 45.0956867,46.491226 46.306727,46.491226 Z" id="svg_4" fill="#52443D"></path>
            <path d="M29.8597084,1.35897362 C22.9674417,4.82804365 18.7403356,12.0277012 18.5030276,19.2336044 C21.9853234,20.2466746 25.3676538,21.8304289 27.9037262,24.5614024 C35.0174851,18.7246044 37.4709431,8.60394699 33.3204163,0 C32.1484288,0.342999985 30.9897571,0.79020172 29.8597084,1.35897362 L29.8597084,1.35897362 Z" id="svg_5" fill="#52443D"></path>
            <path d="M3.7842971,20.3525956 C2.40698412,21.0018675 1.14654006,21.7812797 0,22.6607008 C6.0612982,28.7878321 15.9257357,30.7069548 24.2860263,26.7619988 C25.6633919,26.1127006 26.9238886,25.3331656 28.0702971,24.4537709 C22.0091743,18.3266395 12.1445088,16.4075607 3.7842971,20.3525956 Z" id="svg_6" fill="#85746C"></path>
        </g>
    </g>
</svg>