<?xml version="1.0" encoding="UTF-8"?>
<svg width="83px" height="68px" viewBox="0 0 83 68" version="1.1" xmlns="http://www.w3.org/2000/svg" xmlns:xlink="http://www.w3.org/1999/xlink">
    <title>Artboard</title>
    <g id="Artboard" stroke="none" stroke-width="1" fill="none" fill-rule="evenodd">
        <g id="release_icon_transparent_70pct" transform="translate(40.4494, 7.4494) scale(-1, -1) rotate(-23) translate(-40.4494, -7.4494)translate(0.4494, -32.5506)">
            <circle id="Oval" fill="#F38282" cx="40" cy="40" r="40"></circle>
            <path d="M52.6642646,18.1727107 C53.8837242,18.1727107 54.8722775,17.1841546 54.8722775,15.9646915 C54.8722775,14.7451141 53.8837242,13.756558 52.6642646,13.756558 C51.4446907,13.756558 50.4561375,14.7451141 50.4561375,15.9646915 C50.4561375,17.1841546 51.4446907,18.1727107 52.6642646,18.1727107 Z" id="path8" fill="#B3261E" fill-rule="nonzero"></path>
            <path d="M63.364828,28.0071751 C64.5842876,28.0071751 65.5729552,27.018619 65.5729552,25.7991559 C65.5729552,24.5795785 64.5842876,23.5910224 63.364828,23.5910224 C62.1453685,23.5910224 61.1568152,24.5795785 61.1568152,25.7991559 C61.1568152,27.018619 62.1453685,28.0071751 63.364828,28.0071751 Z" id="path10" fill="#B3261E" fill-rule="nonzero"></path>
            <path d="M51.2543645,30.419124 C52.4739384,30.419124 53.4624917,29.4304535 53.4624917,28.2109905 C53.4624917,26.9915274 52.4739384,26.0029713 51.2543645,26.0029713 C50.034905,26.0029713 49.0463517,26.9915274 49.0463517,28.2109905 C49.0463517,29.4304535 50.034905,30.419124 51.2543645,30.419124 Z" id="path12" fill="#B3261E" fill-rule="nonzero"></path>
        </g>
        <g id="release_icon_transparent_70pct" transform="translate(62.0709, 52.4772) scale(-1, -1) rotate(-17) translate(-62.0709, -52.4772)translate(41.7481, 42.0993)" fill-rule="nonzero">
            <path d="M36.8577883,-3.8103925e-14 C28.9936001,-3.8103925e-14 22.1656324,4.38220248 18.649684,10.8365091 C21.3503732,13.3503085 23.4055535,16.577519 24.4585776,20.2293925 C33.6135549,18.1742063 40.4755869,10.0892622 40.6454517,0.356648366 C39.4225628,0.135915034 38.1656095,-3.8103925e-14 36.8747062,-3.8103925e-14 L36.8577883,-3.8103925e-14 Z" id="path16" fill="#00641E"></path>
            <path d="M4.53502245,5.28239667 C2.97240413,5.28239667 1.46076808,5.45226189 1.37225002e-14,5.79199232 C2.49687433,14.4374002 10.4798307,20.7559061 19.9235552,20.7559061 C21.4861735,20.7559061 22.9979238,20.5860409 24.4585776,20.2463104 C21.9618176,11.6009026 13.9787469,5.28239667 4.53502245,5.28239667 Z" id="path18" fill="#00961E"></path>
        </g>
    </g>
</svg>