<?xml version="1.0" encoding="UTF-8"?>
<svg width="16px" height="16px" viewBox="0 0 16 16" version="1.1" xmlns="http://www.w3.org/2000/svg" xmlns:xlink="http://www.w3.org/1999/xlink">
    <title>Additives</title>
    <g id="Additives" stroke="none" stroke-width="1" fill="none" fill-rule="evenodd">
        <path d="M4.44444444,0 L4.44444444,1.77777778 L5.33333333,1.77777778 L5.33333333,6.22222222 L0.380208356,13.1319449 L0.383680533,13.1319449 C0.147236089,13.4332773 0,13.8088889 0,14.2222222 C0,15.2044444 0.795555556,16 1.77777778,16 L14.2222222,16 C15.2044444,16 16,15.2044444 16,14.2222222 C16,13.8088889 15.8527636,13.4332773 15.6163191,13.1319449 L15.619792,13.1319449 L10.6666667,6.22222222 L10.6666667,1.77777778 L11.5555556,1.77777778 L11.5555556,0 L4.44444444,0 Z M7.11111111,1.77777778 L8.88888889,1.77777778 L8.88888889,6.22222222 L7.11111111,6.22222222 L7.11111111,1.77777778 Z M8.88888889,8.88888889 C9.37955556,8.88888889 9.77777778,9.28711111 9.77777778,9.77777778 C9.77777778,10.2684444 9.37955556,10.6666667 8.88888889,10.6666667 C8.39822222,10.6666667 8,10.2684444 8,9.77777778 C8,9.28711111 8.39822222,8.88888889 8.88888889,8.88888889 Z M5.77777778,11.5555556 C6.51377778,11.5555556 7.11111111,12.1528889 7.11111111,12.8888889 C7.11111111,13.6248889 6.51377778,14.2222222 5.77777778,14.2222222 C5.04177778,14.2222222 4.44444444,13.6248889 4.44444444,12.8888889 C4.44444444,12.1528889 5.04177778,11.5555556 5.77777778,11.5555556 Z" id="Shape" fill="#000000" fill-rule="nonzero"></path>
    </g>
</svg>