<?xml version="1.0" encoding="UTF-8"?>
<svg width="16px" height="16px" viewBox="0 0 16 16" version="1.1" xmlns="http://www.w3.org/2000/svg" xmlns:xlink="http://www.w3.org/1999/xlink">
    <title>Celery</title>
    <g id="Celery" stroke="none" stroke-width="1" fill="none" fill-rule="evenodd">
        <path d="M3.39956664,9.47412772 C1.77292911,11.2711994 0.901698451,12.8754798 0.808524003,14.2442973 L0.647550275,14.3716188 C0.507545348,14.4837075 0.421617983,14.6498917 0.411093012,14.828929 C0.400568041,15.0079663 0.466432077,15.1830737 0.592339458,15.3107944 L1.09751348,15.8159668 C1.34348515,16.0613444 1.74165514,16.0613444 1.98762682,15.8159668 C2.09993177,15.7019771 2.23726496,15.5538402 2.38114019,15.4829188 C3.20003455,15.0448516 6.09201084,13.3691541 9.07463397,10.1303612 C9.43781607,10.345653 9.83559167,10.3933304 10.1544664,10.0713344 C10.5490205,10.4910145 11.3706407,11.0085771 11.6908535,10.1712983 C11.9465381,10.2440039 12.300155,10.1370519 12.4207861,9.84642784 C12.6046474,9.96912324 12.8050088,10.0650734 13.0158636,10.131402 C13.3869259,10.2578809 13.8129016,9.97057744 13.8385741,9.58286394 C14.346028,9.65423138 14.7174867,9.05191997 14.4418787,8.62435965 C14.5857214,8.51790175 14.6871672,8.36389849 14.7281919,8.18971215 C15.0091029,8.10545893 15.3316451,7.8521541 15.3529563,7.48594995 C15.3748622,7.10928849 15.2150284,6.79646124 14.9030426,6.60480994 C14.708318,6.49493383 14.8150225,6.25317664 14.7855834,6.07946633 C14.9500759,5.91383441 15.1003445,5.71985375 14.9206863,5.34418351 C15.2814399,5.02481424 15.1620973,4.44123678 14.7097552,4.22683712 C14.8007986,4.17608694 14.889463,4.12275961 14.9744599,4.06606215 C15.420706,3.78544936 15.5316728,3.10260178 15.1134781,2.75954249 C15.4504921,2.58657558 15.6883843,2.21254084 15.5475818,1.85258135 C15.4618869,1.61804653 15.2312746,1.46857758 14.9821914,1.4861294 C14.8463308,1.49121236 14.7112469,1.50903322 14.5787163,1.53935761 C14.6779479,1.31622943 14.630275,1.05508706 14.4586052,0.881412967 C14.2869354,0.707738871 14.0263633,0.657037495 13.8020973,0.753671541 C13.6328462,0.817994936 13.4712888,0.900975878 13.3204152,1.00107865 C13.1645958,0.690729428 12.72395,0.664065762 12.4794166,0.908449664 C12.2097812,1.16726694 11.9776845,1.46253746 11.7898762,1.78567438 C11.9182884,1.41694263 11.959523,0.923020515 11.5488121,0.698708704 C11.206842,0.511963918 10.9230069,0.594631196 10.7326931,0.733401207 C10.6431165,0.561162948 10.4798839,0.439175279 10.2893249,0.402061412 C10.0987659,0.364947544 9.90168342,0.416759117 9.75401447,0.542790684 C9.66518259,0.42960853 9.56802079,0.323219599 9.46333993,0.224511752 C9.15725195,-0.0803857872 8.60519334,-0.0162046571 8.4083871,0.363826931 C7.54602784,-0.541449149 6.48393825,0.426620361 7.17075288,1.26781443 C6.95501439,1.44355674 6.86203818,1.75782125 6.9354874,2.05478908 C6.66763459,2.09476402 6.44227771,2.2763307 6.34622985,2.5295451 C6.25018199,2.7827595 6.29843116,3.06810822 6.47239057,3.27566781 C5.95338907,3.64995036 6.16843371,4.17618606 6.77089573,4.6452287 C6.4675336,4.92713007 6.57835172,5.26612538 6.91487008,5.6708382 C7.01784025,5.78926851 7.11243323,5.91472967 7.19796181,6.04631021 C5.8273697,7.06755639 4.55566046,8.21519559 3.39956664,9.47412772 Z M12.1650024,9.53548389 C12.1148468,9.87834494 11.8705117,9.89727714 11.6522456,9.80311177 C11.6059671,9.78142645 11.5524172,9.78156615 11.5062525,9.80349265 C11.4600878,9.82541915 11.4261431,9.86683604 11.4137091,9.91640757 C11.3781244,10.0632064 11.3083427,10.2447473 11.1781463,10.2758715 C10.9185464,10.337971 10.4510386,9.90912215 10.265334,9.69194708 C10.2282404,9.64840711 10.1717324,9.62644758 10.1149721,9.63351514 C10.0582119,9.64058269 10.0088145,9.67572914 9.98353089,9.72703607 C9.9329679,9.83020088 9.84261197,9.90835736 9.73323984,9.94353394 C9.62386771,9.97871052 9.50489137,9.9678801 9.40366863,9.91353305 C9.22618006,9.81723905 9.03850607,9.74103933 8.84412633,9.68634672 C8.88050401,9.59168575 8.93769727,9.454353 9.01699467,9.29724552 C9.79975916,8.99596591 10.3757557,9.12175102 10.4115882,9.13017634 C10.6293091,9.17844848 10.7072188,8.85595689 10.491183,8.79965591 C10.4571842,8.79142883 9.9692078,8.68011546 9.27565289,8.85803844 C9.54382679,8.46155269 9.94868959,8.07497909 10.4529715,7.99771393 C10.7905504,7.93234208 11.1402039,7.97727579 11.450285,8.12587794 C11.4980806,8.1493499 11.5227707,8.203204 11.5093616,8.25473581 C11.5015626,8.30320271 11.4583563,8.33790894 11.4093478,8.33507374 C11.4017649,8.33507374 11.3962637,8.33433033 11.3955203,8.33437989 C11.3079795,8.30857998 11.2160539,8.35840884 11.1898922,8.44584194 C11.163076,8.53562319 11.2121462,8.63052111 11.3009086,8.66053897 C11.3107712,8.66376042 12.26234,9.00711708 12.1650024,9.53548389 Z M8.73588538,8.65563246 L7.57388106,9.81763306 C7.56414748,9.8279738 7.55558749,9.83935938 7.54835721,9.85158216 C6.41148025,10.9401833 5.04855614,12.0864236 3.512615,13.0866085 C3.5897297,12.6689037 3.75209783,12.271572 3.98958888,11.919404 C5.29556755,11.105617 6.6219653,9.98475181 7.94340695,8.57499717 C8.74287346,7.68850461 9.39236875,6.73252791 10.5493179,6.57274416 C10.1220535,7.10795035 9.50903505,7.83743456 8.73588538,8.65563246 Z M14.1403503,9.12313872 C14.0762766,9.22190548 13.9560336,9.26837556 13.8421921,9.23836739 C13.7368752,9.21120811 13.6088099,9.11401955 13.5114228,9.21908827 C13.4600503,9.27012848 13.4462665,9.34793277 13.476978,9.41351497 C13.5233371,9.51946266 13.5008568,9.64293713 13.4201317,9.72574749 C13.3428121,9.80956919 13.2239552,9.84104657 13.1152827,9.8064819 C12.8982273,9.73720722 12.6941844,9.63236406 12.5114825,9.49623181 C12.5319016,9.13339779 12.2915314,8.85660118 12.0301473,8.66470207 C12.0858433,8.57104769 12.1293622,8.47066972 12.1596499,8.36599962 C12.4140822,8.40840963 12.6623415,8.48191344 12.8988503,8.58485976 C13.1013065,8.67902512 13.2467677,8.38047135 13.047533,8.27921881 C12.7719623,8.15658444 12.4813498,8.07102418 12.1832904,8.02477408 C12.146896,7.82343 12.0354023,7.64341805 11.8713542,7.52113806 C12.239028,7.38826563 12.6334803,7.34671493 13.0207701,7.40006123 C13.1677146,7.43095238 13.3126227,7.47084128 13.4546756,7.51950256 C13.6756675,7.58650865 13.7150684,7.91821854 13.5082013,8.0274008 C13.455587,8.06370314 13.4275572,8.12627641 13.4354974,8.18970406 C13.4434376,8.25313171 13.4860272,8.30686454 13.5459667,8.32907689 C13.7809211,8.42354343 13.985727,8.58018841 14.1384174,8.78221054 C14.2122375,8.88363689 14.2130156,9.02088188 14.1403503,9.12313872 L14.1403503,9.12313872 Z M12.6947091,7.34390893 C12.802058,7.36996086 12.9100511,7.40263767 13.0178956,7.44390893 L12.6947091,7.34390893 Z M14.7316611,4.67813702 C14.8852999,4.89560945 14.7231862,5.09345584 14.6087006,5.15971852 C14.5668166,5.18448486 14.5374683,5.22592299 14.5280075,5.27365268 C14.5185467,5.32138237 14.5298695,5.37088214 14.5591397,5.40975234 C14.7294805,5.63307294 14.6439879,5.73224393 14.602902,5.77992135 C14.5128499,5.88434578 14.4161566,5.94099368 14.3154489,5.94842779 C14.2024113,5.94891643 14.0927628,5.90985403 14.0054952,5.83800651 C13.9674819,5.80438894 13.9165063,5.78938135 13.8663414,5.79703864 C13.8161765,5.80469592 13.7719995,5.8342278 13.7457466,5.87765508 C13.6391907,6.05736225 13.516478,6.15063552 13.3706203,6.16292658 C13.0358366,6.19112662 12.6257699,5.80034036 12.4961682,5.64749511 C12.4585486,5.60382488 12.4014679,5.58203317 12.3443169,5.58952279 C12.2871658,5.59701242 12.2376278,5.63277649 12.2125313,5.68466564 C12.1175727,5.89232505 11.9877727,6.10781506 11.733129,6.00681031 C11.2689424,5.81009925 10.7498118,5.78540895 10.2690511,5.9371775 C11.2127893,5.04325083 12.5686758,4.729135 13.3147652,4.90581896 C13.3737275,4.92039127 13.4359852,4.90240074 13.4780864,4.85862421 C13.5201876,4.81484769 13.5357361,4.75193586 13.518875,4.69358702 C13.5020139,4.63523818 13.4553047,4.59031689 13.3963424,4.57574457 C13.3731975,4.57004509 12.8210893,4.43697456 12.0305933,4.61717733 C11.5083208,4.73612306 10.8037138,5.01510034 10.076854,5.65299635 C10.3008819,5.31278966 10.565668,5.00125213 10.865318,4.72531882 C11.8829515,3.79441985 12.3792541,3.72315154 13.1962652,3.78812564 C13.4400056,3.80750388 13.6140138,3.86474651 13.7015383,3.95227074 C13.7262213,3.97618778 13.7449015,4.00560046 13.7560553,4.0381099 C13.8245954,4.24942558 14.0087509,4.40234135 14.2290643,4.43087859 C14.4601667,4.4619036 14.6577163,4.55899305 14.7315125,4.67818658 L14.7316611,4.67813702 Z M12.7128484,1.15585677 C12.7727513,1.09336453 12.86251,1.06950541 12.9455367,1.09400499 C13.1148862,1.15605501 12.9551515,1.38145716 13.1309935,1.45579824 C13.1938032,1.48578683 13.2685422,1.47452107 13.3197213,1.42735038 C13.4986242,1.27520303 13.7024109,1.15502706 13.9221338,1.07209916 C14.1743986,0.968665937 14.3757149,1.20844069 14.2485913,1.44672862 C14.1943573,1.55959133 14.1275915,1.6659907 14.0495548,1.76391722 C13.9290723,1.90977442 14.1151734,2.11723558 14.2735699,2.01385192 C14.2762462,2.01216686 14.5468982,1.84336305 14.9954737,1.8260168 C15.0979151,1.81386284 15.1950769,1.87440859 15.2293019,1.97172531 C15.2738349,2.11465127 15.2216647,2.27002275 15.0998984,2.35710946 C14.990312,2.44618931 14.8662652,2.51582294 14.733148,2.56298468 C14.6698805,2.58526567 14.6255862,2.64261094 14.6200123,2.70945496 C14.6144384,2.77629897 14.6486233,2.84018834 14.7073267,2.87264005 C14.7912138,2.92488901 14.8676517,2.9882397 14.9345634,3.06097078 C15.1504505,3.28895008 15.0005289,3.68047976 14.7353286,3.81538403 C14.4409866,3.88303441 14.2876452,3.69529841 14.2876452,3.69529841 C13.9228772,3.29930827 13.3497552,3.16286762 12.9569357,3.11652835 C13.1385753,3.02335936 13.3298172,2.95023963 13.5272823,2.89846118 C13.6187115,2.87964572 13.6778655,2.79062679 13.6597946,2.69904775 C13.6417237,2.60746871 13.5531888,2.54759247 13.4614654,2.56491755 C13.437478,2.56962582 13.1123586,2.63732576 12.6015346,2.9144693 C12.7633013,2.37529824 12.3381681,1.9020925 12.2026191,1.76857593 C12.3488851,1.54568733 12.5200102,1.34014502 12.7126997,1.15590633 L12.7128484,1.15585677 Z M9.18470868,1.90085349 C9.2037253,1.8374772 9.25146234,1.78674758 9.31356696,1.76391722 C9.44292084,1.72124544 9.63695168,1.8096122 9.69419449,1.84361086 C9.75660541,1.87987083 9.83506393,1.87303419 9.89026264,1.82652607 C9.94546135,1.78001794 9.96550963,1.70385687 9.94036337,1.63619925 C9.78206592,1.23168467 9.78494046,0.988738027 9.94982949,0.823750396 C10.0508212,0.714608671 10.2171055,0.697322788 10.3383868,0.783358411 C10.4262055,0.859598368 10.4835004,0.965017028 10.4997074,1.08017755 C10.5138069,1.14811264 10.567702,1.20070732 10.6359613,1.2131438 C10.7042206,1.22558028 10.7732019,1.19537303 10.810355,1.13677589 C10.8461875,1.08052448 11.0426468,0.809675152 11.3858063,0.996965107 C11.7215317,1.18078581 11.3945786,1.85035111 11.391258,1.85684357 C11.3696707,1.89971695 11.3671223,1.94969565 11.3842369,1.99454238 C11.4013516,2.03938911 11.4365489,2.0749632 11.481211,2.09255434 C11.4958315,2.09835295 11.8400813,2.23836198 11.878491,2.60352535 C11.9142244,2.94400748 11.6936785,3.66536374 10.0485548,4.91449208 C10.9588394,3.54369218 10.8953519,2.52769745 10.891387,2.47610474 C10.8875098,2.41493775 10.8510063,2.36059361 10.7958481,2.33387232 C10.7406899,2.30715103 10.6754181,2.31219028 10.6250151,2.34706132 C10.5746121,2.38193235 10.5468827,2.44123553 10.5524402,2.5022728 C10.5533323,2.51396913 10.6158781,3.51256804 9.67521267,4.85814155 C9.70712988,4.42899529 9.6147484,3.87327095 9.2130575,3.2182765 C9.15980414,3.13246066 9.15060185,3.02641382 9.18827706,2.93270764 C9.30226708,2.63291486 9.63645607,2.82600341 9.67892974,2.56957626 C9.68739789,2.49193331 9.64193133,2.41849228 9.56865679,2.39145504 C9.45119751,2.35195514 9.06090561,2.13864581 9.18470868,1.90085349 Z M7.172884,5.44940092 C6.917249,5.151541 6.92721074,5.01277099 6.94336758,4.96692732 C7.02063299,4.80694532 7.2302755,4.88802666 7.26377865,4.71416766 C7.27890505,4.64686012 7.25184154,4.5770866 7.19528552,4.53758282 C6.54901168,4.08593599 6.50966035,3.82950884 6.52279398,3.74020042 C6.54663276,3.57744303 6.78744906,3.49363585 6.78903501,3.49309068 C6.84454714,3.47553077 6.88721066,3.43078224 6.90210376,3.37449615 C6.91699686,3.31821006 6.90204747,3.25821745 6.86248423,3.2155011 C6.79506505,3.14400938 6.73588242,3.06517703 6.68604751,2.98048417 C6.6013236,2.83444631 6.62185439,2.65021273 6.73664916,2.52640887 C7.24311176,2.00319637 7.87298095,3.09838912 7.87615284,3.1866072 C7.89989058,3.24666847 7.95541009,3.28825811 8.01972248,3.29415514 C8.08403488,3.30005216 8.14619204,3.26925272 8.18045663,3.21450989 C8.37220766,2.91015751 8.5464637,2.811383 8.82653222,3.01468107 C8.80289168,3.22377774 8.9330881,3.41116682 9.03042567,3.58507538 C9.05337235,3.64008777 9.21741885,4.09921827 8.58507163,4.66128637 C8.56735193,4.42189726 8.49694893,4.18938193 8.37889838,3.98037166 C8.25871325,3.79293303 7.97686055,3.96664335 8.0894133,4.15879025 C8.21994596,4.39377603 8.27162751,4.6644475 8.23685691,4.9309958 L7.30555847,5.61200963 C7.26392733,5.5584345 7.22016508,5.50426463 7.172884,5.44915311 L7.172884,5.44940092 Z M7.79452608,6.04363393 C8.21850192,5.74575617 8.61676312,5.41286439 8.98512702,5.0484547 C8.98017094,5.24872957 8.91514707,5.63143743 8.56385957,6.09364069 C8.32267761,6.30995756 8.06996026,6.51305729 7.80681718,6.70204807 C5.32812904,8.57980456 3.84457376,10.6347406 3.18685136,11.6856757 C2.89944742,12.151992 2.67055476,12.6519222 2.50533974,13.1741823 C2.42378757,13.4390773 2.30010218,13.6891081 2.1390353,13.914669 L1.73372645,14.1629186 C1.54598985,14.2818643 1.71742092,14.5663428 1.91130307,14.4527992 L2.34035158,14.1901274 C4.12900363,13.2005486 5.72704454,11.9690638 7.06994606,10.7588407 C7.48391,10.4745827 7.96761031,10.3087059 8.46890093,10.2790929 C5.56894535,13.3133488 2.77267111,14.8875954 2.22066207,15.1829277 C2.04343237,15.2710963 1.88483756,15.4343988 1.74710789,15.5753495 C1.63399719,15.6881893 1.4508953,15.6881893 1.33778461,15.5753495 L0.832610589,15.0704249 C0.774549799,15.0117622 0.744155259,14.9311888 0.749005337,14.8487945 C0.753855416,14.7664001 0.793493072,14.6899491 0.858035319,14.6385033 L0.960477651,14.5577193 L1.4425563,15.0397964 C1.6031831,15.1950701 1.8382999,14.9600532 1.68292655,14.7993773 L1.14861074,14.264865 C1.59450995,10.7464009 5.97584014,7.39936738 7.79452608,6.04338612 L7.79452608,6.04363393 Z" id="Shape" fill="#000000" fill-rule="nonzero"></path>
    </g>
</svg>