<?xml version="1.0" encoding="UTF-8"?>
<svg width="16px" height="16px" viewBox="0 0 16 16" version="1.1" xmlns="http://www.w3.org/2000/svg" xmlns:xlink="http://www.w3.org/1999/xlink">
    <title>Crustaceans</title>
    <g id="Crustaceans" stroke="none" stroke-width="1" fill="none" fill-rule="evenodd">
        <path d="M12.6017977,0.556757775 C12.4067883,0.456752969 12.1892779,0.64176186 12.2492808,0.849271834 L12.586797,2.01182771 C12.5992976,2.05182963 12.6042978,2.09183155 12.6042978,2.13183348 C12.6042978,2.31684237 12.484292,2.48935066 12.2992832,2.54935354 C12.0567715,2.62685727 11.8017592,2.47935018 11.7417564,2.23183828 L11.6592524,1.8743211 C11.6142502,1.68431197 11.3792389,1.61930884 11.2367321,1.75431533 C9.62915483,3.30438983 12.0117693,5.0994761 12.0117693,5.0994761 C11.6867537,5.98951888 10.8117117,6.3395357 10.381691,6.45954147 C10.3091875,5.93951648 10.1441796,5.43949245 9.89416756,4.98447058 L10.0466749,4.87696541 C10.2066826,4.76446 10.2916867,4.58445135 10.2916867,4.4044427 C10.2916867,4.26943621 10.2466845,4.13692984 10.1516799,4.02692456 C9.95167033,3.7969135 9.61165399,3.75691158 9.36664221,3.93692023 L9.2041344,4.05942612 C9.09631591,3.94835875 8.98104251,3.84477976 8.85911782,3.74941122 C8.82411614,3.3993944 8.77661385,2.06183011 9.8741666,0.519255973 C9.95417045,0.409250686 9.92916925,0.251743116 9.81666384,0.17173927 C9.70415843,0.0917354253 9.54665086,0.116736627 9.46664702,0.229242034 C8.4966004,1.59180752 8.34409307,2.81436628 8.34409307,3.45689716 C8.21408682,3.41689524 8.07658021,3.40439464 7.94157372,3.41689524 C7.95657444,2.80186568 7.83906879,1.53180464 6.82151989,0.104236026 C6.74151604,-0.00826938104 6.58650859,-0.0332705826 6.47400319,0.0467332625 C6.36149778,0.126737108 6.33399646,0.281744557 6.4140003,0.394249965 C7.49655233,1.91432302 7.46405077,3.24688707 7.42904909,3.61440473 C7.23903996,3.7344105 7.08403251,3.86441675 6.9340253,4.01442396 C6.81651965,3.8469159 6.63401088,3.76191182 6.44900198,3.76191182 C6.28149393,3.76191182 6.11148576,3.8344153 5.99148,3.97692215 C5.80897122,4.19943285 5.81147134,4.52194835 5.99648024,4.74195892 L6.20649033,4.99197094 C5.98147952,5.43949245 5.84897315,5.93201612 5.8189717,6.43704039 C5.39895152,6.28453306 4.5414103,5.9045148 4.13889096,5.20948139 C4.10480895,5.14688694 4.12062635,5.06885443 4.17639276,5.0244725 C4.60141319,4.66695532 6.26899333,3.1143807 4.85642544,1.75431533 C4.71391859,1.61930884 4.4789073,1.68181185 4.43390514,1.8743211 L4.34890105,2.23183828 C4.29139829,2.47935018 4.03388591,2.62685727 3.79387438,2.54935354 C3.60886548,2.48935066 3.48885972,2.31684237 3.48885972,2.13183348 C3.48885972,2.09183155 3.49385996,2.05182963 3.50636056,2.01182771 L3.84387678,0.849271834 C3.90387966,0.64176186 3.68636921,0.456752969 3.49135984,0.556757775 C2.74882415,0.929275679 1.55876695,1.99932711 2.92633268,4.79696157 C2.92633268,4.79946169 3.54636248,6.72205409 5.91147615,7.50209158 L6.05148288,8.26212811 L4.32389985,9.06216656 C4.27889769,9.08216752 4.24139588,9.1171692 4.21639468,9.15967124 L3.58886452,10.1897207 C3.51636104,10.3072264 3.55386284,10.4622338 3.67136849,10.5347373 C3.79387438,10.6047407 3.94138146,10.5672389 4.01388495,10.4497332 L4.60391331,9.48218674 L6.14398733,8.7696525 L6.30649514,9.64469455 L4.72141895,10.3797299 C4.67641679,10.3997308 4.63891499,10.4322324 4.61141367,10.4747344 L4.02388543,11.4397808 C3.95388207,11.5572865 3.99138387,11.7122939 4.10888952,11.7822973 C4.22639516,11.8573009 4.37890249,11.817299 4.45140598,11.6997933 L4.99893229,10.7997501 L6.39899958,10.1522189 L6.54900679,10.964758 L4.93892941,11.7097938 C4.89392725,11.7297948 4.85642544,11.7647964 4.83142424,11.8072985 L4.23889576,12.7773451 C4.1688924,12.8948508 4.2063942,13.0473581 4.32389985,13.1198616 C4.4414055,13.1948652 4.59391283,13.1548633 4.66641631,13.0373576 L5.21894287,12.1323141 L6.64151124,11.4722824 L7.0465307,13.6623877 C6.90152373,13.8073946 6.56900775,14.147411 5.79147038,14.9524497 C5.74146798,15.0049522 5.71646678,15.0749555 5.72146702,15.147459 C5.72896738,15.2199625 5.76646918,15.2849656 5.82397194,15.3274677 C5.84897315,15.3474686 6.04898276,15.4899755 6.3889991,15.6374826 L7.21153863,14.7499399 C7.3065432,14.6499351 7.46655089,14.6449349 7.5665557,14.7374393 C7.6665605,14.8324439 7.67406086,14.9899515 7.5790563,15.0924564 L6.89902361,15.8249916 C7.19903803,15.9149959 7.55155498,15.9849993 7.94907408,16 L7.94907408,14.9199481 C7.94907408,14.7824415 8.06157949,14.6699361 8.1990861,14.6699361 C8.33659271,14.6699361 8.44909811,14.7824415 8.44909811,14.9199481 L8.44909811,15.9924996 C8.69911013,15.9749988 8.96412287,15.9324968 9.23913608,15.8599933 L8.76411325,15.0699553 C8.69410989,14.9499495 8.73161169,14.7974422 8.84911734,14.7274388 C8.90602098,14.6924836 8.97456238,14.6817986 9.03940574,14.6977745 C9.1042491,14.7137504 9.1599818,14.7550537 9.19413392,14.8124429 L9.73165975,15.7049858 C9.98167177,15.6124814 10.2391841,15.4949757 10.5041969,15.3449685 C10.5717001,15.3049666 10.6192024,15.2374634 10.6292029,15.1599596 C10.6392034,15.0799558 10.6117021,15.0024521 10.5566994,14.9474494 L9.27663789,13.6998895 L9.67915723,11.5247849 L11.1042257,12.1848166 L11.6567523,13.0898601 C11.7242555,13.2073658 11.8817631,13.2448676 11.9992687,13.1723641 C12.1167744,13.1023607 12.1542762,12.9473533 12.0817727,12.8298476 L11.4917443,11.859801 C11.4667431,11.817299 11.4292413,11.7847974 11.3842392,11.7622963 L9.77166168,11.0172605 L9.92166889,10.2047215 L11.3217362,10.8547527 L11.8692625,11.754796 C11.9467662,11.8773019 12.109274,11.9023031 12.2142791,11.8372999 C12.3317847,11.7647964 12.3692865,11.6122891 12.296783,11.4922834 L11.7092548,10.5297371 C11.6844056,10.4868675 11.6468342,10.4527911 11.6017496,10.4322324 L10.0141733,9.6996972 L10.1766811,8.82215502 L11.7192553,9.53718939 L12.3067835,10.5022358 C12.3842872,10.6272418 12.5467951,10.652243 12.6518001,10.5872399 C12.7693057,10.5147364 12.8068076,10.3597289 12.7343041,10.2422233 L12.1067739,9.21217377 C12.0817727,9.16967172 12.0417708,9.13717016 11.9967686,9.11466908 L10.2691856,8.31713075 L10.3516896,7.87460948 C10.3766908,7.73710287 10.3941916,7.59959626 10.4041921,7.46208966 C12.6618006,6.66705144 13.1368234,4.91446721 13.1643247,4.80196181 C13.1668249,4.79946169 13.1668249,4.79696157 13.1668249,4.79696157 C14.5343906,1.99932711 13.3443334,0.929275679 12.6017977,0.556757775 Z M8.90411998,4.81446241 C9.06412767,4.81446241 9.19413392,4.94196853 9.19413392,5.10197622 C9.19413392,5.26214649 9.06429025,5.39199015 8.90411998,5.39199015 C8.74394971,5.39199015 8.61410604,5.26214649 8.61410604,5.10197622 C8.61410604,4.94196853 8.74411229,4.81446241 8.90411998,4.81446241 L8.90411998,4.81446241 Z M7.39904765,4.81446241 C7.55905534,4.81446241 7.68906158,4.94196853 7.68906158,5.10197622 C7.68906158,5.2621465 7.55921792,5.39199016 7.39904765,5.39199016 C7.23887737,5.39199016 7.10903371,5.2621465 7.10903371,5.10197622 C7.10903371,4.94196853 7.23903996,4.81446241 7.39904765,4.81446241 L7.39904765,4.81446241 Z M8.92912118,11.7897977 C8.89661962,11.9248041 8.75911301,12.004808 8.62660664,11.9748065 C8.30659126,11.8948027 8.03157805,11.8923026 7.80906735,11.9673062 C7.78406615,11.9773067 7.75656483,11.9823069 7.72906351,11.9823069 C7.62405846,11.9823069 7.52905389,11.9148037 7.49405221,11.8122987 C7.44905005,11.6797924 7.51905341,11.5372855 7.64905966,11.4947835 C7.96157468,11.3897784 8.33159246,11.3872783 8.74661241,11.4872831 C8.87911878,11.5222848 8.96162275,11.6572913 8.92912118,11.7897977 L8.92912118,11.7897977 Z M9.15663212,10.7997501 C9.12413056,10.9322564 8.98912407,11.0147604 8.85411758,10.9822588 C8.35909379,10.859753 7.92907312,10.8572528 7.58155642,10.9747585 C7.5540551,10.984759 7.52655377,10.9897592 7.50155257,10.9897592 C7.39654753,10.9897592 7.29904284,10.922256 7.26404116,10.819751 C7.21903899,10.6872447 7.28904236,10.5472379 7.42154873,10.5022358 C7.86156987,10.3522286 8.38409499,10.3522286 8.97412335,10.4972355 C9.10912983,10.5297371 9.1916338,10.6647436 9.15663212,10.7997501 Z M9.29913897,9.799702 C9.2666374,9.93470849 9.13163092,10.0197126 8.99662443,9.9847109 C8.39159535,9.83470369 7.86657012,9.83220357 7.43904957,9.97721054 C7.41154825,9.98721102 7.38404692,9.99221126 7.35904572,9.99221126 C7.25404068,9.99221126 7.15653599,9.92470801 7.12153431,9.82220309 C7.07653214,9.68969672 7.14903563,9.54718987 7.27904188,9.50468783 C7.79906687,9.32717929 8.41659655,9.32717929 9.11663019,9.49718747 C9.25163668,9.53218915 9.33164053,9.66719564 9.29913897,9.799702 L9.29913897,9.799702 Z M9.29913897,8.79215358 C9.2666374,8.92716007 9.13163092,9.00966403 8.99662443,8.97466235 C8.39159535,8.82715526 7.86657012,8.82465514 7.43904957,8.96966211 C7.41154825,8.97966259 7.38404692,8.98216271 7.35904572,8.98216271 C7.25404068,8.98216271 7.15653599,8.91715959 7.12153431,8.81215454 C7.07653214,8.68214829 7.14903563,8.53964144 7.27904188,8.49463928 C7.79906687,8.31963087 8.41659655,8.31713075 9.11663019,8.48963904 C9.25163668,8.5221406 9.33164053,8.65714709 9.29913897,8.79215358 L9.29913897,8.79215358 Z" id="Shape" fill="#000000" fill-rule="nonzero"></path>
    </g>
</svg>