<?xml version="1.0" encoding="UTF-8"?>
<svg width="16px" height="16px" viewBox="0 0 16 16" version="1.1" xmlns="http://www.w3.org/2000/svg" xmlns:xlink="http://www.w3.org/1999/xlink">
    <title>Eggs</title>
    <g id="Eggs" stroke="none" stroke-width="1" fill="none" fill-rule="evenodd">
        <g id="icons8-egg" transform="translate(2, 0)" fill="#000000" fill-rule="nonzero">
            <path d="M6,0 C3.14933333,0 0,4.66666667 0,10 C0,13.314 2.686,16 6,16 C9.314,16 12,13.314 12,10 C12,4.66666667 8.85066667,0 6,0 Z M6,4.66666667 C6,4.29866667 6.29866667,4 6.66666667,4 C7.03466667,4 7.33333333,4.29866667 7.33333333,4.66666667 C7.33333333,5.03466667 7.03466667,5.33333333 6.66666667,5.33333333 C6.29866667,5.33333333 6,5.03466667 6,4.66666667 Z M7.66666667,9.33333333 C7.11466667,9.33333333 6.66666667,8.88533333 6.66666667,8.33333333 C6.66666667,7.78133333 7.11466667,7.33333333 7.66666667,7.33333333 C8.21866667,7.33333333 8.66666667,7.78133333 8.66666667,8.33333333 C8.66666667,8.88533333 8.21866667,9.33333333 7.66666667,9.33333333 Z" id="Shape"></path>
        </g>
    </g>
</svg>