<?xml version="1.0" encoding="UTF-8"?>
<svg width="16px" height="16px" viewBox="0 0 16 16" version="1.1" xmlns="http://www.w3.org/2000/svg" xmlns:xlink="http://www.w3.org/1999/xlink">
    <title>Fair trade</title>
    <g id="Fair-trade" stroke="none" stroke-width="1" fill="none" fill-rule="evenodd">
        <path d="M10.1730769,2.02400784 C9.99759631,2.03602692 9.82451938,2.09612354 9.63461538,2.19708477 C8.78365415,2.64900786 5.69711569,4.40621959 5.69230769,4.40862329 C5.254808,4.66583499 5.10817292,5.24035438 5.36538462,5.67785409 C5.60817292,6.09131564 6.13221169,6.24516179 6.55769231,6.04323871 C6.60096185,6.02160425 8.09855754,5.25477715 8.78846154,4.88939253 C9.52403877,4.49996975 9.98076923,4.94708484 9.98076923,4.94708484 C9.98076923,4.94708484 12.6370191,7.59612368 13.3846154,8.31246954 C13.8701926,8.77881601 14.5360578,8.55045047 14.75,8.52400801 C14.9639422,8.49756554 16,8.29323877 16,8.29323877 L16,3.4470848 C16,3.4470848 14.4134615,3.81727743 13.4807692,4.00477712 C13.1947114,4.06246943 12.8461538,3.87016173 12.8461538,3.87016173 C12.8461538,3.87016173 12.0721157,3.20910387 11.2115385,2.48554632 C10.7764425,2.117758 10.4663465,2.00237338 10.1730769,2.02400784 Z M6.01923077,2.08170015 C5.03846154,2.08170015 3,3.42785403 3,3.42785403 C3,3.42785403 2.42307692,3.80045035 1.59615385,3.46631557 L0,2.90862325 L0,8.44708493 C0,8.44708493 0.456731077,8.58891201 0.865384615,8.75477724 C0.959134769,8.49275816 1.10096185,8.24275815 1.30769231,8.04323876 C1.98557723,7.39660429 3.11298092,7.38939259 3.73076923,8.02400799 C3.91586523,8.21631569 4.04807692,8.463912 4.11538462,8.7163157 C4.36538462,8.79323878 4.58653846,8.9134314 4.76923077,9.1009311 C4.95673108,9.2932388 5.08653846,9.52160434 5.15384615,9.77400804 C5.40384615,9.85093112 5.625,9.99035451 5.80769231,10.1778542 C6.01201908,10.3893927 6.14663446,10.6514118 6.21153846,10.9278542 C6.47115385,11.0047773 6.71394215,11.136989 6.90384615,11.3317004 C7.27403877,11.7115084 7.40624985,12.2355466 7.32692308,12.7355466 C7.32692308,12.7355466 7.55048062,12.9975657 7.69230769,13.1393927 C7.96634646,13.4134315 8.41826954,13.4134315 8.69230769,13.1393927 C8.96634646,12.8653546 8.96634646,12.4134315 8.69230769,12.1393927 C8.68269231,12.1297773 7.67788492,11.1153545 7.76923077,11.0240081 C7.86057723,10.9326622 9.13221169,12.2523736 9.13461538,12.2547773 C9.40624985,12.5264118 9.84375015,12.5264118 10.1153846,12.2547773 C10.379808,11.9879502 10.3870191,11.5672776 10.1346154,11.2932388 C10.129808,11.2884315 8.98557723,10.0576622 9.05769231,9.9855465 C9.13942338,9.90381604 10.5168271,11.3317004 10.5192308,11.3317004 C10.7956732,11.5865084 11.2307692,11.5817002 11.5,11.3124696 C11.7692308,11.0432388 11.7572117,10.6081428 11.5,10.3317004 C11.4975963,10.3292967 10.3701926,9.11535448 10.4423077,9.04323879 C10.5144234,8.97112371 11.689904,10.136989 11.6923077,10.1393927 C11.9663465,10.4134314 12.3990388,10.4134314 12.6730769,10.1393927 C12.9471157,9.8653545 12.9471157,9.41343141 12.6730769,9.13939264 C12.6682695,9.13458525 11.1394234,7.62737352 9.59615385,6.08170015 C9.59615385,6.08170015 9.14903877,5.60093101 8.53846154,5.87016179 C8.11057723,6.0576621 7.55048062,6.32929657 7.13461538,6.52400796 C6.67788492,6.76439258 6.27403877,6.83170027 6.19230769,6.83170027 C5.30769231,6.83170027 4.59615385,6.1177581 4.59615385,5.23554638 C4.59615385,4.66343129 4.89423077,4.1538159 5.34615385,3.87016173 C5.98317292,3.42785403 7.46153846,2.65862324 7.46153846,2.65862324 C7.46153846,2.65862324 7,2.08170015 6.01923077,2.08170015 Z M2.53846154,8.29323877 C2.29326954,8.30045046 2.04326954,8.39179631 1.84615385,8.58170032 C1.45192308,8.96150833 1.185096,9.66102711 1.53846154,10.0624696 C1.88942338,10.4639121 2.30528862,10.209104 2.61538462,10.1393927 C2.52884615,10.4446813 2.25961538,10.7403545 2.57692308,11.1393927 C2.89182708,11.5408352 3.34375015,11.2860272 3.65384615,11.2163158 C3.56730769,11.5216044 3.310096,11.8437195 3.61538462,12.2163158 C3.92067323,12.5889121 4.43750031,12.3773736 4.76923077,12.2740081 C4.64182708,12.6033349 4.36057723,12.9711238 4.71153846,13.370162 C5.06250031,13.7692008 5.87259631,13.5768931 6.26923077,13.197085 C6.66346154,12.8196813 6.69471138,12.2115084 6.34615385,11.8509312 C6.10576923,11.6057392 5.75240369,11.5552579 5.42307692,11.6586235 C5.55288492,11.3292967 5.51682708,10.9494887 5.26923077,10.697085 C5.04807692,10.4687194 4.71394215,10.4158351 4.40384615,10.4855465 C4.49038462,10.1802579 4.45432677,9.85093112 4.23076923,9.62016188 C4.00961538,9.39420064 3.67548062,9.33891203 3.36538462,9.40862341 C3.45192308,9.10333479 3.41346154,8.77400801 3.19230769,8.54323878 C3.01682708,8.36295016 2.78365415,8.28602708 2.53846154,8.29323877 Z" id="Shape" fill="#000000" fill-rule="nonzero"></path>
    </g>
</svg>