<?xml version="1.0" encoding="UTF-8"?>
<svg width="16px" height="16px" viewBox="0 0 16 16" version="1.1" xmlns="http://www.w3.org/2000/svg" xmlns:xlink="http://www.w3.org/1999/xlink">
    <title>Fat</title>
    <g id="Fat" stroke="none" stroke-width="1" fill="none" fill-rule="evenodd">
        <path d="M8.34983333,0 C8.16147117,0.000263675165 7.98445326,0.0900615356 7.87298119,0.241898133 C7.86700678,0.249471732 7.86121819,0.257190082 7.85562059,0.265046281 C6.45643778,2.06552373 3.0165,7.7176083 3.0165,10.6666667 C3.0165,13.6124444 5.40405556,16 8.34983333,16 C11.2956111,16 13.6831667,13.6124444 13.6831667,10.6666667 C13.6831667,7.72092681 10.2508716,2.08025902 8.848676,0.273148148 C8.84851659,0.272942637 8.84883541,0.272196148 8.848676,0.271990756 C8.84166317,0.261731789 8.83432937,0.251695952 8.82668548,0.241898133 C8.71521341,0.0900615356 8.5381955,0.000263675165 8.34983333,0 Z M4.79427778,10.0740741 C5.12198148,10.0740741 5.38687037,10.338963 5.38687037,10.6666667 C5.38687037,11.917037 6.18093496,13.0388053 7.36256459,13.4571757 C7.67071274,13.5662127 7.832148,13.9042222 7.72251837,14.212963 C7.63659244,14.4559259 7.4087963,14.6076391 7.16464815,14.6076391 C7.09946296,14.6076391 7.03191689,14.5971852 6.9667317,14.5740741 C5.31280554,13.9891852 4.20168519,12.4183704 4.20168519,10.6666667 C4.20168519,10.338963 4.46657407,10.0740741 4.79427778,10.0740741 Z" id="Shape" fill="#000000" fill-rule="nonzero"></path>
    </g>
</svg>