<?xml version="1.0" encoding="UTF-8"?>
<svg width="16px" height="16px" viewBox="0 0 16 16" version="1.1" xmlns="http://www.w3.org/2000/svg" xmlns:xlink="http://www.w3.org/1999/xlink">
    <title>Fish</title>
    <g id="Fish" stroke="none" stroke-width="1" fill="none" fill-rule="evenodd">
        <path d="M6.22244262,2.165 C7.72992569,2.165 10.0310097,2.74102786 11.5242712,3.31077779 C11.531382,3.31344522 11.5345205,3.31937471 11.5416313,3.3229301 C14.4099378,4.19666586 15.8366745,6.96186622 15.9060045,7.10052622 C16.0313318,7.35029198 16.0313318,7.64497293 15.9060045,7.89562754 C15.8366745,8.03428754 14.4099378,10.7994879 11.5416313,11.6732237 C11.5345205,11.6758902 11.5305349,11.6835565 11.5225353,11.6871119 C10.0301626,12.2559734 7.72992569,12.8311538 6.22244262,12.8311538 C5.73179955,12.8311538 5.33359648,12.4338395 5.33359648,11.9423076 C5.33359648,11.4792188 5.69105129,11.1108614 6.14258513,11.0690856 C4.7648736,10.4086729 3.5830691,9.46459387 2.64622571,8.51886157 C2.00003456,9.22549426 1.63784362,9.75542699 1.62717747,9.77053738 C1.3543017,10.1776289 0.802578275,10.2864566 0.394597893,10.0135808 C-0.0124936416,9.73892734 -0.123057836,9.18893957 0.14981802,8.78273688 C0.202259943,8.70451842 0.655432551,8.03460663 1.4518387,7.17864779 C0.634989089,6.16269665 0.171900247,5.36408261 0.118569478,5.27075376 C0.0385733249,5.13298261 0.000519599282,4.98260051 0.000519599282,4.83327436 C0.000519599282,4.52484474 0.162206224,4.22428942 0.448414683,4.06074173 C0.874172076,3.81719788 1.41572932,3.96571874 1.66016201,4.3905872 C1.67171701,4.40925297 2.05636518,5.06902657 2.74344325,5.93565246 C3.61895626,5.18368773 4.70190419,4.43640455 5.95162187,3.88887533 C5.59608341,3.77332533 5.33359648,3.44938268 5.33359648,3.05384615 C5.33359648,2.56231423 5.73179955,2.165 6.22244262,2.165 Z M12.4443656,6.60923073 C11.9534695,6.60923073 11.5555195,7.00718071 11.5555195,7.49807688 C11.5555195,7.98897305 11.9534695,8.38692302 12.4443656,8.38692302 C12.9352618,8.38692302 13.3332118,7.98897305 13.3332118,7.49807688 C13.3332118,7.00718071 12.9352618,6.60923073 12.4443656,6.60923073 Z" id="Shape" fill="#000000" fill-rule="nonzero"></path>
    </g>
</svg>