<?xml version="1.0" encoding="UTF-8"?>
<svg width="16px" height="16px" viewBox="0 0 16 16" version="1.1" xmlns="http://www.w3.org/2000/svg" xmlns:xlink="http://www.w3.org/1999/xlink">
    <title>Forest footprint</title>
    <g id="Forest-footprint" stroke="none" stroke-width="1" fill="none" fill-rule="evenodd">
        <path d="M4.66666667,0 C3.93,0 3.33333333,0.596666667 3.33333333,1.33333333 C2.22866667,1.33333333 1.33333333,2.22866667 1.33333333,3.33333333 C1.33333333,3.39333333 1.3462292,3.45044793 1.35156253,3.5091146 C0.9448958,3.73778127 0.666666667,4.16733333 0.666666667,4.66666667 C0.666666667,4.82533333 0.699333333,4.975854 0.75,5.11718733 C0.296,5.483854 0,6.038 0,6.66666667 C0,7.26933333 0.2720104,7.803906 0.6940104,8.17057267 C0.2820104,8.397906 0,8.83 0,9.33333333 C0,10.07 0.596666667,10.6666667 1.33333333,10.6666667 C1.33333333,11.7713333 2.22866667,12.6666667 3.33333333,12.6666667 L4,12.6666667 L4,15.3333333 C4,15.7013333 4.29866667,16 4.66666667,16 C5.03466667,16 5.33333333,15.7013333 5.33333333,15.3333333 L5.33333333,12.6666667 C5.33333333,12.2593333 5.46643733,11.8576147 5.73177067,11.4882813 L6.70182267,10.186198 C6.27248933,9.81953133 6,9.27466667 6,8.66666667 C6,8.19133333 6.17043733,7.73442733 6.48177067,7.371094 L7.67187467,5.778646 C7.45854133,5.45997933 7.33333333,5.07733333 7.33333333,4.66666667 C7.33333333,4.30733333 7.43538533,3.95757293 7.63671867,3.62890627 C7.65738533,3.59490627 7.68042733,3.56194793 7.70442733,3.52994793 L8.45703133,2.5182292 C8.299698,2.39222913 8.12613533,2.28318753 7.938802,2.2005208 C7.72813533,1.32185413 6.94333333,0.666666667 6,0.666666667 C5.94,0.666666667 5.88288533,0.679562533 5.82421867,0.684895867 C5.595552,0.278229133 5.166,0 4.66666667,0 Z M11.3333333,1.33333333 C11.098,1.33333333 10.9012187,1.46246873 10.782552,1.6471354 L10.7721353,1.640625 L8.77343733,4.3255208 C8.71143733,4.42618747 8.66666667,4.53933333 8.66666667,4.66666667 C8.66666667,5.03466667 8.96533333,5.33333333 9.33333333,5.33333333 L9.66666667,5.33333333 L7.51692733,8.21354133 C7.40492733,8.33287533 7.33333333,8.49066667 7.33333333,8.66666667 C7.33333333,9.03466667 7.632,9.33333333 8,9.33333333 L9,9.33333333 L6.80078133,12.285156 C6.72211467,12.3944893 6.66666667,12.522 6.66666667,12.6666667 C6.66666667,13.0346667 6.96533333,13.3333333 7.33333333,13.3333333 L10.6666667,13.3333333 L10.6666667,15.3333333 C10.6666667,15.7013333 10.9653333,16 11.3333333,16 C11.7013333,16 12,15.7013333 12,15.3333333 L12,13.3333333 L15.3333333,13.3333333 C15.7013333,13.3333333 16,13.0346667 16,12.6666667 C16,12.522 15.944552,12.3944893 15.8658853,12.285156 L13.6666667,9.33333333 L14.6666667,9.33333333 C15.0346667,9.33333333 15.3333333,9.03466667 15.3333333,8.66666667 C15.3333333,8.49066667 15.2617393,8.33287533 15.1497393,8.21354133 L13,5.33333333 L13.3333333,5.33333333 C13.7013333,5.33333333 14,5.03466667 14,4.66666667 C14,4.53933333 13.9552293,4.42618747 13.8932293,4.3255208 L11.8945313,1.640625 L11.8841147,1.6471354 C11.765448,1.46246873 11.5686667,1.33333333 11.3333333,1.33333333 Z" id="Shape" fill="#000000" fill-rule="nonzero"></path>
    </g>
</svg>