<?xml version="1.0" encoding="UTF-8"?>
<svg width="16px" height="16px" viewBox="0 0 16 16" version="1.1" xmlns="http://www.w3.org/2000/svg" xmlns:xlink="http://www.w3.org/1999/xlink">
    <title>Artboard</title>
    <g id="Artboard" stroke="none" stroke-width="1" fill="none" fill-rule="evenodd">
        <path d="M16,-4.52970994e-14 C16,-4.52970994e-14 14.0003647,0.000208333333 13.0403647,0.880208333 C12.0003647,2.00020833 12.319896,3.20010413 12.559896,3.44010413 C12.799896,3.6001042 14.0805207,4.00020833 15.2005207,2.88020833 C16.0005207,2.00020833 16,-4.52970994e-14 16,-4.52970994e-14 Z M11.279948,0.880208333 C10.399948,0.960208333 9.03947933,1.8396354 8.79947933,2.9596354 C8.39947933,4.3996354 9.27953133,5.360104 9.51953133,5.440104 C9.75953133,5.520104 10.6403647,4.959844 11.0403647,3.83984373 C11.6003647,2.23984373 11.359948,0.880208333 11.279948,0.880208333 Z M7.51041667,3.44010413 C7.51041667,3.44010413 5.910156,4.31942707 5.910156,6.07942733 C5.910156,7.83942733 6.629948,8.23958333 7.029948,8.23958333 C7.429948,8.23958333 8.309896,7.440156 8.309896,6.160156 C8.309896,4.32015627 7.51041667,3.44010413 7.51041667,3.44010413 Z M14.2395833,4.6002604 C13.6995833,4.6002604 12.960156,4.67963533 12.160156,4.95963533 C10.960156,5.43963533 10.479896,6.24046867 10.559896,6.48046867 C10.639896,6.72046867 11.6003647,7.60052067 13.0403647,7.20052067 C14.2403647,6.88052067 15.0397913,5.600052 15.119792,4.720052 C15.119792,4.680052 14.7795833,4.6002604 14.2395833,4.6002604 Z M4.5559896,6.47395867 C4.5559896,6.47395867 2.9557292,7.35458333 2.9557292,9.11458333 C2.9557292,10.8745833 3.6755208,11.2734373 4.0755208,11.2734373 C4.4755208,11.2734373 5.35546867,10.4740107 5.35546867,9.19401067 C5.35546867,7.35401067 4.5559896,6.47395867 4.5559896,6.47395867 Z M9.807292,7.70182267 C8.527292,7.70182267 7.72786467,8.58177067 7.72786467,8.98177067 C7.72786467,9.38177067 8.12671867,10.1015627 9.88671867,10.1015627 C11.6467187,10.1015627 12.527344,8.501302 12.527344,8.501302 C12.527344,8.501302 11.647292,7.70182267 9.807292,7.70182267 Z M1.6002604,9.440104 C1.6002604,9.440104 -1.24344979e-14,10.3194273 -1.24344979e-14,12.0794273 C-1.24344979e-14,13.8394273 0.719791667,14.2395833 1.11979167,14.2395833 C1.51979167,14.2395833 2.3997396,13.440156 2.3997396,12.160156 C2.3997396,10.320156 1.6002604,9.440104 1.6002604,9.440104 Z M6.82161467,10.6067707 C5.54161467,10.6067707 4.74088533,11.4867187 4.74088533,11.8867187 C4.74088533,12.2867187 5.141042,13.0065107 6.90104133,13.0065107 C8.661042,13.0065107 9.54166667,11.40625 9.54166667,11.40625 C9.54166667,11.40625 8.66161467,10.6067707 6.82161467,10.6067707 Z M3.92057293,13.6002607 C2.64057293,13.6002607 1.83984373,14.480208 1.83984373,14.880208 C1.83984373,15.2802087 2.24,16 4,16 C5.76,16 6.64062533,14.3997393 6.64062533,14.3997393 C6.64062533,14.3997393 5.76057267,13.6002607 3.92057293,13.6002607 Z" id="Shape" fill="#000000" fill-rule="nonzero"></path>
    </g>
</svg>