<?xml version="1.0" encoding="UTF-8"?>
<svg width="16px" height="16px" viewBox="0 0 16 16" version="1.1" xmlns="http://www.w3.org/2000/svg" xmlns:xlink="http://www.w3.org/1999/xlink">
    <title>Lupin</title>
    <g id="Lupin" stroke="none" stroke-width="1" fill="none" fill-rule="evenodd">
        <path d="M0.114843198,1.85767834 C0.441365395,0.295158505 4.76479281,0.242162755 6.44270661,0.455855293 C7.88726817,0.639630875 8.36593945,3.91596486 7.47783326,5.12802893 C6.95898778,5.83577861 2.02525448,7.15297941 1.14996985,6.52985197 C0.276394756,5.90843408 -0.244160265,3.57063772 0.114843198,1.85767834 Z M8.66254469,15.5340007 C5.61443434,16.075925 3.03815711,14.3527084 2.76804974,13.4363948 C2.36630777,12.0756007 3.61256265,9.36170548 4.44339923,8.98988046 C5.24431886,8.630877 10.1071062,10.2891311 10.5293627,11.2781002 C11.0174365,12.4192183 10.119073,13.1184203 9.87973738,13.8501035 C9.57629398,14.7741101 9.62416111,15.3630467 8.66254469,15.5340007 Z M8.66254469,5.27675894 C8.5992917,6.66405089 11.1730046,11.1533037 12.9680219,10.1207414 C14.2305174,9.39589629 15.9682652,8.44111803 15.9998917,6.94014165 C16.0195514,6.04263299 13.3586519,2.12094754 12.1559903,2.21240795 C11.0866728,2.29361111 8.74203832,3.52875398 8.66254469,5.27675894 Z" id="Shape" fill="#000000" fill-rule="nonzero"></path>
    </g>
</svg>