<?xml version="1.0" encoding="UTF-8"?>
<svg width="16px" height="16px" viewBox="0 0 16 16" version="1.1" xmlns="http://www.w3.org/2000/svg" xmlns:xlink="http://www.w3.org/1999/xlink">
    <title>Milk</title>
    <g id="Milk" stroke="none" stroke-width="1" fill="none" fill-rule="evenodd">
        <path d="M6.04265306,0 C5.68295935,0 5.38959184,0.29336751 5.38959184,0.653061224 L5.38959184,1.30612245 C5.38959184,1.66581649 5.68295935,1.95918367 6.04265306,1.95918367 L9.96102041,1.95918367 C10.3207144,1.95918367 10.6140816,1.66581649 10.6140816,1.30612245 L10.6140816,0.653061224 C10.6140816,0.29336751 10.3207144,0 9.96102041,0 L6.04265306,0 Z M5.76714286,2.58163265 C5.03627559,3.94260212 4.41,6.36479608 4.41,7.12244898 L4.41,14.3673469 C4.41,15.2678573 5.14214302,16 6.04265306,16 L9.96102041,16 C10.8615308,16 11.5936735,15.2678573 11.5936735,14.3673469 L11.5936735,7.12244898 C11.5936735,6.36479608 10.9712245,3.94260212 10.2365306,2.58163265 C10.1485205,2.60076539 10.0541326,2.6122449 9.96102041,2.6122449 L6.04265306,2.6122449 C5.94698971,2.6122449 5.85642873,2.60076539 5.76714286,2.58163265 Z" id="Shape" fill="#000000" fill-rule="nonzero"></path>
    </g>
</svg>