<?xml version="1.0" encoding="UTF-8"?>
<svg width="16px" height="16px" viewBox="0 0 16 16" version="1.1" xmlns="http://www.w3.org/2000/svg" xmlns:xlink="http://www.w3.org/1999/xlink">
    <title>Molluscs</title>
    <g id="Molluscs" stroke="none" stroke-width="1" fill="none" fill-rule="evenodd">
        <path d="M12.4750327,14.5585553 C12.6577466,15.0345735 12.5519649,15.2629654 11.5951212,15.2629654 C10.2728492,15.2629654 10.0396487,15.270178 10.0396487,15.0321689 C10.0396487,14.5224932 11.1816108,13.4165932 11.5662717,13.4165932 C11.8812129,13.4165932 12.2706817,14.0296466 12.4750327,14.5585553 Z M4.4236,13.4165932 C4.10865876,13.4165932 3.71678596,14.0296466 3.51483901,14.5585553 C3.3297205,15.0345735 3.43790683,15.2629654 4.39475044,15.2629654 C5.71702249,15.2629654 5.95022298,15.270178 5.95022298,15.0321689 C5.95022298,14.5224932 4.80826087,13.4165932 4.4236,13.4165932 Z M15.2734405,7.79092801 C14.8575261,8.1371228 11.482127,10.8778315 11.482127,10.8778315 C11.4460649,10.9090857 11.2513304,10.9595722 11.1695903,10.8730235 L11.0469795,10.7456048 C10.9652388,10.6590561 11.0253425,10.4715336 11.059,10.4378761 C11.059,10.4378761 14.6868327,6.91101658 15.1532343,6.44221099 C15.6244439,5.9734054 15.5931903,5.24735832 15.4826,4.96126664 C15.2085294,4.24243149 14.8623347,3.69669434 14.4031456,3.11729845 C14.0377178,2.6557054 13.494384,2.91775608 13.0448121,3.89383273 C12.4197381,5.25457086 10.1622595,9.81520615 10.1622595,9.81520615 C10.1430265,9.85607621 10.0540738,9.85848019 9.9651205,9.82482267 L9.8304892,9.76712354 C9.73913255,9.73106143 9.68143342,9.66855435 9.69826249,9.62527969 C9.69826249,9.62527969 12.2225991,3.39617758 12.3788675,2.91775608 C12.5351364,2.44173795 12.8236321,1.70126577 12.0495017,1.36228353 C11.3643247,1.06176738 10.2199586,0.76365521 9.29436857,0.624215337 C8.9337487,0.571324775 8.57553342,0.717976578 8.58274597,1.81185608 C8.59476646,3.16538105 8.28944174,9.06992541 8.28944174,9.06992541 C8.28944174,9.11560404 8.20048907,9.15166615 8.09470733,9.15166615 L7.93603442,9.15166615 C7.83025268,9.15166615 7.74370398,9.11560404 7.74130001,9.06992541 C7.74130001,9.06992541 7.45280435,1.96331584 7.43116733,1.36228353 C7.40953031,0.76365521 7.21719988,0.518433597 6.41902857,0.684318444 C5.53671255,0.804525273 4.72411615,1.00647223 4.02211007,1.34545447 C3.2575969,1.71569086 3.3922282,1.97533695 3.64466174,2.7302336 C3.89709528,3.48753484 6.39979553,9.62527969 6.39979553,9.62527969 C6.41662398,9.66614975 6.35892485,9.73106143 6.2675682,9.76712354 L6.1329369,9.82241869 C6.04398422,9.85848019 5.95503094,9.85607621 5.93579789,9.81280217 C5.93579789,9.81280217 3.15181516,4.30734317 2.81042833,3.61014565 C2.46904211,2.91294751 2.06033963,2.62445186 1.55787652,3.19903919 C1.12994161,3.72313932 0.774130308,4.31215173 0.531312673,4.96607521 C0.209159502,5.84117869 0.709218633,6.17294838 0.988097763,6.45663608 C1.26938087,6.74272714 5.03905739,10.4378761 5.03905739,10.4378761 C5.07031094,10.4715336 5.13041466,10.6590561 5.04867392,10.7456048 L4.9284677,10.8730235 C4.84432298,10.9595722 4.65199255,10.9090857 4.61593044,10.8778315 L0.84865789,7.81016106 C0.84865789,7.81016106 0.0312537264,7.08892193 0,7.95440888 C0,12.0919178 3.2575969,11.1374776 5.39727268,13.075207 C6.64261255,14.205148 6.88302559,15.3855762 8.0490287,15.3855762 C9.21503181,15.3855762 9.42659529,13.9959891 10.6358731,13.0151039 C13.0400035,11.0581414 15.9994882,12.0294101 15.9994882,7.95440888 C15.9994882,7.70437932 16.0451668,7.14902565 15.2734405,7.79092801 Z" id="Shape" fill="#000000" fill-rule="nonzero"></path>
    </g>
</svg>