<?xml version="1.0" encoding="UTF-8"?>
<svg width="16px" height="16px" viewBox="0 0 16 16" version="1.1" xmlns="http://www.w3.org/2000/svg" xmlns:xlink="http://www.w3.org/1999/xlink">
    <title>Mustard</title>
    <g id="Mustard" stroke="none" stroke-width="1" fill="none" fill-rule="evenodd">
        <path d="M8.5,0 C8.3475,0 8.2173825,0.101125 8.1923825,0.238839286 L7.8188475,2.28571429 L6.625,2.28571429 C6.28,2.28571429 6,2.54171429 6,2.85714286 L6,4 L11,4 L11,2.85714286 C11,2.54171429 10.72,2.28571429 10.375,2.28571429 L9.1811525,2.28571429 L8.8076175,0.238839286 C8.78261688,0.101125 8.6525,0 8.5,0 Z M6.75,5 C5.78341667,5 5,5.77752632 5,6.73684211 L5,7.89473684 L5.58333333,7.89473684 C6.22791667,7.89473684 6.75,8.41289474 6.75,9.05263158 L6.75,12.5263158 C6.75,13.1660526 6.22791667,13.6842105 5.58333333,13.6842105 L5,13.6842105 L5,14.8421053 C5,15.4818421 5.52208333,16 6.16666667,16 L10.8333333,16 C11.4779167,16 12,15.4818421 12,14.8421053 L12,6.73684211 C12,5.77752632 11.2165833,5 10.25,5 L6.75,5 Z" id="Shape" fill="#000000" fill-rule="nonzero"></path>
    </g>
</svg>