<?xml version="1.0" encoding="UTF-8"?>
<svg width="16px" height="16px" viewBox="0 0 16 16" version="1.1" xmlns="http://www.w3.org/2000/svg" xmlns:xlink="http://www.w3.org/1999/xlink">
    <title>NOVA 2</title>
    <g id="NOVA-2" stroke="none" stroke-width="1" fill="none" fill-rule="evenodd">
        <path d="M0.968914496,1.7112069 L0.968914496,3.96665154 L0,3.96665154 L0,0.0222323049 L0.756549675,0.0222323049 L2.71247794,2.33892922 L2.71247794,0.0222323049 L3.68187508,0.0222323049 L3.68187508,3.96665154 L2.90167569,3.96665154 L0.968914496,1.7112069 Z M6.3277477,4 C6.01644017,4 5.73280443,3.94252874 5.47684047,3.82758621 C5.22071563,3.71294616 5.00199595,3.56299153 4.82068144,3.37772232 C4.63952781,3.18882335 4.49770994,2.97406231 4.39522782,2.7334392 C4.29676777,2.49266485 4.24753774,2.24447973 4.24753774,1.98888385 C4.24753774,1.7296582 4.2987788,1.4796582 4.40126092,1.23888385 C4.50744333,0.998109498 4.65320282,0.786978221 4.83853939,0.605490018 C5.02757626,0.420372051 5.25015711,0.274122807 5.50628196,0.166742287 C5.7624068,0.0555807623 6.04210092,8.34887715e-14 6.34536432,8.34887715e-14 C6.65667185,8.34887715e-14 6.94038803,0.0574712644 7.19651287,0.172413793 C7.45263772,0.287053842 7.67127695,0.438823351 7.85243058,0.627722323 C8.03374509,0.816772535 8.17363237,1.0316092 8.27209243,1.2722323 C8.37055248,1.51300665 8.41978251,1.75748639 8.41978251,2.00567151 C8.41978251,2.26489716 8.36661086,2.51489716 8.26026757,2.75567151 C8.15778545,2.99629462 8.01395655,3.20924077 7.82878086,3.39450998 C7.64376606,3.57599819 7.42311579,3.72224743 7.16683006,3.83325771 C6.9108661,3.94441924 6.63117198,4 6.3277477,4 L6.3277477,4 Z M5.23455152,2 C5.23455152,2.15184513 5.25812079,2.3000605 5.30525935,2.4446461 C5.35255878,2.58529946 5.42149691,2.71113128 5.51207372,2.82214156 C5.6066726,2.93330309 5.72291016,3.0222323 5.86078641,3.08892922 C5.99866266,3.15547489 6.15632746,3.18874773 6.33378079,3.18874773 C6.51879559,3.18874773 6.68032156,3.15358439 6.8183587,3.08325771 C6.95623495,3.01293103 7.07046148,2.92218693 7.1610383,2.81102541 C7.25161511,2.69623412 7.31862265,2.56843618 7.3620609,2.42763158 C7.40919946,2.28334846 7.43276874,2.13709921 7.43276874,1.98888385 C7.43276874,1.83703872 7.40919946,1.69071385 7.3620609,1.54990926 C7.31476147,1.40547489 7.24381231,1.27956745 7.14921344,1.17218693 C7.05461456,1.06102541 6.938377,0.974062311 6.80050075,0.911297641 C6.66648567,0.844449486 6.51083191,0.811025408 6.33353946,0.811025408 C6.14852466,0.811025408 5.98699869,0.846264368 5.84896155,0.916742287 C5.71510736,0.983287961 5.60088083,1.07214156 5.50628196,1.18330309 C5.41570514,1.29446461 5.34676702,1.42226255 5.29946758,1.56669691 C5.25602932,1.70735027 5.23431019,1.85178463 5.23431019,2 L5.23455152,2 Z M9.43840968,0.0222323049 L10.4254234,2.82214156 L11.400371,0.0222323049 L12.4228594,0.0222323049 L10.8332604,3.96665154 L10.0175865,3.96665154 L8.41037088,0.0222323049 L9.43840968,0.0222323049 Z M13.5947271,0.0222323049 L14.469284,0.0222323049 L16,3.96665154 L15.0071945,3.96665154 L14.6821315,3.08325771 L13.3760878,3.08325771 L13.0568166,3.96665154 L12.0640111,3.96665154 L13.5947271,0.0222323049 Z M14.5226166,2.45553539 L14.0320056,1.06102541 L13.529811,2.45553539 L14.5226166,2.45553539 Z" id="Shape" fill="#000000" fill-rule="nonzero"></path>
        <path d="M11.6644141,16 L4.42832131,16 L4.42832131,14.4777478 L7.02680075,11.8509778 C7.79619609,11.0627107 8.29889922,10.5175319 8.53491013,10.2154416 C8.77092093,9.90863115 8.94084873,9.62542142 9.04469353,9.36581246 C9.14853833,9.10620361 9.20046073,8.83715438 9.20046073,8.55866476 C9.20046073,8.14329053 9.08481538,7.83411997 8.85352469,7.63115308 C8.62695433,7.42818607 8.32250037,7.32670256 7.94016281,7.32670256 C7.53894437,7.32670256 7.14952643,7.41874574 6.77190897,7.6028321 C6.39429163,7.78691834 6.00015352,8.04888733 5.58949465,8.38873906 L4.4,6.97977075 C4.90978345,6.54551576 5.33224287,6.23870522 5.66737825,6.05933914 C6.00251363,5.87997295 6.36833042,5.74308822 6.76482864,5.64868496 C7.16132697,5.54956165 7.60502743,5.5 8.09593001,5.5 C8.74259968,5.5 9.31374591,5.61800402 9.80936871,5.85401205 C10.3049915,6.0900202 10.6896892,6.42043155 10.9634619,6.84524611 C11.2372344,7.27006066 11.3741207,7.75623734 11.3741207,8.30377613 C11.3741207,8.78051248 11.2891568,9.22892785 11.1192289,9.64902224 C10.9540214,10.0643965 10.6944095,10.4915711 10.3403931,10.9305461 C9.99109705,11.3695212 9.37274864,11.9949426 8.48534784,12.8068104 L7.15424665,14.0600135 L7.15424665,14.1591368 L11.6644141,14.1591368 L11.6644141,16 Z" id="path952" fill="#000000" fill-rule="nonzero"></path>
    </g>
</svg>