<?xml version="1.0" encoding="UTF-8"?>
<svg width="16px" height="16px" viewBox="0 0 16 16" version="1.1" xmlns="http://www.w3.org/2000/svg" xmlns:xlink="http://www.w3.org/1999/xlink">
    <title>NOVA horizontal</title>
    <g id="NOVA-horizontal" stroke="none" stroke-width="1" fill="none" fill-rule="evenodd">
        <path d="M0.968914496,7.7112069 L0.968914496,9.96665154 L0,9.96665154 L0,6.0222323 L0.756549675,6.0222323 L2.71247794,8.33892922 L2.71247794,6.0222323 L3.68187508,6.0222323 L3.68187508,9.96665154 L2.90167569,9.96665154 L0.968914496,7.7112069 Z M6.3277477,10 C6.01644017,10 5.73280443,9.94252874 5.47684047,9.82758621 C5.22071563,9.71294616 5.00199595,9.56299153 4.82068144,9.37772232 C4.63952781,9.18882335 4.49770994,8.97406231 4.39522782,8.7334392 C4.29676777,8.49266485 4.24753774,8.24447973 4.24753774,7.98888385 C4.24753774,7.7296582 4.2987788,7.4796582 4.40126092,7.23888385 C4.50744333,6.9981095 4.65320282,6.78697822 4.83853939,6.60549002 C5.02757626,6.42037205 5.25015711,6.27412281 5.50628196,6.16674229 C5.7624068,6.05558076 6.04210092,6 6.34536432,6 C6.65667185,6 6.94038803,6.05747126 7.19651287,6.17241379 C7.45263772,6.28705384 7.67127695,6.43882335 7.85243058,6.62772232 C8.03374509,6.81677253 8.17363237,7.0316092 8.27209243,7.2722323 C8.37055248,7.51300665 8.41978251,7.75748639 8.41978251,8.00567151 C8.41978251,8.26489716 8.36661086,8.51489716 8.26026757,8.75567151 C8.15778545,8.99629462 8.01395655,9.20924077 7.82878086,9.39450998 C7.64376606,9.57599819 7.42311579,9.72224743 7.16683006,9.83325771 C6.9108661,9.94441924 6.63117198,10 6.3277477,10 L6.3277477,10 Z M5.23455152,8 C5.23455152,8.15184513 5.25812079,8.3000605 5.30525935,8.4446461 C5.35255878,8.58529946 5.42149691,8.71113128 5.51207372,8.82214156 C5.6066726,8.93330309 5.72291016,9.0222323 5.86078641,9.08892922 C5.99866266,9.15547489 6.15632746,9.18874773 6.33378079,9.18874773 C6.51879559,9.18874773 6.68032156,9.15358439 6.8183587,9.08325771 C6.95623495,9.01293103 7.07046148,8.92218693 7.1610383,8.81102541 C7.25161511,8.69623412 7.31862265,8.56843618 7.3620609,8.42763158 C7.40919946,8.28334846 7.43276874,8.13709921 7.43276874,7.98888385 C7.43276874,7.83703872 7.40919946,7.69071385 7.3620609,7.54990926 C7.31476147,7.40547489 7.24381231,7.27956745 7.14921344,7.17218693 C7.05461456,7.06102541 6.938377,6.97406231 6.80050075,6.91129764 C6.66648567,6.84444949 6.51083191,6.81102541 6.33353946,6.81102541 C6.14852466,6.81102541 5.98699869,6.84626437 5.84896155,6.91674229 C5.71510736,6.98328796 5.60088083,7.07214156 5.50628196,7.18330309 C5.41570514,7.29446461 5.34676702,7.42226255 5.29946758,7.56669691 C5.25602932,7.70735027 5.23431019,7.85178463 5.23431019,8 L5.23455152,8 Z M9.43840968,6.0222323 L10.4254234,8.82214156 L11.400371,6.0222323 L12.4228594,6.0222323 L10.8332604,9.96665154 L10.0175865,9.96665154 L8.41037088,6.0222323 L9.43840968,6.0222323 Z M13.5947271,6.0222323 L14.469284,6.0222323 L16,9.96665154 L15.0071945,9.96665154 L14.6821315,9.08325771 L13.3760878,9.08325771 L13.0568166,9.96665154 L12.0640111,9.96665154 L13.5947271,6.0222323 Z M14.5226166,8.45553539 L14.0320056,7.06102541 L13.529811,8.45553539 L14.5226166,8.45553539 Z" id="Shape" fill="#000000" fill-rule="nonzero"></path>
    </g>
</svg>