<?xml version="1.0" encoding="UTF-8"?>
<svg width="16px" height="16px" viewBox="0 0 16 16" version="1.1" xmlns="http://www.w3.org/2000/svg" xmlns:xlink="http://www.w3.org/1999/xlink">
    <title>Nuts</title>
    <g id="Nuts" stroke="none" stroke-width="1" fill="none" fill-rule="evenodd">
        <g id="walnut-icon-raw-walnut-illustration-nutshell-symbol-brown-nut-peel-sign-outline-nut-husk-pictogram-healthy-food-linear-concept-vector" transform="translate(7.9867, 8.0573) rotate(36) translate(-7.9867, -8.0573)translate(-0.2143, 1.419)" fill="#000000" fill-rule="nonzero">
            <path d="M12.980185,1.13934917 C13.0483193,1.19478279 13.1164525,1.25021666 13.2000759,1.32019668 C13.3317543,1.48185958 13.4479425,1.62897616 13.5641318,1.7760927 C13.6248585,1.89158569 13.6855863,2.00707868 13.7576541,2.13813176 C13.7850652,2.17150378 13.8011362,2.1893162 13.8172073,2.20712891 C13.8190158,2.21351527 13.8208255,2.21990166 13.8352256,2.24260018 C13.9967369,2.39545157 14.1456578,2.53199109 14.2945787,2.66853004 C14.431557,2.78283293 14.5685354,2.89713582 14.721315,3.02649955 C14.8086942,3.10294906 14.8802722,3.16433885 14.9518513,3.22572812 C15.3158281,3.59124835 15.3929054,4.07164362 15.4817573,4.54756566 C15.5542163,4.93567632 15.6846172,5.29960794 15.9504435,5.60030543 C16.0106729,5.66843649 16.0893085,5.72661278 16.1702327,5.76865705 C16.2925616,5.83221356 16.3955341,5.90756213 16.4017378,6.05407971 C16.4082134,6.2070774 16.3030109,6.28375774 16.1517506,6.34437978 C16.0462955,6.36184248 15.9643084,6.37863549 15.8823179,6.37865229 C10.848456,6.37967848 5.81459359,6.37958584 0.780731691,6.37804978 C0.604038677,6.3779956 0.427350315,6.36231495 0.250659786,6.3539168 C0.113167254,6.27710912 -0.0228436429,6.19927582 0.0189575734,5.98435085 C0.0804040901,5.90452094 0.131965978,5.84546529 0.183527688,5.78640964 C0.733485245,5.47874061 0.852688307,4.93216483 0.960019829,4.38071921 C1.04058265,3.96680677 1.12332608,3.5552778 1.46370499,3.23161928 C1.54587639,3.14989515 1.61396705,3.08480371 1.68205776,3.01971223 C1.71759454,2.99207642 1.7531319,2.96444113 1.80556518,2.92380936 C1.91862742,2.83497503 2.02035073,2.76510746 2.10968913,2.68193615 C2.25244559,2.5490344 2.38697609,2.40729589 2.52498413,2.26929374 C2.54395251,2.25633951 2.5629206,2.24338527 2.59556254,2.21398611 C2.65191553,2.12686364 2.69459497,2.05618577 2.73727411,1.98550794 C2.77234145,1.92364432 2.80740847,1.86178098 2.85331492,1.78071844 C3.01137631,1.49386404 3.21784699,1.28271499 3.47555253,1.12042981 C4.03021228,0.757894443 4.67187661,0.745277996 5.32467292,0.665241649 C5.42570621,0.646889285 5.49939241,0.630742134 5.57307858,0.614594699 C5.84287911,0.515802897 6.11763501,0.428621624 6.38153038,0.315992953 C7.10883479,0.00558449307 7.86984116,-0.0218287566 8.64339251,0.0103916174 C9.28843775,0.0372592453 9.87624329,0.241506671 10.4602389,0.5 C10.728939,0.618940605 11.0422774,0.639209604 11.3368954,0.696380296 C11.4641277,0.721069982 11.5952124,0.725908673 11.7512233,0.742727678 C11.8183281,0.747796073 11.8587556,0.74990211 11.899184,0.752007899 C11.9362111,0.760341254 11.973237,0.768674929 12.0372363,0.780783925 C12.1626384,0.80393134 12.2610683,0.823303149 12.3594983,0.842675171 C12.3871423,0.856134125 12.4147874,0.869593363 12.4620394,0.892613161 C12.542878,0.928048393 12.6041086,0.953922496 12.6653381,0.979796599 C12.7562803,1.02907033 12.8472214,1.07834407 12.953164,1.13425229 C12.9681644,1.14088682 12.980185,1.13934942 12.980185,1.13934917 M11.0754175,3.73349044 C11.1246298,3.76512972 11.1738421,3.796769 11.2477152,3.83586692 C11.7252924,3.87002563 12.202705,3.90677314 12.6805347,3.93693165 C12.8465745,3.94741142 12.9593634,3.86120705 12.9547482,3.7295379 C12.9496054,3.58280577 12.8617927,3.50934217 12.7139327,3.50302842 C12.2305917,3.48238634 11.7474545,3.45636463 11.2639954,3.43936787 C11.0552169,3.43202846 11.0081187,3.50671221 11.0754175,3.73349044 M5.08389424,3.40634969 C4.62573208,3.43820948 4.16771454,3.47242077 3.7093262,3.5006027 C3.5569876,3.50996797 3.45936388,3.57404625 3.45413575,3.73100134 C3.44974819,3.86270625 3.56097343,3.94767095 3.72703025,3.93727892 C4.19123165,3.90822955 4.65518031,3.87454979 5.1187627,3.8369527 C5.17771177,3.83217228 5.23388786,3.79320116 5.31087959,3.76341272 C5.32708884,3.72678984 5.34329805,3.69016639 5.36672738,3.62991928 C5.34528212,3.58897649 5.32383746,3.54803426 5.29974385,3.47994603 C5.23806628,3.45625679 5.17638868,3.43256755 5.08389424,3.40634969 M10.2105746,4.76805667 C8.69595855,4.76787679 7.18134256,4.7675842 5.66672656,4.76765412 C5.47192339,4.76766278 5.36861665,4.84523982 5.36713387,4.98995748 C5.36578841,5.12384807 5.46404822,5.21134576 5.63030038,5.21145356 C7.34607658,5.2125616 9.06185437,5.21249549 10.7776311,5.21142594 C10.9440545,5.2113219 11.0429341,5.12451449 11.0420622,4.99100047 C11.0411635,4.85521682 10.9441423,4.77051652 10.7785099,4.76806101 C10.6010619,4.76542941 10.4235391,4.76784536 10.2105746,4.76805667 M7.10290744,3.48705083 C7.95711425,3.36946455 8.80777219,3.35099302 9.65131895,3.57038143 C9.83885975,3.61915613 9.94695444,3.57019774 9.98408006,3.43532215 C10.0233404,3.29269156 9.94905121,3.20549619 9.75443552,3.14651152 C9.29746639,3.00801119 8.8290435,2.97079447 8.35454913,2.96988421 C7.77483056,2.96877188 7.19694767,2.97357833 6.63572853,3.14999432 C6.4580719,3.20584027 6.38077403,3.29724171 6.41730425,3.43167789 C6.45454474,3.56872454 6.56509923,3.61682795 6.74705507,3.57418931 C6.85608546,3.54863894 6.96483733,3.52189875 7.10290744,3.48705083 M12.3991086,2.06614704 C12.1962217,1.99157004 11.9988612,1.88242197 11.7894054,1.84893157 C11.1738876,1.75051388 10.543146,1.73778611 9.9577862,1.48438501 C9.84528883,1.43568477 9.74641786,1.4806649 9.69206928,1.59138017 C9.63251934,1.71268734 9.67477158,1.81306263 9.78669355,1.87609384 C9.86805768,1.92191566 9.95626917,1.9662085 10.0467194,1.98350672 C10.5550593,2.0807227 11.0670347,2.15977401 11.5735932,2.26510933 C11.8518129,2.32296324 12.164447,2.33073286 12.3071815,2.6658085 C12.349399,2.76491511 12.4751154,2.79239597 12.585672,2.72779537 C12.693175,2.66498009 12.7334247,2.56229152 12.6761591,2.45665552 C12.6044131,2.32430695 12.5060926,2.20636523 12.3991086,2.06614704 M5.78877653,1.68885131 C5.39065677,1.7410145 4.99123614,1.78496627 4.59480091,1.84776206 C4.23340531,1.90500753 3.90940952,2.03302809 3.75140122,2.40600395 C3.68444428,2.56405512 3.71118106,2.67632945 3.84136708,2.734263 C3.98614879,2.79869239 4.08530042,2.72937098 4.1408052,2.60325978 C4.19915611,2.47068228 4.2947551,2.39896956 4.43041959,2.37262543 C4.73607576,2.31327179 5.04366783,2.26290657 5.34757883,2.19578629 C5.75468932,2.10587375 6.16214384,2.01449964 6.56315468,1.90142367 C6.73256827,1.85365269 6.78006732,1.7250968 6.71952373,1.60315567 C6.64668766,1.45645607 6.53168872,1.45284892 6.39084621,1.50261327 C6.20244449,1.569182 6.00901423,1.62151968 5.78877653,1.68885131 M13.5674021,4.76786216 C13.4064142,4.77081884 13.297821,4.86075361 13.2955617,4.98696885 C13.2932471,5.11617162 13.3982751,5.21060726 13.5588568,5.2119439 C13.8775396,5.21459556 14.196269,5.21146766 14.5149767,5.21181983 C14.6636733,5.21198456 14.7708426,5.16111032 14.7785752,4.99468429 C14.7850574,4.85514637 14.6948423,4.77267674 14.523391,4.76714858 C14.3642311,4.76201542 14.2047374,4.76725965 14.0100491,4.76793367 C13.8624958,4.76770177 13.7149013,4.76515308 13.5674021,4.76786216 Z M1.6302123,5.01522773 C1.65046042,5.16086268 1.74839246,5.21096433 1.88010581,5.21177594 C2.20524779,5.21377851 2.53040844,5.21323236 2.85556043,5.21280594 C2.99989379,5.21261685 3.09544918,5.14599365 3.11064007,4.99802513 C3.12371305,4.87068615 3.01008517,4.77029977 2.85218552,4.76838935 C2.53299203,4.76452728 2.21369588,4.76294084 1.89451921,4.76680128 C1.75317199,4.76851072 1.63673296,4.81546494 1.6302123,5.01522773 Z" id="Shape"></path>
            <path d="M16.1581699,6.92064867 C16.4165356,7.06503149 16.4554254,7.13743638 16.3358877,7.36661754 C16.2967476,7.44165892 16.1795647,7.47599371 16.0788115,7.54281466 C16.0088188,7.61658168 15.9580873,7.67648037 15.9073569,7.7363791 C15.6149788,8.06844008 15.5277567,8.48164437 15.4464912,8.89770183 C15.3754593,9.26137556 15.315594,9.63207334 15.0533642,9.91969795 C14.919201,10.0668549 14.7667595,10.1973456 14.6045427,10.3486452 C14.3679371,10.5533146 14.1493681,10.7447064 13.930798,10.9360982 C13.8225896,11.0887426 13.6924412,11.2304619 13.6100282,11.3959527 C13.2789131,12.0608495 12.7056138,12.3643514 12.0130349,12.4933056 C11.7985761,12.5332362 11.5791781,12.5469387 11.3618933,12.5713301 C10.9433685,12.618312 10.5396503,12.7049894 10.1558966,12.8962197 C9.40197323,13.271913 8.58906019,13.3024941 7.76708492,13.2641542 C7.1367015,13.2347499 6.5636775,13.0225058 5.98202418,12.7929725 C5.57908778,12.633965 5.12418566,12.5877742 4.68716585,12.5387259 C4.12472495,12.4756023 3.61957247,12.3030126 3.17146569,11.9202496 C3.1222938,11.8730186 3.08870803,11.8391096 3.05512254,11.8052006 C3.05512254,11.8052006 3.05102323,11.7910896 3.04218232,11.7762569 C2.97059562,11.6744683 2.90784988,11.5875114 2.84510409,11.5005555 C2.73033276,11.3161575 2.61556139,11.1317606 2.48715471,10.9306606 C2.31233278,10.7787757 2.15114546,10.6435929 1.9899581,10.5084112 C1.97474364,10.4936121 1.9595289,10.478813 1.92964638,10.4499234 C1.86330926,10.3980815 1.81163993,10.3603321 1.75997056,10.3225828 C1.47258343,10.0597278 1.1755112,9.80269412 1.07835181,9.40074548 C0.999552451,9.07475282 0.9339022,8.74550603 0.850990962,8.42061867 C0.816376456,8.28498182 0.761946603,8.15201288 0.699243109,8.02646246 C0.588895447,7.80551576 0.443269319,7.61919648 0.202845003,7.51405731 C0.0911295087,7.46520293 -0.0175537956,7.38588772 0.00237886956,7.21932519 C0.0205097974,7.06781964 0.105913435,6.9903954 0.256884803,6.92998087 C0.37438246,6.91258212 0.468191613,6.89516278 0.562005204,6.89514002 C5.58411572,6.89391498 10.6062264,6.89388732 15.6283365,6.89535729 C15.8049502,6.89540928 15.9815584,6.91184742 16.1581699,6.92064867 M7.68955028,8.50549723 C8.68941138,8.50552432 9.68927137,8.50564675 10.6891325,8.5053401 C10.7479423,8.50532167 10.8241593,8.52432853 10.8618289,8.49515939 C10.9335185,8.43964722 11.0288807,8.35582845 11.0291032,8.28350051 C11.0293239,8.21157133 10.9313567,8.13191155 10.8628735,8.07086959 C10.8355968,8.04655509 10.7719031,8.06130332 10.7247887,8.06129465 C9.04454907,8.06095438 7.36430941,8.06092512 5.68406975,8.06119168 C5.63693696,8.06119928 5.57314363,8.04624301 5.54594766,8.07053798 C5.47753217,8.13165255 5.379728,8.21142504 5.37998269,8.28341274 C5.38024002,8.35596392 5.47656721,8.43759047 5.54669045,8.4962452 C5.57863481,8.52296643 5.64881337,8.50547014 5.70165084,8.5054929 C6.35244785,8.50576706 7.00324489,8.50557091 7.68955028,8.50549723 M8.03048563,10.3020318 C8.61582325,10.3096735 9.19908738,10.3002915 9.76596839,10.1240174 C9.94395932,10.068671 10.0263334,9.97645089 9.99457268,9.84822498 C9.95997728,9.70856027 9.85063538,9.65279454 9.66886805,9.69752458 C8.69386935,9.93745647 7.71958261,9.93439846 6.74442028,9.6993169 C6.56181426,9.65529553 6.44730622,9.70938275 6.42335837,9.85183129 C6.39621442,10.0132986 6.48997127,10.0810786 6.63377695,10.1232946 C7.07976419,10.2542188 7.53464951,10.306505 8.03048563,10.3020318 M5.4098676,11.0795827 C5.20432204,11.0561145 4.99229864,11.0566021 4.79484602,11.0032063 C4.53943478,10.9341379 4.23538778,10.9388636 4.10817061,10.6153525 C4.06907548,10.5159316 3.94714147,10.4789137 3.83260066,10.5407034 C3.7233988,10.5996116 3.682999,10.6934768 3.72806726,10.8086232 C3.80258892,10.9990159 3.89900034,11.1870592 4.10417371,11.2558502 C4.35884535,11.3412359 4.62040555,11.4181975 4.88512502,11.4589159 C5.40380208,11.5386982 5.93170989,11.564183 6.42201145,11.7810238 C6.54522792,11.8355174 6.65929766,11.8049991 6.71938287,11.6750318 C6.7803664,11.5431194 6.72437616,11.4462386 6.60179304,11.3845518 C6.53876039,11.3528319 6.47460242,11.3180246 6.40683978,11.3019381 C6.08574431,11.2257145 5.7632309,11.155465 5.4098676,11.0795827 M10.1732214,11.7096657 C10.2921294,11.6755032 10.4090154,11.6281767 10.5303096,11.6095546 C10.9564835,11.5441228 11.3854629,11.4964312 11.8108902,11.4268145 C12.164072,11.3690191 12.4873494,11.2512654 12.6482647,10.8859066 C12.7231304,10.7159252 12.7030619,10.5996355 12.5702143,10.540569 C12.4170814,10.4724791 12.329207,10.5520717 12.2574675,10.6806704 C12.2214515,10.7452352 12.1752419,10.8261921 12.114098,10.8504308 C11.9454207,10.9173005 11.7693218,10.9747231 11.590918,11.0057756 C11.2595493,11.0634518 10.9209475,11.0826591 10.5920181,11.1502874 C10.3225995,11.2056793 10.0598191,11.2997286 9.80020512,11.3935471 C9.6833928,11.435761 9.63247819,11.5408784 9.6901231,11.6685192 C9.74939778,11.7997673 9.8525631,11.8303051 9.98272447,11.7831304 C10.0380808,11.763068 10.0916524,11.7380839 10.1732214,11.7096657 M4.4518063,9.37650903 C4.20451782,9.36253346 3.95726457,9.34788061 3.70992706,9.33483479 C3.56174334,9.32701858 3.46360462,9.4019158 3.45666948,9.54490616 C3.45018788,9.67855022 3.5354213,9.76019091 3.6765304,9.77000968 C4.15298338,9.80316116 4.62932639,9.83793373 5.10586608,9.86978379 C5.24834164,9.87930671 5.35651594,9.82233274 5.36538966,9.66966879 C5.37399246,9.52164714 5.28537572,9.44626335 5.13713643,9.43504995 C4.91961696,9.41859398 4.70246538,9.39726921 4.4518063,9.37650903 M11.6922899,9.40173269 C11.5631309,9.4124151 11.433817,9.42151977 11.3048497,9.43415922 C11.1244673,9.45183863 11.0297249,9.53965923 11.0412643,9.67465783 C11.0527809,9.80939959 11.1564143,9.87875409 11.3441448,9.86652639 C11.796813,9.83704517 12.2493122,9.80484078 12.7017236,9.77160692 C12.8623584,9.75980731 12.9656743,9.66303373 12.9572276,9.54026174 C12.9485131,9.41359735 12.8381526,9.32724072 12.6775331,9.33611565 C12.3599122,9.35366613 12.0426673,9.37804778 11.6922899,9.40173269 M14.5538307,8.50703815 C14.7034917,8.48626713 14.7994456,8.41276667 14.7760536,8.2494821 C14.7538884,8.09475821 14.6377576,8.06061847 14.501527,8.06093055 C14.1944713,8.06163489 13.8874059,8.05916855 13.5803589,8.06086987 C13.4064022,8.06183427 13.2957654,8.15206053 13.2962428,8.28539144 C13.2967212,8.41822818 13.4067089,8.50480045 13.5835642,8.50583857 C13.8965114,8.50767531 14.2094739,8.50680514 14.5538307,8.50703815 M3.07247851,8.16319919 C2.99486152,8.12889039 2.9181786,8.06772057 2.83946364,8.06498223 C2.52046331,8.0538891 2.200825,8.0591328 1.88145003,8.0617552 C1.74146165,8.06290492 1.63853743,8.1182372 1.63014459,8.2753191 C1.62259968,8.41652797 1.71362584,8.50436483 1.88190758,8.50628175 C2.20712785,8.5099878 2.53254097,8.51076692 2.85766885,8.50353585 C3.06334554,8.49896077 3.13181522,8.39597259 3.07247851,8.16319919 Z" id="Shape"></path>
        </g>
    </g>
</svg>