<?xml version="1.0" encoding="UTF-8"?>
<svg width="16px" height="16px" viewBox="0 0 16 16" version="1.1" xmlns="http://www.w3.org/2000/svg" xmlns:xlink="http://www.w3.org/1999/xlink">
    <title>Organic Farming</title>
    <g id="Organic-Farming" stroke="none" stroke-width="1" fill="none" fill-rule="evenodd">
        <path d="M8.30633084,1.00504731 C7.44573767,1.05260126 6.53960912,1.43992745 5.61741034,2.33459462 C5.15476706,2.78349301 4.91049852,3.25820297 4.79146212,3.70888076 C3.34270849,4.25478996 2.50060282,4.97762911 2.50060282,4.97762911 C2.25636792,5.19145348 2.23171532,5.56278387 2.44553969,5.80701877 C2.65936405,6.05125366 3.03069445,6.07590626 3.27492934,5.8620819 C3.27492934,5.8620819 4.05324585,5.1735666 5.53137428,4.68854721 C5.54974983,4.68251869 5.5701987,4.67730909 5.58873165,4.67133994 C6.54057941,4.47821383 8.05722543,4.15935756 9.08983492,4.15741657 C9.41404656,4.15682923 9.67773565,4.41881086 9.678323,4.74361043 C9.67891034,5.06841 9.41692865,5.33151122 9.09212908,5.33209857 C7.71540178,5.33503527 6.47395556,5.61358174 5.33980003,6.15804655 C5.47488852,6.3277881 5.62606422,6.49708033 5.79521843,6.66623454 C7.04096927,7.91198479 10.4965624,7.64412029 12.4406611,5.83569736 L13.686466,4.58989225 L12.0861914,2.82901646 C11.0480662,1.79089118 9.74065338,0.925790697 8.30633084,1.00504731 Z" id="Path" fill="#000000" fill-rule="nonzero"></path>
        <path d="M4.48434729,8.50113059 C3.98077848,8.51222764 3.47776539,8.60470996 2.99895434,8.77905795 L0.20281038,9.88388096 C0.063397534,9.9386852 -0.0189982621,10.0825966 0.00375647825,10.2306642 L0.644735095,14.3970684 C0.660759528,14.5012285 0.72732115,14.5909815 0.822506472,14.6368119 C0.917691827,14.6832834 1.02880143,14.6787311 1.1204614,14.6261706 L2.16267758,14.0315065 C2.8417944,13.6430694 3.64976783,13.583578 4.3785605,13.8662525 L7.97029435,15.2634 C8.23021117,15.3643552 8.50502562,15.4142568 8.77840299,15.4142568 C9.18766783,15.4142568 9.59424857,15.3026001 9.94518435,15.0856266 L15.4047696,11.903861 C15.9874191,11.5429864 16.1745147,10.7715154 15.8216563,10.183091 C15.6482716,9.89432709 15.3729963,9.6898778 15.0460972,9.60783169 C14.7195186,9.52642656 14.3799349,9.57657885 14.1190569,9.7349022 L10.9604845,11.2278219 C10.9489469,11.3220467 10.9301832,11.4144839 10.9010187,11.5026193 L10.8653393,11.6096588 C10.6768916,12.1753282 10.14205,12.5417164 9.56773321,12.5417164 C9.45908733,12.5417164 9.34900407,12.5292172 9.24035819,12.5016548 L6.33279433,11.7742868 C6.16101206,11.7313408 6.05636718,11.557654 6.09931275,11.3861901 C6.14225831,11.2140859 6.31562315,11.108799 6.48740542,11.1527065 L9.3955952,11.8800744 C9.75967104,11.9707738 10.1386346,11.7629292 10.2575361,11.4062209 L10.2932159,11.2991815 C10.3643645,11.0854129 10.3393263,10.8176112 10.2281162,10.5993557 C10.2008746,10.5458335 10.16821,10.4989566 10.1335971,10.4560106 C10.0005941,10.3425562 9.84823634,10.2565841 9.6847868,10.2056257 L5.9734957,8.71270604 C5.49212077,8.56063229 4.98791578,8.49003353 4.48434729,8.50113059 Z" id="Path" fill="#000000" fill-rule="nonzero"></path>
    </g>
</svg>