<?xml version="1.0" encoding="UTF-8"?>
<svg width="16px" height="16px" viewBox="0 0 16 16" version="1.1" xmlns="http://www.w3.org/2000/svg" xmlns:xlink="http://www.w3.org/1999/xlink">
    <title>Palm oil</title>
    <g id="Palm-oil" stroke="none" stroke-width="1" fill="none" fill-rule="evenodd">
        <path d="M11.625,4.25 L11.1875,4.25 L11.75,3.9375 C11.875,3.875 11.9375,3.75 11.9375,3.6875 L11.9375,3.4375 L12.3125,3.5625 C12.375,3.625 12.5,3.625 12.5625,3.5625 L14.6875,2.375 C14.8125,2.3125 14.875,2.125 14.875,2 C14.8125,1.8125 14.4375,1.125 12.375,1.125 C11,1.125 9,2.5 8,4.0625 C7,2.5 5,1.125 3.625,1.125 C1.5625,1.125 1.1875,1.8125 1.125,1.9375 C1.0625,2.125 1.125,2.25 1.25,2.3125 L3.4375,3.5 C3.5,3.5625 3.625,3.5625 3.6875,3.5 L4.0625,3.375 L4.0625,3.625 C4.0625,3.75 4.125,3.875 4.25,3.9375 L4.8125,4.25 L4.375,4.25 C2.125,4.25 0.5,5.4375 0.5,7.0625 C0.5,7.125 0.5625,7.25 0.625,7.3125 C0.6875,7.375 0.75,7.375 0.875,7.375 L3,7 C3.125,7 3.1875,6.9375 3.25,6.8125 L3.4375,6.4375 L3.5625,6.6875 C3.625,6.8125 3.75,6.875 3.875,6.875 L6.3125,6.5 C5.3125,9.4375 6.125,14.4375 6.125,14.625 C6.125,14.75 6.25,14.875 6.4375,14.875 L9.5625,14.875 C9.75,14.875 9.875,14.75 9.875,14.5625 C9.875,14.5 9.875,14.4375 9.8125,14.4375 C9.8125,14.375 7.25,9.875 8.5,6.3125 L12.125,6.9375 C12.25,6.9375 12.375,6.875 12.4375,6.75 L12.5625,6.5 L12.75,6.875 C12.8125,6.9375 12.875,7 13,7.0625 L15.125,7.4375 L15.1875,7.4375 C15.375,7.4375 15.5,7.3125 15.5,7.125 C15.5,5.4375 13.875,4.25 11.625,4.25 Z" id="Path" fill="#000000" fill-rule="nonzero"></path>
        <path d="M13.1446868,8.63475738 C14.5792587,10.6390251 14.7989061,12.1079063 14.483163,13.0208091 C14.2086038,13.8032972 13.5633896,14.2014051 12.9113114,14.2014051 L12.9113114,14.2014051 C12.2592333,14.2014051 11.6071551,13.8101611 11.3394599,13.0208091 C11.0237168,12.1010424 11.2433641,10.6252973 12.691664,8.61416559 L12.6848001,8.61416559 C12.7740318,8.49061483 12.9456313,8.46315911 13.069183,8.55239021 C13.1035029,8.57984593 13.1309588,8.60730165 13.1446868,8.63475738 Z" id="Path" fill="#000000"></path>
    </g>
</svg>