<?xml version="1.0" encoding="UTF-8"?>
<svg width="16px" height="16px" viewBox="0 0 16 16" version="1.1" xmlns="http://www.w3.org/2000/svg" xmlns:xlink="http://www.w3.org/1999/xlink">
    <title>Peanuts</title>
    <g id="Peanuts" stroke="none" stroke-width="1" fill="none" fill-rule="evenodd">
        <g id="peanuts" transform="translate(0, 1.8)" fill="#000000" fill-rule="nonzero">
            <path d="M15.8563501,8.32468958 C15.8403494,8.28935473 14.2472768,4.8092058 10.1574238,5.72391162 C9.77773982,6.24293383 9.42205694,6.53894649 9.3420533,6.60228254 C9.26818169,6.66035392 9.18662603,6.70791857 9.09970893,6.74362192 C9.08770838,6.74862213 8.23266942,7.11597119 7.66897708,7.88967096 C7.69631165,7.87433697 7.72364623,7.85833629 7.75631439,7.85133599 L8.18600063,7.75766531 C8.27233979,7.73829227 8.36284163,7.75433013 8.43726598,7.80219213 C8.51169034,7.85005412 8.56382798,7.92574712 8.58201867,8.01234288 C8.60093963,8.09863774 8.5847596,8.18891472 8.53704641,8.26326704 C8.48933323,8.33761936 8.41400556,8.38994048 8.32767375,8.40869317 L7.89798751,8.50236385 C7.71812038,8.54156774 7.54052512,8.42754892 7.50130277,8.24768628 C7.49430245,8.21468487 7.49730259,8.18301685 7.49996938,8.15134883 C7.40279912,8.31951359 7.32635032,8.49882639 7.27229234,8.68537168 C6.81060464,10.3064411 5.65321857,11.4718243 4.50816641,12.1671873 C4.62817187,12.174521 4.75117748,12.1805213 4.87985001,12.1805213 C5.63721784,12.1805213 6.52792509,12.0315149 7.40029817,11.5374937 C8.89869977,10.6891241 10.6271118,11.3931542 10.6441126,11.4004879 C10.6735713,11.4129051 10.7046735,11.4209894 10.7364502,11.4244889 C10.8147871,11.4334893 12.6838722,11.6194972 14.2559438,10.1367671 C14.259944,10.1334336 14.6636291,9.82475377 15.1406508,9.76941807 C15.6016718,9.7164158 15.8106813,9.4944063 15.9043523,9.31739873 C16.1356961,8.88271346 15.877351,8.3633579 15.8563501,8.32468958 L15.8563501,8.32468958 Z M8.11333065,9.99109422 L7.68331106,10.0847649 C7.50351446,10.1235781 7.32617458,10.0097232 7.28662632,9.83008733 C7.24764362,9.65041154 7.36164711,9.47313958 7.54130459,9.43407039 L7.97132418,9.34039971 C8.05769678,9.32111472 8.14819487,9.33718322 8.22264881,9.38502397 C8.29710274,9.43286472 8.34932463,9.50850165 8.36767557,9.59507728 C8.38668255,9.68133866 8.37053235,9.77161815 8.32279842,9.84594025 C8.27506448,9.92026234 8.19968212,9.97249973 8.11333065,9.99109422 L8.11333065,9.99109422 Z M9.98741604,7.43998505 L10.4171023,7.34631438 C10.5033865,7.32702722 10.5938008,7.34305964 10.6681928,7.3908382 C10.7425848,7.43861675 10.7947712,7.51417023 10.8131203,7.6006586 C10.8320324,7.68700063 10.8158072,7.77731942 10.7680259,7.8516805 C10.7202446,7.92604157 10.6448354,7.97833137 10.5584421,7.99700889 L10.1290892,8.09067957 C9.95362511,8.12021068 9.78589933,8.0067302 9.74804588,7.83287201 C9.71019243,7.65901381 9.81555722,7.48607474 9.98741604,7.43998505 L9.98741604,7.43998505 Z M10.6151113,9.68008092 L10.609111,9.68008092 L10.170091,9.67241392 C10.081707,9.67092426 9.99754157,9.63435555 9.93613955,9.57076524 C9.87473753,9.50717493 9.84113749,9.42178118 9.84274278,9.33339941 C9.84640961,9.14939154 10.0114171,9.01038559 10.1820916,9.00605207 L10.6211116,9.01371907 C10.8011414,9.02080143 10.942965,9.16964924 10.9413428,9.34981052 C10.9397205,9.5299718 10.7952395,9.67624158 10.6151113,9.68008092 L10.6151113,9.68008092 Z M12.8332124,8.60770169 L12.8272121,8.60770169 L12.3878587,8.6000347 C12.2994446,8.59845757 12.2152798,8.56181538 12.1538871,8.49817216 C12.0924943,8.43452893 12.0589047,8.34910025 12.0605105,8.26068684 C12.063844,8.07667897 12.2098506,7.94167319 12.3998593,7.9333395 L12.8392126,7.94100649 C13.0233159,7.94266342 13.1712179,8.09325143 13.169561,8.27735422 C13.1679041,8.46145702 13.0173157,8.60935862 12.8332124,8.60770169 Z" id="Shape"></path>
            <path d="M11.1321349,0.951707394 C10.9911284,0.481020585 10.4427701,0.292012496 10.4004349,0.278678592 C10.3714335,0.267344774 9.68173544,0 8.72035831,0 C7.50096942,0 5.77522413,0.43035175 4.47983178,2.47977279 C4.47151586,2.49335193 4.4641641,2.50749846 4.45783078,2.52210793 C4.45016376,2.53877531 3.6974628,4.198513 2.16639305,5.06388337 C0.373644709,6.07559333 -0.37905625,9.45773807 0.182969355,10.9238008 C0.537652181,11.8491737 1.14334644,12.3188605 1.98238467,12.3188605 L1.98271802,12.3188605 C2.32306686,12.3188605 2.70475091,12.2425239 3.14943784,12.0851838 C4.41282873,11.6384981 6.08323817,10.4317797 6.63192983,8.5026972 C7.10328464,6.84629298 8.82902993,6.13426251 8.8466974,6.12726221 C8.87603207,6.1152617 8.90436669,6.09892766 8.92903448,6.07926016 C8.99137066,6.03025806 10.4534373,4.85287434 10.5324409,2.6934486 C10.5337743,2.68844838 10.6034441,2.18609355 10.9057912,1.80974411 C11.1968045,1.44872866 11.1891375,1.14404896 11.1321349,0.951707394 Z M2.87409196,9.88175621 L2.66774923,10.2601057 C2.61076277,10.3646104 2.50235238,10.4307749 2.38335522,10.4336756 C2.26435805,10.4365763 2.15285259,10.3757727 2.09084188,10.2741688 C2.02883118,10.1725649 2.02573611,10.0455967 2.08272257,9.94109208 L2.28906531,9.56307591 C2.38076778,9.409276 2.57759637,9.35539979 2.73484371,9.44105679 C2.89209104,9.52671379 2.95357459,9.72129981 2.87409196,9.88175621 L2.87409196,9.88175621 Z M3.08043469,7.6896624 L2.87409196,8.06701189 C2.78566982,8.2285667 2.58316395,8.28806568 2.42140467,8.20001758 C2.26013755,8.11149434 2.20093995,7.90914946 2.28906531,7.74766489 L2.49507469,7.3703154 C2.58714569,7.21683512 2.78390869,7.16332801 2.94102652,7.24904467 C3.09814434,7.33476133 3.15965406,7.52917083 3.08043469,7.6896624 L3.08043469,7.6896624 Z M4.42416258,8.65637044 L4.21815319,9.03438662 C4.17588034,9.11208697 4.10443118,9.16977675 4.01956805,9.19472907 C3.93470492,9.21968139 3.84340117,9.20984587 3.76579925,9.16739231 C3.68821077,9.12518486 3.63059151,9.05385571 3.60564185,8.96912716 C3.5806922,8.88439862 3.59046034,8.7932263 3.63279319,8.71570631 L3.83913593,8.33735679 C3.89391438,8.22874048 4.00351034,8.15858808 4.12508354,8.15432163 C4.24665674,8.15005519 4.36090086,8.21235223 4.4231587,8.31686131 C4.48541654,8.42137039 4.4858013,8.55149502 4.42416258,8.65637044 L4.42416258,8.65637044 Z M4.41649556,5.98592283 L4.11248171,6.29060253 C4.05014452,6.35342417 3.96530575,6.38875802 3.87680431,6.38875802 C3.78830287,6.38875802 3.7034641,6.35342417 3.64112691,6.29060253 C3.57855193,6.22813405 3.54338873,6.14334477 3.54338873,6.05492578 C3.54338873,5.9665068 3.57855193,5.88171751 3.64112691,5.81924903 L3.9454741,5.51490267 C4.0078858,5.45234808 4.09262014,5.41719323 4.18098483,5.41719323 C4.26934952,5.41719323 4.35408387,5.45234808 4.41649556,5.51490267 C4.47905033,5.5773142 4.51420528,5.6620483 4.51420528,5.75041275 C4.51420528,5.8387772 4.47905033,5.9235113 4.41649556,5.98592283 L4.41649556,5.98592283 Z M5.56788135,7.03463437 L5.36187197,7.4123172 C5.27344983,7.57387202 5.07094396,7.633371 4.90918468,7.54532289 C4.74763973,7.45704101 4.68824171,7.25452119 4.77651197,7.0929702 L4.9828547,6.71528737 C5.03829963,6.60778025 5.14763258,6.53874481 5.26853429,6.53490244 C5.389436,6.53106007 5.50293192,6.5930138 5.56509147,6.69678334 C5.62725101,6.80055289 5.62831873,6.92985246 5.56788135,7.03463437 Z M5.77922431,4.42452349 C5.64426097,4.4248208 5.52246328,4.34363009 5.47081882,4.21893865 C5.41917436,4.09424721 5.44789665,3.95071476 5.54354691,3.85549833 L5.84756076,3.55148532 C5.97835968,3.42515584 6.18627112,3.42696253 6.31485491,3.55554596 C6.4434387,3.6841294 6.44524539,3.89204026 6.31891557,4.02283882 L6.01490172,4.32685183 C5.95246377,4.38946437 5.86764853,4.42461402 5.77922431,4.42452349 Z M7.12795243,5.34156192 L6.8076045,5.62890755 C6.74655898,5.68403047 6.66717771,5.71445196 6.58492769,5.71424559 C6.44689066,5.71428847 6.32313579,5.62916876 6.27380154,5.50024916 C6.22446728,5.37132956 6.25978186,5.22533834 6.36258423,5.13321967 L6.6825988,4.84554069 C6.81995814,4.72600413 7.02782353,4.73880787 7.14947405,4.87429848 C7.27112456,5.0097891 7.26154256,5.21782733 7.12795243,5.34156192 L7.12795243,5.34156192 Z M7.30096031,2.85179092 C7.1659848,2.85227953 7.04409021,2.77116804 6.99241504,2.64647554 C6.94073987,2.52178305 6.96952721,2.37822617 7.06528291,2.2830977 L7.3696301,1.97908469 C7.45382953,1.89494504 7.5765211,1.86211653 7.69148809,1.89296535 C7.80645508,1.92381417 7.89623127,2.01365364 7.92699883,2.12864211 C7.95776639,2.24363057 7.924851,2.36629855 7.84065156,2.4504382 L7.53630437,2.75411786 C7.4739898,2.81671096 7.38928368,2.8518651 7.30096031,2.85179092 L7.30096031,2.85179092 Z M8.58135198,3.7474937 L8.26100405,4.03517268 C8.19534016,4.09447279 8.10874119,4.1251423 8.02039157,4.12038695 C7.93204195,4.1156316 7.8492353,4.07584396 7.79031594,4.00983826 C7.73120392,3.94415175 7.70065449,3.85764611 7.70540734,3.76940587 C7.71016019,3.68116562 7.74982477,3.59844188 7.81565043,3.5394848 L8.1363317,3.25180582 C8.22487806,3.17231082 8.34910846,3.1460932 8.46222652,3.18302888 C8.57534458,3.21996457 8.66016496,3.31444215 8.68473666,3.43087283 C8.70930836,3.54730351 8.66989834,3.66799871 8.58135198,3.7474937 Z" id="Shape"></path>
        </g>
    </g>
</svg>