<?xml version="1.0" encoding="UTF-8"?>
<svg width="16px" height="16px" viewBox="0 0 16 16" version="1.1" xmlns="http://www.w3.org/2000/svg" xmlns:xlink="http://www.w3.org/1999/xlink">
    <title>Salt</title>
    <g id="Salt" stroke="none" stroke-width="1" fill="none" fill-rule="evenodd">
        <path d="M12.3167738,7.23207333 L12.309094,7.22023345 C12.3046141,7.21479351 12.3020541,7.20871357 12.2975742,7.20327363 L6.86730489,0.466062539 C6.64446053,0.189834551 6.31483913,0.0211833018 5.96044671,0.00206728496 C5.60603301,-0.0184345651 5.25989143,0.114313149 5.01006957,0.366543557 L0.415620106,4.96041657 C0.402500422,4.97385643 0.393220645,4.99017626 0.380420953,5.00393612 L0.375621068,5.01033606 C0.152022666,5.25576549 0.0353773022,5.58014312 0.0514688667,5.91176684 C0.0707228163,6.26587483 0.239226136,6.59521092 0.515137712,6.81799757 L7.25289561,12.248342 C7.48329007,12.4345801 7.76104339,12.5264192 8.03751674,12.5264192 C8.25479151,12.5264192 8.46950634,12.4649798 8.6624617,12.352661 L9.44164296,13.132493 C9.82307378,13.5132891 10.2672231,13.6723275 10.7209722,13.6723275 C11.059844,13.6723275 11.4031958,13.5811284 11.7299079,13.4307299 L11.7308679,13.4307299 C11.7311879,13.4304099 11.7315079,13.4297699 11.7321479,13.4297699 C12.1133421,13.2508307 12.4603175,13.0066233 12.7574032,12.7081773 C13.6578615,11.8077065 14.1749691,10.3859611 13.181393,9.39269123 L12.4022117,8.61317921 C12.6561886,8.1781345 12.6224458,7.63280806 12.3167738,7.23239333 L12.3167738,7.23207333 Z M1.29367898,4.98793629 L5.46253869,0.819018929 C5.5844997,0.695869547 5.75349817,0.631066479 5.92652752,0.641100749 C6.10156331,0.65070065 6.25867953,0.730699832 6.36907688,0.867658431 L11.2495995,6.92295649 L1.29367898,4.98761629 L1.29367898,4.98793629 Z M12.9833178,11.2054727 L12.6447659,11.076514 C12.5379318,11.0357576 12.4174699,11.0550932 12.3287573,11.1272373 C12.2400446,11.1993814 12.1965586,11.3133737 12.21468,11.4262743 C12.2328014,11.5391748 12.3097772,11.6338315 12.4166114,11.6745879 L12.6950047,11.7805068 C12.4590573,12.1339037 12.1536693,12.4355942 11.7974263,12.6672177 L11.7071885,12.4144203 C11.6689049,12.306458 11.5758333,12.2271943 11.4631538,12.2065903 C11.3504743,12.1859863 11.2353762,12.2271851 11.1613654,12.3146138 C11.0873545,12.4020426 11.0657214,12.5223641 11.1046429,12.6300981 L11.2176002,12.9456149 C10.8489691,13.0620937 10.4742581,13.0620937 10.1497859,12.8771356 L12.9257191,10.101164 C13.1167545,10.4362006 13.1116347,10.8249966 12.9833178,11.2054727 L12.9833178,11.2054727 Z M12.5026893,9.61924892 L9.66787751,12.4537799 L9.14789002,11.9331452 L11.9823818,9.09861424 L12.5026893,9.61924892 L12.5026893,9.61924892 Z M12.2546953,14.4415998 C12.3382133,14.4415998 12.4210913,14.4095999 12.4786899,14.3488005 C12.5110091,14.3200008 12.5330886,14.2848012 12.5490882,14.2464016 C12.6007192,14.1268383 12.5726532,13.987782 12.4786899,13.8976052 C12.4650115,13.8813882 12.4489325,13.8673593 12.431011,13.8560056 C12.4150114,13.8464057 12.3958119,13.8336058 12.3766123,13.8272059 C12.3574128,13.817606 12.3382133,13.814406 12.3158138,13.8080061 C12.2742148,13.8016061 12.2326158,13.8016061 12.1910168,13.8080061 C12.1718173,13.814406 12.1526177,13.817606 12.1334182,13.8272059 C12.1110187,13.8336058 12.0950191,13.8464057 12.0758196,13.8560056 C12.05982,13.8688054 12.0438204,13.8816053 12.0278207,13.8976052 C11.9990214,13.9264049 11.973422,13.9616045 11.9574224,14.0000041 C11.9414228,14.0384037 11.935023,14.0800033 11.935023,14.1216029 C11.935023,14.1664024 11.9414228,14.204802 11.9574224,14.2464016 C12.0087707,14.3650322 12.1257502,14.4417617 12.2550153,14.4415998 L12.2546953,14.4415998 Z M13.7298598,13.6800074 C13.7010605,13.7120071 13.678661,13.7440067 13.6597815,13.7856063 C13.6444009,13.8242746 13.6367894,13.8655943 13.637382,13.9072051 C13.6365177,13.9923355 13.6699534,14.0742311 13.730152,14.1344305 C13.7903506,14.1946299 13.8722451,14.2280661 13.9573743,14.2272018 C14.0437722,14.2272018 14.1237703,14.1952021 14.1813689,14.1344027 C14.2421675,14.0736034 14.2773666,13.9936042 14.2773666,13.9072051 C14.2773666,13.8240059 14.2421675,13.7408068 14.1813689,13.6800074 C14.0629718,13.5616086 13.8485769,13.5616086 13.7301798,13.6800074 L13.7298598,13.6800074 Z M14.3986437,14.9119948 C14.2802465,14.793596 14.0658517,14.793596 13.9474546,14.9119948 C13.9186552,14.9439945 13.8965758,14.9791941 13.8802562,15.0175937 C13.8610566,15.0559933 13.8546568,15.0975929 13.8546568,15.1391925 C13.8537925,15.2243229 13.8872282,15.3062185 13.9474268,15.3664179 C14.0076254,15.4266173 14.0895198,15.4600535 14.1746491,15.4591892 C14.261047,15.4591892 14.3410451,15.4271895 14.3986437,15.3663901 C14.4597622,15.3055908 14.4946414,15.2255916 14.4946414,15.1391925 C14.4946414,15.0975929 14.4853616,15.0559933 14.469042,15.0175937 C14.4528845,14.9780346 14.4289448,14.9421246 14.3986437,14.9119948 L14.3986437,14.9119948 Z M13.0076372,15.9999836 C13.0492362,15.9999836 13.0908352,15.9903837 13.1292342,15.9743839 C13.2487275,15.9252953 13.3269846,15.8091702 13.3276295,15.6799869 C13.3271239,15.6381706 13.3184268,15.5968589 13.3020301,15.5583882 C13.270048,15.4793153 13.2075899,15.4164405 13.1287322,15.3839338 C13.0498745,15.3514271 12.9612529,15.352024 12.8828402,15.3855899 C12.8444411,15.4015898 12.8092419,15.4239895 12.7804426,15.4527892 C12.7516433,15.4847889 12.7260439,15.5199886 12.7100443,15.5583882 C12.6940447,15.5967878 12.6876449,15.6383873 12.6876449,15.6799869 C12.6867805,15.7651174 12.7202163,15.8470129 12.7804149,15.9072124 C12.8406135,15.9674118 12.9225079,16.000848 13.0076372,15.9999836 L13.0076372,15.9999836 Z M15.2635829,15.3631902 C15.2482023,15.4018584 15.2405908,15.4431782 15.2411834,15.4847889 C15.2403191,15.5699194 15.2737549,15.6518149 15.3339534,15.7120144 C15.394152,15.7722138 15.4760465,15.80565 15.5611757,15.8047856 C15.6458585,15.8051377 15.7271282,15.771433 15.7867068,15.7112517 C15.8462854,15.6510704 15.8791712,15.5694651 15.8779681,15.4847889 C15.8779681,15.4431893 15.8715683,15.4015898 15.8555687,15.3631902 C15.839569,15.3247906 15.8139697,15.2895909 15.7851703,15.2607912 C15.6667732,15.1391925 15.4523784,15.1391925 15.3339812,15.2607912 C15.3051819,15.2895909 15.2795825,15.3247906 15.2635829,15.3631902 L15.2635829,15.3631902 Z M15.4395787,13.5296089 C15.423579,13.5136091 15.4075794,13.5008092 15.3915798,13.4880093 C15.3747868,13.4760679 15.3564973,13.4663851 15.3371811,13.4592096 C15.2176709,13.4070913 15.0783291,13.4352157 14.9883895,13.5296089 C14.9279514,13.5885893 14.8934197,13.6691643 14.8923918,13.7536066 C14.8927468,13.8391244 14.9273172,13.9209421 14.9883895,13.9808043 C15.0459881,14.0416037 15.1291861,14.0736061 15.215584,14.0736061 C15.3002668,14.0739554 15.3815365,14.0402507 15.4411151,13.9800694 C15.5006937,13.9198882 15.5335796,13.8382828 15.5323764,13.7536066 C15.5323764,13.7120071 15.5259766,13.6704075 15.509977,13.6320079 C15.4939773,13.5936083 15.468378,13.5584086 15.4395787,13.5296089 L15.4395787,13.5296089 Z" id="Shape" fill="#000000" fill-rule="nonzero"></path>
    </g>
</svg>