<?xml version="1.0" encoding="UTF-8"?>
<svg width="18px" height="21px" viewBox="0 0 18 21" version="1.1" xmlns="http://www.w3.org/2000/svg" xmlns:xlink="http://www.w3.org/1999/xlink">
    <title>Saturated Fat</title>
    <g id="Saturated-Fat" stroke="none" stroke-width="1" fill="none" fill-rule="evenodd">
        <path d="M11.5333333,2 C11.3096533,2.00031311 11.0994445,2.10694807 10.9670714,2.28725403 C10.9599768,2.29624768 10.9531028,2.30541322 10.9464557,2.31474246 C9.28492611,4.45280943 5.2,11.1646599 5.2,14.6666667 C5.2,18.1647778 8.03522222,21 11.5333333,21 C15.0314444,21 17.8666667,18.1647778 17.8666667,14.6666667 C17.8666667,11.1686006 13.7908162,4.47030759 12.125709,2.32436343 C12.1255197,2.32411938 12.1258983,2.32323293 12.125709,2.32298902 C12.1173813,2.3108065 12.1086724,2.29888894 12.0995953,2.28725403 C11.9672222,2.10694807 11.7570134,2.00031311 11.5333333,2 Z M7.31111111,13.962963 C7.70025926,13.962963 8.01481481,14.2775185 8.01481481,14.6666667 C8.01481481,16.1514815 8.95776652,17.4835813 10.3609517,17.9803961 C10.7268776,18.1098776 10.918582,18.5112639 10.7883968,18.8778935 C10.6863598,19.166412 10.4158519,19.3465714 10.1259259,19.3465714 C10.0485185,19.3465714 9.96830756,19.3341574 9.89090015,19.306713 C7.92686283,18.6121574 6.60740741,16.7468148 6.60740741,14.6666667 C6.60740741,14.2775185 6.92196296,13.962963 7.31111111,13.962963 Z" id="Shape" fill="#000000" fill-rule="nonzero"></path>
        <path d="M5.0333335,2.57571742e-14 C5.20403672,0.000238955626 5.36445921,0.0816182695 5.46548077,0.219220191 C5.47240805,0.228099465 5.4790543,0.237194442 5.48540968,0.246491631 L5.59872035,0.396284471 C6.23928403,1.25143535 7.2501442,2.82721562 8.12731512,4.52127716 C6.6414928,7.06558368 5.1130948,10.1484332 4.4903557,12.635345 C4.46775184,12.4399639 4.33659846,12.2656194 4.13862117,12.1955659 C3.06776928,11.8164177 2.34814822,10.7998152 2.34814822,9.666667 C2.34814822,9.36968551 2.10809266,9.12962994 1.81111117,9.12962994 C1.51412967,9.12962994 1.27407411,9.36968551 1.27407411,9.666667 C1.27407411,11.2541485 2.28102697,12.6776995 3.7798976,13.2077551 C3.83897168,13.2286995 3.90018531,13.2381734 3.95925939,13.2381734 C4.13877927,13.2381734 4.30854384,13.147664 4.40779726,12.995912 C4.29372517,13.5059073 4.22389862,13.9878359 4.20512436,14.4303059 C1.93026138,14.0366803 0.2,12.0539456 0.2,9.666667 C0.2,6.99408276 3.31744372,1.87188095 4.58545319,0.240198201 C4.59052601,0.23307852 4.59577192,0.226083765 4.60118623,0.219220191 C4.70220779,0.0816182695 4.86263028,0.000238955626 5.0333335,2.57571742e-14 Z M6.6444445,13.8518522 C6.82976515,13.8518522 7.000476,13.9134614 7.13724701,14.0173499 C6.74063517,14.2113873 6.31410834,14.3507257 5.86643935,14.4284856 C5.96668217,14.0942978 6.27681698,13.8518522 6.6444445,13.8518522 Z" id="Combined-Shape" fill="#000000" fill-rule="nonzero"></path>
    </g>
</svg>