<?xml version="1.0" encoding="UTF-8"?>
<svg width="16px" height="16px" viewBox="0 0 16 16" version="1.1" xmlns="http://www.w3.org/2000/svg" xmlns:xlink="http://www.w3.org/1999/xlink">
    <title>Sesame seeds</title>
    <g id="Sesame-seeds" stroke="none" stroke-width="1" fill="none" fill-rule="evenodd">
        <path d="M7.88288601,2.52584173 C7.73347451,2.58970835 7.5744684,2.62823967 7.41239573,2.63985376 C7.37210178,2.64535434 7.33170157,2.65071866 7.29092009,2.65670929 C6.73388277,2.74070315 6.24581381,3.0988947 5.91669051,3.6654745 C5.63627672,4.14795542 5.71391817,4.65582151 6.11921908,4.9906956 C6.29383815,5.1374466 6.51458129,5.21797251 6.74267335,5.21812836 L6.74279836,5.21812836 C7.360516,5.21812836 8.01241469,4.62651342 8.16623374,3.92636703 C8.21618471,3.68578348 8.23379476,3.43960781 8.21859725,3.19436353 C8.20615902,3.06951606 8.21345722,2.94348859 8.2402237,2.82091162 C8.24191756,2.81528602 8.24339016,2.80955042 8.24459899,2.80381231 C8.26023314,2.72884235 8.24156651,2.65080735 8.19369933,2.59102861 C8.11687438,2.50131101 7.98928233,2.47455113 7.88288601,2.52584173 Z M5.18653033,7.44334569 L5.18665534,7.44334569 C5.72196996,7.44334569 6.12055542,7.13472687 6.2270163,6.63833699 C6.29473544,6.33553102 6.21574606,6.01851851 6.01386702,5.78289296 C5.73284819,5.43984675 5.21449721,5.2181274 4.69333604,5.2181274 C4.54974299,5.21768576 4.40665746,5.23519853 4.26741125,5.27026636 C4.02148612,5.33636362 3.78552538,5.43511457 3.56582674,5.56388359 C3.45592483,5.63396381 3.33566655,5.68628723 3.20947661,5.71892871 C3.10264593,5.73903519 3.01991608,5.82401172 3.00267525,5.93134612 C2.98976873,6.0229131 3.02893191,6.11404657 3.10424456,6.16769982 L3.10424456,6.16794984 C3.23676622,6.27594471 3.35052986,6.40509914 3.44093712,6.55019268 C3.46571878,6.58497885 3.49050044,6.61989504 3.51589339,6.65480997 C3.86015521,7.12385947 4.42390548,7.4031877 5.10340226,7.44103295 C5.1316029,7.44262186 5.15942977,7.44334569 5.18653033,7.44334569 Z M10.2656069,4.76703825 C10.3332364,5.33789975 10.6845875,5.84785606 11.2551732,6.20335483 C11.438352,6.32312575 11.6516339,6.38871999 11.8704569,6.39258355 C12.1971083,6.38541763 12.5008631,6.22325783 12.6885822,5.95582654 C12.8763013,5.68839526 12.925587,5.34760117 12.8213269,5.03794059 C12.6216321,4.48666657 12.1637008,4.06879601 11.5965136,3.92027639 C11.3504332,3.86172626 11.0977164,3.83582565 10.8448757,3.84324201 C10.8192315,3.84398209 10.792741,3.84421836 10.7656392,3.84421836 C10.6628473,3.8480826 10.5600648,3.83630959 10.4608087,3.80930218 C10.3489683,3.77467098 10.2276958,3.81804917 10.1631888,3.91575841 C10.1188255,3.98673645 10.1135382,4.07538615 10.1491504,4.1511345 C10.2108625,4.30811304 10.2457717,4.47434218 10.252421,4.64288515 C10.2565801,4.68402949 10.2607303,4.72529384 10.2656069,4.76703825 Z M14.3800251,8.92300184 C14.5631489,9.0428985 14.7764545,9.1085407 14.9953013,9.11234558 C15.3219531,9.1052938 15.6257527,8.94320675 15.8135097,8.6758046 C16.0012667,8.40840246 16.0505683,8.06760532 15.9462913,7.75795264 C15.7465972,7.20658331 15.2886211,6.78862215 14.7213567,6.64004467 C14.4752329,6.58150857 14.2224776,6.55561071 13.9695976,6.56301779 C13.9437209,6.56374286 13.9166153,6.56422291 13.8892622,6.56422291 C13.7868951,6.56802413 13.6845494,6.55612796 13.5857831,6.52894794 C13.4752731,6.49506218 13.3555577,6.53683104 13.2901096,6.63210883 C13.2439576,6.70370384 13.2378659,6.79400228 13.2739835,6.8711478 C13.3357884,7.02814151 13.3707031,7.19442635 13.3772617,7.36302096 C13.3814119,7.40391153 13.3855635,7.44505337 13.3904538,7.48681278 C13.4580883,8.05755051 13.8094306,8.56761809 14.3800251,8.92300184 Z M9.57268923,5.5350718 C9.34106516,5.41445024 9.0946573,5.32464892 8.83973762,5.26795361 C8.70629226,5.24332299 8.57747402,5.19814426 8.45787578,5.13402823 L8.4468888,5.12755005 C8.33313833,5.06814825 8.19323883,5.09780148 8.11336645,5.19824376 C8.07367902,5.25279821 8.05802166,5.32120805 8.07002855,5.38759499 L8.07002855,5.38784502 C8.08926034,5.55779617 8.07914583,5.72978842 8.04012654,5.89631368 C8.03303857,5.9381931 8.02596559,5.98018503 8.01948766,6.02267701 C7.93172053,6.60170937 8.14657118,7.19344682 8.6245157,7.68899036 C8.83186235,7.92003234 9.12560967,8.05491302 9.43597132,8.06158844 L9.43609633,8.06158844 C9.64771046,8.0591004 9.85405852,7.99527317 10.0301224,7.8778453 C10.3461602,7.67694764 10.5264305,7.31878701 10.4995138,6.94525938 C10.446136,6.34966861 10.0982282,5.82031789 9.57268923,5.5350718 Z M6.11640264,10.0395672 L6.11652765,10.0395672 C6.54966735,10.0363686 6.96407093,9.86247668 7.26980368,9.55562986 C7.43878467,9.37832095 7.58356584,9.17943416 7.70037878,8.96414619 C7.75670182,8.8504398 7.83065694,8.74635934 7.91950221,8.65576364 C7.99497426,8.58479237 8.01997482,8.47519473 7.98274645,8.37851313 C7.94921483,8.29525527 7.87374675,8.23626584 7.78485819,8.22383431 C7.63269171,8.19055927 7.48740282,8.13129176 7.35537816,8.04863707 C7.32009705,8.02972132 7.28469467,8.0105543 7.24881102,7.99199109 C6.76037454,7.73892063 6.15083745,7.761383 5.59134371,8.04840079 C5.12537457,8.26300708 4.89114221,8.79018868 5.0441958,9.2798545 C5.17517707,9.74839895 5.5859721,10.0393309 6.11640264,10.0395672 Z M3.02367416,11.4496285 C3.25720815,11.5455819 3.50197544,11.6115072 3.75210922,11.6458242 C3.88473102,11.6595188 4.01448904,11.6933584 4.13690875,11.746176 C4.25204485,11.7997152 4.38901892,11.7614957 4.45980539,11.656079 C4.49882157,11.5966397 4.51021765,11.5232275 4.49105748,11.4547565 L4.49117249,11.4547565 C4.45958569,11.3005507 4.45541457,11.1419854 4.47885041,10.9863321 C4.48226064,10.9466554 4.48555711,10.9071 4.4883723,10.8668132 C4.52584981,10.3137761 4.26874509,9.77245899 3.76444879,9.34248986 C3.56153099,9.15962661 3.29957176,9.05591953 3.02647685,9.05033403 C2.79681491,9.05252551 2.57407913,9.12926193 2.39179807,9.26899211 C2.10375961,9.47725925 1.95594078,9.82880562 2.00859364,10.1803383 C2.07243792,10.7007782 2.48993839,11.2229196 3.02367416,11.4496285 Z M2.87021388,8.19074707 C3.0421005,7.9096717 3.04369946,7.55639518 2.87436415,7.2737753 C2.62031838,6.81729837 2.00431835,6.47302454 1.40978852,6.45532142 C1.15962729,6.45042578 0.909812726,6.47629788 0.665963676,6.5323558 C0.540188238,6.5665971 0.409997399,6.5818252 0.279715295,6.57753432 C0.173658145,6.56819652 0.0726206019,6.6244471 0.0246857067,6.7195168 C-0.0177649359,6.80710538 -0.00470764558,6.91147271 0.0580129399,6.98590242 C0.149778318,7.10989854 0.218808428,7.24919835 0.261891601,7.39732083 C0.275189992,7.4339497 0.288504634,7.47069233 0.302665583,7.50780624 C0.495663515,8.0115219 0.95077276,8.40267568 1.58400144,8.6093625 C1.71829462,8.65466855 1.85893028,8.67836022 2.00065436,8.6795524 C2.35738502,8.6851254 2.68954727,8.49840709 2.87021388,8.19074707 L2.87021388,8.19074707 Z M6.98657845,13.2258172 C7.12063172,13.2448658 7.25588522,13.2542115 7.39128432,13.2537956 C7.51985097,13.2535066 7.64830551,13.2461706 7.7760676,13.2318066 C7.91345275,13.2128835 8.05274375,13.2123088 8.19028035,13.2300976 C8.19515568,13.2310665 8.20004726,13.2320428 8.20492259,13.2327829 C8.31850775,13.2503951 8.4300808,13.1909005 8.47875218,13.0867675 C8.51230683,13.0118179 8.50635468,12.9250823 8.46287612,12.8554193 L8.46300113,12.8554193 C8.38340183,12.7068245 8.3301191,12.545574 8.30551183,12.3788065 C8.29672249,12.3370696 8.28794065,12.2954227 8.27829625,12.2534346 C8.1491376,11.6896463 7.72967574,11.2141324 7.0970571,10.9143045 C6.56907672,10.6646331 6.02607159,10.781963 5.7031687,11.2044926 C5.48244284,11.4885845 5.43700742,11.8714858 5.58511829,12.1993476 C5.79851009,12.7141732 6.37484996,13.1362115 6.98657845,13.2258172 Z M13.6991857,10.8804847 C13.6232201,10.7860689 13.4922516,10.756382 13.383002,10.8088146 C13.2342042,10.8727833 13.0758458,10.9116838 12.9143456,10.9239393 C12.8728429,10.9295649 12.8312151,10.9353005 12.789696,10.9416411 C12.2324087,11.0268626 11.7444673,11.3856655 11.4157027,11.9526228 C11.1361502,12.4354613 11.2155018,12.942596 11.6228704,13.2762413 C11.7975393,13.4215134 12.0175614,13.5010343 12.2447433,13.501 C12.8647848,13.501 13.5175411,12.9085225 13.6698875,12.2071622 C13.7192925,11.966792 13.7362905,11.7208884 13.7204284,11.4760063 C13.7074589,11.3510122 13.7144253,11.2247514 13.7410673,11.101943 C13.7622338,11.0256241 13.74676,10.9438026 13.6991857,10.8804847 Z M9.677435,11.8250494 C9.73627645,11.8296748 9.79572918,11.8321226 9.85531067,11.8321226 C10.0543185,11.8310145 10.2526542,11.8089149 10.4470253,11.7661906 C10.5718336,11.7339683 10.7010162,11.7220549 10.8296122,11.7309082 C10.9506895,11.7480905 11.0675914,11.6793842 11.1114911,11.5652407 C11.137071,11.4926977 11.127321,11.4123716 11.0851293,11.3480553 C10.9933157,11.186671 10.927519,11.01182 10.8901625,10.8299418 C10.8780767,10.7846496 10.8659984,10.7394785 10.8533025,10.6944275 C10.6677236,10.0782023 10.2113251,9.58021259 9.61359448,9.34174604 C9.46376422,9.27399636 9.30154435,9.23795992 9.13712255,9.23589987 C8.77082884,9.24015159 8.43700927,9.44689946 8.26999945,9.77294404 C8.07191399,10.1283585 8.07730195,10.562198 8.28415289,10.9125831 C8.57276184,11.4250422 9.09235175,11.7653238 9.677435,11.8250494 Z M11.785735,9.98207361 C12.0177461,10.0750781 12.2607687,10.1378132 12.508806,10.1687308 C12.6369142,10.1798458 12.7625636,10.2105215 12.8813822,10.2596904 C12.8867575,10.2623844 12.8921329,10.264816 12.8976258,10.26726 C12.929017,10.2799452 12.9625259,10.286573 12.9963824,10.2867933 C13.0896343,10.2864928 13.175506,10.2360208 13.2211362,10.1546918 C13.2519422,10.0975552 13.259001,10.0305824 13.2407838,9.96827841 C13.2068476,9.81285091 13.1999126,9.65274211 13.2202824,9.49496221 C13.2229601,9.4546742 13.2256465,9.41414368 13.2277216,9.3731231 C13.2549522,8.81727819 12.9921184,8.27669364 12.4873233,7.85098996 C12.2879445,7.6735636 12.0319239,7.57290099 11.7650999,7.56702499 C11.5310562,7.56923415 11.3047148,7.65093875 11.1232194,7.7987307 C10.8411823,8.0162353 10.7021976,8.37163783 10.7618589,8.72277821 C10.8351101,9.24419574 11.2560408,9.76182787 11.785735,9.98207361 Z" id="Shape" fill="#000000" fill-rule="nonzero"></path>
    </g>
</svg>