<?xml version="1.0" encoding="UTF-8"?>
<svg width="16px" height="16px" viewBox="0 0 16 16" version="1.1" xmlns="http://www.w3.org/2000/svg" xmlns:xlink="http://www.w3.org/1999/xlink">
    <title>Soybeans</title>
    <g id="Soybeans" stroke="none" stroke-width="1" fill="none" fill-rule="evenodd">
        <g id="soybean" transform="translate(-0, 0)" fill="#000000" fill-rule="nonzero">
            <path d="M13.4431983,0.850674783 C13.1144775,1.18788734 12.9274758,1.5117657 12.8254851,1.69286899 C12.6650132,1.66114087 12.5124309,1.64203757 12.3306894,1.64182693 C10.8280351,1.64182693 9.43330287,2.42458676 9.07076772,3.97257456 C8.97930139,4.36312754 9.01579955,4.70260251 9.05149557,4.99237442 C9.08719292,5.28214686 9.11807956,5.51894848 9.07076772,5.7522762 C9.01173632,6.04339586 8.88957614,6.17787586 8.74003602,6.29550986 C8.52252762,6.46660989 8.33904429,6.54157129 8.09628076,6.74655506 C7.85351722,6.95153882 7.62715222,7.23372294 7.49002606,7.72468792 C7.36824696,8.16070232 7.32079538,8.7650994 7.38846258,9.55543157 C6.78073428,9.89537721 6.38634393,10.2678082 6.15772371,10.6991908 C5.90471343,11.1765943 5.84991859,11.7138978 5.85042953,12.3637873 C5.85042953,13.7028433 5.94535856,14.6167298 5.53948972,15.6336051 C5.45646133,15.8411592 5.6499858,16.0529924 5.86397124,15.9882953 C7.42506101,15.5157862 7.52821783,15.5867329 8.70670242,15.5174583 C9.9094488,15.4641514 10.7132536,15.0674557 11.2301599,14.4091161 C11.7053268,13.8039385 11.8941971,13.0231157 11.9567283,12.217432 C13.3883208,11.1760871 13.744438,10.2085792 13.7265339,9.28199205 C13.7185711,8.8692829 13.6465455,8.5224852 13.6400751,8.2757339 C13.6336243,8.02898261 13.6854077,7.90059678 13.8249723,7.80177173 C15.0991317,6.89954374 15.4019331,5.41784394 15.0947741,4.15382614 C14.983002,3.69387634 14.7702806,3.41410238 14.5353945,2.9058994 C14.5114076,2.85400165 14.5042265,2.77052045 14.5473732,2.64027248 C14.5905208,2.51002397 14.6824626,2.34611414 14.8109172,2.18141469 C15.0678278,1.85201481 15.4696864,1.51430666 15.860405,1.30328258 C15.9470428,1.25640092 16.0006053,1.16585076 15.9999948,1.06734318 C15.9999948,0.875198739 15.9166399,0.635377681 15.8031131,0.435567316 C15.7463593,0.335662121 15.6821769,0.24184396 15.598424,0.161606814 C15.5146689,0.0813697215 15.3914917,0 15.242171,0 C15.2362243,0 15.2303683,0 15.2244615,0 C14.4370401,0.0526599462 13.8454234,0.440047725 13.4431977,0.850674783 L13.4431983,0.850674783 Z M10.5051541,0.9272379 C9.81245789,0.950003681 9.14610272,1.21533931 8.61138913,1.80536988 C8.34670302,2.09743829 8.21774999,2.41164772 8.11294756,2.68141867 C8.00814512,2.95118936 7.93180585,3.16385852 7.77648648,3.34652797 C7.608375,3.54424235 7.41608547,3.62963956 7.17596089,3.67517646 C6.93583711,3.72071389 6.62179861,3.72683287 6.31605831,3.78976084 C5.97457905,3.86004433 5.63191846,4.00361134 5.31188364,4.33299423 C5.02075786,4.63262382 4.75758323,5.07772016 4.52698139,5.72883868 C3.82797075,5.71390523 3.28181227,5.86602858 2.86134332,6.13613366 C2.39202012,6.4376222 2.08262666,6.88338228 1.88060628,7.37833102 C1.37027758,8.67002238 0.941558801,9.33273486 0.0993420922,10.0080394 C-0.069606827,10.1444251 -0.0135819274,10.4147709 0.19569702,10.4726263 C1.79331121,10.9027663 2.04090212,11.1585481 3.3405138,11.7757618 C3.99409341,12.0781669 4.71916692,12.178849 5.32230026,12.1518064 C5.33424169,11.5505907 5.40427104,10.9803728 5.68688663,10.4471053 C5.92367998,10.0003012 6.30917399,9.60400369 6.8337707,9.26428338 C6.81343454,8.78367475 6.82653597,8.29513246 6.92700051,7.80958432 C6.30182459,7.50762752 5.86605472,6.86908537 5.86605472,6.13196696 C5.86605472,5.10652653 6.70640488,4.26372275 7.73221546,4.26372275 C7.99931252,4.26372248 8.25339241,4.32206721 8.48378384,4.42466163 C8.48707987,4.24626341 8.50264799,4.05504322 8.55097184,3.84861544 C8.92749244,2.2409125 10.2541873,1.32346858 11.7676641,1.14182294 C11.3543488,0.991097608 10.9271473,0.913368936 10.5051541,0.9272379 Z M6.39939231,6.13196696 C6.39939231,6.62759864 6.67388303,7.05451938 7.07596009,7.28353853 C7.24168222,6.86163304 7.48051745,6.56622189 7.75200708,6.33665606 C8.03186638,6.10001391 8.24726916,6.00365394 8.40930405,5.87415237 C8.51239927,5.80131153 8.5246839,5.74234519 8.54732595,5.64394201 C8.57678752,5.49864938 8.55797137,5.34872019 8.52284575,5.06372912 C8.30108399,4.89872034 8.02911169,4.79758113 7.73221492,4.79758113 C6.99716347,4.79758113 6.39939231,5.3965619 6.39939231,6.13196696 Z M4.26552117,6.93145253 C5.29145948,6.93145253 6.13168191,7.77177176 6.13168191,8.797613 C6.13168191,9.8234553 5.29145948,10.6637737 4.26552117,10.6637737 C3.23958233,10.6637737 2.39936044,9.8235449 2.39936044,8.797613 C2.39936044,7.77168162 3.23958207,6.93145253 4.26552117,6.93145253 Z M4.26552117,7.46479011 C3.52962118,7.46479011 2.93321883,8.0617162 2.93321883,8.797613 C2.93321883,9.53351059 3.52962118,10.1299153 4.26552117,10.1299153 C5.00142064,10.1299153 5.59834432,9.53360046 5.59834432,8.797613 C5.59834432,8.06162633 5.00142064,7.46479011 4.26552117,7.46479011 Z" id="Shape"></path>
        </g>
    </g>
</svg>