<?xml version="1.0" encoding="UTF-8"?>
<svg width="16px" height="16px" viewBox="0 0 16 16" version="1.1" xmlns="http://www.w3.org/2000/svg" xmlns:xlink="http://www.w3.org/1999/xlink">
    <title>Sugar</title>
    <g id="Sugar" stroke="none" stroke-width="1" fill="none" fill-rule="evenodd">
        <path d="M1,8.53336 L6.46669,8.53336 C7.01897475,8.53336 7.46669,8.98107525 7.46669,9.53336 L7.46669,15.00005 C7.46669,15.5523347 7.01897475,16.00005 6.46669,16.00005 L1,16.00005 C0.44771525,16.00005 -1.42108547e-14,15.5523347 -1.42108547e-14,15.00005 L-1.42108547e-14,9.53336 C-1.42108547e-14,8.98107525 0.44771525,8.53336 1,8.53336 Z" id="Path" fill="#000000" fill-rule="nonzero"></path>
        <path d="M9.53336,8.53336 L15.00005,8.53336 C15.5523347,8.53336 16.00005,8.98107525 16.00005,9.53336 L16.00005,15.00005 C16.00005,15.5523347 15.5523347,16.00005 15.00005,16.00005 L9.53336,16.00005 C8.98107525,16.00005 8.53336,15.5523347 8.53336,15.00005 L8.53336,9.53336 C8.53336,8.98107525 8.98107525,8.53336 9.53336,8.53336 Z" id="Path" fill="#000000" fill-rule="nonzero"></path>
        <path d="M5.26668,-1.42108547e-14 L10.73337,-1.42108547e-14 C11.2856547,-1.42108547e-14 11.73337,0.44771525 11.73337,1 L11.73337,6.46669 C11.73337,7.01897475 11.2856547,7.46669 10.73337,7.46669 L5.26668,7.46669 C4.71439525,7.46669 4.26668,7.01897475 4.26668,6.46669 L4.26668,1 C4.26668,0.44771525 4.71439525,-1.40998324e-14 5.26668,-1.42108547e-14 Z" id="Path" fill="#000000" fill-rule="nonzero"></path>
    </g>
</svg>