<?xml version="1.0" encoding="UTF-8"?>
<svg width="16px" height="16px" viewBox="0 0 16 16" version="1.1" xmlns="http://www.w3.org/2000/svg" xmlns:xlink="http://www.w3.org/1999/xlink">
    <title>Sulphites</title>
    <g id="Sulphites" stroke="none" stroke-width="1" fill="none" fill-rule="evenodd">
        <g id="SO" transform="translate(4.155, 11.69)" fill="#000000" fill-rule="nonzero">
            <path d="M1.335,3.74 C1.02166667,3.74 0.745,3.65166667 0.505,3.475 C0.265,3.29833333 0.0966666667,3.04833333 0,2.725 L0.635,2.475 C0.685,2.665 0.77,2.81666667 0.89,2.93 C1.01,3.04333333 1.16,3.1 1.34,3.1 C1.49,3.1 1.61833333,3.0625 1.725,2.9875 C1.83166667,2.9125 1.885,2.80833333 1.885,2.675 C1.885,2.54166667 1.83416667,2.4325 1.7325,2.3475 C1.63083333,2.2625 1.45,2.17166667 1.19,2.075 L0.97,1.995 C0.74,1.915 0.543333333,1.7925 0.38,1.6275 C0.216666667,1.4625 0.135,1.255 0.135,1.005 C0.135,0.818333333 0.183333333,0.648333333 0.28,0.495 C0.376666667,0.341666667 0.513333333,0.220833333 0.69,0.1325 C0.866666667,0.0441666667 1.06666667,0 1.29,0 C1.61333333,0 1.86833333,0.0758333333 2.055,0.2275 C2.24166667,0.379166667 2.37,0.556666667 2.44,0.76 L1.845,1.01 C1.80833333,0.9 1.74416667,0.8075 1.6525,0.7325 C1.56083333,0.6575 1.44333333,0.62 1.3,0.62 C1.15333333,0.62 1.0325,0.654166667 0.9375,0.7225 C0.8425,0.790833333 0.795,0.88 0.795,0.99 C0.795,1.09666667 0.84,1.1875 0.93,1.2625 C1.02,1.3375 1.16833333,1.41 1.375,1.48 L1.6,1.555 C1.91,1.66166667 2.1475,1.8025 2.3125,1.9775 C2.4775,2.1525 2.56,2.38166667 2.56,2.665 C2.56,2.89833333 2.5,3.09583333 2.38,3.2575 C2.26,3.41916667 2.10583333,3.54 1.9175,3.62 C1.72916667,3.7 1.535,3.74 1.335,3.74 Z" id="Path"></path>
            <path d="M4.55666667,3.74 C4.20666667,3.74 3.88916667,3.6575 3.60416667,3.4925 C3.31916667,3.3275 3.095,3.10166667 2.93166667,2.815 C2.76833333,2.52833333 2.68666667,2.21333333 2.68666667,1.87 C2.68666667,1.52666667 2.76833333,1.21166667 2.93166667,0.925 C3.095,0.638333333 3.31916667,0.4125 3.60416667,0.2475 C3.88916667,0.0825 4.20666667,0 4.55666667,0 C4.90666667,0 5.22416667,0.0825 5.50916667,0.2475 C5.79416667,0.4125 6.01833333,0.638333333 6.18166667,0.925 C6.345,1.21166667 6.42666667,1.52666667 6.42666667,1.87 C6.42666667,2.21333333 6.345,2.52833333 6.18166667,2.815 C6.01833333,3.10166667 5.79416667,3.3275 5.50916667,3.4925 C5.22416667,3.6575 4.90666667,3.74 4.55666667,3.74 Z M4.55666667,3.1 C4.77666667,3.1 4.97833333,3.04833333 5.16166667,2.945 C5.345,2.84166667 5.48916667,2.69666667 5.59416667,2.51 C5.69916667,2.32333333 5.75166667,2.11 5.75166667,1.87 C5.75166667,1.63 5.69916667,1.41666667 5.59416667,1.23 C5.48916667,1.04333333 5.345,0.898333333 5.16166667,0.795 C4.97833333,0.691666667 4.77666667,0.64 4.55666667,0.64 C4.33666667,0.64 4.13583333,0.691666667 3.95416667,0.795 C3.7725,0.898333333 3.62916667,1.04333333 3.52416667,1.23 C3.41916667,1.41666667 3.36666667,1.63 3.36666667,1.87 C3.36666667,2.11 3.41916667,2.32333333 3.52416667,2.51 C3.62916667,2.69666667 3.7725,2.84166667 3.95416667,2.945 C4.13583333,3.04833333 4.33666667,3.1 4.55666667,3.1 Z" id="Shape"></path>
        </g>
        <path d="M6.06706797,-4.4408921e-15 C5.83310945,0.000120965558 5.62651731,0.152635822 5.55750135,0.376183128 C5.17344416,1.61914178 5,2.67707197 5,3.73473789 C5,5.31408972 6.15872505,6.63069847 7.66766992,6.88696498 L7.66766992,9.60361173 L7.13413594,9.60361173 C6.94172442,9.60089055 6.76275287,9.70198221 6.665753,9.86817674 C6.56875313,10.0343713 6.56875313,10.2399201 6.665753,10.4061147 C6.76275287,10.5723092 6.94172442,10.6734009 7.13413594,10.6706797 L8.11158674,10.6706797 C8.16920384,10.6802028 8.22799348,10.6802028 8.28561059,10.6706797 L9.26827188,10.6706797 C9.4606834,10.6734009 9.63965494,10.5723092 9.73665481,10.4061147 C9.83365468,10.2399201 9.83365468,10.0343713 9.73665481,9.86817674 C9.63965494,9.70198221 9.4606834,9.60089055 9.26827188,9.60361173 L8.73473789,9.60361173 L8.73473789,6.88696498 C10.2436824,6.63069847 11.4024078,5.31408972 11.4024078,3.73473789 C11.4024078,2.79586507 11.2024099,1.62500084 10.8480329,0.386603741 C10.7824753,0.157820457 10.5733306,0.000111802096 10.3353398,-4.4408921e-15 L6.06706797,-4.4408921e-15 Z M6.51411108,1.06706797 L9.88725453,1.06706797 C9.98081558,1.43171492 10.0600144,1.78810981 10.1300541,2.13413594 L6.25568056,2.13413594 C6.32687133,1.79048606 6.41080807,1.43880959 6.51411108,1.06706797 Z" id="Shape" fill="#000000" fill-rule="nonzero"></path>
        <g id="2" transform="translate(11.138, 13.9)" fill="#000000" fill-rule="nonzero">
            <path d="M0.018,1.743 C0.084,1.677 0.2115,1.5495 0.4005,1.3605 C0.5895,1.1715 0.711,1.048 0.765,0.99 C0.837,0.912 0.8865,0.847 0.9135,0.795 C0.9405,0.743 0.954,0.684 0.954,0.618 C0.954,0.548 0.928,0.489 0.876,0.441 C0.824,0.393 0.755,0.369 0.669,0.369 C0.585,0.369 0.517,0.393 0.465,0.441 C0.413,0.489 0.376,0.549 0.354,0.621 L0,0.474 C0.022,0.396 0.0625,0.3205 0.1215,0.2475 C0.1805,0.1745 0.257,0.115 0.351,0.069 C0.445,0.023 0.553,0 0.675,0 C0.811,0 0.93,0.0265 1.032,0.0795 C1.134,0.1325 1.213,0.2045 1.269,0.2955 C1.325,0.3865 1.353,0.488 1.353,0.6 C1.353,0.822 1.245,1.039 1.029,1.251 C0.941,1.337 0.778,1.499 0.54,1.737 L0.549,1.755 L1.38,1.755 L1.38,2.1 L0.018,2.1 L0.018,1.743 Z" id="Path"></path>
        </g>
    </g>
</svg>