<?xml version="1.0" encoding="UTF-8"?>
<svg width="16px" height="16px" viewBox="0 0 16 16" version="1.1" xmlns="http://www.w3.org/2000/svg" xmlns:xlink="http://www.w3.org/1999/xlink">
    <title>Vegan</title>
    <g id="Vegan" stroke="none" stroke-width="1" fill="none" fill-rule="evenodd">
        <path d="M0.743690644,0 C-0.822381197,5.09823387 0.111047022,8.87200099 3.29719318,9.85071255 C3.583873,9.93871659 3.84914557,9.99679192 4.10582401,10.0421273 C4.00315263,9.64277568 3.94566039,9.23225685 3.94566046,8.81290428 C3.94566039,8.1515406 4.03808137,7.52085567 4.20608907,6.92349494 C3.5060569,5.47876199 2.79227422,4.38869092 2.77894027,4.36869001 C2.57493085,4.06200927 2.65846595,3.64881318 2.96514668,3.44547059 C3.27316081,3.24146116 3.68569014,3.32432956 3.8883661,3.631677 C3.93236819,3.69768002 4.36635683,4.3583562 4.8897139,5.32706704 C5.47440739,4.34235546 6.30896701,3.50477538 7.34034765,2.86341262 C6.15495994,1.64735684 4.03717506,0.658696883 0.743690644,0 Z M12.6504866,2.78137759 C8.76764179,2.78137759 5.2790551,5.03339756 5.2790551,8.81290428 C5.2790551,9.96420509 5.86019842,11.0511603 6.6801607,11.8911708 C5.78861114,13.7520675 5.36239225,15.1400172 5.36239225,15.1400172 C5.29301932,15.3679875 5.3505547,15.6156508 5.51332017,15.7896923 C5.67608564,15.9637339 5.91934618,16.037705 6.15144592,15.9837349 C6.38354565,15.9297648 6.56921301,15.7560551 6.63849212,15.5280563 C6.63849212,15.5280563 7.55467149,12.5476463 9.52794801,9.53429137 C10.3756042,8.25753813 11.4205008,6.93989569 12.7090833,5.72812743 C12.9770956,5.47611587 13.399823,5.48876245 13.6518345,5.75677475 C13.9038467,6.02478704 13.8912002,6.44684774 13.6231879,6.699526 C11.34375,8.84295765 9.8417644,11.387439 8.92505568,13.3235279 C9.28173871,13.4375331 9.6353276,13.5045255 9.97067631,13.5045255 C13.6481783,13.5045255 16.002203,11.269361 16.002203,6.13179195 L16.002203,2.78137759 L12.6504866,2.78137759 Z" id="Shape" fill="#000000" fill-rule="nonzero"></path>
    </g>
</svg>