<?xml version="1.0" encoding="UTF-8"?>
<svg width="16px" height="16px" viewBox="0 0 16 16" version="1.1" xmlns="http://www.w3.org/2000/svg" xmlns:xlink="http://www.w3.org/1999/xlink">
    <title>Vegetarian</title>
    <g id="Vegetarian" stroke="none" stroke-width="1" fill="none" fill-rule="evenodd">
        <path d="M3.13807686,9 C1.88987978,9 0.561153863,11.1765436 0.561153863,13.1333945 C0.561153863,15.0902454 1.71497114,16.0865382 3.13807686,16.0865382 C4.56118259,16.0865382 5.71499986,15.0902454 5.71499986,13.1333945 C5.71499986,11.1765436 4.38627394,9 3.13807686,9 Z M2.62269226,11.3836538 C2.80049995,11.3836538 2.94480764,11.5279615 2.94480764,11.7057691 C2.94480764,11.8835768 2.80049995,12.0278845 2.62269226,12.0278845 C2.44488458,12.0278845 2.30057689,11.8835768 2.30057689,11.7057691 C2.30057689,11.5279615 2.44488458,11.3836538 2.62269226,11.3836538 Z M3.10586533,12.9942306 C3.37257686,12.9942306 3.58903839,13.2106922 3.58903839,13.4774037 C3.58903839,13.7441152 3.37257686,13.9605768 3.10586533,13.9605768 C2.83915379,13.9605768 2.62269226,13.7441152 2.62269226,13.4774037 C2.62269226,13.2106922 2.83915379,12.9942306 3.10586533,12.9942306 Z" id="Shape" fill="#000000" fill-rule="nonzero"></path>
        <path d="M4.16814364,3.90798505e-14 C1.97260606,3.90798505e-14 -1.77635684e-15,1.27339483 -1.77635684e-15,3.41050034 C-1.77635684e-15,4.06149834 0.328604947,4.67611239 0.792249026,5.15109267 C0.288126231,6.20332855 0.0471226299,6.98813861 0.0471226299,6.98813861 C0.00789600816,7.11704341 0.0404291363,7.25708354 0.13246416,7.35549457 C0.224499183,7.45390559 0.36204979,7.49573227 0.493289567,7.46521511 C0.624529344,7.43469796 0.729514141,7.33647457 0.768687711,7.20755364 C0.768687711,7.20755364 1.28673732,5.52229383 2.40251788,3.81840551 C2.88182137,3.09647099 3.47265358,2.35141584 4.20127688,1.66622679 C4.35282325,1.52372796 4.59185261,1.53087891 4.73435144,1.68242529 C4.87685065,1.83397166 4.86969969,2.07262403 4.71815332,2.21549985 C3.42925514,3.42749389 2.57996399,4.86625974 2.06161506,5.96101268 C2.26329991,6.02547644 2.4632352,6.063357 2.65285666,6.063357 C4.73228407,6.063357 6.063357,4.79949301 6.063357,1.89447712 L6.063357,3.90798505e-14 L4.16814364,3.90798505e-14 Z" id="Path" fill="#000000"></path>
        <path d="M10.6325974,3.97903932e-13 C10.272916,3.97903932e-13 9.97955844,0.29336751 9.97955844,0.653061224 L9.97955844,1.30612245 C9.97955844,1.66581649 10.272916,1.95918367 10.6325974,1.95918367 L14.5508312,1.95918367 C14.9105129,1.95918367 15.2038701,1.66581649 15.2038701,1.30612245 L15.2038701,0.653061224 C15.2038701,0.29336751 14.9105129,3.97903932e-13 14.5508312,3.97903932e-13 L10.6325974,3.97903932e-13 Z M10.3570966,2.58163265 C9.62625424,3.94260212 9,6.36479608 9,7.12244898 L9,14.3673469 C9,15.2678573 9.73211806,16 10.6325974,16 L14.5508312,16 C15.4513108,16 16.1834286,15.2678573 16.1834286,14.3673469 L16.1834286,7.12244898 C16.1834286,6.36479608 15.5610008,3.94260212 14.826332,2.58163265 C14.7383249,2.60076539 14.6439402,2.6122449 14.5508312,2.6122449 L10.6325974,2.6122449 C10.5369373,2.6122449 10.4463794,2.60076539 10.3570966,2.58163265 Z" id="Shape" fill="#000000" fill-rule="nonzero"></path>
    </g>
</svg>