<svg width="155" height="147" viewBox="0 0 155 147" fill="none" xmlns="http://www.w3.org/2000/svg">
<path d="M145.818 74.3661L5.69774 86.6251C2.55097 86.9004 0.22318 89.6746 0.498487 92.8213L2.5103 115.816C2.78561 118.963 5.55976 121.291 8.70653 121.016L148.827 108.757C151.974 108.481 154.302 105.707 154.026 102.561L152.015 79.5654C151.739 76.4186 148.965 74.0908 145.818 74.3661Z" fill="#FF6E78"/>
<path d="M8.71023 114.383L6.854 93.1561L15.0021 92.4446C16.4639 92.317 17.7826 92.4601 18.9582 92.8739C20.1338 93.2876 21.089 93.9721 21.8237 94.9196C22.5585 95.8709 22.9877 97.0852 23.1192 98.5663C23.2468 100.009 23.0264 101.266 22.4579 102.329C21.8895 103.392 21.0658 104.236 19.9791 104.858C18.8924 105.481 17.6279 105.852 16.1854 105.98L12.4536 106.304L13.1265 113.996L8.71023 114.383ZM12.1172 102.457L15.8799 102.128C16.5064 102.074 17.0362 101.904 17.4732 101.614C17.9063 101.327 18.235 100.952 18.4516 100.496C18.6681 100.036 18.7532 99.5215 18.7029 98.953C18.6527 98.3652 18.4786 97.8625 18.1847 97.4487C17.8908 97.0349 17.5041 96.7255 17.0285 96.5167C16.5489 96.3117 15.9998 96.2344 15.3733 96.2885L11.6106 96.6172L12.1211 102.457H12.1172Z" fill="white"/>
<path d="M26.6192 112.817L24.7629 91.5899L39.0366 90.3408L39.373 94.1886L29.5157 95.051L29.9372 99.8656L39.2261 99.0535L39.5625 102.901L30.2736 103.713L30.699 108.586L40.5564 107.724L40.8928 111.571L26.6153 112.821L26.6192 112.817Z" fill="white"/>
<path d="M47.9348 110.953L46.415 93.5699L41.0281 94.0417L40.6917 90.1939L55.7928 88.8713L56.1293 92.7192L50.8313 93.1832L52.3511 110.566L47.9348 110.953Z" fill="white"/>
<path d="M64.6909 109.487L62.8347 88.2603L77.3674 86.988L77.7039 90.8358L67.5874 91.7214L68.0592 97.1083L76.7487 96.3465L77.0851 100.194L68.3957 100.956L69.1072 109.104L64.6909 109.491V109.487Z" fill="white"/>
<path d="M91.6954 107.468C90.0983 107.608 88.594 107.461 87.1786 107.031C85.7632 106.598 84.5025 105.929 83.4004 105.021C82.2944 104.112 81.4011 103.017 80.7166 101.737C80.0282 100.457 79.6183 99.0381 79.483 97.4796C79.3476 95.9212 79.4984 94.4555 79.9432 93.0749C80.3879 91.6982 81.0724 90.4685 82.0044 89.3934C82.9363 88.3184 84.0578 87.4444 85.3804 86.7715C86.6991 86.1025 88.1647 85.6964 89.7812 85.5534C91.3938 85.4103 92.9097 85.5534 94.3251 85.9865C95.7404 86.4196 97.0011 87.0847 98.1033 87.9819C99.2054 88.883 100.095 89.9696 100.772 91.2496C101.448 92.5297 101.854 93.9489 101.99 95.5074C102.125 97.0658 101.967 98.5353 101.514 99.9121C101.062 101.293 100.369 102.526 99.4413 103.613C98.5132 104.7 97.3879 105.577 96.0692 106.246C94.7505 106.915 93.2926 107.322 91.6954 107.461V107.468ZM91.3474 103.478C92.3142 103.392 93.1997 103.145 93.9964 102.727C94.793 102.314 95.4775 101.768 96.0498 101.099C96.6222 100.426 97.0437 99.6491 97.3105 98.7635C97.5773 97.8779 97.6663 96.9228 97.5773 95.898C97.4884 94.8732 97.2332 93.9528 96.8194 93.1368C96.4056 92.3209 95.8565 91.6286 95.172 91.0563C94.4914 90.484 93.7218 90.0702 92.8672 89.8072C92.0125 89.5481 91.0999 89.4592 90.1331 89.5442C89.1624 89.6293 88.2807 89.873 87.4841 90.279C86.6875 90.6851 86.003 91.2265 85.4306 91.9071C84.8583 92.5877 84.4368 93.3689 84.17 94.2428C83.9031 95.1168 83.8142 96.0681 83.9031 97.0929C83.9921 98.1177 84.2473 99.0458 84.6611 99.8695C85.0787 100.693 85.6279 101.389 86.3085 101.95C86.9891 102.511 87.7587 102.928 88.6133 103.199C89.4679 103.47 90.3806 103.563 91.3512 103.478H91.3474Z" fill="white"/>
<path d="M116.306 105.314C114.709 105.454 113.205 105.307 111.789 104.877C110.374 104.444 109.113 103.775 108.011 102.867C106.909 101.958 106.012 100.863 105.327 99.5833C104.643 98.3033 104.229 96.884 104.094 95.3256C103.958 93.7671 104.109 92.3015 104.554 90.9209C104.998 89.5442 105.683 88.3144 106.615 87.2394C107.543 86.1643 108.668 85.2903 109.987 84.6174C111.306 83.9484 112.775 83.5424 114.388 83.3993C116.004 83.2562 117.516 83.3993 118.936 83.8324C120.351 84.2655 121.612 84.9307 122.714 85.8279C123.816 86.7289 124.705 87.8156 125.382 89.0956C126.059 90.3756 126.465 91.7949 126.6 93.3533C126.736 94.9118 126.577 96.3813 126.125 97.758C125.672 99.1386 124.98 100.372 124.052 101.459C123.124 102.546 121.998 103.423 120.68 104.092C119.361 104.761 117.903 105.167 116.306 105.307V105.314ZM115.958 101.324C116.925 101.238 117.81 100.991 118.607 100.573C119.404 100.16 120.088 99.6142 120.66 98.9452C121.233 98.2723 121.654 97.495 121.921 96.6095C122.188 95.7239 122.277 94.7687 122.188 93.7439C122.099 92.7191 121.844 91.7987 121.43 90.9828C121.012 90.1668 120.467 89.4746 119.783 88.9022C119.102 88.3299 118.332 87.9161 117.478 87.6532C116.623 87.3941 115.71 87.3051 114.744 87.3902C113.777 87.4753 112.891 87.7189 112.095 88.125C111.298 88.531 110.614 89.0724 110.041 89.753C109.469 90.4336 109.047 91.2148 108.781 92.0888C108.514 92.9627 108.425 93.9141 108.514 94.9389C108.603 95.9637 108.858 96.8918 109.272 97.7155C109.689 98.5392 110.238 99.2353 110.919 99.796C111.6 100.357 112.369 100.774 113.224 101.045C114.079 101.316 114.991 101.409 115.962 101.324H115.958Z" fill="white"/>
<path d="M130.502 103.729L128.646 82.5021L135.568 81.895C137.865 81.6939 139.903 81.9762 141.671 82.738C143.442 83.4999 144.861 84.6407 145.932 86.1566C147.003 87.6725 147.626 89.4553 147.808 91.5048C147.986 93.5544 147.68 95.4261 146.891 97.1122C146.102 98.7983 144.9 100.171 143.291 101.231C141.678 102.29 139.725 102.921 137.424 103.122L130.502 103.729ZM134.582 99.4944L137.204 99.2662C138.592 99.1463 139.764 98.7596 140.719 98.1099C141.678 97.4603 142.39 96.6056 142.862 95.5383C143.333 94.4748 143.507 93.2567 143.391 91.8877C143.272 90.4994 142.885 89.3276 142.235 88.3725C141.585 87.4134 140.735 86.7057 139.679 86.2417C138.623 85.7776 137.401 85.6075 136.017 85.7312L133.395 85.9594L134.578 99.4944H134.582Z" fill="white"/>
<path d="M47.212 119.878C45.7695 119.878 44.5127 120.141 43.4492 120.667C42.3819 121.193 41.5659 121.955 40.9936 122.952C40.4213 123.95 40.1351 125.168 40.1351 126.611V127.195H36.8364V131.217H40.1351V145.892H44.6365V131.217H48.7936V127.195H44.6365V126.611C44.6365 125.648 44.911 124.944 45.4602 124.495C46.0093 124.047 46.7905 123.826 47.7959 123.826C47.9545 123.826 48.1324 123.834 48.3296 123.842C48.5229 123.853 48.7356 123.881 48.9638 123.927V120.044C48.7356 119.998 48.4533 119.959 48.1208 119.924C47.7882 119.89 47.4865 119.874 47.212 119.874V119.878Z" fill="white"/>
<path d="M62.1198 127.628C60.9519 127.067 59.5984 126.785 58.0632 126.785C56.8025 126.785 55.6346 126.99 54.5595 127.404C53.4806 127.817 52.5486 128.382 51.7597 129.105C50.9708 129.828 50.3908 130.679 50.0234 131.665L53.701 133.452C54.0452 132.628 54.5905 131.951 55.333 131.425C56.0755 130.899 56.9301 130.636 57.893 130.636C58.9255 130.636 59.7492 130.907 60.368 131.445C60.9867 131.982 61.2961 132.655 61.2961 133.456V134.063L55.7622 134.968C54.2966 135.196 53.0823 135.586 52.1194 136.136C51.1565 136.685 50.441 137.369 49.9731 138.181C49.5013 138.993 49.2693 139.918 49.2693 140.946C49.2693 141.975 49.5323 142.969 50.0582 143.781C50.5841 144.593 51.3343 145.219 52.3089 145.653C53.2834 146.086 54.4242 146.306 55.7274 146.306C56.7599 146.306 57.6919 146.167 58.5272 145.892C59.3625 145.618 60.1205 145.204 60.7972 144.655C61.0718 144.431 61.327 144.183 61.5707 143.92V145.892H65.8323V133.452C65.8323 132.145 65.5074 130.988 64.8539 129.979C64.2003 128.97 63.2916 128.185 62.1237 127.624L62.1198 127.628ZM60.7122 140.602C60.3216 141.314 59.7686 141.867 59.0454 142.269C58.3223 142.671 57.4947 142.872 56.555 142.872C55.8202 142.872 55.2092 142.683 54.7181 142.304C54.227 141.925 53.9795 141.414 53.9795 140.776C53.9795 140.138 54.196 139.577 54.633 139.179C55.0661 138.777 55.7313 138.498 56.6246 138.336L61.3 137.505V138.301C61.3 139.125 61.1066 139.894 60.716 140.602H60.7122Z" fill="white"/>
<path d="M75.3801 131.65C76.1458 131.182 77.0237 130.946 78.0098 130.946C79.0617 130.946 79.9975 131.228 80.8096 131.789C81.6217 132.35 82.2018 133.111 82.546 134.074L86.4982 132.323C86.1308 131.224 85.5314 130.261 84.6922 129.434C83.8569 128.61 82.8631 127.96 81.7184 127.492C80.5737 127.025 79.3362 126.789 78.0059 126.789C76.1265 126.789 74.4482 127.214 72.9709 128.061C71.4937 128.908 70.3296 130.068 69.4827 131.534C68.6358 132.999 68.2104 134.662 68.2104 136.518C68.2104 138.375 68.6397 140.041 69.4982 141.519C70.3567 142.996 71.5207 144.164 72.9864 145.022C74.452 145.881 76.1265 146.31 78.0021 146.31C79.3517 146.31 80.6008 146.074 81.7493 145.606C82.894 145.138 83.8801 144.485 84.7038 143.646C85.5275 142.81 86.1231 141.863 86.4904 140.811L82.5382 139.024C82.1708 139.987 81.5946 140.753 80.8019 141.325C80.013 141.898 79.0771 142.184 78.0021 142.184C77.0159 142.184 76.142 141.944 75.3724 141.461C74.6028 140.981 74.0034 140.316 73.5664 139.469C73.1295 138.622 72.9129 137.648 72.9129 136.549C72.9129 135.451 73.1295 134.504 73.5664 133.645C73.9996 132.787 74.6028 132.121 75.3724 131.654L75.3801 131.65Z" fill="white"/>
<path d="M98.3859 142.149C97.6511 142.149 97.0517 142.033 96.5799 141.805C96.1082 141.577 95.7678 141.244 95.5474 140.807C95.3308 140.374 95.2226 139.844 95.2226 139.225V131.217H99.519V127.195H95.2226V122.933H90.6864V124.376C90.6864 125.292 90.4389 125.992 89.9478 126.472C89.4567 126.951 88.749 127.195 87.8325 127.195H87.4883V131.217H90.6825V139.465C90.6825 141.573 91.2665 143.205 92.4344 144.361C93.6022 145.517 95.2419 146.097 97.3495 146.097C97.6937 146.097 98.0727 146.074 98.4826 146.028C98.8964 145.981 99.2599 145.935 99.5808 145.888V142.041C99.3759 142.064 99.1632 142.087 98.9466 142.11C98.7301 142.133 98.5406 142.145 98.3782 142.145L98.3859 142.149Z" fill="white"/>
<path d="M111.02 135.173L108.03 134.279C107.593 134.14 107.211 133.993 106.878 133.831C106.545 133.672 106.286 133.463 106.105 133.212C105.923 132.961 105.83 132.674 105.83 132.353C105.83 131.781 106.047 131.329 106.484 130.996C106.917 130.664 107.516 130.497 108.27 130.497C109.21 130.497 110.057 130.745 110.815 131.236C111.569 131.727 112.11 132.4 112.431 133.247L115.869 131.63C115.297 130.095 114.334 128.904 112.98 128.057C111.627 127.21 110.072 126.785 108.305 126.785C106.951 126.785 105.757 127.025 104.712 127.508C103.668 127.987 102.856 128.66 102.272 129.519C101.688 130.377 101.394 131.379 101.394 132.528C101.394 133.811 101.8 134.929 102.613 135.876C103.425 136.828 104.612 137.52 106.17 137.957L109.229 138.815C109.643 138.931 110.007 139.075 110.327 139.245C110.648 139.415 110.908 139.624 111.101 139.863C111.294 140.103 111.395 140.409 111.395 140.772C111.395 141.368 111.155 141.851 110.672 142.215C110.192 142.582 109.55 142.764 108.746 142.764C107.69 142.764 106.735 142.466 105.876 141.871C105.018 141.275 104.349 140.451 103.865 139.396L100.462 141.012C101.035 142.64 102.06 143.928 103.537 144.879C105.014 145.83 106.75 146.306 108.742 146.306C110.161 146.306 111.399 146.066 112.454 145.583C113.506 145.103 114.334 144.431 114.929 143.572C115.525 142.714 115.823 141.724 115.823 140.598C115.823 139.268 115.405 138.146 114.57 137.23C113.734 136.313 112.547 135.625 111.012 135.169L111.02 135.173Z" fill="white"/>
<path d="M51.431 55.1536C49.9421 54.3067 48.2676 53.8813 46.4153 53.8813C44.5629 53.8813 42.9194 54.3067 41.4305 55.1536C39.9417 56.0005 38.7506 57.1607 37.8573 58.6263C36.964 60.092 36.5154 61.7665 36.5154 63.642C36.5154 65.5176 36.964 67.1921 37.8573 68.6577C38.7506 70.1234 39.9494 71.2796 41.4499 72.1304C42.9503 72.9773 44.6054 73.4027 46.4153 73.4027C48.2251 73.4027 49.9073 72.9773 51.4 72.1304C52.8889 71.2835 54.08 70.1272 54.9733 68.6577C55.8666 67.1921 56.3152 65.5176 56.3152 63.642C56.3152 61.7665 55.8743 60.061 54.9926 58.607C54.1109 57.153 52.9237 56.0005 51.4348 55.1536H51.431ZM50.9321 66.5462C50.4835 67.4047 49.8764 68.0738 49.1107 68.5572C48.3411 69.0367 47.4439 69.2803 46.4114 69.2803C45.3789 69.2803 44.5088 69.0406 43.7315 68.5572C42.9503 68.0776 42.3393 67.4047 41.8946 66.5462C41.446 65.6877 41.2256 64.721 41.2256 63.642C41.2256 62.5631 41.4499 61.604 41.8946 60.7533C42.3432 59.9064 42.9542 59.2412 43.7315 58.7617C44.5088 58.2822 45.4021 58.0385 46.4114 58.0385C47.4207 58.0385 48.3411 58.2783 49.1107 58.7617C49.8764 59.2412 50.4835 59.9064 50.9321 60.7533C51.3807 61.6002 51.6011 62.5631 51.6011 63.642C51.6011 64.721 51.3768 65.6877 50.9321 66.5462Z" fill="white"/>
<path d="M73.7907 55.1884C72.3714 54.3183 70.7782 53.8813 69.0148 53.8813C67.5723 53.8813 66.3 54.1636 65.2017 54.7244C64.32 55.173 63.5891 55.7685 63.0013 56.5071V54.2951H58.7397V79.8647H63.2759V71.1946C63.8289 71.7824 64.4863 72.2541 65.252 72.6138C66.3851 73.1397 67.6303 73.4027 68.9799 73.4027C70.7898 73.4027 72.4062 72.9734 73.8255 72.1149C75.2447 71.2564 76.3701 70.0808 77.1938 68.592C78.0175 67.1031 78.4312 65.4518 78.4312 63.642C78.4312 61.8322 78.0136 60.1577 77.1783 58.6921C76.343 57.2264 75.2138 56.0585 73.7945 55.1884H73.7907ZM73.0675 66.5656C72.6073 67.4125 71.9847 68.0776 71.1958 68.5572C70.4069 69.0367 69.4943 69.2803 68.4617 69.2803C67.4292 69.2803 66.5901 69.0406 65.7973 68.5572C65.0084 68.0776 64.3896 67.4125 63.941 66.5656C63.4925 65.7187 63.272 64.7442 63.272 63.6459C63.272 62.5476 63.4963 61.6079 63.941 60.7571C64.3896 59.9102 65.0045 59.2451 65.7973 58.7655C66.5862 58.286 67.4756 58.0424 68.4617 58.0424C69.4479 58.0424 70.4031 58.2822 71.1958 58.7655C71.9847 59.2451 72.6112 59.9102 73.0675 60.7571C73.5238 61.604 73.7559 62.5669 73.7559 63.6459C73.7559 64.7248 73.5277 65.7187 73.0675 66.5656Z" fill="white"/>
<path d="M96.0615 56.5961C95.2842 55.7492 94.3367 55.084 93.2268 54.6045C92.117 54.125 90.8253 53.8813 89.3597 53.8813C87.5963 53.8813 86.0146 54.3067 84.6186 55.1536C83.2225 56.0005 82.1088 57.153 81.2851 58.607C80.4614 60.061 80.0476 61.7278 80.0476 63.6072C80.0476 65.4867 80.4498 67.0683 81.2503 68.5572C82.0508 70.046 83.18 71.2255 84.634 72.0956C86.0881 72.9657 87.778 73.4027 89.7039 73.4027C90.9646 73.4027 92.1324 73.2093 93.2075 72.8188C94.2826 72.4282 95.2107 71.8906 95.9918 71.2023C96.7691 70.5139 97.3453 69.725 97.7089 68.8317L94.066 67.0451C93.6522 67.7799 93.0876 68.3638 92.3645 68.7969C91.6413 69.2339 90.7673 69.4505 89.7348 69.4505C88.7023 69.4505 87.7935 69.2107 87.0007 68.7273C86.2118 68.2478 85.6124 67.5633 85.2141 66.6816C84.9743 66.1518 84.8235 65.5717 84.7578 64.9452H98.2193C98.3121 64.6707 98.374 64.3652 98.4088 64.0365C98.4436 63.7039 98.4591 63.3675 98.4591 63.0233C98.4591 61.7626 98.2541 60.5908 97.8403 59.5003C97.4265 58.4136 96.831 57.443 96.0537 56.5961H96.0615ZM84.8545 61.4764C84.9318 61.082 85.0401 60.7146 85.1832 60.3782C85.5622 59.4848 86.1152 58.7965 86.8499 58.317C87.5847 57.8374 88.42 57.5938 89.3597 57.5938C90.2994 57.5938 91.185 57.8336 91.8849 58.317C92.5849 58.7965 93.0876 59.45 93.397 60.2776C93.5401 60.6527 93.6213 61.0549 93.6483 61.4803H84.8545V61.4764Z" fill="white"/>
<path d="M114.167 54.7747C113.1 54.1791 111.882 53.8813 110.509 53.8813C109.136 53.8813 108.019 54.1753 107.021 54.7592C106.251 55.2116 105.652 55.8227 105.215 56.5961V54.2951H100.953V72.9928H105.49V62.0294C105.49 61.2057 105.648 60.4942 105.969 59.8986C106.29 59.3031 106.735 58.8468 107.311 58.5258C107.883 58.2048 108.537 58.0463 109.272 58.0463C110.006 58.0463 110.656 58.2087 111.232 58.5258C111.805 58.8468 112.253 59.3031 112.574 59.8986C112.895 60.4942 113.054 61.2057 113.054 62.0294V72.9928H117.555V60.966C117.555 59.5699 117.257 58.3363 116.662 57.2728C116.066 56.2094 115.235 55.3779 114.171 54.7824L114.167 54.7747Z" fill="white"/>
<path d="M75.9408 19.2318C75.6778 14.6531 73.6012 11.0837 71.0721 11.0837C68.3689 11.0837 66.1763 15.1674 66.1763 20.2063C66.1763 20.9604 66.2304 21.6874 66.3232 22.3912H73.8796C73.8796 20.972 74.7304 19.75 75.9408 19.2279V19.2318Z" fill="white"/>
<path d="M88.3468 20.2101C88.3468 15.1712 86.1541 11.0875 83.451 11.0875C80.9258 11.0875 78.8452 14.653 78.5823 19.2356C79.7927 19.7577 80.6435 20.9758 80.6435 22.3989H88.1999C88.2927 21.699 88.3468 20.9681 88.3468 20.214V20.2101Z" fill="white"/>
<path d="M96.2163 22.3951C96.2163 18.4313 94.9981 14.7536 92.9176 11.714L94.4026 1.73679C94.5805 0.549579 93.3701 -0.359199 92.2795 0.139663L83.0719 4.35098C81.2427 3.76318 79.2898 3.4422 77.2634 3.4422C75.237 3.4422 73.2571 3.76705 71.4163 4.36645L71.4318 4.35485L62.2202 0.139663C61.1297 -0.359199 59.9193 0.549579 60.0972 1.73679L61.586 11.745C59.521 14.7807 58.3105 18.4467 58.3105 22.3951H66.3233C66.2305 21.6951 66.1763 20.9642 66.1763 20.2101C66.1763 15.1713 68.369 11.0875 71.0721 11.0875C73.5974 11.0875 75.6779 14.6569 75.9409 19.2356C76.3469 19.0616 76.7916 18.9649 77.2634 18.9649C77.7352 18.9649 78.1799 19.0616 78.586 19.2356C78.849 14.6569 80.9256 11.0875 83.4547 11.0875C86.1579 11.0875 88.3505 15.1713 88.3505 20.2101C88.3505 20.9642 88.2964 21.6913 88.2036 22.3951H96.2163Z" fill="#AAAAAA"/>
<path d="M83.4511 12.9245C83.2965 12.9245 83.1495 12.9438 83.0026 12.9747C83.2733 13.1758 83.4511 13.4968 83.4511 13.8564C83.4511 14.4675 82.9561 14.9624 82.3413 14.9624C81.8772 14.9624 81.4789 14.6763 81.3165 14.2741C80.9568 14.8696 80.7441 15.6121 80.7441 16.4242C80.7441 18.3578 81.9584 19.9279 83.455 19.9279C84.9516 19.9279 86.1659 18.3578 86.1659 16.4242C86.1659 14.4907 84.9516 12.9206 83.455 12.9206L83.4511 12.9245Z" fill="black"/>
<path d="M73.234 14.3166C73.0599 14.6995 72.6732 14.9624 72.2285 14.9624C71.6175 14.9624 71.1187 14.4675 71.1187 13.8564C71.1187 13.4968 71.2927 13.1836 71.5595 12.9786C71.4009 12.9438 71.2424 12.9206 71.0761 12.9206C69.5795 12.9206 68.3652 14.4907 68.3652 16.4242C68.3652 18.3578 69.5795 19.9279 71.0761 19.9279C72.5727 19.9279 73.787 18.3578 73.787 16.4242C73.787 15.6315 73.582 14.9006 73.2378 14.3166H73.234Z" fill="black"/>
<path d="M69.1348 48.858L72.5301 40.7485C74.0422 41.1391 75.6277 41.348 77.2635 41.348C87.7125 41.348 96.2164 32.848 96.2164 22.3951H91.4134C91.4134 30.1951 85.0674 36.5411 77.2674 36.5411C69.4673 36.5411 63.1214 30.1951 63.1214 22.3951H58.3184C58.3184 29.5106 62.2628 35.7213 68.079 38.9619L64.7108 47.0017L69.1425 48.858H69.1348Z" fill="white"/>
<path d="M91.0267 9.3744L91.9857 2.93947C92.0012 2.83119 91.8929 2.74998 91.7924 2.79252L85.864 5.50339C87.8015 6.49338 89.5455 7.80434 91.0267 9.37053V9.3744Z" fill="#FFE6DC"/>
<path d="M73.9687 8.39985C73.6709 8.39985 73.4312 8.16009 73.4312 7.86232V3.99517C73.4312 3.6974 73.6709 3.45764 73.9687 3.45764C74.2665 3.45764 74.5062 3.6974 74.5062 3.99517V7.86232C74.5062 8.16009 74.2665 8.39985 73.9687 8.39985Z" fill="black"/>
<path d="M80.5429 8.39985C80.2451 8.39985 80.0054 8.16009 80.0054 7.86232V3.99517C80.0054 3.6974 80.2451 3.45764 80.5429 3.45764C80.8407 3.45764 81.0804 3.6974 81.0804 3.99517V7.86232C81.0804 8.16009 80.8407 8.39985 80.5429 8.39985Z" fill="black"/>
<path d="M77.2558 10.3489C76.958 10.3489 76.7183 10.1091 76.7183 9.81137V3.71289C76.7183 3.41512 76.958 3.17535 77.2558 3.17535C77.5536 3.17535 77.7933 3.41512 77.7933 3.71289V9.81137C77.7933 10.1091 77.5536 10.3489 77.2558 10.3489Z" fill="black"/>
<path d="M68.6474 5.51501L62.7036 2.7964C62.6031 2.75 62.4948 2.83508 62.5103 2.94336L63.4732 9.40149C64.9582 7.82756 66.7061 6.50886 68.6474 5.51501Z" fill="#FFE6DC"/>
</svg>
