<svg width="120" height="127" viewBox="0 0 120 127" fill="none" xmlns="http://www.w3.org/2000/svg">
<g clip-path="url(#clip0_14787_2525)">
<path d="M50.5661 44.474L47.1108 52.7056L51.6581 54.6064L55.1414 46.3033C56.6957 46.7009 58.3217 46.9157 59.9996 46.9157C70.7242 46.9157 79.4522 38.207 79.4522 27.506H74.5223C74.5223 35.4949 68.0102 41.9966 59.9996 41.9966C51.9889 41.9966 45.4768 35.4989 45.4768 27.506H40.5469C40.5469 34.7951 44.596 41.1536 50.5622 44.4701L50.5661 44.474Z" fill="black"/>
<path d="M52.6269 0H67.3688C68.1101 0 68.5963 0.76748 68.2815 1.43554L65.0613 8.25538C64.8939 8.60929 64.5392 8.83198 64.1486 8.83198H55.8431C55.4525 8.83198 55.0978 8.60532 54.9304 8.25538L51.7102 1.43554C51.3954 0.76748 51.8816 0 52.6229 0L52.6269 0Z" fill="#FFC88C"/>
<path d="M56.082 3.47552L58.0468 8.83595" stroke="#DAA16D" stroke-width="5" stroke-miterlimit="10" stroke-linecap="round"/>
<path d="M64.0528 3.19714L62.084 8.55757" stroke="#DAA16D" stroke-width="5" stroke-miterlimit="10" stroke-linecap="round"/>
<path d="M66.986 10.3669C66.986 10.2039 53.0093 10.2039 53.0093 10.3669V8.23948C53.0093 5.73821 66.986 5.73821 66.986 8.23948V10.3669Z" fill="#784600"/>
<path d="M40.5469 27.51C40.5469 16.7891 49.2549 8.10028 59.9996 8.10028C70.7442 8.10028 79.4522 16.7891 79.4522 27.51H40.5469Z" fill="#FFC88C"/>
<path d="M74.5186 27.506C74.5186 35.5069 68.0185 41.9966 59.9959 41.9966C51.9733 41.9966 45.4731 35.5108 45.4731 27.506H74.5147H74.5186Z" fill="white"/>
<path d="M64.4277 24.106C64.5393 24.5474 64.3121 25.0007 63.8936 25.1757C63.2241 25.4501 62.3632 25.6529 61.3988 25.6529C59.438 25.6529 57.7282 24.8695 56.6482 23.4896C56.0504 22.7977 55.6439 21.9109 55.4645 20.9049H54.7711C54.4443 20.9049 54.1772 20.6384 54.1772 20.3124C54.1772 19.9863 54.4443 19.7198 54.7711 19.7198H55.2971C55.2971 19.7198 55.3051 19.7119 55.3091 19.7079C55.2812 19.3818 55.3091 19.0478 55.333 18.7297H54.7711C54.4443 18.7297 54.1772 18.4632 54.1772 18.1372C54.1772 17.8111 54.4443 17.5447 54.7711 17.5447H55.5323C55.7794 16.459 56.3015 15.4967 57.0348 14.7491C58.1347 13.6039 59.6492 12.908 61.4546 12.908C62.2875 12.908 63.0407 13.0392 63.6585 13.2261C64.1367 13.3692 64.4117 13.8663 64.2762 14.3475L64.2682 14.3713C64.1327 14.8525 63.6306 15.1428 63.1483 15.0036C62.69 14.8724 62.16 14.7809 61.602 14.7809C60.526 14.7809 59.5814 15.1627 58.8959 15.9023C58.4735 16.3159 58.1905 16.9164 58.0271 17.5407H63.0527C63.3795 17.5407 63.6465 17.8071 63.6465 18.1332C63.6465 18.4593 63.3795 18.7257 63.0527 18.7257H57.7521C57.7242 18.9404 57.7163 19.1711 57.7163 19.3977V19.7198H63.0527C63.3795 19.7198 63.6465 19.9863 63.6465 20.3124C63.6465 20.6384 63.3795 20.9049 63.0527 20.9049H57.9673C58.1148 21.6246 58.4217 22.2092 58.8401 22.6267C59.5575 23.3544 60.5618 23.7083 61.6817 23.7083C62.2636 23.7083 62.8176 23.601 63.2759 23.4578C63.7741 23.3067 64.2961 23.601 64.4237 24.102L64.4277 24.106Z" fill="#784600"/>
<path d="M33.3174 61.0047C31.7831 60.1338 30.0574 59.6964 28.1484 59.6964C26.2394 59.6964 24.5456 60.1338 23.0112 61.0047C21.4769 61.8756 20.2494 63.0686 19.3287 64.5757C18.4081 66.0828 17.9458 67.8047 17.9458 69.7333C17.9458 71.6619 18.4081 73.3838 19.3287 74.8909C20.2494 76.3981 21.4848 77.587 23.0312 78.4619C24.5775 79.3328 26.2832 79.7702 28.1484 79.7702C30.0136 79.7702 31.7472 79.3328 33.2856 78.4619C34.8199 77.591 36.0474 76.402 36.9681 74.8909C37.8887 73.3838 38.351 71.6619 38.351 69.7333C38.351 67.8047 37.8966 66.051 36.988 64.5558C36.0793 63.0606 34.8558 61.8756 33.3214 61.0047H33.3174ZM32.8033 72.7197C32.341 73.6025 31.7153 74.2905 30.9262 74.7875C30.1331 75.2806 29.2085 75.5312 28.1444 75.5312C27.0803 75.5312 26.1836 75.2846 25.3825 74.7875C24.5775 74.2944 23.9478 73.6025 23.4895 72.7197C23.0272 71.8369 22.8 70.8428 22.8 69.7333C22.8 68.6238 23.0312 67.6376 23.4895 66.7628C23.9518 65.8919 24.5815 65.208 25.3825 64.7149C26.1836 64.2218 27.1042 63.9712 28.1444 63.9712C29.1846 63.9712 30.1331 64.2178 30.9262 64.7149C31.7153 65.208 32.341 65.8919 32.8033 66.7628C33.2656 67.6337 33.4928 68.6238 33.4928 69.7333C33.4928 70.8428 33.2616 71.8369 32.8033 72.7197Z" fill="white"/>
<path d="M56.3612 61.0405C54.8986 60.1458 53.2566 59.6964 51.4393 59.6964C49.9527 59.6964 48.6415 59.9867 47.5097 60.5633C46.601 61.0246 45.8478 61.637 45.242 62.3965V60.1219H40.8501V86.4151H45.525V77.4996C46.0949 78.104 46.7724 78.5891 47.5615 78.959C48.7292 79.4998 50.0125 79.7702 51.4034 79.7702C53.2686 79.7702 54.9345 79.3288 56.3971 78.446C57.8597 77.5632 59.0195 76.3543 59.8684 74.8233C60.7173 73.2923 61.1437 71.5943 61.1437 69.7333C61.1437 67.8723 60.7133 66.1504 59.8524 64.6433C58.9916 63.1362 57.8278 61.9352 56.3652 61.0405H56.3612ZM55.616 72.7396C55.1417 73.6105 54.5001 74.2944 53.687 74.7875C52.874 75.2806 51.9335 75.5312 50.8694 75.5312C49.8053 75.5312 48.9404 75.2846 48.1234 74.7875C47.3104 74.2944 46.6727 73.6105 46.2104 72.7396C45.7481 71.8687 45.521 70.8666 45.521 69.7373C45.521 68.6079 45.7521 67.6416 46.2104 66.7668C46.6727 65.8959 47.3064 65.2119 48.1234 64.7188C48.9364 64.2257 49.8531 63.9752 50.8694 63.9752C51.8856 63.9752 52.87 64.2218 53.687 64.7188C54.5001 65.2119 55.1457 65.8959 55.616 66.7668C56.0862 67.6376 56.3254 68.6278 56.3254 69.7373C56.3254 70.8467 56.0902 71.8687 55.616 72.7396Z" fill="white"/>
<path d="M79.3131 62.488C78.512 61.6171 77.5356 60.9331 76.3918 60.44C75.248 59.9469 73.9168 59.6964 72.4064 59.6964C70.589 59.6964 68.959 60.1338 67.5203 61.0047C66.0816 61.8756 64.9338 63.0606 64.0849 64.5558C63.236 66.051 62.8096 67.7649 62.8096 69.6975C62.8096 71.6301 63.2241 73.2566 64.049 74.7875C64.874 76.3185 66.0377 77.5314 67.5362 78.4261C69.0347 79.3208 70.7764 79.7702 72.7611 79.7702C74.0603 79.7702 75.2639 79.5714 76.3718 79.1697C77.4798 78.7681 78.4363 78.2153 79.2413 77.5075C80.0424 76.7997 80.6362 75.9885 81.0108 75.0699L77.2566 73.2327C76.8302 73.9882 76.2483 74.5887 75.503 75.0341C74.7578 75.4834 73.8571 75.7061 72.793 75.7061C71.7289 75.7061 70.7923 75.4596 69.9753 74.9625C69.1623 74.4694 68.5445 73.7656 68.134 72.8589C67.887 72.3141 67.7315 71.7176 67.6638 71.0734H81.5369C81.6325 70.7911 81.6963 70.4769 81.7322 70.1389C81.7681 69.7969 81.784 69.451 81.784 69.097C81.784 67.8007 81.5728 66.5958 81.1463 65.4744C80.7199 64.357 80.1061 63.3588 79.3051 62.488H79.3131ZM67.7634 67.5064C67.8431 67.1008 67.9547 66.723 68.1022 66.3771C68.4927 65.4585 69.0626 64.7506 69.8199 64.2575C70.5771 63.7645 71.4379 63.5139 72.4064 63.5139C73.3748 63.5139 74.2875 63.7605 75.0088 64.2575C75.7302 64.7506 76.2483 65.4227 76.5671 66.2737C76.7146 66.6594 76.7983 67.073 76.8262 67.5104H67.7634V67.5064Z" fill="white"/>
<path d="M97.9726 60.615C96.8726 60.0026 95.6172 59.6964 94.2024 59.6964C92.7876 59.6964 91.6358 59.9986 90.6076 60.5991C89.8145 61.0644 89.1967 61.6927 88.7464 62.488V60.1219H84.3545V79.3487H89.0294V68.0751C89.0294 67.2281 89.1928 66.4964 89.5235 65.884C89.8543 65.2716 90.3126 64.8023 90.9065 64.4723C91.4963 64.1422 92.1698 63.9792 92.9271 63.9792C93.6843 63.9792 94.3538 64.1462 94.9477 64.4723C95.5375 64.8023 95.9998 65.2716 96.3306 65.884C96.6614 66.4964 96.8248 67.2281 96.8248 68.0751V79.3487H101.464V66.9815C101.464 65.546 101.157 64.2774 100.543 63.1839C99.9294 62.0903 99.0725 61.2353 97.9765 60.623V60.615H97.9726Z" fill="white"/>
<path d="M111.096 82.5139L5.81414 91.7046C2.31022 92.0105 -0.281763 95.0926 0.0247907 98.5888L2.00677 121.193C2.31332 124.689 5.40232 127.275 8.90624 126.969L114.189 117.779C117.692 117.473 120.284 114.391 119.978 110.894L117.996 88.2905C117.689 84.7943 114.6 82.2081 111.096 82.5139Z" fill="#00A05A"/>
<path d="M8.77942 120.467L6.83057 98.2295L15.3832 97.4819C16.9176 97.3467 18.3045 97.4978 19.536 97.9313C20.7675 98.3647 21.7718 99.0805 22.541 100.075C23.3101 101.069 23.7645 102.345 23.9 103.896C24.0315 105.407 23.8003 106.719 23.2065 107.837C22.6127 108.95 21.7439 109.833 20.6041 110.485C19.4642 111.137 18.1371 111.527 16.6227 111.658L12.705 112L13.4104 120.057L8.77544 120.463L8.77942 120.467ZM12.3583 107.972L16.3078 107.626C16.9654 107.57 17.5234 107.392 17.9777 107.089C18.432 106.791 18.7748 106.397 19.0059 105.916C19.2371 105.435 19.3248 104.894 19.2729 104.298C19.2171 103.681 19.0378 103.156 18.7269 102.723C18.4161 102.29 18.0136 101.964 17.5114 101.745C17.0092 101.53 16.4314 101.447 15.7738 101.506L11.8243 101.852L12.3623 107.972H12.3583Z" fill="white"/>
<path d="M35.4135 110.02L32.1216 110.306L32.827 118.363L28.192 118.769L26.2432 96.5315L34.7679 95.7879C36.3023 95.6527 37.6892 95.8038 38.9207 96.2372C40.1522 96.6707 41.1565 97.3864 41.9257 98.3806C42.6948 99.3747 43.1492 100.651 43.2847 102.202C43.4162 103.713 43.1811 105.033 42.5753 106.159C41.9695 107.284 41.1047 108.167 39.9728 108.807L45.8353 117.226L40.6304 117.679L35.4056 110.016L35.4135 110.02ZM31.7709 106.278L35.6885 105.936C36.3461 105.88 36.9041 105.701 37.3584 105.399C37.8127 105.101 38.1555 104.707 38.3866 104.226C38.6178 103.745 38.7055 103.204 38.6537 102.608C38.5979 101.991 38.4185 101.466 38.1077 101.033C37.7968 100.6 37.3943 100.273 36.8921 100.055C36.39 99.84 35.8121 99.7565 35.1545 99.8161L31.2369 100.158L31.7749 106.278H31.7709Z" fill="white"/>
<path d="M48.1432 117.031L46.1943 94.7977L50.8293 94.3921L52.7782 116.629L48.1432 117.035V117.031Z" fill="white"/>
<path d="M67.3488 115.715C65.7547 115.854 64.2482 115.695 62.8294 115.237C61.4106 114.78 60.1512 114.076 59.0433 113.134C57.9354 112.191 57.0347 111.042 56.3452 109.698C55.6557 108.354 55.2373 106.859 55.0938 105.208C54.9503 103.558 55.0938 102.007 55.5282 100.552C55.9626 99.1004 56.6441 97.8199 57.5727 96.7025C58.5013 95.589 59.6212 94.6903 60.9364 94.0024C62.2515 93.3144 63.7182 92.9009 65.3322 92.7617C66.9463 92.6185 68.4209 92.7617 69.756 93.1872C71.0911 93.6127 72.2429 94.233 73.2193 95.0482C74.1957 95.8634 74.9211 96.8059 75.3953 97.8676L71.4697 100.194C70.9955 99.1521 70.2542 98.3209 69.2459 97.6966C68.2376 97.0723 67.0539 96.8218 65.6989 96.9411C64.3837 97.0564 63.2519 97.466 62.3113 98.1698C61.3668 98.8737 60.6693 99.7923 60.215 100.926C59.7607 102.059 59.5973 103.351 59.7248 104.803C59.8523 106.254 60.2389 107.503 60.8806 108.553C61.5262 109.599 62.3711 110.386 63.4232 110.915C64.4754 111.444 65.659 111.65 66.9742 111.539C68.3292 111.42 69.4491 110.966 70.3379 110.179C71.2226 109.392 71.8085 108.441 72.0915 107.336L76.3638 108.946C76.0808 110.072 75.5308 111.126 74.7099 112.096C73.8929 113.07 72.8606 113.881 71.6212 114.529C70.3817 115.178 68.955 115.575 67.3409 115.715H67.3488Z" fill="white"/>
<path d="M79.819 114.263L77.8701 92.026L92.8552 90.7177L93.2099 94.746L82.8598 95.6487L83.3022 100.691L93.0544 99.84L93.4091 103.868L83.6569 104.719L84.1033 109.821L94.4533 108.919L94.808 112.947L79.823 114.255L79.819 114.263Z" fill="white"/>
<path d="M105.577 112.378C104.182 112.501 102.847 112.362 101.575 111.961C100.304 111.559 99.184 110.931 98.2155 110.072C97.2471 109.213 96.4858 108.167 95.9359 106.934L99.5865 104.902C100.252 106.067 101.109 106.954 102.157 107.566C103.205 108.179 104.329 108.429 105.525 108.326C106.162 108.27 106.704 108.123 107.143 107.885C107.585 107.646 107.92 107.34 108.147 106.97C108.374 106.6 108.47 106.175 108.426 105.697C108.382 105.181 108.183 104.751 107.832 104.413C107.482 104.071 106.955 103.825 106.258 103.661L101.766 102.612C99.9412 102.19 98.5343 101.486 97.542 100.5C96.5496 99.5139 95.9917 98.2732 95.8601 96.782C95.7446 95.4697 95.9677 94.2847 96.5297 93.2349C97.0916 92.1851 97.9286 91.3301 99.0485 90.67C100.164 90.0099 101.484 89.6162 102.998 89.481C104.333 89.3657 105.592 89.485 106.768 89.8429C107.944 90.2007 108.984 90.7615 109.885 91.525C110.785 92.2885 111.495 93.2389 112.017 94.3762L108.398 96.4042C107.888 95.4061 107.191 94.6505 106.302 94.1376C105.413 93.6246 104.429 93.4138 103.353 93.5093C102.735 93.5649 102.193 93.7121 101.735 93.9507C101.272 94.1932 100.93 94.5074 100.702 94.8971C100.475 95.2868 100.384 95.7202 100.423 96.2014C100.467 96.7184 100.678 97.1558 101.049 97.5137C101.424 97.8716 101.958 98.13 102.655 98.2891L107.055 99.2872C108.9 99.7087 110.311 100.397 111.292 101.355C112.268 102.313 112.826 103.538 112.953 105.029C113.069 106.322 112.83 107.503 112.24 108.565C111.65 109.63 110.785 110.497 109.65 111.165C108.514 111.837 107.155 112.239 105.581 112.378H105.577Z" fill="white"/>
</g>
<defs>
<clipPath id="clip0_14787_2525">
<rect width="120" height="127" fill="white"/>
</clipPath>
</defs>
</svg>
