<?xml version="1.0" encoding="UTF-8"?>
<svg width="49px" height="29px" viewBox="0 0 49 29" version="1.1" xmlns="http://www.w3.org/2000/svg" xmlns:xlink="http://www.w3.org/1999/xlink">
    <title>Group 2</title>
    <g id="Product-addition-V1.5" stroke="none" stroke-width="1" fill="none" fill-rule="evenodd">
        <g id="Etape-1-(init)" transform="translate(-325, -594)">
            <g id="Group" transform="translate(32, 540)">
                <g id="Group-2" transform="translate(293, 54)">
                    <path d="M40.069,6.2637 L8.905,6.2637 C3.987,6.2637 -2.84217094e-14,10.2497 -2.84217094e-14,15.1677 L-2.84217094e-14,28.2507 L6.207,28.2507 C6.207,18.1547 14.391,9.9707 24.487,9.9707 C34.583,9.9707 42.767,18.1547 42.767,28.2507 L48.973,28.2507 L48.973,15.1677 C48.973,10.2497 44.987,6.2637 40.069,6.2637" id="Fill-1153" fill="#BEBEBE"></path>
                    <path d="M34.5651,0 L27.9631,0 C26.5731,0 25.3531,0.926 24.9801,2.265 L23.8641,6.264 L38.6631,6.264 L37.5481,2.265 C37.1751,0.926 35.9551,0 34.5651,0" id="Fill-1155" fill="#646464"></path>
                    <path d="M14.9119,2.4872 L11.3359,2.4872 C10.7979,2.4872 10.3609,2.9232 10.3609,3.4622 L10.3609,6.2632 L15.8869,6.2632 L15.8869,3.4622 C15.8869,2.9232 15.4499,2.4872 14.9119,2.4872" id="Fill-1157" fill="#646464"></path>
                    <path d="M42.2427,15.2045 L42.2297,15.2045 C40.9287,15.2045 39.8747,14.1505 39.8747,12.8495 C39.8747,11.5495 40.9287,10.4945 42.2297,10.4945 L42.2427,10.4945 C43.5437,10.4945 44.5977,11.5495 44.5977,12.8495 C44.5977,14.1505 43.5437,15.2045 42.2427,15.2045" id="Fill-1159" fill="#FFE600"></path>
                    <path d="M24.4869,9.9709 C14.3909,9.9709 6.2069,18.1549 6.2069,28.2509 L11.4399,28.2509 C11.4399,21.0459 17.2819,15.2049 24.4869,15.2049 C31.6919,15.2049 37.5329,21.0459 37.5329,28.2509 L42.7669,28.2509 C42.7669,18.1549 34.5829,9.9709 24.4869,9.9709" id="Fill-1161" fill="#646464"></path>
                    <path d="M24.4869,15.2044 C17.2819,15.2044 11.4399,21.0454 11.4399,28.2504 L37.5329,28.2504 C37.5329,21.0454 31.6919,15.2044 24.4869,15.2044" id="Fill-1163" fill="#82DCFF"></path>
                    <path d="M32.9412,24.4561 C32.6082,24.4561 32.2872,24.2761 32.1222,23.9611 C31.7002,23.1581 31.1522,22.4331 30.4932,21.8051 C30.1222,21.4531 30.1082,20.8681 30.4602,20.4981 C30.8122,20.1281 31.3972,20.1141 31.7672,20.4651 C32.5732,21.2321 33.2432,22.1191 33.7592,23.1021 C33.9962,23.5541 33.8222,24.1131 33.3702,24.3501 C33.2332,24.4221 33.0862,24.4561 32.9412,24.4561" id="Fill-1165" fill="#FFFFFF"></path>
                    <path d="M28.7108,20.4022 C28.5788,20.4022 28.4448,20.3732 28.3178,20.3142 C28.0428,20.1842 27.7588,20.0692 27.4728,19.9712 C26.9898,19.8052 26.7328,19.2792 26.8988,18.7962 C27.0638,18.3142 27.5898,18.0562 28.0728,18.2222 C28.4218,18.3422 28.7698,18.4832 29.1058,18.6412 C29.5668,18.8582 29.7658,19.4092 29.5478,19.8712 C29.3908,20.2062 29.0578,20.4022 28.7108,20.4022" id="Fill-1167" fill="#FFFFFF"></path>
                </g>
            </g>
        </g>
    </g>
</svg>