<?xml version="1.0" encoding="UTF-8"?>
<svg width="49px" height="39px" viewBox="0 0 49 39" version="1.1" xmlns="http://www.w3.org/2000/svg" xmlns:xlink="http://www.w3.org/1999/xlink">
    <title>Group 3</title>
    <g id="Product-addition-V1.5" stroke="none" stroke-width="1" fill="none" fill-rule="evenodd">
        <g id="Etape-1-(init)" transform="translate(-312, -369)">
            <g id="Group" transform="translate(32, 326)">
                <g id="Group-3" transform="translate(280, 43)">
                    <path d="M24.4792,14.311 C27.1232,14.311 29.6672,14.735 32.0532,15.511 L32.0532,9.596 C32.0532,9.085 31.6392,8.671 31.1282,8.671 L28.5922,8.671 L28.5922,2.437 L32.5912,2.437 C33.2642,2.437 33.8092,1.891 33.8092,1.219 C33.8092,0.546 33.2642,-2.66453526e-15 32.5912,-2.66453526e-15 L28.5922,-2.66453526e-15 L24.5292,-2.66453526e-15 L21.2922,-2.66453526e-15 C20.7812,-2.66453526e-15 20.3672,0.414 20.3672,0.925 L20.3672,8.671 L17.8302,8.671 C17.3192,8.671 16.9052,9.085 16.9052,9.596 L16.9052,15.511 C19.2912,14.735 21.8352,14.311 24.4792,14.311" id="Fill-1201" fill="#008C8C"></path>
                    <path d="M0,38.7902 C0,25.2712 10.96,14.3112 24.479,14.3112 C37.999,14.3112 48.958,25.2712 48.958,38.7902 L0,38.7902 Z" id="Fill-1205" fill="#82DCFF"></path>
                </g>
            </g>
        </g>
    </g>
</svg>