<?xml version="1.0" encoding="UTF-8"?>
<svg width="49px" height="29px" viewBox="0 0 49 29" version="1.1" xmlns="http://www.w3.org/2000/svg" xmlns:xlink="http://www.w3.org/1999/xlink">
    <title>Group 5</title>
    <g id="Product-addition-V1.5" stroke="none" stroke-width="1" fill="none" fill-rule="evenodd">
        <g id="Etape-1-(init)" transform="translate(-326, -486)">
            <g id="Group" transform="translate(32, 433)">
                <g id="Group-5" transform="translate(294, 53)">
                    <path d="M49.008,28.9535834 C49.008,23.8295834 47.433,19.0745834 44.744,15.1415834 L46.664,2.24458335 C46.892,0.710583355 45.329,-0.464416645 43.919,0.180583355 L32.015,5.62658335 C29.647,4.86558335 27.125,4.44958335 24.504,4.44958335 C21.864,4.44958335 19.325,4.87158335 16.942,5.64458335 L16.962,5.62958335 L5.052,0.180583355 C3.642,-0.464416645 2.079,0.710583355 2.307,2.24458335 L4.234,15.1845834 C1.563,19.1095834 2.84217094e-14,23.8485834 2.84217094e-14,28.9535834 L10.362,28.9535834 C10.242,28.0475834 10.172,27.1045834 10.172,26.1295834 C10.172,19.6145834 13.006,14.3325834 16.502,14.3325834 C19.769,14.3325834 22.457,18.9455834 22.796,24.8655834 C23.321,24.6395834 23.898,24.5135834 24.504,24.5135834 C25.11,24.5135834 25.688,24.6395834 26.212,24.8655834 C26.551,18.9455834 29.239,14.3325834 32.506,14.3325834 C36.002,14.3325834 38.836,19.6145834 38.836,26.1295834 C38.836,27.1045834 38.766,28.0475834 38.646,28.9535834 L49.008,28.9535834 Z" id="Fill-1241" fill="#AAAAAA"></path>
                    <path d="M16.5023,14.3325834 C13.0063,14.3325834 10.1713,19.6145834 10.1713,26.1295834 C10.1713,27.1045834 10.2423,28.0475834 10.3613,28.9535834 L22.6433,28.9535834 C22.7623,28.0475834 22.8333,27.1045834 22.8333,26.1295834 C22.8333,19.6145834 19.9983,14.3325834 16.5023,14.3325834" id="Fill-1243" fill="#FFFFFF"></path>
                    <path d="M38.8364,26.1298834 C38.8364,19.6138834 36.0024,14.3328834 32.5054,14.3328834 C29.0094,14.3328834 26.1754,19.6138834 26.1754,26.1298834 C26.1754,27.1048834 26.2454,28.0468834 26.3654,28.9538834 L38.6464,28.9538834 C38.7664,28.0468834 38.8364,27.1048834 38.8364,26.1298834" id="Fill-1245" fill="#FFFFFF"></path>
                    <path d="M32.5058,16.7093834 C32.3078,16.7093834 32.1148,16.7353834 31.9258,16.7763834 C32.2758,17.0373834 32.5058,17.4493834 32.5058,17.9183834 C32.5058,18.7083834 31.8638,19.3483834 31.0708,19.3483834 C30.4708,19.3483834 29.9578,18.9793834 29.7438,18.4573834 C29.2808,19.2253834 29.0018,20.1893834 29.0018,21.2383834 C29.0018,23.7403834 30.5708,25.7673834 32.5058,25.7673834 C34.4408,25.7673834 36.0098,23.7403834 36.0098,21.2383834 C36.0098,18.7373834 34.4408,16.7093834 32.5058,16.7093834" id="Fill-1247" fill="#000000"></path>
                    <path d="M19.2956,18.5114834 C19.0696,19.0044834 18.5726,19.3484834 17.9936,19.3484834 C17.2016,19.3484834 16.5586,18.7084834 16.5586,17.9184834 C16.5586,17.4544834 16.7846,17.0464834 17.1276,16.7854834 C16.9246,16.7384834 16.7166,16.7094834 16.5026,16.7094834 C14.5666,16.7094834 12.9986,18.7374834 12.9986,21.2384834 C12.9986,23.7394834 14.5666,25.7674834 16.5026,25.7674834 C18.4376,25.7674834 20.0066,23.7394834 20.0066,21.2384834 C20.0066,20.2134834 19.7396,19.2704834 19.2956,18.5114834" id="Fill-1249" fill="#000000"></path>
                    <path d="M28.8777,28.9535834 C28.8777,26.5015834 26.9197,24.5135834 24.5037,24.5135834 C22.0887,24.5135834 20.1307,26.5015834 20.1307,28.9535834 L28.8777,28.9535834 Z" id="Fill-1251" fill="#000000"></path>
                    <path d="M42.3017,12.1202834 L43.5397,3.80228335 C43.5607,3.66228335 43.4187,3.55528335 43.2897,3.61428335 L35.6247,7.12128335 C38.1307,8.40028335 40.3867,10.0962834 42.3017,12.1202834" id="Fill-1255" fill="#FFE6DC"></path>
                    <path d="M20.2439,10.8615834 C19.8609,10.8615834 19.5509,10.5515834 19.5509,10.1685834 L19.5509,5.16858335 C19.5509,4.78558335 19.8609,4.47558335 20.2439,4.47558335 C20.6269,4.47558335 20.9369,4.78558335 20.9369,5.16858335 L20.9369,10.1685834 C20.9369,10.5515834 20.6269,10.8615834 20.2439,10.8615834" id="Fill-1257" fill="#000000"></path>
                    <path d="M28.7466,10.8615834 C28.3636,10.8615834 28.0536,10.5515834 28.0536,10.1685834 L28.0536,5.16858335 C28.0536,4.78558335 28.3636,4.47558335 28.7466,4.47558335 C29.1296,4.47558335 29.4396,4.78558335 29.4396,5.16858335 L29.4396,10.1685834 C29.4396,10.5515834 29.1296,10.8615834 28.7466,10.8615834" id="Fill-1259" fill="#000000"></path>
                    <path d="M24.4953,13.3780834 C24.1123,13.3780834 23.8023,13.0680834 23.8023,12.6850834 L23.8023,4.80208335 C23.8023,4.41908335 24.1123,4.10908335 24.4953,4.10908335 C24.8783,4.10908335 25.1883,4.41908335 25.1883,4.80208335 L25.1883,12.6850834 C25.1883,13.0680834 24.8783,13.3780834 24.4953,13.3780834" id="Fill-1261" fill="#000000"></path>
                    <path d="M13.3655,7.12978335 L5.6815,3.61378335 C5.5525,3.55478335 5.4105,3.66178335 5.4315,3.80178335 L6.6745,12.1537834 C8.5925,10.1197834 10.8525,8.41478335 13.3655,7.12978335" id="Fill-1263" fill="#FFE6DC"></path>
                </g>
            </g>
        </g>
    </g>
</svg>