<?xml version="1.0" encoding="UTF-8"?>
<svg width="49px" height="37px" viewBox="0 0 49 37" version="1.1" xmlns="http://www.w3.org/2000/svg" xmlns:xlink="http://www.w3.org/1999/xlink">
    <title>Group 4</title>
    <g id="Product-addition-V1.5" stroke="none" stroke-width="1" fill="none" fill-rule="evenodd">
        <g id="Etape-1-(init)" transform="translate(-338, -264)">
            <g id="Group" transform="translate(32, 219)">
                <g id="Group-4" transform="translate(306, 45)">
                    <path d="M0,36.7911 C0,23.2651 10.965,12.2991 24.492,12.2991 C38.019,12.2991 48.984,23.2651 48.984,36.7911 L0,36.7911 Z" id="Fill-1101" fill="#FF8C14"></path>
                    <path d="M33.9057,21.7255 C33.4907,22.3435 32.6537,22.5085 32.0357,22.0935 C31.4177,21.6795 31.2527,20.8425 31.6677,20.2245 C32.0827,19.6065 32.9197,19.4415 33.5377,19.8555 C34.1557,20.2705 34.3207,21.1075 33.9057,21.7255" id="Fill-1103" fill="#8C3C00"></path>
                    <path d="M40.4647,27.7487 C40.0497,28.3667 39.2127,28.5317 38.5947,28.1167 C37.9767,27.7027 37.8117,26.8657 38.2267,26.2477 C38.6417,25.6297 39.4787,25.4647 40.0967,25.8787 C40.7147,26.2937 40.8797,27.1307 40.4647,27.7487" id="Fill-1105" fill="#8C3C00"></path>
                    <path d="M33.0445,29.2217 C32.6295,29.8397 31.7925,30.0047 31.1745,29.5897 C30.5565,29.1757 30.3915,28.3387 30.8065,27.7207 C31.2215,27.1017 32.0585,26.9377 32.6765,27.3517 C33.2945,27.7667 33.4595,28.6037 33.0445,29.2217" id="Fill-1107" fill="#8C3C00"></path>
                    <path d="M34.6209,4.26325641e-14 C29.8039,4.26325641e-14 25.6199,2.684 23.4669,6.635 C25.1249,8.177 26.3739,10.152 27.0229,12.386 C32.6279,11.128 36.8339,6.175 36.9319,0.214 C36.1819,0.076 35.4109,4.26325641e-14 34.6209,4.26325641e-14" id="Fill-1111" fill="#00641E"></path>
                    <path d="M14.826,3.2305 C13.873,3.2305 12.945,3.3385 12.052,3.5375 C13.585,8.8315 18.465,12.7035 24.252,12.7035 C25.205,12.7035 26.133,12.5945 27.026,12.3955 C25.494,7.1025 20.613,3.2305 14.826,3.2305" id="Fill-1113" fill="#00961E"></path>
                </g>
            </g>
        </g>
    </g>
</svg>