<?xml version="1.0" encoding="UTF-8"?>
<svg width="40px" height="40px" viewBox="0 0 40 40" version="1.1" xmlns="http://www.w3.org/2000/svg" xmlns:xlink="http://www.w3.org/1999/xlink">
    <title>icons8-boring</title>
    <g id="Tagline" stroke="none" stroke-width="1" fill="none" fill-rule="evenodd">
        <g id="Artboard" transform="translate(-82, -732)" fill-rule="nonzero">
            <g id="Group-3" transform="translate(64.5, 722)">
                <g id="icons8-boring" transform="translate(17.5, 10)">
                    <path d="M20,0 C8.954305,0 0,8.954305 0,20 C0,31.045695 8.954305,40 20,40 C31.045695,40 40,31.045695 40,20 C40,8.954305 31.045695,0 20,0 Z" id="Path" fill="#FFCA28"></path>
                    <path d="M13,14 C10.790861,14 9,16.0147186 9,18.5 C9,20.9852814 10.790861,23 13,23 C15.209139,23 17,20.9852814 17,18.5 C17,16.0147186 15.209139,14 13,14 Z" id="Path" fill="#6D4C41"></path>
                    <path d="M11.5,16 C10.6715729,16 10,16.6715729 10,17.5 C10,18.3284271 10.6715729,19 11.5,19 C12.3284271,19 13,18.3284271 13,17.5 C13,16.6715729 12.3284271,16 11.5,16 L11.5,16 Z" id="Path" fill="#FFFFFF"></path>
                    <path d="M31,19.2 L31,20 C31,21.1 30.1,22 29,22 L25,22 C23.9,22 23,21.1 23,20 L23,19 C23,16.8 24.8,15 27,15 C27.1,15 27.3,15 27.4,15 C29.5,15.2 31,17.1 31,19.2 Z" id="Path" fill="#6D4C41"></path>
                    <path d="M24,17.5 C24,18.3284271 24.6715729,19 25.5,19 C26.3284271,19 27,18.3284271 27,17.5 C27,16.6715729 26.3284271,16 25.5,16 C24.6715729,16 24,16.6715729 24,17.5 Z" id="Path" fill="#FFFFFF"></path>
                    <path d="M14,32 L14,30 C16.6,30 18,29.4 19.3,28.9 C20.4,28.4 21.4,28 22.9,28 C25.2,28 26.7,29.3 26.8,29.4 L25.5,30.9 C25.5,30.9 24.5,30 23,30 C21.9,30 21.2,30.3 20.2,30.7 C18.7,31.3 17,32 14,32 Z" id="Path" fill="#B76C09"></path>
                </g>
            </g>
        </g>
    </g>
</svg>