<?xml version="1.0" encoding="UTF-8"?>
<svg width="40px" height="40px" viewBox="0 0 40 40" version="1.1" xmlns="http://www.w3.org/2000/svg" xmlns:xlink="http://www.w3.org/1999/xlink">
    <title>icons8-happy</title>
    <g id="Tagline" stroke="none" stroke-width="1" fill="none" fill-rule="evenodd">
        <g id="Artboard" transform="translate(-197, -732)" fill-rule="nonzero">
            <g id="Group-4" transform="translate(187, 722)">
                <g id="icons8-happy" transform="translate(10, 10)">
                    <path d="M40,20 C40,31 31,40 20,40 C9,40 0,31 0,20 C0,9 9,0 20,0 C31,0 40,9 40,20 Z" id="Path" fill="#FFCA28"></path>
                    <path d="M17,19 C17,21.2 15.2,23 13,23 C10.8,23 9,21.2 9,19 C9,16.8 10.8,15 13,15 C15.2,15 17,16.8 17,19 Z" id="Path" fill="#6D4C41"></path>
                    <path d="M13,17.5 C13,18.3 12.3,19 11.5,19 C10.7,19 10,18.3 10,17.5 C10,16.7 10.7,16 11.5,16 C12.3,16 13,16.7 13,17.5 Z" id="Path" fill="#FFFFFF"></path>
                    <path d="M31,19 C31,21.2 29.2,23 27,23 C24.8,23 23,21.2 23,19 C23,16.8 24.8,15 27,15 C29.2,15 31,16.8 31,19 Z" id="Path" fill="#6D4C41"></path>
                    <path d="M27,17.5 C27,18.3 26.3,19 25.5,19 C24.7,19 24,18.3 24,17.5 C24,16.7 24.7,16 25.5,16 C26.3,16 27,16.7 27,17.5 Z" id="Path" fill="#FFFFFF"></path>
                    <path d="M20,33 C17.2,33 15,30.8 15,28 L17,28 C17,29.7 18.3,31 20,31 C21.7,31 23,29.7 23,28 L25,28 C25,30.8 22.8,33 20,33 Z" id="Path" fill="#B76C09"></path>
                </g>
            </g>
        </g>
    </g>
</svg>