<svg width="129" height="157" viewBox="0 0 129 157" fill="none" xmlns="http://www.w3.org/2000/svg">
<path d="M33.8792 129.91C32.4095 129.91 31.129 130.178 30.0455 130.714C28.9581 131.25 28.1267 132.026 27.5436 133.042C26.9605 134.059 26.6689 135.3 26.6689 136.77V137.365H23.3081V141.462H26.6689V156.415H31.2551V141.462H35.4906V137.365H31.2551V136.77C31.2551 135.789 31.5349 135.071 32.0943 134.614C32.6538 134.157 33.4497 133.933 34.4741 133.933C34.6356 133.933 34.8169 133.941 35.0178 133.949C35.2148 133.96 35.4315 133.988 35.664 134.035V130.079C35.4315 130.032 35.1439 129.993 34.8051 129.957C34.4662 129.922 34.1589 129.906 33.8792 129.906V129.91Z" fill="white"/>
<path d="M49.0719 137.806C47.882 137.235 46.503 136.947 44.9388 136.947C43.6544 136.947 42.4645 137.156 41.3692 137.577C40.2699 137.999 39.3204 138.574 38.5166 139.311C37.7129 140.048 37.1219 140.914 36.7475 141.919L40.4945 143.739C40.8452 142.9 41.4007 142.211 42.1572 141.675C42.9137 141.139 43.7844 140.871 44.7655 140.871C45.8175 140.871 46.6567 141.147 47.2871 141.695C47.9175 142.242 48.2327 142.928 48.2327 143.743V144.362L42.5945 145.284C41.1013 145.516 39.8641 145.914 38.883 146.474C37.902 147.033 37.1731 147.731 36.6963 148.558C36.2157 149.386 35.9792 150.327 35.9792 151.375C35.9792 152.423 36.2472 153.436 36.783 154.263C37.3189 155.091 38.0832 155.729 39.0761 156.17C40.069 156.611 41.2313 156.836 42.5591 156.836C43.611 156.836 44.5606 156.694 45.4116 156.414C46.2627 156.135 47.0349 155.713 47.7244 155.154C48.0042 154.925 48.2642 154.673 48.5124 154.405V156.414H52.8543V143.739C52.8543 142.408 52.5234 141.23 51.8575 140.201C51.1916 139.173 50.2657 138.373 49.0758 137.802L49.0719 137.806ZM47.6377 151.025C47.2398 151.75 46.6764 152.313 45.9396 152.723C45.2028 153.132 44.3597 153.337 43.4022 153.337C42.6536 153.337 42.0311 153.144 41.5307 152.758C41.0303 152.372 40.7782 151.852 40.7782 151.202C40.7782 150.552 40.9988 149.98 41.444 149.575C41.8853 149.165 42.563 148.881 43.4732 148.716L48.2366 147.869V148.68C48.2366 149.519 48.0396 150.304 47.6417 151.025H47.6377Z" fill="white"/>
<path d="M62.5782 141.899C63.3583 141.423 64.2527 141.182 65.2574 141.182C66.3291 141.182 67.2826 141.47 68.11 142.041C68.9374 142.613 69.5284 143.389 69.8791 144.37L73.9058 142.585C73.5315 141.466 72.9207 140.485 72.0658 139.642C71.2147 138.803 70.2021 138.141 69.0359 137.664C67.8697 137.187 66.6088 136.947 65.2535 136.947C63.3386 136.947 61.6287 137.38 60.1236 138.243C58.6185 139.106 57.4326 140.288 56.5697 141.781C55.7068 143.275 55.2734 144.969 55.2734 146.86C55.2734 148.751 55.7108 150.449 56.5855 151.954C57.4601 153.459 58.6461 154.649 60.1394 155.524C61.6326 156.399 63.3386 156.836 65.2495 156.836C66.6246 156.836 67.8972 156.596 69.0674 156.119C70.2337 155.642 71.2384 154.976 72.0776 154.121C72.9168 153.27 73.5236 152.305 73.8979 151.233L69.8712 149.413C69.4969 150.394 68.9098 151.174 68.1021 151.757C67.2984 152.341 66.3449 152.632 65.2495 152.632C64.2448 152.632 63.3544 152.388 62.5703 151.895C61.7863 151.407 61.1756 150.729 60.7304 149.866C60.2851 149.003 60.0645 148.01 60.0645 146.891C60.0645 145.773 60.2851 144.807 60.7304 143.933C61.1716 143.058 61.7863 142.38 62.5703 141.903L62.5782 141.899Z" fill="white"/>
<path d="M86.0175 152.597C85.2689 152.597 84.6582 152.478 84.1775 152.246C83.6968 152.014 83.3501 151.675 83.1255 151.229C82.9049 150.788 82.7946 150.248 82.7946 149.618V141.458H87.1719V137.361H82.7946V133.019H78.1729V134.488C78.1729 135.422 77.9208 136.135 77.4204 136.624C76.92 137.112 76.199 137.361 75.2652 137.361H74.9146V141.458H78.169V149.862C78.169 152.01 78.7639 153.672 79.9538 154.85C81.1437 156.028 82.8143 156.619 84.9616 156.619C85.3122 156.619 85.6984 156.596 86.116 156.548C86.5376 156.501 86.9079 156.454 87.235 156.407V152.486C87.0261 152.51 86.8094 152.534 86.5888 152.557C86.3682 152.581 86.1751 152.593 86.0096 152.593L86.0175 152.597Z" fill="white"/>
<path d="M98.8895 145.489L95.8439 144.579C95.3987 144.437 95.0086 144.287 94.6698 144.122C94.3309 143.96 94.067 143.747 93.8818 143.491C93.6966 143.235 93.602 142.944 93.602 142.617C93.602 142.033 93.8227 141.573 94.2679 141.234C94.7092 140.895 95.3199 140.725 96.0882 140.725C97.0456 140.725 97.9085 140.978 98.6807 141.478C99.449 141.978 100.001 142.664 100.328 143.527L103.83 141.88C103.247 140.316 102.266 139.102 100.887 138.239C99.5081 137.376 97.9242 136.943 96.1236 136.943C94.7446 136.943 93.5272 137.187 92.4634 137.68C91.3996 138.168 90.5722 138.854 89.9772 139.729C89.3823 140.603 89.0828 141.624 89.0828 142.794C89.0828 144.102 89.4965 145.241 90.3239 146.206C91.1513 147.175 92.3609 147.88 93.9488 148.326L97.0653 149.2C97.4869 149.319 97.8573 149.464 98.1843 149.638C98.5113 149.811 98.7753 150.024 98.9723 150.268C99.1693 150.512 99.2717 150.824 99.2717 151.194C99.2717 151.801 99.0274 152.293 98.5349 152.664C98.0464 153.038 97.3923 153.223 96.5728 153.223C95.4972 153.223 94.524 152.92 93.6493 152.313C92.7746 151.706 92.093 150.867 91.6005 149.791L88.1333 151.438C88.7164 153.097 89.7605 154.409 91.2656 155.378C92.7707 156.348 94.5398 156.832 96.5689 156.832C98.0149 156.832 99.2757 156.588 100.351 156.095C101.423 155.607 102.266 154.921 102.873 154.047C103.48 153.172 103.783 152.163 103.783 151.017C103.783 149.661 103.358 148.519 102.506 147.585C101.655 146.651 100.446 145.95 98.8817 145.485L98.8895 145.489Z" fill="white"/>
<path d="M38.1778 63.9621C36.6609 63.0993 34.9549 62.6659 33.0676 62.6659C31.1804 62.6659 29.5059 63.0993 27.989 63.9621C26.472 64.825 25.2585 66.007 24.3484 67.5003C23.4382 68.9935 22.9812 70.6996 22.9812 72.6105C22.9812 74.5214 23.4382 76.2274 24.3484 77.7207C25.2585 79.2139 26.4799 80.392 28.0087 81.2588C29.5374 82.1217 31.2237 82.5551 33.0676 82.5551C34.9116 82.5551 36.6255 82.1217 38.1463 81.2588C39.6632 80.3959 40.8767 79.2179 41.7869 77.7207C42.697 76.2274 43.1541 74.5214 43.1541 72.6105C43.1541 70.6996 42.7049 68.962 41.8066 67.4806C40.9083 65.9991 39.6987 64.825 38.1818 63.9621H38.1778ZM37.6696 75.5694C37.2125 76.4441 36.5939 77.1257 35.8138 77.6182C35.0298 78.1068 34.1157 78.355 33.0637 78.355C32.0117 78.355 31.1252 78.1107 30.3333 77.6182C29.5374 77.1297 28.9149 76.4441 28.4618 75.5694C28.0047 74.6947 27.7801 73.7097 27.7801 72.6105C27.7801 71.5112 28.0087 70.5341 28.4618 69.6673C28.9188 68.8044 29.5413 68.1267 30.3333 67.6382C31.1252 67.1496 32.0353 66.9014 33.0637 66.9014C34.092 66.9014 35.0298 67.1457 35.8138 67.6382C36.5939 68.1267 37.2125 68.8044 37.6696 69.6673C38.1266 70.5302 38.3512 71.5112 38.3512 72.6105C38.3512 73.7097 38.1227 74.6947 37.6696 75.5694Z" fill="white"/>
<path d="M60.959 63.9976C59.5131 63.1111 57.8898 62.6659 56.0931 62.6659C54.6235 62.6659 53.3272 62.9535 52.2083 63.5248C51.31 63.9819 50.5653 64.5886 49.9664 65.3412V63.0875H45.6245V89.1388H50.2461V80.3053C50.8096 80.9042 51.4794 81.3849 52.2595 81.7513C53.4139 82.2872 54.6826 82.5551 56.0577 82.5551C57.9016 82.5551 59.5485 82.1177 60.9945 81.243C62.4405 80.3684 63.587 79.1706 64.4263 77.6537C65.2655 76.1368 65.687 74.4544 65.687 72.6105C65.687 70.7666 65.2615 69.0605 64.4105 67.5673C63.5594 66.074 62.409 64.8841 60.963 63.9976H60.959ZM60.2223 75.5891C59.7534 76.452 59.1191 77.1297 58.3153 77.6182C57.5115 78.1068 56.5817 78.355 55.5297 78.355C54.4777 78.355 53.6227 78.1107 52.815 77.6182C52.0113 77.1297 51.3809 76.452 50.9238 75.5891C50.4668 74.7263 50.2422 73.7334 50.2422 72.6144C50.2422 71.4955 50.4707 70.538 50.9238 69.6712C51.3809 68.8084 52.0073 68.1307 52.815 67.6421C53.6188 67.1536 54.525 66.9053 55.5297 66.9053C56.5344 66.9053 57.5076 67.1496 58.3153 67.6421C59.1191 68.1307 59.7573 68.8084 60.2223 69.6712C60.6872 70.5341 60.9236 71.5152 60.9236 72.6144C60.9236 73.7137 60.6911 74.7263 60.2223 75.5891Z" fill="white"/>
<path d="M83.6496 65.4318C82.8576 64.5689 81.8923 63.8912 80.7615 63.4027C79.6308 62.9141 78.3148 62.6659 76.8215 62.6659C75.0249 62.6659 73.4134 63.0993 71.9911 63.9621C70.5687 64.825 69.434 65.9991 68.5948 67.4806C67.7556 68.962 67.334 70.6602 67.334 72.575C67.334 74.4899 67.7437 76.1013 68.5593 77.6182C69.3749 79.1351 70.5254 80.3368 72.0068 81.2233C73.4883 82.1098 75.2101 82.5551 77.1722 82.5551C78.4566 82.5551 79.6465 82.3581 80.7418 81.9601C81.8372 81.5622 82.7828 81.0145 83.5786 80.3132C84.3706 79.6119 84.9576 78.8081 85.328 77.898L81.6165 76.0777C81.1949 76.8263 80.6197 77.4212 79.8829 77.8625C79.1461 78.3077 78.2557 78.5284 77.2037 78.5284C76.1517 78.5284 75.2258 78.2841 74.4181 77.7916C73.6144 77.303 73.0037 76.6056 72.5978 75.7073C72.3536 75.1675 72.1999 74.5765 72.1329 73.9383H85.8481C85.9427 73.6585 86.0057 73.3473 86.0412 73.0124C86.0766 72.6735 86.0924 72.3307 86.0924 71.9801C86.0924 70.6956 85.8835 69.5018 85.462 68.3907C85.0404 67.2836 84.4336 66.2946 83.6417 65.4318H83.6496ZM72.2314 70.4041C72.3102 70.0022 72.4205 69.6279 72.5663 69.2851C72.9524 68.375 73.5159 67.6736 74.2645 67.1851C75.0131 66.6965 75.8641 66.4483 76.8215 66.4483C77.7789 66.4483 78.6812 66.6926 79.3944 67.1851C80.1075 67.6736 80.6197 68.3395 80.9349 69.1827C81.0807 69.5648 81.1634 69.9746 81.191 70.408H72.2314V70.4041Z" fill="white"/>
<path d="M102.097 63.576C101.009 62.9693 99.7683 62.6659 98.3696 62.6659C96.9708 62.6659 95.8322 62.9653 94.8157 63.5603C94.0316 64.0213 93.4209 64.6438 92.9757 65.4318V63.0875H88.6338V82.1374H93.2554V70.9675C93.2554 70.1283 93.417 69.4033 93.744 68.7966C94.071 68.1898 94.5241 67.7249 95.1112 67.3978C95.6943 67.0708 96.3601 66.9093 97.1087 66.9093C97.8573 66.9093 98.5193 67.0748 99.1063 67.3978C99.6895 67.7249 100.146 68.1898 100.474 68.7966C100.801 69.4033 100.962 70.1283 100.962 70.9675V82.1374H105.548V69.884C105.548 68.4616 105.245 67.2048 104.638 66.1213C104.031 65.0378 103.184 64.1907 102.101 63.5839L102.097 63.576Z" fill="white"/>
<path d="M120.137 84.8234L5.8051 94.8262C2.59903 95.1067 0.227386 97.9331 0.507881 101.139L2.55005 124.481C2.83054 127.687 5.65696 130.059 8.86303 129.778L123.195 119.776C126.401 119.495 128.773 116.669 128.492 113.463L126.45 90.1206C126.169 86.9146 123.343 84.5429 120.137 84.8234Z" fill="#008C8C"/>
<path d="M25.0538 112.558C24.7583 111.853 24.2737 111.219 23.6 110.651C23.3518 110.442 23.0563 110.253 22.7371 110.076C23.005 109.765 23.2375 109.446 23.4069 109.107C23.8561 108.201 24.0373 107.271 23.9546 106.325C23.8364 104.989 23.4581 103.878 22.8159 102.988C22.1697 102.098 21.2951 101.447 20.1879 101.038C19.0808 100.628 17.7806 100.486 16.2913 100.62L7.14648 101.42L9.03769 123.047L18.1825 122.247C20.6962 122.026 22.611 121.266 23.9191 119.962C25.2272 118.657 25.7906 116.94 25.6054 114.812C25.5345 114.02 25.3533 113.267 25.0578 112.562L25.0538 112.558ZM11.973 104.796L16.9374 104.363C17.6348 104.304 18.2061 104.454 18.6592 104.812C19.1084 105.175 19.3645 105.683 19.4196 106.341C19.4787 106.999 19.3172 107.547 18.935 107.976C18.5528 108.409 18.013 108.658 17.3157 108.717L12.3512 109.15L11.9691 104.796H11.973ZM20.4677 117.306C19.9712 117.877 19.2699 118.2 18.3598 118.279L13.1905 118.732L12.694 113.07L17.8633 112.617C18.7735 112.539 19.5221 112.736 20.1091 113.212C20.6962 113.689 21.0271 114.351 21.102 115.202C21.1729 116.033 20.9641 116.735 20.4677 117.306Z" fill="white"/>
<path d="M33.3712 116.963L32.9378 112.003L42.3977 111.171L42.0589 107.255L32.595 108.082L32.1655 103.177L42.2086 102.298L41.8658 98.3781L27.3232 99.6507L29.2144 121.277L43.757 120.005L43.4142 116.085L33.3712 116.963Z" fill="white"/>
<path d="M50.8844 97.5862L45.459 119.855L50.3367 119.43L51.4005 114.891L59.3278 114.197L61.1639 118.484L66.0692 118.055L56.8614 97.0661L50.8804 97.5901L50.8844 97.5862ZM52.3107 110.86L54.3083 102.279L57.74 110.387L52.3107 110.864V110.86Z" fill="white"/>
<path d="M83.2162 94.7573L78.7167 95.1513L79.8908 108.563C79.9657 109.414 79.8435 110.202 79.5283 110.919C79.2092 111.64 78.7443 112.223 78.1296 112.665C77.515 113.11 76.7821 113.366 75.9311 113.441C75.0997 113.512 74.3354 113.386 73.6459 113.055C72.9564 112.724 72.389 112.235 71.9517 111.581C71.5143 110.927 71.2582 110.175 71.1834 109.324L70.0093 95.9117L65.5098 96.3057L66.7075 110.009C66.8454 111.597 67.3537 112.98 68.2284 114.162C69.1031 115.344 70.2378 116.234 71.6365 116.833C73.0352 117.432 74.5836 117.657 76.2896 117.507C77.9917 117.357 79.481 116.869 80.7537 116.033C82.0263 115.202 82.9916 114.126 83.6456 112.81C84.2997 111.494 84.5597 110.045 84.4218 108.457L83.2241 94.7534L83.2162 94.7573Z" fill="white"/>
<path d="M100.69 93.2286L85.3044 94.5761L85.6472 98.4964L91.1357 98.0157L92.6841 115.726L97.1836 115.332L95.6352 97.6217L101.033 97.1489L100.69 93.2286Z" fill="white"/>
<path d="M121.399 91.42L116.261 91.8692L112.636 99.8083L107.668 92.6218L102.53 93.0709L110.796 104.631L111.62 114.067L116.119 113.673L115.292 104.209L121.399 91.42Z" fill="white"/>
<path d="M64.4972 11.2803C66.5814 11.2803 68.5869 11.6152 70.4663 12.2259V7.56482C70.4663 7.16294 70.1393 6.83592 69.7374 6.83592H67.7398V1.92272H70.8918C71.4237 1.92272 71.8532 1.49327 71.8532 0.961364C71.8532 0.429462 71.4237 0 70.8918 0H61.9874C61.5855 0 61.2585 0.32702 61.2585 0.728902V6.83198H59.2609C58.859 6.83198 58.532 7.159 58.532 7.56088V12.2219C60.4114 11.6112 62.4168 11.2763 64.5011 11.2763L64.4972 11.2803Z" fill="#008C8C"/>
<path d="M55.1238 47.4614L51.6921 55.6566L56.2113 57.5518L59.6745 49.2856C61.219 49.6836 62.8344 49.8963 64.5011 49.8963C75.1588 49.8963 83.8268 41.2283 83.8268 30.5706H78.9294C78.9294 38.5254 72.4559 44.9989 64.5011 44.9989C56.5462 44.9989 50.0727 38.5254 50.0727 30.5706H45.1753C45.1753 37.8281 49.198 44.1597 55.1278 47.4614H55.1238Z" fill="white"/>
<path d="M45.2068 30.5706C45.2068 19.9168 53.8433 11.2803 64.4971 11.2803C75.1509 11.2803 83.7874 19.9168 83.7874 30.5706H45.2068Z" fill="#82DCFF"/>
</svg>
