<?xml version="1.0" encoding="UTF-8"?>
<svg width="19px" height="26px" viewBox="0 0 19 26" version="1.1" xmlns="http://www.w3.org/2000/svg" >
    <g stroke="none" fill="none" fill-rule="evenodd" stroke-width="1">
        <g transform="translate(-1.875, -1.5452)">
            <path d="M7.18858407,1.58384353 C4.02095349,1.58384353 2,6.69459883 2,9.36671963 C2,11.7773851 3.66012898,13.7901004 5.89143805,14.3703592 L5.89143805,26.2296178 C5.88482223,26.6974153 6.13059973,27.132537 6.53465754,27.3683664 C6.93871535,27.6041958 7.43845278,27.6041958 7.84251059,27.3683664 C8.2465684,27.132537 8.49234591,26.6974153 8.48573009,26.2296178 L8.48573009,14.3703592 C10.7170392,13.7901004 12.3771681,11.7773851 12.3771681,9.36671963 C12.3771681,6.69459883 10.3562146,1.58384353 7.18858407,1.58384353 Z" fill="#50453E" fill-rule="nonzero"></path>
            <path d="M15.1654607,1.55850871 C14.7388009,1.4749035 14.2686062,1.79396094 14.2686062,2.30082075 L14.2686062,19.7438878 L14.2686062,21.0410338 L14.2686062,26.2296178 C14.2619904,26.6974153 14.5077679,27.132537 14.9118257,27.3683664 C15.3158835,27.6041958 15.8156209,27.6041958 16.2196787,27.3683664 C16.6237365,27.132537 16.869514,26.6974153 16.8628982,26.2296178 L16.8628982,20.8383547 C19.0941528,20.2038856 20.7543363,18.0379682 20.7543363,15.8524497 C20.7543363,13.5565013 18.7218914,5.29276911 15.5581522,1.78398913 C15.4449762,1.65881454 15.3076811,1.58637698 15.1654607,1.55850871 Z" fill="#F2994A"></path>
        </g>
    </g>
</svg>