<?xml version="1.0" encoding="UTF-8"?>
<svg width="26px" height="22px" viewBox="0 0 26 22" version="1.1" xmlns="http://www.w3.org/2000/svg">
    <g stroke="none" fill="none" fill-rule="evenodd" stroke-width="1">
        <g transform="translate(-0.9998, 0)">
            <path d="M11.9874708,2.16840434e-19 L12.0372753,0.00124088993 C12.0778804,0.00333242563 12.1183201,0.00789819955 12.1583693,0.0149127899 L14.0001663,0.0149127899 C14.3608023,0.00981250038 14.6962477,0.199288086 14.8780541,0.51078564 C15.0598604,0.822283193 15.0598604,1.20754239 14.8780541,1.51903994 C14.6962477,1.83053749 14.3608023,2.02001308 14.0001663,2.01491279 L13.2814163,2.01491279 L14.7814163,8.01491279 L26.0001663,8.01491279 C26.5524511,8.01491279 27.0001663,8.46262804 27.0001663,9.01491279 C27.0001663,9.09522809 26.9901684,9.17523149 26.9708693,9.25319379 C26.9684135,9.26299838 26.9658092,9.27276516 26.9630573,9.28249079 L26.9571973,9.30397479 L25.3536823,14.8020218 C26.3449493,15.5323828 27.0001663,16.6985168 27.0001663,18.0149128 C27.0001663,20.2122068 25.1974603,22.0149128 23.0001663,22.0149128 C20.8028723,22.0149128 19.0001663,20.2122068 19.0001663,18.0149128 C19.0001663,17.2842388 19.2138093,16.6065428 19.5607133,16.0149128 L16.1583693,16.0149128 C16.0789754,16.027817 15.9983147,16.031096 15.9181353,16.0246788 C15.4247173,19.4023698 12.5105873,22.0149128 9.00016633,22.0149128 C5.48974583,22.0149128 2.57561493,19.4023698 2.08219753,16.0246788 C1.8013791,16.047786 1.52384173,15.9513615 1.31784178,15.7591196 C1.11184183,15.5668777 0.996493957,15.2966564 0.999922341,15.0149128 C0.999922341,12.4988638 2.17458113,10.2508278 4.00016633,8.78249079 L4.00016633,2.01491279 C4.00016633,0.92184999 4.90710353,0.0149127899 6.00016633,0.0149127899 L11.8282913,0.0149127899 C11.8644706,0.00834829691 11.9009844,0.00378406648 11.9376663,0.00124088993 C11.9708487,-0.000413629975 12.0040929,-0.000413629975 12.0372753,0.00124088993 Z M23.0001663,16.0149128 C21.8837523,16.0149128 21.0001663,16.8984988 21.0001663,18.0149128 C21.0001663,19.1313268 21.8837523,20.0149128 23.0001663,20.0149128 C24.1165803,20.0149128 25.0001663,19.1313268 25.0001663,18.0149128 C25.0001663,16.8984988 24.1165803,16.0149128 23.0001663,16.0149128 Z M9.00016633,10.0149128 C6.22689793,10.0149128 4.00016633,12.2416448 4.00016633,15.0149128 C4.00016633,17.7881808 6.22689793,20.0149128 9.00016633,20.0149128 C11.7734343,20.0149128 14.0001663,17.7881808 14.0001663,15.0149128 C14.0001663,12.2416448 11.7734343,10.0149128 9.00016633,10.0149128 Z M11.2189163,2.01491279 L6.00016633,2.01491279 L6.00016633,7.60475679 C6.92772593,7.22723379 7.93968003,7.01491279 9.00016633,7.01491279 C10.3334933,7.01491279 11.5899933,7.34992379 12.6974323,7.93092879 L11.2189163,2.01491279 Z"
                  fill="#50453E"></path>
            <path d="M9.00016633,13.0149128 C10.1047358,13.0149128 11.0001663,13.9103433 11.0001663,15.0149128 C11.0001663,16.1194823 10.1047358,17.0149128 9.00016633,17.0149128 C7.89559683,17.0149128 7.00016633,16.1194823 7.00016633,15.0149128 C7.00016633,13.9103433 7.89559683,13.0149128 9.00016633,13.0149128 Z M22.0001663,1.01491279 L22.0001663,3.01491279 L21.0001663,3.01491279 L21.0001663,8.01491279 L19.0001663,8.01491279 L19.0001663,2.01491279 C19.0002216,1.46265091 19.4479045,1.01491279 20.0001663,1.01491279 L22.0001663,1.01491279 Z"
                  fill="#F2994A" fill-rule="nonzero"></path>
        </g>
    </g>
</svg>