<?xml version="1.0" encoding="UTF-8"?>
<svg width="26px" height="21px" viewBox="0 0 26 21" version="1.1" xmlns="http://www.w3.org/2000/svg">
    <g stroke="none" fill="none" fill-rule="evenodd" stroke-width="1">
        <g>
            <path d="M1,6 C0.448,6 0,6.448 0,7 L0,9 C0,9.552 0.448,10 1,10 L1.1660156,10 L2.7207031,19.328125 C2.8817031,20.292125 3.7163594,21 4.6933594,21 L21.304688,21 C22.282688,21 23.116344,20.292125 23.277344,19.328125 L24.833984,10 L25,10 C25.552,10 26,9.552 26,9 L26,7 C26,6.448 25.552,6 25,6 L1,6 Z M8,11 C8.552,11 9,11.448 9,12 L9,17 C9,17.552 8.552,18 8,18 C7.448,18 7,17.552 7,17 L7,12 C7,11.448 7.448,11 8,11 Z M13,11 C13.552,11 14,11.448 14,12 L14,17 C14,17.552 13.552,18 13,18 C12.448,18 12,17.552 12,17 L12,12 C12,11.448 12.448,11 13,11 Z M18,11 C18.552,11 19,11.448 19,12 L19,17 C19,17.552 18.552,18 18,18 C17.448,18 17,17.552 17,17 L17,12 C17,11.448 17.448,11 18,11 Z" fill="#50453E" fill-rule="nonzero"></path>
            <path d="M11,0 C10.734,0 10.479969,0.1049687 10.292969,0.2929688 L9.585938,1 L5.734375,1 C4.251375,1 2.9736719,2.1071719 2.7636719,3.5761719 L2.4179688,6 L4.4394531,6 L4.7441406,3.8574219 C4.8131406,3.3684219 5.240375,3 5.734375,3 L10,3 C10.266,3 10.520031,2.8950312 10.707031,2.7070312 L11.414062,2 L14.585938,2 L15.292969,2.7070312 C15.479969,2.8950312 15.734,3 16,3 L20.265625,3 C20.759625,3 21.186859,3.369375 21.255859,3.859375 L21.560547,6 L23.582031,6 L23.236328,3.5761719 C23.025328,2.1071719 21.748625,1 20.265625,1 L16.414062,1 L15.707031,0.2929688 C15.520031,0.1049687 15.266,0 15,0 L11,0 Z" fill="#F2994A"></path>
        </g>
    </g>
</svg>