<?xml version="1.0" encoding="UTF-8"?>
<svg width="39px" height="22px" viewBox="0 0 39 22" version="1.1" xmlns="http://www.w3.org/2000/svg">
    <g stroke="none" fill="none" fill-rule="evenodd" stroke-width="1">
        <g>
            <path d="M28.86,3.12 C28.002,3.12 27.3,3.822 27.3,4.68 L27.3,14.04 C27.3,14.898 26.598,15.6 25.74,15.6 L19.5,15.6 L16.38,15.6 L16.38,18.72 C16.38,18.9349586 16.402634,19.1464814 16.4439842,19.34918 C16.4854295,19.5518474 16.5466306,19.7479277 16.6252733,19.93418 C16.704012,20.1204167 16.8014114,20.2971522 16.9132033,20.4628125 C17.1374229,20.7962929 17.4237071,21.0825771 17.7556642,21.3067967 C17.9228478,21.4185886 18.0995833,21.515988 18.28582,21.5947267 C18.4735957,21.6733694 18.6681526,21.7345705 18.87082,21.7760158 C19.075042,21.817366 19.2850414,21.84 19.5,21.84 C19.7149586,21.84 19.924958,21.817366 20.1276566,21.7760158 C20.3316009,21.7343974 20.5280447,21.6735745 20.71418,21.5947267 C20.9003036,21.5157875 21.078695,21.4187852 21.2443358,21.3067967 C21.5756135,21.0826403 21.8626403,20.7940902 22.0867967,20.4628125 C22.1985886,20.2971522 22.295988,20.1188933 22.3747267,19.9326566 C22.4331799,19.7946676 22.4704997,19.6472367 22.5087892,19.5 L30.52207,19.5 C30.6372838,19.9870406 30.852698,20.4542902 31.2015233,20.8467184 C31.6012382,21.2963977 32.1678006,21.629563 32.837695,21.7683983 C33.0609934,21.8146773 33.29625,21.84 33.54,21.84 C34.515,21.84 35.3455237,21.4462903 35.8784767,20.8467184 C36.227302,20.4542902 36.4427162,19.9870406 36.55793,19.5 L36.66,19.5 C37.947,19.5 39,18.447 39,17.16 L39,11.7396092 C39,10.5618092 38.6962875,9.39174834 38.1346875,8.36214834 L36.1374608,4.73484336 C35.5914608,3.73644414 34.5462608,3.12 33.4074608,3.12 L28.86,3.12 Z M31.98,6.24 L35.1853125,6.24 L36.76207,9.11015664 C37.07407,9.67175586 37.2763217,10.2882 37.3699217,10.92 L31.98,10.92 C31.551,10.92 31.2,10.569 31.2,10.14 L31.2,7.02 C31.2,6.591 31.551,6.24 31.98,6.24 Z M1.56,15.6 L1.56,18.72 C1.56,18.935085 1.58236104,19.1447194 1.62398434,19.3476566 C1.62398434,19.3476566 1.62398434,19.34918 1.62398434,19.34918 C1.66560248,19.5516009 1.72642532,19.7465213 1.80527342,19.9326566 C1.80527342,19.9326566 1.80527342,19.93418 1.80527342,19.93418 C1.88421215,20.1203036 1.98121443,20.2971717 2.09320316,20.4628125 C2.09320316,20.4628125 2.09320316,20.4643358 2.09320316,20.4643358 C2.31742267,20.7962929 2.603707,21.0825771 2.93566408,21.3067967 C2.93566408,21.3067967 2.9371875,21.3067967 2.9371875,21.3067967 C3.10284811,21.4185886 3.27958293,21.515988 3.46582033,21.5947267 C3.46582033,21.5947267 3.46734375,21.5947267 3.46734375,21.5947267 C3.65359589,21.6733694 3.84815262,21.7345705 4.05082033,21.7760158 C4.05082033,21.7760158 4.05234375,21.7760158 4.05234375,21.7760158 C4.25504173,21.817366 4.46504136,21.84 4.68,21.84 C4.89495864,21.84 5.10495827,21.817366 5.30765625,21.7760158 C5.30765625,21.7760158 5.30917967,21.7760158 5.30917967,21.7760158 C5.51160082,21.7343974 5.70804452,21.6735745 5.89417967,21.5947267 C6.08030319,21.5157875 6.25869535,21.4187852 6.42433592,21.3067967 C6.75561354,21.0826403 7.04264012,20.7940902 7.26679684,20.4628125 C7.37878557,20.2971717 7.47578785,20.1203036 7.55472658,19.93418 C7.55472658,19.93418 7.55472658,19.9326566 7.55472658,19.9326566 C7.63357468,19.7465213 7.69439752,19.5516009 7.73601566,19.34918 C7.73601566,19.34918 7.73601566,19.3476566 7.73601566,19.3476566 C7.77763896,19.1447194 7.8,18.935085 7.8,18.72 C7.8,18.9349586 7.82263404,19.1464814 7.86398418,19.34918 C7.90542948,19.5518474 7.96663062,19.7479277 8.04527334,19.93418 C8.124012,20.1204167 8.22141138,20.2971522 8.33320332,20.4628125 C8.33320332,20.4628125 8.33320332,20.4643358 8.33320332,20.4643358 C8.5574229,20.7962929 8.84370708,21.0825771 9.17566416,21.3067967 C9.17566416,21.3067967 9.1771875,21.3067967 9.1771875,21.3067967 C9.3428478,21.4185886 9.51958332,21.515988 9.70582002,21.5947267 C9.70582002,21.5947267 9.70734336,21.5947267 9.70734336,21.5947267 C9.89359566,21.6733694 10.0881526,21.7345705 10.29082,21.7760158 C10.29082,21.7760158 10.2923434,21.7760158 10.2923434,21.7760158 C10.495042,21.817366 10.7050414,21.84 10.92,21.84 C11.1349586,21.84 11.344958,21.817366 11.5476566,21.7760158 C11.5476566,21.7760158 11.54918,21.7760158 11.54918,21.7760158 C11.7516009,21.7343974 11.9480447,21.6735745 12.13418,21.5947267 C12.3203036,21.5157875 12.498695,21.4187852 12.6643358,21.3067967 C12.9956135,21.0826403 13.2826403,20.7940902 13.5067967,20.4628125 C13.6185886,20.2971522 13.715988,20.1188933 13.7947267,19.9326566 C13.8735745,19.7465213 13.9343974,19.5516009 13.9760158,19.34918 C13.9760158,19.34918 13.9760158,19.3476566 13.9760158,19.3476566 C14.017639,19.1447194 14.04,18.935085 14.04,18.72 L14.04,15.6 L10.92,15.6 L4.68,15.6 L1.56,15.6 Z M4.68,17.16 C5.538,17.16 6.24,17.862 6.24,18.72 C6.24,19.578 5.538,20.28 4.68,20.28 C3.822,20.28 3.12,19.578 3.12,18.72 C3.12,18.6124575 3.13118052,18.5076403 3.15199217,18.4061717 C3.29808983,17.6970121 3.92925,17.16 4.68,17.16 Z M10.92,17.16 C11.778,17.16 12.48,17.862 12.48,18.72 C12.48,19.578 11.778,20.28 10.92,20.28 C10.062,20.28 9.36,19.578 9.36,18.72 C9.36,18.6124575 9.37118052,18.5076403 9.39199248,18.4061717 C9.5380896,17.6970121 10.16925,17.16 10.92,17.16 Z M19.5,17.16 C20.358,17.16 21.06,17.862 21.06,18.72 C21.06,19.578 20.358,20.28 19.5,20.28 C18.642,20.28 17.94,19.578 17.94,18.72 C17.94,18.6124575 17.9511805,18.5076403 17.9719925,18.4061717 C18.1180896,17.6970121 18.74925,17.16 19.5,17.16 Z M33.54,17.16 C34.1249992,17.16 34.4644763,17.3512903 34.7115233,17.6292184 C34.9585704,17.9071472 35.1,18.3083332 35.1,18.72 C35.1,19.1316668 34.9585704,19.5328528 34.7115233,19.8107816 C34.4644763,20.0887097 34.1249992,20.28 33.54,20.28 C32.9550008,20.28 32.6155237,20.0887097 32.3684767,19.8107816 C32.1214296,19.5328528 31.98,19.1316668 31.98,18.72 C31.98,18.6170837 31.9887797,18.5151572 32.0058983,18.4153125 C32.0572559,18.1157792 32.1831916,17.8376656 32.3684767,17.6292184 C32.6155237,17.3512903 32.9550008,17.16 33.54,17.16 Z" fill="#50453E" fill-rule="nonzero"></path>
            <path d="M0.78,0 C0.34944,0 0,0.34944 0,0.78 L0,13.26 C0,13.69056 0.34944,14.04 0.78,14.04 L24.96,14.04 C25.39056,14.04 25.74,13.69056 25.74,13.26 L25.74,0.78 C25.74,0.34944 25.39056,0 24.96,0 L0.78,0 Z"  fill="#F2994A"></path>
        </g>
    </g>
</svg>