<?xml version="1.0" encoding="UTF-8"?>
<svg width="21px" height="22px" viewBox="0 0 21 22" version="1.1" xmlns="http://www.w3.org/2000/svg">
    <g stroke="none" fill="none" fill-rule="evenodd" stroke-width="1">
        <g transform="translate(-1, 0)">
            <path d="M7.84585457,3.50000972 C7.90487821,3.5011299 7.96129475,3.52455207 8.00373504,3.5655862 C9.55589796,5.10176238 10.3333333,6.63452232 10.3333333,8.16666667 L10.3333333,21.0000097 C10.3333333,21.7762587 9.94596206,22.165146 9.17121873,22.1666667 L2.1621146,22.1666667 L2.01233026,22.1611977 C1.33744342,22.1115728 1,21.7245088 1,21.0000097 L1,8.16666667 C1,6.63625604 1.75515821,5.10352149 3.26547463,3.56846302 C3.30827086,3.52498896 3.36662613,3.50056642 3.42762493,3.50000972 Z M21.7666667,12.8333333 C21.8955331,12.8333333 22,12.9378003 22,13.0666667 L22,21.9333333 C22,22.0621997 21.8955331,22.1666667 21.7666667,22.1666667 L12.9,22.1666667 C12.7711336,22.1666667 12.6666667,22.0621997 12.6666667,21.9333333 L12.6666667,13.0666667 C12.6666667,12.9378003 12.7711336,12.8333333 12.9,12.8333333 L21.7666667,12.8333333 Z M8.93333333,10.5 L2.4,10.5 C2.27113356,10.5 2.16666667,10.6044669 2.16666667,10.7333333 L2.16666667,16.1 C2.16666667,16.2288664 2.27113356,16.3333333 2.4,16.3333333 L8.93333333,16.3333333 C9.06219977,16.3333333 9.16666667,16.2288664 9.16666667,16.1 L9.16666667,10.7333333 C9.16666667,10.6044669 9.06219977,10.5 8.93333333,10.5 Z"
                  fill="#50453E"></path>
            <path d="M3.56666667,4.4408921e-15 L7.76666667,4.4408921e-15 C7.89553311,4.4408921e-15 8,0.104466892 8,0.233333333 L8,2.1 C8,2.22886644 7.89553311,2.33333333 7.76666667,2.33333333 L3.56666667,2.33333333 C3.43780022,2.33333333 3.33333333,2.22886644 3.33333333,2.1 L3.33333333,0.233333333 C3.33333333,0.104466892 3.43780022,4.4408921e-15 3.56666667,4.4408921e-15 L3.56666667,4.4408921e-15 Z M12.9,9.33333333 L21.7666667,9.33333333 C21.8955331,9.33333333 22,9.43780022 22,9.56666667 L22,11.4333333 C22,11.5621998 21.8955331,11.6666667 21.7666667,11.6666667 L12.9,11.6666667 C12.7711336,11.6666667 12.6666667,11.5621998 12.6666667,11.4333333 L12.6666667,9.56666667 C12.6666667,9.43780022 12.7711336,9.33333333 12.9,9.33333333 Z"
             fill="#F2994A"></path>
        </g>
    </g>
</svg>