<?xml version="1.0" encoding="UTF-8"?>
<svg width="25px" height="26px" viewBox="0 0 25 26" version="1.1" xmlns="http://www.w3.org/2000/svg" >
    <g stroke="none" fill="none" fill-rule="evenodd" stroke-width="1">
        <g transform="translate(0, -1)">
            <path d="M18.6382974,7.28781765 L14.8259763,10.3376746 C14.588761,10.5274467 14.4506713,10.8147596 14.4506713,11.1185434 L14.4506713,13.5253112 L14.4506713,13.5253112 L6.75095748,13.5253112 L6.34613825,8.66748036 C6.30294723,8.14918824 5.86968112,7.75052584 5.34959249,7.75052584 L4.30246557,7.75052584 C3.78237693,7.75052584 3.34911082,8.14918824 3.30591981,8.66748036 L2.90110057,13.5253112 L2.90110057,13.5253112 L1.97617211,13.5253112 C1.42388736,13.5253112 0.976172114,13.9730265 0.976172114,14.5253112 L0.976172114,25.0748819 L0.976172114,25.0748819 C0.629072945,25.0699731 0.306218701,25.2523366 0.131236586,25.5521418 C-0.0437455287,25.8519471 -0.0437455287,26.2227453 0.131236586,26.5225505 C0.306218701,26.8223558 0.629072945,27.0047192 0.976172114,26.9999071 L24.0753136,26.9999071 C24.4224128,27.0047192 24.745267,26.8223558 24.9202491,26.5225505 C25.0952312,26.2227453 25.0952312,25.8519471 24.9202491,25.5521418 C24.745267,25.2523366 24.4224128,25.0699731 24.0753136,25.0748819 L24.0753136,11.1185434 C24.0753136,10.8147596 23.9372239,10.5274467 23.7000086,10.3376746 L19.8876875,7.28781765 C19.5224688,6.99564273 19.0035161,6.99564273 18.6382974,7.28781765 Z M16.5755998,11.6003828 L18.1005282,11.6003828 C18.2109852,11.6003828 18.3005282,11.6899258 18.3005282,11.8003828 L18.3005282,13.3253112 C18.3005282,13.4357682 18.2109852,13.5253112 18.1005282,13.5253112 L16.5755998,13.5253112 C16.4651428,13.5253112 16.3755998,13.4357682 16.3755998,13.3253112 L16.3755998,11.8003828 C16.3755998,11.6899258 16.4651428,11.6003828 16.5755998,11.6003828 Z M20.4254567,11.6003828 L21.9503851,11.6003828 C22.0608421,11.6003828 22.1503851,11.6899258 22.1503851,11.8003828 L22.1503851,13.3253112 C22.1503851,13.4357682 22.0608421,13.5253112 21.9503851,13.5253112 L20.4254567,13.5253112 C20.3149997,13.5253112 20.2254567,13.4357682 20.2254567,13.3253112 L20.2254567,11.8003828 C20.2254567,11.6899258 20.3149997,11.6003828 20.4254567,11.6003828 Z M3.10110057,15.4502397 L4.62602903,15.4502397 C4.73648598,15.4502397 4.82602903,15.5397827 4.82602903,15.6502397 L4.82602903,17.1751681 C4.82602903,17.2856251 4.73648598,17.3751681 4.62602903,17.3751681 L3.10110057,17.3751681 C2.99064362,17.3751681 2.90110057,17.2856251 2.90110057,17.1751681 L2.90110057,15.6502397 C2.90110057,15.5397827 2.99064362,15.4502397 3.10110057,15.4502397 Z M6.95095748,15.4502397 L8.47588594,15.4502397 C8.58634289,15.4502397 8.67588594,15.5397827 8.67588594,15.6502397 L8.67588594,17.1751681 C8.67588594,17.2856251 8.58634289,17.3751681 8.47588594,17.3751681 L6.95095748,17.3751681 C6.84050053,17.3751681 6.75095748,17.2856251 6.75095748,17.1751681 L6.75095748,15.6502397 C6.75095748,15.5397827 6.84050053,15.4502397 6.95095748,15.4502397 Z M16.5755998,15.4502397 L18.1005282,15.4502397 C18.2109852,15.4502397 18.3005282,15.5397827 18.3005282,15.6502397 L18.3005282,17.1751681 C18.3005282,17.2856251 18.2109852,17.3751681 18.1005282,17.3751681 L16.5755998,17.3751681 C16.4651428,17.3751681 16.3755998,17.2856251 16.3755998,17.1751681 L16.3755998,15.6502397 C16.3755998,15.5397827 16.4651428,15.4502397 16.5755998,15.4502397 Z M20.4254567,15.4502397 L21.9503851,15.4502397 C22.0608421,15.4502397 22.1503851,15.5397827 22.1503851,15.6502397 L22.1503851,17.1751681 C22.1503851,17.2856251 22.0608421,17.3751681 21.9503851,17.3751681 L20.4254567,17.3751681 C20.3149997,17.3751681 20.2254567,17.2856251 20.2254567,17.1751681 L20.2254567,15.6502397 C20.2254567,15.5397827 20.3149997,15.4502397 20.4254567,15.4502397 Z M3.10110057,19.3000966 L4.62602903,19.3000966 C4.73648598,19.3000966 4.82602903,19.3896396 4.82602903,19.5000966 L4.82602903,21.025025 C4.82602903,21.135482 4.73648598,21.225025 4.62602903,21.225025 L3.10110057,21.225025 C2.99064362,21.225025 2.90110057,21.135482 2.90110057,21.025025 L2.90110057,19.5000966 C2.90110057,19.3896396 2.99064362,19.3000966 3.10110057,19.3000966 Z M6.95095748,19.3000966 L8.47588594,19.3000966 C8.58634289,19.3000966 8.67588594,19.3896396 8.67588594,19.5000966 L8.67588594,21.025025 C8.67588594,21.135482 8.58634289,21.225025 8.47588594,21.225025 L6.95095748,21.225025 C6.84050053,21.225025 6.75095748,21.135482 6.75095748,21.025025 L6.75095748,19.5000966 C6.75095748,19.3896396 6.84050053,19.3000966 6.95095748,19.3000966 Z M16.5755998,19.3000966 L18.1005282,19.3000966 C18.2109852,19.3000966 18.3005282,19.3896396 18.3005282,19.5000966 L18.3005282,21.025025 C18.3005282,21.135482 18.2109852,21.225025 18.1005282,21.225025 L16.5755998,21.225025 C16.4651428,21.225025 16.3755998,21.135482 16.3755998,21.025025 L16.3755998,19.5000966 C16.3755998,19.3896396 16.4651428,19.3000966 16.5755998,19.3000966 Z M20.4254567,19.3000966 L21.9503851,19.3000966 C22.0608421,19.3000966 22.1503851,19.3896396 22.1503851,19.5000966 L22.1503851,21.025025 C22.1503851,21.135482 22.0608421,21.225025 21.9503851,21.225025 L20.4254567,21.225025 C20.3149997,21.225025 20.2254567,21.135482 20.2254567,21.025025 L20.2254567,19.5000966 C20.2254567,19.3896396 20.3149997,19.3000966 20.4254567,19.3000966 Z M3.10110057,23.1499535 L4.62602903,23.1499535 C4.73648598,23.1499535 4.82602903,23.2394965 4.82602903,23.3499535 L4.82602903,24.8748819 C4.82602903,24.9853389 4.73648598,25.0748819 4.62602903,25.0748819 L3.10110057,25.0748819 C2.99064362,25.0748819 2.90110057,24.9853389 2.90110057,24.8748819 L2.90110057,23.3499535 C2.90110057,23.2394965 2.99064362,23.1499535 3.10110057,23.1499535 Z M6.95095748,23.1499535 L8.47588594,23.1499535 C8.58634289,23.1499535 8.67588594,23.2394965 8.67588594,23.3499535 L8.67588594,24.8748819 C8.67588594,24.9853389 8.58634289,25.0748819 8.47588594,25.0748819 L6.95095748,25.0748819 C6.84050053,25.0748819 6.75095748,24.9853389 6.75095748,24.8748819 L6.75095748,23.3499535 C6.75095748,23.2394965 6.84050053,23.1499535 6.95095748,23.1499535 Z M16.5755998,23.1499535 L18.1005282,23.1499535 C18.2109852,23.1499535 18.3005282,23.2394965 18.3005282,23.3499535 L18.3005282,24.8748819 C18.3005282,24.9853389 18.2109852,25.0748819 18.1005282,25.0748819 L16.5755998,25.0748819 C16.4651428,25.0748819 16.3755998,24.9853389 16.3755998,24.8748819 L16.3755998,23.3499535 C16.3755998,23.2394965 16.4651428,23.1499535 16.5755998,23.1499535 Z M20.4254567,23.1499535 L21.9503851,23.1499535 C22.0608421,23.1499535 22.1503851,23.2394965 22.1503851,23.3499535 L22.1503851,24.8748819 C22.1503851,24.9853389 22.0608421,25.0748819 21.9503851,25.0748819 L20.4254567,25.0748819 C20.3149997,25.0748819 20.2254567,24.9853389 20.2254567,24.8748819 L20.2254567,23.3499535 C20.2254567,23.2394965 20.3149997,23.1499535 20.4254567,23.1499535 Z" fill="#50453E" fill-rule="nonzero"></path>
            <path d="M16.3605613,1.00011755 C16.6207083,0.996054291 16.8714202,1.09747581 17.0555714,1.28127283 C17.2397225,1.46506985 17.3416265,1.71558609 17.338064,1.97574047 C17.338064,3.30153495 16.5397885,4.35045233 15.5954773,4.95336418 C14.651167,5.55627602 13.5455921,5.82559738 12.5257429,5.82559738 C12.1786437,5.83050623 11.8557894,5.64814276 11.6808073,5.3483375 C11.5058252,5.04853225 11.5058252,4.67773406 11.6808073,4.37792881 C11.8557894,4.07812355 12.1786437,3.89576008 12.5257429,3.90066893 C13.1757691,3.90066893 13.9965518,3.68875817 14.5597002,3.32920579 C15.1228496,2.96965341 15.4131355,2.57487445 15.4131355,1.97574047 C15.4058664,1.44491083 15.8297467,1.00841503 16.3605613,1.00011755 Z M11.5632786,1.01327624 C11.9103778,1.0083674 12.233232,1.19073087 12.4082142,1.49053612 C12.5831963,1.79034138 12.5831963,2.16113957 12.4082142,2.46094482 C12.233232,2.76075007 11.9103778,2.94311355 11.5632786,2.9382047 C10.2799933,2.9382047 9.66974671,3.2459792 9.37329618,3.4683119 C9.22507669,3.57947652 9.15123836,3.67451534 9.11576193,3.72772614 C9.09448762,3.75965088 9.09603572,3.75191245 9.1006781,3.74061375 L9.0672796,3.82678291 C8.88195517,4.22415609 8.44586747,4.45082662 8.00667301,4.36310296 C8.00667205,4.36310296 7.56285477,4.27979485 7.0291698,4.36874233 C6.49548483,4.45768981 6.01039217,4.64679266 5.68698331,5.2936103 C5.53322344,5.60126054 5.22699852,5.80349654 4.88368333,5.82412287 C4.54036813,5.8447492 4.21213273,5.6806315 4.02264468,5.39360354 C3.83315662,5.10657559 3.81121047,4.74025405 3.96507475,4.43265602 C4.60413011,3.1545452 5.80334985,2.62179988 6.71336122,2.4701313 C7.24727642,2.38114542 7.38519995,2.44434351 7.69274374,2.47389088 C7.83304158,2.29655155 7.97053055,2.11328585 8.21909175,1.92686534 C8.885117,1.4273464 9.95917126,1.01327624 11.5632786,1.01327624 Z" fill="#F2994A"></path>
        </g>
    </g>
</svg>