<?xml version="1.0" encoding="UTF-8"?>
<svg width="22px" height="22px" viewBox="0 0 22 22" version="1.1" xmlns="http://www.w3.org/2000/svg" xmlns:xlink="http://www.w3.org/1999/xlink">
    <title>Add price - swiss franc</title>
    <g id="Add-price---swiss-franc" stroke="none" stroke-width="1" fill="none" fill-rule="evenodd">
        <path d="M10,0 C4.477,0 0,4.477 0,10 C0,15.523 4.477,20 10,20 C10.868,20 11.705766,19.877922 12.509766,19.669922 C12.187766,19.191922 12,18.618 12,18 C12,16.346 13.346,15 15,15 C15,13.346 16.346,12 18,12 C18.618,12 19.191922,12.187766 19.669922,12.509766 C19.877922,11.705766 20,10.868 20,10 C20,4.477 15.523,0 10,0 Z M18,14 C18.552,14 19,14.448 19,15 L19,17 L21,17 C21.552,17 22,17.448 22,18 C22,18.552 21.552,19 21,19 L19,19 L19,21 C19,21.552 18.552,22 18,22 C17.448,22 17,21.552 17,21 L17,19 L15,19 C14.448,19 14,18.552 14,18 C14,17.448 14.448,17 15,17 L17,17 L17,15 C17,14.448 17.448,14 18,14 Z M13.8571429,3.6 C14.212,3.6 14.5,3.888 14.5,4.24285714 C14.5,4.59771429 14.212,4.88571429 13.8571429,4.88571429 L8.3125,4.88571429 L8.3125,8.74285714 L13.2978571,8.74285714 C13.6064286,8.74285714 13.8571429,8.99357143 13.8571429,9.30214286 C13.8571429,9.61714286 13.6064286,9.86785714 13.2978571,9.86785714 L8.3125,9.86785714 L8.3125,11.9571429 L10.0835714,11.9571429 C10.3921429,11.9571429 10.6428571,12.2078571 10.6428571,12.5164286 C10.6428571,12.8314286 10.3921429,13.0821429 10.0835714,13.0821429 L8.3125,13.0821429 L8.3125,14.4122143 C8.3125,14.8313571 7.97242857,15.1714286 7.55328571,15.1707866 C7.13028571,15.1701429 6.79085714,14.8307143 6.79085714,14.4122143 L6.79085714,13.0821429 L6.05928571,13.0821429 C5.75071429,13.0821429 5.5,12.8314286 5.5,12.5228571 C5.5,12.2078571 5.75071429,11.9571429 6.05928571,11.9571429 L6.79085714,11.9571429 L6.79085714,4.88571429 C6.79085714,4.17535714 7.36621429,3.6 8.07657143,3.6 Z" id="Shape" fill="#341100" fill-rule="nonzero"></path>
    </g>
</svg>