<?xml version="1.0" encoding="UTF-8"?>
<svg width="22px" height="22px" viewBox="0 0 22 22" version="1.1" xmlns="http://www.w3.org/2000/svg" xmlns:xlink="http://www.w3.org/1999/xlink">
    <title>Add to list 2</title>
    <g id="Add-to-list-2" stroke="none" stroke-width="1" fill="none" fill-rule="evenodd">
        <g id="add_to_list" transform="translate(0, 0.0778)" fill="#000000" fill-rule="nonzero">
            <path d="M22,14 C22,14.5522847 21.5522847,15 21,15 L5,15 C4.44771525,15 4,14.5522847 4,14 C4,13.4477153 4.44771525,13 5,13 L21,13 C21.5522847,13 22,13.4477153 22,14 Z M4,20 C4,20.5522847 4.44771525,21 5,21 L21,21 C21.5522847,21 22,20.5522847 22,20 C22,19.4477153 21.5522847,19 21,19 L5,19 C4.44771525,19 4,19.4477153 4,20 Z M5,0 C7.7615,0 10,2.2385 10,5 C10,7.7615 7.7615,10 5,10 C2.2385,10 0,7.7615 0,5 C0,2.2385 2.2385,0 5,0 Z M5.08331205,2.02217876 C3.83497872,2.02217876 3.33331205,2.86684542 3.33331205,3.18884542 C3.33331205,3.51084542 3.59464539,3.77217876 3.91664539,3.77217876 C4.16631205,3.77217876 4.37572872,3.61351209 4.45914539,3.39301209 C4.56997872,3.08092876 4.82606205,2.94326209 5.08331205,2.94326209 C5.38081205,2.94326209 5.59314539,3.18651209 5.65089539,3.45484542 C5.66372872,3.51434542 5.67014539,3.57617876 5.67072872,3.63859542 C5.67306205,3.89059542 5.58206205,4.15601209 5.45897872,4.36484542 C5.35572872,4.54042876 3.92014539,6.34759542 3.46689539,6.90817876 C3.37939539,7.01609542 3.33331205,7.15026209 3.33331205,7.28734542 C3.33331205,7.42909542 3.37706205,7.85551209 3.91664539,7.85551209 L6.37306205,7.85551209 C6.62739539,7.85551209 6.83331205,7.64901209 6.83331205,7.39467876 C6.83331205,7.14034542 6.62739539,6.93442876 6.37306205,6.93442876 L4.86047872,6.93442876 C4.86047872,6.93442876 6.24822872,5.02051209 6.44539539,4.75567876 C6.72189539,4.38467876 6.83331205,3.93901209 6.83331205,3.65434542 C6.83331205,3.13517876 6.66881205,2.73384542 6.34097872,2.44917876 C6.01314539,2.16451209 5.67597872,2.02217876 5.08331205,2.02217876 Z" id="Shape"></path>
        </g>
        <path d="M21.0000213,7.07782124 C21.552306,7.07782124 22.0000213,7.52553649 22.0000213,8.07782124 C22.0000213,8.63010599 21.552306,9.07782124 21.0000213,9.07782124 L10.0611513,9.07892775 C10.5377947,8.48825185 10.9131445,7.8124287 11.1608014,7.0778574 L21.0000213,7.07782124 Z" id="Combined-Shape" fill="#000000"></path>
    </g>
</svg>