<?xml version="1.0" encoding="UTF-8"?>
<svg width="22px" height="22px" viewBox="0 0 22 22" version="1.1" xmlns="http://www.w3.org/2000/svg" xmlns:xlink="http://www.w3.org/1999/xlink">
    <title>Add price - turkish lira</title>
    <g id="Add-price---turkish-lira" stroke="none" stroke-width="1" fill="none" fill-rule="evenodd">
        <path d="M10,0 C4.477,0 0,4.477 0,10 C0,15.523 4.477,20 10,20 C10.868,20 11.705766,19.877922 12.509766,19.669922 C12.187766,19.191922 12,18.618 12,18 C12,16.346 13.346,15 15,15 C15,13.346 16.346,12 18,12 C18.618,12 19.191922,12.187766 19.669922,12.509766 C19.877922,11.705766 20,10.868 20,10 C20,4.477 15.523,0 10,0 Z M18,14 C18.552,14 19,14.448 19,15 L19,17 L21,17 C21.552,17 22,17.448 22,18 C22,18.552 21.552,19 21,19 L19,19 L19,21 C19,21.552 18.552,22 18,22 C17.448,22 17,21.552 17,21 L17,19 L15,19 C14.448,19 14,18.552 14,18 C14,17.448 14.448,17 15,17 L17,17 L17,15 C17,14.448 17.448,14 18,14 Z M8.05347449,3.6 C8.52167392,3.6 8.90166185,3.97998794 8.90166185,4.44818736 L8.90166185,5.76660979 L10.2472263,5.24276928 C10.6611417,5.08195295 11.106949,5.3873004 11.106949,5.83107203 C11.106949,6.09434939 10.9474898,6.32777055 10.7045689,6.42276753 L8.90166185,7.12370956 L8.90166185,8.48488064 L10.2472263,7.96171868 C10.6611417,7.80090235 11.106949,8.1062498 11.106949,8.55002143 C11.106949,8.81262023 10.9474898,9.0460414 10.7045689,9.14103838 L8.90166185,9.84198041 L8.90166185,14.4567982 L9.04483588,14.4561196 C10.318474,14.4445843 11.1971961,14.0930955 11.875746,13.284264 C12.4647273,12.5819649 12.8148591,11.7799189 12.8881424,10.5558149 L12.8881424,10.5130663 C12.8881424,10.0679375 13.249131,9.70694899 13.6942597,9.70694899 C14.1387099,9.70694899 14.4996984,10.0679375 14.4996984,10.5123877 L14.4996984,10.5551363 C14.4393075,11.5356409 14.1950295,12.4096132 13.8028277,13.1600894 C13.3563419,14.0143837 12.7144337,14.6766484 11.8940669,15.1292411 C11.0703073,15.5838696 10.0979453,15.813898 9.00480143,15.813898 L8.56238691,15.813898 C7.81258928,15.813898 7.20528713,15.2065958 7.20528713,14.4567982 L7.20528713,10.5015309 L5.85632996,11.0213001 C5.44377163,11.1800808 5,10.8760904 5,10.4336759 L5.00732622,10.3374557 C5.04116889,10.1169309 5.18982433,9.92790179 5.40238008,9.84537316 L7.20528713,9.14443113 L7.20528713,7.78326006 L5.85972271,8.30642202 C5.44580728,8.46723834 5,8.16189089 5,7.71811927 C5,7.45484191 5.15945922,7.22142075 5.40238008,7.12710231 L7.20528713,6.42616028 L7.20528713,4.44818736 C7.20528713,3.97998794 7.58527507,3.6 8.05347449,3.6 Z" id="Shape" fill="#341100" fill-rule="nonzero"></path>
    </g>
</svg>