<?xml version="1.0" encoding="UTF-8"?>
<svg width="22px" height="22px" viewBox="0 0 22 22" version="1.1" xmlns="http://www.w3.org/2000/svg" xmlns:xlink="http://www.w3.org/1999/xlink">
    <title>Add price - dollar</title>
    <g id="Add-price---dollar" stroke="none" stroke-width="1" fill="none" fill-rule="evenodd">
        <path d="M10,0 C4.477,0 0,4.477 0,10 C0,15.523 4.477,20 10,20 C10.868,20 11.705766,19.877922 12.509766,19.669922 C12.187766,19.191922 12,18.618 12,18 C12,16.346 13.346,15 15,15 C15,13.346 16.346,12 18,12 C18.618,12 19.191922,12.187766 19.669922,12.509766 C19.877922,11.705766 20,10.868 20,10 C20,4.477 15.523,0 10,0 Z M18,14 C18.552,14 19,14.448 19,15 L19,17 L21,17 C21.552,17 22,17.448 22,18 C22,18.552 21.552,19 21,19 L19,19 L19,21 C19,21.552 18.552,22 18,22 C17.448,22 17,21.552 17,21 L17,19 L15,19 C14.448,19 14,18.552 14,18 C14,17.448 14.448,17 15,17 L17,17 L17,15 C17,14.448 17.448,14 18,14 Z M10.2458333,3.6 C10.5678333,3.6 10.8291667,3.86133333 10.8291667,4.18333333 L10.8291667,5.08575 C11.6744167,5.18958333 12.3295,5.5075 12.7985,6.03833333 C13.1088333,6.39008333 13.3159167,6.827 13.4209167,7.34966667 C13.432,7.40216667 13.4500833,7.49141667 13.4500833,7.576 C13.4500833,8.02516667 13.1409167,8.26666667 12.7594167,8.26666667 C12.4140833,8.26666667 12.214,8.06191667 12.09675,7.71075 C12.0926667,7.69908333 12.018,7.43075 11.9765833,7.31466667 C11.8925833,7.08191667 11.7724167,6.87775 11.6149167,6.70216667 C11.2795,6.32708333 10.8250833,6.13983333 10.254,6.13983333 C9.65783333,6.13983333 9.20166667,6.27808333 8.88608333,6.55575 C8.56991667,6.83283333 8.41183333,7.22016667 8.41183333,7.716 C8.41183333,8.17625 8.57866667,8.54316667 8.91233333,8.81558333 C9.24541667,9.08916667 9.79433333,9.33708333 10.5585,9.55991667 C11.3226667,9.78333333 11.9194167,10.0289167 12.3481667,10.29725 C12.7763333,10.565 13.0925,10.8770833 13.2955,11.2323333 C13.4979167,11.5881667 13.6,12.00525 13.6,12.4824167 C13.6,13.2430833 13.3450833,13.8555833 12.8364167,14.3193333 C12.32775,14.7836667 11.6143333,15.0578333 10.6973333,15.1435833 L10.68275,15.1441667 L10.68275,15.85 C10.68275,16.172 10.4214167,16.4333333 10.0994167,16.4333333 C9.77741667,16.4333333 9.51666667,16.172 9.51666667,15.85 L9.51666667,15.1330833 C8.61833333,15.0473333 7.8355,14.7550833 7.32041667,14.2481667 C7.05383333,13.9850833 6.84091667,13.659 6.70966667,13.30025 C6.684,13.23025 6.6,12.99225 6.6,12.82425 C6.6,12.4415833 6.91033333,12.13125 7.29241667,12.1324167 C7.55433333,12.1324167 7.78708333,12.2776667 7.90141667,12.4935 C7.93175,12.5500833 7.97433333,12.6871667 7.97725,12.7005833 C8.05775,13.0581667 8.2205,13.3504167 8.46666667,13.5773333 C8.83241667,13.9150833 9.42391667,14.0836667 10.0953333,14.0836667 C10.7521667,14.0836667 11.2684167,13.9419167 11.6446667,13.6584167 C12.0203333,13.3749167 12.20875,12.9875833 12.20875,12.4964167 C12.20875,12.08225 12.0465833,11.7334167 11.724,11.4493333 C11.40025,11.1658333 10.8554167,10.9091667 10.0883333,10.6793333 C9.02083333,10.3865 8.24266667,10.0044167 7.75383333,9.53425 C7.265,9.0635 7.02058333,8.46558333 7.02058333,7.7405 C7.02058333,7.002 7.26033333,6.3965 7.73925,5.92341667 C8.20766667,5.46083333 8.8505,5.18433333 9.6625,5.08808333 L9.6625,4.18333333 C9.6625,3.86133333 9.92383333,3.6 10.2458333,3.6 Z" id="Shape" fill="#341100" fill-rule="nonzero"></path>
    </g>
</svg>