<?xml version="1.0" encoding="UTF-8"?>
<svg width="22px" height="22px" viewBox="0 0 22 22" version="1.1" xmlns="http://www.w3.org/2000/svg" xmlns:xlink="http://www.w3.org/1999/xlink">
    <title>Add to list 1</title>
    <g id="Add-to-list-1" stroke="none" stroke-width="1" fill="none" fill-rule="evenodd">
        <g id="add_to_list" transform="translate(0, 0.0778)" fill="#000000" fill-rule="nonzero">
            <path d="M22,14 C22,14.5522847 21.5522847,15 21,15 L5,15 C4.44771525,15 4,14.5522847 4,14 C4,13.4477153 4.44771525,13 5,13 L21,13 C21.5522847,13 22,13.4477153 22,14 Z M4,20 C4,20.5522847 4.44771525,21 5,21 L21,21 C21.5522847,21 22,20.5522847 22,20 C22,19.4477153 21.5522847,19 21,19 L5,19 C4.44771525,19 4,19.4477153 4,20 Z M5,0 C7.7615,0 10,2.2385 10,5 C10,7.7615 7.7615,10 5,10 C2.2385,10 0,7.7615 0,5 C0,2.2385 2.2385,0 5,0 Z M5.68986519,2.11411134 C5.51564697,1.98878088 5.29254098,1.95455944 5.08943454,2.02255788 L3.75613183,2.46699212 C3.40680652,2.58343389 3.21792197,2.96075856 3.33436374,3.31008387 C3.45080551,3.65940917 3.82901904,3.84962703 4.17745548,3.73185196 L4.63344501,3.57985545 L4.63344501,7.5437644 C4.63344501,7.91220038 4.93166038,8.21041575 5.30009636,8.21041575 C5.66853235,8.21041575 5.96674772,7.91220038 5.96674772,7.5437644 L5.96674772,2.6549878 C5.96674772,2.4407705 5.86363898,2.23944179 5.68986519,2.11411134 Z" id="Shape"></path>
        </g>
        <path d="M21.0000213,7.07782124 C21.552306,7.07782124 22.0000213,7.52553649 22.0000213,8.07782124 C22.0000213,8.63010599 21.552306,9.07782124 21.0000213,9.07782124 L10.0611513,9.07892775 C10.5377947,8.48825185 10.9131445,7.8124287 11.1608014,7.0778574 L21.0000213,7.07782124 Z" id="Combined-Shape" fill="#000000"></path>
    </g>
</svg>