<?xml version="1.0" encoding="UTF-8"?>
<svg width="22px" height="22px" viewBox="0 0 22 22" version="1.1" xmlns="http://www.w3.org/2000/svg" xmlns:xlink="http://www.w3.org/1999/xlink">
    <title>Add to list 5</title>
    <g id="Add-to-list-5" stroke="none" stroke-width="1" fill="none" fill-rule="evenodd">
        <g id="add_to_list" transform="translate(0, 0.0778)" fill="#000000" fill-rule="nonzero">
            <path d="M22,14 C22,14.5522847 21.5522847,15 21,15 L5,15 C4.44771525,15 4,14.5522847 4,14 C4,13.4477153 4.44771525,13 5,13 L21,13 C21.5522847,13 22,13.4477153 22,14 Z M4,20 C4,20.5522847 4.44771525,21 5,21 L21,21 C21.5522847,21 22,20.5522847 22,20 C22,19.4477153 21.5522847,19 21,19 L5,19 C4.44771525,19 4,19.4477153 4,20 Z M5,0 C7.7615,0 10,2.2385 10,5 C10,7.7615 7.7615,10 5,10 C2.2385,10 0,7.7615 0,5 C0,2.2385 2.2385,0 5,0 Z M6.05751157,2.42217876 L4.21679728,2.42217876 C3.95894014,2.42217876 3.73786871,2.60575019 3.69001157,2.85896447 L3.38786871,4.46610733 C3.358583,4.62289304 3.40036871,4.78467876 3.50215443,4.90717876 C3.603583,5.02967876 3.75501157,5.10075019 3.91429728,5.10075019 L5.07501157,5.10075019 C5.41965443,5.10075019 5.70001157,5.38110733 5.70001157,5.72575019 C5.70001157,6.24217876 5.31179728,6.35075019 4.98572586,6.35075019 C4.40894014,6.35075019 4.08751157,6.12325019 4.06429728,6.10610733 C3.83322586,5.92646447 3.50036871,5.96539304 3.31751157,6.19467876 C3.13251157,6.42575019 3.17001157,6.7625359 3.401083,6.9475359 C3.46179728,6.99610733 4.02215443,7.42217876 4.98572586,7.42217876 C6.03715443,7.42217876 6.77144014,6.72467876 6.77144014,5.72575019 C6.77144014,4.79039304 6.01036871,4.02932162 5.07501157,4.02932162 L4.56036871,4.02932162 L4.661083,3.49360733 L6.05751157,3.49360733 C6.353583,3.49360733 6.59322586,3.25396447 6.59322586,2.95789304 C6.59322586,2.66182162 6.353583,2.42217876 6.05751157,2.42217876 Z" id="Shape"></path>
        </g>
        <path d="M21.0000213,7.07782124 C21.552306,7.07782124 22.0000213,7.52553649 22.0000213,8.07782124 C22.0000213,8.63010599 21.552306,9.07782124 21.0000213,9.07782124 L10.0611513,9.07892775 C10.5377947,8.48825185 10.9131445,7.8124287 11.1608014,7.0778574 L21.0000213,7.07782124 Z" id="Combined-Shape" fill="#000000"></path>
    </g>
</svg>