<?xml version="1.0" encoding="UTF-8"?>
<svg width="22px" height="22px" viewBox="0 0 22 22" version="1.1" xmlns="http://www.w3.org/2000/svg" xmlns:xlink="http://www.w3.org/1999/xlink">
    <title>Add to list 6</title>
    <g id="Add-to-list-6" stroke="none" stroke-width="1" fill="none" fill-rule="evenodd">
        <g id="add_to_list" transform="translate(0, 0.0778)" fill="#000000" fill-rule="nonzero">
            <path d="M22,14 C22,14.5522847 21.5522847,15 21,15 L5,15 C4.44771525,15 4,14.5522847 4,14 C4,13.4477153 4.44771525,13 5,13 L21,13 C21.5522847,13 22,13.4477153 22,14 Z M21,19 C21.5522847,19 22,19.4477153 22,20 C22,20.5522847 21.5522847,21 21,21 L5,21 C4.44771525,21 4,20.5522847 4,20 C4,19.4477153 4.44771525,19 5,19 Z M5,0 C7.7615,0 10,2.2385 10,5 C10,7.7615 7.7615,10 5,10 C2.2385,10 0,7.7615 0,5 C0,2.2385 2.2385,0 5,0 Z M5.10331672,2.09369863 C3.70095308,2.09369863 2.85757836,3.17577839 2.85757836,4.96159658 C2.85757836,5.69959658 3.01091926,6.31821021 3.3092829,6.77693749 C3.67910108,7.40693749 4.30523163,7.75065894 5.08414072,7.75065894 C6.28904981,7.75065894 7.14237908,6.95603367 7.14237908,5.83730639 C7.14237908,4.80857912 6.39341926,4.0517953 5.3717829,4.0517953 C4.74505563,4.0517953 4.24455854,4.33820149 3.99855799,4.84547421 L3.93250726,4.84547421 C3.91014363,3.73056512 4.35731381,3.01841476 5.09585926,3.01841476 C5.51640472,3.01841476 5.8524729,3.24289439 5.95665472,3.59689439 L7.07206672,3.59689439 C6.91879399,2.69798585 6.12495308,2.09369863 5.10331672,2.09369863 Z M5.07668326,4.92004821 C5.64013781,4.92004821 6.05040472,5.32267003 6.05040472,5.8713973 C6.05040472,6.41194276 5.62548745,6.82594276 5.07348745,6.82594276 C4.52148745,6.82594276 4.09976545,6.40892585 4.09976545,5.86074403 C4.09976545,5.3234713 4.51431963,4.92004821 5.07668326,4.92004821 Z" id="Shape"></path>
        </g>
        <path d="M21.0000213,7.07782124 C21.552306,7.07782124 22.0000213,7.52553649 22.0000213,8.07782124 C22.0000213,8.63010599 21.552306,9.07782124 21.0000213,9.07782124 L10.0611513,9.07892775 C10.5377947,8.48825185 10.9131445,7.8124287 11.1608014,7.0778574 L21.0000213,7.07782124 Z" id="Combined-Shape" fill="#000000"></path>
    </g>
</svg>