<?xml version="1.0" encoding="UTF-8"?>
<svg width="22px" height="22px" viewBox="0 0 22 22" version="1.1" xmlns="http://www.w3.org/2000/svg" xmlns:xlink="http://www.w3.org/1999/xlink">
    <title>Add price - yen</title>
    <g id="Add-price---yen" stroke="none" stroke-width="1" fill="none" fill-rule="evenodd">
        <path d="M10,0 C4.477,0 0,4.477 0,10 C0,15.523 4.477,20 10,20 C10.868,20 11.705766,19.877922 12.509766,19.669922 C12.187766,19.191922 12,18.618 12,18 C12,16.346 13.346,15 15,15 C15,13.346 16.346,12 18,12 C18.618,12 19.191922,12.187766 19.669922,12.509766 C19.877922,11.705766 20,10.868 20,10 C20,4.477 15.523,0 10,0 Z M18,14 C18.552,14 19,14.448 19,15 L19,17 L21,17 C21.552,17 22,17.448 22,18 C22,18.552 21.552,19 21,19 L19,19 L19,21 C19,21.552 18.552,22 18,22 C17.448,22 17,21.552 17,21 L17,19 L15,19 C14.448,19 14,18.552 14,18 C14,17.448 14.448,17 15,17 L17,17 L17,15 C17,14.448 17.448,14 18,14 Z M5.93595864,4 C6.20531336,4 6.45216827,4.14849866 6.57816713,4.38635366 L9.69985325,9.30352358 L12.8247536,4.38635366 C12.9507525,4.14849866 13.1976074,4 13.4663193,4 C14.0281713,4 14.3785253,4.59913745 14.1046707,5.08384736 L10.9321993,9.78566208 L12.9976806,9.78566208 C13.3062493,9.78566208 13.5569613,10.0363741 13.5569613,10.3449428 C13.5569613,10.6599399 13.3062493,10.9106519 12.9976806,10.9106519 L10.423061,10.9106519 L10.423061,11.8749289 L12.9976806,11.8749289 C13.3062493,11.8749289 13.5569613,12.125641 13.5569613,12.4342096 C13.5569613,12.7492068 13.3062493,12.9999188 12.9976806,12.9999188 L10.423061,12.9999188 L10.4147039,14.8159738 C10.4127754,15.2338272 10.0739927,15.5713242 9.65613936,15.5713242 C9.23571459,15.5713242 8.89628908,15.2318987 8.89628908,14.8127596 L8.89628908,12.9999188 L6.40202587,12.9999188 C6.09345722,12.9999188 5.8427452,12.7492068 5.8427452,12.4406381 C5.8427452,12.125641 6.09345722,11.8749289 6.40202587,11.8749289 L8.89628908,11.8749289 L8.89628908,10.9106519 L6.40202587,10.9106519 C6.09345722,10.9106519 5.8427452,10.6599399 5.8427452,10.3513713 C5.8427452,10.0363741 6.09345722,9.78566208 6.40202587,9.78566208 L8.45272165,9.78566208 L5.294393,5.08256166 C5.02182403,4.59785175 5.37217802,4 5.92760158,4 Z" id="Shape" fill="#341100" fill-rule="nonzero"></path>
    </g>
</svg>