<?xml version="1.0" encoding="UTF-8"?>
<svg width="22px" height="22px" viewBox="0 0 22 22" version="1.1" xmlns="http://www.w3.org/2000/svg" xmlns:xlink="http://www.w3.org/1999/xlink">
    <title>Add price - won</title>
    <g id="Add-price---won" stroke="none" stroke-width="1" fill="none" fill-rule="evenodd">
        <path d="M10,0 C4.477,0 0,4.477 0,10 C0,15.523 4.477,20 10,20 C10.868,20 11.705766,19.877922 12.509766,19.669922 C12.187766,19.191922 12,18.618 12,18 C12,16.346 13.346,15 15,15 C15,13.346 16.346,12 18,12 C18.618,12 19.191922,12.187766 19.669922,12.509766 C19.877922,11.705766 20,10.868 20,10 C20,4.477 15.523,0 10,0 Z M18,14 C18.552,14 19,14.448 19,15 L19,17 L21,17 C21.552,17 22,17.448 22,18 C22,18.552 21.552,19 21,19 L19,19 L19,21 C19,21.552 18.552,22 18,22 C17.448,22 17,21.552 17,21 L17,19 L15,19 C14.448,19 14,18.552 14,18 C14,17.448 14.448,17 15,17 L17,17 L17,15 C17,14.448 17.448,14 18,14 Z M4.45096938,4.55 C4.74993874,4.55 5.00988599,4.75351529 5.08072612,5.04347954 L5.75430769,7.7017854 L8.31355743,7.7017854 L9.13122062,5.0098605 C9.21406755,4.73670576 9.46561004,4.55 9.75137191,4.55 L9.91406407,4.55 C10.201627,4.55 10.4549705,4.73970746 10.5360164,5.01646424 L11.3218616,7.7017854 L13.8564974,7.7017854 L14.5306793,5.04648124 C14.600919,4.75531631 14.8614666,4.55 15.1610363,4.55 C15.5920805,4.55 15.901856,4.94922615 15.7961961,5.35985876 L15.1346214,7.7017854 L15.2817047,7.7017854 C15.5698679,7.7017854 15.8040006,7.93591803 15.8034002,8.22408127 C15.8034002,8.5182479 15.5692676,8.75238053 15.2811044,8.75238053 L14.837453,8.75238053 L14.4982609,9.95306068 L15.2817047,9.95306068 C15.5698679,9.95306068 15.8040006,10.1871933 15.8040006,10.4753566 C15.8040006,10.7695232 15.5698679,11.0036558 15.2817047,11.0036558 L14.2016929,11.0036558 L13.4932916,13.5502984 C13.4020399,13.9063001 13.0814583,14.1554412 12.7140502,14.1554412 C12.3544465,14.1554412 12.041069,13.9225093 11.9390112,13.5821164 L11.1657731,11.0036558 L8.48345367,11.0036558 L7.67959831,13.5899209 C7.5745388,13.9261113 7.26356264,14.1554412 6.91116301,14.1554412 L6.89915621,14.1554412 C6.53234843,14.1554412 6.21176683,13.9075008 6.11991479,13.5520994 L5.4085118,11.0036558 L4.32549831,11.0036558 C4.03733507,11.0036558 3.80320244,10.7695232 3.80320244,10.48136 C3.80320244,10.1871933 4.03733507,9.95306068 4.32549831,9.95306068 L5.11314449,9.95306068 L4.77515302,8.75238053 L4.32549831,8.75238053 C4.03733507,8.75238053 3.80320244,8.5182479 3.80320244,8.23008467 C3.80320244,7.93591803 4.03733507,7.7017854 4.32549831,7.7017854 L4.47978571,7.7017854 L3.8206123,5.35985876 C3.71555279,4.94922615 4.02532827,4.55 4.44916836,4.55 Z M13.0172219,11.0036558 L12.252989,11.0036558 L12.6546165,12.4294635 L13.0172219,11.0036558 Z M7.36261875,11.0036558 L6.59058141,11.0036558 L6.95198614,12.4294635 L7.36261875,11.0036558 Z M13.589346,8.75238053 L11.6178292,8.75238053 L11.956421,9.95306068 L13.2843733,9.95306068 L13.589346,8.75238053 Z M8.01098603,8.75238053 L6.02025834,8.75238053 L6.32463076,9.95306068 L7.66519015,9.95306068 L8.01098603,8.75238053 Z M10.4879892,8.75238053 L9.18885326,8.75238053 L8.81364072,9.95306068 L10.8499943,9.95306068 L10.4879892,8.75238053 Z M9.84562531,6.42366138 L9.68413383,7.15607627 L9.51243656,7.7017854 L10.17161,7.7017854 L10.0071168,7.15607627 L9.84562531,6.42366138 Z" id="Shape" fill="#341100" fill-rule="nonzero"></path>
    </g>
</svg>