<?xml version="1.0" encoding="UTF-8"?>
<svg width="21px" height="21px" viewBox="0 0 21 21" version="1.1" xmlns="http://www.w3.org/2000/svg" xmlns:xlink="http://www.w3.org/1999/xlink">
    <title>Add property 2</title>
    <g id="Add-property-2" stroke="none" stroke-width="1" fill="none" fill-rule="evenodd">
        <path d="M16.6551724,12.3103449 C17.1884276,12.3103449 17.6206897,12.742607 17.6206897,13.2758621 L17.6206897,15.6896552 L20.0344828,15.6896552 C20.5677379,15.6896552 21,16.1219173 21,16.6551724 C21,17.1884276 20.5677379,17.6206897 20.0344828,17.6206897 L17.6206897,17.6206897 L17.6206897,20.0344828 C17.6206897,20.5677379 17.1884276,21 16.6551724,21 C16.1219173,21 15.6896552,20.5677379 15.6896552,20.0344828 L15.6896552,17.6206897 L13.2758621,17.6206897 C12.742607,17.6206897 12.3103449,17.1884276 12.3103449,16.6551724 C12.3103449,16.1219173 12.742607,15.6896552 13.2758621,15.6896552 L15.6896552,15.6896552 L15.6896552,13.2758621 C15.6896552,12.742607 16.1219173,12.3103449 16.6551724,12.3103449 Z M19.3092932,6.75897828 C19.5060493,6.76042808 19.6140138,6.77057665 19.6865104,6.84161665 C19.7709931,6.92449665 19.7735035,7.05621251 19.7785241,7.31963458 C19.7931035,8.07832836 19.7931035,8.91655181 19.7931035,9.84122766 L19.7930065,10.4644798 C19.7922309,11.8073831 19.7852506,12.9569732 19.7224276,13.9388828 C19.7204966,13.9694897 19.7194345,13.9848414 19.7171173,13.9992276 C19.6958759,14.1267725 19.5890897,14.2268966 19.4604828,14.2399311 C19.4556552,14.2404138 19.4506345,14.2407357 19.4448879,14.2409502 L19.3448889,14.240893 L19.3282069,14.239738 C19.1922621,14.2254483 19.0848966,14.1180828 19.0706069,13.982138 C19.0700598,13.9770851 19.069695,13.9717104 19.0694519,13.965456 L19.0689655,13.2758621 C19.0689655,11.9427725 17.9882621,10.862069 16.6551724,10.862069 C15.3220828,10.862069 14.2413794,11.9427725 14.2413794,13.2758621 L14.2411319,13.7709836 C14.2396473,13.9730936 14.2292552,14.0838483 14.1565104,14.1565104 C14.071738,14.2413794 13.9351173,14.2413794 13.662069,14.2413794 L13.2758621,14.2413794 C11.9427725,14.2413794 10.862069,15.3220828 10.862069,16.6551724 C10.862069,17.9882621 11.9427725,19.0689655 13.2758621,19.0689655 L13.965456,19.0694519 L13.982138,19.0706069 C14.1180828,19.0848966 14.2254483,19.1922621 14.239738,19.3282069 C14.2402851,19.3332598 14.2406499,19.3386345 14.240893,19.3448889 L14.2409502,19.4448879 L14.2399311,19.4604828 C14.2268966,19.5890897 14.1267725,19.6958759 13.9992276,19.7171173 C13.9848414,19.7194345 13.9694897,19.7204966 13.9388828,19.7224276 C12.8342345,19.7931035 11.517269,19.7931035 9.95177939,19.7931035 L8.96235206,19.7925951 C7.25893408,19.7895448 5.87953941,19.7681931 4.76774356,19.618731 C3.43856426,19.4400138 2.3839684,19.0663586 1.55536151,18.2377517 C0.726764277,17.4091449 0.353070486,16.3545104 0.174362901,15.0253794 C0.0249089859,13.9136 0.00355842655,12.5341794 0.00050834665,10.8307536 L0.000931849189,8.77271384 C0.00232962297,8.25873487 0.00582405743,7.77489719 0.0145601436,7.31963458 C0.0196194539,7.05621251 0.022149109,6.92449665 0.106641522,6.84161665 C0.19112428,6.75873665 0.324027728,6.75873665 0.589834622,6.75873665 Z M5.55172424,13.5172414 L4.58620701,13.5172414 C4.18628012,13.5172414 3.86206908,13.8414621 3.86206908,14.2413794 C3.86206908,14.6412966 4.18628012,14.9655173 4.58620701,14.9655173 L5.55172424,14.9655173 C5.95165114,14.9655173 6.27586217,14.6412966 6.27586217,14.2413794 C6.27586217,13.8414621 5.95165114,13.5172414 5.55172424,13.5172414 Z M9.8965518,13.5172414 L8.44827595,13.5172414 C8.04834905,13.5172414 7.72413802,13.8414621 7.72413802,14.2413794 C7.72413802,14.6412966 8.04834905,14.9655173 8.44827595,14.9655173 L9.8965518,14.9655173 C10.296469,14.9655173 10.6206897,14.6412966 10.6206897,14.2413794 C10.6206897,13.8414621 10.296469,13.5172414 9.8965518,13.5172414 Z M5.55172424,9.65517249 L4.58620701,9.65517249 C4.18628012,9.65517249 3.86206908,9.97939318 3.86206908,10.3793104 C3.86206908,10.7792277 4.18628012,11.1034483 4.58620701,11.1034483 L5.55172424,11.1034483 C5.95165114,11.1034483 6.27586217,10.7792277 6.27586217,10.3793104 C6.27586217,9.97939318 5.95165114,9.65517249 5.55172424,9.65517249 Z M13.2758621,9.65517249 L8.44827595,9.65517249 C8.04834905,9.65517249 7.72413802,9.97939318 7.72413802,10.3793104 C7.72413802,10.7792277 8.04834905,11.1034483 8.44827595,11.1034483 L13.2758621,11.1034483 C13.6757794,11.1034483 14,10.7792277 14,10.3793104 C14,9.97939318 13.6757794,9.65517249 13.2758621,9.65517249 Z M15.025669,0.174362901 C16.3548966,0.353070486 17.4094345,0.726764277 18.2380414,1.55536151 C19.0666483,2.3839684 19.4404,3.43856426 19.6190207,4.76774356 C19.6464414,4.97112976 19.6600552,5.07281804 19.6180552,5.15399873 C19.5971035,5.19449252 19.564469,5.23180011 19.5271035,5.25798494 C19.4672414,5.29996562 19.3873584,5.30836176 19.2492415,5.31004099 L0.659631863,5.3104608 C0.447556003,5.3104608 0.341513245,5.3104608 0.266656694,5.25798494 C0.229320142,5.23180011 0.19668566,5.19449252 0.17572428,5.15399873 C0.13368566,5.07281804 0.147357384,4.97112976 0.174700832,4.76774356 C0.353398762,3.43856426 0.727092553,2.3839684 1.55569944,1.55536151 C2.38429668,0.726764277 3.43889253,0.353070486 4.76807184,0.174362901 C5.87986769,0.0249089859 7.25928364,0.00355842655 8.96272594,0.000508346651 L10.8310433,0.000508346651 C12.534469,0.00355842655 13.9138897,0.0249089859 15.025669,0.174362901 Z" id="Shape" fill="#111111"></path>
    </g>
</svg>