<?xml version="1.0" encoding="UTF-8"?>
<svg width="22px" height="22px" viewBox="0 0 22 22" version="1.1" xmlns="http://www.w3.org/2000/svg" xmlns:xlink="http://www.w3.org/1999/xlink">
    <title>Add price - ukrainian</title>
    <g id="Add-price---ukrainian" stroke="none" stroke-width="1" fill="none" fill-rule="evenodd">
        <path d="M10,0 C4.477,0 0,4.477 0,10 C0,15.523 4.477,20 10,20 C10.868,20 11.705766,19.877922 12.509766,19.669922 C12.187766,19.191922 12,18.618 12,18 C12,16.346 13.346,15 15,15 C15,13.346 16.346,12 18,12 C18.618,12 19.191922,12.187766 19.669922,12.509766 C19.877922,11.705766 20,10.868 20,10 C20,4.477 15.523,0 10,0 Z M18,14 C18.552,14 19,14.448 19,15 L19,17 L21,17 C21.552,17 22,17.448 22,18 C22,18.552 21.552,19 21,19 L19,19 L19,21 C19,21.552 18.552,22 18,22 C17.448,22 17,21.552 17,21 L17,19 L15,19 C14.448,19 14,18.552 14,18 C14,17.448 14.448,17 15,17 L17,17 L17,15 C17,14.448 17.448,14 18,14 Z M9.5,3.3 C10.8224167,3.3 11.7274035,3.71032944 12.2366535,4.23766278 C12.7447368,4.76499611 13,5.46265368 13,6.32832028 C13,6.87140368 12.8976612,7.34536201 12.6946612,7.75019528 L12.6741535,7.784375 C12.8641382,7.8577735 13,8.03923742 13,8.25491558 C13,8.54175108 12.7730011,8.76875 12.4930011,8.76875 L11.7592774,8.76875 C11.5696941,8.91691667 11.3665483,9.03066667 11.1577149,9.13333333 C10.8523253,9.28301783 10.5298604,9.39384592 10.2041014,9.49791667 L12.4930011,9.49791667 C12.7730011,9.49791667 13,9.72491558 13,10.0049156 C13,10.2917511 12.7730011,10.51875 12.4930011,10.51875 L7.98583986,10.51875 C7.95610847,10.5445112 7.92378778,10.5643597 7.89469402,10.5916667 C7.56161069,10.9043333 7.39111327,11.481824 7.39111327,11.9531573 C7.39111327,12.5119907 7.57485417,12.9943438 7.95052083,13.3169271 C8.32677083,13.6395104 8.84316667,13.8 9.5,13.8 C10.1714167,13.8 10.6911212,13.6079194 11.0574545,13.2235028 C11.3141212,12.9540028 11.5447566,12.5807056 11.6316733,12.0067056 C11.6468399,11.9052056 11.8114583,11.4666667 12.3072917,11.4666667 C12.689375,11.4666667 13,11.7767083 13,12.159375 C13,12.9649583 12.4386146,13.6885285 12.2070312,13.9481118 C11.6913646,14.5244452 10.8060833,14.9666667 9.5,14.9666667 C8.17758333,14.9666667 7.27259633,14.5563372 6.76334638,14.0290038 C6.25526305,13.5016705 6,12.8040132 6,11.9383465 C6,11.3952632 6.10233854,10.9213048 6.30533854,10.5164715 L6.32584638,10.4822917 C6.13586178,10.4088932 6,10.2274293 6,10.0117511 C6,9.72491558 6.22699868,9.49791667 6.50699868,9.49791667 L7.24072264,9.49791667 C7.43030598,9.34975 7.63345181,9.236 7.84228514,9.13333333 C8.14767478,8.98364883 8.47013958,8.87282075 8.79589858,8.76875 L6.50699868,8.76875 C6.22699868,8.76875 6,8.54175108 6,8.26175108 C6,7.97491558 6.22699868,7.74791667 6.50699868,7.74791667 L11.0141601,7.74791667 C11.0438914,7.72215538 11.0762122,7.70230729 11.1053059,7.675 C11.4383893,7.36233333 11.6088865,6.78484243 11.6088865,6.3135091 C11.6088865,5.75467577 11.4251458,5.27232292 11.0494792,4.94973958 C10.6732292,4.62715625 10.1568333,4.46666667 9.5,4.46666667 C8.82858333,4.46666667 8.30943487,4.65874737 7.94368487,5.04316403 C7.6870182,5.31266403 7.45524348,5.68596097 7.36832681,6.25996097 C7.35316014,6.36146091 7.18854167,6.8 6.69270833,6.8 C6.31004167,6.8 6,6.489375 6,6.10729167 C6,5.301125 6.56138542,4.57813805 6.79296875,4.31855472 C7.30863542,3.74222138 8.19391667,3.3 9.5,3.3 Z" id="Shape" fill="#341100" fill-rule="nonzero"></path>
    </g>
</svg>