<?xml version="1.0" encoding="UTF-8"?>
<svg width="22px" height="22px" viewBox="0 0 22 22" version="1.1" xmlns="http://www.w3.org/2000/svg" xmlns:xlink="http://www.w3.org/1999/xlink">
    <title>Add to list 9</title>
    <g id="Add-to-list-9" stroke="none" stroke-width="1" fill="none" fill-rule="evenodd">
        <g id="add_to_list" transform="translate(0, 0.0778)" fill="#000000" fill-rule="nonzero">
            <path d="M22,14 C22,14.5522847 21.5522847,15 21,15 L5,15 C4.44771525,15 4,14.5522847 4,14 C4,13.4477153 4.44771525,13 5,13 L21,13 C21.5522847,13 22,13.4477153 22,14 Z M4,20 C4,20.5522847 4.44771525,21 5,21 L21,21 C21.5522847,21 22,20.5522847 22,20 C22,19.4477153 21.5522847,19 21,19 L5,19 C4.44771525,19 4,19.4477153 4,20 Z M5,0 C7.7615,0 10,2.2385 10,5 C10,7.7615 7.7615,10 5,10 C2.2385,10 0,7.7615 0,5 C0,2.2385 2.2385,0 5,0 Z M4.89997872,1.92217876 C3.90727872,1.92217876 3.09997872,2.72947876 3.09997872,3.72217876 C3.09997872,4.71487876 3.90727872,5.52217876 4.89997872,5.52217876 C5.22787872,5.52217876 5.53477872,5.43232876 5.79997872,5.27842876 L5.79997872,6.12217876 C5.79997872,6.61837876 5.39617872,7.02217876 4.89997872,7.02217876 C4.40377872,7.02217876 3.99997872,6.61837876 3.99997872,6.12217876 L3.99997872,5.97217876 C3.99997872,5.72347876 3.79867872,5.52217876 3.54997872,5.52217876 C3.30127872,5.52217876 3.09997872,5.72347876 3.09997872,5.97217876 L3.09997872,6.12217876 C3.09997872,7.11487876 3.90727872,7.92217876 4.89997872,7.92217876 C5.89267872,7.92217876 6.69997872,7.11487876 6.69997872,6.12217876 L6.69997872,3.72217876 C6.69997872,2.72947876 5.89267872,1.92217876 4.89997872,1.92217876 Z M4.89997872,2.82217876 C5.39703499,2.82217876 5.79997872,3.22512248 5.79997872,3.72217876 C5.79997872,4.21923503 5.39703499,4.62217876 4.89997872,4.62217876 C4.40292244,4.62217876 3.99997872,4.21923503 3.99997872,3.72217876 C3.99997872,3.22512248 4.40292244,2.82217876 4.89997872,2.82217876 Z" id="Shape"></path>
        </g>
        <path d="M21.0000213,7.07782124 C21.552306,7.07782124 22.0000213,7.52553649 22.0000213,8.07782124 C22.0000213,8.63010599 21.552306,9.07782124 21.0000213,9.07782124 L10.0611513,9.07892775 C10.5377947,8.48825185 10.9131445,7.8124287 11.1608014,7.0778574 L21.0000213,7.07782124 Z" id="Combined-Shape" fill="#000000"></path>
    </g>
</svg>