<?xml version="1.0" encoding="UTF-8"?>
<svg width="22px" height="22px" viewBox="0 0 22 22" version="1.1" xmlns="http://www.w3.org/2000/svg" xmlns:xlink="http://www.w3.org/1999/xlink">
    <title>Add to list</title>
    <g id="Add-to-list" stroke="none" stroke-width="1" fill="none" fill-rule="evenodd">
        <g id="add_to_list" transform="translate(0, 0.0778)" fill="#FF8C14" fill-rule="nonzero">
            <path d="M22,14 C22,14.5522847 21.5522847,15 21,15 L5,15 C4.44771525,15 4,14.5522847 4,14 C4,13.4477153 4.44771525,13 5,13 L21,13 C21.5522847,13 22,13.4477153 22,14 Z M4,20 C4,20.5522847 4.44771525,21 5,21 L21,21 C21.5522847,21 22,20.5522847 22,20 C22,19.4477153 21.5522847,19 21,19 L5,19 C4.44771525,19 4,19.4477153 4,20 Z M5,0 C7.7615,0 10,2.2385 10,5 C10,7.7615 7.7615,10 5,10 C2.2385,10 0,7.7615 0,5 C0,2.2385 2.2385,0 5,0 Z M4.99997872,1.92217876 L4.89825302,1.92902945 C4.53231205,1.97872042 4.24997872,2.29267876 4.24997872,2.67217876 L4.24997872,4.17217876 L2.74997872,4.17217876 C2.33597872,4.17217876 1.99997872,4.50817876 1.99997872,4.92217876 L2.00682941,5.02390445 C2.05652039,5.38984542 2.37047872,5.67217876 2.74997872,5.67217876 L4.24997872,5.67217876 L4.24997872,7.17217876 C4.24997872,7.58617876 4.58597872,7.92217876 4.99997872,7.92217876 L5.10170441,7.91532806 C5.46764539,7.86563709 5.74997872,7.55167876 5.74997872,7.17217876 L5.74997872,5.67217876 L7.24997872,5.67217876 C7.66397872,5.67217876 7.99997872,5.33617876 7.99997872,4.92217876 L7.99312802,4.82045306 C7.94343705,4.45451209 7.62947872,4.17217876 7.24997872,4.17217876 L5.74997872,4.17217876 L5.74997872,2.67217876 C5.74997872,2.25817876 5.41397872,1.92217876 4.99997872,1.92217876 Z" id="Shape"></path>
        </g>
        <path d="M21.0000213,7.07782124 C21.552306,7.07782124 22.0000213,7.52553649 22.0000213,8.07782124 C22.0000213,8.63010599 21.552306,9.07782124 21.0000213,9.07782124 L10.0611513,9.07892775 C10.5377947,8.48825185 10.9131445,7.8124287 11.1608014,7.0778574 L21.0000213,7.07782124 Z" id="Combined-Shape" fill="#FF8C14"></path>
    </g>
</svg>