<?xml version="1.0" encoding="UTF-8"?>
<svg width="22px" height="22px" viewBox="0 0 22 22" version="1.1" xmlns="http://www.w3.org/2000/svg" xmlns:xlink="http://www.w3.org/1999/xlink">
    <title>Add to list 9+</title>
    <g id="Add-to-list-9+" stroke="none" stroke-width="1" fill="none" fill-rule="evenodd">
        <g id="add_to_list" transform="translate(0, 0.0778)" fill="#000000" fill-rule="nonzero">
            <path d="M22,14 C22,14.5522847 21.5522847,15 21,15 L5,15 C4.44771525,15 4,14.5522847 4,14 C4,13.4477153 4.44771525,13 5,13 L21,13 C21.5522847,13 22,13.4477153 22,14 Z M4,20 C4,20.5522847 4.44771525,21 5,21 L21,21 C21.5522847,21 22,20.5522847 22,20 C22,19.4477153 21.5522847,19 21,19 L5,19 C4.44771525,19 4,19.4477153 4,20 Z M5,0 C7.7615,0 10,2.2385 10,5 C10,7.7615 7.7615,10 5,10 C2.2385,10 0,7.7615 0,5 C0,2.2385 2.2385,0 5,0 Z M4.09997872,2.42217876 C3.27272872,2.42217876 2.59997872,3.09492876 2.59997872,3.92217876 C2.59997872,4.74942876 3.27272872,5.42217876 4.09997872,5.42217876 C4.37322872,5.42217876 4.62897872,5.34730376 4.84997872,5.21905376 L4.84997872,5.92217876 C4.84997872,6.33567876 4.51347872,6.67217876 4.09997872,6.67217876 C3.68647872,6.67217876 3.34997872,6.33567876 3.34997872,5.92217876 L3.34997872,5.79717876 C3.34997872,5.58992876 3.18222872,5.42217876 2.97497872,5.42217876 C2.76772872,5.42217876 2.59997872,5.58992876 2.59997872,5.79717876 L2.59997872,5.92217876 C2.59997872,6.74942876 3.27272872,7.42217876 4.09997872,7.42217876 C4.92722872,7.42217876 5.59997872,6.74942876 5.59997872,5.92217876 L5.59997872,3.92217876 C5.59997872,3.09492876 4.92722872,2.42217876 4.09997872,2.42217876 Z M7.19997872,3.92217876 L7.14267843,3.92878517 C7.03226443,3.95470937 6.94997872,4.05389304 6.94997872,4.17217876 L6.94997872,4.67217876 L6.44997872,4.67217876 C6.31197872,4.67217876 6.19997872,4.78417876 6.19997872,4.92217876 L6.20658513,4.97947905 C6.23250933,5.08989304 6.331693,5.17217876 6.44997872,5.17217876 L6.94997872,5.17217876 L6.94997872,5.67217876 C6.94997872,5.81017876 7.06197872,5.92217876 7.19997872,5.92217876 L7.25727901,5.91557234 C7.367693,5.88964815 7.44997872,5.79046447 7.44997872,5.67217876 L7.44997872,5.17217876 L7.94997872,5.17217876 C8.08797872,5.17217876 8.19997872,5.06017876 8.19997872,4.92217876 L8.1933723,4.86487847 C8.16744811,4.75446447 8.06826443,4.67217876 7.94997872,4.67217876 L7.44997872,4.67217876 L7.44997872,4.17217876 C7.44997872,4.03417876 7.33797872,3.92217876 7.19997872,3.92217876 Z M4.09997872,3.17217876 C4.51419228,3.17217876 4.84997872,3.5079652 4.84997872,3.92217876 C4.84997872,4.33639232 4.51419228,4.67217876 4.09997872,4.67217876 C3.68576516,4.67217876 3.34997872,4.33639232 3.34997872,3.92217876 C3.34997872,3.5079652 3.68576516,3.17217876 4.09997872,3.17217876 Z" id="Shape"></path>
        </g>
        <path d="M21.0000213,7.07782124 C21.552306,7.07782124 22.0000213,7.52553649 22.0000213,8.07782124 C22.0000213,8.63010599 21.552306,9.07782124 21.0000213,9.07782124 L10.0611513,9.07892775 C10.5377947,8.48825185 10.9131445,7.8124287 11.1608014,7.0778574 L21.0000213,7.07782124 Z" id="Combined-Shape" fill="#000000"></path>
    </g>
</svg>