<?xml version="1.0" encoding="UTF-8"?>
<svg width="22px" height="22px" viewBox="0 0 22 22" version="1.1" xmlns="http://www.w3.org/2000/svg" xmlns:xlink="http://www.w3.org/1999/xlink">
    <title>Add price - ruble</title>
    <g id="Add-price---ruble" stroke="none" stroke-width="1" fill="none" fill-rule="evenodd">
        <path d="M10,0 C4.477,0 0,4.477 0,10 C0,15.523 4.477,20 10,20 C10.868,20 11.705766,19.877922 12.509766,19.669922 C12.187766,19.191922 12,18.618 12,18 C12,16.346 13.346,15 15,15 C15,13.346 16.346,12 18,12 C18.618,12 19.191922,12.187766 19.669922,12.509766 C19.877922,11.705766 20,10.868 20,10 C20,4.477 15.523,0 10,0 Z M18,14 C18.552,14 19,14.448 19,15 L19,17 L21,17 C21.552,17 22,17.448 22,18 C22,18.552 21.552,19 21,19 L19,19 L19,21 C19,21.552 18.552,22 18,22 C17.448,22 17,21.552 17,21 L17,19 L15,19 C14.448,19 14,18.552 14,18 C14,17.448 14.448,17 15,17 L17,17 L17,15 C17,14.448 17.448,14 18,14 Z M11.046875,4 C13.230375,4 15,5.692625 15,7.78125 C15,9.869875 13.230375,11.5625 11.046875,11.5625 L7.4375,11.5625 L7.4375,12.6796875 L9.5,12.6796875 C9.8795,12.6796875 10.1875,12.9876875 10.1875,13.3671875 L10.1800413,13.4687371 C10.1309091,13.800142 9.845,14.0546875 9.5,14.0546875 L7.4375,14.0546875 L7.4375,15.515625 C7.4375,15.99 7.0525,16.375 6.578125,16.375 L6.47037494,16.3683002 C6.04679734,16.3152404 5.71875,15.9535096 5.71875,15.515625 L5.71875,14.0546875 L4.6875,14.0546875 C4.308,14.0546875 4,13.7466875 4,13.3671875 L4.00745868,13.2656379 C4.05659091,12.934233 4.3425,12.6796875 4.6875,12.6796875 L5.71875,12.6796875 L5.71875,11.5625 L4.6875,11.5625 C4.308,11.5625 4,11.2545 4,10.875 L4.00745868,10.7734504 C4.05659091,10.4420455 4.3425,10.1875 4.6875,10.1875 L5.71875,10.1875 L5.71875,5.375 C5.71875,4.6153125 6.3340625,4 7.09375,4 Z M10.9609375,5.375 L7.4375,5.375 L7.4375,10.1875 L10.9609375,10.1875 C12.289875,10.1875 13.3671875,9.1101875 13.3671875,7.78125 C13.3671875,6.4523125 12.289875,5.375 10.9609375,5.375 Z" id="Shape" fill="#341100" fill-rule="nonzero"></path>
    </g>
</svg>