<?xml version="1.0" encoding="UTF-8"?>
<svg width="22px" height="22px" viewBox="0 0 22 22" version="1.1" xmlns="http://www.w3.org/2000/svg" xmlns:xlink="http://www.w3.org/1999/xlink">
    <title>Add to list 3</title>
    <g id="Add-to-list-3" stroke="none" stroke-width="1" fill="none" fill-rule="evenodd">
        <g id="add_to_list" transform="translate(0, 0.0778)" fill="#000000" fill-rule="nonzero">
            <path d="M22,14 C22,14.5522847 21.5522847,15 21,15 L5,15 C4.44771525,15 4,14.5522847 4,14 C4,13.4477153 4.44771525,13 5,13 L21,13 C21.5522847,13 22,13.4477153 22,14 Z M4,20 C4,20.5522847 4.44771525,21 5,21 L21,21 C21.5522847,21 22,20.5522847 22,20 C22,19.4477153 21.5522847,19 21,19 L5,19 C4.44771525,19 4,19.4477153 4,20 Z M5,0 C7.7615,0 10,2.2385 10,5 C10,7.7615 7.7615,10 5,10 C2.2385,10 0,7.7615 0,5 C0,2.2385 2.2385,0 5,0 Z M4.94442316,2.14440098 C4.31553427,2.14440098 3.69608983,2.51106765 3.44720094,3.16440098 C3.32831205,3.47606765 3.57553427,3.81106765 3.90942316,3.81106765 L3.9938012,3.8035717 C4.1585048,3.77397014 4.29632793,3.65900415 4.36108983,3.49995654 C4.46331205,3.2466232 4.68497872,3.02217876 4.99997872,3.02217876 C5.16664539,3.02217876 5.72220094,3.08051209 5.72220094,3.72384542 C5.72220094,4.42551209 5.22220094,4.48384542 4.94442316,4.48384542 C4.57997872,4.48384542 4.44442316,4.6266232 4.44442316,4.92217876 C4.44664539,5.18828987 4.60664539,5.30217876 4.88886761,5.29828987 C4.99997872,5.29828987 5.66664539,5.24384542 5.66664539,6.06273431 C5.66664539,6.07002598 5.6668624,6.07937494 5.66709298,6.09049554 L5.6670116,6.17619379 C5.66013497,6.39803379 5.58678427,6.82273431 4.99997872,6.82273431 C4.64386761,6.82273431 4.4527565,6.59106765 4.37108983,6.3716232 C4.29720094,6.17328987 4.12053427,6.03328987 3.90886761,6.03328987 L3.88831205,6.03328987 C3.55664539,6.03328987 3.31164539,6.36106765 3.42442316,6.67273431 C3.60942316,7.18440098 4.07997872,7.69995654 4.99997872,7.69995654 C5.55553427,7.69995654 6.66664539,7.43828987 6.66664539,6.12106765 C6.66664539,5.24384542 6.16664539,4.9516232 5.88886761,4.83440098 C5.99997872,4.77606765 6.66664539,4.42495654 6.66664539,3.66495654 C6.66664539,3.25551209 6.49997872,2.14440098 4.94442316,2.14440098 Z" id="Shape"></path>
        </g>
        <path d="M21.0000213,7.07782124 C21.552306,7.07782124 22.0000213,7.52553649 22.0000213,8.07782124 C22.0000213,8.63010599 21.552306,9.07782124 21.0000213,9.07782124 L10.0611513,9.07892775 C10.5377947,8.48825185 10.9131445,7.8124287 11.1608014,7.0778574 L21.0000213,7.07782124 Z" id="Combined-Shape" fill="#000000"></path>
    </g>
</svg>