<?xml version="1.0" encoding="UTF-8"?>
<svg width="24px" height="24px" viewBox="0 0 24 24" version="1.1" xmlns="http://www.w3.org/2000/svg" xmlns:xlink="http://www.w3.org/1999/xlink">
    <title>Add circled</title>
    <g id="Add-circled" stroke="none" stroke-width="1" fill="none" fill-rule="evenodd">
        <path d="M12,0 C5.3832396,0 0,5.3832444 0,12 C0,18.6167556 5.3832396,24 12,24 C18.6167604,24 24,18.6167556 24,12 C24,5.3832444 18.6167604,0 12,0 Z M12,1.8 C17.643969,1.8 22.2,6.3560346 22.2,12 C22.2,17.6439654 17.643969,22.2 12,22.2 C6.356031,22.2 1.8,17.6439654 1.8,12 C1.8,6.3560346 6.356031,1.8 12,1.8 Z M11.9859372,5.98699954 C11.4893409,5.99486782 11.0928763,6.4033942 11.1,6.9 L11.1,11.1 L6.9,11.1 C6.57542768,11.0954097 6.27352677,11.2659378 6.10990105,11.5462856 C5.94627533,11.8266334 5.94627533,12.1733666 6.10990105,12.4537144 C6.27352677,12.7340622 6.57542768,12.9045903 6.9,12.9 L11.1,12.9 L11.1,17.1 C11.0954097,17.4245723 11.2659378,17.7264732 11.5462856,17.8900989 C11.8266334,18.0537247 12.1733666,18.0537247 12.4537144,17.8900989 C12.7340622,17.7264732 12.9045903,17.4245723 12.9,17.1 L12.9,12.9 L17.1,12.9 C17.4245723,12.9045903 17.7264732,12.7340622 17.8900989,12.4537144 C18.0537247,12.1733666 18.0537247,11.8266334 17.8900989,11.5462856 C17.7264732,11.2659378 17.4245723,11.0954097 17.1,11.1 L12.9,11.1 L12.9,6.9 C12.9034911,6.65662881 12.8082713,6.4222183 12.6360538,6.25022165 C12.4638362,6.07822501 12.2293037,5.98330613 11.9859372,5.98699954 Z" id="Shape" fill="#FFFFFF" fill-rule="nonzero"></path>
    </g>
</svg>