<?xml version="1.0" encoding="UTF-8"?>
<svg width="22px" height="22px" viewBox="0 0 22 22" version="1.1" xmlns="http://www.w3.org/2000/svg" xmlns:xlink="http://www.w3.org/1999/xlink">
    <title>Add price - rupee</title>
    <g id="Add-price---rupee" stroke="none" stroke-width="1" fill="none" fill-rule="evenodd">
        <path d="M10,0 C4.477,0 0,4.477 0,10 C0,15.523 4.477,20 10,20 C10.868,20 11.705766,19.877922 12.509766,19.669922 C12.187766,19.191922 12,18.618 12,18 C12,16.346 13.346,15 15,15 C15,13.346 16.346,12 18,12 C18.618,12 19.191922,12.187766 19.669922,12.509766 C19.877922,11.705766 20,10.868 20,10 C20,4.477 15.523,0 10,0 Z M18,14 C18.552,14 19,14.448 19,15 L19,17 L21,17 C21.552,17 22,17.448 22,18 C22,18.552 21.552,19 21,19 L19,19 L19,21 C19,21.552 18.552,22 18,22 C17.448,22 17,21.552 17,21 L17,19 L15,19 C14.448,19 14,18.552 14,18 C14,17.448 14.448,17 15,17 L17,17 L17,15 C17,14.448 17.448,14 18,14 Z M12.7916667,3.6 C13.1826667,3.6 13.5,3.91733333 13.5,4.30833333 C13.5,4.69933333 13.1826667,5.01666667 12.7916667,5.01666667 L10.9415,5.01666667 C11.364375,5.487 11.6760417,6.058625 11.8155833,6.69895833 L12.7916667,6.69895833 C13.1826667,6.69895833 13.5,7.01629167 13.5,7.40729167 C13.5,7.79829167 13.1826667,8.115625 12.7916667,8.115625 L11.8439167,8.115625 C11.547125,9.873 10.0291667,11.2145833 8.1875,11.2145833 L7.125,11.2145833 L11.1639167,15.1380417 L11.2359173,15.2213813 C11.32332,15.33884 11.375,15.4841333 11.375,15.6416667 C11.375,16.0326667 11.0576667,16.35 10.6666667,16.35 C10.480375,16.35 10.3132083,16.2742083 10.1864167,16.156625 L5.22029167,11.2599167 C5.08358333,11.1196667 5,10.9340833 5,10.7279583 C5,10.3121667 5.33716667,9.975 5.75295833,9.975 L7.83333333,9.975 C8.98720833,9.975 9.94841667,9.18308333 10.2246667,8.115625 L5.70833333,8.115625 C5.31733333,8.115625 5,7.79829167 5,7.40729167 C5,7.01629167 5.31733333,6.69895833 5.70833333,6.69895833 L10.170125,6.69895833 C9.8365,5.722875 8.92204167,5.01666667 7.83333333,5.01666667 L5.70833333,5.01666667 C5.31733333,5.01666667 5,4.69933333 5,4.30833333 C5,3.91733333 5.31733333,3.6 5.70833333,3.6 Z" id="Shape" fill="#341100" fill-rule="nonzero"></path>
    </g>
</svg>