<?xml version="1.0" encoding="UTF-8"?>
<svg width="22px" height="22px" viewBox="0 0 22 22" version="1.1" xmlns="http://www.w3.org/2000/svg" xmlns:xlink="http://www.w3.org/1999/xlink">
    <title>Add to list 4</title>
    <g id="Add-to-list-4" stroke="none" stroke-width="1" fill="none" fill-rule="evenodd">
        <g id="add_to_list" transform="translate(0, 0.0778)" fill="#000000" fill-rule="nonzero">
            <path d="M22,14 C22,14.5522847 21.5522847,15 21,15 L5,15 C4.44771525,15 4,14.5522847 4,14 C4,13.4477153 4.44771525,13 5,13 L21,13 C21.5522847,13 22,13.4477153 22,14 Z M4,20 C4,20.5522847 4.44771525,21 5,21 L21,21 C21.5522847,21 22,20.5522847 22,20 C22,19.4477153 21.5522847,19 21,19 L5,19 C4.44771525,19 4,19.4477153 4,20 Z M5,0 C7.7615,0 10,2.2385 10,5 C10,7.7615 7.7615,10 5,10 C2.2385,10 0,7.7615 0,5 C0,2.2385 2.2385,0 5,0 Z M6.11109002,2.52217876 C5.79791222,2.52217876 5.54442332,2.77566766 5.54442332,3.08884546 L5.54442332,5.16662336 L4.03331212,5.16662336 L4.03331212,3.08884546 C4.03331212,2.77566766 3.77982322,2.52217876 3.46664542,2.52217876 C3.15346762,2.52217876 2.89997872,2.77566766 2.89997872,3.08884546 L2.89997872,5.73329006 C2.89997872,6.04646785 3.15346762,6.29995676 3.46664542,6.29995676 L5.54442332,6.29995676 L5.54442332,7.24440126 C5.54442332,7.55757905 5.79791222,7.81106796 6.11109002,7.81106796 C6.42426782,7.81106796 6.67775672,7.55757905 6.67775672,7.24440126 L6.67775672,3.08884546 C6.67775672,2.77566766 6.42426782,2.52217876 6.11109002,2.52217876 Z" id="Shape"></path>
        </g>
        <path d="M21.0000213,7.07782124 C21.552306,7.07782124 22.0000213,7.52553649 22.0000213,8.07782124 C22.0000213,8.63010599 21.552306,9.07782124 21.0000213,9.07782124 L10.0611513,9.07892775 C10.5377947,8.48825185 10.9131445,7.8124287 11.1608014,7.0778574 L21.0000213,7.07782124 Z" id="Combined-Shape" fill="#000000"></path>
    </g>
</svg>