<?xml version="1.0" encoding="UTF-8"?>
<svg width="22px" height="22px" viewBox="0 0 22 22" version="1.1" xmlns="http://www.w3.org/2000/svg" xmlns:xlink="http://www.w3.org/1999/xlink">
    <title>Add price - pound</title>
    <g id="Add-price---pound" stroke="none" stroke-width="1" fill="none" fill-rule="evenodd">
        <path d="M10,0 C4.477,0 0,4.477 0,10 C0,15.523 4.477,20 10,20 C10.868,20 11.705766,19.877922 12.509766,19.669922 C12.187766,19.191922 12,18.618 12,18 C12,16.346 13.346,15 15,15 C15,13.346 16.346,12 18,12 C18.618,12 19.191922,12.187766 19.669922,12.509766 C19.877922,11.705766 20,10.868 20,10 C20,4.477 15.523,0 10,0 Z M18,14 C18.552,14 19,14.448 19,15 L19,17 L21,17 C21.552,17 22,17.448 22,18 C22,18.552 21.552,19 21,19 L19,19 L19,21 C19,21.552 18.552,22 18,22 C17.448,22 17,21.552 17,21 L17,19 L15,19 C14.448,19 14,18.552 14,18 C14,17.448 14.448,17 15,17 L17,17 L17,15 C17,14.448 17.448,14 18,14 Z M10.0981538,3.5 C11.0753846,3.5 11.8495385,3.76338462 12.42,4.28892308 C12.7990769,4.63846154 13.0526154,5.06553846 13.18,5.57076923 C13.18,5.57076923 13.2095385,5.77876923 13.2095385,5.84584615 C13.2095385,6.24953846 12.8821538,6.57692308 12.4784615,6.57692308 C12.1123077,6.57692308 11.8864615,6.35107692 11.7830769,6.02061538 C11.7147692,5.80276923 11.5350769,5.34246154 11.3129231,5.132 C10.9861538,4.82369231 10.5375385,4.66923077 9.96707692,4.66923077 C9.42676923,4.66923077 8.98984615,4.86 8.65507692,5.24276923 C8.32092308,5.62553846 8.15353846,6.12769231 8.15353846,6.74861538 L8.22246154,9.03846154 L10.5030769,9.03846154 C10.7984615,9.03846154 11.0384615,9.27846154 11.0384615,9.57384615 C11.0384615,9.87538462 10.7984615,10.1153846 10.5030769,10.1153846 L8.28769231,10.1153846 L8.32338462,11.5689231 C8.32338462,12.3092308 8.17076923,12.8993846 7.87169231,13.3461538 L12.8846154,13.3461538 C13.2243077,13.3461538 13.5,13.6218462 13.5,13.9615385 C13.5,14.3012308 13.2243077,14.5769231 12.8846154,14.5769231 L6.11538462,14.5769231 C5.77569231,14.5769231 5.5,14.3012308 5.5,13.9615385 C5.5,13.6218462 5.77569231,13.3461538 6.11538462,13.3461538 L6.23846154,13.3461538 C6.39230769,13.2667692 6.52276923,13.1 6.62676923,12.8378462 C6.75476923,12.5129231 6.82430769,12.1123077 6.83476923,11.636 L6.83476923,11.5763077 L6.78061538,10.1153846 L6.03538462,10.1153846 C5.74,10.1153846 5.5,9.87538462 5.5,9.58 C5.5,9.27846154 5.74,9.03846154 6.03538462,9.03846154 L6.73323077,9.03846154 L6.66553846,6.75169231 C6.66553846,5.76461538 6.98,4.97569231 7.61015385,4.38492308 C8.24030769,3.79476923 9.06984615,3.5 10.0981538,3.5 Z" id="Shape" fill="#341100" fill-rule="nonzero"></path>
    </g>
</svg>