<?xml version="1.0" encoding="UTF-8"?>
<svg width="22px" height="22px" viewBox="0 0 22 22" version="1.1" xmlns="http://www.w3.org/2000/svg" xmlns:xlink="http://www.w3.org/1999/xlink">
    <title>Add to list 8</title>
    <g id="Add-to-list-8" stroke="none" stroke-width="1" fill="none" fill-rule="evenodd">
        <g id="add_to_list" transform="translate(0, 0.0778)">
            <path d="M22,14 C22,14.5522847 21.5522847,15 21,15 L5,15 C4.44771525,15 4,14.5522847 4,14 C4,13.4477153 4.44771525,13 5,13 L21,13 C21.5522847,13 22,13.4477153 22,14 Z M4,20 C4,20.5522847 4.44771525,21 5,21 L21,21 C21.5522847,21 22,20.5522847 22,20 C22,19.4477153 21.5522847,19 21,19 L5,19 C4.44771525,19 4,19.4477153 4,20 Z M5,0 C7.7615,0 10,2.2385 10,5 C10,7.7615 7.7615,10 5,10 C2.2385,10 0,7.7615 0,5 C0,2.2385 2.2385,0 5,0 Z M4.88369965,2.13148108 C4.1143043,2.13148108 3.48835081,2.75743457 3.48835081,3.52682992 C3.48835081,3.8815276 3.62548318,4.20264955 3.84427388,4.44906843 C3.45804132,4.7560449 3.20928104,5.22859736 3.20928104,5.75938806 L3.20928104,6.03845783 C3.20928104,6.96189969 3.96025779,7.71287643 4.88369965,7.71287643 C5.80714151,7.71287643 6.55811825,6.96189969 6.55811825,6.03845783 L6.55811825,5.75938806 C6.55811825,5.22859736 6.30935797,4.75604518 5.92312542,4.44906843 C6.14191611,4.20264983 6.27904849,3.8815276 6.27904849,3.52682992 C6.27904849,2.75743457 5.653095,2.13148108 4.88369965,2.13148108 Z M4.88369965,4.92217876 C5.34528104,4.92217876 5.72090895,5.29780667 5.72090895,5.75938806 L5.72090895,6.03845783 C5.72090895,6.50003922 5.34528104,6.87566713 4.88369965,6.87566713 C4.42211825,6.87566713 4.04649035,6.50003922 4.04649035,6.03845783 L4.04649035,5.75938806 C4.04649035,5.29780667 4.42211825,4.92217876 4.88369965,4.92217876 Z M4.88369965,2.96869039 C5.1919516,2.96869039 5.44183918,3.21857797 5.44183918,3.52682992 C5.44183918,3.83508187 5.1919516,4.08496946 4.88369965,4.08496946 C4.5754477,4.08496946 4.32556011,3.83508187 4.32556011,3.52682992 C4.32556011,3.21857797 4.5754477,2.96869039 4.88369965,2.96869039 Z" id="Shape" fill="#000000" fill-rule="nonzero"></path>
            <g id="icons8-eight_plus" transform="translate(4.0465, 5.9222)"></g>
        </g>
        <path d="M21.0000213,7.07782124 C21.552306,7.07782124 22.0000213,7.52553649 22.0000213,8.07782124 C22.0000213,8.63010599 21.552306,9.07782124 21.0000213,9.07782124 L10.0611513,9.07892775 C10.5377947,8.48825185 10.9131445,7.8124287 11.1608014,7.0778574 L21.0000213,7.07782124 Z" id="Combined-Shape" fill="#000000"></path>
    </g>
</svg>