<?xml version="1.0" encoding="UTF-8"?>
<svg width="22px" height="22px" viewBox="0 0 22 22" version="1.1" xmlns="http://www.w3.org/2000/svg" xmlns:xlink="http://www.w3.org/1999/xlink">
    <title>Add to list</title>
    <g id="Add-to-list" stroke="none" stroke-width="1" fill="none" fill-rule="evenodd">
        <g id="add_to_list" transform="translate(0, 1.0778)" fill="#FF8C14" fill-rule="nonzero">
            <path d="M22,12 C22,12.5522847 21.5522847,13 21,13 L5,13 C4.44771525,13 4,12.5522847 4,12 C4,11.4477153 4.44771525,11 5,11 L21,11 C21.5522847,11 22,11.4477153 22,12 Z M22,6 L21.9999252,6 C21.9999252,6.55225553 21.5522555,6.99995867 21,7 L10.6546193,7.00084895 L10.6546193,7.00084895 C10.8781556,6.37429329 11,5.70062619 11,5 L21,5 C21.5522847,5 22,5.44771525 22,6 Z M4,18 C4,18.5522847 4.44771525,19 5,19 L21,19 C21.5522847,19 22,18.5522847 22,18 C22,17.4477153 21.5522847,17 21,17 L5,17 C4.44771525,17 4,17.4477153 4,18 Z M5,0 C7.7615,0 10,2.2385 10,5 C10,7.7615 7.7615,10 5,10 C2.2385,10 0,7.7615 0,5 C0,2.2385 2.2385,0 5,0 Z M4.99997872,1.92217876 L4.89825302,1.92902945 C4.53231205,1.97872042 4.24997872,2.29267876 4.24997872,2.67217876 L4.24997872,4.17217876 L2.74997872,4.17217876 C2.33597872,4.17217876 1.99997872,4.50817876 1.99997872,4.92217876 L2.00682941,5.02390445 C2.05652039,5.38984542 2.37047872,5.67217876 2.74997872,5.67217876 L4.24997872,5.67217876 L4.24997872,7.17217876 C4.24997872,7.58617876 4.58597872,7.92217876 4.99997872,7.92217876 L5.10170441,7.91532806 C5.46764539,7.86563709 5.74997872,7.55167876 5.74997872,7.17217876 L5.74997872,5.67217876 L7.24997872,5.67217876 C7.66397872,5.67217876 7.99997872,5.33617876 7.99997872,4.92217876 L7.99312802,4.82045306 C7.94343705,4.45451209 7.62947872,4.17217876 7.24997872,4.17217876 L5.74997872,4.17217876 L5.74997872,2.67217876 C5.74997872,2.25817876 5.41397872,1.92217876 4.99997872,1.92217876 Z" id="Shape"></path>
        </g>
    </g>
</svg>