<?xml version="1.0" encoding="UTF-8"?>
<svg width="21px" height="21px" viewBox="0 0 21 21" version="1.1" xmlns="http://www.w3.org/2000/svg" xmlns:xlink="http://www.w3.org/1999/xlink">
    <title>Add property</title>
    <g id="Add-property" stroke="none" stroke-width="1" fill="none" fill-rule="evenodd">
        <path d="M4.75,5.75 C2.12664744,5.75 0,7.87664744 0,10.5 C0,13.1233526 2.12664744,15.25 4.75,15.25 C7.37335256,15.25 9.5,13.1233526 9.5,10.5 C9.5,7.87664744 7.37335256,5.75 4.75,5.75 L4.75,5.75 Z M6.90909091,11.3636364 L5.61363636,11.3636364 L5.61363636,12.6590909 C5.61363636,13.1360641 5.22697319,13.5227273 4.75,13.5227273 C4.27302681,13.5227273 3.88636364,13.1360641 3.88636364,12.6590909 L3.88636364,11.3636364 L2.59090909,11.3636364 C2.1139359,11.3636364 1.72727273,10.9769732 1.72727273,10.5 C1.72727273,10.0230268 2.1139359,9.63636364 2.59090909,9.63636364 L3.88636364,9.63636364 L3.88636364,8.34090909 C3.88636364,7.8639359 4.27302681,7.47727273 4.75,7.47727273 C5.22697319,7.47727273 5.61363636,7.8639359 5.61363636,8.34090909 L5.61363636,9.63636364 L6.90909091,9.63636364 C7.3860641,9.63636364 7.77272727,10.0230268 7.77272727,10.5 C7.77272727,10.9769732 7.3860641,11.3636364 6.90909091,11.3636364 Z" id="Shape" fill="#000000" fill-rule="nonzero"></path>
        <path d="M21,6.3 C21,6.85228475 20.5522847,7.3 20,7.3 L11.7,7.3 C11.1477153,7.3 10.7,6.85228475 10.7,6.3 C10.7,5.74771525 11.1477153,5.3 11.7,5.3 L20,5.3 C20.5522847,5.3 21,5.74771525 21,6.3 Z" id="Shape-path" fill="#000000"></path>
        <path d="M21,14.7 C21,15.2522847 20.5522847,15.7 20,15.7 L11.7,15.7 C11.1477153,15.7 10.7,15.2522847 10.7,14.7 C10.7,14.1477153 11.1477153,13.7 11.7,13.7 L20,13.7 C20.5522847,13.7 21,14.1477153 21,14.7 Z" id="Shape-path" fill="#000000"></path>
        <path d="M21,10.5 C21,11.0522847 20.5522847,11.5 20,11.5 L13,11.5 C12.4477153,11.5 12,11.0522847 12,10.5 C12,9.94771525 12.4477153,9.5 13,9.5 L20,9.5 C20.5522847,9.5 21,9.94771525 21,10.5 Z" id="Shape-path" fill="#000000"></path>
    </g>
</svg>