<?xml version="1.0" encoding="UTF-8"?>
<svg width="22px" height="22px" viewBox="0 0 22 22" version="1.1" xmlns="http://www.w3.org/2000/svg" xmlns:xlink="http://www.w3.org/1999/xlink">
    <title>Add to list 7</title>
    <g id="Add-to-list-7" stroke="none" stroke-width="1" fill="none" fill-rule="evenodd">
        <g id="add_to_list" transform="translate(0, 0.0778)" fill="#000000" fill-rule="nonzero">
            <path d="M22,14 C22,14.5522847 21.5522847,15 21,15 L5,15 C4.44771525,15 4,14.5522847 4,14 C4,13.4477153 4.44771525,13 5,13 L21,13 C21.5522847,13 22,13.4477153 22,14 Z M4,20 C4,20.5522847 4.44771525,21 5,21 L21,21 C21.5522847,21 22,20.5522847 22,20 C22,19.4477153 21.5522847,19 21,19 L5,19 C4.44771525,19 4,19.4477153 4,20 Z M5,0 C7.7615,0 10,2.2385 10,5 C10,7.7615 7.7615,10 5,10 C2.2385,10 0,7.7615 0,5 C0,2.2385 2.2385,0 5,0 Z M6.50012955,2.22217876 L3.70000534,2.22217876 C3.36839063,2.22217876 3.09997872,2.49059066 3.09997872,2.82220537 C3.09997872,3.15382008 3.36839063,3.42223199 3.70000534,3.42223199 L5.5680882,3.42223199 L3.95361659,6.97398954 C3.8164105,7.27560292 3.95001643,7.6312187 4.2516298,7.76842478 C4.33243339,7.80522642 4.41643712,7.82242718 4.49964081,7.82242718 C4.72765092,7.82242718 4.94566059,7.69162138 5.04606505,7.47041156 L7.04615377,3.07021638 C7.13055751,2.88460814 7.11495682,2.66859856 7.00455192,2.49739097 C6.89414702,2.32578335 6.7041386,2.22217876 6.50012955,2.22217876 Z" id="Shape"></path>
        </g>
        <path d="M21.0000213,7.07782124 C21.552306,7.07782124 22.0000213,7.52553649 22.0000213,8.07782124 C22.0000213,8.63010599 21.552306,9.07782124 21.0000213,9.07782124 L10.0611513,9.07892775 C10.5377947,8.48825185 10.9131445,7.8124287 11.1608014,7.0778574 L21.0000213,7.07782124 Z" id="Combined-Shape" fill="#000000"></path>
    </g>
</svg>