<?xml version="1.0" encoding="UTF-8"?>
<svg width="22px" height="22px" viewBox="0 0 22 22" version="1.1" xmlns="http://www.w3.org/2000/svg" xmlns:xlink="http://www.w3.org/1999/xlink">
    <title>Add price - euro</title>
    <g id="Add-price---euro" stroke="none" stroke-width="1" fill="none" fill-rule="evenodd">
        <path d="M10,0 C4.477,0 0,4.477 0,10 C0,15.523 4.477,20 10,20 C10.868,20 11.705766,19.877922 12.509766,19.669922 C12.187766,19.191922 12,18.618 12,18 C12,16.346 13.346,15 15,15 C15,13.346 16.346,12 18,12 C18.618,12 19.191922,12.187766 19.669922,12.509766 C19.877922,11.705766 20,10.868 20,10 C20,4.477 15.523,0 10,0 Z M18,14 C18.552,14 19,14.448 19,15 L19,17 L21,17 C21.552,17 22,17.448 22,18 C22,18.552 21.552,19 21,19 L19,19 L19,21 C19,21.552 18.552,22 18,22 C17.448,22 17,21.552 17,21 L17,19 L15,19 C14.448,19 14,18.552 14,18 C14,17.448 14.448,17 15,17 L17,17 L17,15 C17,14.448 17.448,14 18,14 Z M10.4371667,4.8 C10.8303333,4.8 11.2719167,4.84258333 11.74675,4.92541667 L11.77125,4.93066667 C12.01975,4.9855 12.2,5.206 12.2,5.47083333 C12.2,5.77708333 11.9520833,6.025 11.6458333,6.025 C11.5816667,6.025 11.4766667,6.00225 11.4445833,5.99641667 C11.1138333,5.93341667 10.7830833,5.90191667 10.4505833,5.90191667 C9.65083333,5.90191667 9.03541667,6.13991667 8.60375,6.6165 C8.20825,7.05283333 7.99125,7.66883333 7.93408333,8.44583333 L10.52525,8.44583333 C10.80525,8.44583333 11.03275,8.67333333 11.03275,8.95333333 C11.03275,9.23916667 10.80525,9.46666667 10.52525,9.46666667 L7.89733333,9.46666667 L7.89733333,10.4869167 L10.52525,10.4869167 C10.80525,10.4869167 11.03275,10.7144167 11.03275,10.9944167 C11.03275,11.28025 10.80525,11.50775 10.52525,11.50775 L7.91775,11.50775 C7.95858333,12.34425 8.17908333,13.0005 8.59325,13.4630833 C9.0325,13.9530833 9.65375,14.1980833 10.45875,14.1980833 C10.8315,14.1980833 11.1885,14.1636667 11.5315,14.0948333 C11.54025,14.0930833 11.5974167,14.0831667 11.64525,14.0831667 C11.9515,14.0831667 12.2,14.3316667 12.1994167,14.6379167 C12.1994167,14.9126667 11.9935,15.1279167 11.7345,15.18625 C11.4469167,15.251 11.15,15.3 10.4441667,15.3 C9.23491667,15.3 8.28291667,14.9575833 7.58816667,14.2721667 C6.92141667,13.61475 6.56966667,12.6884167 6.51541667,11.5083333 L5.7075,11.5083333 C5.4275,11.5083333 5.2,11.2808333 5.2,11.0008333 C5.2,10.715 5.4275,10.4875 5.7075,10.4875 L6.5125,10.4875 L6.5125,9.46666667 L5.7075,9.46666667 C5.4275,9.46666667 5.2,9.23916667 5.2,8.95916667 C5.2,8.67333333 5.4275,8.44583333 5.7075,8.44583333 L6.52591667,8.44583333 C6.60816667,7.32525 6.964,6.43858333 7.61733333,5.80741667 C8.31208333,5.136 9.25241667,4.8 10.4371667,4.8 Z" id="Shape" fill="#341100" fill-rule="nonzero"></path>
    </g>
</svg>