<?xml version="1.0" encoding="UTF-8"?>
<svg width="17px" height="17px" viewBox="0 0 17 17" version="1.1" xmlns="http://www.w3.org/2000/svg" xmlns:xlink="http://www.w3.org/1999/xlink">
    <title>aperture</title>
    <g id="aperture" stroke="none" fill="none" fill-rule="nonzero">
        <path d="M8.5,0 C3.8131,0 0,3.8131 0,8.5 C0,13.1869 3.8131,17 8.5,17 C13.1869,17 17,13.1869 17,8.5 C17,3.8131 13.1869,0 8.5,0 Z M11.45885,13.86265 L8.5,10.9038 L8.5,14.3888 C8.5,14.89795 8.04865,15.30255 7.5446,15.22775 C7.53865,15.2269 7.53355,15.22605 7.5276,15.2252 C7.1111,15.1623 6.8,14.80785 6.8,14.3871 L6.8,10.2 L4.33755,12.66245 C3.978,13.022 3.3745,12.99055 3.07105,12.58255 C3.06765,12.5783 3.06425,12.5732 3.06085,12.56895 C2.8101,12.2298 2.839,11.7572 3.13735,11.45885 L6.0962,8.5 L2.6112,8.5 C2.10205,8.5 1.69745,8.04865 1.77225,7.5446 C1.7731,7.53865 1.77395,7.53355 1.7748,7.5276 C1.8377,7.1111 2.19215,6.8 2.6129,6.8 L6.8,6.8 L4.33755,4.33755 C3.978,3.978 4.00945,3.3745 4.41745,3.07105 C4.4217,3.0668 4.4268,3.0634 4.43105,3.06 C4.7702,2.80925 5.2428,2.83815 5.54115,3.1365 L8.5,6.0962 L8.5,2.6112 C8.5,2.10205 8.95135,1.69745 9.4554,1.77225 C9.46135,1.7731 9.46645,1.77395 9.4724,1.7748 C9.8889,1.8377 10.2,2.19215 10.2,2.6129 L10.2,6.8 L12.66245,4.33755 C13.022,3.978 13.6255,4.00945 13.9298,4.41745 C13.9332,4.4217 13.9366,4.4268 13.94,4.43105 C14.19075,4.7702 14.16185,5.2428 13.8635,5.54115 L10.9038,8.5 L14.3888,8.5 C14.89795,8.5 15.30255,8.95135 15.22775,9.4554 C15.2269,9.46135 15.22605,9.46645 15.2252,9.4724 C15.1623,9.8889 14.80785,10.2 14.3871,10.2 L10.2,10.2 L12.66245,12.66245 C13.022,13.022 12.99055,13.6255 12.58255,13.9298 C12.5783,13.9332 12.5732,13.9366 12.56895,13.94 C12.2298,14.19075 11.7572,14.161 11.45885,13.86265 Z" id="Shape" fill="color(display-p3 0.000 0.000 0.000)"></path>
    </g>
</svg>