<?xml version="1.0" encoding="UTF-8"?>
<svg width="17px" height="17px" viewBox="0 0 17 17" version="1.1" xmlns="http://www.w3.org/2000/svg" xmlns:xlink="http://www.w3.org/1999/xlink">
    <title>aperture</title>
    <g id="aperture" stroke="none" fill="none" fill-rule="evenodd">
        <path d="M10.990694,12.2199116 L10.9851591,12.2294 L8.12521203,16.9925521 C10.7014806,17.1081859 13.1904464,16.0455598 14.8888248,14.1049307 L12.4432024,9.70391725 L10.990694,12.2199116 L10.990694,12.2199116 Z M9.42906958,12.5172133 L1.00815815,12.5172133 C2.21004315,14.7535335 4.34650106,16.3374691 6.835587,16.8375757 L9.42906958,12.5172133 L9.42906958,12.5172133 Z M16.516077,5.66978672 L11.5038556,5.66978672 L12.9674338,8.20396711 L12.972178,8.21266476 L15.668451,13.0667469 C16.5401502,11.7034543 17.0022873,10.1186317 16.9999915,8.50047807 C16.9999915,7.50815471 16.8299833,6.55536614 16.516077,5.66978672 L16.516077,5.66978672 Z M1.22085535,4.11132508 C0.419869272,5.43506639 -0.00241516048,6.95326645 1.0390449e-05,8.50047807 C1.0390449e-05,9.49280144 0.170020491,10.44559 0.483926767,11.3311694 L5.49614813,11.3311694 L4.03573279,8.80094252 L1.22085535,4.11132508 Z M10.1343703,5.66978672 L11.7687388,8.50047807 L10.1343703,11.3311694 L6.86563345,11.3311694 L5.231265,8.50047807 L6.86563345,5.66978672 L10.1343703,5.66978672 Z M1.97280716,3.05811813 L4.537034,7.33182952 L6.00851908,4.78183521 L6.01879813,4.7652306 L8.95227995,0.0123574904 C6.27524044,-0.132144131 3.68740791,0.99715585 1.97280716,3.05811813 L1.97280716,3.05811813 Z M10.2426957,0.179985023 L7.58595742,4.48374286 L15.9918456,4.48374286 C14.8033367,2.27201913 12.6996709,0.697235342 10.2426957,0.179985023 Z" id="Shape" fill="color(display-p3 0.000 0.000 0.000)"></path>
    </g>
</svg>