<?xml version="1.0" encoding="UTF-8"?>
<svg width="20px" height="20px" viewBox="0 0 20 20" version="1.1" xmlns="http://www.w3.org/2000/svg" xmlns:xlink="http://www.w3.org/1999/xlink">
    <title>app_store</title>
    <g id="app_store" stroke="none" fill="none" fill-rule="nonzero">
        <path d="M8,0.5 C6.9069372,0.5 6,1.4069372 6,2.5 L6,4.5 L1,4.5 C0.448,4.5 0,4.947 0,5.5 L0,16.5 C0,18.154 1.346,19.5 3,19.5 L17,19.5 C18.654,19.5 20,18.154 20,16.5 L20,5.5 C20,4.947 19.552,4.5 19,4.5 L14,4.5 L14,2.5 C14,1.4069372 13.093063,0.5 12,0.5 L8,0.5 Z M8,2.5 L12,2.5 L12,4.5 L8,4.5 L8,2.5 Z M7.5292969,8.0761719 C7.6218281,8.07425 7.7166406,8.0971875 7.8066406,8.1484375 L13.728516,11.53125 C14.090516,11.73825 14.091516,12.26175 13.728516,12.46875 L7.8066406,15.851562 C7.4476406,16.056562 7,15.798766 7,15.384766 L7,8.615234 C7,8.3047344 7.2517031,8.0819375 7.5292969,8.0761719 Z" id="Shape" fill="color(display-p3 0.000 0.000 0.000)"></path>
    </g>
</svg>