<?xml version="1.0" encoding="UTF-8"?>
<svg width="17px" height="17px" viewBox="0 0 17 17" version="1.1" xmlns="http://www.w3.org/2000/svg" xmlns:xlink="http://www.w3.org/1999/xlink">
    <title>Bluesky</title>
    <g id="Bluesky" stroke="none" fill="none" fill-rule="nonzero">
        <path d="M3.68513636,2.02226218 C5.63395455,3.48580763 7.73036364,6.45308036 8.5,8.04489854 C9.26963636,6.45308036 11.3660455,3.48580763 13.3148636,2.02303491 C14.7212273,0.966716725 17,0.149943998 17,2.74939854 C17,3.26867127 16.7025,7.11067127 16.5278636,7.73426218 C15.9212727,9.90253491 13.7097273,10.4558076 11.7431364,10.1212167 C15.181,10.7061713 16.0557273,12.6441713 14.1671818,14.582944 C10.5794091,18.2642167 9.01154545,13.6595349 8.60895455,12.4795804 C8.53554545,12.2632167 8.50077273,12.1619895 8.50077273,12.2477622 C8.5,12.1612167 8.466,12.262444 8.39259091,12.4795804 C7.99,13.6595349 6.42213636,18.2642167 2.83436364,14.582944 C0.945045455,12.6441713 1.81977273,10.7061713 5.25840909,10.1212167 C3.29104545,10.4558076 1.08027273,9.90330763 0.473681818,7.73426218 C0.2975,7.11067127 0,3.26867127 0,2.74939854 C0,0.149943998 2.27877273,0.966716725 3.68513636,2.02226218 L3.68513636,2.02226218 Z" id="Path" fill="color(display-p3 0.000 0.000 0.000)"></path>
    </g>
</svg>