<?xml version="1.0" encoding="UTF-8"?>
<svg width="17px" height="17px" viewBox="0 0 17 17" version="1.1" xmlns="http://www.w3.org/2000/svg" xmlns:xlink="http://www.w3.org/1999/xlink">
    <title>brush</title>
    <g id="brush" stroke="none" fill="none" fill-rule="nonzero">
        <path d="M10.7221961,0.81001146 C10.4564359,0.813219388 10.2236774,0.988988823 10.1478888,1.24373319 L8.24485428,7.33360178 C6.39809365,7.56943501 5.16251083,8.82634198 4.48223358,11.1641599 L4.40639659,11.4256394 C4.0451771,12.6798732 3.66459551,13.9705999 2.59578832,14.9741789 L0.615336811,14.9741789 C0.396540461,14.9710846 0.193027066,15.0860387 0.0827258854,15.275023 C-0.0275752951,15.4640073 -0.0275752951,15.6977425 0.0827258854,15.8867268 C0.193027066,16.0757111 0.396540461,16.1906651 0.615336811,16.1876317 L2.83988863,16.1876317 L3.04212061,16.1876317 L5.06444045,16.1876317 C11.5831862,16.1876317 12.9514878,13.548039 12.9514878,11.3340032 C12.9514878,10.8911629 12.8766434,10.4659968 12.7445159,10.0668936 C12.7511971,10.0557762 12.7575201,10.0444474 12.7634752,10.0329247 L16.9321401,1.69559528 C17.0320405,1.50251284 17.0210077,1.27073862 16.9032185,1.08801852 C16.7854294,0.905298423 16.5788862,0.799558577 16.3617828,0.81083035 C16.3403429,0.812066199 16.3189837,0.814439441 16.2977954,0.817940058 L10.824102,0.817940058 C10.790416,0.812445324 10.7563264,0.809802728 10.7221961,0.81001146 Z M10.3911994,4.53395276 L13.5329048,5.78131316 L12.0359141,8.77529458 C11.4154473,8.01782053 10.5254786,7.49322551 9.51433401,7.33992153 L10.3911994,4.53395276 Z" id="Shape" fill="color(display-p3 0.000 0.000 0.000)"></path>
    </g>
</svg>