<?xml version="1.0" encoding="UTF-8"?>
<svg width="17px" height="17px" viewBox="0 0 17 17" version="1.1" xmlns="http://www.w3.org/2000/svg" xmlns:xlink="http://www.w3.org/1999/xlink">
    <title>Build</title>
    <g id="Build" stroke="none" fill="none" fill-rule="nonzero">
        <path d="M8.17598212,0 C7.9874401,0 7.83607507,0.151365031 7.83607507,0.339907056 L7.83607507,1.1684305 C7.23858236,1.43132754 6.8163539,2.02483687 6.8163539,2.71925645 C6.8163539,3.65665654 7.57848942,4.41879173 8.51588918,4.41879173 C9.45328927,4.41879173 10.2154245,3.65665654 10.2154245,2.71925645 C10.2154245,2.02483687 9.79319633,1.43132754 9.19570329,1.1684305 L9.19570329,0.339907056 C9.19570329,0.151365031 9.0443386,0 8.85579623,0 L8.17598212,0 Z M6.50831313,3.99390791 L4.71317899,8.83758345 L2.72684713,8.83758345 C2.71224167,8.83625577 2.69896422,8.83625577 2.68435875,8.83758345 C2.4971444,8.84953322 2.35374611,9.01152035 2.36569589,9.1987347 C2.37764566,9.38594905 2.53963278,9.52934734 2.72684713,9.51739756 L7.83607507,9.51739756 L7.83607507,10.5371187 C7.83607507,10.7256611 7.9874401,10.8770258 8.17598212,10.8770258 L8.85579623,10.8770258 C9.0443386,10.8770258 9.19570329,10.7256611 9.19570329,10.5371187 L9.19570329,9.51739756 L14.2943091,9.51739756 C14.4164632,9.51872524 14.5306509,9.45499267 14.5930555,9.34877171 C14.6541327,9.24255076 14.6541327,9.11243026 14.5930555,9.0062093 C14.5306509,8.89998835 14.4164632,8.83625577 14.2943091,8.83758345 L12.3185994,8.83758345 L10.5234652,3.99390791 C10.1397421,4.596712 9.49710533,5.01628477 8.74957528,5.08798374 L10.1941803,8.83758345 L9.19570329,8.83758345 L9.19570329,7.81786228 C9.19570329,7.62932026 9.0443386,7.47795523 8.85579623,7.47795523 L8.17598212,7.47795523 C7.9874401,7.47795523 7.83607507,7.62932026 7.83607507,7.81786228 L7.83607507,8.83758345 L6.83759809,8.83758345 L8.28220308,5.08798374 C7.53467302,5.01628477 6.89203624,4.596712 6.50831313,3.99390791 Z M4.2245626,10.1653454 L2.84369018,13.8830788 C2.81846262,13.9521224 2.82244599,14.0344438 2.84369018,14.1061428 L3.41728334,16.01812 L3.41728334,16.6554457 C3.41595566,16.7775998 3.47968824,16.8917875 3.58590919,16.9541921 C3.69213015,17.0152693 3.82225065,17.0152693 3.9284716,16.9541921 C4.03469256,16.8917875 4.09842513,16.7775998 4.09709745,16.6554457 L4.09709745,16.01812 L6.3383596,10.1653454 L4.2245626,10.1653454 Z M10.6934188,10.1653454 L12.9346809,16.01812 L12.9346809,16.6554457 C12.9333532,16.7775998 12.9970858,16.8917875 13.1033068,16.9541921 C13.2095277,17.0152693 13.3396482,17.0152693 13.4458692,16.9541921 C13.5520901,16.8917875 13.6158227,16.7775998 13.614495,16.6554457 L13.614495,16.01812 L14.1880882,14.1061428 C14.2093324,14.0344438 14.2146434,13.9521224 14.1880882,13.8830788 L12.8072158,10.1653454 L10.6934188,10.1653454 Z" id="Shape" fill="color(display-p3 0.000 0.000 0.000)"></path>
    </g>
</svg>