<?xml version="1.0" encoding="UTF-8"?>
<svg width="17px" height="17px" viewBox="0 0 17 17" version="1.1" xmlns="http://www.w3.org/2000/svg" xmlns:xlink="http://www.w3.org/1999/xlink">
    <title>Calendar add</title>
    <g id="Calendar-add" stroke="none" fill="none" fill-rule="nonzero">
        <path d="M4.25,0 C3.7808,0 3.4,0.3808 3.4,0.85 L3.4,1.7 L2.55,1.7 C1.61075,1.7 0.85,2.46075 0.85,3.4 L0.85,15.3 C0.85,16.23925 1.61075,17 2.55,17 L14.45,17 C15.38925,17 16.15,16.23925 16.15,15.3 L16.15,3.4 C16.15,2.46075 15.38925,1.7 14.45,1.7 L13.6,1.7 L13.6,0.85 C13.6,0.3808 13.2192,0 12.75,0 C12.2808,0 11.9,0.3808 11.9,0.85 L11.9,1.7 L5.1,1.7 L5.1,0.85 C5.1,0.3808 4.7192,0 4.25,0 Z M2.55,5.95 L14.45,5.95 L14.45166,15.3 L2.55,15.3 L2.55,5.95 Z M8.5,8.5 C8.0308,8.5 7.65,8.8808 7.65,9.35 L7.65,10.2 L6.8,10.2 C6.3308,10.2 5.95,10.5808 5.95,11.05 C5.95,11.5192 6.3308,11.9 6.8,11.9 L7.65,11.9 L7.65,12.75 C7.65,13.2192 8.0308,13.6 8.5,13.6 C8.9692,13.6 9.35,13.2192 9.35,12.75 L9.35,11.9 L10.2,11.9 C10.6692,11.9 11.05,11.5192 11.05,11.05 C11.05,10.5808 10.6692,10.2 10.2,10.2 L9.35,10.2 L9.35,9.35 C9.35,8.8808 8.9692,8.5 8.5,8.5 Z" id="Shape" fill="color(display-p3 0.000 0.000 0.000)"></path>
    </g>
</svg>