<?xml version="1.0" encoding="UTF-8"?>
<svg width="17px" height="17px" viewBox="0 0 17 17" version="1.1" xmlns="http://www.w3.org/2000/svg" xmlns:xlink="http://www.w3.org/1999/xlink">
    <title>Calendar</title>
    <g id="Calendar" stroke="none" fill="none" fill-rule="nonzero">
        <path d="M4.25,0 C3.7808,0 3.4,0.3808 3.4,0.85 L3.4,1.7 L2.55,1.7 C1.615,1.7 0.85,2.465 0.85,3.4 L0.85,15.3 C0.85,16.235 1.615,17 2.55,17 L14.45,17 C15.385,17 16.15,16.235 16.15,15.3 L16.15,3.4 C16.15,2.465 15.385,1.7 14.45,1.7 L13.6,1.7 L13.6,0.85 C13.6,0.3808 13.2192,0 12.75,0 C12.2808,0 11.9,0.3808 11.9,0.85 L11.9,1.7 L5.1,1.7 L5.1,0.85 C5.1,0.3808 4.7192,0 4.25,0 Z M2.55,5.95 L14.45,5.95 L14.45,15.3 L2.55,15.3 L2.55,5.95 Z M10.2,10.2 C9.7308,10.2 9.35,10.5808 9.35,11.05 L9.35,12.75 C9.35,13.2192 9.7308,13.6 10.2,13.6 L11.9,13.6 C12.3692,13.6 12.75,13.2192 12.75,12.75 L12.75,11.05 C12.75,10.5808 12.3692,10.2 11.9,10.2 L10.2,10.2 Z" id="Shape" fill="color(display-p3 0.000 0.000 0.000)"></path>
    </g>
</svg>