<?xml version="1.0" encoding="UTF-8"?>
<svg width="17px" height="17px" viewBox="0 0 17 17" version="1.1" xmlns="http://www.w3.org/2000/svg" xmlns:xlink="http://www.w3.org/1999/xlink">
    <title>Calendar edit</title>
    <g id="Calendar-edit" stroke="none" fill="none" fill-rule="nonzero">
        <path d="M3.69652174,0 C3.28852174,0 2.9573913,0.331130435 2.9573913,0.739130435 L2.9573913,1.47826087 L2.21826087,1.47826087 C1.40521739,1.47826087 0.74,2.14347826 0.74,2.95652174 L0.74,13.3043478 C0.74,14.1173913 1.40521739,14.7826087 2.21826087,14.7826087 L8.12986083,14.7826087 C8.32573039,14.7826087 8.51423157,14.7050229 8.65244896,14.5660664 C9.11810113,14.1004142 8.78842604,13.3043478 8.12986083,13.3043478 L2.21826087,13.3043478 L2.21826087,5.17391304 L12.566087,5.17391304 L12.566087,8.8681217 C12.566087,9.52668691 13.3621533,9.856362 13.8278055,9.39070983 C13.966762,9.25249243 14.0443478,9.06399126 14.0443478,8.8681217 L14.0443478,2.95652174 C14.0443478,2.14347826 13.3791304,1.47826087 12.566087,1.47826087 L11.8269565,1.47826087 L11.8269565,0.739130435 C11.8269565,0.331130435 11.4958261,0 11.0878261,0 C10.6798261,0 10.3486957,0.331130435 10.3486957,0.739130435 L10.3486957,1.47826087 L4.43565217,1.47826087 L4.43565217,0.739130435 C4.43565217,0.331130435 4.10452174,0 3.69652174,0 Z M15.2165629,10.3478261 C14.9489977,10.3478261 14.6814317,10.4498727 14.4774324,10.6538719 L13.936077,11.1952273 L15.4143379,12.6734882 L15.9556933,12.1321328 C16.3636926,11.7241335 16.3636933,11.0618719 15.9556933,10.6538719 C15.7516933,10.4498727 15.4841273,10.3478261 15.2165629,10.3478261 Z M13.4134882,11.7178162 L9.717836,15.4134683 C9.64909687,15.4829466 9.60956522,15.5764577 9.60956522,15.674762 L9.60956522,16.6304348 C9.60956522,16.8344348 9.77513043,17 9.97913043,17 L10.9348032,17 C11.0323684,17 11.1266186,16.9604683 11.1960969,16.8917292 L14.891749,13.196077 L13.4134882,11.7178162 Z" id="Shape" fill="color(display-p3 0.000 0.000 0.000)"></path>
    </g>
</svg>