<?xml version="1.0" encoding="UTF-8"?>
<svg width="20px" height="20px" viewBox="0 0 20 20" version="1.1" xmlns="http://www.w3.org/2000/svg" xmlns:xlink="http://www.w3.org/1999/xlink">
    <title>Camera happy</title>
    <g id="Camera-happy" stroke="none" stroke-width="1" fill="none" fill-rule="evenodd">
        <path d="M18,3.002 L14.843,3.002 L12.999,1 L6.999,1.005 L5.164,3.002 L2,3.002 C0.9,3.002 0,3.902 0,5.002 L0,17.002 C0,18.102 0.9,19.002 2,19.002 L18,19.002 C19.1,19.002 20,18.102 20,17.002 L20,5.002 C20,3.902 19.1,3.002 18,3.002 Z M12.5,7.002 C13.328,7.002 14,7.674 14,8.502 C14,9.33 13.328,10.002 12.5,10.002 C11.672,10.002 11,9.33 11,8.502 C11,7.674 11.672,7.002 12.5,7.002 Z M7.5,7.002 C8.328,7.002 9,7.674 9,8.502 C9,9.33 8.328,10.002 7.5,10.002 C6.672,10.002 6,9.33 6,8.502 C6,7.674 6.672,7.002 7.5,7.002 Z M10,15.002 C6.834,15.002 5.234,12.656 5.168,12.557 L6.828,11.441 C6.872,11.505 7.929,13.002 10,13.002 C12.071,13.002 13.128,11.505 13.172,11.44 L14.832,12.556 C14.766,12.656 13.166,15.002 10,15.002 Z" id="Shape" fill="#000000" fill-rule="nonzero"></path>
    </g>
</svg>