<?xml version="1.0" encoding="UTF-8"?>
<svg width="20px" height="20px" viewBox="0 0 20 20" version="1.1" xmlns="http://www.w3.org/2000/svg" xmlns:xlink="http://www.w3.org/1999/xlink">
    <title>Camera add</title>
    <g id="Camera-add" stroke="none" fill="none" fill-rule="evenodd">
        <path d="M10.25185,4.58906026 C10.3330577,4.62384487 10.4104731,4.66680256 10.4829846,4.71714872 C10.7033962,4.87034487 10.8532577,5.11011026 11.1529808,5.58964103 L12.0961538,7.09871795 L13.9358808,7.34404103 C14.4140478,7.40778856 14.8036946,7.45973818 15.1271986,7.519044 L15.125,7.755 C15.125,8.514 15.741,9.13 16.5,9.13 L16.6323605,9.12370181 C16.7336402,9.11401423 16.8317247,9.09332506 16.925404,9.06284428 C17,9.48339925 17,10.0394595 17,10.8438179 L17,15.3371795 C17,16.8082679 17,17.5437795 16.6254115,18.0594026 C16.5043846,18.2259372 16.3579231,18.3723333 16.1914538,18.4933603 C15.7080572,18.8445369 15.0313418,18.8664855 13.7365549,18.8678573 L3.53076923,18.8679487 C2.05972,18.8679487 1.32419538,18.8679487 0.808572308,18.4933603 C0.642050769,18.3723333 0.495608846,18.2259372 0.374621154,18.0594026 C0.0468276442,17.6082324 0.00585345553,16.9887101 0.000731681941,15.8553647 L0.000748441709,10.3562878 C0.00561331282,9.37024022 0.0420998462,8.82468 0.315748846,8.40268333 C0.418258846,8.24458333 0.543006154,8.10211026 0.686146154,7.97964487 C1.12706077,7.60231026 1.77276,7.51619872 3.06414538,7.34404103 L4.90384615,7.09871795 L5.84701923,5.58964103 C6.14674231,5.11011026 6.29660385,4.87034487 6.51701538,4.71714872 C6.58952692,4.66680256 6.66694231,4.62384487 6.74815,4.58906026 C6.96743547,4.49508077 7.21518666,4.4846386 7.66471208,4.48347836 L9.15691923,4.48333333 C9.72243077,4.48333333 10.0051538,4.48333333 10.25185,4.58906026 Z M8.5,8.07948718 C5.97223077,8.07948718 3.92307692,10.128641 3.92307692,12.6564103 C3.92307692,15.1841795 5.97223077,17.2333333 8.5,17.2333333 C11.0277692,17.2333333 13.0769231,15.1841795 13.0769231,12.6564103 C13.0769231,10.128641 11.0277692,8.07948718 8.5,8.07948718 Z M8.5,10.0410256 C9.94441154,10.0410256 11.1153846,11.2119987 11.1153846,12.6564103 C11.1153846,14.1008218 9.94441154,15.2717949 8.5,15.2717949 C7.05558846,15.2717949 5.88461538,14.1008218 5.88461538,12.6564103 C5.88461538,11.2119987 7.05558846,10.0410256 8.5,10.0410256 Z M14.875,9.06025641 C14.4235846,9.06025641 14.0576923,9.42614872 14.0576923,9.8775641 C14.0576923,10.3289795 14.4235846,10.6948718 14.875,10.6948718 C15.3264154,10.6948718 15.6923077,10.3289795 15.6923077,9.8775641 C15.6923077,9.42614872 15.3264154,9.06025641 14.875,9.06025641 Z M16.5,1.13 C16.983,1.13 17.375,1.522 17.375,2.005 L17.375,3.755 L19.125,3.755 C19.5708462,3.755 19.9391538,4.08901183 19.9931784,4.52029085 L20,4.63 C20,5.113 19.608,5.505 19.125,5.505 L17.375,5.505 L17.375,7.255 C17.375,7.70084615 17.0409882,8.06915385 16.6097091,8.12317843 L16.5,8.13 C16.017,8.13 15.625,7.738 15.625,7.255 L15.625,5.505 L13.875,5.505 C13.4291538,5.505 13.0608462,5.17098817 13.0068216,4.73970915 L13,4.63 C13,4.147 13.392,3.755 13.875,3.755 L15.625,3.755 L15.625,2.005 C15.625,1.55915385 15.9590118,1.19084615 16.3902909,1.13682157 L16.5,1.13 Z M3.653555,4.60821795 C3.70906,4.64856026 3.75787615,4.69733718 3.79820538,4.75284872 C3.92307692,4.92474487 3.92307692,5.16993718 3.92307692,5.66025641 L3.92307692,5.92179487 L1.30769231,6.28141026 L1.30769231,5.66025641 C1.30769231,5.16993718 1.30769231,4.92474487 1.43256385,4.75284872 C1.47289308,4.69733718 1.52170923,4.64856026 1.57721423,4.60821795 C1.72999338,4.4972094 1.94068553,4.48487512 2.33000968,4.48350464 L2.74615385,4.48333333 C3.23650577,4.48333333 3.48167846,4.48333333 3.653555,4.60821795 Z" id="Shape" fill="color(display-p3 0.000 0.000 0.000)"></path>
    </g>
</svg>