<?xml version="1.0" encoding="UTF-8"?>
<svg width="20px" height="20px" viewBox="0 0 20 20" version="1.1" xmlns="http://www.w3.org/2000/svg" xmlns:xlink="http://www.w3.org/1999/xlink">
    <title>Camera restart</title>
    <g id="Camera-restart" stroke="none" stroke-width="1" fill="none" fill-rule="evenodd">
        <path d="M12.119141,1 C12.679141,1 13.21475,1.2344844 13.59375,1.6464843 L14.841797,3.0019531 L18,3.0019531 C19.1,3.0019531 20,3.9019531 20,5.0019531 L20,17.0019531 C20,18.1019531 19.1,19.0019531 18,19.0019531 L2,19.0019531 C0.9,19.0019531 0,18.1019531 0,17.0019531 L0,5.0019531 C0,3.9019531 0.9,3.0019531 2,3.0019531 L5.1640625,3.0019531 L6.4042969,1.6503906 C6.7832969,1.2383906 7.3179531,1.0039062 7.8769531,1.0039062 Z M9.08216241,5.20894981 L9.08216494,6.28547099 C8.13661566,6.46452254 7.23235389,6.91735026 6.50376311,7.64594104 C4.57602836,9.57367579 4.57603617,12.7247076 6.50377994,14.6524514 C8.43152372,16.5801952 11.5825555,16.580203 13.5102903,14.6524682 C15.1991319,12.9636266 15.4166399,10.3408853 14.1409068,8.41571797 C13.9779738,8.16955236 13.6960724,8.02903035 13.401424,8.04710103 C13.1067756,8.06517171 12.8441602,8.23908874 12.712532,8.50331967 C12.5809039,8.7675506 12.6002676,9.08193815 12.7633268,9.32802017 C13.611742,10.6083362 13.4784788,12.3487707 12.3425358,13.4847137 C11.0461157,14.7811337 8.96795535,14.781129 7.67152886,13.4847025 C6.37510238,12.188276 6.37509762,10.1101156 7.67151764,8.81369557 C8.08038963,8.40482358 8.56725503,8.12995118 9.08216907,7.98007954 L9.0821712,8.91519305 C9.08275574,9.21822468 9.45004135,9.37068092 9.66490715,9.15581512 L11.0288014,7.79192088 C11.2873129,7.64973413 11.4503301,7.38043272 11.4564452,7.08546121 C11.4625603,6.7904897 11.3108442,6.51466199 11.0584478,6.36188109 L9.66375649,4.96718981 C9.44888966,4.75232298 9.08216168,4.90533436 9.08216241,5.20894981 Z" id="Shape" fill="#000000" fill-rule="nonzero"></path>
    </g>
</svg>