<?xml version="1.0" encoding="UTF-8"?>
<svg width="20px" height="20px" viewBox="0 0 20 20" version="1.1" xmlns="http://www.w3.org/2000/svg" xmlns:xlink="http://www.w3.org/1999/xlink">
    <title>Camera bulk</title>
    <g id="Camera-bulk" stroke="none" fill="none" fill-rule="evenodd">
        <path d="M9.22309052,5.09628519 C9.29614913,5.12757921 9.36579598,5.16622616 9.43103109,5.21152014 C9.62932462,5.34934327 9.76414775,5.56504851 10.033794,5.99645901 L10.8823209,7.35410208 L12.5374337,7.57480731 C13.699195,7.72968921 14.2801345,7.80715957 14.6767804,8.14662916 C14.8055447,8.2568053 14.9177797,8.3849814 15.0100147,8.52721627 C15.2940727,8.96527381 15.2940727,9.55133091 15.2940727,10.7233863 L15.2940727,14.765845 C15.2940727,16.0893117 15.2940727,16.7510156 14.9570737,17.2148966 C14.8481916,17.3647197 14.7164273,17.4964252 14.566663,17.6053072 C14.1317746,17.9212438 13.5229667,17.9409898 12.35811,17.942224 L3.17646125,17.9423062 C1.85302984,17.9423062 1.19131414,17.9423062 0.727433155,17.6053072 C0.577621831,17.4964252 0.445875159,17.3647197 0.337028421,17.2148966 C0.0421285526,16.8090007 0.00526606907,16.2516467 0.000658258634,15.232031 L0.000673336582,10.2847792 C0.00505002436,9.39768012 0.0378751827,8.90686614 0.28406387,8.52721627 C0.376287129,8.3849814 0.48851621,8.2568053 0.617292302,8.14662916 C1.01396172,7.80715957 1.5948659,7.72968921 2.75666248,7.57480731 L4.41175173,7.35410208 L5.26027865,5.99645901 C5.52992491,5.56504851 5.66474804,5.34934327 5.86304158,5.21152014 C5.92827668,5.16622616 5.99792354,5.12757921 6.07098214,5.09628519 C6.2651801,5.01305749 6.48419325,5.00265403 6.87674379,5.0013536 L8.23803459,5.00116782 C8.7467978,5.00116782 9.00115,5.00116782 9.22309052,5.09628519 Z M7.64703633,8.23645242 C5.37292537,8.23645242 3.52940138,10.0799764 3.52940138,12.3540874 C3.52940138,14.6281983 5.37292537,16.4717223 7.64703633,16.4717223 C9.92114729,16.4717223 11.7646713,14.6281983 11.7646713,12.3540874 C11.7646713,10.0799764 9.92114729,8.23645242 7.64703633,8.23645242 Z M13.9290179,2.15511737 C14.0020765,2.18641728 14.0717233,2.22503481 14.1370172,2.27037585 C14.3353108,2.40817545 14.4700751,2.62388069 14.7397214,3.05528531 L15.5882483,4.41293426 L17.243361,4.63363949 C18.4051812,4.78852139 18.9860618,4.86599175 19.3827077,5.20546134 C19.5115308,5.31563748 19.623707,5.44381358 19.715942,5.58604845 C19.9621256,5.96569832 19.9949501,6.4565123 19.9993267,7.34361134 L19.9993418,12.2908632 C19.9947344,13.3104789 19.9578751,13.8678329 19.663001,14.2737288 C19.554119,14.4235519 19.4224135,14.5552574 19.2725904,14.6641394 C18.8377019,14.980076 18.2289457,14.999822 17.064047,15.0010561 L16.4705398,15.0011384 L16.4705398,10.6710923 C16.4705986,10.1300939 16.4706574,9.63886006 16.4289517,9.23068479 C16.3836577,8.78686257 16.2803639,8.3240404 15.9971294,7.88721816 C15.843424,7.65021885 15.6563657,7.43657242 15.4417193,7.25286708 C15.046191,6.91439749 14.6010747,6.75086856 14.1671348,6.64728063 C13.7680772,6.55204561 13.2811374,6.48716345 12.7448449,6.41569307 L11.5865542,6.26122294 L11.0314381,5.37304908 C11.0132029,5.34387269 10.9946147,5.31375514 10.9754971,5.28287287 C10.7694389,4.94981503 10.5082044,4.52752215 10.1024409,4.24556416 C9.97197067,4.15487619 9.83261814,4.07764701 9.68655975,4.01504719 C9.60003059,3.97796495 9.51197202,3.94802974 9.42338405,3.92387687 L9.96620598,3.05530295 C10.2358522,2.62388658 10.3706754,2.40817545 10.5689689,2.27037585 C10.634204,2.22503481 10.7039097,2.18641728 10.7769095,2.15511737 C10.9711074,2.07188967 11.1901656,2.06148621 11.582688,2.06018578 L12.9439619,2.06 C13.4527251,2.06 13.7070773,2.06 13.9290179,2.15511737 Z M13.3823136,9.11880277 C12.9761971,9.11880277 12.6470216,9.44797827 12.6470216,9.85409472 C12.6470216,10.2602112 12.9761971,10.5893867 13.3823136,10.5893867 C13.78843,10.5893867 14.1176055,10.2602112 14.1176055,9.85409472 C14.1176055,9.44797827 13.78843,9.11880277 13.3823136,9.11880277 Z M18.0882409,6.17763495 C17.6821833,6.17763495 17.352949,6.50681045 17.352949,6.9129269 C17.352949,7.31904336 17.6821833,7.64821886 18.0882409,7.64821886 C18.4943574,7.64821886 18.8235329,7.31904336 18.8235329,6.9129269 C18.8235329,6.50681045 18.4943574,6.17763495 18.0882409,6.17763495 Z M7.64703633,10.0011531 C8.9465031,10.0011531 9.99997059,11.0546206 9.99997059,12.3540874 C9.99997059,13.6535541 8.9465031,14.7070216 7.64703633,14.7070216 C6.34756957,14.7070216 5.29410208,13.6535541 5.29410208,12.3540874 C5.29410208,11.0546206 6.34756957,10.0011531 7.64703633,10.0011531 Z M3.28692563,5.11352043 C3.33686077,5.14981444 3.38077829,5.19369667 3.41706054,5.2436377 C3.51535878,5.37895347 3.52764606,5.56475532 3.52918197,5.90460496 L3.52940138,6.29528166 L1.17646713,6.61881012 L1.17646713,6.05998824 C1.17646713,5.61887189 1.17646713,5.3982843 1.28880797,5.2436377 C1.32509022,5.19369667 1.36900774,5.14981444 1.41894289,5.11352043 C1.55424322,5.0152119 1.74002962,5.00292333 2.07989535,5.00138726 L2.47058097,5.00116782 C2.91172673,5.00116782 3.13229667,5.00116782 3.28692563,5.11352043 Z" id="Shape" fill="color(display-p3 0.000 0.000 0.000)"></path>
    </g>
</svg>