<?xml version="1.0" encoding="UTF-8"?>
<svg width="20px" height="20px" viewBox="0 0 20 20" version="1.1" xmlns="http://www.w3.org/2000/svg" xmlns:xlink="http://www.w3.org/1999/xlink">
    <title>Camera filled</title>
    <g id="Camera-filled" stroke="none" fill="none" fill-rule="evenodd">
        <path d="M0,8.38133333 C0,7.09266667 0,6.4484 0.307893333,5.95973333 C0.407973333,5.80086667 0.529913333,5.65693333 0.670133333,5.53213333 C1.10151333,5.14806667 1.73706667,5.04213333 3.00818,4.83033333 L6,4.33166667 L6.124,4.00093333 C6.49933333,3.00012667 6.687,2.49970667 7.0564,2.17094667 C7.17726667,2.06338 7.31073333,1.97088 7.45393333,1.89547333 C7.89146667,1.665 8.42593333,1.665 9.4948,1.665 L10.5052,1.665 C11.5740667,1.665 12.1085333,1.665 12.5460667,1.89547333 C12.6892667,1.97088 12.8227333,2.06338 12.9436,2.17094667 C13.313,2.49970667 13.5006667,3.00012667 13.876,4.00093333 L14,4.33166667 L16.9918,4.83033333 C18.2629333,5.04213333 18.8984667,5.14806667 19.3298667,5.53213333 C19.4700667,5.65693333 19.592,5.80086667 19.6921333,5.95973333 C20,6.4484 20,7.09266667 20,8.38133333 L20,14.7316667 C20,16.2316 20,16.9815333 19.6180667,17.5072667 C19.4946667,17.6770667 19.3453333,17.8263333 19.1756,17.9497333 C18.6498667,18.3316667 17.8998667,18.3316667 16.4,18.3316667 L3.6,18.3316667 C2.10010667,18.3316667 1.35016,18.3316667 0.824426667,17.9497333 C0.65464,17.8263333 0.505326667,17.6770667 0.381966667,17.5072667 C0,16.9815333 0,16.2316 0,14.7316667 L0,8.38133333 Z M10,16.3316667 C12.9455333,16.3316667 15.3333333,13.9438667 15.3333333,10.9983333 C15.3333333,8.0528 12.9455333,5.665 10,5.665 C7.05446667,5.665 4.66666667,8.0528 4.66666667,10.9983333 C4.66666667,13.9438667 7.05446667,16.3316667 10,16.3316667 Z M18.6666667,7.33166667 C18.6666667,7.88393333 18.2189333,8.33166667 17.6666667,8.33166667 C17.1144,8.33166667 16.6666667,7.88393333 16.6666667,7.33166667 C16.6666667,6.7794 17.1144,6.33166667 17.6666667,6.33166667 C18.2189333,6.33166667 18.6666667,6.7794 18.6666667,7.33166667 Z M1.66666667,3.19833333 C1.66666667,2.69836667 1.66666667,2.44838667 1.79398667,2.27314 C1.83510667,2.21654667 1.88488,2.16677333 1.94147333,2.12565333 C2.11672,1.99833333 2.3667,1.99833333 2.86666667,1.99833333 L3.46666667,1.99833333 C3.9666,1.99833333 4.2166,1.99833333 4.39186667,2.12565333 C4.44846667,2.16677333 4.4982,2.21654667 4.53933333,2.27314 C4.66666667,2.44838667 4.66666667,2.69836667 4.66666667,3.19833333 L4.66666667,3.265 L1.66666667,3.765 L1.66666667,3.19833333 Z M10,13.9983333 C11.6568667,13.9983333 13,12.6552 13,10.9983333 C13,9.34146667 11.6568667,7.99833333 10,7.99833333 C8.34313333,7.99833333 7,9.34146667 7,10.9983333 C7,12.6552 8.34313333,13.9983333 10,13.9983333 Z" id="Shape" fill="color(display-p3 0.000 0.000 0.000)"></path>
    </g>
</svg>