<?xml version="1.0" encoding="UTF-8"?>
<svg width="17px" height="17px" viewBox="0 0 17 17" version="1.1" xmlns="http://www.w3.org/2000/svg" xmlns:xlink="http://www.w3.org/1999/xlink">
    <title>cards</title>
    <g id="cards" stroke="none" fill="none" fill-rule="nonzero">
        <path d="M2.61535404,0 C1.17080682,0 0,1.17080682 0,2.61535404 L0,12.2049855 C0,13.6495327 1.17080682,14.8203395 2.61535404,14.8203395 L4.06776082,14.8203395 C4.33561623,15.0263719 4.64644975,15.1852294 4.99403205,15.275813 L11.2753091,16.9146662 C11.4971779,16.9726399 11.7196944,16.9998012 11.9385123,16.9998012 C13.09755,16.9998012 14.1558422,16.223191 14.4653257,15.0502048 L16.9129632,5.76620879 C17.282164,4.36612259 16.4426694,2.93249971 15.0408396,2.56852961 L11.5911606,1.67290711 C11.2126919,0.694730136 10.2655911,0 9.15373913,0 L2.61535404,0 Z M2.61535404,1.30767702 L9.15373913,1.30767702 C9.87470506,1.30767702 10.4614161,1.89438811 10.4614161,2.61535404 L10.4614161,12.2049855 C10.4614161,12.9259514 9.87470506,13.5126625 9.15373913,13.5126625 L2.61535404,13.5126625 C1.89438811,13.5126625 1.30767702,12.9259514 1.30767702,12.2049855 L1.30767702,2.61535404 C1.30767702,1.89438811 1.89438811,1.30767702 2.61535404,1.30767702 Z M11.7690932,3.06997623 L14.7122178,3.83449042 C15.051342,3.92254068 15.3359527,4.13687722 15.5124891,4.43895061 C15.6894614,4.741024 15.7372121,5.09464166 15.6478541,5.43333001 L13.2002162,14.717326 C13.0489616,15.2913962 12.5304541,15.6921242 11.9385123,15.6921242 C11.8277957,15.6921242 11.7154579,15.6774743 11.6064848,15.6487054 L8.43094114,14.8203395 L9.15373913,14.8203395 C10.5982863,14.8203395 11.7690932,13.6495327 11.7690932,12.2049855 L11.7690932,3.06997623 Z M5.88454658,3.48713872 C5.60541203,3.48713872 5.32605952,3.59144644 5.10811335,3.79958504 C4.14130414,4.72236912 2.61535404,6.36867302 2.61535404,7.56171036 C2.61535404,8.52590421 3.39024116,9.30783404 4.34615306,9.30783404 C4.66628983,9.30783404 4.95963709,9.21127387 5.21538384,9.05753638 L4.38786926,10.3635108 C4.27846028,10.6206873 4.48967061,10.8973085 4.79566703,10.8973085 L6.97427743,10.8973085 C7.28201742,10.8973085 7.49241742,10.6177176 7.37952131,10.3601052 L6.55370932,9.05753638 C6.809596,9.2115075 7.10339179,9.30783404 7.42379141,9.30783404 C8.37970331,9.30783404 9.15459043,8.52634011 9.15459043,7.56171036 C9.15371864,6.36867302 7.62778902,4.72236912 6.66097981,3.79958504 C6.4428157,3.59144644 6.16368114,3.48713872 5.88454658,3.48713872 Z" id="Shape" fill="color(display-p3 0.000 0.000 0.000)"></path>
    </g>
</svg>