<?xml version="1.0" encoding="UTF-8"?>
<svg width="12px" height="12px" viewBox="0 0 12 12" version="1.1" xmlns="http://www.w3.org/2000/svg" xmlns:xlink="http://www.w3.org/1999/xlink">
    <title>Certification</title>
    <g id="Certification" stroke="none" fill="none" fill-rule="nonzero">
        <path d="M4.34866258,9.19883351 C4.27950653,9.10526656 4.15743173,9.05237223 4.04352644,9.07271057 C3.40069816,9.18256772 2.68871383,9.08085567 2.20456448,8.60482701 C1.68381101,9.5975366 1.25662447,10.411233 1.25662447,10.4193781 C1.14269884,10.6309432 1.3257846,10.8872616 1.55769213,10.8668989 L2.81483677,10.7326553 C2.81483677,10.7326553 3.41698836,11.8392701 3.4210365,11.8433427 C3.5349662,12.0549119 3.84417489,12.0508434 3.95808018,11.8392742 L4.99961155,9.85385503 C4.77992166,9.7033212 4.56023178,9.49582455 4.34866258,9.19883351 Z M9.79636798,8.6088955 C9.30814202,9.08085567 8.58801665,9.17849517 7.95333348,9.07271057 C7.84350074,9.05644478 7.71735339,9.10933911 7.65226988,9.19883351 C7.44070069,9.49582455 7.2210108,9.7033212 7.00132092,9.84978248 C7.51800185,10.8343714 8.03877973,11.8352016 8.04285228,11.8392742 C8.15675757,12.0508434 8.46596626,12.0508434 8.57989596,11.8433467 L9.1860957,10.7326553 C9.1860957,10.7326553 10.4391718,10.8668989 10.4432444,10.8668989 C10.683297,10.8913098 10.8582377,10.6350158 10.744308,10.419374 L9.79636798,8.6088955 Z M6.00046623,2.64451324 C4.82263259,2.64451324 3.86451324,3.60263259 3.86451324,4.78046623 C3.86451324,5.95829988 4.82263259,6.91641923 6.00046623,6.91641923 C7.17829988,6.91641923 8.13641923,5.95829988 8.13641923,4.78046623 C8.13641923,3.60263259 7.17829988,2.64451324 6.00046623,2.64451324 Z M7.43675019,4.18250924 C7.43675019,4.18250924 5.81432505,5.80493439 5.80935743,5.80987759 C5.69694121,5.92231823 5.49627555,5.92827855 5.37787458,5.809902 L4.5641782,4.99620562 C4.44498389,4.87701131 4.44498389,4.68391709 4.5641782,4.56472277 C4.68337252,4.44552846 4.87646674,4.44552846 4.99566105,4.56472277 L5.59361804,5.16267977 L7.00527141,3.75102639 C7.12446573,3.63183208 7.31755995,3.63183208 7.43675426,3.75102639 C7.55594858,3.87022071 7.55594451,4.06331493 7.43675019,4.18250924 Z M8.05576565,8.47130351 C8.7743043,8.59129117 9.1728121,8.36859875 9.38100039,8.16080511 C9.58879404,7.9528121 9.81129117,7.55410902 9.69130351,6.83576565 C9.63389316,6.49208877 9.78010219,6.13927816 10.0635859,5.93684678 C10.6565752,5.51370838 10.7809325,5.07447915 10.7809325,4.78046623 C10.7809325,4.48645332 10.6565752,4.04722408 10.0635859,3.62408569 C9.78010219,3.42165431 9.63389316,3.06883962 9.69130351,2.72516682 C9.81129117,2.00682752 9.58879811,1.60812036 9.38080511,1.39993207 C9.1728121,1.19233779 8.77430837,0.969246649 8.05576565,1.08962896 C7.71149478,1.14783673 7.35947345,1.00083027 7.15684678,0.717346592 C6.73370838,0.124357218 6.29447915,0 6.00046623,0 C5.70645332,0 5.26722408,0.124357218 4.84408569,0.717346592 C4.64165431,1.00083027 4.28963705,1.14783673 3.94516682,1.08962896 C3.22622945,0.96924258 2.82792507,1.19193501 2.61993207,1.40012736 C2.41213843,1.60812036 2.18964129,2.00682345 2.30962896,2.72516682 C2.36703931,3.06884369 2.22083027,3.42165431 1.93734659,3.62408569 C1.34435722,4.04722408 1.22,4.48645332 1.22,4.78046623 C1.22,5.07447915 1.34435722,5.51370838 1.93734659,5.93684678 C2.22083027,6.13927816 2.36703931,6.49209284 2.30962896,6.83576565 C2.18964129,7.55410495 2.41213436,7.9528121 2.62012736,8.16100039 C2.82792101,8.36859468 3.22622945,8.59129117 3.94516682,8.47130351 C4.28963705,8.4142878 4.64165431,8.56010219 4.84408569,8.84358587 C5.26722408,9.43657525 5.70645332,9.56093247 6.00046623,9.56093247 C6.29447915,9.56093247 6.73370838,9.43657525 7.15684678,8.84358587 C7.35947345,8.56010219 7.71149478,8.4142878 8.05576565,8.47130351 Z M6.00046623,7.52669152 C4.48610811,7.52669152 3.25424095,6.29482436 3.25424095,4.78046623 C3.25424095,3.26610811 4.48610811,2.03424095 6.00046623,2.03424095 C7.51482436,2.03424095 8.74669152,3.26610811 8.74669152,4.78046623 C8.74669152,6.29482436 7.51482436,7.52669152 6.00046623,7.52669152 Z" id="Shape" fill="color(display-p3 0.000 0.000 0.000)"></path>
    </g>
</svg>