<?xml version="1.0" encoding="UTF-8"?>
<svg width="13px" height="17px" viewBox="0 0 13 17" version="1.1" xmlns="http://www.w3.org/2000/svg" xmlns:xlink="http://www.w3.org/1999/xlink">
    <title>Shape</title>
    <g id="Icons" stroke="none" stroke-width="1" fill="none" fill-rule="evenodd">
        <g id="Certificate" transform="translate(-2, 0)" fill="color(display-p3 0.000 0.000 0.000)" fill-rule="nonzero">
            <path d="M2.45770969,0 C2.24967437,0 2.08,0.169674371 2.08,0.377709694 L2.08,15.4860975 C2.08,15.6956085 2.24967437,15.8638071 2.45770969,15.8638071 L5.10167755,15.8638071 L5.10167755,16.6192265 C5.10020222,16.762343 5.17987517,16.8936564 5.30823754,16.9585753 C5.43512458,17.0234941 5.58856914,17.0116907 5.70365238,16.9261157 L6.99022602,15.9582346 L8.27679967,16.9261157 C8.39188328,17.0116907 8.54532784,17.0234941 8.6722145,16.9585753 C8.80057688,16.8936564 8.88024983,16.762343 8.87877449,16.6192265 L8.87877449,15.8638071 L14.5444199,15.8638071 C14.7539309,15.8638071 14.9221296,15.6956085 14.9221296,15.4860975 L14.9221296,0.377709694 C14.9221296,0.169674371 14.7539309,0 14.5444199,0 L2.45770969,0 Z M4.72396786,4.53251633 L12.2781617,4.53251633 L12.2781617,5.28793572 L4.72396786,5.28793572 L4.72396786,4.53251633 Z M4.72396786,6.79877449 L12.2781617,6.79877449 L12.2781617,7.55419388 L4.72396786,7.55419388 L4.72396786,6.79877449 Z M6.99022602,9.85586233 C7.25432782,9.85586233 7.44613333,10.0063562 7.52138028,10.233572 C7.55974161,10.2719334 7.55383989,10.2689823 7.59220085,10.2689823 C7.67925122,10.2158669 7.78253103,10.1981617 7.88728654,10.1981617 C8.00827187,10.1981617 8.13958491,10.2350474 8.24138938,10.316196 C8.43024423,10.4666899 8.45827747,10.690955 8.38303052,10.9181708 C8.38303052,10.9565322 8.43024423,10.9521058 8.43024423,10.9889914 C8.65746041,11.0273527 8.84041354,11.2221093 8.87877449,11.4493251 C8.91713582,11.6765413 8.80795392,11.9022817 8.61909908,12.0158896 L8.61909908,12.1221205 C8.73270698,12.2726144 8.76811726,12.5352405 8.65450936,12.7240953 C8.55565556,12.8893433 8.36680071,12.9955742 8.17056881,12.9955742 C8.14106025,12.9955742 8.11745339,13.0000005 8.08794482,12.9955742 C8.08794482,13.0339355 8.04368215,13.0295091 8.00532082,13.0663947 C8.00532082,13.2936109 7.90204102,13.4868918 7.67482484,13.5621387 C7.59957789,13.5990243 7.56121694,13.5975571 7.48596999,13.5975571 C7.33547648,13.5975571 7.17465449,13.522302 7.06104659,13.4086941 L6.91940545,13.4086941 C6.80874822,13.5193514 6.65677937,13.5857456 6.49448205,13.5857456 C6.43546491,13.5857456 6.36611967,13.5827949 6.3056272,13.5621387 C6.11677235,13.4868918 5.97513122,13.2936109 5.97513122,13.0663947 C5.97513122,13.0280338 5.93086855,13.0324598 5.89250722,12.9955742 C5.86299865,13.0000005 5.8393918,12.9955742 5.80988323,12.9955742 C5.61365133,12.9955742 5.42479649,12.8893433 5.32594268,12.7240953 C5.21233478,12.5352405 5.21085945,12.3109753 5.36135297,12.1221205 L5.36135297,12.0158896 C5.17249812,11.9022817 5.0633166,11.6765413 5.10167755,11.4493251 C5.14003888,11.2221093 5.32299201,11.025877 5.55020781,10.9889914 C5.55020781,10.9506305 5.59742152,10.9550565 5.59742152,10.9181708 C5.52217458,10.690955 5.55020781,10.4681652 5.73906266,10.316196 C5.84086713,10.2350474 5.97218055,10.1981617 6.0931655,10.1981617 C6.19792102,10.1981617 6.30120082,10.2158669 6.3882512,10.2689823 C6.42661253,10.2306214 6.42071081,10.233572 6.45907176,10.233572 C6.53431871,10.0063562 6.76301022,9.85586233 6.99022602,9.85586233 Z M5.85709694,14.1641135 C5.91463875,14.1980485 5.97218055,14.2334588 6.03414836,14.2585409 C6.04742712,14.2644427 6.05627988,14.265918 6.06955864,14.2703444 C6.20529806,14.3160828 6.35136558,14.3411649 6.49448205,14.3411649 C6.66268108,14.3411649 6.82202736,14.3087057 6.97842259,14.2467375 C7.13776887,14.3146074 7.31777134,14.3529684 7.48596999,14.3529684 C7.61728304,14.3529684 7.76335055,14.3455913 7.95810711,14.2585409 C8.01417358,14.2364094 8.07171501,14.2039502 8.1233551,14.175917 L8.1233551,15.8638071 L7.21449115,15.1792083 C7.08170278,15.0803545 6.89874964,15.0803545 6.76596089,15.1792083 L5.85709694,15.8638071 L5.85709694,14.1641135 Z" id="Shape"></path>
        </g>
    </g>
</svg>