<?xml version="1.0" encoding="UTF-8"?>
<svg width="12px" height="12px" viewBox="0 0 12 12" version="1.1" xmlns="http://www.w3.org/2000/svg" xmlns:xlink="http://www.w3.org/1999/xlink">
    <title>Certification</title>
    <g id="Certification" stroke="none" fill="none" fill-rule="nonzero">
        <path d="M5.99992372,0.16 C5.69749769,0.16 5.39477887,0.273001972 5.16100864,0.49911219 L4.76094507,0.885877475 L4.21016478,0.808302756 C3.56616186,0.716950801 2.965521,1.15401107 2.85260771,1.79460956 L2.75619344,2.3431734 L2.26414826,2.60360274 C1.68993597,2.90829839 1.4612103,3.61389119 1.74661424,4.19831675 L1.99042046,4.6992276 L1.74661424,5.20013818 C1.4612103,5.7845643 1.69047681,6.49015659 2.26525651,6.79485224 L2.75619344,7.05528192 L2.85260771,7.60384587 C2.96495359,8.24444437 3.56559446,8.68093706 4.21016478,8.59015251 L4.76205332,8.51257768 L5.16211735,8.89934313 C5.62965723,9.35156368 6.37129836,9.35156368 6.8388388,8.89934313 L7.23890249,8.51257768 L7.79079086,8.59015251 C8.43479378,8.68150446 9.03543459,8.24501177 9.14834788,7.60384587 L9.24476221,7.05528192 L9.73680767,6.79485224 C10.3115868,6.49015659 10.5403128,5.7845643 10.2543415,5.20013818 L10.0094269,4.6992276 L10.2532333,4.19831675 C10.5392047,3.61389119 10.3099113,2.90829839 9.73569896,2.60360274 L9.24365407,2.3431734 L9.14723974,1.79460956 C9.03489386,1.15401107 8.43425305,0.717518204 7.78968273,0.808302756 L7.23890249,0.885877475 L6.8388388,0.49911219 C6.60506858,0.273001915 6.30234976,0.16 5.99992372,0.16 Z M2.0181257,7.54621867 L0.083191245,9.48115296 C-0.0660358625,9.63038006 -0.00571378315,9.88408033 0.194012231,9.95103394 L1.46069612,10.3732621 L1.88292406,11.6399461 C1.94987767,11.8402395 2.20357794,11.8999939 2.35280505,11.7507668 L4.63239278,9.47117914 L4.49275831,9.33819395 L3.79680251,9.43571642 C3.62034004,9.46068217 3.44776076,9.45208261 3.28037669,9.41576879 C2.69708594,9.29037262 2.26878502,8.78789261 2.16551759,8.20006264 L2.05469661,7.56616631 L2.0181257,7.54621867 Z M9.9817217,7.54621867 L9.94515084,7.56616631 L9.82435575,8.25768927 C9.70293141,8.94878667 9.10604965,9.45012336 8.40473899,9.45012336 C8.33778538,9.45012336 8.27113363,9.44536228 8.20304465,9.43571642 L7.50708914,9.33819395 L7.36745455,9.47228728 L9.64704217,11.7518755 C9.79626928,11.9011026 10.0499695,11.8407802 10.1169232,11.6410542 L10.5391513,10.3732621 L11.8058353,9.95103394 C12.0061287,9.88408033 12.0658831,9.63038006 11.916656,9.48115296 L9.9817217,7.54621867 Z" id="Shape" fill="color(display-p3 0.000 0.000 0.000)"></path>
    </g>
</svg>