<?xml version="1.0" encoding="UTF-8"?>
<svg width="17px" height="17px" viewBox="0 0 17 17" version="1.1" xmlns="http://www.w3.org/2000/svg" xmlns:xlink="http://www.w3.org/1999/xlink">
    <title>Changes</title>
    <g id="Changes" stroke="none" fill="none" fill-rule="nonzero">
        <path d="M1.88888889,0 C0.8565518,0 0,0.8565518 0,1.88888889 L0,15.1111111 C0,16.1434484 0.8565518,17 1.88888889,17 L15.1111111,17 C16.1434484,17 17,16.1434484 17,15.1111111 L17,1.88888889 C17,0.8565518 16.1434484,0 15.1111111,0 L1.88888889,0 Z M1.88888889,1.88888889 L15.1111111,1.88888889 L1.88888889,15.1111111 L1.88888889,1.88888889 Z M5.65190972,2.82042098 C5.13103335,2.82856311 4.71508915,3.25688661 4.72222222,3.77777778 L4.72222222,4.72222222 L3.77777778,4.72222222 C3.43717719,4.71740528 3.1203676,4.89635445 2.9486616,5.19054658 C2.77695559,5.48473871 2.77695559,5.84859462 2.9486616,6.14278675 C3.1203676,6.43697889 3.43717719,6.61592805 3.77777778,6.61111111 L4.72222222,6.61111111 L4.72222222,7.55555556 C4.71740528,7.89615614 4.89635445,8.21296573 5.19054658,8.38467174 C5.48473871,8.55637774 5.84859462,8.55637774 6.14278675,8.38467174 C6.43697889,8.21296573 6.61592805,7.89615614 6.61111111,7.55555556 L6.61111111,6.61111111 L7.55555556,6.61111111 C7.89615614,6.61592805 8.21296573,6.43697889 8.38467174,6.14278675 C8.55637774,5.84859462 8.55637774,5.48473871 8.38467174,5.19054658 C8.21296573,4.89635445 7.89615614,4.71740528 7.55555556,4.72222222 L6.61111111,4.72222222 L6.61111111,3.77777778 C6.61460691,3.52249415 6.51461088,3.2766682 6.3339075,3.09631232 C6.15320412,2.91595645 5.90718615,2.8164338 5.65190972,2.82042098 Z M10.3888889,11.3333333 L13.2222222,11.3333333 C13.7435556,11.3333333 14.1666667,11.7564444 14.1666667,12.2777778 C14.1666667,12.7991111 13.7435556,13.2222222 13.2222222,13.2222222 L10.3888889,13.2222222 C9.86755556,13.2222222 9.44444444,12.7991111 9.44444444,12.2777778 C9.44444444,11.7564444 9.86755556,11.3333333 10.3888889,11.3333333 Z" id="Shape" fill="color(display-p3 0.000 0.000 0.000)"></path>
    </g>
</svg>