<?xml version="1.0" encoding="UTF-8"?>
<svg width="17px" height="17px" viewBox="0 0 17 17" version="1.1" xmlns="http://www.w3.org/2000/svg" xmlns:xlink="http://www.w3.org/1999/xlink">
    <title>Charity</title>
    <g id="Charity" stroke="none" fill="none" fill-rule="nonzero">
        <path d="M14.381146,4.92715075 C13.6191643,5.60653642 10.9074556,8.7784918 10.5520533,9.16710182 C10.4847735,9.2414942 10.3891282,9.28754578 10.2899372,9.28754578 C10.187243,9.28754578 10.0915977,9.2450399 10.0242754,9.17064752 L6.01457518,4.74649721 C5.44429147,4.13723561 5.17508755,3.25878781 5.29200352,2.39804724 C5.49793744,0.944229198 6.69905093,2.66453526e-14 7.94862113,2.66453526e-14 C8.90498576,2.66453526e-14 9.80470776,0.538414919 10.2899372,1.38144824 C10.7752552,0.538414919 11.6749772,2.66453526e-14 12.6242504,2.66453526e-14 C13.9151611,2.66453526e-14 15.1591312,1.01069069 15.3021422,2.5361949 C15.3836047,3.4465292 15.0400261,4.34268425 14.381146,4.92715075 Z M3.40400915,8.82352324 L3.40400915,16.2549611 C3.40400915,16.648137 3.08525046,16.9633925 2.69557779,16.9633925 L0.708431362,16.9633925 C0.318801197,16.9633925 0,16.648137 0,16.2549611 L0,8.82352324 C0,8.43387182 0.318801197,8.11509187 0.708431362,8.11509187 L2.69557779,8.11509187 C3.08524692,8.11509187 3.40400915,8.43387182 3.40400915,8.82352324 Z M16.244324,13.9383977 L12.8721837,15.6740403 C12.1460238,16.049509 11.3243072,16.2478697 10.502502,16.2478697 L4.79254525,16.2478697 C4.6295777,16.2478697 4.38164443,16.2266168 4.11243697,16.1805688 L4.11243697,9.62050852 C4.53393238,9.75865617 4.95192813,9.94992556 5.2034496,10.1093262 C5.77723296,10.3501893 5.33446336,10.6548112 7.95216683,10.6548112 L9.33711826,10.6548112 C9.80347508,10.6548112 10.2301562,10.8328294 10.5517522,11.125323 C11.1491936,11.6687005 10.8261453,12.6698769 10.0313102,12.812803 C9.27111725,12.9494983 8.324993,12.9379721 7.8812989,12.9182565 C7.67232227,12.9111651 7.51999182,13.0634743 7.50939723,13.2582894 C7.50230583,13.4531257 7.65459378,13.6195965 7.84943011,13.6266879 C8.08672628,13.6373037 8.30992821,13.6443951 8.52595018,13.6443951 C9.53154725,13.6443951 11.2735445,13.5270009 11.7209827,12.6313418 C11.8024452,12.6100889 11.8733132,12.5852938 11.9406389,12.5640408 L14.8982867,11.4943024 C15.5890321,11.1507238 16.4462518,11.3951326 16.8216956,12.0504245 C17.2042379,12.7198957 16.9527554,13.5664747 16.244324,13.9383977 Z" id="Shape" fill="color(display-p3 0.000 0.000 0.000)"></path>
    </g>
</svg>