<?xml version="1.0" encoding="UTF-8"?>
<svg width="20px" height="20px" viewBox="0 0 20 20" version="1.1" xmlns="http://www.w3.org/2000/svg" xmlns:xlink="http://www.w3.org/1999/xlink">
    <title>Checklist</title>
    <g id="Checklist" stroke="none" stroke-width="1" fill="none" fill-rule="evenodd">
        <g id="icons8-scorecard" transform="translate(1, 0)" fill="#000000" fill-rule="nonzero">
            <path d="M9,0 C7.696,0 6.5965937,0.837 6.1835938,2 L2,2 C0.895,2 0,2.895 0,4 L0,18 C0,19.105 0.895,20 2,20 L16,20 C17.105,20 18,19.105 18,18 L18,4 C18,2.895 17.105,2 16,2 L11.816406,2 C11.403406,0.837 10.304,0 9,0 Z M9,2 C9.552,2 10,2.448 10,3 C10,3.552 9.552,4 9,4 L16,4 L16,18 L2,18 L2,4 L9,4 C8.448,4 8,3.552 8,3 C8,2.448 8.448,2 9,2 Z M11.414062,6 L9.998047,7.4140625 L11.085938,8.5019531 L10,9.585938 L11.414062,11.001953 L12.5,9.916016 L13.583984,11 L14.998047,9.585938 L13.914062,8.5019531 L15,7.4160156 L13.585938,6.0019531 L12.5,7.0878906 L11.414062,6 Z M4,8 L4,10 L8,10 L8,8 L4,8 Z M11.414062,12 L9.998047,13.414062 L11.085938,14.5 L10,15.585938 L11.414062,17 L12.5,15.914062 L13.583984,17 L14.998047,15.585938 L13.914062,14.5 L15,13.414062 L13.585938,12 L12.5,13.085938 L11.414062,12 Z M4,14 L4,16 L8,16 L8,14 L4,14 Z" id="Shape"></path>
        </g>
    </g>
</svg>