<?xml version="1.0" encoding="UTF-8"?>
<svg width="17px" height="17px" viewBox="0 0 17 17" version="1.1" xmlns="http://www.w3.org/2000/svg" xmlns:xlink="http://www.w3.org/1999/xlink">
    <title>checklist_two_items</title>
    <g id="checklist_two_items" stroke="none" fill="none" fill-rule="nonzero">
        <path d="M1.21886429,2.165 C0.54697321,2.165 0,2.71239946 0,3.38473757 L0,6.3105358 C0,6.98242644 0.54697321,7.52939987 1.21886429,7.52939987 L4.1455358,7.52939987 C4.81742644,7.52939987 5.36439987,6.98200042 5.36439987,6.3096623 L5.36439987,3.38386407 C5.36439987,2.71197343 4.81700042,2.165 4.1446623,2.165 L1.21886429,2.165 Z M7.59956649,3.95313329 C7.27713394,3.94857329 6.97722336,4.11797709 6.81467636,4.39647667 C6.65212936,4.67497624 6.65212936,5.01942363 6.81467636,5.29792321 C6.97722336,5.57642278 7.27713394,5.74582658 7.59956649,5.74126658 L16.0931996,5.74126658 C16.4156322,5.74582658 16.7155428,5.57642278 16.8780898,5.29792321 C17.0406367,5.01942363 17.0406367,4.67497624 16.8780898,4.39647667 C16.7155428,4.11797709 16.4156322,3.94857329 16.0931996,3.95313329 L7.59956649,3.95313329 Z M1.34109997,9.47530963 C0.610591372,9.47530963 0,10.0859008 0,10.8164096 L0,13.4986095 C0,14.2291183 0.610591372,14.8397095 1.34109997,14.8397095 L4.0232999,14.8397095 C4.75380868,14.8397095 5.36439987,14.2291183 5.36439987,13.4986095 L5.36439987,10.8164096 C5.36439987,10.0859008 4.75380868,9.47530963 4.0232999,9.47530963 L1.34109997,9.47530963 Z M1.78813329,11.2634429 L3.57626658,11.2634429 L3.57626658,13.0515762 L1.78813329,13.0515762 L1.78813329,11.2634429 Z M7.59956649,11.2634429 C7.27713394,11.2588829 6.97722336,11.4282867 6.81467636,11.7067863 C6.65212936,11.9852859 6.65212936,12.3297333 6.81467636,12.6082328 C6.97722336,12.8867324 7.27713394,13.0561362 7.59956649,13.0515762 L16.0931996,13.0515762 C16.4156322,13.0561362 16.7155428,12.8867324 16.8780898,12.6082328 C17.0406367,12.3297333 17.0406367,11.9852859 16.8780898,11.7067863 C16.7155428,11.4282867 16.4156322,11.2588829 16.0931996,11.2634429 L7.59956649,11.2634429 Z" id="Shape" fill="color(display-p3 0.000 0.000 0.000)"></path>
    </g>
</svg>