<?xml version="1.0" encoding="UTF-8"?>
<svg width="17px" height="17px" viewBox="0 0 17 17" version="1.1" xmlns="http://www.w3.org/2000/svg" xmlns:xlink="http://www.w3.org/1999/xlink">
    <title>checkbox_filled</title>
    <g id="checkbox_filled" stroke="none" fill="none" fill-rule="nonzero">
        <path d="M15.1111111,0 L1.88888889,0 C0.845277778,0 0,0.845277778 0,1.88888889 L0,15.1111111 C0,16.1547222 0.845277778,17 1.88888889,17 L15.1111111,17 C16.1547222,17 17,16.1547222 17,15.1111111 L17,1.88888889 C17,0.845277778 16.1547222,0 15.1111111,0 Z M7.27883333,12.9455 C6.90955556,13.3147778 6.31172222,13.3147778 5.94338889,12.9455 L2.83333333,9.83544444 C2.465,9.46711111 2.465,8.86833333 2.83333333,8.5 L2.83333333,8.5 C3.20166667,8.13166667 3.80044444,8.13166667 4.16877778,8.5 L6.61111111,10.9423333 L12.8312222,4.72222222 C13.1995556,4.35388889 13.7983333,4.35388889 14.1666667,4.72222222 L14.1666667,4.72222222 C14.535,5.09055556 14.535,5.68933333 14.1666667,6.05766667 L7.27883333,12.9455 Z" id="Shape" fill="color(display-p3 0.000 0.000 0.000)"></path>
    </g>
</svg>