<?xml version="1.0" encoding="UTF-8"?>
<svg width="17px" height="17px" viewBox="0 0 17 17" version="1.1" xmlns="http://www.w3.org/2000/svg" xmlns:xlink="http://www.w3.org/1999/xlink">
    <title>Checklist_document</title>
    <g id="Checklist_document" stroke="none" fill="none" fill-rule="nonzero">
        <path d="M8.5,0 C9.6084,0 10.54255,0.71145 10.8936,1.7 L14.45,1.7 C15.38925,1.7 16.15,2.46075 16.15,3.4 L16.15,15.3 C16.15,16.23925 15.38925,17 14.45,17 L2.55,17 C1.61075,17 0.85,16.23925 0.85,15.3 L0.85,3.4 C0.85,2.46075 1.61075,1.7 2.55,1.7 L6.1064,1.7 C6.45745,0.71145 7.3916,0 8.5,0 Z M4.82639271,11.0652689 C4.5931942,11.071696 4.37815031,11.1926582 4.25156063,11.388612 L3.31469484,12.7925288 L3.21796825,12.6958023 C3.04051818,12.5109824 2.77701687,12.4365334 2.52908671,12.5011676 C2.28115656,12.5658018 2.08753891,12.7594195 2.02290471,13.0073496 C1.95827052,13.2552798 2.03271945,13.5187811 2.2175394,13.6962312 L2.92502505,14.4037168 C3.07490661,14.5535484 3.2840577,14.6283066 3.49495624,14.6074308 C3.70585478,14.5865551 3.89629089,14.4722439 4.0138896,14.2959358 L5.42886089,12.1734789 C5.57973801,11.9540778 5.59466473,11.6685491 5.46748698,11.434612 C5.34030923,11.200675 5.09256391,11.0579455 4.82639271,11.0652689 Z M14.0398327,11.9036642 L8.03965126,11.9036642 C7.48741662,11.9036642 7.03974199,12.3513388 7.03974199,12.9035734 C7.03974199,13.4558081 7.48741662,13.9034827 8.03965126,13.9034827 L14.0398327,13.9034827 C14.5920674,13.9034827 15.039742,13.4558081 15.039742,12.9035734 C15.039742,12.3513388 14.5920674,11.9036642 14.0398327,11.9036642 Z M4.82639271,6.06526893 C4.5931942,6.07169598 4.37815031,6.19265818 4.25156063,6.38861201 L3.31469484,7.79252884 L3.21796825,7.69580232 C3.04051818,7.51098237 2.77701687,7.43653343 2.52908671,7.50116763 C2.28115656,7.56580183 2.08753891,7.75941948 2.02290471,8.00734963 C1.95827052,8.25527979 2.03271945,8.5187811 2.2175394,8.69623117 L2.92502505,9.40371681 C3.07490661,9.55354842 3.2840577,9.62830658 3.49495624,9.60743084 C3.70585478,9.5865551 3.89629089,9.4722439 4.0138896,9.29593583 L5.42886089,7.1734789 C5.57973801,6.95407782 5.59466473,6.66854913 5.46748698,6.43461205 C5.34030923,6.20067497 5.09256391,6.05794552 4.82639271,6.06526893 Z M14.0398327,6.90366418 L8.03965126,6.90366418 C7.48741662,6.90366418 7.03974199,7.3513388 7.03974199,7.90357344 C7.03974199,8.45580808 7.48741662,8.90348271 8.03965126,8.90348271 L14.0398327,8.90348271 C14.5920674,8.90348271 15.039742,8.45580808 15.039742,7.90357344 C15.039742,7.3513388 14.5920674,6.90366418 14.0398327,6.90366418 Z M8.5,1.7 C8.0308,1.7 7.65,2.0808 7.65,2.55 C7.65,3.0192 8.0308,3.4 8.5,3.4 C8.9692,3.4 9.35,3.0192 9.35,2.55 C9.35,2.0808 8.9692,1.7 8.5,1.7 Z" id="Shape" fill="color(display-p3 0.000 0.000 0.000)"></path>
    </g>
</svg>