<?xml version="1.0" encoding="UTF-8"?>
<svg width="17px" height="17px" viewBox="0 0 17 17" version="1.1" xmlns="http://www.w3.org/2000/svg" xmlns:xlink="http://www.w3.org/1999/xlink">
    <title>Checklist</title>
    <g id="Checklist" stroke="none" fill="none" fill-rule="nonzero">
        <path d="M2.82639271,1.06526893 C2.5931942,1.07169598 2.37815031,1.19265818 2.25156063,1.38861201 L1.31469484,2.79252884 L1.21796825,2.69580232 C1.04051818,2.51098237 0.777016868,2.43653343 0.529086713,2.50116763 C0.281156557,2.56580183 0.0875389115,2.75941948 0.0229047133,3.00734963 C-0.041729485,3.25527979 0.0327194484,3.5187811 0.217539401,3.69623117 L0.925025045,4.40371681 C1.07490661,4.55354842 1.2840577,4.62830658 1.49495624,4.60743084 C1.70585478,4.5865551 1.89629089,4.4722439 2.0138896,4.29593583 L3.42886089,2.1734789 C3.57973801,1.95407782 3.59466473,1.66854913 3.46748698,1.43461205 C3.34030923,1.20067497 3.09256391,1.05794552 2.82639271,1.06526893 Z M6.37763898,2.4885311 C6.12249425,2.48492272 5.88517141,2.61897398 5.75654602,2.83935402 C5.62792063,3.05973407 5.62792063,3.33229942 5.75654602,3.55267947 C5.88517141,3.77305951 6.12249425,3.90711077 6.37763898,3.90350239 L16.282438,3.90350239 C16.5375827,3.90711077 16.7749056,3.77305951 16.903531,3.55267947 C17.0321563,3.33229942 17.0321563,3.05973407 16.903531,2.83935402 C16.7749056,2.61897398 16.5375827,2.48492272 16.282438,2.4885311 L6.37763898,2.4885311 Z M2.82639271,6.72515394 C2.59319424,6.73158094 2.37815036,6.85254306 2.25156063,7.04849681 L1.31469484,8.45241435 L1.21796825,8.35568762 C1.04051868,8.17086556 0.777016371,8.09641498 0.52908492,8.16104887 C0.28115347,8.22568275 0.0875348042,8.41930136 0.0229008493,8.6672328 C-0.0417331056,8.91516423 0.0327173934,9.17866656 0.217539401,9.35611618 L0.925025045,10.0636018 C1.07490654,10.2134335 1.28405758,10.2881917 1.49495612,10.2673161 C1.70585466,10.2464404 1.89629081,10.1321293 2.0138896,9.95582134 L3.42886089,7.83336441 C3.5797383,7.61396332 3.59466518,7.32843443 3.46748739,7.09449717 C3.3403096,6.86055991 3.09256408,6.7178304 2.82639271,6.72515394 Z M6.37763898,8.14841625 C6.12249425,8.14480787 5.88517141,8.27885913 5.75654602,8.49923918 C5.62792063,8.71961922 5.62792063,8.99218457 5.75654602,9.21256462 C5.88517141,9.43294467 6.12249425,9.56699592 6.37763898,9.56338754 L16.282438,9.56338754 C16.5375827,9.56699592 16.7749056,9.43294467 16.903531,9.21256462 C17.0321563,8.99218457 17.0321563,8.71961922 16.903531,8.49923918 C16.7749056,8.27885913 16.5375827,8.14480787 16.282438,8.14841625 L6.37763898,8.14841625 Z M2.82639271,12.3850391 C2.59319424,12.3914661 2.37815036,12.5124282 2.25156063,12.708382 L1.31469484,14.1122995 L1.21796825,14.0155728 C1.04051868,13.8307507 0.777016371,13.7563001 0.52908492,13.820934 C0.28115347,13.8855679 0.0875348042,14.0791865 0.0229008493,14.327118 C-0.0417331056,14.5750494 0.0327173934,14.8385517 0.217539401,15.0160013 L0.925025045,15.723487 C1.07490654,15.8733186 1.28405758,15.9480769 1.49495612,15.9272012 C1.70585466,15.9063256 1.89629081,15.7920145 2.0138896,15.6157065 L3.42886089,13.4932496 C3.5797383,13.2738485 3.59466518,12.9883196 3.46748739,12.7543823 C3.3403096,12.5204451 3.09256408,12.3777156 2.82639271,12.3850391 L2.82639271,12.3850391 Z M6.37763898,13.8083014 C6.12249425,13.804693 5.88517141,13.9387443 5.75654602,14.1591243 C5.62792063,14.3795044 5.62792063,14.6520697 5.75654602,14.8724498 C5.88517141,15.0928298 6.12249425,15.2268811 6.37763898,15.2232727 L16.282438,15.2232727 C16.5375827,15.2268811 16.7749056,15.0928298 16.903531,14.8724498 C17.0321563,14.6520697 17.0321563,14.3795044 16.903531,14.1591243 C16.7749056,13.9387443 16.5375827,13.804693 16.282438,13.8083014 L6.37763898,13.8083014 Z" id="Shape" fill="color(display-p3 0.000 0.000 0.000)"></path>
    </g>
</svg>