<?xml version="1.0" encoding="UTF-8"?>
<svg width="25px" height="25px" viewBox="0 0 25 25" version="1.1" xmlns="http://www.w3.org/2000/svg" xmlns:xlink="http://www.w3.org/1999/xlink">
    <title>Check_circled</title>
    <g id="Check_circled" stroke="none" fill="none" fill-rule="nonzero">
        <path d="M12.5,0 C19.4035594,0 25,5.59644063 25,12.5 C25,19.4035594 19.4035594,25 12.5,25 C5.59644063,25 0,19.4035594 0,12.5 C0,5.59644063 5.59644063,0 12.5,0 Z M17.849375,9.025 C17.483125,8.65875 16.89,8.65875 16.52375,9.025 L10.936875,14.611875 L8.475,12.15 C8.10875,11.78375 7.515625,11.78375 7.149375,12.15 C6.783125,12.515625 6.783125,13.11 7.149375,13.475625 L10.274375,16.600625 C10.4575,16.78375 10.6975,16.875 10.9375,16.875 C11.1775,16.875 11.4175,16.78375 11.600625,16.600625 L17.850625,10.350625 C18.21625,9.984375 18.21625,9.390625 17.849375,9.025 Z" id="Shape" fill="color(display-p3 0.000 0.000 0.000)"></path>
    </g>
</svg>