<?xml version="1.0" encoding="UTF-8"?>
<svg width="17px" height="17px" viewBox="0 0 17 17" version="1.1" xmlns="http://www.w3.org/2000/svg" xmlns:xlink="http://www.w3.org/1999/xlink">
    <title>chef</title>
    <g id="chef" stroke="none" fill="none" fill-rule="nonzero">
        <path d="M12.9715988,9.39473684 L12.9715988,11.7138947 C12.8311251,11.6637895 12.6817041,11.6315789 12.5242304,11.6315789 L4.47159882,11.6315789 C4.31412514,11.6315789 4.16470409,11.6637895 4.0242304,11.7138947 L4.0242304,9.39473684 C4.0242304,9.14778947 3.82380935,8.94736842 3.57686198,8.94736842 C1.86880935,8.94736842 0.464072508,7.55784211 0.445139457,5.84978947 C0.435440929,4.93536842 0.932019876,4.029 1.80528303,3.36421053 C2.48259882,2.84884211 3.06954619,2.68421053 3.58491461,2.68421053 C3.92849356,2.68421053 4.23896724,2.75757895 4.5243883,2.84884211 C4.64070409,2.88463158 4.76328303,2.87389474 4.86886198,2.81842105 C4.97533567,2.76205263 5.05496724,2.66631579 5.08896724,2.55178947 C5.54886198,1.02536842 6.91870409,0 8.49791461,0 C10.0771251,0 11.4469672,1.02536842 11.9077567,2.55178947 C11.9417567,2.66631579 12.0213883,2.76205263 12.127862,2.81842105 C12.2325462,2.87389474 12.3569146,2.88373684 12.4723357,2.84884211 C13.1845462,2.62068421 14.0631778,2.50526316 15.1914409,3.36421053 C16.0647041,4.029 16.5603883,4.93536842 16.55156,5.84978947 C16.5317567,7.55784211 15.1270199,8.94736842 13.4189672,8.94736842 C13.1720199,8.94736842 12.9715988,9.14778947 12.9715988,9.39473684 Z M4.0242304,14.2334737 C4.16470409,14.2835789 4.31412514,14.3157895 4.47159882,14.3157895 L12.5242304,14.3157895 C12.6817041,14.3157895 12.8311251,14.2835789 12.9715988,14.2334737 L12.9715988,14.7631579 C12.9715988,15.997 11.9685988,17 10.7347567,17 L6.26107251,17 C5.0272304,17 4.0242304,15.997 4.0242304,14.7631579 L4.0242304,14.2334737 Z" id="Shape" fill="color(display-p3 0.000 0.000 0.000)"></path>
    </g>
</svg>