<?xml version="1.0" encoding="UTF-8"?>
<svg width="17px" height="17px" viewBox="0 0 17 17" version="1.1" xmlns="http://www.w3.org/2000/svg" xmlns:xlink="http://www.w3.org/1999/xlink">
    <title>city</title>
    <g id="city" stroke="none" fill="none" fill-rule="nonzero">
        <path d="M2.63464139,0.810069985 C2.40142141,0.814029025 2.19108386,0.951285799 2.09361046,1.16319521 C2.02873693,1.27369679 1.29065714,2.51549107 0.191709016,3.6242936 C0.0297762652,3.77613545 -0.036290235,4.00429849 0.0194571945,4.21917145 C0.075204624,4.43404441 0.243862496,4.60130968 0.459190273,4.65527369 C0.674518051,4.70923769 0.902125482,4.64128176 1.05261953,4.47809565 C1.4375639,4.08969952 1.76102774,3.71274442 2.03753279,3.3620711 L2.03753279,8.90665111 L0.622164275,8.90665111 C0.287328523,8.90665111 0.0155777668,9.17840186 0.0155777668,9.51323762 L0.0155777668,11.1308016 C0.0155777668,11.4656374 0.287328523,11.7373881 0.622164275,11.7373881 L2.03753279,11.7373881 L2.03753279,13.9694368 C2.30443086,14.0664907 2.70496749,14.1637342 3.24280765,14.1637342 L3.25070581,14.1637342 L3.25070581,11.7373881 L13.360481,11.7373881 L13.360481,14.1479379 C13.4737104,14.1600696 13.5990401,14.1637342 13.7324891,14.1637342 C14.0640898,14.1637342 14.3431511,14.1270547 14.573654,14.0744839 L14.573654,11.7373881 L16.3934135,11.7373881 C16.7282492,11.7373881 17,11.4656374 17,11.1308016 L17,9.51323762 C17,9.17840186 16.7282492,8.90665111 16.3934135,8.90665111 L14.573654,8.90665111 L14.573654,3.36128133 C14.8532665,3.7154684 15.1775149,4.09362656 15.5585673,4.47809565 C15.7090612,4.64128208 15.9366688,4.70923827 16.1519968,4.6552743 C16.3673248,4.60131034 16.5359828,4.43404489 16.5917302,4.21917172 C16.6474776,4.00429855 16.5814108,3.77613537 16.4194777,3.6242936 C15.3186324,2.5135766 14.5793733,1.26827803 14.5167865,1.16161554 C14.4160896,0.944362873 14.1970189,0.806670199 13.9575893,0.810069985 C13.7239003,0.81387108 13.5131356,0.951513437 13.4157689,1.16398503 C13.3511973,1.2740787 12.7738887,2.24531497 11.8740282,3.24359748 C10.9202708,4.30167118 9.6470829,5.26713206 8.50778888,5.26713206 C7.36849487,5.26713206 5.97637317,4.28721743 4.91960848,3.22227192 C3.9312243,2.22623681 3.26696314,1.26146085 3.18199088,1.1363411 C3.07592671,0.932831992 2.86410374,0.806594052 2.63464139,0.810069985 Z M3.25070581,3.19699748 C3.49073735,3.47738603 3.75881502,3.77545536 4.05790827,4.07686415 C4.42396948,4.44575893 4.83317355,4.81959658 5.27266084,5.1628752 L5.27266084,8.90665111 L3.25070581,8.90665111 L3.25070581,3.19699748 Z M13.360481,3.3557529 L13.360481,8.90665111 L11.7429169,8.90665111 L11.7429169,5.06967561 C12.1190212,4.74543248 12.4664816,4.39804483 12.7752196,4.05553859 C12.9909161,3.81625073 13.1833197,3.58175611 13.360481,3.3557529 Z M10.9341349,5.68652961 L10.9341349,8.90665111 L8.91217989,8.90665111 L8.91217989,6.45582041 C9.6459684,6.37536399 10.3227378,6.0844261 10.9341349,5.68652961 Z M6.08144285,5.72760077 C6.70685457,6.10475321 7.38477201,6.37877179 8.10339788,6.45582041 L8.10339788,8.90665111 L6.08144285,8.90665111 L6.08144285,5.72760077 Z M0.607157568,14.1574156 C0.360081105,14.1608731 0.139792385,14.3138447 0.0502400559,14.5441469 C-0.0393122733,14.7744491 0.0197699226,15.0360533 0.199607257,15.205515 C0.199607257,15.205515 0.499773396,15.4881083 1.00444015,15.7244307 C1.5091069,15.9607532 2.25810277,16.1856892 3.2443872,16.1856892 C4.23067179,16.1856892 4.97887765,15.9607532 5.48354428,15.7244307 C5.72341891,15.6121034 5.72928744,15.5758789 5.86661013,15.4780049 C6.00389683,15.5758085 6.00936096,15.6122672 6.2488858,15.7244307 C6.75355324,15.9607532 7.50175869,16.1856892 8.48804328,16.1856892 C9.47432787,16.1856892 10.2233235,15.9607532 10.7279901,15.7244307 C10.9676812,15.6121896 10.9729621,15.5758421 11.1102662,15.4780049 C11.2475889,15.5758789 11.253457,15.6121034 11.4933317,15.7244307 C11.9979991,15.9607532 12.7462045,16.1856892 13.7324891,16.1856892 C14.7187737,16.1856892 15.4669796,15.9607532 15.9716462,15.7244307 C16.4763132,15.4881083 16.7772691,15.205515 16.7772691,15.205515 C16.9363378,15.0553379 17.0022318,14.8311505 16.9497229,14.6187857 C16.8972139,14.4064209 16.7344357,14.2387746 16.52371,14.1800323 C16.3129843,14.1212899 16.086953,14.1805509 15.932155,14.3351264 C15.932155,14.3351264 15.8163799,14.4569241 15.4574695,14.6249927 C15.0985592,14.7930612 14.5360391,14.9725162 13.7324891,14.9725162 C12.9289391,14.9725162 12.3664191,14.7930612 12.0075087,14.6249927 C11.6485984,14.4569241 11.5328233,14.3351264 11.5328233,14.3351264 C11.2974518,14.1066332 10.9230806,14.1066332 10.6877091,14.3351264 C10.6877091,14.3351264 10.571934,14.4569241 10.2130237,14.6249927 C9.8541133,14.7930612 9.29159328,14.9725162 8.48804328,14.9725162 C7.68449328,14.9725162 7.12197326,14.7930612 6.7630629,14.6249927 C6.40415253,14.4569241 6.28916719,14.3351264 6.28916719,14.3351264 C6.05369669,14.1061216 5.67873379,14.1061216 5.44326329,14.3351264 C5.44326329,14.3351264 5.32827795,14.4569241 4.96936758,14.6249927 C4.61045722,14.7930612 4.0479372,14.9725162 3.2443872,14.9725162 C2.44083704,14.9725162 1.87831706,14.7930612 1.51940682,14.6249927 C1.16049658,14.4569241 1.04472129,14.3351264 1.04472129,14.3351264 C0.928859002,14.2192167 0.77102897,14.1551161 0.607157568,14.1574156 Z" id="Shape" fill="color(display-p3 0.000 0.000 0.000)"></path>
    </g>
</svg>