<?xml version="1.0" encoding="UTF-8"?>
<svg width="17px" height="17px" viewBox="0 0 17 17" version="1.1" xmlns="http://www.w3.org/2000/svg" xmlns:xlink="http://www.w3.org/1999/xlink">
    <title>clipboard</title>
    <g id="clipboard" stroke="none" fill="none" fill-rule="nonzero">
        <path d="M14.45,1.7 L10.8936,1.7 C10.54255,0.71145 9.6084,0 8.5,0 C7.3916,0 6.45745,0.71145 6.1064,1.7 L2.55,1.7 C1.61075,1.7 0.85,2.46075 0.85,3.4 L0.85,15.3 C0.85,16.23925 1.61075,17 2.55,17 L14.45,17 C15.38925,17 16.15,16.23925 16.15,15.3 L16.15,3.4 C16.15,2.46075 15.38925,1.7 14.45,1.7 Z M4.25,6.375 L4.25,5.525 C4.25,5.2904 4.4404,5.1 4.675,5.1 L12.325,5.1 C12.5596,5.1 12.75,5.2904 12.75,5.525 L12.75,6.375 C12.75,6.6096 12.5596,6.8 12.325,6.8 L4.675,6.8 C4.4404,6.8 4.25,6.6096 4.25,6.375 Z M11.05,8.925 L11.05,9.775 C11.05,10.0096 10.8596,10.2 10.625,10.2 L4.675,10.2 C4.4404,10.2 4.25,10.0096 4.25,9.775 L4.25,8.925 C4.25,8.6904 4.4404,8.5 4.675,8.5 L10.625,8.5 C10.8596,8.5 11.05,8.6904 11.05,8.925 Z M4.675,11.9 L12.325,11.9 C12.5596,11.9 12.75,12.0904 12.75,12.325 L12.75,13.175 C12.75,13.4096 12.5596,13.6 12.325,13.6 L4.675,13.6 C4.4404,13.6 4.25,13.4096 4.25,13.175 L4.25,12.325 C4.25,12.0904 4.4404,11.9 4.675,11.9 Z M8.5,1.7 C8.9692,1.7 9.35,2.0808 9.35,2.55 C9.35,3.0192 8.9692,3.4 8.5,3.4 C8.0308,3.4 7.65,3.0192 7.65,2.55 C7.65,2.0808 8.0308,1.7 8.5,1.7 Z" id="Shape" fill="color(display-p3 0.000 0.000 0.000)"></path>
    </g>
</svg>