<?xml version="1.0" encoding="UTF-8"?>
<svg width="17px" height="17px" viewBox="0 0 17 17" version="1.1" xmlns="http://www.w3.org/2000/svg" xmlns:xlink="http://www.w3.org/1999/xlink">
    <title>clipboard_down</title>
    <g id="clipboard_down" stroke="none" fill="none" fill-rule="nonzero">
        <path d="M12.5016667,9.66666667 C14.5265833,9.66666667 16.1683333,11.3084167 16.1683333,13.3333333 C16.1683333,15.35825 14.5265833,17 12.5016667,17 C10.47675,17 8.835,15.35825 8.835,13.3333333 C8.835,11.3084167 10.47675,9.66666667 12.5016667,9.66666667 Z M12.5016667,11.5 C12.3326944,11.5 12.1961111,11.6368889 12.1961111,11.8055556 L12.1961111,14.1235 L11.4954722,13.4228611 C11.376,13.3033889 11.1828889,13.3033889 11.0634167,13.4228611 C11.0038333,13.4824444 10.9738889,13.5606667 10.9738889,13.6388889 C10.9738889,13.7171111 11.0038333,13.7953333 11.0634167,13.8549167 L12.2856389,15.0771389 C12.4051111,15.1966111 12.5982222,15.1966111 12.7176944,15.0771389 L13.9399167,13.8549167 C14.0593889,13.7354444 14.0593889,13.5423333 13.9399167,13.4228611 C13.8204444,13.3033889 13.6273333,13.3033889 13.5078611,13.4228611 L12.8072222,14.1235 L12.8072222,11.8055556 C12.8072222,11.6368889 12.6706389,11.5 12.5016667,11.5 Z M6.835,0 C7.70433333,0 8.437,0.558 8.71233333,1.33333333 L11.5016667,1.33333333 C12.2383333,1.33333333 12.835,1.93 12.835,2.66666667 L12.8361502,9.01271995 C12.7257604,9.00429156 12.6142143,9 12.5016667,9 C11.642457,9 10.8416216,9.25011533 10.1680029,9.6815035 L10.1683333,9.66666667 C10.1683333,9.48266667 10.019,9.33333333 9.835,9.33333333 L3.835,9.33333333 C3.651,9.33333333 3.50166667,9.48266667 3.50166667,9.66666667 L3.50166667,10.3333333 C3.50166667,10.5173333 3.651,10.6666667 3.835,10.6666667 L9.08661796,10.6657077 C8.51127051,11.4011938 8.16833333,12.3272447 8.16833333,13.3333333 L2.16833333,13.3333333 C1.43166667,13.3333333 0.835,12.7366667 0.835,12 L0.835,2.66666667 C0.835,1.93 1.43166667,1.33333333 2.16833333,1.33333333 L4.95766667,1.33333333 C5.233,0.558 5.96566667,0 6.835,0 Z M8.50166667,6.66666667 L3.835,6.66666667 C3.651,6.66666667 3.50166667,6.816 3.50166667,7 L3.50166667,7.66666667 C3.50166667,7.85066667 3.651,8 3.835,8 L8.50166667,8 C8.68566667,8 8.835,7.85066667 8.835,7.66666667 L8.835,7 C8.835,6.816 8.68566667,6.66666667 8.50166667,6.66666667 Z M9.835,4 L3.835,4 C3.651,4 3.50166667,4.14933333 3.50166667,4.33333333 L3.50166667,5 C3.50166667,5.184 3.651,5.33333333 3.835,5.33333333 L9.835,5.33333333 C10.019,5.33333333 10.1683333,5.184 10.1683333,5 L10.1683333,4.33333333 C10.1683333,4.14933333 10.019,4 9.835,4 Z M6.835,1.33333333 C6.467,1.33333333 6.16833333,1.632 6.16833333,2 C6.16833333,2.368 6.467,2.66666667 6.835,2.66666667 C7.203,2.66666667 7.50166667,2.368 7.50166667,2 C7.50166667,1.632 7.203,1.33333333 6.835,1.33333333 Z" id="Combined-Shape" fill="color(display-p3 0.000 0.000 0.000)"></path>
    </g>
</svg>