<?xml version="1.0" encoding="UTF-8"?>
<svg width="20px" height="20px" viewBox="0 0 20 20" version="1.1" xmlns="http://www.w3.org/2000/svg" xmlns:xlink="http://www.w3.org/1999/xlink">
    <title>Clock</title>
    <g id="Clock" stroke="none" stroke-width="1" fill="none" fill-rule="evenodd">
        <path d="M10,20 C15.5228475,20 20,15.5228475 20,10 C20,4.4771525 15.5228475,0 10,0 C4.4771525,0 0,4.4771525 0,10 C0,15.5228475 4.4771525,20 10,20 Z M10.3351776,5 C10.9781596,5 11.5,5.48622249 11.5,6.08531806 L11.5,10.4265903 C11.5,10.7141996 11.3777298,10.989904 11.1587432,11.1939438 L8.48784217,13.6825445 C8.03356144,14.1058185 7.29499126,14.1058185 6.84071054,13.6825445 C6.38642982,13.2592704 6.38642982,12.5711115 6.84071054,12.1478374 L9.17035527,9.97720133 L9.17035527,6.08531806 C9.17035527,5.48622249 9.69219569,5 10.3351776,5 Z" id="Shape" fill="#000000" fill-rule="nonzero"></path>
    </g>
</svg>