<?xml version="1.0" encoding="UTF-8"?>
<svg width="25px" height="25px" viewBox="0 0 25 25" version="1.1" xmlns="http://www.w3.org/2000/svg" xmlns:xlink="http://www.w3.org/1999/xlink">
    <title>Close_circled</title>
    <g id="Close_circled" stroke="none" fill="none" fill-rule="nonzero">
        <path d="M12.5,0 C19.4035594,0 25,5.59644063 25,12.5 C25,19.4035594 19.4035594,25 12.5,25 C5.59644063,25 0,19.4035594 0,12.5 C0,5.59644063 5.59644063,0 12.5,0 Z M17.6774168,7.32255814 C17.2473393,6.89248062 16.5521757,6.89248062 16.1220982,7.32255814 L12.4999875,10.9446688 L8.87787684,7.32255814 C8.44779932,6.89248062 7.75263566,6.89248062 7.32255814,7.32255814 C6.89248062,7.75263566 6.89248062,8.44779932 7.32255814,8.87787684 L10.9446688,12.4999875 L7.32255814,16.1220982 C6.89248062,16.5521757 6.89248062,17.2473393 7.32255814,17.6774168 C7.53704693,17.8919056 7.81863221,17.9997 8.10021749,17.9997 C8.38180277,17.9997 8.66338805,17.8919056 8.87787684,17.6774168 L12.4999875,14.0553062 L16.1220982,17.6774168 C16.3365869,17.8919056 16.6181722,17.9997 16.8997575,17.9997 C17.1813428,17.9997 17.4629281,17.8919056 17.6774168,17.6774168 C18.1074944,17.2473393 18.1074944,16.5521757 17.6774168,16.1220982 L14.0553062,12.4999875 L17.6774168,8.87787684 C18.1074944,8.44779932 18.1074944,7.75263566 17.6774168,7.32255814 Z" id="Shape" fill="color(display-p3 0.000 0.000 0.000)"></path>
    </g>
</svg>