<?xml version="1.0" encoding="UTF-8"?>
<svg width="12px" height="12px" viewBox="0 0 12 12" version="1.1" xmlns="http://www.w3.org/2000/svg" xmlns:xlink="http://www.w3.org/1999/xlink">
    <title>Close</title>
    <g id="Close" stroke="none" fill="none" fill-rule="evenodd">
        <path d="M11.6481176,9.95140243 C12.1172941,10.420579 12.1172941,11.1789411 11.6481176,11.6481176 C11.4141293,11.8821059 11.1069447,11.9997 10.79976,11.9997 C10.4925754,11.9997 10.1853907,11.8821059 9.95140243,11.6481176 L6,7.69671516 L2.04859757,11.6481176 C1.81460927,11.8821059 1.50742463,11.9997 1.20023999,11.9997 C0.893055347,11.9997 0.585870706,11.8821059 0.351882406,11.6481176 C-0.117294135,11.1789411 -0.117294135,10.420579 0.351882406,9.95140243 L4.30328484,6 L0.351882406,2.04859757 C-0.117294135,1.57942103 -0.117294135,0.821058947 0.351882406,0.351882406 C0.821058947,-0.117294135 1.57942103,-0.117294135 2.04859757,0.351882406 L6,4.30328484 L9.95140243,0.351882406 C10.420579,-0.117294135 11.1789411,-0.117294135 11.6481176,0.351882406 C12.1172941,0.821058947 12.1172941,1.57942103 11.6481176,2.04859757 L7.69671516,6 L11.6481176,9.95140243 Z" id="Path" fill="color(display-p3 0.000 0.000 0.000)"></path>
    </g>
</svg>