<?xml version="1.0" encoding="UTF-8"?>
<svg width="17px" height="17px" viewBox="0 0 17 17" version="1.1" xmlns="http://www.w3.org/2000/svg" xmlns:xlink="http://www.w3.org/1999/xlink">
    <title>Coffee love</title>
    <g id="Coffee-love" stroke="none" fill="none" fill-rule="nonzero">
        <path d="M9.74842887,0 C9.24258442,0 8.83128453,0.415242718 8.83128453,0.925998273 C8.83128453,1.8402205 9.78207451,2.4038 10.1881856,2.64444444 L10.2582812,2.68576389 C10.2885034,2.70389722 10.322415,2.71306438 10.356415,2.71306438 C10.3892816,2.71306438 10.4217705,2.70497729 10.4508594,2.68797729 L10.4929167,2.66362838 C10.8722056,2.44451734 11.8800694,1.86213161 11.8800694,0.925998273 C11.8796917,0.415242718 11.4680318,0 10.9621877,0 C10.7351432,0 10.5207661,0.0839729356 10.3556772,0.231684009 C10.1898327,0.0839728978 9.97509553,0 9.74842887,0 Z M5.37963551,2.27404512 C4.7933244,2.27404512 4.31713551,2.75561727 4.31713551,3.3483506 C4.31713551,4.42388393 5.44433562,5.09256836 5.92638007,5.37816836 L6.01123273,5.42834216 C6.04145496,5.44647549 6.07536618,5.45564227 6.10936618,5.45564227 C6.14223284,5.45564227 6.17472173,5.44681776 6.20381062,5.42981776 L6.25398442,5.40104167 C6.70429553,5.14113056 7.90159722,4.45070616 7.90159722,3.3483506 C7.90121944,2.75561727 7.42393273,2.27404512 6.83762162,2.27404512 C6.56297718,2.27404512 6.30393949,2.38000589 6.10862838,2.56549478 C5.91407282,2.38000589 5.65427996,2.27404512 5.37963551,2.27404512 Z M3.20888889,6.04444444 C3.00035556,6.04444444 2.83111111,6.21331111 2.83111111,6.42222222 L2.83111111,10.9555556 C2.83111111,12.1920222 3.43079216,13.2883333 4.35181438,13.9777778 L11.8881856,13.9777778 C12.6195332,13.4300926 13.1426024,12.6238441 13.3292012,11.6963544 C14.1922217,11.6256767 14.8246077,11.2499151 15.1834116,10.6707466 C15.5826139,10.0263673 15.6755556,9.20627142 15.6755556,8.31111111 C15.6755556,7.689678 15.1636553,7.17777778 14.5422222,7.17777778 L13.4088889,7.17777778 L13.4088889,6.42222222 C13.4088889,6.21331111 13.2396444,6.04444444 13.0311111,6.04444444 L3.20888889,6.04444444 Z M13.4088889,7.93333333 L14.5422222,7.93333333 C14.755678,7.93333333 14.92,8.09765533 14.92,8.31111111 C14.92,9.14730636 14.8102873,9.83841604 14.5414844,10.2723089 C14.3169431,10.6347565 13.9980586,10.8655538 13.4088889,10.9326822 L13.4088889,7.93333333 Z M1.69777778,14.7333333 C1.48924444,14.7333333 1.32,14.9022 1.32,15.1111111 C1.32,16.1575556 2.76688889,17 3.96444444,17 L12.2755556,17 C13.4984222,17 14.92,16.1745556 14.92,15.1111111 C14.92,14.9022 14.7507556,14.7333333 14.5422222,14.7333333 L1.69777778,14.7333333 Z" id="Shape" fill="color(display-p3 0.000 0.000 0.000)"></path>
    </g>
</svg>