<?xml version="1.0" encoding="UTF-8"?>
<svg width="17px" height="17px" viewBox="0 0 17 17" version="1.1" xmlns="http://www.w3.org/2000/svg" xmlns:xlink="http://www.w3.org/1999/xlink">
    <title>Community ideas</title>
    <g id="Community-ideas" stroke="none" fill="none" fill-rule="nonzero">
        <path d="M5.79545455,1.295 C5.5820718,1.295 5.40909091,1.46798089 5.40909091,1.68136364 C5.40909091,1.89474638 5.5820718,2.06772727 5.79545455,2.06772727 C6.00883729,2.06772727 6.18181818,1.89474638 6.18181818,1.68136364 C6.18181818,1.46798089 6.00883729,1.295 5.79545455,1.295 Z M11.2045455,1.295 C10.9911627,1.295 10.8181818,1.46798089 10.8181818,1.68136364 C10.8181818,1.89474638 10.9911627,2.06772727 11.2045455,2.06772727 C11.4179282,2.06772727 11.5909091,1.89474638 11.5909091,1.68136364 C11.5909091,1.46798089 11.4179282,1.295 11.2045455,1.295 Z M8.5,2.06772727 C7.64646902,2.06772727 6.95454545,2.75965084 6.95454545,3.61318182 C6.95498195,4.16488276 7.24948545,4.67451187 7.72727273,4.95036225 L7.72727273,6.70409091 L8.5,6.70409091 L9.27272727,6.70409091 L9.27272727,4.94885296 C9.7500484,4.67327263 10.0444798,4.16434334 10.0454545,3.61318182 C10.0454545,2.75965084 9.35353098,2.06772727 8.5,2.06772727 Z M5.02272727,2.84045455 C4.80934453,2.84045455 4.63636364,3.01343544 4.63636364,3.22681818 C4.63636364,3.44020093 4.80934453,3.61318182 5.02272727,3.61318182 C5.23611002,3.61318182 5.40909091,3.44020093 5.40909091,3.22681818 C5.40909091,3.01343544 5.23611002,2.84045455 5.02272727,2.84045455 Z M12.3649998,11.0418664 C15.0071249,11.0418664 17,12.2103575 17,13.759456 L17,14.9310391 C17,15.3577369 16.6536945,15.7040423 16.2269967,15.7040423 L8.50300326,15.7040423 C8.07630546,15.7040423 7.73,15.3577369 7.73,14.9310391 L7.73,13.759456 C7.73,12.2095845 9.72210182,11.0418664 12.3649998,11.0418664 Z M4.63499981,11.0418664 C5.66274634,11.0418664 6.59225538,11.2186699 7.34444522,11.5259043 C6.4940443,12.1799475 6,13.0086336 6,13.9320945 L6,15.609215 L6.005,15.704 L0.773003257,15.7040423 C0.381863609,15.7040423 0.0582758567,15.4130496 0.00706081216,15.0358848 L2.18491891e-13,14.9310391 L2.18491891e-13,13.759456 C2.18491891e-13,12.2095845 1.99210182,11.0418664 4.63499981,11.0418664 Z M12.3619805,5.655 C13.6427342,5.655 14.6809902,6.69325604 14.6809902,7.97400977 C14.6809902,9.2547635 13.6427342,10.2930195 12.3619805,10.2930195 C11.0812267,10.2930195 10.0429707,9.2547635 10.0429707,7.97400977 C10.0429707,6.69325604 11.0812267,5.655 12.3619805,5.655 Z M4.63198046,5.655 C5.91273419,5.655 6.95099023,6.69325604 6.95099023,7.97400977 C6.95099023,9.2547635 5.91273419,10.2930195 4.63198046,10.2930195 C3.35122672,10.2930195 2.31297068,9.2547635 2.31297068,7.97400977 C2.31297068,6.69325604 3.35122672,5.655 4.63198046,5.655 Z M11.9772727,2.84045455 C12.1906555,2.84045455 12.3636364,3.01343544 12.3636364,3.22681818 C12.3636364,3.44020093 12.1906555,3.61318182 11.9772727,3.61318182 C11.76389,3.61318182 11.5909091,3.44020093 11.5909091,3.22681818 C11.5909091,3.01343544 11.76389,2.84045455 11.9772727,2.84045455 Z" id="Shape" fill="color(display-p3 0.000 0.000 0.000)"></path>
    </g>
</svg>