<?xml version="1.0" encoding="UTF-8"?>
<svg width="17px" height="17px" viewBox="0 0 17 17" version="1.1" xmlns="http://www.w3.org/2000/svg" xmlns:xlink="http://www.w3.org/1999/xlink">
    <title>Community help</title>
    <g id="Community-help" stroke="none" fill="none" fill-rule="nonzero">
        <path d="M2.30508475,0.05 C1.88248588,0.05 1.53672316,0.395762712 1.53672316,0.818361582 L1.53672316,5.61762009 C1.53672316,5.83122454 1.79581707,5.93779875 1.94641594,5.78719988 L3.07344633,4.66016949 L9.22033898,4.66016949 C9.64293785,4.66016949 9.98870056,4.31440678 9.98870056,3.89180791 L9.98870056,0.818361582 C9.98870056,0.395762712 9.64293785,0.05 9.22033898,0.05 L2.30508475,0.05 Z M11.5254237,0.818361582 L11.5254237,3.89180791 C11.5254237,4.48421469 11.2946871,5.01976271 10.9266419,5.42853107 L13.8305085,5.42853107 L14.9605402,6.55856283 C15.1103707,6.70839334 15.3672316,6.60255153 15.3672316,6.39048374 L15.3672316,1.58672316 C15.3672316,1.16412429 15.0214689,0.818361582 14.5988701,0.818361582 L11.5254237,0.818361582 Z M8.4519774,6.96525424 C7.17891425,6.96525424 6.14689266,7.99727583 6.14689266,9.27033898 C6.14689266,10.5434021 7.17891425,11.5754237 8.4519774,11.5754237 C9.72504055,11.5754237 10.7570621,10.5434021 10.7570621,9.27033898 C10.7570621,7.99727583 9.72504055,6.96525424 8.4519774,6.96525424 Z M3.84180791,8.5019774 C2.99309914,8.5019774 2.30508475,9.1899918 2.30508475,10.0387006 C2.30508475,10.8874093 2.99309914,11.5754237 3.84180791,11.5754237 C4.69051668,11.5754237 5.37853107,10.8874093 5.37853107,10.0387006 C5.37853107,9.1899918 4.69051668,8.5019774 3.84180791,8.5019774 Z M13.0621469,8.5019774 C12.2134381,8.5019774 11.5254237,9.1899918 11.5254237,10.0387006 C11.5254237,10.8874093 12.2134381,11.5754237 13.0621469,11.5754237 C13.9108557,11.5754237 14.5988701,10.8874093 14.5988701,10.0387006 C14.5988701,9.1899918 13.9108557,8.5019774 13.0621469,8.5019774 Z M8.45497862,12.319774 C5.82795053,12.319774 3.84781073,13.4804802 3.84781073,15.0210452 L3.84781073,16.1855932 C3.84781073,16.6097288 4.19203672,16.9539548 4.61617232,16.9539548 L12.2937853,16.9539548 C12.7179209,16.9539548 13.0621469,16.6097288 13.0621469,16.1855932 L13.0621469,15.0210452 C13.0621469,13.4812486 11.0812385,12.319774 8.45497862,12.319774 Z M13.8860349,12.9440678 C14.3439784,13.5472316 14.5988701,14.2511469 14.5988701,15.0210452 L14.5988701,16.9539548 L16.2316384,16.9539548 C16.655774,16.9539548 17,16.6097288 17,16.1855932 L17,15.2401481 C17,14.0676283 15.7055151,13.1492203 13.8860349,12.9440678 Z M3.01191739,12.9590747 C1.24699084,13.1872781 0,14.0899108 0,15.2401481 L0,16.1855932 C0,16.6097288 0.344225989,16.9539548 0.768361582,16.9539548 L2.31108757,16.9539548 L2.31108757,15.0210452 C2.31108757,14.2572938 2.56088914,13.5591651 3.01191739,12.9590747 Z" id="Shape" fill="color(display-p3 0.000 0.000 0.000)"></path>
    </g>
</svg>