<?xml version="1.0" encoding="UTF-8"?>
<svg width="17px" height="17px" viewBox="0 0 17 17" version="1.1" xmlns="http://www.w3.org/2000/svg" xmlns:xlink="http://www.w3.org/1999/xlink">
    <title>Community contribute</title>
    <g id="Community-contribute" stroke="none" fill="none" fill-rule="nonzero">
        <path d="M10.9615891,2.55356389 C10.822573,2.49382399 10.7583089,2.33270104 10.8180488,2.19368495 C10.8777887,2.05466885 11.0389117,1.99040475 11.1779278,2.05014466 C11.7183288,2.28228371 12.2238731,2.58393082 12.683627,2.9441525 C13.1472196,3.30739032 13.5616631,3.72827731 13.9157154,4.19553728 C14.0068162,4.31621668 13.9828243,4.4878618 13.8621791,4.57896259 C13.7414997,4.67006337 13.5698546,4.64607144 13.4787538,4.52542631 C13.1517095,4.09377722 12.771129,3.7067874 12.3473287,3.37473909 C11.9271957,3.04556982 11.4619579,2.76849731 10.9615891,2.55356389 L10.9615891,2.55356389 Z M13.4043788,12.1554426 C13.0821672,12.5639909 12.7107722,12.9308618 12.2993448,13.2468355 C11.891105,13.5603414 11.442216,13.8248353 10.9616234,14.0312687 C10.8226073,14.0910086 10.7583432,14.2521316 10.8180831,14.3911477 C10.877823,14.5301638 11.038946,14.5944279 11.177962,14.534688 C11.698724,14.3110146 12.1864457,14.0233857 12.6313931,13.6817063 C13.0807277,13.3365996 13.4852659,12.9373396 13.8349654,12.4939002 C13.9284311,12.375003 13.9077981,12.2028438 13.7889009,12.1093781 C13.6699695,12.0159124 13.4978103,12.0365454 13.4043788,12.1554426 L13.4043788,12.1554426 Z M6.03834234,14.0313373 C5.55768116,13.8248353 5.10868934,13.5603072 4.7003467,13.2467326 C4.28891938,12.9307932 3.91752431,12.5639566 3.59534697,12.1554426 C3.50188127,12.0365454 3.32972203,12.0159124 3.21082489,12.1093781 C3.09192774,12.2028438 3.07132895,12.375003 3.16476038,12.4939002 C3.51442562,12.9373053 3.9189981,13.336531 4.36829839,13.6816035 C4.81331441,14.0233514 5.30113889,14.3110146 5.82196941,14.5347565 C5.9609855,14.5944964 6.12210845,14.5302323 6.18184835,14.3912162 C6.24162253,14.2522001 6.17735843,14.0910772 6.03834234,14.0313373 L6.03834234,14.0313373 Z M8.49999989,14.2068925 C9.964997,14.2068925 11.07,14.8547937 11.07,15.7137329 L11.07,16.3633485 C11.07,16.5999426 10.8779817,16.7919609 10.6413876,16.7919609 L6.35861238,16.7919609 C6.12201835,16.7919609 5.93,16.5999426 5.93,16.3633485 L5.93,15.7137329 C5.93,14.8543651 7.03457426,14.2068925 8.49999989,14.2068925 Z M8.49832573,11.22 C9.20847397,11.22 9.78416287,11.7956889 9.78416287,12.5058371 C9.78416287,13.2159854 9.20847397,13.7916743 8.49832573,13.7916743 C7.78817749,13.7916743 7.2124886,13.2159854 7.2124886,12.5058371 C7.2124886,11.7956889 7.78817749,11.22 8.49832573,11.22 Z M14.4299999,8.30689251 C15.894997,8.30689251 17,8.95479369 17,9.8137329 L17,10.4633485 C17,10.6999426 16.8079817,10.8919609 16.5713876,10.8919609 L12.2886124,10.8919609 C12.0520183,10.8919609 11.86,10.6999426 11.86,10.4633485 L11.86,9.8137329 C11.86,8.95436508 12.9645743,8.30689251 14.4299999,8.30689251 Z M2.56999989,8.28689251 C4.034997,8.28689251 5.14,8.93479369 5.14,9.7937329 L5.14,10.4433485 C5.14,10.6799426 4.94798165,10.8719609 4.71138762,10.8719609 L0.428612378,10.8719609 C0.192018345,10.8719609 -2.90878432e-13,10.6799426 -2.90878432e-13,10.4433485 L-2.90878432e-13,9.7937329 C-2.90878432e-13,8.93436508 1.10457426,8.28689251 2.56999989,8.28689251 Z M14.4283257,5.32 C15.138474,5.32 15.7141629,5.89568889 15.7141629,6.60583713 C15.7141629,7.31598537 15.138474,7.89167427 14.4283257,7.89167427 C13.7181775,7.89167427 13.1424886,7.31598537 13.1424886,6.60583713 C13.1424886,5.89568889 13.7181775,5.32 14.4283257,5.32 Z M2.56832573,5.3 C3.27847397,5.3 3.85416287,5.87568889 3.85416287,6.58583713 C3.85416287,7.29598537 3.27847397,7.87167427 2.56832573,7.87167427 C1.85817749,7.87167427 1.2824886,7.29598537 1.2824886,6.58583713 C1.2824886,5.87568889 1.85817749,5.3 2.56832573,5.3 Z M8.49999989,3.03689251 C9.964997,3.03689251 11.07,3.68479369 11.07,4.5437329 L11.07,5.19334853 C11.07,5.42994257 10.8779817,5.62196091 10.6413876,5.62196091 L6.35861238,5.62196091 C6.12201835,5.62196091 5.93,5.42994257 5.93,5.19334853 L5.93,4.5437329 C5.93,3.68436508 7.03457426,3.03689251 8.49999989,3.03689251 Z M6.18188262,2.19368495 C6.24162253,2.33270104 6.17735843,2.49382399 6.03834234,2.55356389 C5.53797351,2.76849731 5.07273572,3.04556982 4.65256848,3.37473909 C4.22880246,3.7067874 3.84818763,4.09377722 3.52114336,4.52539204 C3.43004257,4.64607144 3.25836318,4.6700291 3.13771805,4.57892831 C3.01703864,4.48782753 2.99308099,4.31614814 3.08418177,4.195503 C3.4382341,3.72824304 3.85267755,3.30735604 4.31627018,2.9441525 C4.7760241,2.58393082 5.2816026,2.28224944 5.82200368,2.05014466 C5.96101978,1.99040475 6.12214272,2.05466885 6.18188262,2.19368495 Z M8.49832573,0.05 C9.20847397,0.05 9.78416287,0.625688894 9.78416287,1.33583713 C9.78416287,2.04598537 9.20847397,2.62167427 8.49832573,2.62167427 C7.78817749,2.62167427 7.2124886,2.04598537 7.2124886,1.33583713 C7.2124886,0.625688894 7.78817749,0.05 8.49832573,0.05 Z" id="Shape" fill="color(display-p3 0.000 0.000 0.000)"></path>
    </g>
</svg>