<?xml version="1.0" encoding="UTF-8"?>
<svg width="22px" height="22px" viewBox="0 0 22 22" version="1.1" xmlns="http://www.w3.org/2000/svg" xmlns:xlink="http://www.w3.org/1999/xlink">
    <title>Compare (disabled)</title>
    <g id="Compare-(disabled)" stroke="none" stroke-width="1" fill="none" fill-rule="evenodd">
        <path d="M20.2134041,0.864816682 L20.2987771,0.935955706 C20.5967374,1.22369262 20.605025,1.69849403 20.3172881,1.99645433 L16.4503357,5.99945984 L19,6 C19.5125714,6 19.9354694,6.38628571 19.9932682,6.88343149 L20,7 C20,7.552 19.552,8 19,8 L14.5183357,7.99945984 L12.9993357,9.57245984 L13,14 C13,15.0547727 12.1845145,15.9182025 11.1493158,15.9945168 L11,16 L11,18 L19,18 C19.552,18 20,18.448 20,19 C20,19.552 19.552,20 19,20 L11,20 C9.895,20 9,19.105 9,18 L9,16 L6.79333574,15.9994598 L1.90884131,21.058959 C1.62110439,21.3569193 1.14630298,21.365207 0.848342682,21.0774701 C0.638017763,20.8743617 0.572027987,20.5780447 0.652607476,20.3165119 L18.3452498,1.99645433 C18.4298783,1.90881895 18.4888991,1.8058859 18.5224739,1.69691391 L19.2382784,0.954466779 C19.4998574,0.683593777 19.9160352,0.652119629 20.2134041,0.864816682 Z M11,2 C12.105,2 13,2.895 13,4 L12.9993357,5.37245984 L9.83333574,8.65045984 L7.7617188,6.5761719 C7.6914688,6.5059219 7.6079531,6.4658281 7.5234375,6.4511719 C7.2698906,6.4072031 7,6.5948281 7,6.8925781 L7,8 L5,8 C4.448,8 4,8.448 4,9 C4,9.552 4.448,10 5,10 L7,10 L7,11.107422 C7,11.2442997 7.05714468,11.3578077 7.14354617,11.4362728 L2.76467198,15.9721153 C2.36281975,15.8750696 2.05539148,15.5351058 2.00673178,15.1165685 L2,15 L2,3 C2,2.448 2.448,2 3,2 L11,2 Z M17,10.890625 L17,12 L19,12 C19.3606359,11.9948997 19.6960814,12.1843753 19.8778877,12.4958728 C20.0596941,12.8073704 20.0596941,13.1926296 19.8778877,13.5041272 C19.6960814,13.8156247 19.3606359,14.0051003 19,14 L17,14 L17,15.107422 C17,15.505422 16.519281,15.704828 16.238281,15.423828 L14.130859,13.314453 C13.956859,13.139453 13.956859,12.857594 14.130859,12.683594 L16.238281,10.576172 C16.308531,10.506172 16.392047,10.465781 16.476562,10.451172 C16.730109,10.407344 17,10.592875 17,10.890625 Z" id="Combined-Shape" fill="#000000" fill-rule="nonzero"></path>
    </g>
</svg>