<?xml version="1.0" encoding="UTF-8"?>
<svg width="18px" height="18px" viewBox="0 0 18 18" version="1.1" xmlns="http://www.w3.org/2000/svg" xmlns:xlink="http://www.w3.org/1999/xlink">
    <title>Compare</title>
    <g id="Compare" stroke="none" stroke-width="1" fill="none" fill-rule="evenodd">
        <g id="ic_compare" transform="translate(0, 0)" fill="#000000" fill-rule="nonzero">
            <path d="M1,0 C0.448,0 0,0.448 0,1 L0,13 C0,13.552 0.448,14 1,14 L7,14 L7,16 C7,17.105 7.895,18 9,18 L17,18 C17.552,18 18,17.552 18,17 C18,16.448 17.552,16 17,16 L9,16 L9,14 C10.105,14 11,13.105 11,12 L11,6 L17,6 C17.552,6 18,5.552 18,5 C18,4.448 17.552,4 17,4 L11,4 L11,2 C11,0.895 10.105,0 9,0 L1,0 Z M5.5234375,4.4511719 C5.6079531,4.4658281 5.6914688,4.5059219 5.7617188,4.5761719 L7.869141,6.6855469 C7.956141,6.7725469 8,6.886 8,7 C8,7.114 7.956141,7.227453 7.869141,7.314453 L5.7617188,9.423828 C5.4807188,9.704828 5,9.504422 5,9.107422 L5,8 L3,8 C2.448,8 2,7.552 2,7 C2,6.448 2.448,6 3,6 L5,6 L5,4.8925781 C5,4.5948281 5.2698906,4.4072031 5.5234375,4.4511719 Z M14.476562,8.451172 C14.392047,8.465781 14.308531,8.506172 14.238281,8.576172 L12.130859,10.683594 C11.956859,10.857594 11.956859,11.139453 12.130859,11.314453 L14.238281,13.423828 C14.519281,13.704828 15,13.505422 15,13.107422 L15,12 L17,12 C17.3606359,12.0051003 17.6960814,11.8156247 17.8778877,11.5041272 C18.0596941,11.1926296 18.0596941,10.8073704 17.8778877,10.4958728 C17.6960814,10.1843753 17.3606359,9.99489971 17,10 L15,10 L15,8.890625 C15,8.592875 14.730109,8.407344 14.476562,8.451172 Z" id="Shape"></path>
        </g>
    </g>
</svg>