<?xml version="1.0" encoding="UTF-8"?>
<svg width="17px" height="17px" viewBox="0 0 17 17" version="1.1" xmlns="http://www.w3.org/2000/svg" xmlns:xlink="http://www.w3.org/1999/xlink">
    <title>Compass</title>
    <g id="Compass" stroke="none" fill="none" fill-rule="nonzero">
        <path d="M8.5,0 C3.80545,0 0,3.80545 0,8.5 C0,13.19455 3.80545,17 8.5,17 C13.19455,17 17,13.19455 17,8.5 C17,3.80545 13.19455,0 8.5,0 Z M12.6786136,3.85322264 C12.9884547,3.81722055 13.2551125,4.14125313 13.1085937,4.45585938 L10.6233399,9.7982424 C10.4541899,10.1620424 10.1620424,10.45419 9.7982424,10.62334 L4.45585938,13.1085938 C4.09630938,13.2760438 3.72395625,12.9036911 3.89140625,12.5441402 L6.37666013,7.2017576 C6.54581013,6.8388076 6.8379576,6.54581013 7.2017576,6.37666014 L12.5441402,3.89140625 C12.5890848,3.870475 12.6343498,3.85836582 12.6786136,3.85322264 Z M8.5,7.56533235 C7.9815,7.56533235 7.56533235,7.9815 7.56533235,8.5 C7.56533235,9.0185 7.9815,9.43466765 8.5,9.43466765 C9.0185,9.43466765 9.43466765,9.0185 9.43466765,8.5 C9.43466765,7.9815 9.0185,7.56533235 8.5,7.56533235 Z" id="Shape" fill="color(display-p3 0.000 0.000 0.000)"></path>
    </g>
</svg>