<?xml version="1.0" encoding="UTF-8"?>
<svg width="17px" height="17px" viewBox="0 0 17 17" version="1.1" xmlns="http://www.w3.org/2000/svg" xmlns:xlink="http://www.w3.org/1999/xlink">
    <title>compare_alt</title>
    <g id="compare_alt" stroke="none" fill="none" fill-rule="nonzero">
        <path d="M15.0384615,0 L1.96153846,0 C0.878605769,0 0,0.878605769 0,1.96153846 L0,15.0384615 C0,16.1213942 0.878605769,17 1.96153846,17 L15.0384615,17 C16.1213942,17 17,16.1213942 17,15.0384615 L17,1.96153846 C17,0.878605769 16.1213942,0 15.0384615,0 Z M7.58052885,13.1280048 C7.48347388,13.1969653 5.81565488,13.2276143 5.22055288,13.3272239 L5.22055288,14.2773441 C5.22055288,14.376953 5.16436331,14.4714547 5.07752404,14.5174279 C4.98813085,14.5659557 4.88085954,14.5608472 4.79657485,14.5046576 C3.71364215,13.7767431 2.74819712,12.6401741 2.70988565,12.591647 C2.67157485,12.5431192 2.65114215,12.484375 2.65114215,12.4230769 C2.65114215,12.3617788 2.67157485,12.3030347 2.70988565,12.2545075 C2.74819712,12.2059797 3.71364215,11.0694114 4.79657485,10.3414962 C4.88085954,10.2853067 4.98813085,10.2801982 5.07752404,10.328726 C5.16436331,10.3746998 5.22055288,10.4692009 5.22055288,10.5688104 L5.22055288,11.5214845 C5.81565488,11.6210941 7.48347388,11.6900539 7.58052885,11.7590144 C7.72355769,11.858624 7.82316723,12.1497895 7.82316723,12.4230769 C7.82316723,12.6989183 7.72355769,13.0258413 7.58052885,13.1280048 Z M7.58052885,7.24338942 C7.48347388,7.31234992 5.81565488,7.34299896 5.22055288,7.4426085 L5.22055288,8.39272869 C5.22055288,8.49233758 5.16436331,8.58683927 5.07752404,8.6328125 C4.98813085,8.68134031 4.88085954,8.67623181 4.79657485,8.62004223 C3.71364215,7.89212773 2.74819712,6.75555873 2.70988565,6.70703158 C2.67157485,6.65850377 2.65114215,6.59975962 2.65114215,6.53846154 C2.65114215,6.47716346 2.67157485,6.41841931 2.70988565,6.36989215 C2.74819712,6.32136435 3.71364215,5.184796 4.79657485,4.45688085 C4.88085954,4.40069127 4.98813085,4.39558277 5.07752404,4.44411058 C5.16436331,4.49008446 5.22055288,4.5845855 5.22055288,4.68419504 L5.22055288,5.63686915 C5.81565488,5.73647869 7.48347388,5.80543854 7.58052885,5.87439904 C7.72355769,5.97400858 7.82066131,6.26517412 7.82066131,6.53846154 C7.82316723,6.81430288 7.72355769,7.14122596 7.58052885,7.24338942 Z M14.2901143,10.6301085 C14.2518029,10.6786357 13.2863585,11.8152047 12.2034258,12.5431192 C12.1191405,12.5993087 12.0118692,12.6044172 11.922476,12.5558894 C11.8356373,12.5099162 11.7794471,12.4154145 11.7794471,12.3158056 L11.7794471,11.3656854 C11.1843451,11.2660759 9.51652677,11.2354268 9.41947115,11.1664663 C9.27644231,11.0643029 9.17683277,10.7373798 9.17683277,10.4615385 C9.17683277,10.188251 9.27644231,9.89963942 9.41947115,9.79747596 C9.51652677,9.72851546 11.1843451,9.65955562 11.7794471,9.55994608 L11.7794471,8.60727196 C11.7794471,8.50766242 11.8356373,8.41316138 11.922476,8.3671875 C12.0118692,8.31865969 12.1191405,8.32376819 12.2034258,8.37995777 C13.2863585,9.10787292 14.2518029,10.2444413 14.2901143,10.2929691 C14.3284258,10.3414962 14.3488585,10.4002404 14.3488585,10.4615385 C14.3488585,10.5228365 14.3284258,10.5815807 14.2901143,10.6301085 Z M14.2901143,4.74549312 C14.2518029,4.79402027 13.2863585,5.93058927 12.2034258,6.65850377 C12.1191405,6.71469335 12.0118692,6.71980185 11.922476,6.67127404 C11.8356373,6.62530081 11.7794471,6.53079912 11.7794471,6.43119023 L11.7794471,5.48107004 C11.1843451,5.3814605 9.51652677,5.35081146 9.41947115,5.28185096 C9.27644231,5.1796875 9.17683277,4.85276442 9.17683277,4.57692308 C9.17683277,4.30363565 9.27644231,4.01502404 9.41947115,3.91286058 C9.51652677,3.84390008 11.1843451,3.77494023 11.7794471,3.67533069 L11.7794471,2.72265658 C11.7794471,2.62304704 11.8356373,2.528546 11.922476,2.48257212 C12.0118692,2.43404431 12.1191405,2.43915281 12.2034258,2.49534238 C13.2863585,3.22325754 14.2518029,4.35982588 14.2901143,4.40835369 C14.3284258,4.45688085 14.3488585,4.515625 14.3488585,4.57692308 C14.3488585,4.63822115 14.3284258,4.69696531 14.2901143,4.74549312 Z" id="Shape" fill="color(display-p3 0.000 0.000 0.000)"></path>
    </g>
</svg>