<?xml version="1.0" encoding="UTF-8"?>
<svg width="17px" height="17px" viewBox="0 0 17 17" version="1.1" xmlns="http://www.w3.org/2000/svg" xmlns:xlink="http://www.w3.org/1999/xlink">
    <title>Cones</title>
    <g id="Cones" stroke="none" fill="none" fill-rule="evenodd">
        <path d="M0.16076443,11.0310935 L1.20566336,10.4616448 C1.24750783,10.4386 1.29481028,10.444058 1.33180322,10.4749865 C1.36818972,10.5065215 1.38335076,10.5544303 1.37182837,10.6029457 L1.36030598,10.6496417 C1.33059034,10.7703236 1.32452592,10.8940377 1.34393205,11.0171453 C1.4567302,11.7357786 2.28149081,12.0129225 3.00982721,12.1099531 C2.93705422,12.2761181 2.91219011,12.4629022 2.94918305,12.6587828 C2.9892082,12.8704309 3.09533548,13.0523634 3.23784927,13.2027609 C3.21419804,13.191845 3.19115326,13.1809291 3.16871492,13.1688002 L0.266285274,11.5859876 C-0.0423935159,11.4173968 -0.0896959632,11.1681493 0.16076443,11.0310935 Z M8.4999433,1.815 C8.72250738,1.815 8.90504631,1.99693249 8.90504631,2.22010301 L8.90504631,4.44938245 C8.90504631,4.67194652 8.72250738,4.85387901 8.4999433,4.85387901 C8.27737922,4.85387901 8.09544673,4.67194652 8.09544673,4.44938245 L8.09544673,2.22010301 C8.09544673,1.99693249 8.27737922,1.815 8.4999433,1.815 L8.4999433,1.815 Z M11.8523526,2.6919146 C11.6946778,2.53423977 11.4369401,2.53423977 11.2798717,2.6919146 L9.7031235,4.2680564 C9.54605511,4.42573122 9.54605511,4.68346892 9.7031235,4.8405373 C9.86079832,4.99821212 10.118536,4.99821212 10.2762108,4.8405373 L11.8523526,3.2643955 C12.0100275,3.10672067 12.0100275,2.84898298 11.8523526,2.6919146 Z M5.14814041,2.6919146 C5.30520879,2.53423977 5.56294648,2.53423977 5.7206213,2.6919146 L7.2967631,4.2680564 C7.45443793,4.42573122 7.45443793,4.68346892 7.2967631,4.8405373 C7.13908828,4.99821212 6.88195703,4.99821212 6.7242822,4.8405373 L5.14814041,3.2643955 C4.99046558,3.10672067 4.99046558,2.84898298 5.14814041,2.6919146 Z M3.8079044,12.1857583 L5.18149469,11.4368029 C5.23607444,11.4064808 5.29914437,11.4131517 5.34705326,11.4543897 C5.39556859,11.4956278 5.41497472,11.5586977 5.39981368,11.6223741 L5.38465264,11.6842311 C5.34584038,11.8425124 5.33795664,12.0056452 5.36282074,12.1669586 C5.56658513,13.4598922 7.51993362,13.6660824 8.50540128,13.6648695 C9.48965604,13.664263 11.4345144,13.4562536 11.6370659,12.1669586 C11.6625364,12.0056452 11.6546527,11.8425124 11.6158404,11.6842311 L11.6006794,11.6223741 C11.5855183,11.5586977 11.6049245,11.4956278 11.6534398,11.4543897 C11.7013487,11.4131517 11.7638122,11.4064808 11.8189983,11.4368029 L13.0537135,12.1099531 C13.459423,12.3313043 13.5218864,12.6593892 13.1919822,12.838896 L9.09910763,15.0712076 C8.76980983,15.2513208 8.16821973,15.21736 7.76251028,14.9960089 L3.94677953,12.9147012 C3.54046364,12.69335 3.47860659,12.3652651 3.8079044,12.1857583 L3.8079044,12.1857583 Z M2.74966375,6.46034289 C2.85639748,6.03340799 3.28515171,5.85268838 3.72967343,5.85449411 C4.17419515,5.85268838 4.60294938,6.03340799 4.70968311,6.46034289 L4.93042786,7.34574768 C4.9455889,7.40517896 4.91223461,7.46521668 4.85462266,7.48462281 C4.15296969,7.71931572 3.30637717,7.71931572 2.6047242,7.48462281 C2.54711225,7.46521668 2.5143644,7.40517896 2.528919,7.34574768 L2.74966375,6.46034289 L2.74966375,6.46034289 Z M13.9664082,12.1129853 C14.6995961,12.0189869 15.5419435,11.7436624 15.656561,11.0171453 C15.6759671,10.8940377 15.6699027,10.7703236 15.6401871,10.6496417 L15.6286647,10.6029457 C15.6171423,10.5544303 15.6323033,10.5065215 15.6686898,10.4749865 C15.7050763,10.444058 15.7529852,10.4386 15.7948297,10.4616448 L16.7336013,10.9734815 C17.0422801,11.1420723 17.0895826,11.3913198 16.8391222,11.5283756 L13.8257137,13.1718324 C14.0155299,12.9553328 14.1089219,12.6715181 14.05131,12.3664779 C14.0337232,12.2761181 14.0052204,12.1918228 13.9664082,12.1129853 L13.9664082,12.1129853 Z M12.2908099,6.46034289 C12.3975437,6.03340799 12.8262979,5.85268838 13.2708196,5.85449411 C13.7147349,5.85268838 14.1434891,6.03340799 14.2502228,6.46034289 L14.471574,7.34574768 C14.4861286,7.40517896 14.4533808,7.46521668 14.3951624,7.48462281 C13.6941159,7.71931572 12.8469169,7.71931572 12.1458704,7.48462281 C12.087652,7.46521668 12.0549041,7.40517896 12.0694587,7.34574768 L12.2908099,6.46034289 L12.2908099,6.46034289 Z M7.21186128,6.17592177 C7.35194929,5.61435682 7.91594001,5.3766317 8.4999433,5.3790391 C9.08455303,5.3766317 9.64854375,5.61435682 9.78863177,6.17592177 L10.0791173,7.3402897 C10.0985234,7.41791423 10.0548596,7.49735808 9.97905444,7.52282863 C9.05726316,7.83150742 7.94322988,7.83150742 7.0214386,7.52282863 C6.94502696,7.49735808 6.9019696,7.41791423 6.92137573,7.3402897 L7.21186128,6.17592177 L7.21186128,6.17592177 Z M10.3417065,8.39125305 L10.6861654,9.77272708 C10.7037522,9.84186143 10.6722172,9.91220866 10.6085409,9.94556295 C9.45084378,10.5513981 7.58785509,10.57323 6.39134575,9.94556295 C6.32827582,9.91220866 6.29674085,9.84186143 6.31432766,9.77272708 L6.65878651,8.39125305 C6.6703089,8.34637637 6.69759877,8.31180919 6.73944325,8.29119018 C6.78128772,8.27057116 6.82555796,8.26935828 6.86800887,8.28815797 C7.8837986,8.72479595 9.11669444,8.72479595 10.1324842,8.28815797 C10.1749351,8.26935828 10.2192053,8.27057116 10.2610498,8.29119018 C10.3022878,8.31180919 10.3301841,8.34637637 10.3417065,8.39125305 L10.3417065,8.39125305 Z M10.975438,10.9304242 L11.1610092,11.674528 C11.4478561,12.8237349 9.162784,13.0863242 8.4999433,13.0796533 C7.83770904,13.0863242 5.55263697,12.8237349 5.83948386,11.674528 L6.025055,10.9304242 C6.03657739,10.8831217 6.06629303,10.8479481 6.11056327,10.8279355 C6.15422707,10.8079229 6.20092308,10.8091358 6.24398043,10.8309677 C7.59816459,11.5265563 9.44174715,11.5047244 10.7565126,10.8309677 C10.79957,10.8091358 10.8456595,10.8079229 10.8899298,10.8279355 C10.9335936,10.8479481 10.9633092,10.8831217 10.975438,10.9304242 Z M14.6710933,8.14564419 L14.9330761,9.19600109 C14.9464178,9.24876151 14.9227666,9.30212838 14.8742513,9.32759893 C13.993698,9.78849457 12.5770504,9.80486849 11.6667815,9.32759893 C11.6188726,9.30212838 11.5946149,9.24876151 11.6079567,9.19600109 L11.8699394,8.14564419 C11.8784296,8.11107701 11.8996551,8.08500002 11.93119,8.06923254 C11.9633315,8.05346506 11.9966857,8.05285862 12.0294336,8.06680678 C12.8014338,8.39913679 13.739599,8.39913679 14.5115992,8.06680678 C14.544347,8.05285862 14.5777013,8.05346506 14.6098427,8.06923254 C14.6413777,8.08500002 14.6626032,8.11107701 14.6710933,8.14564419 L14.6710933,8.14564419 Z M15.1532144,10.0765543 L15.2945153,10.6423644 C15.4752349,11.3664557 14.3126863,11.627832 13.6225558,11.6933277 C13.5443248,11.6308642 13.459423,11.5750716 13.3714889,11.5271627 L12.1367738,10.8534061 C11.9742474,10.7648656 11.7917085,10.7363628 11.6182662,10.7648656 C11.572783,10.5859653 11.469688,10.4307163 11.3271742,10.3209503 L11.3884248,10.0765543 C11.396915,10.0407743 11.4193533,10.0134844 11.453314,9.99832337 C11.4866683,9.98316233 11.5218419,9.98437521 11.5545898,10.0007491 C12.5843277,10.5295662 13.9870272,10.5131923 14.9870494,10.0007491 C15.0191908,9.98437521 15.0543644,9.98316233 15.0883252,9.99832337 C15.1216795,10.0134844 15.1441178,10.0407743 15.1532144,10.0765543 L15.1532144,10.0765543 Z M5.12994716,8.14564419 L5.39253638,9.19600109 C5.40527166,9.24876151 5.38162043,9.30212838 5.3331051,9.32759893 C4.45255185,9.78849457 3.0359042,9.80486849 2.12563532,9.32759893 C2.07772643,9.30212838 2.0540752,9.24876151 2.06681048,9.19600109 L2.3293997,8.14564419 C2.33788989,8.11107701 2.35911534,8.08500002 2.39065031,8.06923254 C2.42218527,8.05346506 2.456146,8.05285862 2.48828741,8.06680678 C3.26089405,8.39913679 4.19845281,8.39913679 4.97105945,8.06680678 C5.0038073,8.05285862 5.03716159,8.05346506 5.06869655,8.06923254 C5.10083796,8.08500002 5.12145697,8.11107701 5.12994716,8.14564419 Z M5.61206825,10.0765543 L5.67331886,10.3209503 C5.53080507,10.4307163 5.42771,10.5853589 5.38222687,10.7648656 C5.20817813,10.7363628 5.02624564,10.7648656 4.86371928,10.8534061 L3.49012899,11.6023615 C3.44161365,11.6290449 3.39491765,11.6587606 3.35125385,11.690902 C2.65809107,11.6211612 1.52768387,11.3573591 1.70597771,10.6423644 L1.84727861,10.0765543 C1.85637523,10.0407743 1.87881357,10.0134844 1.91216786,9.99832337 C1.94552215,9.98316233 1.98069577,9.98437521 2.01344361,10.0007491 C3.0431815,10.5295662 4.445881,10.5131923 5.44590325,10.0007491 C5.47865109,9.98437521 5.51382471,9.98316233 5.547179,9.99832337 C5.58053329,10.0134844 5.60297163,10.0407743 5.61206825,10.0765543 L5.61206825,10.0765543 Z" id="Shape" fill="color(display-p3 0.000 0.000 0.000)"></path>
    </g>
</svg>