<?xml version="1.0" encoding="UTF-8"?>
<svg width="17px" height="17px" viewBox="0 0 17 17" version="1.1" xmlns="http://www.w3.org/2000/svg" xmlns:xlink="http://www.w3.org/1999/xlink">
    <title>Construction</title>
    <g id="Construction" stroke="none" fill="none" fill-rule="nonzero">
        <path d="M2.72,0 C2.34464,0 2.04,0.30464 2.04,0.68 L2.04,1.36 L0.68,1.36 C0.306,1.36 0,1.666 0,2.04 L0,2.72 C0,3.094 0.306,3.4 0.68,3.4 L2.04,3.4 L2.04,4.08 C2.04,4.45536 2.34464,4.76 2.72,4.76 L3.4,4.76 L3.4,13.6 L2.72,13.6 C2.34464,13.6 2.04,13.90464 2.04,14.28 L2.04,14.96 L1.36,14.96 C0.98464,14.96 0.68,15.26464 0.68,15.64 L0.68,16.32 C0.68,16.69536 0.98464,17 1.36,17 L7.48,17 C7.85536,17 8.16,16.69536 8.16,16.32 L8.16,15.64 C8.16,15.26464 7.85536,14.96 7.48,14.96 L6.8,14.96 L6.8,14.28 C6.8,13.90464 6.49536,13.6 6.12,13.6 L5.44,13.6 L5.44,4.76 L6.12,4.76 C6.49536,4.76 6.8,4.45536 6.8,4.08 L6.8,3.4 L12.24,3.4 L12.24,4.76 L10.2,4.76 C9.82464,4.76 9.52,5.06464 9.52,5.44 C9.52,5.81536 9.82464,6.12 10.2,6.12 L15.64,6.12 C16.01536,6.12 16.32,5.81536 16.32,5.44 C16.32,5.06464 16.01536,4.76 15.64,4.76 L13.6,4.76 L13.6,3.4 L16.32,3.4 C16.694,3.4 17,3.094 17,2.72 L17,2.04 C17,1.666 16.694,1.36 16.32,1.36 L6.67515608,1.36 C6.39363608,0.57052 5.64536,0 4.76,0 L2.72,0 Z M3.4,1.36 L4.76,1.36 C5.13468,1.36 5.44,1.66532 5.44,2.04 L5.44,3.4 L3.4,3.4 L3.4,1.36 Z M11.56,7.48 C11.18464,7.48 10.88,7.78464 10.88,8.16 L10.88,8.84 L10.2,8.84 C9.826,8.84 9.52,9.146 9.52,9.52 L9.52,16.32 C9.52,16.69536 9.82464,17 10.2,17 L15.64,17 C16.01536,17 16.32,16.69536 16.32,16.32 L16.32,10.88 C16.32,10.50464 16.01536,10.2 15.64,10.2 L14.96,10.2 L14.96,8.16 C14.96,7.78464 14.65536,7.48 14.28,7.48 C13.90464,7.48 13.6,7.78464 13.6,8.16 L13.6,10.2 L12.92,10.2 L12.24,8.84 L12.24,8.16 C12.24,7.78464 11.93536,7.48 11.56,7.48 Z M10.88,11.56 L12.24,11.56 L12.24,12.92 L10.88,12.92 L10.88,11.56 Z M13.6,11.56 L14.96,11.56 L14.96,12.92 L13.6,12.92 L13.6,11.56 Z M10.88,14.28 L12.24,14.28 L12.24,15.64 L10.88,15.64 L10.88,14.28 Z M13.6,14.28 L14.96,14.28 L14.96,15.64 L13.6,15.64 L13.6,14.28 Z" id="Shape" fill="color(display-p3 0.000 0.000 0.000)"></path>
    </g>
</svg>