<?xml version="1.0" encoding="UTF-8"?>
<svg width="22px" height="22px" viewBox="0 0 22 22" version="1.1" xmlns="http://www.w3.org/2000/svg" xmlns:xlink="http://www.w3.org/1999/xlink">
    <title>Contribute</title>
    <g id="Contribute" stroke="none" stroke-width="1" fill="none" fill-rule="evenodd">
        <path d="M12,1 C10.8954305,1 10,1.8954305 10,3 C10,4.1045695 10.8954305,5 12,5 C13.1045695,5 14,4.1045695 14,3 C14,1.8954305 13.1045695,1 12,1 L12,1 Z M7.07651833,5.00902741 C6.94474932,5.02123826 6.81350271,5.04476783 6.68488044,5.08226597 L3.79397072,5.92617388 C3.3920536,6.04292945 3.04592776,6.30005002 2.82518116,6.64690781 L1.66057248,8.47787202 L1.26893415,8.29810423 C1.13666231,8.23512458 0.990179785,8.2053619 0.842941581,8.21155 C0.435964239,8.22801485 0.0938985567,8.51310797 0.0162169017,8.90057999 C-0.0614647533,9.28805201 0.145563983,9.67651611 0.516576261,9.83944311 L0.897908364,10.0142168 C0.946967064,10.4462543 1.32368702,10.7732954 1.77222374,10.7732346 C1.94240008,10.7730835 2.10887619,10.7250923 2.2514654,10.6350803 L11.4137414,14.8413038 L11.4463776,15.026064 C11.4463636,15.0288382 11.4463636,15.0316126 11.4463776,15.0343868 C11.4463776,15.5050607 11.8401291,15.8866173 12.3258461,15.8866173 C12.5901316,15.8868952 12.8405352,15.7719886 13.0077781,15.5736885 L15.8660509,16.8853248 C15.6717059,17.2857164 15.4876024,17.5910782 15.3043589,17.5910782 C14.6658648,17.5910782 13.936854,17.935779 13.5059144,18.7462502 C13.2693373,19.1902622 12.3258461,21 12.3258461,21 L22,21 C22,21 19.6621255,16.1807297 19.3719009,15.5986563 C18.8486171,14.5478561 18.2548387,14.1821564 17.9118451,14.1821564 C17.3697811,14.1821564 16.9540018,14.7051199 16.6063848,15.3389927 L13.0524384,13.70777 L12.4443686,8.38965253 C12.3704932,7.747923 11.9754606,7.18256133 11.3879756,6.8766106 L8.22738557,5.23207215 C7.87252002,5.0473512 7.47182536,4.97239488 7.07651833,5.00902741 Z M6,7 L4.72994012,10 L3,9.16686963 L4.05808389,7.54811171 L6,7 Z M10.294748,9 L11,12 L9,11.3133093 L10.294748,9 Z M3.94238279,13 L2.03515625,19.9006731 C2.01194872,19.9778429 2.00011553,20.0577403 2,20.1380471 C2,20.6140906 2.40294373,21 2.9,21 C3.23848326,20.9997335 3.54818734,20.8176036 3.7015625,20.5286195 L3.70332029,20.5286195 L3.7296875,20.4730641 C3.7314758,20.4691484 3.73323367,20.4652201 3.73496096,20.4612795 L6.36992192,14.6767672 L8.4476558,16.2239054 L9.2087894,20.2575759 C9.27102525,20.6832492 9.65120104,21 10.1,21 C10.5936439,21 10.9951791,20.6192178 11,20.146465 L11,16.200337 L3.94238279,13 Z" id="Shape" fill="#000000" fill-rule="nonzero"></path>
    </g>
</svg>