<?xml version="1.0" encoding="UTF-8"?>
<svg width="22px" height="22px" viewBox="0 0 22 22" version="1.1" xmlns="http://www.w3.org/2000/svg" xmlns:xlink="http://www.w3.org/1999/xlink">
    <title>Copy</title>
    <g id="Copy" stroke="none" stroke-width="1" fill="none" fill-rule="evenodd">
        <path d="M7.61,0 C6.6376,0 5.85,0.7876 5.85,1.76 L5.85,15.84 C5.85,16.8124 6.6376,17.6 7.61,17.6 L19.05,17.6 C20.0224,17.6 20.81,16.8124 20.81,15.84 L20.81,5.72 C20.81,5.4868 20.7176273,5.26325246 20.5521873,5.09781254 L15.7121873,0.257812544 C15.5467473,0.092372456 15.3232,0 15.09,0 L7.61,0 Z M14.65,1.67578127 L19.1342186,6.16 L15.53,6.16 C15.04424,6.16 14.65,5.76576 14.65,5.28 L14.65,1.67578127 Z M3.21,4.4 C2.2376,4.4 1.45,5.1876 1.45,6.16 L1.45,20.24 C1.45,21.2124 2.2376,22 3.21,22 L14.65,22 C15.6224,22 16.41,21.2124 16.41,20.24 L16.41,19.36 L7.61,19.36 C5.66872,19.36 4.09,17.78128 4.09,15.84 L4.09,4.4 L3.21,4.4 Z" id="Shape" fill="#000000" fill-rule="nonzero"></path>
    </g>
</svg>