<?xml version="1.0" encoding="UTF-8"?>
<svg width="23px" height="23px" viewBox="0 0 23 23" version="1.1" xmlns="http://www.w3.org/2000/svg" xmlns:xlink="http://www.w3.org/1999/xlink">
    <title>Crash</title>
    <g id="Crash" stroke="none" stroke-width="1" fill="none" fill-rule="evenodd">
        <path d="M10.6379394,2.80103337 C10.2762771,2.81849679 9.96869508,3.07068797 9.88068977,3.42191388 L8.47207697,9.05636468 L3.60931533,6.97232352 C3.31769459,6.84722748 2.98010391,6.901269 2.74210573,7.11114644 C2.50410755,7.32102387 2.40826433,7.64920374 2.49590177,7.95418137 L3.96547937,13.0977024 L0.399026279,15.2378953 C0.157568248,15.3826857 0.00707591907,15.6410412 0.000242797441,15.9225008 C-0.00659032419,16.2039605 0.13118768,16.4693144 0.365335109,16.6256513 L5.29387485,19.9113445 C5.53802274,20.0797019 5.85395883,20.1033984 6.12048884,19.9733439 C6.38701884,19.8432894 6.56276095,19.5796763 6.5802998,19.2836277 C6.59783866,18.987579 6.45445117,18.7050597 6.20514131,18.5444452 L2.35632396,15.9791017 L5.35002685,14.1822382 C5.66900986,13.9909916 5.81971337,13.6092969 5.71742123,13.2517192 L4.54945999,9.16385531 L8.71112429,10.947884 C8.93260424,11.0430031 9.18468363,11.0360526 9.40058571,10.9288738 C9.61648778,10.8216949 9.77442503,10.6251036 9.83255929,10.3911775 L10.9796646,5.80436227 L13.2498083,9.77831854 C13.4500714,10.1285286 13.8749901,10.2814993 14.2525222,10.1392955 L19.211545,8.27986256 L17.2911468,14.0394519 C17.1540223,14.4521025 17.362212,14.9001321 17.7660322,15.0614174 L20.5640053,16.181249 L17.5574679,18.5861579 C17.3281048,18.7695449 17.2140246,19.0613819 17.2582141,19.3517016 C17.3024036,19.6420212 17.4981468,19.8867001 17.7716853,19.9935405 C18.0452238,20.1003809 18.3549849,20.053145 18.584247,19.8696318 L22.6913634,16.5839386 C22.9193737,16.4012259 23.0331763,16.1111552 22.9902372,15.8221416 C22.9472981,15.533128 22.7540801,15.2886718 22.4827991,15.1801394 L19.0944281,13.8244698 L21.3148379,7.16644892 C21.4148329,6.86596682 21.3332079,6.53476379 21.1050373,6.3151581 C20.8768667,6.09555241 20.5427844,6.02665279 20.2463461,6.13806549 L14.3295306,8.356871 L11.3919805,3.21334934 C11.2382997,2.94491463 10.9468656,2.78555606 10.6379394,2.80103337 Z M11.4240669,10.2419734 L10.6780478,15.1207784 L8.21377795,12.6565085 L9.85020757,16.7668335 L6.57093137,16.763625 L9.85662453,18.4064716 L7.39235466,20.0493181 L16.4280109,20.0493181 L13.963741,18.4064716 L17.2494341,16.763625 L13.963741,16.763625 L15.6065876,12.6565085 L12.3208944,15.1207784 L11.4240669,10.2419734 Z" id="Shape" fill="#000000" fill-rule="nonzero"></path>
    </g>
</svg>