<?xml version="1.0" encoding="UTF-8"?>
<svg width="23px" height="23px" viewBox="0 0 23 23" version="1.1" xmlns="http://www.w3.org/2000/svg" xmlns:xlink="http://www.w3.org/1999/xlink">
    <title>Crash</title>
    <g id="Crash" stroke="none" fill="none" fill-rule="nonzero">
        <path d="M11.0144946,2.40364804 C10.7178322,2.45194242 10.4832616,2.68651301 10.4349672,2.98317537 L9.11033333,10.9309788 L3.67381501,5.93600512 C3.43234573,5.72213238 3.07359071,5.69798519 2.80797336,5.88081204 C2.53890754,6.06363889 2.43197073,6.40514629 2.54235688,6.70870823 L5.90913473,15.4844079 L0.583002565,16.6986556 C0.272541935,16.7538487 0.0345213383,17.0091171 0.00347523115,17.3230271 C-0.0275709202,17.636938 0.151806853,17.9336012 0.445019866,18.050886 L6.26788974,20.5069781 C6.50246033,20.6277132 6.7853253,20.6070153 6.99919805,20.451785 C7.21652102,20.300004 7.32690718,20.0378369 7.28896171,19.7756698 C7.25101625,19.5135027 7.0681894,19.2961797 6.81982054,19.2099407 L3.01149806,17.5817449 L6.98539978,16.6710591 C7.18892448,16.6296643 7.36140241,16.5020305 7.46488987,16.322653 C7.56492711,16.1432755 7.58217473,15.9259525 7.50973403,15.7327767 L4.94325584,9.05441411 L9.11033333,12.8627366 C9.30350911,13.0283158 9.56912559,13.0800596 9.81059575,12.9938206 C10.052065,12.9075807 10.2245438,12.7006067 10.269388,12.4487885 L11.2628634,6.62591861 L12.6426904,12.421192 C12.6944341,12.6385149 12.8496645,12.8213418 13.0566385,12.9075807 C13.2636126,12.9938206 13.4981831,12.9765721 13.6913589,12.8627366 L19.9005804,9.02681757 L16.3130302,15.5120044 C16.2095436,15.6982815 16.1957453,15.9225031 16.2750847,16.1225776 C16.354425,16.3192036 16.5234536,16.4709846 16.7269783,16.5330764 L20.342125,17.636938 L17.0029437,19.2375373 C16.7511255,19.3306758 16.5751973,19.5583468 16.5441514,19.8239642 C16.5165549,20.0895806 16.6407393,20.3517478 16.864961,20.4931798 C17.0926329,20.6380621 17.3789463,20.6449608 17.6100676,20.5069781 L22.5774447,18.1612722 C22.8499608,18.0405371 23.0189893,17.7645717 22.9982924,17.4713587 C22.9810439,17.1746964 22.7775201,16.9194279 22.4946551,16.8366383 L17.9688226,15.4292148 L22.439462,7.37102518 C22.5946923,7.08816109 22.5360499,6.73975412 22.3049287,6.5189818 C22.0703581,6.29820948 21.7185026,6.26371425 21.4459866,6.43274283 L13.7741485,11.1517511 L11.8423908,2.95557883 C11.7630505,2.57612685 11.3939474,2.32775799 11.0144946,2.40364804 Z M11.4008461,10.020293 L10.9041084,15.8155663 L6.87501362,12.0624369 L9.46908835,17.1677968 L5.35720393,17.9129034 L9.52428143,19.1271511 L8.31003368,20.5897677 L14.7400274,20.5897677 L14.2156932,19.6238888 L17.9688226,17.7749207 L13.9397278,17.0850072 L17.6376641,11.5105061 L12.5047077,15.3188286 L11.4008461,10.020293 Z" id="Shape" fill="color(display-p3 0.000 0.000 0.000)"></path>
    </g>
</svg>