<?xml version="1.0" encoding="UTF-8"?>
<svg width="20px" height="20px" viewBox="0 0 20 20" version="1.1" xmlns="http://www.w3.org/2000/svg" xmlns:xlink="http://www.w3.org/1999/xlink">
    <title>CC SA</title>
    <g id="CC-SA" stroke="none" stroke-width="1" fill="none" fill-rule="evenodd">
        <path d="M11.1567389,0.09 C7.65399646,0.09 4.75059399,2.74738403 4.35011491,6.14645164 L3.96312159,5.75945756 C3.74785011,5.53776759 3.45200428,5.41266405 3.14299255,5.41265177 C2.67763223,5.41276524 2.25878109,5.6949436 2.08386694,6.12618052 C1.90895279,6.55741743 2.01288656,7.05164276 2.3466785,7.37590065 L4.53468151,9.56390367 C4.75183832,9.84705865 5.08875472,10.0125762 5.44559146,10.0114081 C5.8024282,10.01024 6.13825374,9.84252017 6.35355208,9.55794954 L8.53560096,7.37590065 C8.8342193,7.08918471 8.9545067,6.66343467 8.8500734,6.26284432 C8.7456401,5.86225397 8.43280455,5.54941842 8.03221421,5.44498513 C7.63162386,5.34055183 7.20587381,5.46083923 6.91915787,5.75945756 L6.68398459,5.99463084 C7.11894321,3.91916874 8.94561595,2.37623969 11.1567389,2.37623969 C13.6954412,2.37623969 15.7292183,4.41001678 15.7292183,6.94871906 L15.7292183,13.0453582 C15.7292183,15.5840605 13.6954412,17.6178376 11.1567389,17.6178376 C8.93322529,17.6178376 7.09970603,16.0449039 6.67654288,13.9607472 C6.60280132,13.5530196 6.31422184,13.217105 5.92226747,13.0827494 C5.5303131,12.9483939 5.0963417,13.0366299 4.78797353,13.3133765 C4.47960537,13.5901232 4.34511342,14.0120576 4.43644484,14.4162089 C5.07257198,17.5492512 7.85060088,19.9040773 11.1567389,19.9040773 C14.9311065,19.9040773 18.015458,16.8197258 18.015458,13.0453582 L18.015458,6.94871906 C18.015458,3.17435148 14.9311065,0.09 11.1567389,0.09 Z" id="Path" fill="#000000" fill-rule="nonzero"></path>
    </g>
</svg>