<?xml version="1.0" encoding="UTF-8"?>
<svg width="20px" height="20px" viewBox="0 0 20 20" version="1.1" xmlns="http://www.w3.org/2000/svg" xmlns:xlink="http://www.w3.org/1999/xlink">
    <title>CC</title>
    <g id="CC" stroke="none" stroke-width="1" fill="none" fill-rule="evenodd">
        <path d="M5.10002366,12.8000406 C5.55922587,12.8000406 5.99462798,12.6544399 6.35862973,12.3814385 C6.97743272,11.9152363 7.85383695,12.0412369 8.3186392,12.6572399 C8.78344144,13.2746428 8.65884084,14.1524471 8.04143786,14.6172493 C7.18883374,15.2612524 6.17102883,15.6000541 5.10002366,15.6000541 C2.39801061,15.6000541 0.2,13.4020435 0.2,10.7000304 L0.2,9.30002366 C0.2,6.59801061 2.39801061,4.4 5.10002366,4.4 C6.17102883,4.4 7.18883374,4.73880164 8.04143786,5.38140474 C8.65884084,5.84620698 8.78344144,6.72401122 8.3186392,7.3414142 C7.85243695,7.95741717 6.97603271,8.08341778 6.35862973,7.61721553 C5.99462798,7.34561422 5.55922587,7.20001352 5.10002366,7.20001352 C3.94221807,7.20001352 3.00001352,8.14221807 3.00001352,9.30002366 L3.00001352,10.7000304 C3.00001352,11.857836 3.94221807,12.8000406 5.10002366,12.8000406 Z M16.3000777,12.8000406 C16.7592799,12.8000406 17.194682,12.6544399 17.5586838,12.3814385 C18.1788868,11.9152363 19.053891,12.0412369 19.5186933,12.6572399 C19.9834955,13.2746428 19.8588949,14.1524471 19.2414919,14.6172493 C18.3888878,15.2612524 17.3710829,15.6000541 16.3000777,15.6000541 C13.5980647,15.6000541 11.4000541,13.4020435 11.4000541,10.7000304 L11.4000541,9.30002366 C11.4000541,6.59801061 13.5980647,4.4 16.3000777,4.4 C17.3710829,4.4 18.3888878,4.73880164 19.2414919,5.38140474 C19.8588949,5.84620698 19.9834955,6.72401122 19.5186933,7.3414142 C19.052491,7.95741717 18.1774868,8.08341778 17.5586838,7.61721553 C17.194682,7.34561422 16.7592799,7.20001352 16.3000777,7.20001352 C15.1422721,7.20001352 14.2000676,8.14221807 14.2000676,9.30002366 L14.2000676,10.7000304 C14.2000676,11.857836 15.1422721,12.8000406 16.3000777,12.8000406 Z" id="Shape" fill="#000000" fill-rule="nonzero"></path>
    </g>
</svg>