<?xml version="1.0" encoding="UTF-8"?>
<svg width="20px" height="20px" viewBox="0 0 20 20" version="1.1" xmlns="http://www.w3.org/2000/svg" xmlns:xlink="http://www.w3.org/1999/xlink">
    <title>CC attribution</title>
    <g id="CC-attribution" stroke="none" stroke-width="1" fill="none" fill-rule="evenodd">
        <path d="M10,-2.13162821e-14 C8.77466667,-2.13162821e-14 7.77777778,0.996888889 7.77777778,2.22222222 C7.77777778,3.44755556 8.77466667,4.44444444 10,4.44444444 C11.2253333,4.44444444 12.2222222,3.44755556 12.2222222,2.22222222 C12.2222222,0.996888889 11.2253333,-2.13162821e-14 10,-2.13162821e-14 Z M9.97743067,4.88888889 C7.6356528,4.88888889 6,6.71644444 6,9.33333333 L6,13.6076391 L7.35329862,14.2847222 L7.80902778,20.4444444 L12.1909724,20.4444444 L12.6467013,14.2847222 L14,13.6076391 L14,9.33333333 C14,6.75822222 12.3080973,4.88888889 9.97743067,4.88888889 Z" id="Shape" fill="#000000" fill-rule="nonzero"></path>
    </g>
</svg>