<?xml version="1.0" encoding="UTF-8"?>
<svg width="17px" height="17px" viewBox="0 0 17 17" version="1.1" xmlns="http://www.w3.org/2000/svg" xmlns:xlink="http://www.w3.org/1999/xlink">
    <title>crop</title>
    <g id="crop" stroke="none" fill="none" fill-rule="nonzero">
        <path d="M16.1158129,12.4472485 L14.2119024,12.4472485 L14.2119024,4.44828254 C14.2113359,4.00813413 14.0362736,3.5861718 13.7250707,3.27495004 C13.413849,2.96372827 12.9918866,2.78864714 12.5517382,2.78811836 L4.55277223,2.78811836 L4.55277223,0.884149318 C4.55299885,0.768126674 4.53035595,0.653199349 4.48612771,0.545941148 C4.44189947,0.438681058 4.37693571,0.341197637 4.29499449,0.259073238 C4.21303439,0.176950727 4.11568316,0.111790557 4.00851183,0.0673357002 C3.9013405,0.0228808431 3.78646416,0 3.67043585,0 C3.55442643,0 3.43953121,0.0228808431 3.33237876,0.0673357002 C3.22520743,0.111790557 3.1278562,0.176950727 3.0458961,0.259073238 C2.963936,0.341197637 2.89899112,0.438681058 2.85476288,0.545941148 C2.81051575,0.653199349 2.78787286,0.768126674 2.78811836,0.884149318 L2.78811836,2.78811836 L0.884149318,2.78811836 C0.768126674,2.78787286 0.653199349,2.81051575 0.545941148,2.85476288 C0.438681058,2.89899112 0.341197637,2.963936 0.259073238,3.0458961 C0.176950727,3.1278562 0.111790557,3.22520743 0.0673357002,3.33237876 C0.0228808431,3.43953121 3.97903932e-13,3.55442643 3.97903932e-13,3.67043585 C3.97903932e-13,3.78646416 0.0228808431,3.9013405 0.0673357002,4.00851183 C0.111790557,4.11568316 0.176950727,4.21303439 0.259073238,4.29499449 C0.341197637,4.37693571 0.438681058,4.44189947 0.545941148,4.48612771 C0.653199349,4.53035595 0.768126674,4.55299885 0.884149318,4.55277223 L2.78811836,4.55277223 L2.78811836,12.5517382 C2.78864714,12.9918866 2.96370938,13.413849 3.27495004,13.7250707 C3.5861718,14.0362736 4.00813413,14.2113359 4.44828254,14.2119024 L12.4472485,14.2119024 L12.4472485,16.1158885 C12.447003,16.2318979 12.4696648,16.3468498 12.5138553,16.4541155 C12.5581024,16.5613057 12.6230662,16.658808 12.7050263,16.740957 C12.7869864,16.8230493 12.8842998,16.8882019 12.9915089,16.9327134 C13.0986425,16.9771494 13.2135377,17 13.3295471,17 C13.4455566,17 13.5604518,16.9771494 13.667642,16.9327134 C13.7747945,16.8882019 13.8721646,16.8230493 13.954068,16.740957 C14.0360281,16.658808 14.1009919,16.5613057 14.145239,16.4541155 C14.189505,16.3468498 14.2120913,16.2318979 14.2119024,16.1158885 L14.2119024,14.2119024 L16.1158885,14.2119024 C16.2318979,14.2121668 16.3467742,14.189505 16.45404,14.145239 C16.5613057,14.1010485 16.658808,14.0360848 16.7409003,13.9541247 C16.8230493,13.8721646 16.8882019,13.7747945 16.9326567,13.667642 C16.9770927,13.5605085 17,13.4456321 17,13.3295471 C17,13.2135377 16.9770927,13.0986425 16.9326567,12.9915089 C16.8882019,12.8842998 16.8230493,12.7869864 16.7409003,12.7050263 C16.658808,12.6230662 16.5613057,12.5581024 16.45404,12.5139119 C16.3467742,12.4696648 16.2318412,12.447003 16.1158129,12.4472485 Z M12.4472485,12.4472485 L4.55277223,12.4472485 L4.55277223,4.55277223 L12.4472485,4.55277223 L12.4472485,12.4472485 Z M5.76013518,11.1005157 L5.76013518,10.7290513 C5.76032402,10.6922259 5.77512972,10.656968 5.80119077,10.6309825 C5.82730847,10.6050347 5.86262307,10.5904368 5.89944846,10.5904368 C5.93627385,10.5904368 5.97164512,10.6050347 5.99770616,10.6309825 C6.02384275,10.656968 6.0385729,10.6922259 6.03876175,10.7290513 L6.03876175,10.9612024 L6.27096945,10.9612024 C6.30779484,10.9613912 6.34305279,10.976178 6.36898165,11.0022391 C6.39498604,11.0283757 6.409584,11.0636903 6.409584,11.1005157 C6.409584,11.137341 6.39498604,11.1726557 6.36898165,11.1987734 C6.34305279,11.2248911 6.30779484,11.2396212 6.27096945,11.2398101 L5.89944846,11.2398101 C5.86249088,11.2398101 5.82711962,11.2251554 5.80100192,11.1990189 C5.77486533,11.1729012 5.76013518,11.1374544 5.76013518,11.1005157 Z M5.76013518,7.9855219 L5.76013518,7.29951207 C5.76032402,7.26268668 5.77512972,7.22742873 5.80119077,7.20148099 C5.82730847,7.17549548 5.86262307,7.16089752 5.89944846,7.16089752 C5.93627385,7.16089752 5.97164512,7.17549548 5.99770616,7.20148099 C6.02384275,7.22742873 6.0385729,7.26268668 6.03876175,7.29951207 L6.03876175,7.9855219 C6.0385729,8.02234729 6.02384275,8.05760524 5.99770616,8.08359075 C5.97164512,8.10959514 5.93627385,8.12413645 5.89944846,8.12413645 C5.86262307,8.12413645 5.82730847,8.10959514 5.80119077,8.08359075 C5.77512972,8.05760524 5.76032402,8.02234729 5.76013518,7.9855219 Z M5.76013518,9.70014989 L5.76013518,9.01442333 C5.76032402,8.97759794 5.77512972,8.94235888 5.80119077,8.91643002 C5.82730847,8.89042563 5.86262307,8.87588432 5.89944846,8.87588432 C5.93627385,8.87588432 5.97164512,8.89042563 5.99770616,8.91643002 C6.02384275,8.94235888 6.0385729,8.97759794 6.03876175,9.01442333 L6.03876175,9.70014989 C6.0385729,9.73697528 6.02384275,9.77221435 5.99770616,9.7981432 C5.97164512,9.82414759 5.93627385,9.83876444 5.89944846,9.83876444 C5.86262307,9.83876444 5.82730847,9.82414759 5.80119077,9.7981432 C5.77512972,9.77221435 5.76032402,9.73697528 5.76013518,9.70014989 Z M5.76013518,6.27096945 L5.76013518,5.89944846 C5.76013518,5.86249088 5.77486533,5.82711962 5.80100192,5.80100192 C5.82711962,5.77486533 5.86249088,5.76013518 5.89944846,5.76013518 L6.27096945,5.76013518 C6.30779484,5.76032402 6.34305279,5.77512972 6.36898165,5.80119077 C6.39498604,5.82730847 6.409584,5.86262307 6.409584,5.89944846 C6.409584,5.93627385 6.39498604,5.97164512 6.36898165,5.99770616 C6.34305279,6.02384275 6.30779484,6.0385729 6.27096945,6.03876175 L6.03876175,6.03876175 L6.03876175,6.27096945 C6.0385729,6.30779484 6.02384275,6.34305279 5.99770616,6.36898165 C5.97164512,6.39498604 5.93627385,6.409584 5.89944846,6.409584 C5.86262307,6.409584 5.82730847,6.39498604 5.80119077,6.36898165 C5.77512972,6.34305279 5.76032402,6.30779484 5.76013518,6.27096945 Z M8.87494008,5.89944846 C8.87494008,5.86249088 8.88967024,5.82711962 8.91578794,5.80100192 C8.94192452,5.77486533 8.97729579,5.76013518 9.01423449,5.76013518 L9.70014989,5.76013518 C9.73697528,5.76032402 9.77221435,5.77512972 9.7981432,5.80119077 C9.82414759,5.82730847 9.83876444,5.86262307 9.83876444,5.89944846 C9.83876444,5.93627385 9.82414759,5.97164512 9.7981432,5.99770616 C9.77221435,6.02384275 9.73697528,6.0385729 9.70014989,6.03876175 L9.01423449,6.03876175 C8.97729579,6.03876175 8.94192452,6.02408825 8.91578794,5.99797055 C8.88967024,5.97183396 8.87494008,5.93640605 8.87494008,5.89944846 Z M7.16038763,5.89944846 C7.16038763,5.86249088 7.17506113,5.82711962 7.20117883,5.80100192 C7.22729654,5.77486533 7.26274334,5.76013518 7.29968204,5.76013518 L7.9855219,5.76013518 C8.02234729,5.76032402 8.05760524,5.77512972 8.08359075,5.80119077 C8.10959514,5.82730847 8.12413645,5.86262307 8.12413645,5.89944846 C8.12413645,5.93627385 8.10959514,5.97164512 8.08359075,5.99770616 C8.05760524,6.02384275 8.02234729,6.0385729 7.9855219,6.03876175 L7.29968204,6.03876175 C7.26274334,6.03876175 7.22729654,6.02408825 7.20117883,5.99797055 C7.17506113,5.97183396 7.16038763,5.93640605 7.16038763,5.89944846 Z M10.589738,5.89944846 C10.589738,5.86249088 10.6044115,5.82711962 10.6305292,5.80100192 C10.6566469,5.77486533 10.6920937,5.76013518 10.7290513,5.76013518 L11.1005157,5.76013518 C11.1374544,5.76013518 11.1729012,5.77486533 11.1990189,5.80100192 C11.2251554,5.82711962 11.2398101,5.86249088 11.2398101,5.89944846 L11.2398101,6.27096945 C11.2396212,6.30779484 11.2248911,6.34305279 11.1987734,6.36898165 C11.1726557,6.39498604 11.137341,6.409584 11.1005157,6.409584 C11.0636903,6.409584 11.0283757,6.39498604 11.0022391,6.36898165 C10.976178,6.34305279 10.9613912,6.30779484 10.9612024,6.27096945 L10.9612024,6.03876175 L10.7290513,6.03876175 C10.6920937,6.03876175 10.6566469,6.02408825 10.6305292,5.99797055 C10.6044115,5.97183396 10.589738,5.93640605 10.589738,5.89944846 Z M11.2398101,9.01442333 L11.2398101,9.7005087 C11.2396212,9.73733409 11.2248911,9.77259204 11.1987734,9.79853978 C11.1726557,9.82452529 11.137341,9.8390666 11.1005157,9.8390666 C11.0636903,9.8390666 11.0283757,9.82452529 11.0022391,9.79853978 C10.976178,9.77259204 10.9613912,9.73733409 10.9612024,9.7005087 L10.9612024,9.01442333 C10.9613912,8.97759794 10.976178,8.94235888 11.0022391,8.91643002 C11.0283757,8.89042563 11.0636903,8.87588432 11.1005157,8.87588432 C11.137341,8.87588432 11.1726557,8.89042563 11.1987734,8.91643002 C11.2248911,8.94235888 11.2396212,8.97759794 11.2398101,9.01442333 Z M11.2398101,7.29988977 L11.2398101,7.9855219 C11.2396212,8.02234729 11.2248911,8.05760524 11.1987734,8.08359075 C11.1726557,8.10959514 11.137341,8.12413645 11.1005157,8.12413645 C11.0636903,8.12413645 11.0283757,8.10959514 11.0022391,8.08359075 C10.976178,8.05760524 10.9613912,8.02234729 10.9612024,7.9855219 L10.9612024,7.29988977 C10.9613912,7.26306438 10.976178,7.22780643 11.0022391,7.20180203 C11.0283757,7.17587318 11.0636903,7.16125633 11.1005157,7.16125633 C11.137341,7.16125633 11.1726557,7.17587318 11.1987734,7.20180203 C11.2248911,7.22780643 11.2396212,7.26306438 11.2398101,7.29988977 Z M10.589738,11.1005157 C10.589738,11.0635581 10.6044115,11.0281868 10.6305292,11.0020502 C10.6566469,10.9759325 10.6920937,10.9612024 10.7290513,10.9612024 L10.9612024,10.9612024 L10.9612024,10.7290513 C10.9613912,10.6922259 10.976178,10.656968 11.0022391,10.6309825 C11.0283757,10.6050347 11.0636903,10.5904368 11.1005157,10.5904368 C11.137341,10.5904368 11.1726557,10.6050347 11.1987734,10.6309825 C11.2248911,10.656968 11.2396212,10.6922259 11.2398101,10.7290513 L11.2398101,11.1005157 C11.2398101,11.1374544 11.2251554,11.1729012 11.1990189,11.1990189 C11.1729012,11.2251554 11.1374544,11.2398101 11.1005157,11.2398101 L10.7290513,11.2398101 C10.6920937,11.2398101 10.6566469,11.2251554 10.6305292,11.1990189 C10.6044115,11.1729012 10.589738,11.1374544 10.589738,11.1005157 Z M9.83963314,11.1005157 C9.83963314,11.1374544 9.82490298,11.1729012 9.79878528,11.1990189 C9.7726487,11.2251554 9.73727744,11.2398101 9.70033874,11.2398101 L9.01442333,11.2398101 C8.97759794,11.2396212 8.94235888,11.2248911 8.91643002,11.1987734 C8.89042563,11.1726557 8.87588432,11.137341 8.87588432,11.1005157 C8.87588432,11.0636903 8.89042563,11.0283757 8.91643002,11.0022391 C8.94235888,10.976178 8.97759794,10.9613912 9.01442333,10.9612024 L9.70033874,10.9612024 C9.73727744,10.9612024 9.7726487,10.9759325 9.79878528,11.0020502 C9.82490298,11.0281868 9.83963314,11.0635581 9.83963314,11.1005157 Z M8.12502404,11.1005157 C8.12502404,11.1374544 8.11035053,11.1729012 8.08423283,11.1990189 C8.05809625,11.2251554 8.02266833,11.2398101 7.98571075,11.2398101 L7.29988977,11.2398101 C7.26306438,11.2396212 7.22780643,11.2248911 7.20180203,11.1987734 C7.17587318,11.1726557 7.16125633,11.137341 7.16125633,11.1005157 C7.16125633,11.0636903 7.17587318,11.0283757 7.20180203,11.0022391 C7.22780643,10.976178 7.26306438,10.9613912 7.29988977,10.9612024 L7.98571075,10.9612024 C8.02266833,10.9612024 8.05809625,10.9759325 8.08423283,11.0020502 C8.11035053,11.0281868 8.12502404,11.0635581 8.12502404,11.1005157 Z" id="Shape" fill="color(display-p3 0.000 0.000 0.000)"></path>
    </g>
</svg>