<?xml version="1.0" encoding="UTF-8"?>
<svg width="17px" height="17px" viewBox="0 0 17 17" version="1.1" xmlns="http://www.w3.org/2000/svg" xmlns:xlink="http://www.w3.org/1999/xlink">
    <title>Crosswalk</title>
    <g id="Crosswalk" stroke="none" fill="none" fill-rule="nonzero">
        <path d="M13.5337538,0.935 C12.6543015,0.935 11.9413645,1.64793698 11.9413645,2.52738932 C11.9413645,3.40684165 12.6543015,4.11977863 13.5337538,4.11977863 C14.4132062,4.11977863 15.1261431,3.40684165 15.1261431,2.52738932 C15.1261431,1.64793698 14.4132062,0.935 13.5337538,0.935 Z M5.57180756,1.73119466 C4.69235522,1.73119466 3.97941824,2.44413164 3.97941824,3.32358397 C3.97941824,4.20303631 4.69235522,4.91597329 5.57180756,4.91597329 C6.45125977,4.91597329 7.16419655,4.20303618 7.16419655,3.32358397 C7.16419655,2.44413176 6.45125977,1.73119466 5.57180756,1.73119466 Z M12.4856384,4.87243139 C12.1751225,4.842176 11.8615715,4.8978972 11.5836995,5.03882366 C11.3846509,5.13994038 9.99753009,6.1475869 9.99753009,6.1475869 C9.63763816,6.39368143 8.51292244,7.8511019 7.73646147,8.87362046 L7.3445848,8.67301683 C7.20843552,8.6037479 7.20905735,8.60353611 7.08644337,8.5159547 L6.65880005,10.1114547 L8.31183711,10.9574116 C8.31183711,10.9574116 10.5580511,7.69247843 10.8932491,7.46317437 C10.8932491,7.46317437 11.2976164,7.20641353 11.7267654,6.94844646 C11.7267654,6.94844646 11.3248113,7.83584283 11.2571347,8.19094565 C11.0015562,9.52775648 11.1375439,9.85040242 11.5292717,10.3727061 C11.927369,10.903768 13.0796745,12.7224127 13.0796745,12.7224135 L14.4294728,16.0626985 L16.0078666,16.0626985 L14.4699052,12.1003864 L13.745243,10.2171989 L14.5709845,6.43838458 C14.6808593,5.83486903 14.3131543,5.25980494 13.7359132,5.08703078 L12.4856384,4.87243139 Z M4.52369189,5.66862605 C4.21317598,5.63837065 3.89962457,5.69409186 3.62175263,5.83501831 C3.42270397,5.93613504 2.03558359,6.94378156 2.03558359,6.94378156 C1.52442662,7.29331101 0,9.37279709 0,9.37279709 L1.33580317,10.2405251 C1.33580317,10.2405251 2.59610463,8.48867309 2.93130258,8.25936902 C2.93130258,8.25936902 3.33566994,8.00260819 3.76481886,7.74464112 C3.76481886,7.74464112 3.362865,8.63203749 3.29518846,8.98714031 C3.03960997,10.3239511 3.17559747,10.6465971 3.56732524,11.1689008 C3.96542257,11.6999626 5.11772779,13.5186082 5.11772779,13.5186082 L6.46752655,16.0626985 L8.04592004,16.0626985 L6.50795827,12.8965811 L5.78329676,11.0133936 L6.60903773,7.23457892 C6.71891275,6.63106337 6.35120744,6.05599959 5.77396632,5.88322543 L4.52369189,5.66862605 Z M15.0483899,7.71976004 L14.6207466,9.31526009 L16.2737837,10.1612169 L17,8.74455014 L15.3065314,7.87682217 C15.1703821,7.80755324 15.1710039,7.80734145 15.0483899,7.71976004 Z M11.2975671,11.6276458 L9.64608499,16.0626985 L11.2384743,16.0626985 L12.3394618,13.1158451 L11.2975671,11.6276458 Z M3.33562018,12.4238405 L1.68413833,16.0626985 L3.27652765,16.0626985 L4.37751557,13.9120398 L3.33562018,12.4238405 Z" id="Shape" fill="color(display-p3 0.000 0.000 0.000)"></path>
    </g>
</svg>