<?xml version="1.0" encoding="UTF-8"?>
<svg width="23px" height="23px" viewBox="0 0 23 23" version="1.1" xmlns="http://www.w3.org/2000/svg" xmlns:xlink="http://www.w3.org/1999/xlink">
    <title>Currency</title>
    <g id="Currency" stroke="none" stroke-width="1" fill="none" fill-rule="evenodd">
        <path d="M11.6153846,0 C10.8325743,0 10.1366377,0.345590127 9.65091658,0.884615385 L7.19403535,0.884615385 C6.56861236,0.884615385 6.13896572,1.51719827 6.37161957,2.09750605 L7.19230769,4.42307692 L16.0384615,4.42307692 L16.8591493,2.09750605 C17.0918032,1.51719827 16.662157,0.884615385 16.0367339,0.884615385 L13.5798527,0.884615385 C13.0941316,0.345590127 12.3981949,0 11.6153846,0 Z M7.19230769,6.19230769 C7.19230769,6.19230769 1,11.5 1,17.6923077 C1,21.2307692 3.65384615,23 5.42307692,23 L11.6153846,23 L17.8076923,23 C19.5769231,23 22.2307692,21.2307692 22.2307692,17.6923077 C22.2307692,11.5 16.0384615,6.19230769 16.0384615,6.19230769 L7.19230769,6.19230769 Z" id="Shape" fill="#000000" fill-rule="nonzero"></path>
    </g>
</svg>