<?xml version="1.0" encoding="UTF-8"?>
<svg width="22px" height="22px" viewBox="0 0 22 22" version="1.1" xmlns="http://www.w3.org/2000/svg" xmlns:xlink="http://www.w3.org/1999/xlink">
    <title>danger zone</title>
    <g id="danger-zone" stroke="none" stroke-width="1" fill="none" fill-rule="evenodd">
        <path d="M5.23809524,0.5 C4.08092719,0.5 3.14285714,1.47094511 3.14285714,2.66866659 C3.14285714,3.86638808 4.08092719,4.83733319 5.23809524,4.83733319 C6.39526329,4.83733319 7.33333333,3.86638808 7.33333333,2.66866659 C7.33333333,1.47094511 6.39526329,0.5 5.23809524,0.5 Z M16.7619048,0.5 C15.6047367,0.5 14.6666667,1.47094511 14.6666667,2.66866659 C14.6666667,3.86638808 15.6047367,4.83733319 16.7619048,4.83733319 C17.9190728,4.83733319 18.8571429,3.86638808 18.8571429,2.66866659 C18.8571429,1.47094511 17.9190728,0.5 16.7619048,0.5 Z M2.35714286,5.92166649 C1.06464239,5.92166649 0,7.02361966 0,8.3614164 L0,11.6144163 C0,12.952213 1.06464239,14.0541662 2.35714286,14.0541662 L3.66666667,14.0541662 L3.66666667,17.4448255 C3.65281101,17.5321307 3.65281101,17.621191 3.66666667,17.7084963 L3.66666667,20.8312493 C3.6626593,21.1245365 3.81153297,21.3973375 4.05628105,21.5451915 C4.30102913,21.6930455 4.60373278,21.6930455 4.84848086,21.5451915 C5.09322893,21.3973375 5.24210261,21.1245365 5.23809524,20.8312493 L5.23809524,18.3914994 L16.7619048,18.3914994 L16.7619048,20.8312493 C16.7578974,21.1245365 16.9067711,21.3973375 17.1515191,21.5451915 C17.3962672,21.6930455 17.6989709,21.6930455 17.943719,21.5451915 C18.188467,21.3973375 18.3373407,21.1245365 18.3333333,20.8312493 L18.3333333,17.7116734 C18.347189,17.6243681 18.347189,17.5353078 18.3333333,17.4480026 L18.3333333,14.0541662 L19.6428571,14.0541662 C20.9353577,14.0541662 22,12.952213 22,11.6144163 L22,8.3614164 C22,7.02361966 20.9353577,5.92166649 19.6428571,5.92166649 L2.35714286,5.92166649 Z M2.35714286,7.54816643 L4.65392505,7.54816643 L1.96326266,12.3185975 C1.72776492,12.1803326 1.57142857,11.9224662 1.57142857,11.6144163 L1.57142857,8.3614164 C1.57142857,7.90247288 1.91373857,7.54816643 2.35714286,7.54816643 Z M8.05050243,7.54816643 L10.6777346,7.54816643 L7.92568805,12.4276663 L5.2984559,12.4276663 L8.05050243,7.54816643 Z M14.074312,7.54816643 L16.7015441,7.54816643 L13.9494976,12.4276663 L11.3222654,12.4276663 L14.074312,7.54816643 Z M20.0367373,7.65723518 C20.2722352,7.79550015 20.4285714,8.05336653 20.4285714,8.3614164 L20.4285714,11.6144163 C20.4285714,12.0733598 20.0862614,12.4276663 19.6428571,12.4276663 L17.6765254,12.4276663 C17.5921762,12.413325 17.5061314,12.413325 17.4217822,12.4276663 L17.346075,12.4276663 L20.0367373,7.65723518 Z M5.23809524,14.0541662 L16.7619048,14.0541662 L16.7619048,16.7649995 L5.23809524,16.7649995 L5.23809524,14.0541662 Z" id="Shape" fill="#000000" fill-rule="nonzero"></path>
    </g>
</svg>