<?xml version="1.0" encoding="UTF-8"?>
<svg width="17px" height="17px" viewBox="0 0 17 17" version="1.1" xmlns="http://www.w3.org/2000/svg" xmlns:xlink="http://www.w3.org/1999/xlink">
    <title>database_search</title>
    <g id="database_search" stroke="none" fill="none" fill-rule="nonzero">
        <path d="M2.3203711,0 C1.46655357,0 0.775,0.691553565 0.775,1.5453711 L0.775,3.09074219 C0.775,3.51726461 1.12116313,3.86342774 1.54768555,3.86342774 L12.3652832,3.86342774 C12.7918056,3.86342774 13.1379688,3.51726461 13.1379688,3.09074219 L13.1379688,1.5453711 C13.1379688,0.691553565 12.4464152,0 11.5925977,0 L2.3203711,0 Z M1.54768555,5.40879883 C1.12116313,5.40879883 0.775,5.75496196 0.775,6.18148438 L0.775,9.27222657 C0.775,9.69874899 1.12116313,10.0449121 1.54768555,10.0449121 L6.71200204,10.0449121 C7.58050059,8.21905617 9.4360323,6.95416993 11.5925977,6.95416993 C12.1296141,6.95416993 12.6480861,7.03601433 13.1379688,7.1820519 L13.1379688,6.18148438 C13.1379688,5.75496196 12.7918056,5.40879883 12.3652832,5.40879883 L1.54768555,5.40879883 Z M11.5941067,8.49954102 C9.50012889,8.49954102 7.72916993,10.2705 7.72916993,12.3644778 C7.72916993,14.5272247 9.42907813,16.2263965 11.5925977,16.2263965 C12.3652832,16.2263965 13.1385722,15.9939874 13.7567207,15.6076446 L14.923295,16.775728 C15.2223243,17.0747573 15.7063276,17.0747573 16.0053569,16.775728 C16.3043862,16.4766979 16.3043862,15.9926954 16.0053569,15.6936661 L14.8372735,14.5270918 C15.2236163,13.9089433 15.4560254,13.1356543 15.4560254,12.3629688 C15.4560254,10.1994492 13.7568536,8.49954102 11.5941067,8.49954102 Z M11.5925977,10.0449121 C12.9061631,10.0449121 13.9106543,11.0494033 13.9106543,12.3629688 C13.9106543,13.6765342 12.9061631,14.6810254 11.5925977,14.6810254 C10.2790322,14.6810254 9.27454102,13.6765342 9.27454102,12.3629688 C9.27454102,11.0494033 10.2790322,10.0449121 11.5925977,10.0449121 Z M1.54768555,11.5902832 C1.12116313,11.5902832 0.775,11.9364463 0.775,12.3629688 L0.775,13.9083399 C0.775,14.7621574 1.46655357,15.453711 2.3203711,15.453711 L7.15720182,15.453711 C6.54523486,14.5774855 6.18379883,13.5127249 6.18379883,12.3629688 C6.18379883,12.1002557 6.20935773,11.8429514 6.24567395,11.5902832 L1.54768555,11.5902832 Z" id="Shape" fill="color(display-p3 0.000 0.000 0.000)"></path>
    </g>
</svg>