<?xml version="1.0" encoding="UTF-8"?>
<svg width="17px" height="17px" viewBox="0 0 17 17" version="1.1" xmlns="http://www.w3.org/2000/svg" xmlns:xlink="http://www.w3.org/1999/xlink">
    <title>Debug</title>
    <g id="Debug" stroke="none" fill="none" fill-rule="nonzero">
        <path d="M11.0369637,0.000601580002 C10.813737,0.00896364149 10.6027115,0.104612623 10.4492851,0.266971543 L8.98425027,1.76363779 C8.82781311,1.73373378 8.66661453,1.71535826 8.50145493,1.71535826 C8.33629532,1.71535826 8.17509674,1.73373378 8.01865958,1.76363779 L6.55362462,0.266971543 C6.39467011,0.0999692702 6.17484921,0.00447333341 5.94430328,0.0022664562 C5.59767984,-0.000999229897 5.28359407,0.205950198 5.14983041,0.525740371 C5.01606674,0.845530544 5.08926428,1.21447506 5.33498195,1.45897721 L6.52199316,2.67096054 C6.16597168,3.11033733 5.94430328,3.66286739 5.94430328,4.2725099 C5.94430328,4.31764874 5.95531199,4.34452483 5.95762178,4.38571713 C5.53771899,4.50498456 5.15129212,4.71591045 4.83886794,5.02833471 C4.54001329,5.32666745 4.27475389,5.64665065 4.02976913,5.97727766 L1.68238388,5.97727766 C1.21186798,5.97727766 0.83,6.35914564 0.83,6.82966154 C0.83,7.30017744 1.21186798,7.68204542 1.68238388,7.68204542 L3.06251323,7.68204542 C2.8347508,8.23866744 2.6780731,8.81061447 2.59969546,9.38681318 L1.68238388,9.38681318 C1.21186798,9.38681318 0.83,9.76868116 0.83,10.2391971 C0.83,10.709713 1.21186798,11.0915809 1.68238388,11.0915809 L2.57305846,11.0915809 C2.62336897,11.6978782 2.72480496,12.2686148 2.87938392,12.7963487 L1.68238388,12.7963487 C1.21186798,12.7963487 0.83,13.1782167 0.83,13.6487326 C0.83,14.1192485 1.21186798,14.5011165 1.68238388,14.5011165 L3.64353269,14.5011165 C4.53105192,15.8953088 5.91156484,16.7830478 7.64907105,17 L7.64907105,8.5344293 C7.64907105,8.0639134 8.03093902,7.68204542 8.50145493,7.68204542 C8.97197083,7.68204542 9.35383881,8.0639134 9.35383881,8.5344293 L9.35383881,17 C11.0913449,16.7830478 12.4718582,15.8953088 13.3593773,14.5011165 L15.320526,14.5011165 C15.7910419,14.5011165 16.1729099,14.1192485 16.1729099,13.6487326 C16.1729099,13.1782167 15.7910419,12.7963487 15.320526,12.7963487 L14.1235258,12.7963487 C14.2781048,12.2686148 14.379541,11.6978782 14.4298513,11.0915809 L15.320526,11.0915809 C15.7910419,11.0915809 16.1729099,10.709713 16.1729099,10.2391971 C16.1729099,9.76868116 15.7910419,9.38681318 15.320526,9.38681318 L14.3982202,9.38681318 C14.3156029,8.81789553 14.1530806,8.24309898 13.9220837,7.68204542 L15.320526,7.68204542 C15.7910419,7.68204542 16.1729099,7.30017744 16.1729099,6.82966154 C16.1729099,6.35914564 15.7910419,5.97727766 15.320526,5.97727766 L12.9648165,5.97727766 C12.72049,5.64224741 12.4571818,5.32094736 12.1640419,5.02833471 C11.8516176,4.71591045 11.4651911,4.50498456 11.0452881,4.38571713 C11.047598,4.34452483 11.0586066,4.31764874 11.0586066,4.2725099 C11.0586066,3.66286739 10.8369382,3.11033733 10.480917,2.67096054 L11.6679281,1.45897721 C11.9180611,1.21192005 11.9908673,0.836644473 11.8512651,0.513975874 C11.711663,0.191307275 11.3882905,-0.0125621026 11.0369637,0.000601580002 Z" id="Path" fill="color(display-p3 0.000 0.000 0.000)"></path>
    </g>
</svg>