<?xml version="1.0" encoding="UTF-8"?>
<svg width="19px" height="19px" viewBox="0 0 19 19" version="1.1" xmlns="http://www.w3.org/2000/svg" xmlns:xlink="http://www.w3.org/1999/xlink">
    <title>Trash delete</title>
    <g id="Trash-delete" stroke="none" stroke-width="1" fill="none" fill-rule="evenodd">
        <path d="M8.60252169,0 C7.11153514,0 5.88823597,1.22329908 5.88823597,2.71428571 L1.13823597,2.71428571 C0.893518746,2.7108248 0.665895049,2.83939752 0.54252645,3.05077086 C0.41915785,3.2621442 0.41915785,3.52357008 0.54252645,3.73494342 C0.665895049,3.94631676 0.893518746,4.07488948 1.13823597,4.07142857 L2.26918836,4.07142857 L2.26918836,15.6071429 C2.26918836,16.9792143 3.38521217,18.0952381 4.75728359,18.0952381 L9.34117474,18.0952381 C8.32512757,17.0384762 7.69775978,15.6053333 7.69775978,14.0238095 C7.69775978,12.1423571 8.58487883,10.4715234 9.95966455,9.39485671 L9.95966455,7.01190476 C9.95966455,6.63733333 10.2636645,6.33333333 10.638236,6.33333333 C11.0128074,6.33333333 11.3168074,6.63733333 11.3168074,7.01190476 L11.3168074,8.5952381 C12.0134741,8.30480952 12.7770931,8.14285714 13.5787122,8.14285714 C14.0464741,8.14285714 14.4993074,8.20317219 14.935855,8.30631505 L14.935855,4.07142857 L16.0668074,4.07142857 C16.3115246,4.07488948 16.5391483,3.94631676 16.6625169,3.73494342 C16.7858855,3.52357008 16.7858855,3.2621442 16.6625169,3.05077086 C16.5391483,2.83939752 16.3115246,2.7108248 16.0668074,2.71428571 L11.3168074,2.71428571 C11.3168074,1.22329908 10.0935082,0 8.60252169,0 Z M8.60252169,1.35714286 C9.35986847,1.35714286 9.95966455,1.95693902 9.95966455,2.71428571 L7.24537883,2.71428571 C7.24537883,1.95693902 7.8451749,1.35714286 8.60252169,1.35714286 Z M6.5668074,6.33333333 C6.94137883,6.33333333 7.24537883,6.63733333 7.24537883,7.01190476 L7.24537883,13.797619 C7.24537883,14.1721905 6.94137883,14.4761905 6.5668074,14.4761905 C6.19223597,14.4761905 5.88823597,14.1721905 5.88823597,13.797619 L5.88823597,7.01190476 C5.88823597,6.63733333 6.19223597,6.33333333 6.5668074,6.33333333 Z M13.5787122,9.04761905 C10.8304979,9.04761905 8.60252169,11.2755952 8.60252169,14.0238095 C8.60252169,16.7720238 10.8304979,19 13.5787122,19 C16.3269265,19 18.5549026,16.7720238 18.5549026,14.0238095 C18.5549026,11.2755952 16.3269265,9.04761905 13.5787122,9.04761905 Z M11.3168074,11.3095238 C11.4325038,11.3095238 11.5482143,11.3536169 11.6366548,11.4420574 L13.5787122,13.3841148 L15.5207696,11.4420574 C15.6976505,11.2651765 15.9835833,11.2651765 16.1604643,11.4420574 C16.3373452,11.6189384 16.3373452,11.9048712 16.1604643,12.0817521 L14.2184069,14.0238095 L16.1604643,15.9658669 C16.3373452,16.1427479 16.3373452,16.4286807 16.1604643,16.6055616 C16.07225,16.6937759 15.9564265,16.7380952 15.8406169,16.7380952 C15.7248074,16.7380952 15.6089839,16.6937759 15.5207696,16.6055616 L13.5787122,14.6635042 L11.6366548,16.6055616 C11.5484405,16.6937759 11.4326169,16.7380952 11.3168074,16.7380952 C11.2009979,16.7380952 11.0851743,16.6937759 10.99696,16.6055616 C10.8200791,16.4286807 10.8200791,16.1427479 10.99696,15.9658669 L12.9390175,14.0238095 L10.99696,12.0817521 C10.8200791,11.9048712 10.8200791,11.6189384 10.99696,11.4420574 C11.0854005,11.3536169 11.201111,11.3095238 11.3168074,11.3095238 Z" id="Shape" fill="#000000" fill-rule="nonzero"></path>
    </g>
</svg>