<?xml version="1.0" encoding="UTF-8"?>
<svg width="17px" height="17px" viewBox="0 0 17 17" version="1.1" xmlns="http://www.w3.org/2000/svg" xmlns:xlink="http://www.w3.org/1999/xlink">
    <title>Discover</title>
    <g id="Discover" stroke="none" fill="none" fill-rule="evenodd" stroke-width="1">
        <g id="hot-balloon" transform="translate(2.81, 0)" fill="color(display-p3 0.000 0.000 0.000)">
            <path d="M8.39954288,13.337265 L7.15804061,13.337265 L7.15804061,12.2606009 C7.25848227,12.2142398 7.35122242,12.1524242 7.42849258,12.0699974 C10.0506112,9.25727273 11.379697,6.87983818 11.379697,5.00469439 C11.379697,1.82106318 9.51227273,0.100457121 5.98863636,0.0102978788 C5.88817924,0.00257833333 5.79031591,0 5.69243455,0 C5.68985621,0 5.68985621,0 5.68985621,0 C5.59197742,0 5.49151773,0.00257833333 5.39106061,0.0102978788 C1.86484591,0.10302 0,1.82106318 0,5.00469439 C0,6.87983818 1.32909864,9.25727273 3.95379818,12.0699948 C4.02849,12.1498433 4.11863379,12.2142373 4.21909348,12.2605983 L4.21909348,13.3372624 L2.98015409,13.3372624 C2.83849,13.3372624 2.72257833,13.4505958 2.72257833,13.5948382 C2.72257833,13.7365177 2.83849,13.8524139 2.98015409,13.8524139 L3.32787621,13.8524139 L3.32787621,15.9362121 C3.32787621,16.5234771 3.80440167,17 4.39166409,17 L6.98803288,17 C7.572735,17 8.05182076,16.5234745 8.05182076,15.9362121 L8.05182076,13.8524165 L8.39954288,13.8524165 C8.54122242,13.8524165 8.65711864,13.7365203 8.65711864,13.5948408 C8.65711864,13.4505983 8.54122242,13.337265 8.39954288,13.337265 Z M6.62485879,0.618171515 C8.26819212,0.991658939 9.07182848,2.43409348 9.07182848,5.00469439 C9.07182848,7.3537853 7.47743455,10.236058 6.47030303,11.822717 L6.34925015,11.822717 C6.72530045,10.1665074 7.27393939,7.34606576 7.27393939,5.00469439 C7.27393682,2.80500258 7.0627247,1.36514894 6.62485879,0.618171515 Z M6.64288909,12.3378685 L6.64288909,13.3372624 L4.734245,13.3372624 L4.734245,12.3378685 L6.64288909,12.3378685 Z M2.30530818,5.00469439 C2.30530818,2.43409348 3.1115203,0.991658939 4.75485621,0.618171515 C4.31697485,1.36514636 4.10576015,2.80500258 4.10576015,5.00469439 C4.10576015,7.34862864 4.65439652,10.1665074 5.03046485,11.822717 L4.91197485,11.822717 C3.90228045,10.2386364 2.30530818,7.3537853 2.30530818,5.00469439 Z" id="Shape" fill-rule="nonzero"></path>
        </g>
    </g>
</svg>