<?xml version="1.0" encoding="UTF-8"?>
<svg width="27px" height="27px" viewBox="0 0 27 27" version="1.1" xmlns="http://www.w3.org/2000/svg" xmlns:xlink="http://www.w3.org/1999/xlink">
    <title>Document</title>
    <g id="Document" stroke="none" stroke-width="1" fill="none" fill-rule="evenodd">
        <path d="M6.0375,0 C4.360125,0 3,1.360125 3,3.0375 L3,23.9625 C3,25.639875 4.360125,27 6.0375,27 L21.5625,27 C23.239875,27 24.6,25.639875 24.6,23.9625 L24.6,10.8 L16.8375,10.8 C15.160125,10.8 13.8,9.439875 13.8,7.7625 L13.8,0 L6.0375,0 Z M15.825,0.593261685 L15.825,7.7625 C15.825,8.320725 16.279275,8.775 16.8375,8.775 L24.0067384,8.775 L15.825,0.593261685 Z M8.7375,13.5 C9.669675,13.5 10.425,14.255325 10.425,15.1875 C10.425,16.119675 9.669675,16.875 8.7375,16.875 C7.805325,16.875 7.05,16.119675 7.05,15.1875 C7.05,14.255325 7.805325,13.5 8.7375,13.5 Z M13.4625,14.175 L19.5375,14.175 C20.0964,14.175 20.55,14.6286 20.55,15.1875 C20.55,15.7464 20.0964,16.2 19.5375,16.2 L13.4625,16.2 C12.9036,16.2 12.45,15.7464 12.45,15.1875 C12.45,14.6286 12.9036,14.175 13.4625,14.175 Z M8.7375,18.9 C9.669675,18.9 10.425,19.655325 10.425,20.5875 C10.425,21.519675 9.669675,22.275 8.7375,22.275 C7.805325,22.275 7.05,21.519675 7.05,20.5875 C7.05,19.655325 7.805325,18.9 8.7375,18.9 Z M13.4625,19.575 L19.5375,19.575 C20.0964,19.575 20.55,20.0286 20.55,20.5875 C20.55,21.1464 20.0964,21.6 19.5375,21.6 L13.4625,21.6 C12.9036,21.6 12.45,21.1464 12.45,20.5875 C12.45,20.0286 12.9036,19.575 13.4625,19.575 Z" id="Shape" fill="#000000" fill-rule="nonzero"></path>
    </g>
</svg>