<?xml version="1.0" encoding="UTF-8"?>
<svg width="27px" height="27px" viewBox="0 0 27 27" version="1.1" xmlns="http://www.w3.org/2000/svg" xmlns:xlink="http://www.w3.org/1999/xlink">
    <title>Document Sparkles</title>
    <g id="Document-Sparkles" stroke="none" fill="none" fill-rule="nonzero">
        <path d="M6.0375,0 C4.360125,0 3,1.360125 3,3.0375 L3,23.9625 C3,25.639875 4.360125,27 6.0375,27 L21.5625,27 C23.239875,27 24.6,25.639875 24.6,23.9625 L24.6,10.8 L16.8375,10.8 C15.160125,10.8 13.8,9.439875 13.8,7.7625 L13.8,0 L6.0375,0 Z M12.3300838,15.7382828 L13.0632421,17.9377579 L15.2627172,18.6709162 C15.5794276,18.7759031 15.5794276,19.2255969 15.2627172,19.3305838 L13.0632421,20.0637421 L12.3300838,22.2632172 C12.2250969,22.5799276 11.7754031,22.5799276 11.6704162,22.2632172 L10.9372579,20.0637421 L8.73778281,19.3305838 C8.4210724,19.2255969 8.4210724,18.7759031 8.73778281,18.6709162 L10.9372579,17.9377579 L11.6704162,15.7382828 C11.7754031,15.4215724 12.2250969,15.4215724 12.3300838,15.7382828 Z M19.689,13.636 L20.108,14.893 L21.365,15.312 C21.546,15.372 21.546,15.629 21.365,15.689 L20.108,16.108 L19.689,17.365 C19.629,17.546 19.372,17.546 19.312,17.365 L18.893,16.108 L17.636,15.689 C17.455,15.629 17.455,15.372 17.636,15.312 L18.893,14.893 L19.312,13.636 C19.372,13.455 19.629,13.455 19.689,13.636 Z M8.783,5.704 L9.411,7.589 L11.296,8.217 C11.568,8.308 11.568,8.692 11.296,8.783 L9.411,9.411 L8.783,11.296 C8.692,11.568 8.308,11.568 8.217,11.296 L7.589,9.411 L5.704,8.783 C5.432,8.692 5.432,8.308 5.704,8.217 L7.589,7.589 L8.217,5.704 C8.308,5.432 8.692,5.432 8.783,5.704 Z M15.825,0.593261685 L24.0067384,8.775 L16.8375,8.775 C16.279275,8.775 15.825,8.320725 15.825,7.7625 L15.825,0.593261685 Z" id="Shape" fill="color(display-p3 0.000 0.000 0.000)"></path>
    </g>
</svg>