<?xml version="1.0" encoding="UTF-8"?>
<svg width="20px" height="20px" viewBox="0 0 20 20" version="1.1" xmlns="http://www.w3.org/2000/svg" xmlns:xlink="http://www.w3.org/1999/xlink">
    <title>Donate</title>
    <g id="Donate" stroke="none" fill="none" fill-rule="nonzero">
        <path d="M12.25,1.365 C10.8027273,1.365 10,2.40954545 10,2.40954545 C10,2.40954545 9.19727273,1.365 7.75,1.365 C6.23090909,1.365 5,2.59590909 5,4.115 C5,6.365 10,10.365 10,10.365 C10,10.365 15,6.365 15,4.115 C15,2.59590909 13.7690909,1.365 12.25,1.365 Z M20,12.2740909 L20,5.45590909 C20,4.70318182 19.3890909,4.09227273 18.6363636,4.09227273 L18.6363636,4.09227273 C17.8836364,4.09227273 17.2727273,4.70318182 17.2727273,5.45590909 L17.2727273,10.8977273 L15.1427273,13.1186364 C14.9690909,13.2995455 14.6772727,13.2959091 14.5,13.1186364 C14.3227273,12.9413636 14.3227273,12.6531818 14.5,12.4759091 L15.7854545,11.1904545 C16.4954545,10.4804545 16.4954545,9.32954545 15.7854545,8.61954545 L15.1427273,7.97681818 L11.0663636,12.0531818 C10.3836364,12.7359091 10.0009091,13.6604545 10.0009091,14.6259091 L10,18.6377273 L15.4545455,18.6377273 L15.4545455,16.9186364 L20,12.2740909 Z M0,12.2740909 L0,5.45590909 C0,4.70318182 0.610909091,4.09227273 1.36363636,4.09227273 L1.36363636,4.09227273 C2.11636364,4.09227273 2.72727273,4.70318182 2.72727273,5.45590909 L2.72727273,10.8977273 L4.85727273,13.1186364 C5.03090909,13.2995455 5.32272727,13.2959091 5.5,13.1186364 C5.67727273,12.9413636 5.67727273,12.6531818 5.5,12.4759091 L4.21454545,11.1904545 C3.50454545,10.4804545 3.50454545,9.32954545 4.21454545,8.61954545 L4.85727273,7.97681818 L8.93363636,12.0531818 C9.61636364,12.7359091 9.99909091,13.6604545 9.99909091,14.6259091 L10,18.6377273 L4.54545455,18.6377273 L4.54545455,16.9186364 L0,12.2740909 Z" id="Shape" fill="color(display-p3 0.000 0.000 0.000)"></path>
    </g>
</svg>