<?xml version="1.0" encoding="UTF-8"?>
<svg width="17px" height="17px" viewBox="0 0 17 17" version="1.1" xmlns="http://www.w3.org/2000/svg" xmlns:xlink="http://www.w3.org/1999/xlink">
    <title>download</title>
    <g id="download" stroke="none" fill="none" fill-rule="nonzero">
        <path d="M7.65120889,0 C7.14193422,0 6.80241778,0.339516444 6.80241778,0.84879111 L6.80241778,7.63911999 L3.83164889,7.63911999 C3.57701156,7.63911999 3.40725334,7.80887821 3.40725334,8.06351555 C3.40725334,8.14839466 3.49180091,8.31848476 3.49180091,8.40336387 L7.82030421,12.5627713 C7.99006243,12.7325296 8.16081543,12.8164139 8.41545277,12.8164139 C8.6700901,12.8164139 8.83918457,12.7325296 9.00894279,12.5627713 L13.3374464,8.40336387 C13.5072046,8.31848476 13.5927467,8.14839466 13.5927467,8.06351555 C13.5927467,7.80887821 13.4229884,7.63911999 13.1683511,7.63911999 L10.1975822,7.63911999 L10.1975822,0.84879111 C10.1975822,0.339516444 9.85806578,0 9.34879111,0 L7.65120889,0 Z M0.860880008,15.27824 C0.554775448,15.2739109 0.270052334,15.4347361 0.115736715,15.6991324 C-0.0385789049,15.9635288 -0.0385789049,16.2905334 0.115736715,16.5549297 C0.270052334,16.8193261 0.554775448,16.9801513 0.860880008,16.9758222 L16.13912,16.9758222 C16.4452246,16.9801513 16.7299477,16.8193261 16.8842633,16.5549297 C17.0385789,16.2905334 17.0385789,15.9635288 16.8842633,15.6991324 C16.7299477,15.4347361 16.4452246,15.2739109 16.13912,15.27824 L0.860880008,15.27824 Z" id="Shape" fill="color(display-p3 0.000 0.000 0.000)"></path>
    </g>
</svg>