<?xml version="1.0" encoding="UTF-8"?>
<svg width="18px" height="18px" viewBox="0 0 18 18" version="1.1" xmlns="http://www.w3.org/2000/svg" xmlns:xlink="http://www.w3.org/1999/xlink">
    <title>Drag start</title>
    <g id="Drag-start" stroke="none" stroke-width="1" fill="none" fill-rule="evenodd">
        <path d="M0.769314714,1.24342555 C0.409248602,1.23833332 0.0743331573,1.42750953 -0.107185946,1.73851492 C-0.288705049,2.04952031 -0.288705049,2.43417079 -0.107185946,2.74517618 C0.0743331573,3.05618157 0.409248602,3.24535778 0.769314714,3.24026555 L16.7440347,3.24026555 C17.1041009,3.24535778 17.4390163,3.05618157 17.6205354,2.74517618 C17.8020545,2.43417079 17.8020545,2.04952031 17.6205354,1.73851492 C17.4390163,1.42750953 17.1041009,1.23833332 16.7440347,1.24342555 L0.769314714,1.24342555 Z M0.769314714,5.23710555 C0.409248602,5.23201332 0.0743331573,5.42118954 -0.107185946,5.73219492 C-0.288705049,6.04320031 -0.288705049,6.4278508 -0.107185946,6.73885618 C0.0743331573,7.04986157 0.409248602,7.23903779 0.769314714,7.23394556 L16.7440347,7.23394556 C17.1041009,7.23903779 17.4390163,7.04986157 17.6205354,6.73885618 C17.8020545,6.4278508 17.8020545,6.04320031 17.6205354,5.73219492 C17.4390163,5.42118954 17.1041009,5.23201332 16.7440347,5.23710555 L0.769314714,5.23710555 Z M0.769314714,9.23078556 C0.409248602,9.22569333 0.0743331573,9.41486954 -0.107185946,9.72587493 C-0.288705049,10.0368803 -0.288705049,10.4215308 -0.107185946,10.7325362 C0.0743331573,11.0435416 0.409248602,11.2327178 0.769314714,11.2276256 L16.7440347,11.2276256 C17.1041009,11.2327178 17.4390163,11.0435416 17.6205354,10.7325362 C17.8020545,10.4215308 17.8020545,10.0368803 17.6205354,9.72587493 C17.4390163,9.41486954 17.1041009,9.22569333 16.7440347,9.23078556 L0.769314714,9.23078556 Z M6.35227658,13.2244656 C5.82710766,13.2244656 5.56355593,13.8612239 5.93496817,14.2326361 L8.25551481,16.5531819 C8.53207715,16.8297442 8.9812723,16.8297442 9.25783464,16.5531819 L11.5783814,14.2326361 C11.9497936,13.8612239 11.6852902,13.2244656 11.1591229,13.2244656 L6.35227658,13.2244656 Z" id="Shape" fill="#000000" fill-rule="nonzero" transform="translate(8.7567, 9.002) rotate(90) translate(-8.7567, -9.002)"></path>
    </g>
</svg>