<?xml version="1.0" encoding="UTF-8"?>
<svg width="17px" height="17px" viewBox="0 0 17 17" version="1.1" xmlns="http://www.w3.org/2000/svg" xmlns:xlink="http://www.w3.org/1999/xlink">
    <title>Environment</title>
    <g id="Environment" stroke="none" fill="none" fill-rule="nonzero">
        <path d="M12.7640747,0.370967742 L12.4372496,0 L11.9542275,0.100169779 C11.6503226,0.164685908 4.48224109,1.69439728 1.6452292,5.94482173 C0.953378608,7.10780985 0.86,8.1663837 0.86,9.05008489 C0.86,11.1816638 2.24709677,13.0152801 3.87697793,13.917657 C3.07137521,14.5628183 2.23181664,15.0891341 1.39395586,15.4235993 L2.02383701,17 C6.56797963,15.1825127 11.0272326,8.91680815 11.0408149,4.33870968 L11.0467572,4.32767402 C11.0467572,11.1188455 8.50006791,14.5144312 8.50006791,14.5144312 C8.50770798,14.5203735 8.51365025,14.5237691 8.52044143,14.5297114 L7.85575552,15.2300509 C8.86679117,16.188455 9.99073005,16.2054329 10.4601698,16.2113752 C13.3336842,16.0967742 16.2038031,13.7860781 16.138438,8.8803056 C16.1087267,6.58573854 15.2055008,3.14516129 12.7640747,0.370967742 Z" id="Path" fill="color(display-p3 0.000 0.000 0.000)"></path>
    </g>
</svg>