<?xml version="1.0" encoding="UTF-8"?>
<svg width="17px" height="17px" viewBox="0 0 17 17" version="1.1" xmlns="http://www.w3.org/2000/svg" xmlns:xlink="http://www.w3.org/1999/xlink">
    <title>expand</title>
    <g id="expand" stroke="none" fill="none" fill-rule="nonzero">
        <path d="M6.62481576,-3.87006749 C5.59114909,-3.87006749 4.97514909,-2.70591143 5.54837131,-1.83652818 L8.87337131,3.20447979 L5.54837131,8.24548775 C4.97514909,9.11487101 5.59114909,10.2790271 6.62481576,10.2790271 C7.0572602,10.2790271 7.46170465,10.0605022 7.70203798,9.696556 L11.4089269,4.07622122 C11.7573713,3.54798836 11.7573713,2.86018515 11.4089269,2.33195229 L7.70203798,-3.28838249 C7.46170465,-3.65154259 7.05803798,-3.87006749 6.62481576,-3.87006749 Z" id="Path" fill="color(display-p3 0.000 0.000 0.000)" transform="translate(8.4995, 3.2045) rotate(90) translate(-8.4995, -3.2045)"></path>
        <path d="M6.62481576,6.74616565 L6.62481576,6.74616565 C5.59114909,6.74616565 4.97514909,7.91032171 5.54837131,8.77970496 L8.87337131,13.8207129 L5.54837131,18.8617209 C4.97514909,19.7311041 5.59114909,20.8952602 6.62481576,20.8952602 L6.62481576,20.8952602 C7.0572602,20.8952602 7.46170465,20.6767353 7.70203798,20.3127891 L11.4089269,14.6924544 C11.7573713,14.1642215 11.7573713,13.4764183 11.4089269,12.9481854 L7.70203798,7.32785065 C7.46170465,6.96469055 7.05803798,6.74616565 6.62481576,6.74616565 Z" id="Path" fill="color(display-p3 0.000 0.000 0.000)" transform="translate(8.4995, 13.8207) rotate(270) translate(-8.4995, -13.8207)"></path>
    </g>
</svg>