<?xml version="1.0" encoding="UTF-8"?>
<svg width="16px" height="16px" viewBox="0 0 16 16" version="1.1" xmlns="http://www.w3.org/2000/svg" xmlns:xlink="http://www.w3.org/1999/xlink">
    <title>External link</title>
    <g id="External-link" stroke="none" fill="none" fill-rule="nonzero">
        <path d="M7.18644068,-7.10542736e-15 C7.86041528,-7.10542736e-15 8.40677964,0.54636438 8.40677964,1.22033898 C8.40677964,1.89431359 7.86041528,2.44067796 7.18644068,2.44067797 L2.44067797,2.44067797 L2.44067797,13.559322 L13.559322,13.559322 L13.559322,8.81355932 C13.5608134,8.14020343 14.1063051,7.59471172 14.779661,7.59322034 C15.4530169,7.59471172 15.9985086,8.14020343 16,8.81355932 L16,14.779661 C15.9985086,15.4530169 15.4530169,15.9985086 14.779661,16 L1.22033898,16 C0.546983091,15.9985086 0.00149138066,15.4530169 0,14.779661 L0,1.22033898 C0.00149138066,0.546983091 0.546983091,0.00149138066 1.22033898,-7.10542736e-15 Z M15.5932203,-7.10542736e-15 C15.8178785,-7.10542736e-15 16,0.182121458 16,0.406779661 L16,4.98169492 C16,5.65566953 15.4536356,6.2020339 14.779661,6.2020339 C14.1056864,6.2020339 13.559322,5.65566953 13.559322,4.98169492 L13.559322,4.16813559 L10.2562712,7.45762712 C10.0974549,7.6162459 9.84017223,7.6162459 9.68135593,7.45762712 L8.54237288,6.31864407 C8.46552622,6.24272979 8.42227497,6.13920674 8.42227497,6.03118644 C8.42227497,5.92316614 8.46552622,5.81964309 8.54237288,5.74372881 L11.8318644,2.44067797 L11.0183051,2.44067797 C10.3443305,2.44067796 9.79796612,1.89431359 9.79796612,1.22033898 C9.79796612,0.54636438 10.3443305,-7.10542736e-15 11.0183051,-7.10542736e-15 Z" id="Path-2" fill="color(display-p3 0.000 0.000 0.000)"></path>
    </g>
</svg>