<?xml version="1.0" encoding="UTF-8"?>
<svg width="17px" height="17px" viewBox="0 0 17 17" version="1.1" xmlns="http://www.w3.org/2000/svg" xmlns:xlink="http://www.w3.org/1999/xlink">
    <title>Eye checkbox</title>
    <g id="Eye-checkbox" stroke="none" fill="none" fill-rule="nonzero">
        <path d="M8.49816434,1.42 C3.44583116,1.42 0.182310009,6.63825527 0.123284288,6.73327427 C0.123242717,6.73334112 0.122216195,6.73431892 0.122177814,6.73438067 C-0.0275315675,6.92486614 -0.039538776,7.18946961 0.092303096,7.39273135 L0.092303096,7.39383775 C0.0917365771,7.39383775 2.8330321,12.7502645 8.49816434,12.7502645 C8.890758,12.7502645 9.26635627,12.7198586 9.63119078,12.6717049 L9.63119078,10.8836476 C9.2720214,10.9907186 8.89189103,11.0507248 8.49816434,11.0507248 C6.30802422,11.0507248 4.53257177,9.27527235 4.53257177,7.08513223 C4.53257177,4.89499211 6.30802422,3.11953967 8.49816434,3.11953967 C10.6883045,3.11953967 12.4637569,4.89499211 12.4637569,7.08513223 C12.4637569,7.47885892 12.4037507,7.85898929 12.2966797,8.21815868 L15.8628362,8.21815868 C16.0322237,8.21815868 16.1960259,8.24000513 16.3552161,8.27569489 C16.7174532,7.75371358 16.8992099,7.40218476 16.9018124,7.39715695 C16.9018311,7.39712126 16.9040258,7.39383775 16.9040258,7.39383775 C17.0349172,7.19179483 17.0238233,6.92909485 16.8763635,6.73880684 C16.8362663,6.67410933 13.565454,1.42 8.49816434,1.42 Z M8.49816434,5.38559256 C7.55953449,5.38559256 6.79862467,6.14650239 6.79862467,7.08513223 C6.79862467,8.02376207 7.55953449,8.7846719 8.49816434,8.7846719 C9.43679418,8.7846719 10.197704,8.02376207 10.197704,7.08513223 C10.197704,6.14650239 9.43679418,5.38559256 8.49816434,5.38559256 Z M11.8972437,9.35118512 C11.278009,9.35118512 10.7642172,9.86497693 10.7642172,10.4842116 L10.7642172,14.4498041 C10.7642172,15.0690388 11.278009,15.5828306 11.8972437,15.5828306 L15.8628362,15.5828306 C16.4820709,15.5828306 16.9958627,15.0690388 16.9958627,14.4498041 L16.9958627,10.5561321 C17.0064847,10.4783657 17.0008329,10.3992405 16.9792655,10.3237733 C16.8993475,9.77920229 16.4273157,9.35118512 15.8628362,9.35118512 L11.8972437,9.35118512 Z M11.8972437,10.4842116 L15.6282646,10.4842116 L13.5967833,12.5156929 L13.4308125,12.3497221 C13.2887216,12.2017257 13.0777235,12.1421088 12.8791935,12.1938636 C12.6806634,12.2456185 12.5256241,12.4006578 12.4738693,12.5991878 C12.4221144,12.7977179 12.4817313,13.008716 12.6297277,13.1508069 L13.1962409,13.7173201 C13.4174812,13.9384688 13.7760855,13.9384688 13.9973258,13.7173201 L15.8628362,11.8518096 L15.8628362,14.4498041 L11.8972437,14.4498041 L11.8972437,10.4842116 Z" id="Shape" fill="color(display-p3 0.000 0.000 0.000)"></path>
    </g>
</svg>