<?xml version="1.0" encoding="UTF-8"?>
<svg width="17px" height="17px" viewBox="0 0 17 17" version="1.1" xmlns="http://www.w3.org/2000/svg" xmlns:xlink="http://www.w3.org/1999/xlink">
    <title>visually_impaired</title>
    <g id="visually_impaired" stroke="none" fill="none" fill-rule="nonzero">
        <path d="M0.972573108,0.12 L0.166917586,0.925655522 L16.1197879,16.8785255 L16.9254431,16.0728703 L13.4925051,12.6399317 C15.8418313,11.0492249 17,8.80972962 17,8.80972962 L16.9799695,8.16208924 C16.9799695,8.16208924 13.6738887,2.80180922 8.54618043,2.80180922 C7.10464319,2.80180922 5.81102153,3.22922775 4.69149696,3.83892383 L0.972573108,0.12 Z M8.54618043,4.51104531 C10.748816,4.51104531 12.534398,6.29662727 12.534398,8.49926284 C12.534398,9.39487748 12.2324574,10.215819 11.7331935,10.8806207 L10.0851606,9.23258722 C10.192548,9.01079105 10.2554165,8.7629672 10.2554165,8.49926284 C10.2554165,7.55519477 9.49024849,6.79002675 8.54618043,6.79002675 C8.28247606,6.79002675 8.03465221,6.85289531 7.81285604,6.96028262 L6.16482257,5.31224972 C6.82962425,4.81298556 7.65056579,4.51104531 8.54618043,4.51104531 Z M2.79865155,5.14421934 C2.49554701,5.40060475 2.21320258,5.65958985 1.95738691,5.91426603 L10.0884988,14.0453778 C10.5368884,13.9639043 10.9698151,13.860059 11.3737646,13.7193319 L2.79865155,5.14421934 Z M1.23519017,6.68876363 C0.938922523,7.0300411 0.696941014,7.33622568 0.516331734,7.58121618 L6.97604254,14.0409264 C7.47456973,14.132656 7.99181819,14.1967165 8.54618043,14.1967165 C8.60999191,14.1967165 8.66877367,14.1867282 8.73201541,14.1855888 L1.23519017,6.68876363 Z M0.012240623,8.42359382 C0.00654316939,8.45037128 0,8.47704277 0,8.49926284 C0,8.60922369 0.0923610673,8.80972962 0.0923610673,8.80972962 C0.0917913163,8.80972962 1.71497804,11.9626201 5.03089604,13.4422488 L0.012240623,8.42359382 Z" id="Shape" fill="color(display-p3 0.000 0.000 0.000)"></path>
    </g>
</svg>