<?xml version="1.0" encoding="UTF-8"?>
<svg width="22px" height="22px" viewBox="0 0 22 22" version="1.1" xmlns="http://www.w3.org/2000/svg" xmlns:xlink="http://www.w3.org/1999/xlink">
    <title>Factory</title>
    <g id="Factory" stroke="none" fill="none" fill-rule="nonzero">
        <path d="M21.5608283,21 L21.5608283,11.1338513 C21.5608283,10.5815666 21.1131131,10.1338513 20.5608283,10.1338513 L1.44,10.1338513 C0.88771525,10.1338513 0.44,10.5815666 0.44,11.1338513 L0.44,21 C0.44,21.5522847 0.88771525,22 1.44,22 L20.5608283,22 C21.1131131,22 21.5608283,21.5522847 21.5608283,21 Z M7.5413631,17.3268449 C7.5413631,17.6017364 7.35810212,17.7849974 7.08321064,17.7849974 L3.41799098,17.7849974 C3.18891475,17.7849974 2.95983852,17.6017364 2.95983852,17.3268449 L2.95983852,14.8528217 C2.95983852,14.5779302 3.18891475,14.3946692 3.41799098,14.3946692 L7.08321064,14.3946692 C7.35810212,14.3946692 7.5413631,14.5779302 7.5413631,14.8528217 L7.5413631,17.3268449 Z M13.3140841,17.3268449 C13.3140841,17.6017364 13.1308231,17.7849974 12.8559316,17.7849974 L9.19071195,17.7849974 C8.96163572,17.7849974 8.73255949,17.6017364 8.73255949,17.3268449 L8.73255949,14.8528217 C8.73255949,14.5779302 8.96163572,14.3946692 9.19071195,14.3946692 L12.8559316,14.3946692 C13.1308231,14.3946692 13.3140841,14.5779302 13.3140841,14.8528217 L13.3140841,17.3268449 Z M19.0409898,17.3268449 C19.0409898,17.6017364 18.8577288,17.7849974 18.5828373,17.7849974 L14.4594652,17.7849974 C14.6427262,17.7849974 14.4594652,17.6017364 14.4594652,17.3268449 L14.4594652,14.8528217 C14.4594652,14.5779302 14.6427262,14.3946692 14.4594652,14.3946692 L18.5828373,14.3946692 C18.8577288,14.3946692 19.0409898,14.5779302 19.0409898,14.8528217 L19.0409898,17.3268449 Z M2.73076229,2.66596626 L1.35630492,9.21754642 L7.49554786,9.21754642 L6.12109048,2.66596626 C6.07527524,2.43689004 5.89201425,2.2994443 5.66293802,2.2994443 L3.18891475,2.2994443 C2.95983852,2.34525954 2.77657754,2.48270528 2.73076229,2.66596626 Z M8.82418998,0.00868200678 C8.45766802,-0.037133239 8.09114605,0.100312498 7.81625458,0.375203973 L7.58717835,0.604280202 C7.44973261,0.74172594 7.17484114,0.74172594 7.0373954,0.604280202 C6.53342769,0.100312498 5.70875327,0.100312498 5.20478557,0.604280202 L4.60918737,1.1998784 C4.42592639,1.38313938 4.42592639,1.65803086 4.60918737,1.84129184 C4.70081786,1.93292233 4.8382636,1.97873758 4.92989409,1.97873758 C5.02152458,1.97873758 5.15897032,1.93292233 5.25060081,1.84129184 L5.84619901,1.24569364 C5.98364474,1.10824791 6.25853622,1.10824791 6.39598196,1.24569364 C6.89994966,1.74966135 7.72462409,1.74966135 8.22859179,1.24569364 L8.45766802,1.01661741 C8.54929851,0.970802169 8.640929,0.924986923 8.77837474,0.924986923 C9.00745097,0.924986923 9.2365272,0.74172594 9.28234244,0.512649711 C9.32815769,0.283573482 9.09908146,0.00868200678 8.82418998,0.00868200678 Z M10.1515192,4.38586452 L9.00928358,9.21754642 L14.1112694,9.21754642 L12.9690337,4.38586452 C12.9309592,4.2169246 12.7786611,4.11556064 12.5882885,4.11556064 L10.5322644,4.11556064 C10.3418918,4.14934863 10.1895937,4.25071258 10.1515192,4.38586452 Z M15.116439,1.98619949 C14.7928979,1.94682274 14.4693569,2.06495297 14.2267012,2.30121344 L14.024488,2.49809716 C13.9031601,2.6162274 13.6605044,2.6162274 13.5391765,2.49809716 C13.0943076,2.06495297 12.3663403,2.06495297 11.9214714,2.49809716 L11.3957172,3.00999484 C11.2339467,3.16750182 11.2339467,3.40376229 11.3957172,3.56126927 C11.4766025,3.64002276 11.5979304,3.6793995 11.6788156,3.6793995 C11.7597009,3.6793995 11.8810287,3.64002276 11.961914,3.56126927 L12.4876682,3.04937159 C12.608996,2.93124135 12.8516518,2.93124135 12.9729797,3.04937159 C13.4178486,3.48251578 14.1458159,3.48251578 14.5906848,3.04937159 L14.7928979,2.85248787 C14.8737832,2.81311112 14.9546685,2.77373438 15.0759963,2.77373438 C15.2782095,2.77373438 15.4804226,2.6162274 15.5208652,2.41934368 C15.5613079,2.22245995 15.3590947,1.98619949 15.116439,1.98619949 Z" id="Shape" fill="color(display-p3 0.000 0.000 0.000)"></path>
    </g>
</svg>