<?xml version="1.0" encoding="UTF-8"?>
<svg width="17px" height="17px" viewBox="0 0 17 17" version="1.1" xmlns="http://www.w3.org/2000/svg" xmlns:xlink="http://www.w3.org/1999/xlink">
    <title>Factory</title>
    <g id="Factory" stroke="none" fill="none" fill-rule="nonzero">
        <path d="M2.84005098,0.97 L2.84005098,5.45449315 C2.84005098,5.59256433 2.95197979,5.70449315 3.09005098,5.70449315 C3.12886226,5.70449315 3.16714052,5.69545687 3.20185438,5.67809994 L5.53182889,4.51311263 C5.6165249,4.47076462 5.67002549,4.38419885 5.67002549,4.28950583 L5.67002549,0.97 C5.67002549,0.831928813 5.55809668,0.72 5.42002549,0.72 L3.09005098,0.72 C2.95197979,0.72 2.84005098,0.831928813 2.84005098,0.97 Z M7.79250637,0.97 L7.79250637,5.45449315 C7.79250637,5.59256433 7.90443519,5.70449315 8.04250637,5.70449315 C8.08131765,5.70449315 8.11959592,5.69545687 8.15430978,5.67809994 L10.4842843,4.51311263 C10.5689803,4.47076462 10.6224809,4.38419885 10.6224809,4.28950583 L10.6224809,0.97 C10.6224809,0.831928813 10.5105521,0.72 10.3724809,0.72 L8.04250637,0.72 C7.90443519,0.72 7.79250637,0.831928813 7.79250637,0.97 Z M12.7449618,0.97 L12.7449618,5.45449315 C12.7449618,5.59256433 12.8568906,5.70449315 12.9949618,5.70449315 C13.033773,5.70449315 13.0720513,5.69545687 13.1067652,5.67809994 L15.4367397,4.51311263 C15.5214357,4.47076462 15.5749363,4.38419885 15.5749363,4.28950583 L15.5749363,0.97 C15.5749363,0.831928813 15.4630075,0.72 15.3249363,0.72 L12.9949618,0.72 C12.8568906,0.72 12.7449618,0.831928813 12.7449618,0.97 Z M6.01571572,5.85335709 L0.855766699,8.4333316 C0.771070692,8.47567961 0.717570098,8.56224538 0.717570098,8.6569384 L0.717570098,14.8698725 L0.717570098,14.8698725 C0.462422485,14.8662641 0.225096968,15.0003169 0.0964701292,15.2206994 C-0.0321567097,15.441082 -0.0321567097,15.7136504 0.0964701292,15.9340329 C0.225096968,16.1544155 0.462422485,16.2884682 0.717570098,16.2849309 L16.2824299,16.2849309 C16.5375775,16.2884682 16.774903,16.1544155 16.9035299,15.9340329 C17.0321567,15.7136504 17.0321567,15.441082 16.9035299,15.2206994 C16.774903,15.0003169 16.5375775,14.8662641 16.2824299,14.8698725 L16.2824299,6.07696389 C16.2824299,5.9388927 16.1705011,5.82696389 16.0324299,5.82696389 C15.9936186,5.82696389 15.9553404,5.83600016 15.9206265,5.85335709 L11.6917779,7.96778139 C11.5682833,8.0295287 11.418115,7.97947261 11.3563677,7.85597799 C11.3390108,7.82126413 11.3299745,7.78298587 11.3299745,7.74417459 L11.3299745,6.07696389 C11.3299745,5.9388927 11.2180457,5.82696389 11.0799745,5.82696389 C11.0411632,5.82696389 11.002885,5.83600016 10.9681711,5.85335709 L6.73932252,7.96778139 C6.61582789,8.0295287 6.46565963,7.97947261 6.40391232,7.85597799 C6.38655539,7.82126413 6.37751912,7.78298587 6.37751912,7.74417459 L6.37751912,6.07696389 C6.37751912,5.9388927 6.26559031,5.82696389 6.12751912,5.82696389 C6.08870784,5.82696389 6.05042958,5.83600016 6.01571572,5.85335709 Z M2.38255735,9.91741716 L3.29754461,9.91741716 C3.4356158,9.91741716 3.54754461,10.029346 3.54754461,10.1674172 L3.54754461,11.0824044 C3.54754461,11.2204756 3.4356158,11.3324044 3.29754461,11.3324044 L2.38255735,11.3324044 C2.24448617,11.3324044 2.13255735,11.2204756 2.13255735,11.0824044 L2.13255735,10.1674172 C2.13255735,10.029346 2.24448617,9.91741716 2.38255735,9.91741716 Z M5.21253186,9.91741716 L6.12751912,9.91741716 C6.26559031,9.91741716 6.37751912,10.029346 6.37751912,10.1674172 L6.37751912,11.0824044 C6.37751912,11.2204756 6.26559031,11.3324044 6.12751912,11.3324044 L5.21253186,11.3324044 C5.07446068,11.3324044 4.96253186,11.2204756 4.96253186,11.0824044 L4.96253186,10.1674172 C4.96253186,10.029346 5.07446068,9.91741716 5.21253186,9.91741716 Z M8.04250637,9.91741716 L8.95749363,9.91741716 C9.09556481,9.91741716 9.20749363,10.029346 9.20749363,10.1674172 L9.20749363,11.0824044 C9.20749363,11.2204756 9.09556481,11.3324044 8.95749363,11.3324044 L8.04250637,11.3324044 C7.90443519,11.3324044 7.79250637,11.2204756 7.79250637,11.0824044 L7.79250637,10.1674172 C7.79250637,10.029346 7.90443519,9.91741716 8.04250637,9.91741716 Z M10.8724809,9.91741716 L11.7874681,9.91741716 C11.9255393,9.91741716 12.0374681,10.029346 12.0374681,10.1674172 L12.0374681,11.0824044 C12.0374681,11.2204756 11.9255393,11.3324044 11.7874681,11.3324044 L10.8724809,11.3324044 C10.7344097,11.3324044 10.6224809,11.2204756 10.6224809,11.0824044 L10.6224809,10.1674172 C10.6224809,10.029346 10.7344097,9.91741716 10.8724809,9.91741716 Z M13.7024554,9.91741716 L14.6174426,9.91741716 C14.7555138,9.91741716 14.8674426,10.029346 14.8674426,10.1674172 L14.8674426,11.0824044 C14.8674426,11.2204756 14.7555138,11.3324044 14.6174426,11.3324044 L13.7024554,11.3324044 C13.5643842,11.3324044 13.4524554,11.2204756 13.4524554,11.0824044 L13.4524554,10.1674172 C13.4524554,10.029346 13.5643842,9.91741716 13.7024554,9.91741716 Z M2.38255735,12.7473917 L3.29754461,12.7473917 C3.4356158,12.7473917 3.54754461,12.8593205 3.54754461,12.9973917 L3.54754461,13.9123789 C3.54754461,14.0504501 3.4356158,14.1623789 3.29754461,14.1623789 L2.38255735,14.1623789 C2.24448617,14.1623789 2.13255735,14.0504501 2.13255735,13.9123789 L2.13255735,12.9973917 C2.13255735,12.8593205 2.24448617,12.7473917 2.38255735,12.7473917 Z M5.21253186,12.7473917 L6.12751912,12.7473917 C6.26559031,12.7473917 6.37751912,12.8593205 6.37751912,12.9973917 L6.37751912,13.9123789 C6.37751912,14.0504501 6.26559031,14.1623789 6.12751912,14.1623789 L5.21253186,14.1623789 C5.07446068,14.1623789 4.96253186,14.0504501 4.96253186,13.9123789 L4.96253186,12.9973917 C4.96253186,12.8593205 5.07446068,12.7473917 5.21253186,12.7473917 Z M8.04250637,12.7473917 L8.95749363,12.7473917 C9.09556481,12.7473917 9.20749363,12.8593205 9.20749363,12.9973917 L9.20749363,13.9123789 C9.20749363,14.0504501 9.09556481,14.1623789 8.95749363,14.1623789 L8.04250637,14.1623789 C7.90443519,14.1623789 7.79250637,14.0504501 7.79250637,13.9123789 L7.79250637,12.9973917 C7.79250637,12.8593205 7.90443519,12.7473917 8.04250637,12.7473917 Z M10.8724809,12.7473917 L11.7874681,12.7473917 C11.9255393,12.7473917 12.0374681,12.8593205 12.0374681,12.9973917 L12.0374681,13.9123789 C12.0374681,14.0504501 11.9255393,14.1623789 11.7874681,14.1623789 L10.8724809,14.1623789 C10.7344097,14.1623789 10.6224809,14.0504501 10.6224809,13.9123789 L10.6224809,12.9973917 C10.6224809,12.8593205 10.7344097,12.7473917 10.8724809,12.7473917 Z M13.7024554,12.7473917 L14.6174426,12.7473917 C14.7555138,12.7473917 14.8674426,12.8593205 14.8674426,12.9973917 L14.8674426,13.9123789 C14.8674426,14.0504501 14.7555138,14.1623789 14.6174426,14.1623789 L13.7024554,14.1623789 C13.5643842,14.1623789 13.4524554,14.0504501 13.4524554,13.9123789 L13.4524554,12.9973917 C13.4524554,12.8593205 13.5643842,12.7473917 13.7024554,12.7473917 Z" id="Shape" fill="color(display-p3 0.000 0.000 0.000)"></path>
    </g>
</svg>