<?xml version="1.0" encoding="UTF-8"?>
<svg width="17px" height="17px" viewBox="0 0 17 17" version="1.1" xmlns="http://www.w3.org/2000/svg" xmlns:xlink="http://www.w3.org/1999/xlink">
    <title>FAQ</title>
    <g id="FAQ" stroke="none" fill="none" fill-rule="nonzero">
        <path d="M5.6667299,0 C4.62312461,0 3.77785155,0.845273062 3.77785155,1.88887835 L3.77785155,15.1110268 C3.77785155,16.1546321 4.62312461,16.9999051 5.6667299,16.9999051 L15.1111217,16.9999051 C16.1547269,16.9999051 17,16.1546321 17,15.1110268 L17,1.88887835 C17,0.845273062 16.1547269,0 15.1111217,0 L5.6667299,0 Z M0.929777165,0.931411546 C0.4089037,0.939668976 -0.00703818041,1.36799009 9.48517675e-05,1.88887835 L9.48517675e-05,15.1110268 C-0.00472206148,15.4516255 0.174226104,15.7684333 0.468416597,15.9401384 C0.762607089,16.1118434 1.12646096,16.1118434 1.42065146,15.9401384 C1.71484195,15.7684333 1.89379011,15.4516255 1.8889732,15.1110268 L1.8889732,1.88887835 C1.89246898,1.63359614 1.79247351,1.38777157 1.61177114,1.2074167 C1.43106877,1.02706183 1.18505217,0.927539731 0.929777165,0.931411546 L0.929777165,0.931411546 Z M10.3889258,2.83331752 C12.7538015,2.83331752 14.1666825,4.75430681 14.1666825,6.61107422 C14.1666825,8.32617577 13.0885022,9.29412298 12.3017844,9.99961904 C11.6831767,10.5558937 11.333365,10.8912726 11.333365,11.3332701 L9.4444866,11.3332701 C9.4444866,10.0271107 10.3289095,9.2324681 11.0400722,8.59402722 C11.8069568,7.90553106 12.2778041,7.44123626 12.2778041,6.61107422 C12.2778041,5.88102274 11.7649737,4.72219587 10.3889258,4.72219587 C9.46431982,4.72219587 8.90896031,5.42530128 8.65868393,6.00235371 C8.50285147,6.3612405 8.17164798,6.61107422 7.78065016,6.61107422 L7.77142771,6.61107422 C7.0961537,6.61107422 6.64469667,5.9219435 6.90630632,5.29955808 C7.41535903,4.0897315 8.57749144,2.83331752 10.3889258,2.83331752 Z M9.91670619,12.2777093 L10.8611454,12.2777093 C11.1218106,12.2777093 11.333365,12.4892636 11.333365,12.7499289 L11.333365,13.694368 C11.333365,13.9550332 11.1218106,14.1665876 10.8611454,14.1665876 L9.91670619,14.1665876 C9.65604098,14.1665876 9.4444866,13.9550332 9.4444866,13.694368 L9.4444866,12.7499289 C9.4444866,12.4892636 9.65604098,12.2777093 9.91670619,12.2777093 Z" id="Shape" fill="color(display-p3 0.000 0.000 0.000)"></path>
    </g>
</svg>