<?xml version="1.0" encoding="UTF-8"?>
<svg width="17px" height="17px" viewBox="0 0 17 17" version="1.1" xmlns="http://www.w3.org/2000/svg" xmlns:xlink="http://www.w3.org/1999/xlink">
    <title>Farmer</title>
    <g id="Farmer" stroke="none" fill="none" fill-rule="nonzero">
        <path d="M3.87730688,10.0156569 C5.28965271,10.0156569 6.43457438,11.1606033 6.43457438,12.5729456 C6.43457438,13.9852879 5.28964917,15.1302344 3.87730688,15.1302344 C2.46496458,15.1302344 1.32001813,13.9852879 1.32001813,12.5729456 C1.32001813,11.1606033 2.46496458,10.0156569 3.87730688,10.0156569 Z M16.2292165,11.8737356 C16.2292165,13.6712838 14.7713283,15.1291967 12.9737979,15.1291967 C11.1762462,15.1291967 9.71835812,13.6712873 9.71835812,11.8737356 C9.71835812,10.076184 11.1762462,8.61831708 12.9737979,8.61831708 C13.8030615,8.50393542 16.3117408,9.52216458 16.2292165,11.8737356 Z M3.87728563,11.0719342 C3.04963,11.0719342 2.37640167,11.7451625 2.37640167,12.5728181 C2.37640167,13.4004738 3.04963,14.0737021 3.87728563,14.0737021 C4.70494479,14.0737021 5.37816958,13.4004738 5.37816958,12.5728181 C5.37816958,11.7451625 4.70494125,11.0719342 3.87728563,11.0719342 Z M12.9737306,9.86018833 C11.8634996,9.86018833 10.9602719,10.7634196 10.9602719,11.8738206 C10.9602719,12.9840517 11.8634996,13.8872794 12.9737306,13.8872794 C14.0839617,13.8872794 14.9871894,12.9840517 14.9871894,11.8738206 C14.9871894,10.763416 14.0839617,9.86018833 12.9737306,9.86018833 Z M3.87741667,11.7803065 C4.31517137,11.7803065 4.67004167,12.1351768 4.67004167,12.5729315 C4.67004167,13.0106862 4.31517137,13.3655565 3.87741667,13.3655565 C3.43966197,13.3655565 3.08479167,13.0106862 3.08479167,12.5729315 C3.08479167,12.1351768 3.43966197,11.7803065 3.87741667,11.7803065 Z M12.9737306,10.5685252 C13.6933052,10.5685252 14.278856,11.154076 14.278856,11.8738242 C14.278856,12.5933988 13.6933052,13.1789496 12.9737306,13.1789496 C12.254156,13.1789496 11.6686052,12.5933988 11.6686052,11.8738242 C11.6686052,11.154076 12.254156,10.5685252 12.9737306,10.5685252 Z M11.151536,4.10515708 L12.6761137,5.80335792 C12.8068508,5.94896646 12.7947454,6.17274313 12.6491333,6.30347667 C12.5035602,6.43416063 12.2793975,6.42205521 12.149011,6.27649979 L11.6462962,5.71654458 L10.1130521,7.09732708 L10.1822917,7.09732708 C10.7666737,7.09732708 11.2412465,7.57185375 11.2412465,8.15628188 L11.2412465,8.31209396 C9.92021187,8.95315688 9.01,10.309601 9.01,11.8750319 C9.01,12.0804308 9.02417729,12.2822881 9.05604167,12.4770975 L7.14001062,12.4770975 C7.09042375,10.720445 5.64541667,9.30732354 3.87812854,9.30732354 C2.14270479,9.30732354 0.718968958,10.6672669 0.619791667,12.3779202 C0.255010625,12.2114725 -6.32383035e-13,11.843125 -6.32383035e-13,11.4145975 L-6.32383035e-13,8.15628188 C-6.32383035e-13,7.57185729 0.474593958,7.09732708 1.05895479,7.09733063 L7.06562854,7.09733063 L7.06562854,5.98519771 C7.06562854,5.79043083 7.22500708,5.63103104 7.41979521,5.63103104 L9.44916312,5.63103104 C9.6439725,5.63103104 9.80332979,5.79043083 9.80332979,5.98519771 L9.80332979,6.42280604 L11.1730021,5.18936042 L10.6244369,4.5783025 C10.4936998,4.43269396 10.5058052,4.20891729 10.6514137,4.07818021 C10.7968523,3.94726958 11.0209725,3.959375 11.151536,4.10515708 Z M16.6458333,6.74666313 C16.8406215,6.74666313 17,6.90251771 17,7.10082979 C17,7.29563917 16.8406215,7.45499646 16.6458333,7.45499646 L15.9516808,7.45499646 L15.9516808,9.27541667 C15.9339583,9.25769063 15.9162535,9.23646542 15.8985487,9.21878188 C15.0343821,8.32982 13.872726,7.91188563 13.1431215,7.90125 L13.1431215,7.45499646 L12.7677048,7.45499646 C12.5693715,7.45499646 12.4135381,7.29563917 12.4135381,7.10082979 C12.4135381,6.90251771 12.5693715,6.74666313 12.7677048,6.74666313 L16.6458333,6.74666313 Z M3.81438208,2.1 C4.00917021,2.1 4.16854875,2.25581208 4.16854875,2.45416667 L4.16854875,4.57562146 C4.66438917,4.72793083 5.025625,5.1847775 5.025625,5.73020833 L5.025625,6.38899729 L2.59959396,6.38899729 L2.59959396,5.73020833 C2.59959396,5.1847775 2.964375,4.72793083 3.46021542,4.57562146 L3.46021542,2.45416667 C3.46021542,2.25581208 3.61604875,2.1 3.81438208,2.1 Z" id="Combined-Shape" fill="color(display-p3 0.004 0.004 0.004)"></path>
    </g>
</svg>