<?xml version="1.0" encoding="UTF-8"?>
<svg width="17px" height="17px" viewBox="0 0 17 17" version="1.1" xmlns="http://www.w3.org/2000/svg" xmlns:xlink="http://www.w3.org/1999/xlink">
    <title>favorite_star</title>
    <g id="favorite_star" stroke="none" fill="none" fill-rule="evenodd">
        <path d="M8.5,0 C13.1944204,0 17,3.80557963 17,8.5 C17,13.1944204 13.1944204,17 8.5,17 C3.80557963,17 0,13.1944204 0,8.5 C0,3.80557963 3.80557963,0 8.5,0 Z M8.85713589,4.01546405 C8.72413157,3.70151198 8.2802683,3.70151198 8.14726397,4.01546405 L7.01750049,6.68714977 L4.12310986,6.93459967 C3.78363952,6.96398435 3.64599551,7.38774231 3.90349807,7.61044723 L6.09729615,9.51039855 L5.43846077,12.3413801 C5.36113268,12.6731177 5.72070832,12.9352599 6.01300853,12.7589519 L8.50219993,11.2580135 L10.9921646,12.7589519 C11.2836915,12.9352599 11.6440405,12.6731177 11.5667124,12.3413801 L10.9071037,9.50266574 L13.1001285,7.6034877 C13.3576311,7.3800095 13.2199871,6.95702482 12.8805167,6.92764014 L9.98612609,6.68019024 Z" id="Oval-2" fill="color(display-p3 0.000 0.000 0.000)"></path>
    </g>
</svg>