<?xml version="1.0" encoding="UTF-8"?>
<svg width="17px" height="17px" viewBox="0 0 17 17" version="1.1" xmlns="http://www.w3.org/2000/svg" xmlns:xlink="http://www.w3.org/1999/xlink">
    <title>favorite_check</title>
    <g id="favorite_check" stroke="none" fill="none" fill-rule="evenodd">
        <path d="M8.5,0 C13.1944204,0 17,3.80557963 17,8.5 C17,13.1944204 13.1944204,17 8.5,17 C3.80557963,17 0,13.1944204 0,8.5 C0,3.80557963 3.80557963,0 8.5,0 Z M12.5109944,5.4577006 C12.2445913,5.2661497 11.8703304,5.29009356 11.6308917,5.52953218 L7.13817739,10.0222465 L5.37410826,8.25817739 C5.10806536,7.99213449 4.67557509,7.99213449 4.40953218,8.25817739 L4.3377006,8.34265079 C4.1461497,8.60905388 4.17009356,8.98331486 4.40953218,9.22275348 L6.65588935,11.4691106 C6.92193226,11.7358357 7.35374037,11.7358357 7.62046544,11.4691106 L12.5954678,6.49410826 C12.8615107,6.22806536 12.8615107,5.79557509 12.5954678,5.52953218 Z" id="Oval-2" fill="color(display-p3 0.000 0.000 0.000)"></path>
    </g>
</svg>