<?xml version="1.0" encoding="UTF-8"?>
<svg width="17px" height="17px" viewBox="0 0 17 17" version="1.1" xmlns="http://www.w3.org/2000/svg" xmlns:xlink="http://www.w3.org/1999/xlink">
    <title>Feedback form</title>
    <g id="Feedback-form" stroke="none" fill="none">
        <path d="M3.865,7.73 C5.97823741,7.73 7.73,6.00604317 7.73,3.865 C7.73,1.72395683 6.00604317,-7.10542736e-15 3.865,-7.10542736e-15 C1.75176259,-7.10542736e-15 -4.61852778e-13,1.72395683 -4.61852778e-13,3.865 C0.0278057554,6.00604317 1.75176259,7.73 3.865,7.73 Z M4.92161871,2.69715827 L5.36651079,2.69715827 C5.53334532,2.69715827 5.64456835,2.80838129 5.64456835,2.97521583 C5.64456835,3.14205036 5.53334532,3.25327338 5.36651079,3.25327338 L4.92161871,3.25327338 C4.75478417,3.25327338 4.64356115,3.14205036 4.64356115,2.97521583 C4.64356115,2.80838129 4.75478417,2.69715827 4.92161871,2.69715827 Z M3.92061151,5.33870504 C4.3655036,5.33870504 4.78258993,5.1718705 5.08845324,4.86600719 C5.19967626,4.75478417 5.36651079,4.75478417 5.47773381,4.86600719 C5.58895683,4.97723022 5.58895683,5.14406475 5.47773381,5.25528777 C5.06064748,5.6723741 4.50453237,5.89482014 3.92061151,5.89482014 C3.33669065,5.89482014 2.78057554,5.6723741 2.36348921,5.25528777 C2.25226619,5.14406475 2.25226619,4.97723022 2.36348921,4.86600719 C2.47471223,4.75478417 2.64154676,4.75478417 2.75276978,4.86600719 C3.05863309,5.14406475 3.47571942,5.33870504 3.92061151,5.33870504 Z M2.39129496,2.69715827 L2.83618705,2.69715827 C3.00302158,2.69715827 3.1142446,2.80838129 3.1142446,2.97521583 C3.1142446,3.14205036 3.00302158,3.25327338 2.83618705,3.25327338 L2.39129496,3.25327338 C2.22446043,3.25327338 2.11323741,3.14205036 2.11323741,2.97521583 C2.11323741,2.80838129 2.22446043,2.69715827 2.39129496,2.69715827 Z" id="Shape" fill="color(display-p3 0.000 0.000 0.000)" fill-rule="nonzero"></path>
        <path d="M3.865,9.27 C6.00604317,9.27 7.73,10.9939568 7.73,13.135 C7.73,15.2760432 5.97823741,17 3.865,17 C1.75176259,17 0.0278057554,15.2760432 -2.03748129e-12,13.135 C-2.03748129e-12,10.9939568 1.75176259,9.27 3.865,9.27 Z M3.92061151,14.0525899 C3.33669065,14.0525899 2.78057554,14.275036 2.36348921,14.6921223 C2.25226619,14.8033453 2.25226619,14.9701799 2.36348921,15.0814029 C2.47471223,15.1926259 2.64154676,15.1926259 2.75276978,15.0814029 C3.05863309,14.8033453 3.47571942,14.608705 3.92061151,14.608705 C4.3655036,14.608705 4.78258993,14.7755396 5.08845324,15.0814029 C5.19967626,15.1926259 5.36651079,15.1926259 5.47773381,15.0814029 C5.58895683,14.9701799 5.58895683,14.8033453 5.47773381,14.6921223 C5.06064748,14.275036 4.50453237,14.0525899 3.92061151,14.0525899 Z M5.36651079,11.9671583 L4.92161871,11.9671583 C4.75478417,11.9671583 4.64356115,12.0783813 4.64356115,12.2452158 C4.64356115,12.4120504 4.75478417,12.5232734 4.92161871,12.5232734 L5.36651079,12.5232734 C5.53334532,12.5232734 5.64456835,12.4120504 5.64456835,12.2452158 C5.64456835,12.0783813 5.53334532,11.9671583 5.36651079,11.9671583 Z M2.83618705,11.9671583 L2.39129496,11.9671583 C2.22446043,11.9671583 2.11323741,12.0783813 2.11323741,12.2452158 C2.11323741,12.4120504 2.22446043,12.5232734 2.39129496,12.5232734 L2.83618705,12.5232734 C3.00302158,12.5232734 3.1142446,12.4120504 3.1142446,12.2452158 C3.1142446,12.0783813 3.00302158,11.9671583 2.83618705,11.9671583 Z" id="Shape" fill="color(display-p3 0.000 0.000 0.000)" fill-rule="nonzero"></path>
        <g id="feedback-form" stroke-width="1" fill-rule="evenodd" fill="color(display-p3 0.000 0.000 0.000)">
            <path d="M12.0634921,11.1746032 L13.3968254,12.5714286 L14.7460317,11.1746032 L15.3174603,11.7301587 L13.952381,13.1428571 L15.3174603,14.5396825 L14.7460317,15.0952381 L13.3968254,13.7142857 L12.0634921,15.0952381 L11.4920635,14.5396825 L12.8571429,13.1428571 L11.4920635,11.7301587 L12.0634921,11.1746032 Z M10.2380952,0.26984127 L16.5714286,0.26984127 L17,0.26984127 L17,0.698412698 L17,7.03174603 L17,7.46031746 L16.5714286,7.46031746 L10.2380952,7.46031746 L9.80952381,7.46031746 L9.80952381,7.03174603 L9.80952381,0.698412698 L9.80952381,0.26984127 L10.2380952,0.26984127 Z M11.7619048,3.80952381 L12.6984127,4.44444444 L14.8253968,1.65079365 L15.4920635,2.0952381 L12.9047619,5.55555556 L11.3174603,4.47619048 L11.7619048,3.80952381 Z M10.2380952,9.53968254 L16.5714286,9.53968254 L17,9.53968254 L17,9.96825397 L17,16.3174603 L17,16.7460317 L16.5714286,16.7460317 L10.2380952,16.7460317 L9.80952381,16.7460317 L9.80952381,16.3174603 L9.80952381,9.96825397 L9.80952381,9.53968254 L10.2380952,9.53968254 Z M16.1428571,10.3968254 L10.6666667,10.3968254 L10.6666667,15.8888889 L16.1428571,15.8888889 L16.1428571,10.3968254 Z M16.1428571,1.12698413 L10.6666667,1.12698413 L10.6666667,6.6031746 L16.1428571,6.6031746 L16.1428571,1.12698413 Z" id="Shape"></path>
        </g>
    </g>
</svg>