<?xml version="1.0" encoding="UTF-8"?>
<svg width="17px" height="17px" viewBox="0 0 17 17" version="1.1" xmlns="http://www.w3.org/2000/svg" xmlns:xlink="http://www.w3.org/1999/xlink">
    <title>Feedback</title>
    <g id="Feedback" stroke="none" fill="none" fill-rule="evenodd" stroke-width="1">
        <g id="feedback" transform="translate(0, 2.085)" fill="color(display-p3 0.000 0.000 0.000)">
            <path d="M11.5,8.915 C14.5071942,8.915 17,6.46176259 17,3.415 C17,0.36823741 14.5467626,-2.085 11.5,-2.085 C8.49280576,-2.085 6,0.36823741 6,3.415 C6.03956835,6.46176259 8.49280576,8.915 11.5,8.915 Z M13.0035971,1.7531295 L13.6366906,1.7531295 C13.8741007,1.7531295 14.0323741,1.91140288 14.0323741,2.14881295 C14.0323741,2.38622302 13.8741007,2.5444964 13.6366906,2.5444964 L13.0035971,2.5444964 C12.7661871,2.5444964 12.6079137,2.38622302 12.6079137,2.14881295 C12.6079137,1.91140288 12.7661871,1.7531295 13.0035971,1.7531295 Z M11.5791367,5.5121223 C12.2122302,5.5121223 12.8057554,5.27471223 13.2410072,4.83946043 C13.3992806,4.68118705 13.6366906,4.68118705 13.794964,4.83946043 C13.9532374,4.99773381 13.9532374,5.23514388 13.794964,5.39341727 C13.2014388,5.98694245 12.4100719,6.30348921 11.5791367,6.30348921 C10.7482014,6.30348921 9.95683453,5.98694245 9.36330935,5.39341727 C9.20503597,5.23514388 9.20503597,4.99773381 9.36330935,4.83946043 C9.52158273,4.68118705 9.75899281,4.68118705 9.91726619,4.83946043 C10.352518,5.23514388 10.9460432,5.5121223 11.5791367,5.5121223 Z M9.4028777,1.7531295 L10.0359712,1.7531295 C10.2733813,1.7531295 10.4316547,1.91140288 10.4316547,2.14881295 C10.4316547,2.38622302 10.2733813,2.5444964 10.0359712,2.5444964 L9.4028777,2.5444964 C9.16546763,2.5444964 9.00719424,2.38622302 9.00719424,2.14881295 C9.00719424,1.91140288 9.16546763,1.7531295 9.4028777,1.7531295 Z" id="Shape" fill-rule="nonzero"></path>
            <path d="M10.9781961,9.89402575 L10.9607359,10.0735399 C10.6324451,12.8076384 8.28715564,14.915 5.5,14.915 C2.49280576,14.915 0.0395683453,12.4617626 0,9.415 C0,6.52930279 2.23621073,4.17603672 5.02768401,3.93529306 C5.31491944,7.11693125 7.83613152,9.64043949 10.9781961,9.89402575 Z M5.70676692,10.1147337 C4.83834586,10.1147337 4.0112782,10.4455608 3.39097744,11.0658616 C3.22556391,11.2312751 3.22556391,11.4793954 3.39097744,11.6448089 C3.55639098,11.8102225 3.80451128,11.8102225 3.96992481,11.6448089 C4.42481203,11.1899217 5.04511278,10.9418014 5.70676692,10.9418014 C6.36842105,10.9418014 6.9887218,11.1899217 7.44360902,11.6448089 C7.60902256,11.8102225 7.85714286,11.8102225 8.02255639,11.6448089 C8.18796992,11.4793954 8.18796992,11.2312751 8.02255639,11.0658616 C7.40225564,10.4042074 6.57518797,10.1147337 5.70676692,10.1147337 Z M4.17669173,7.38541043 L3.51503759,7.38541043 C3.30827068,7.38541043 3.10150376,7.55082397 3.10150376,7.79894427 C3.10150376,8.04706457 3.26691729,8.2124781 3.51503759,8.2124781 L4.17669173,8.2124781 C4.42481203,8.2124781 4.59022556,8.04706457 4.59022556,7.79894427 C4.59022556,7.55082397 4.42481203,7.38541043 4.17669173,7.38541043 Z" id="Shape" fill-rule="nonzero"></path>
        </g>
    </g>
</svg>