<?xml version="1.0" encoding="UTF-8"?>
<svg width="17px" height="17px" viewBox="0 0 17 17" version="1.1" xmlns="http://www.w3.org/2000/svg" xmlns:xlink="http://www.w3.org/1999/xlink">
    <title>Feedback send</title>
    <g id="Feedback-send" stroke="none" fill="none" fill-rule="nonzero">
        <path d="M8.5,0.625 C8.0558767,0.625 7.61142955,0.73934999 7.21503885,0.9703125 L7.21503885,0.971972635 L0.843359375,4.6890625 C0.32203338,4.99303041 0,5.55320047 0,6.15664063 L0,14.6782226 C0,15.6073262 0.77089662,16.3782226 1.7,16.3782226 L15.3,16.3782226 C16.2291035,16.3782226 17,15.6073262 17,14.6782226 L17,6.15664063 C17,5.55400831 16.6778058,4.99294626 16.1566402,4.6890625 L9.78496115,0.971972635 C9.38873365,0.740733875 8.9441233,0.625 8.5,0.625 Z M8.5,2.32333977 C8.6477521,2.32333977 8.7958476,2.36223952 8.9283201,2.43955076 L15.3,6.15664063 L15.3,6.15830076 L15.3,6.19814451 L9.39814485,9.87041014 C8.84819485,10.2129601 8.15180515,10.2129601 7.60185515,9.87041014 L1.7,6.19814451 L1.7,6.15664063 L8.0716799,2.43955076 C8.2048392,2.36196319 8.3522479,2.32333977 8.5,2.32333977 Z M8.5,3.80419916 C8.39109375,3.80419916 8.2823864,3.8458359 8.1995114,3.9287109 L6.67548826,5.45273438 C6.40773826,5.72048438 6.59687661,6.17822264 6.97597635,6.17822264 L7.65,6.17822264 L7.65,7.87822264 C7.65,8.34742264 8.0308,8.72822264 8.5,8.72822264 C8.9692,8.72822264 9.35,8.34742264 9.35,7.87822264 L9.35,6.17822264 L10.0240237,6.17822264 C10.4031237,6.17822264 10.5922614,5.72048438 10.3245114,5.45273438 L8.8004886,3.9287109 C8.7171886,3.8458359 8.60890625,3.80419916 8.5,3.80419916 Z" id="Shape" fill="color(display-p3 0.000 0.000 0.000)"></path>
    </g>
</svg>