<?xml version="1.0" encoding="UTF-8"?>
<svg width="18px" height="18px" viewBox="0 0 18 18" version="1.1" xmlns="http://www.w3.org/2000/svg" xmlns:xlink="http://www.w3.org/1999/xlink">
    <title>Flag</title>
    <g id="Flag" stroke="none" stroke-width="1" fill="none" fill-rule="evenodd">
        <g id="icons8-flag" fill="#000000" fill-rule="nonzero">
            <path d="M0.982950378,0 C0.432288577,0.00862041859 -0.00744068833,0.461436875 0,1.01211432 L0,10.9966233 L0,16.9873287 C-0.00499211241,17.3474059 0.184189956,17.6823317 0.495204968,17.8638565 C0.80621998,18.0453812 1.19088237,18.0453812 1.50189738,17.8638565 C1.81291239,17.6823317 2.00209446,17.3474059 1.99700207,16.9873287 L1.99700207,10.9966233 L8.75019645,10.9966233 C9.12860934,10.9966233 9.47360508,11.2100262 9.64334173,11.5485011 L10.0899149,12.4416473 C10.2586531,12.7801222 10.6046473,12.9935251 10.9830601,12.9935251 L16.9737655,12.9935251 C17.5249104,12.9935251 17.9722164,12.5462191 17.9722164,11.9950742 L17.9722164,3.00901611 C17.9722164,2.45787122 17.5249104,2.01056522 16.9737655,2.01056522 L12.2174729,2.01056522 C11.8390601,2.01056522 11.4940643,1.79716191 11.3243277,1.45868706 L10.8777545,0.565541579 C10.7090163,0.227066725 10.3630221,0.0136634211 9.98460925,0.0136634211 L1.15260905,0.0136634211 C1.09654774,0.00429285663 1.03978871,-0.000273969589 0.982950378,0 Z" id="Path"></path>
        </g>
    </g>
</svg>