<?xml version="1.0" encoding="UTF-8"?>
<svg width="17px" height="17px" viewBox="0 0 17 17" version="1.1" xmlns="http://www.w3.org/2000/svg" xmlns:xlink="http://www.w3.org/1999/xlink">
    <title>Forum</title>
    <g id="Forum" stroke="none" fill="none" fill-rule="nonzero">
        <path d="M1.7,0.725 C0.765,0.725 0,1.49 0,2.425 L0,11.5990236 C0,11.9772736 0.45773826,12.1672614 0.72548826,11.8995114 L2.55,10.075 L10.2,10.075 C11.135,10.075 11.9,9.31 11.9,8.375 L11.9,2.425 C11.9,1.49 11.135,0.725 10.2,0.725 L1.7,0.725 Z M13.6,4.975 L13.6,8.375 C13.6,10.25265 12.07765,11.775 10.2,11.775 L5.1,11.775 L5.1,12.625 C5.1,13.56 5.865,14.325 6.8,14.325 L14.45,14.325 L16.2745114,16.1495114 C16.5422614,16.4172614 17,16.2272736 17,15.8490236 L17,6.675 C17,5.74 16.235,4.975 15.3,4.975 L13.6,4.975 Z" id="Shape" fill="color(display-p3 0.000 0.000 0.000)"></path>
    </g>
</svg>