<?xml version="1.0" encoding="UTF-8"?>
<svg width="18px" height="18px" viewBox="0 0 18 18" version="1.1" xmlns="http://www.w3.org/2000/svg" xmlns:xlink="http://www.w3.org/1999/xlink">
    <title>Gallery</title>
    <g id="Gallery" stroke="none" stroke-width="1" fill="none" fill-rule="evenodd">
        <rect fill="#FFFFFF" x="0" y="0" width="18" height="18"></rect>
        <path d="M16.2702661,2.98522167 L5.11292113,2.98522167 C4.93558585,2.98522167 4.7730285,3 4.59569322,3.02955665 C3.7829065,3.16256158 3.16223301,3.84236453 3.16223301,4.65517241 C3.16223301,8.49753695 3.14745507,12.3399015 3.16223301,16.182266 C3.16223301,17.1428571 4.00457561,18 4.96514173,18 L16.3589337,18 C16.6988264,18 17.0091631,17.8965517 17.2603881,17.6896552 C17.7628381,17.3054187 17.9845072,16.773399 17.9845072,16.1527094 C17.9992851,14.2463054 17.9992851,12.3251232 17.9992851,10.4187192 L17.9992851,4.72906404 C18.0140631,3.63546798 17.3638337,2.98522167 16.2702661,2.98522167 Z M7.59561511,5.23152709 C8.67440476,5.21674877 9.54630324,6.10344828 9.54630324,7.18226601 C9.54630324,8.26108374 8.6891827,9.13300493 7.61039305,9.13300493 C6.53160341,9.13300493 5.65970493,8.24630542 5.65970493,7.18226601 C5.65970493,6.1182266 6.53160341,5.23152709 7.59561511,5.23152709 Z M16.2407102,15.4876847 C16.1963764,15.546798 16.0929308,15.591133 15.9451514,15.591133 C15.9303735,15.6059113 15.9155955,15.6059113 15.8860396,15.6059113 L8.40840183,15.6059113 C7.8468401,15.6059113 7.27050042,15.591133 6.70893869,15.591133 C6.4577137,15.591133 6.19171078,15.5763547 5.92570785,15.5763547 C5.68926081,15.5763547 5.45281376,15.6206897 5.20158877,15.6059113 C5.18681083,15.6059113 5.18681083,15.6059113 5.17203289,15.591133 C5.15725495,15.591133 5.12769907,15.5763547 5.11292113,15.5615764 C4.95036379,15.4581281 5.27547848,15.2216749 5.33459024,15.1477833 C5.51192552,14.9261084 7.40350189,12.2807882 7.41827983,12.2512315 C7.66950481,11.8669951 8.02417538,11.6600985 8.37884595,11.6600985 C8.9108518,11.6600985 9.19163267,12.2364532 9.605415,12.4729064 C10.1521988,12.7980296 10.5216473,12.3694581 10.7876502,11.9261084 C10.9649855,11.6305419 11.1570987,11.3349754 11.334434,11.0394089 C11.4378796,10.862069 11.5561031,10.6847291 11.6595487,10.5073892 C11.7925502,10.3004926 11.9255516,10.0935961 12.0585531,9.88669951 L12.324556,9.45812808 C12.3541119,9.42857143 12.3688898,9.39901478 12.3836678,9.36945813 C12.4871134,9.2364532 12.6053369,9.13300493 12.6940045,9.13300493 C12.7826722,9.13300493 12.8713398,9.22167488 12.9600075,9.36945813 C13.8910177,11.0246305 14.8220279,12.6945813 15.7234823,14.320197 L16.1668205,15.1182266 C16.2111543,15.1773399 16.2259323,15.2364532 16.2407102,15.2955665 C16.2702661,15.3694581 16.2702661,15.4433498 16.2407102,15.4876847 Z" id="Shape" fill="#000000" fill-rule="nonzero"></path>
        <path d="M14.8515838,1.72906404 L14.8515838,1.98029557 L4.37402412,1.98029557 C4.18191089,1.98029557 3.97501973,1.99507389 3.79768444,2.02463054 C2.8666742,2.17241379 2.172111,2.95566502 2.172111,3.87192118 C2.172111,7.59605911 2.172111,11.3054187 2.172111,15.0147783 L1.81744044,15.0147783 C0.856874314,15.0147783 0.0145317148,14.1576355 0.0145317148,13.1970443 C0.0145317148,9.3546798 0.0145317148,5.5270936 0.0145317148,1.66995074 C0.0145317148,0.857142857 0.620427269,0.177339901 1.44799193,0.0443349754 C1.61054927,0.0147783251 1.78788456,1.77635684e-14 1.96521984,1.77635684e-14 L13.1225648,1.77635684e-14 C14.2013544,1.77635684e-14 14.8515838,0.650246305 14.8515838,1.72906404 Z" id="Path" fill="#000000" fill-rule="nonzero"></path>
    </g>
</svg>