<?xml version="1.0" encoding="UTF-8"?>
<svg width="18px" height="18px" viewBox="0 0 18 18" version="1.1" xmlns="http://www.w3.org/2000/svg" xmlns:xlink="http://www.w3.org/1999/xlink">
    <title>Gallery</title>
    <g id="Gallery" stroke="none" stroke-width="1" fill="none" fill-rule="evenodd">
        <path d="M1.71428571,1 C0.777374743,1 0,1.77739634 0,2.71433333 L0,11.286 C0,12.2229372 0.777374743,13.0003333 1.71428571,13.0003333 L12.8571429,13.0003333 C13.794054,13.0003333 14.5714286,12.2229372 14.5714286,11.286 L14.5714286,2.71433333 C14.5714286,1.77739634 13.794054,1 12.8571429,1 L1.71428571,1 Z M1.71428571,2.71433333 L12.8571429,2.71433333 L12.8571429,8.7145 L10.7142857,6.57158333 L7.15178571,10.1274861 L5.9347098,8.92042058 L7.26897326,7.58109766 L5.51450897,5.73283238 L1.71428571,9.56497048 L1.71428571,2.71433333 Z M8.57142857,3.5715 C8.09804164,3.5715 7.71428571,3.95526659 7.71428571,4.42866667 C7.71428571,4.90206674 8.09804164,5.28583333 8.57142857,5.28583333 C9.0448155,5.28583333 9.42857143,4.90206674 9.42857143,4.42866667 C9.42857143,3.95526659 9.0448155,3.5715 8.57142857,3.5715 Z M16.2857143,4.42866667 L16.2857143,14.7146667 L3.42857143,14.7146667 L3.42857143,16.429 L16.2857143,16.429 C17.2226254,16.429 18,15.6516038 18,14.7146667 L18,4.42866667 L16.2857143,4.42866667 Z" id="Shape" fill="#000000" fill-rule="nonzero"></path>
    </g>
</svg>