<?xml version="1.0" encoding="UTF-8"?>
<svg width="17px" height="17px" viewBox="0 0 17 17" version="1.1" xmlns="http://www.w3.org/2000/svg" xmlns:xlink="http://www.w3.org/1999/xlink">
    <title>garden</title>
    <g id="garden" stroke="none" fill="none" fill-rule="nonzero">
        <path d="M9.81471222,0.000590670725 C9.12701927,-0.0139893865 8.45622158,0.241949787 7.99694921,0.701829669 C7.53767683,1.16110205 7.28228797,1.81771799 7.29808305,2.5029816 C7.31601837,3.29271546 7.68542767,4.05582853 8.3339233,4.66009235 L8.33511036,4.66127887 C8.34518945,4.67066212 8.35218485,4.68163703 8.36240062,4.69094209 L8.36358707,4.68975558 L9.13127118,5.45744023 L7.65997511,5.45744023 C7.42973142,5.45744023 7.22039859,5.58728431 7.11773056,5.79322787 C6.91543201,6.19721747 7.20799216,6.67244652 7.65997511,6.67244652 L11.2254961,6.97975746 L11.2231232,6.97738455 C11.5315805,7.0071115 11.8702435,6.94725968 12.1569218,6.66058138 L13.0563113,5.7611918 L13.0681765,5.74932666 L13.9675661,4.84993709 C14.7026449,4.11485828 13.9675661,3.02742765 13.9675661,3.02742765 L11.967077,1.02693874 C11.9568145,1.01664977 11.9434603,1.01260586 11.9326681,1.00320821 L11.935041,1.00083512 C11.359128,0.37267687 10.6062894,0.0176007588 9.81471222,0.000590670725 Z M9.78742257,1.21559464 C10.085788,1.22233302 10.3759504,1.32412631 10.6405374,1.49443143 L8.80022996,3.33473883 C8.62459533,3.06147212 8.51878894,2.76986314 8.51190289,2.47569141 C8.50339785,2.12030207 8.62821119,1.78747576 8.85480987,1.56087709 C9.08080104,1.33367091 9.41077062,1.21498946 9.78742257,1.21559464 Z M13.3600629,8.49495596 C10.9300503,8.49495596 8.50003775,9.70996225 8.50003775,12.747478 C8.50003775,13.3385785 8.57458021,13.8180218 8.71005341,14.2104689 C8.56729017,14.5045004 8.44790608,14.783724 8.34341615,15.0552779 C8.13443507,14.7284412 7.90203656,14.3941912 7.62319262,14.0479144 C7.50715951,13.9033287 7.37047131,13.7570723 7.24350315,13.6112715 C7.26719577,13.4879484 7.28503146,13.365935 7.28503146,13.2529394 C7.28503146,10.7220813 5.2596348,9.70996225 3.23421944,9.70996225 L1.21,9.70996225 L1.21,11.2287201 C1.21,14.2662358 3.23421944,15.7849937 4.7529773,15.7849937 C5.05915876,15.7849937 5.32619467,15.7327296 5.57405595,15.6592217 C5.1585238,15.0505036 4.4544655,14.1484659 3.47152535,13.3514218 C3.2109065,13.1400107 3.16993807,12.7577393 3.38134916,12.4971205 C3.57028258,12.2644468 3.89095883,12.218542 4.14428764,12.3594827 C5.12965768,13.1182542 6.01957385,13.9931535 6.67871477,14.8108527 C7.07784433,15.3065753 7.39406855,15.7799059 7.60183463,16.1741754 C7.8096007,16.5690525 7.8925346,16.896117 7.8925346,17 L9.10754089,17 C9.10754089,16.6215255 9.38764723,15.5525667 9.99150536,14.3825156 C10.5504083,13.5380862 11.3852597,12.2703887 12.1118335,11.5407775 C12.3487603,11.3032437 12.7333475,11.3014783 12.9708812,11.5384046 C13.2090224,11.7753308 13.2101803,12.1599179 12.9732541,12.3974517 C11.9684439,13.4065144 11.2640823,14.5192609 10.8327551,15.7470248 C11.0557087,15.7725399 11.2902997,15.7849937 11.5375535,15.7849937 C13.3600629,15.7849937 15.7900755,13.9624843 15.7900755,10.3174654 L15.7900755,8.49495596 L13.3600629,8.49495596 Z" id="Shape" fill="color(display-p3 0.000 0.000 0.000)"></path>
    </g>
</svg>