<?xml version="1.0" encoding="UTF-8"?>
<svg width="17px" height="17px" viewBox="0 0 17 17" version="1.1" xmlns="http://www.w3.org/2000/svg" xmlns:xlink="http://www.w3.org/1999/xlink">
    <title>Gears</title>
    <g id="Gears" stroke="none" fill="none" fill-rule="nonzero">
        <path d="M10.6556515,12.7113636 L10.4779242,12.6109091 C10.1142401,12.4009902 9.89253402,12.0107875 9.89837874,11.5909091 C9.89837874,11.3552273 9.89837874,11.0925 9.89837874,10.8568182 C9.8854107,10.4300841 10.1080774,10.0307685 10.4779242,9.8175 L10.628606,9.7325 C10.8145811,9.63457066 10.9526405,9.46510946 11.0109596,9.26317934 C11.0692788,9.06124922 11.0428253,8.84427527 10.9376969,8.66227273 L10.5513333,7.99 C10.3377015,7.6211729 9.86576627,7.49497777 9.49656056,7.70795455 L9.37292419,7.78136364 C8.986788,8.0000009 8.50971625,7.97899775 8.14428783,7.72727273 C7.95160759,7.59224303 7.74732098,7.47458429 7.53383329,7.37568182 C7.13329132,7.17944539 6.88088397,6.77078586 6.88474238,6.32477273 L6.88474238,6.18181818 C6.88474238,5.75505269 6.53878059,5.40909091 6.1120151,5.40909091 L5.33928783,5.40909091 C4.91252234,5.40909091 4.56656056,5.75505269 4.56656056,6.18181818 L4.56656056,6.32477273 C4.56597223,6.76661014 4.31423921,7.16968267 3.91746965,7.36409091 C3.70398196,7.46299338 3.49969534,7.58065212 3.3070151,7.71568182 C2.94008443,7.964973 2.46305356,7.98297416 2.07837874,7.76204545 L1.95860601,7.6925 C1.78141296,7.58866559 1.57017391,7.55964087 1.37154204,7.61183611 C1.17291018,7.66403134 1.00322763,7.79315224 0.899969649,7.97068182 L0.513606012,8.64295455 C0.300629234,9.01216026 0.426824368,9.48409549 0.795651467,9.69772727 L0.97337874,9.79818182 C1.34322554,10.0114503 1.56589223,10.4107659 1.55292419,10.8375 C1.55292419,11.0731818 1.55292419,11.3359091 1.55292419,11.5715909 C1.56589223,11.998325 1.34322554,12.3976406 0.97337874,12.6109091 L0.822696922,12.6959091 C0.636721809,12.7938384 0.498662459,12.9632996 0.440343291,13.1652298 C0.382024123,13.3671599 0.408477654,13.5841338 0.513606012,13.7661364 L0.899969649,14.4384091 C1.11360143,14.8072362 1.58553666,14.9334313 1.95474238,14.7204545 L2.07837874,14.6470455 C2.46305356,14.4261167 2.94008443,14.4441179 3.3070151,14.6934091 C3.49969534,14.8284388 3.70398196,14.9460975 3.91746965,15.045 C4.31423921,15.2394082 4.56597223,15.6424808 4.56656056,16.0843182 L4.56656056,16.2272727 C4.56656056,16.6540382 4.91252234,17 5.33928783,17 L6.1120151,17 C6.53878059,17 6.88474238,16.6540382 6.88474238,16.2272727 L6.88474238,16.0843182 C6.8853307,15.6424808 7.13706373,15.2394082 7.53383329,15.045 C7.74774693,14.9423963 7.95204698,14.8208507 8.14428783,14.6818182 C8.51121851,14.432527 8.98824937,14.4145258 9.37292419,14.6354545 L9.49269692,14.705 C9.66988997,14.8088344 9.88112902,14.8378591 10.0797609,14.7856639 C10.2783928,14.7334687 10.4480753,14.6043478 10.5513333,14.4268182 L10.9376969,13.7545455 C11.1428796,13.3879614 11.0176035,12.9246113 10.6556515,12.7113636 L10.6556515,12.7113636 Z M5.72565147,13.1363636 C4.65873775,13.1363636 3.79383329,12.2714592 3.79383329,11.2045455 C3.79383329,10.1376317 4.65873775,9.27272727 5.72565147,9.27272727 C6.79256519,9.27272727 7.65746965,10.1376317 7.65746965,11.2045455 C7.65746965,12.2714592 6.79256519,13.1363636 5.72565147,13.1363636 Z M16.1304242,3.29181818 L16.1999696,3.25318182 C16.3781537,3.15057008 16.5080935,2.9811736 16.5610284,2.78248638 C16.6139633,2.58379916 16.5855276,2.37220772 16.4820151,2.19454545 L16.2888333,1.86227273 C16.1868802,1.68448238 16.0184734,1.55447681 15.8206633,1.50085794 C15.6228531,1.44723907 15.4118445,1.47439945 15.2340606,1.57636364 L15.1838333,1.60727273 C14.9379752,1.75596276 14.6299186,1.75596276 14.3840606,1.60727273 L14.2565606,1.53386364 C13.9946918,1.39828866 13.8328133,1.12549348 13.8392878,0.830681818 L13.8392878,0.772727273 C13.8392878,0.345961784 13.493326,0 13.0665606,0 L12.6801969,0 C12.2534314,0 11.9074696,0.345961784 11.9074696,0.772727273 L11.9074696,0.830681818 C11.9066287,1.11856832 11.7458185,1.38211833 11.4901969,1.51454545 L11.3626969,1.58795455 C11.1168388,1.73664458 10.8087823,1.73664458 10.5629242,1.58795455 L10.5126969,1.55704545 C10.3349129,1.45508126 10.1239044,1.42792089 9.92609423,1.48153976 C9.72828408,1.53515863 9.55987727,1.66516419 9.45792419,1.84295455 L9.26474238,2.17522727 C9.16122989,2.35288954 9.13279414,2.56448098 9.18572906,2.7631682 C9.23866398,2.96185541 9.36860381,3.1312519 9.54678783,3.23386364 L9.61633329,3.2725 C9.8563688,3.41108166 10.0037973,3.66760723 10.0026969,3.94477273 L10.0026969,4.13022727 C10.0037973,4.40739277 9.8563688,4.66391834 9.61633329,4.8025 L9.54678783,4.84113636 C9.36860381,4.9437481 9.23866398,5.11314459 9.18572906,5.3118318 C9.13279414,5.51051902 9.16122989,5.72211046 9.26474238,5.89977273 L9.45792419,6.23204545 C9.55987727,6.40983581 9.72828408,6.53984137 9.92609423,6.59346024 C10.1239044,6.64707911 10.3349129,6.61991874 10.5126969,6.51795455 L10.5629242,6.48704545 C10.8123609,6.344243 11.1204457,6.35168466 11.3626969,6.50636364 L11.4901969,6.57977273 C11.7520657,6.71534771 11.9139442,6.98814288 11.9074696,7.28295455 L11.9074696,7.34090909 C11.9074696,7.76767458 12.2534314,8.11363636 12.6801969,8.11363636 L13.0665606,8.11363636 C13.493326,8.11363636 13.8392878,7.76767458 13.8392878,7.34090909 L13.8392878,7.28295455 C13.8401288,6.99506804 14.000939,6.73151804 14.2565606,6.59909091 L14.3840606,6.52568182 C14.6263117,6.37100284 14.9343966,6.36356118 15.1838333,6.50636364 L15.2340606,6.53727273 C15.4118445,6.63923692 15.6228531,6.66639729 15.8206633,6.61277842 C16.0184734,6.55915955 16.1868802,6.42915399 16.2888333,6.25136364 L16.4820151,5.91909091 C16.5855276,5.74142864 16.6139633,5.5298372 16.5610284,5.33114999 C16.5080935,5.13246277 16.3781537,4.96306629 16.1999696,4.86045455 L16.1304242,4.82181818 C15.8903887,4.68323653 15.7429602,4.42671095 15.7440606,4.14954545 L15.7440606,3.96409091 C15.7429602,3.68692541 15.8903887,3.43039984 16.1304242,3.29181818 L16.1304242,3.29181818 Z M12.8733787,5.02272727 C12.3399219,5.02272727 11.9074696,4.59027504 11.9074696,4.05681818 C11.9074696,3.52336132 12.3399219,3.09090909 12.8733787,3.09090909 C13.4068356,3.09090909 13.8392878,3.52336132 13.8392878,4.05681818 C13.8392878,4.59027504 13.4068356,5.02272727 12.8733787,5.02272727 Z" id="Shape" fill="color(display-p3 0.000 0.000 0.000)"></path>
    </g>
</svg>