<?xml version="1.0" encoding="UTF-8"?>
<svg width="22px" height="22px" viewBox="0 0 22 22" version="1.1" xmlns="http://www.w3.org/2000/svg" xmlns:xlink="http://www.w3.org/1999/xlink">
    <title>github</title>
    <g id="github" stroke="none" stroke-width="1" fill="none" fill-rule="evenodd">
        <path d="M11,0.17 C4.92525,0.17 0,5.09525 0,11.17 C0,16.3244167 3.54933333,20.6373333 8.33433333,21.8308333 C8.283,21.6823333 8.25,21.51 8.25,21.2964167 L8.25,19.4163333 C7.80358333,19.4163333 7.05558333,19.4163333 6.86766667,19.4163333 C6.11508333,19.4163333 5.44591667,19.09275 5.12141667,18.4914167 C4.76116667,17.8231667 4.69883333,16.8010833 3.806,16.1759167 C3.54108333,15.9678333 3.74275,15.7304167 4.048,15.7625 C4.61175,15.922 5.07925,16.3088333 5.51925,16.8826667 C5.95741667,17.4574167 6.16366667,17.5875833 6.98225,17.5875833 C7.37916667,17.5875833 7.97316667,17.5646667 8.53233333,17.4766667 C8.833,16.7130833 9.35275,16.01 9.988,15.6781667 C6.325,15.3014167 4.57691667,13.4790833 4.57691667,11.005 C4.57691667,9.93983333 5.03066667,8.9095 5.80158333,8.04141667 C5.54858333,7.17975 5.2305,5.4225 5.89875,4.75333333 C7.54691667,4.75333333 8.54333333,5.82216667 8.78258333,6.11091667 C9.60391667,5.8295 10.5059167,5.67 11.45375,5.67 C12.4034167,5.67 13.3090833,5.8295 14.13225,6.11275 C14.36875,5.82583333 15.3660833,4.75333333 17.0179167,4.75333333 C17.6889167,5.42341667 17.3671667,7.188 17.1114167,8.04783333 C17.87775,8.91408333 18.32875,9.94166667 18.32875,11.005 C18.32875,13.47725 16.5834167,15.2986667 12.9259167,15.67725 C13.9324167,16.2025 14.6666667,17.6783333 14.6666667,18.79025 L14.6666667,21.2964167 C14.6666667,21.39175 14.6455833,21.4605 14.6345833,21.5420833 C18.9209167,20.0396667 22,15.9696667 22,11.17 C22,5.09525 17.07475,0.17 11,0.17 Z" id="Path" fill="#000000" fill-rule="nonzero"></path>
    </g>
</svg>