<?xml version="1.0" encoding="UTF-8"?>
<svg width="18px" height="18px" viewBox="0 0 18 18" version="1.1" xmlns="http://www.w3.org/2000/svg" xmlns:xlink="http://www.w3.org/1999/xlink">
    <title>Globe</title>
    <g id="Globe" stroke="none" fill="none" fill-rule="nonzero">
        <path d="M5.83497733,0.00618215929 C5.72319773,0.025266686 5.61959661,0.0688880626 5.5296277,0.137046289 C3.28857982,1.60926775 1.8,4.13112841 1.8,7.0074131 C1.8,11.315024 5.12885613,14.8538086 9.34649815,15.2082319 L9.34649815,16.0370381 C7.94243492,16.1978921 6.92551175,16.7786015 6.92551175,16.7786015 C6.67468883,16.9312763 6.55473005,17.2284467 6.63106746,17.5119857 C6.7046787,17.7955246 6.96095394,17.9945477 7.25267207,18 L12.8362083,18 C13.1279264,17.9945477 13.3842016,17.7955246 13.4578129,17.5119857 C13.5341503,17.2284467 13.4141915,16.9312763 13.1633686,16.7786015 C13.1633686,16.7786015 12.1464454,16.1978921 10.7423822,16.0370381 L10.7423822,15.2300426 C12.1409924,15.1100838 13.4469075,14.6302487 14.5592527,13.8995906 C14.8018964,13.7796318 14.951845,13.5315351 14.9463927,13.2616283 C14.9436659,12.9917209 14.7828126,12.7490771 14.5347158,12.6372968 C14.2893452,12.5255172 14.0003539,12.5691386 13.7958786,12.7436241 C12.7544185,13.4306608 11.5139355,13.8314324 10.1753043,13.8559692 C10.0880616,13.8396116 10.0008188,13.8396116 9.91357604,13.8559692 C6.18940137,13.7850848 3.19588405,10.7506723 3.19588405,7.0074131 C3.19588405,4.61096355 4.4309141,2.51441131 6.29300179,1.29301277 C6.57381457,1.12125342 6.69649952,0.775009271 6.58471992,0.464206613 C6.47566648,0.153404654 6.16213766,-0.0374392173 5.83497733,0.00618215929 Z M10.0444402,0.725934873 C8.92391589,0.725934873 7.87700285,1.02583219 6.96913313,1.55474103 C6.87916421,1.59563624 6.79192146,1.65288913 6.70740487,1.70741585 C6.59562526,1.78102709 6.494751,1.8573645 6.40205523,1.94733342 C4.89166541,3.07058386 3.89382608,4.8590603 3.89382608,6.87654897 C3.89382608,8.0706845 4.23734477,9.18030275 4.83168567,10.1263415 C4.85349636,10.1726891 4.88348623,10.2190373 4.91892843,10.2572057 C6.02309435,11.9175441 7.90971888,13.0271631 10.0444402,13.0271631 C11.2740179,13.0271631 12.419079,12.6727397 13.3814755,12.0456821 C13.4141915,12.0265976 13.4387284,12.0020607 13.4687182,11.98025 C15.1045199,10.8733579 16.1950543,8.99218574 16.1950543,6.87654897 C16.1950543,5.70967715 15.8706201,4.62459575 15.3008161,3.69218848 C15.2708262,3.5994934 15.2190263,3.51770297 15.1481412,3.45227091 C15.1426889,3.44409173 15.1317836,3.4386394 15.1263305,3.43046022 C15.112699,3.41410255 15.0990675,3.40047035 15.0827092,3.38683884 C13.9703641,1.79193244 12.1273609,0.725934873 10.0444402,0.725934873 Z M10.0444402,1.86009066 C10.5024646,1.86009066 10.9550368,1.92007041 11.3748922,2.03457617 L10.6115181,2.536222 C10.3606952,2.33992581 10.1016931,2.16271414 9.84814398,2.01276548 C9.76635425,1.96369178 9.69001684,1.92552273 9.60822641,1.88190135 C9.74999588,1.87099601 9.89994454,1.86009066 10.0444402,1.86009066 Z M7.88518203,2.49260062 C8.2586899,2.4871483 8.73579888,2.62619092 9.28106608,2.95062508 C9.3846672,3.01333098 9.50189913,3.09512071 9.60822641,3.16873196 L6.86007968,4.93539771 C6.838269,4.8099866 6.80827912,4.6845748 6.79464762,4.56461601 C6.68559418,3.55314517 6.94459628,2.89882452 7.33991483,2.64527544 C7.34536785,2.64254928 7.35627319,2.6480016 7.36172551,2.64527544 C7.50622115,2.55803269 7.66980131,2.49532679 7.88518203,2.49260062 Z M12.5962907,2.57984338 C12.6044699,2.57984338 12.6099222,2.57984338 12.6181014,2.57984338 C13.1252002,2.88246685 13.5777717,3.25597471 13.9485534,3.71399917 L12.5526693,4.60823739 C12.2118775,4.13112841 11.8629065,3.68128314 11.4839456,3.29959609 L12.5962907,2.57984338 Z M10.5024646,3.93210605 C10.8786994,4.30016159 11.2467542,4.73637536 11.592999,5.21893666 L7.90699272,7.59630168 C7.60982227,7.08102435 7.36717854,6.56302015 7.18724001,6.0695535 L10.5024646,3.93210605 Z M5.68230252,4.39013051 C5.68775554,4.48555244 5.69320786,4.57824752 5.7041132,4.67366945 C5.73410308,4.96266142 5.80771432,5.26255804 5.87859871,5.56790767 L5.09341393,6.0695535 C5.18883587,5.46430725 5.39331125,4.90268168 5.68230252,4.39013051 Z M14.537442,4.65185877 C14.7882649,5.16440994 14.9736557,5.71513017 15.0390878,6.30947108 C15.0227301,6.32310258 15.0090979,6.33673478 14.9954664,6.35309245 L13.8831213,7.07284517 C13.6950043,6.57119934 13.4550867,6.05319584 13.1633686,5.54609699 L14.537442,4.65185877 Z M12.2036983,6.15679626 C12.5008688,6.67480045 12.7435132,7.18735163 12.923451,7.68354444 L9.58641572,9.82099189 C9.2101817,9.45293635 8.84212616,9.01672259 8.49588131,8.53416128 L12.2036983,6.15679626 Z M6.20575903,6.68025278 C6.39660291,7.18462477 6.65287814,7.69717594 6.94732244,8.20700096 L5.55143839,9.10123918 C5.29788931,8.58323568 5.11249846,8.02161011 5.04979256,7.42181618 L6.20575903,6.68025278 Z M14.9954664,7.68354444 C14.9000445,8.28879139 14.6955698,8.85041626 14.4065778,9.36296744 C14.4011255,9.26209318 14.3956725,9.16121892 14.3847671,9.0576178 C14.3547773,8.77680501 14.3002506,8.48236072 14.2320923,8.18519027 L14.9954664,7.68354444 Z M13.2288007,8.81770023 C13.2506114,8.94038518 13.2806012,9.07397617 13.2942327,9.18848193 C13.4032862,10.1999528 13.1442841,10.8324627 12.7489655,11.0860118 C12.353647,11.3395609 11.682968,11.3204771 10.8078143,10.8024729 C10.7042138,10.739767 10.5869812,10.6579772 10.4806539,10.584366 L13.2288007,8.81770023 Z M7.53621102,9.14486055 C7.87972971,9.6246957 8.24505839,10.0690886 8.62674544,10.4535019 L7.47077896,11.1950653 C6.9636808,10.8951686 6.51110867,10.5162078 6.14032697,10.0609095 L7.53621102,9.14486055 Z M9.49917297,11.2168759 C9.7418167,11.404993 9.99536647,11.5740261 10.2407364,11.7185218 C10.3361583,11.7757747 10.4261272,11.819396 10.5242753,11.8711966 C10.3688743,11.8848281 10.202568,11.8930073 10.0444402,11.8930073 C9.58641572,11.8930073 9.13384429,11.8330282 8.71398819,11.7185218 L9.49917297,11.2168759 Z" id="Shape" fill="color(display-p3 0.000 0.000 0.000)"></path>
    </g>
</svg>