<?xml version="1.0" encoding="UTF-8"?>
<svg width="17px" height="17px" viewBox="0 0 17 17" version="1.1" xmlns="http://www.w3.org/2000/svg" xmlns:xlink="http://www.w3.org/1999/xlink">
    <title>Graph</title>
    <g id="Graph" stroke="none" fill="none" fill-rule="nonzero">
        <path d="M0.930063747,9.59635107e-05 C0.409230675,0.00783006978 -0.00694666578,0.435968916 8.78788396e-05,0.956809187 L8.78788396e-05,16.0561632 C8.78788396e-05,16.577338 0.422712783,16.9999676 0.94388763,16.9999676 L16.0432416,16.9999676 C16.3835772,17.004686 16.7001403,16.825876 16.8717127,16.5319128 C17.0432851,16.2379496 17.0432851,15.8743768 16.8717127,15.5804135 C16.7001403,15.2864503 16.3835772,15.1076403 16.0432416,15.1124535 L1.88759725,15.1124535 L1.88759725,0.956809187 C1.89108434,0.701886488 1.79129157,0.456396279 1.61093036,0.276208662 C1.43056916,0.0960210439 1.18498297,-0.00353529487 0.930063747,9.59635107e-05 Z M16.0625952,1.41659546 C15.7174069,1.41198373 15.3971946,1.59612341 15.227633,1.89683244 L12.7006297,6.22831216 L11.4104017,4.22108615 C11.2303291,3.94168847 10.9165589,3.7776156 10.5843597,3.78914236 C10.2521605,3.80066912 9.95051735,3.98609581 9.79024382,4.27730293 L7.86227431,7.78303696 L6.38772802,6.01450295 C6.19321257,5.78108174 5.89821498,5.65558323 5.59514875,5.67732218 C5.29208252,5.69906112 5.01801688,5.86537854 4.85880802,6.12417239 L2.97138877,9.19122866 C2.79230921,9.47841539 2.78071283,9.8395048 2.9409964,10.1375902 C3.10127997,10.4356755 3.40890275,10.6251175 3.74722983,10.6340894 C4.08555691,10.6430612 4.40278763,10.4701893 4.57864423,10.1810177 L5.77763485,8.23277358 L7.29641753,10.0547598 C7.49625901,10.2943108 7.80156337,10.4196354 8.11207582,10.3895799 C8.42258828,10.3595244 8.69818903,10.1779721 8.84837726,9.90454055 L10.6795793,6.57483054 L11.9467675,8.5451929 C12.1243925,8.82139407 12.4328148,8.9854132 12.7611236,8.97826785 C13.0894324,8.97112251 13.3904266,8.79383998 13.5558665,8.5101723 L16.8588502,2.84791456 C17.0335919,2.55823866 17.0399276,2.19719307 16.8754569,1.90156463 C16.7109862,1.60593618 16.4008682,1.42094726 16.0625952,1.41659546 Z" id="Shape" fill="#000000"></path>
    </g>
</svg>