<?xml version="1.0" encoding="UTF-8"?>
<svg width="13px" height="13px" viewBox="0 0 13 13" version="1.1" xmlns="http://www.w3.org/2000/svg" xmlns:xlink="http://www.w3.org/1999/xlink">
    <title>Hamburger menu</title>
    <g id="Hamburger-menu" stroke="none" stroke-width="1" fill="none" fill-rule="evenodd">
        <path d="M0.598550121,8.90150915 C0.385722643,8.89849924 0.187761193,9.0103173 0.0804690827,9.19414602 C-0.0268230276,9.37797474 -0.0268230276,9.60533353 0.0804690827,9.78916225 C0.187761193,9.97299097 0.385722643,10.084809 0.598550121,10.0817991 L12.4014499,10.0817991 C12.6142774,10.084809 12.8122388,9.97299097 12.9195309,9.78916225 C13.026823,9.60533353 13.026823,9.37797474 12.9195309,9.19414602 C12.8122388,9.0103173 12.6142774,8.89849924 12.4014499,8.90150915 L0.598550121,8.90150915 Z M0.598550121,5.95078421 C0.385722643,5.9477743 0.187761193,6.05959237 0.0804690827,6.24342109 C-0.0268230276,6.42724981 -0.0268230276,6.65460859 0.0804690827,6.83843731 C0.187761193,7.02226603 0.385722643,7.13408409 0.598550121,7.13107418 L12.4014499,7.13107418 C12.6142774,7.13408409 12.8122388,7.02226603 12.9195309,6.83843731 C13.026823,6.65460859 13.026823,6.42724981 12.9195309,6.24342109 C12.8122388,6.05959237 12.6142774,5.9477743 12.4014499,5.95078421 L0.598550121,5.95078421 Z M0.598550121,3.00005927 C0.385722643,2.99704936 0.187761193,3.10886743 0.0804690827,3.29269615 C-0.0268230276,3.47652487 -0.0268230276,3.70388365 0.0804690827,3.88771237 C0.187761193,4.07154109 0.385722643,4.18335916 0.598550121,4.18034925 L12.4014499,4.18034925 C12.6142774,4.18335916 12.8122388,4.07154109 12.9195309,3.88771237 C13.026823,3.70388365 13.026823,3.47652487 12.9195309,3.29269615 C12.8122388,3.10886743 12.6142774,2.99704936 12.4014499,3.00005927 L0.598550121,3.00005927 Z" id="Shape" fill="#000000" fill-rule="nonzero"></path>
    </g>
</svg>