<?xml version="1.0" encoding="UTF-8"?>
<svg width="30px" height="30px" viewBox="0 0 30 30" version="1.1" xmlns="http://www.w3.org/2000/svg" xmlns:xlink="http://www.w3.org/1999/xlink">
    <title>Hamburger menu</title>
    <g id="Hamburger-menu" stroke="none" stroke-width="1" fill="none" fill-rule="evenodd">
        <path d="M8.59986164,11.0000594 C8.38656782,10.9970429 8.18817261,11.109106 8.0806454,11.2933375 C7.9731182,11.477569 7.9731182,11.705426 8.0806454,11.8896575 C8.18817261,12.073889 8.38656782,12.1859521 8.59986164,12.1829356 L20.4286234,12.1829356 C20.6419172,12.1859521 20.8403124,12.073889 20.9478396,11.8896575 C21.0553668,11.705426 21.0553668,11.477569 20.9478396,11.2933375 C20.8403124,11.109106 20.6419172,10.9970429 20.4286234,11.0000594 L8.59986164,11.0000594 Z M8.59986164,13.9572498 C8.38656782,13.9542333 8.18817261,14.0662964 8.0806454,14.2505279 C7.9731182,14.4347594 7.9731182,14.6626164 8.0806454,14.8468479 C8.18817261,15.0310794 8.38656782,15.1431425 8.59986164,15.140126 L20.4286234,15.140126 C20.6419172,15.1431425 20.8403124,15.0310794 20.9478396,14.8468479 C21.0553668,14.6626164 21.0553668,14.4347594 20.9478396,14.2505279 C20.8403124,14.0662964 20.6419172,13.9542333 20.4286234,13.9572498 L8.59986164,13.9572498 Z M8.59986164,16.9144403 C8.38656782,16.9114238 8.18817261,17.0234868 8.0806454,17.2077184 C7.9731182,17.3919499 7.9731182,17.6198068 8.0806454,17.8040383 C8.18817261,17.9882699 8.38656782,18.1003329 8.59986164,18.0973164 L20.4286234,18.0973164 C20.6419172,18.1003329 20.8403124,17.9882699 20.9478396,17.8040383 C21.0553668,17.6198068 21.0553668,17.3919499 20.9478396,17.2077184 C20.8403124,17.0234868 20.6419172,16.9114238 20.4286234,16.9144403 L8.59986164,16.9144403 Z" id="Shape" fill="#000000" fill-rule="nonzero"></path>
    </g>
</svg>