<?xml version="1.0" encoding="UTF-8"?>
<svg width="17px" height="17px" viewBox="0 0 17 17" version="1.1" xmlns="http://www.w3.org/2000/svg" xmlns:xlink="http://www.w3.org/1999/xlink">
    <title>Happy jam</title>
    <g id="Happy-jam" stroke="none" fill="none" fill-rule="nonzero">
        <path d="M3.13517622,0.925 C2.74196638,0.925 2.37227544,1.07798549 2.09362862,1.35663235 C1.81609048,1.63490961 1.66271809,2.00426562 1.66271809,2.39673634 L1.66271809,3.86847275 L0.125298563,5.74802206 C0.0281047783,5.86665021 -0.0151970115,6.01982651 0.00475912679,6.17171489 C0.0247152282,6.32360328 0.107582871,6.46050128 0.232123956,6.54993434 C0.651202861,6.84927642 1.13646733,7.06296786 1.66271809,7.19305232 L1.66271809,7.1973828 C2.89260751,7.46679066 4.40102811,7.31926787 5.56328839,6.73832251 C5.67267759,6.68436702 5.80115114,6.68639368 5.90758388,6.74626209 C7.46342355,7.61102809 8.99833109,7.6075232 10.737102,6.73832251 C10.8464912,6.68436702 10.9749648,6.68639368 11.0813975,6.74626209 C12.5559344,7.56520288 14.642298,7.50654144 16.6623027,6.58818952 C16.682628,6.57895057 16.7036814,6.57929685 16.7243767,6.57375347 C16.8544611,6.49725494 16.9509276,6.37368986 16.9856661,6.2251275 C17.0244693,6.05771767 16.9835293,5.88106298 16.8745096,5.74802206 L15.3363685,3.86847275 L15.3363685,2.39673634 C15.3363685,2.00426562 15.1837351,1.63527917 14.9054578,1.35663235 C14.6316152,1.08278979 14.251929,0.925 13.8646321,0.925 L3.13517622,0.925 Z M3.13517622,2.03367435 L13.8646321,2.03367435 C13.9603476,2.03367435 14.0543311,2.07251838 14.1215907,2.13977796 C14.1906977,2.20888533 14.2276941,2.29991211 14.2276941,2.39673634 L14.2276941,3.51190682 L2.77139245,3.51190682 L2.77139245,2.39673634 C2.77139245,2.29954255 2.80984959,2.20814621 2.87821784,2.13977796 C2.94695565,2.07140971 3.03798243,2.03367435 3.13517622,2.03367435 Z M2.48050978,4.62058117 L14.5192984,4.62058117 L15.5406358,5.86856157 C13.9367536,6.43805062 12.5009394,6.35325441 11.1708997,5.61376861 C11.0108814,5.52544422 10.8178102,5.52126933 10.6540959,5.60294167 C8.97482386,6.44294727 7.4949051,6.44638305 5.99708605,5.61376861 C5.83743732,5.52544422 5.64399655,5.52126933 5.48028231,5.60294167 C4.05083151,6.31803663 2.51867242,6.43221863 1.39854176,5.94218456 L2.48050978,4.62058117 Z M5.71847397,7.48321309 C4.47786737,8.05011524 2.96319311,8.1992955 1.66271809,7.95021333 L1.66271809,14.2399192 C1.66271809,14.7299532 1.85416073,15.1917623 2.2011758,15.5391469 C2.54819087,15.8854229 3.00963038,16.0768828 3.50040352,16.0768828 L13.4994048,16.0768828 C13.990178,16.0768828 14.4519871,15.8857924 14.7986326,15.5391469 C15.1456477,15.1921319 15.3363685,14.7303228 15.3363685,14.2399192 L15.3363685,7.82823033 C13.7173344,8.22254884 12.1416945,8.1096141 10.895175,7.48321309 C9.98458377,7.91337874 9.10469472,8.1284963 8.24547209,8.1284963 C7.38624947,8.1284963 6.54739283,7.91337874 5.71847397,7.48321309 Z M5.91263648,9.05527858 C6.2186306,9.05527858 6.46697366,9.30362164 6.46697366,9.60961576 C6.46697366,9.91560988 6.2186306,10.1639529 5.91263648,10.1639529 C5.60664236,10.1639529 5.3582993,9.91560988 5.3582993,9.60961576 C5.3582993,9.30362164 5.60664236,9.05527858 5.91263648,9.05527858 Z M10.716892,9.05527858 C11.0228861,9.05527858 11.2712292,9.30362164 11.2712292,9.60961576 C11.2712292,9.91560988 11.0228861,10.1639529 10.716892,10.1639529 C10.4108979,10.1639529 10.1625548,9.91560988 10.1625548,9.60961576 C10.1625548,9.30362164 10.4108979,9.05527858 10.716892,9.05527858 Z M7.062453,11.4595716 C7.15645934,11.4700116 7.24646411,11.5163509 7.31002811,11.5959906 C7.88210408,12.3114552 8.74779397,12.3114552 9.31950037,11.5959906 C9.44699792,11.4370806 9.67955974,11.4111192 9.83846973,11.5382472 C9.99848839,11.6657447 10.0244325,11.8982892 9.89693493,12.0579383 C9.46787796,12.5941671 8.90605723,12.889444 8.31476424,12.889444 C7.72347125,12.889444 7.16237227,12.5941671 6.7333153,12.0579383 C6.60581775,11.8982892 6.63105746,11.6657447 6.79033701,11.5382472 C6.86997678,11.4744984 6.96844665,11.4491316 7.062453,11.4595716 Z" id="Shape" fill="color(display-p3 0.000 0.000 0.000)"></path>
    </g>
</svg>