<?xml version="1.0" encoding="UTF-8"?>
<svg width="21px" height="21px" viewBox="0 0 21 21" version="1.1" xmlns="http://www.w3.org/2000/svg" xmlns:xlink="http://www.w3.org/1999/xlink">
    <title>Happy toast</title>
    <g id="Happy-toast" stroke="none" fill="none" fill-rule="nonzero">
        <path d="M10.3713597,1.40309028 C7.91531465,1.37254482 5.50716056,1.56809243 3.16566046,2.00527415 C1.12484228,2.38804698 0,3.63274437 0,5.5065171 C0,6.8820171 0.768409091,8.11436487 1.90909091,8.68709214 L1.90909091,16.6627671 C1.90909091,18.2415853 3.19390909,19.5264035 4.77272727,19.5264035 L5.72727273,19.5264035 L15.2727273,19.5264035 L16.2272727,19.5264035 C17.8060909,19.5264035 19.0909091,18.2415853 19.0909091,16.6627671 L19.0909091,8.68709214 C20.2315909,8.11436487 21,6.88388142 21,5.50838142 C21,4.29706324 20.463471,2.70977347 17.8212892,2.00340983 C15.3003346,1.5681371 12.8111779,1.37254482 10.3713597,1.40309028 Z M7.63636364,9.02640346 C8.16327273,9.02640346 8.59090909,9.45403983 8.59090909,9.98094892 C8.59090909,10.507858 8.16327273,10.9354944 7.63636364,10.9354944 C7.10945455,10.9354944 6.68181818,10.507858 6.68181818,9.98094892 C6.68181818,9.45403983 7.10945455,9.02640346 7.63636364,9.02640346 Z M13.3181818,9.02640346 C13.8450909,9.02640346 14.2727273,9.45403983 14.2727273,9.98094892 C14.2727273,10.507858 13.8450909,10.9354944 13.3181818,10.9354944 C12.7912727,10.9354944 12.3636364,10.507858 12.3636364,9.98094892 C12.3636364,9.45403983 12.7912727,9.02640346 13.3181818,9.02640346 Z M8.115,12.8445853 L12.8877273,12.8445853 C12.8877273,13.899358 11.8195909,14.7536762 10.5013636,14.7536762 C9.18313636,14.7536762 8.115,13.899358 8.115,12.8445853 Z" id="Shape" fill="color(display-p3 0.000 0.000 0.000)"></path>
    </g>
</svg>