<?xml version="1.0" encoding="UTF-8"?>
<svg width="17px" height="17px" viewBox="0 0 17 17" version="1.1" xmlns="http://www.w3.org/2000/svg" xmlns:xlink="http://www.w3.org/1999/xlink">
    <title>heart_filled</title>
    <g id="heart_filled" stroke="none" fill="none" fill-rule="nonzero">
        <path d="M4.73295455,1.06 C3.398793,1.06 2.18536932,1.52182509 1.328125,2.36397727 C0.470880682,3.20612945 0,4.41049755 0,5.79295455 C0,8.13226582 1.4337715,9.87693873 3.06676136,11.3469318 C4.69975123,12.8169249 6.60440341,14.1178839 7.89630682,15.6452273 C8.03817491,15.823317 8.24946714,15.9289635 8.47585227,15.935 L8.52414773,15.935 C8.75053286,15.9289635 8.96182509,15.823317 9.10369318,15.6452273 C10.3955966,14.1178839 12.3002488,12.8169249 13.9332386,11.3469318 C15.5662285,9.87693873 17,8.13226582 17,5.79295455 C17,4.41049755 16.5049716,3.20612945 15.6477273,2.36397727 C14.790483,1.52182509 13.6012078,1.06 12.2670455,1.06 C10.9449578,1.06 9.86132832,1.78141355 9.10369318,2.43642045 C8.73242168,2.75637823 8.71431127,2.84391355 8.5,3.08840909 C8.28870777,2.84391355 8.26757832,2.75637823 7.89630682,2.43642045 C7.14169073,1.78141355 6.055043,1.06 4.73295455,1.06 Z" id="Shape" fill="color(display-p3 0.000 0.000 0.000)"></path>
    </g>
</svg>