<?xml version="1.0" encoding="UTF-8"?>
<svg width="17px" height="17px" viewBox="0 0 17 17" version="1.1" xmlns="http://www.w3.org/2000/svg" xmlns:xlink="http://www.w3.org/1999/xlink">
    <title>hearth_monitor</title>
    <g id="hearth_monitor" stroke="none" fill="none" fill-rule="nonzero">
        <path d="M12.1183059,0.844422655 C9.78831818,0.939628281 8.50049208,2.61677738 8.50049208,2.61677738 C8.50049208,2.61677738 7.12086056,0.819771198 4.63361359,0.840172404 C3.68750768,0.847822856 2.78645444,1.24479631 2.04266049,1.82963087 C0.0161407408,3.422625 -0.253325182,5.14737692 0.172549983,6.79052401 L3.11712398,6.79052401 L4.59026103,5.68545871 C4.98043408,5.39304143 5.53721698,5.48824706 5.80753296,5.89372102 L7.00950398,7.69582751 L7.76434859,7.12969405 C8.05846596,6.90868099 8.41633711,6.78967396 8.78440886,6.78967396 L9.58685628,6.78967396 C9.94642753,6.17168745 10.6749206,5.79596524 11.477368,5.99232685 C12.0894042,6.14193569 12.5832833,6.65621608 12.712491,7.27250249 C12.9428546,8.37246749 12.1098054,9.3406747 11.0506428,9.3406747 C10.4233057,9.3406747 9.88097366,8.99640436 9.58600623,8.49062447 L8.78355881,8.49062447 L7.31042176,9.59568977 C6.92024871,9.88810705 6.36346581,9.79290142 6.09314983,9.38742746 L4.89117881,7.58532098 L4.13718425,8.15060438 C3.84306688,8.37161744 3.48519573,8.49062447 3.11712398,8.49062447 L0.870441222,8.49062447 C2.15741727,10.8401633 4.51035631,12.8088796 5.33915528,13.5824253 C6.21725717,14.4001737 7.30022116,15.3717811 7.94370918,15.9447149 C8.26247802,16.2286317 8.7376561,16.2286317 9.05642493,15.9447149 C9.69991296,15.3717811 10.783727,14.4001737 11.6609788,13.5824253 C13.1230652,12.2197948 19.3386325,7.14414491 16.0557385,2.80548854 C15.1130328,1.55846485 13.6806982,0.780668888 12.1183059,0.844422655 Z" id="Path" fill="color(display-p3 0.000 0.000 0.000)"></path>
    </g>
</svg>