<?xml version="1.0" encoding="UTF-8"?>
<svg width="17px" height="17px" viewBox="0 0 17 17" version="1.1" xmlns="http://www.w3.org/2000/svg" xmlns:xlink="http://www.w3.org/1999/xlink">
    <title>horizontal_bar_indicator</title>
    <g id="horizontal_bar_indicator" stroke="none" fill="none" fill-rule="nonzero">
        <path d="M1.95,10.4501336 C1.95,12.25878 2.68334271,13.8960473 3.86864772,15.0813523 C5.05395274,16.2666573 6.69122005,17 8.49986637,17 C10.3085127,17 11.94578,16.2666573 13.131085,15.0813523 C14.31639,13.8960473 15.0497327,12.25878 15.0497327,10.4501336 C15.0497327,9.48084588 14.4319712,7.94242041 13.5766704,6.25652928 C12.7373119,4.60252262 11.6739649,2.80264454 10.7509096,1.27139307 C10.5085877,0.86885169 10.1817719,0.552398368 9.7959699,0.333989778 C9.40937075,0.115581188 8.97016224,0 8.50066348,0 C8.03116472,0 7.59195621,0.1163783 7.20535706,0.333989778 C6.81875791,0.552398368 6.49273925,0.86885169 6.25041731,1.27139307 C5.32736203,2.80344165 4.26321799,4.60252262 3.42465654,6.25652928 C2.56776152,7.94242041 1.95,9.48084588 1.95,10.4501336 Z" id="Shape" fill="color(display-p3 0.000 0.000 0.000)"></path>
    </g>
</svg>