<?xml version="1.0" encoding="UTF-8"?>
<svg width="17px" height="17px" viewBox="0 0 17 17" version="1.1" xmlns="http://www.w3.org/2000/svg" xmlns:xlink="http://www.w3.org/1999/xlink">
    <title>hour_glass</title>
    <g id="hour_glass" stroke="none" fill="none" fill-rule="nonzero">
        <path d="M4.71277292,1.09844251e-05 C4.66708837,0.00101308849 4.62153618,0.00532208876 4.57647631,0.0129159308 L2.84145659,0.0129159308 C2.5013677,0.00810622744 2.18503407,0.186786547 2.01358603,0.4805367 C1.84213799,0.774286853 1.84213799,1.13759612 2.01358603,1.43134627 C2.18503407,1.72509642 2.5013677,1.90377674 2.84145659,1.89896704 L3.78448214,1.89896704 L3.78448214,3.16615763 C3.78448214,4.41616658 4.28073802,5.61594989 5.16586728,6.49990027 L7.16611331,8.50014592 L5.16586728,10.5003918 C4.28073802,11.3843424 3.78448214,12.5841256 3.78448214,13.8341342 L3.78448214,15.1013248 L2.84145659,15.1013248 C2.5013677,15.0965151 2.18503407,15.2751954 2.01358603,15.5689456 C1.84213799,15.8626957 1.84213799,16.226005 2.01358603,16.5197551 C2.18503407,16.8135053 2.5013677,16.9921856 2.84145659,16.9873759 L4.56910883,16.9873759 C4.67094748,17.004208 4.77485861,17.004208 4.87669726,16.9873759 L12.1133131,16.9873759 C12.2151518,17.004208 12.3190629,17.004208 12.4209016,16.9873759 L14.1577632,16.9873759 C14.4978521,16.9921856 14.8141858,16.8135053 14.9856338,16.5197551 C15.1570818,16.226005 15.1570818,15.8626957 14.9856338,15.5689456 C14.8141858,15.2751954 14.4978521,15.0965151 14.1577632,15.1013248 L13.2147377,15.1013248 L13.2147377,13.8341342 C13.2147377,12.5842397 12.7172549,11.3842934 11.8333524,10.5003918 L9.83310652,8.50014592 L11.8333524,6.49990027 C12.7179631,5.61529015 13.2147377,4.41616658 13.2147377,3.16615763 L13.2147377,1.89896704 L14.1577632,1.89896704 C14.4978521,1.90377674 14.8141858,1.72509642 14.9856338,1.43134627 C15.1570818,1.13759612 15.1570818,0.774286853 14.9856338,0.4805367 C14.8141858,0.186786547 14.4978521,0.00810622744 14.1577632,0.0129159308 L12.4301112,0.0129159308 C12.3282725,-0.00391617763 12.2243613,-0.00391617763 12.1225227,0.0129159308 L4.87301362,0.0129159308 C4.82006434,0.00406553885 4.76645608,-0.000247776747 4.71277292,1.09844251e-05 Z M5.67053325,1.89896704 L11.3286866,1.89896704 L11.3286866,3.16615763 C11.3286866,3.72667137 11.1621398,4.26820115 10.8571738,4.72804371 L6.14204603,4.72804371 C5.8365728,4.26859402 5.67053325,3.72722473 5.67053325,3.16615763 L5.67053325,1.89896704 Z M8.49960992,9.83364253 L10.4998558,11.8338884 C11.0304915,12.3645251 11.3286866,13.0848146 11.3286866,13.8341342 L11.3286866,15.1013248 L10.1996341,15.1013248 C10.0149907,14.6055018 9.72080632,14.1959269 9.41684938,13.8967568 C8.91233071,13.4016684 8.08688912,13.4016684 7.58237045,13.8967568 C7.27781563,14.1959269 6.98430836,14.6055018 6.79958568,15.1013248 L5.67053325,15.1013248 L5.67053325,13.8341342 C5.67053325,13.0830427 5.96806913,12.3663187 6.49936426,11.8357301 L8.49960992,9.83364253 Z" id="Shape" fill="color(display-p3 0.000 0.000 0.000)"></path>
    </g>
</svg>