<?xml version="1.0" encoding="UTF-8"?>
<svg width="21px" height="21px" viewBox="0 0 21 21" version="1.1" xmlns="http://www.w3.org/2000/svg" xmlns:xlink="http://www.w3.org/1999/xlink">
    <title>Image check</title>
    <g id="Image-check" stroke="none" stroke-width="1" fill="none" fill-rule="evenodd">
        <path d="M6.375,12.2099167 L10.128818,15.9659733 C10.2528291,16.5419826 10.4631295,17.0859203 10.7455217,17.5835889 L2.125,17.5833333 C1.80944684,17.5821117 1.49826531,17.5094623 1.21479167,17.3708333 L6.375,12.2099167 Z M14.875,2 C16.0486051,2 17,2.95139491 17,4.125 L17.0009602,9.13646528 C16.5982352,9.04711692 16.17962,9 15.75,9 C14.0137626,9 12.4572588,9.76953107 11.4029525,10.9861293 L11.1257917,10.7075417 C10.8491876,10.4310211 10.4008124,10.4310211 10.1242083,10.7075417 L8.5,12.33175 L6.87579167,10.7075417 C6.59776128,10.434487 6.15223872,10.434487 5.87420833,10.7075417 L0.2125,16.3685417 C0.0738710575,16.085068 0.00122167337,15.7738865 -2.13162821e-13,15.4583333 L-2.13162821e-13,4.125 C-2.13162821e-13,2.95139491 0.951394907,2 2.125,2 L14.875,2 Z M10.0630025,13.8958783 L9.50158333,13.3333333 L10.5566974,12.278659 C10.3168773,12.7817193 10.1479988,13.3251059 10.0630025,13.8958783 Z M12.0416667,4.83333333 C10.8680616,4.83333333 9.91666667,5.78472824 9.91666667,6.95833333 C9.91666667,8.13193843 10.8680616,9.08333333 12.0416667,9.08333333 C13.2152718,9.08333333 14.1666667,8.13193843 14.1666667,6.95833333 C14.1666667,5.78472824 13.2152718,4.83333333 12.0416667,4.83333333 Z M12.0416667,6.25 C12.4328684,6.25 12.75,6.56713164 12.75,6.95833333 C12.75,7.34953503 12.4328684,7.66666667 12.0416667,7.66666667 C11.650465,7.66666667 11.3333333,7.34953503 11.3333333,6.95833333 C11.3333333,6.56713164 11.650465,6.25 12.0416667,6.25 Z" id="Combined-Shape" fill="#000000" fill-rule="nonzero"></path>
        <path d="M15.7997751,10 C13.1598988,10 11,12.1598988 11,14.7997751 C11,17.4396514 13.1598988,19.5995501 15.7997751,19.5995501 C18.4396514,19.5995501 20.5995501,17.4396514 20.5995501,14.7997751 C20.5995501,13.9198163 20.3597178,13.1198538 19.9597365,12.3998875 L15.4396355,16.9199881 C15.3596393,16.9999844 15.2799558,17.0395137 15.1599614,17.0395137 C15.0399671,17.0395137 14.959502,16.9999844 14.8795058,16.9199881 L13.0795901,15.1200725 C12.9195976,14.96008 12.9195975,14.7199352 13.0795901,14.5599427 C13.2395825,14.3999502 13.4797276,14.3999502 13.6397201,14.5599427 L15.1599614,16.0794027 L19.4792902,11.7202319 C18.5993315,10.6802806 17.2797057,10 15.7997751,10 Z M19.4792902,11.7202319 C19.6792809,11.9202225 19.8397421,12.1598988 19.9597365,12.3998875 L20.8792246,11.4796182 C21.0392171,11.3196257 21.0392171,11.0796369 20.8792246,10.8796463 C20.7192321,10.7196538 20.4798681,10.7196538 20.3198756,10.8796463 L19.4792902,11.7202319 Z" id="Shape" fill="#000000" fill-rule="nonzero"></path>
    </g>
</svg>