<?xml version="1.0" encoding="UTF-8"?>
<svg width="21px" height="21px" viewBox="0 0 21 21" version="1.1" xmlns="http://www.w3.org/2000/svg" xmlns:xlink="http://www.w3.org/1999/xlink">
    <title>Image add</title>
    <g id="Image-add" stroke="none" stroke-width="1" fill="none" fill-rule="evenodd">
        <path d="M16.0526424,8.99519573 C18.7849331,8.99519573 21,11.2102627 21,13.9425534 C21,16.6748441 18.7849331,18.889911 16.0526424,18.889911 C13.3203516,18.889911 11.1052847,16.6748441 11.1052847,13.9425534 C11.1052847,11.2102627 13.3203516,8.99519573 16.0526424,8.99519573 Z M6.375,12.2099167 L10.4552589,16.2918102 C10.6470596,16.7543419 10.8950504,17.1876874 11.1907156,17.5833307 L2.125,17.5833333 C1.80944684,17.5821117 1.49826531,17.5094623 1.21479167,17.3708333 L6.375,12.2099167 Z M16.0525976,10.3125414 C15.8038995,10.3125414 15.602886,10.5135549 15.602886,10.7622529 L15.602886,13.4928232 L12.8723157,13.4928232 C12.6236177,13.4928232 12.4226042,13.6938367 12.4226042,13.9425348 C12.4226042,14.0665658 12.4728723,14.1791477 12.5542876,14.2605629 C12.6357028,14.3419782 12.7482847,14.3922463 12.8723157,14.3922463 L15.602886,14.3922463 L15.602886,17.1228166 C15.602886,17.2468476 15.6531542,17.3594296 15.7345694,17.4408448 C15.8159846,17.52226 15.9285666,17.5725282 16.0525976,17.5725282 C16.3012956,17.5725282 16.5023091,17.3715146 16.5023091,17.1228166 L16.5023091,14.3922463 L19.2328794,14.3922463 C19.4815774,14.3922463 19.682591,14.1912328 19.682591,13.9425348 C19.682591,13.6938367 19.4815774,13.4928232 19.2328794,13.4928232 L16.5023091,13.4928232 L16.5023091,10.7622529 C16.5023091,10.6379039 16.4519615,10.5255605 16.3706258,10.4442248 C16.28929,10.362889 16.1769466,10.3125414 16.0525976,10.3125414 Z M14.875,2 C16.0486051,2 17,2.95139491 17,4.125 L17.0007889,8.07829164 C16.6753308,8.02364228 16.3409866,7.99519573 16,7.99519573 C15.0732916,7.99519573 14.1956439,8.20530308 13.4120959,8.58047864 C13.87398,8.19185889 14.1666667,7.60927643 14.1666667,6.95833333 C14.1666667,5.78472824 13.2152718,4.83333333 12.0416667,4.83333333 C10.8680616,4.83333333 9.91666667,5.78472824 9.91666667,6.95833333 C9.91666667,8.13193843 10.8680616,9.08333333 12.0416667,9.08333333 C12.2777092,9.08333333 12.504763,9.0448478 12.7168955,8.9738093 C12.0520511,9.40782155 11.4789947,9.9716202 11.0328512,10.6285731 C10.7567895,10.4340788 10.3717262,10.4600985 10.1242083,10.7075417 L8.5,12.33175 L6.87579167,10.7075417 C6.59776128,10.434487 6.15223872,10.434487 5.87420833,10.7075417 L0.2125,16.3685417 C0.0738710575,16.085068 0.00122167337,15.7738865 1.49213975e-13,15.4583333 L1.49213975e-13,4.125 C1.49213975e-13,2.95139491 0.951394907,2 2.125,2 L14.875,2 Z M10.0020963,13.8350348 L9.50158333,13.3333333 L10.1415423,12.6937486 C10.0599703,13.0625728 10.0123401,13.4441497 10.0020963,13.8350348 Z M12.0416667,6.25 C12.4328684,6.25 12.75,6.56713164 12.75,6.95833333 C12.75,7.34953503 12.4328684,7.66666667 12.0416667,7.66666667 C11.650465,7.66666667 11.3333333,7.34953503 11.3333333,6.95833333 C11.3333333,6.56713164 11.650465,6.25 12.0416667,6.25 Z" id="Combined-Shape" fill="#000000" fill-rule="nonzero"></path>
    </g>
</svg>