<?xml version="1.0" encoding="UTF-8"?>
<svg width="27px" height="27px" viewBox="0 0 27 27" version="1.1" xmlns="http://www.w3.org/2000/svg" xmlns:xlink="http://www.w3.org/1999/xlink">
    <title>Image open</title>
    <g id="Image-open" stroke="none" stroke-width="1" fill="none" fill-rule="evenodd">
        <path d="M20.2068603,0 C21.8713702,0 22.9,1.00994109 22.9,2.67447363 L22.9,11.4647016 C22.9,12.3533722 22.9,13.2420427 22.8994913,14.1302045 C22.4459096,14.0447592 21.9781779,14 21.5,14 C20.2130517,14 19.0017702,14.324209 17.9433817,14.895401 C17.0117132,13.2287483 16.0710916,11.543813 15.1385209,9.87497955 C15.0076044,9.63184559 14.8579855,9.5009273 14.727069,9.5009273 C14.5961525,9.5009273 14.4091289,9.63184559 14.25951,9.85627694 C14.2221053,9.89368216 14.2034029,9.93108739 14.1659982,9.98719523 L13.7545463,10.6417867 C13.5488203,10.9784337 13.3430944,11.2963781 13.1373684,11.6143225 C12.9690472,11.8948617 12.800726,12.1754009 12.6324047,12.4372375 C12.3518693,12.9048028 12.0526316,13.3536655 11.7720962,13.8025282 C11.3606443,14.4758223 10.7995735,15.1491164 9.93926497,14.6441458 C9.30338475,14.2700936 8.87323049,13.3910708 8.05032668,13.3910708 C7.4892559,13.3910708 6.94688748,13.7277178 6.55413793,14.3074988 C6.55172472,14.3111186 6.53732332,14.3314755 6.51242033,14.3664851 L6.40769314,14.5133876 C6.18559517,14.8245412 5.73812218,15.4499057 5.25109871,16.1289466 L4.95562516,16.540728 C4.21250913,17.5758631 3.46402553,18.6145295 3.33733212,18.7774232 C3.26252269,18.8896389 2.75755898,19.2636912 3.00068966,19.4133121 C3.03809437,19.4320147 3.07549909,19.4507173 3.09420145,19.4507173 C3.13160617,19.4694199 3.13160617,19.4694199 3.15030853,19.4694199 C3.54305808,19.5068251 3.8984029,19.4320147 4.27245009,19.4320147 C4.66519964,19.4320147 5.07665154,19.4507173 5.46940109,19.4507173 C6.32970962,19.4507173 7.20872051,19.4694199 8.06902904,19.4694199 L14.2781989,19.4693208 C14.0969419,20.1151708 14,20.7962728 14,21.5 C14,22.068138 14.0631845,22.6215294 14.1829093,23.1535301 L2.7949637,23.1538346 C1.29877495,23.1538346 0.00831215971,21.8446517 0.00831215971,20.3484427 C-0.0103901996,14.4197145 0.00831215971,8.50968882 0.00831215971,2.58096056 C0.00831215971,1.32788551 0.962132486,0.261836579 2.21519056,0.0561078384 C2.45832123,0.0187026128 2.73885662,0 3.00068966,0 Z M6.83467332,3.45998337 C5.1888657,3.45998337 3.84229583,4.8252741 3.84229583,6.47110402 C3.84229583,8.11693395 5.1888657,9.48222468 6.85337568,9.48222468 C8.51788566,9.48222468 9.84575318,8.13563656 9.84575318,6.47110402 C9.84575318,4.78786887 8.4991833,3.44128075 6.83467332,3.45998337 Z" id="Combined-Shape" fill="#000000" fill-rule="nonzero"></path>
        <path d="M21.5,16 C24.537375,16 27,18.462625 27,21.5 C27,24.537375 24.537375,27 21.5,27 C18.462625,27 16,24.537375 16,21.5 C16,18.462625 18.462625,16 21.5,16 Z M21.5,18.8 C19.1,18.8 17.5526042,21.3088541 17.5526042,21.3088541 C17.5219601,21.3595651 17.5,21.40952 17.5,21.4666667 C17.5,21.5178957 17.5181562,21.5630016 17.5432292,21.6036459 C17.5429625,21.6119792 18.8333333,24.1333333 21.5,24.1333333 C24.1666667,24.1333333 25.4567709,21.6119792 25.4567709,21.6119792 C25.4818437,21.5630016 25.5,21.5178957 25.5,21.4666667 C25.5,21.40952 25.47804,21.3595651 25.4473957,21.3161459 C25.4473957,21.3088541 23.9,18.8 21.5,18.8 Z M21.5,19.6 C22.5309333,19.6 23.3666667,20.4357333 23.3666667,21.4666667 C23.3666667,22.4976 22.5309333,23.3333333 21.5,23.3333333 C20.4690667,23.3333333 19.6333333,22.4976 19.6333333,21.4666667 C19.6333333,20.4357333 20.4690667,19.6 21.5,19.6 Z M21.5,20.6666667 C21.0581333,20.6666667 20.7,21.0248 20.7,21.4666667 C20.7,21.9085333 21.0581333,22.2666667 21.5,22.2666667 C21.9418667,22.2666667 22.3,21.9085333 22.3,21.4666667 C22.3,21.0248 21.9418667,20.6666667 21.5,20.6666667 Z" id="Shape" fill="#000000" fill-rule="nonzero"></path>
    </g>
</svg>