<?xml version="1.0" encoding="UTF-8"?>
<svg width="27px" height="27px" viewBox="0 0 27 27" version="1.1" xmlns="http://www.w3.org/2000/svg" xmlns:xlink="http://www.w3.org/1999/xlink">
    <title>Image add</title>
    <g id="Image-add" stroke="none" stroke-width="1" fill="none" fill-rule="evenodd">
        <g id="image-upload" transform="translate(0, 0.5)" fill="#000000" fill-rule="nonzero">
            <path d="M21.3916336,12.44346 C17.6235124,12.44346 14.5564371,9.37641 14.5564371,5.60832 C14.5564371,4.73202 14.7097908,3.899535 15.0164984,3.1327725 L2.98918139,3.1327725 C2.72628922,3.1327725 2.46339704,3.15468 2.20050487,3.198495 C0.929859358,3.3956625 0.00973674721,4.46913 0.00973674721,5.7178575 C0.00973674721,11.65479 -0.012170934,17.569815 0.00973674721,23.48484 C0.00973674721,24.97455 1.30228994,26.289 2.79201226,26.289 L20.3619726,26.289 C20.8877569,26.289 21.3478182,26.11374 21.7640642,25.8289425 C22.530833,25.23744 22.8813559,24.404955 22.8813559,23.441025 C22.9032636,20.50542 22.9032636,17.5479075 22.9032636,14.590395 L22.9032636,12.2682 C22.4212946,12.3777375 21.917418,12.44346 21.3916336,12.44346 Z M6.8230256,6.5941575 C8.48800938,6.57225 9.84628561,7.930515 9.84628561,9.6173925 C9.84628561,11.2823625 8.53182474,12.61872 6.84493329,12.6406275 C5.17994951,12.6406275 3.82167328,11.2823625 3.82167328,9.6173925 C3.84358096,7.9524225 5.17994951,6.5941575 6.8230256,6.5941575 Z M20.1428958,22.43328 C20.0771727,22.52091 19.923819,22.5866325 19.7047422,22.5866325 C19.6828345,22.60854 19.6609268,22.60854 19.5952038,22.60854 L8.07176343,22.60854 C7.19545618,22.60854 6.31914894,22.5866325 5.46474937,22.5866325 C5.07041111,22.5866325 4.65416516,22.564725 4.2598269,22.564725 C3.88739632,22.564725 3.51496574,22.6304475 3.14253516,22.60854 C3.12062748,22.60854 3.12062748,22.60854 3.0987198,22.5866325 C3.07681212,22.5866325 3.03299675,22.5866325 2.98918139,22.5428175 C2.7481969,22.389465 3.25207357,22.0170375 3.33970429,21.9075 C3.60259647,21.5788875 6.51631807,17.482185 6.56013343,17.43837 C6.95447169,16.8468675 7.48025604,16.518255 8.04985575,16.518255 C8.88234764,16.518255 9.29859358,17.394555 9.95582402,17.7669825 C10.8102236,18.270855 11.3579156,17.5917225 11.7960692,16.9344975 C12.0808691,16.4963475 12.365669,16.03629 12.6504688,15.5762325 C12.8257303,15.3133425 13.0009917,15.028545 13.1543455,14.7437475 C13.3515146,14.415135 13.5705914,14.10843 13.7677605,13.7798175 L14.1840065,13.1225925 C14.2278219,13.0787775 14.2497295,13.0349625 14.2716372,12.9911475 C14.424991,12.7720725 14.6002524,12.6406275 14.7316985,12.6406275 C14.8631446,12.6406275 15.0164984,12.7720725 15.1479445,13.013055 C16.5719437,15.5324175 17.995943,18.1175025 19.3980346,20.636865 L20.0771727,21.863685 C20.1428958,21.951315 20.1648035,22.0608525 20.1867111,22.126575 C20.2086188,22.214205 20.2086188,22.34565 20.1428958,22.43328 Z" id="Shape"></path>
        </g>
        <path d="M21.5,0.5 C24.537375,0.5 27,2.962625 27,6 C27,9.037375 24.537375,11.5 21.5,11.5 C18.462625,11.5 16,9.037375 16,6 C16,2.962625 18.462625,0.5 21.5,0.5 Z M21.50025,2.67173197 C21.224111,2.6713784 21.0003005,2.89518889 21.0003005,3.17168146 L21.0003005,5.50030051 L18.6716815,5.50030051 C18.3955425,5.49994694 18.171732,5.72375743 18.171732,6.00025 C18.1713784,6.276389 18.3951889,6.50019949 18.6716815,6.50019949 L21.0003005,6.50019949 L21.0003005,8.82881854 C20.9999469,9.10495754 21.2237574,9.32876803 21.50025,9.32876803 C21.776389,9.3291216 22.0001995,9.10531111 22.0001995,8.82881854 L22.0001995,6.50019949 L24.3288185,6.50019949 C24.6049575,6.50055306 24.828768,6.27674257 24.828768,6.00025 C24.8291216,5.724111 24.6053111,5.50030051 24.3288185,5.50030051 L22.0001995,5.50030051 L22.0001995,3.17168146 C22.0005531,2.89554246 21.7767426,2.67173197 21.50025,2.67173197 Z" id="Shape" fill="#000000" fill-rule="nonzero"></path>
    </g>
</svg>