<?xml version="1.0" encoding="UTF-8"?>
<svg width="27px" height="27px" viewBox="0 0 27 27" version="1.1" xmlns="http://www.w3.org/2000/svg" xmlns:xlink="http://www.w3.org/1999/xlink">
    <title>Image missing</title>
    <g id="Image-missing" stroke="none" stroke-width="1" fill="none" fill-rule="evenodd">
        <g id="image-upload" transform="translate(0, 0.5)" fill="#000000" fill-rule="nonzero">
            <path d="M21.3916336,12.44346 C17.6235124,12.44346 14.5564371,9.37641 14.5564371,5.60832 C14.5564371,4.73202 14.7097908,3.899535 15.0164984,3.1327725 L2.98918139,3.1327725 C2.72628922,3.1327725 2.46339704,3.15468 2.20050487,3.198495 C0.929859358,3.3956625 0.00973674721,4.46913 0.00973674721,5.7178575 C0.00973674721,11.65479 -0.012170934,17.569815 0.00973674721,23.48484 C0.00973674721,24.97455 1.30228994,26.289 2.79201226,26.289 L20.3619726,26.289 C20.8877569,26.289 21.3478182,26.11374 21.7640642,25.8289425 C22.530833,25.23744 22.8813559,24.404955 22.8813559,23.441025 C22.9032636,20.50542 22.9032636,17.5479075 22.9032636,14.590395 L22.9032636,12.2682 C22.4212946,12.3777375 21.917418,12.44346 21.3916336,12.44346 Z M6.8230256,6.5941575 C8.48800938,6.57225 9.84628561,7.930515 9.84628561,9.6173925 C9.84628561,11.2823625 8.53182474,12.61872 6.84493329,12.6406275 C5.17994951,12.6406275 3.82167328,11.2823625 3.82167328,9.6173925 C3.84358096,7.9524225 5.17994951,6.5941575 6.8230256,6.5941575 Z M20.1428958,22.43328 C20.0771727,22.52091 19.923819,22.5866325 19.7047422,22.5866325 C19.6828345,22.60854 19.6609268,22.60854 19.5952038,22.60854 L8.07176343,22.60854 C7.19545618,22.60854 6.31914894,22.5866325 5.46474937,22.5866325 C5.07041111,22.5866325 4.65416516,22.564725 4.2598269,22.564725 C3.88739632,22.564725 3.51496574,22.6304475 3.14253516,22.60854 C3.12062748,22.60854 3.12062748,22.60854 3.0987198,22.5866325 C3.07681212,22.5866325 3.03299675,22.5866325 2.98918139,22.5428175 C2.7481969,22.389465 3.25207357,22.0170375 3.33970429,21.9075 C3.60259647,21.5788875 6.51631807,17.482185 6.56013343,17.43837 C6.95447169,16.8468675 7.48025604,16.518255 8.04985575,16.518255 C8.88234764,16.518255 9.29859358,17.394555 9.95582402,17.7669825 C10.8102236,18.270855 11.3579156,17.5917225 11.7960692,16.9344975 C12.0808691,16.4963475 12.365669,16.03629 12.6504688,15.5762325 C12.8257303,15.3133425 13.0009917,15.028545 13.1543455,14.7437475 C13.3515146,14.415135 13.5705914,14.10843 13.7677605,13.7798175 L14.1840065,13.1225925 C14.2278219,13.0787775 14.2497295,13.0349625 14.2716372,12.9911475 C14.424991,12.7720725 14.6002524,12.6406275 14.7316985,12.6406275 C14.8631446,12.6406275 15.0164984,12.7720725 15.1479445,13.013055 C16.5719437,15.5324175 17.995943,18.1175025 19.3980346,20.636865 L20.0771727,21.863685 C20.1428958,21.951315 20.1648035,22.0608525 20.1867111,22.126575 C20.2086188,22.214205 20.2086188,22.34565 20.1428958,22.43328 Z" id="Shape"></path>
        </g>
        <path d="M21.5,0.5 C24.537375,0.5 27,2.962625 27,6 C27,9.037375 24.537375,11.5 21.5,11.5 C18.462625,11.5 16,9.037375 16,6 C16,2.962625 18.462625,0.5 21.5,0.5 Z M19.8536677,3.64663233 C19.6586579,3.45112256 19.3421421,3.45112256 19.1466323,3.64663233 C18.9511226,3.84164208 18.9511226,4.1581579 19.1466323,4.35366768 C19.1587908,4.36582618 19.2081603,4.41519569 19.2826869,4.48972223 L20.7932147,6.00025 C20.7932147,6.00025 20.7888654,6.00459786 20.7806136,6.01284715 L20.6878448,6.10558833 C20.4670895,6.32628022 19.9454079,6.84782547 19.5694619,7.22378099 L19.1466323,7.64683232 C18.9511226,7.84184207 18.9511226,8.15835789 19.1466323,8.35386767 C19.3416421,8.54937744 19.6581579,8.54937744 19.8536677,8.35386767 C19.8820375,8.32549783 20.1130006,8.09453476 20.3934269,7.81410843 L21.1271125,7.08042283 C21.2354197,6.97211562 21.3287041,6.87883125 21.3949117,6.81262368 L21.4876529,6.71988249 L21.50025,6.70728535 L22.6070731,7.81432889 C22.7272558,7.93451685 22.8383534,8.04560856 22.928312,8.13554417 L23.1468323,8.35386767 C23.3418421,8.54937744 23.6583579,8.54937744 23.8538677,8.35386767 C24.0493774,8.15885792 24.0493774,7.8423421 23.8538677,7.64683232 L22.2072853,6.00025 C22.2072853,6.00025 22.2116346,5.99590214 22.2198864,5.98765285 L22.3126552,5.89491167 C22.3788818,5.8287041 22.4721917,5.73541973 22.5805252,5.62711252 L23.6355442,4.57218801 C23.7554583,4.45224324 23.8377616,4.36987902 23.8538677,4.35366768 C24.0493774,4.15865793 24.0493774,3.84214211 23.8538677,3.64663233 C23.6588579,3.45112256 23.3423421,3.45112256 23.1468323,3.64663233 L23.0107778,3.78268688 C22.911409,3.8820556 22.7673167,4.02614795 22.6070731,4.18639157 L21.8733875,4.92007717 C21.7650803,5.02838438 21.6717959,5.12166875 21.6055883,5.18787632 L21.5128471,5.28061751 L21.50025,5.29321465 L21.2299657,5.02285378 C21.0037428,4.79657224 20.6738532,4.46660969 20.3934269,4.18617111 L20.1687465,3.96149681 C19.9975599,3.79033065 19.8739319,3.66676492 19.8536677,3.64663233 Z" id="Shape" fill="#000000" fill-rule="nonzero"></path>
    </g>
</svg>