<?xml version="1.0" encoding="UTF-8"?>
<svg width="17px" height="17px" viewBox="0 0 17 17" version="1.1" xmlns="http://www.w3.org/2000/svg" xmlns:xlink="http://www.w3.org/1999/xlink">
    <title>import</title>
    <g id="import" stroke="none" fill="none" fill-rule="nonzero">
        <path d="M6.8,0 C5.86075,0 5.1,0.76075 5.1,1.7 L5.1,7.65 L9.35,7.65 L9.35,6.45966799 C9.35,6.18511799 9.51586985,5.93752888 9.77001985,5.83212889 C10.0250198,5.72757888 10.3157989,5.78442264 10.5104489,5.97822263 L12.5507812,8.0185549 C12.8159813,8.2837549 12.8159813,8.71458505 12.5507812,8.97978505 L10.5104489,11.0201174 C10.3795489,11.1510174 10.2074638,11.2193362 10.0306639,11.2193362 C9.94311385,11.2193362 9.85416985,11.2027212 9.77001985,11.1678712 C9.51586985,11.0624712 9.35,10.8148823 9.35,10.5403323 L9.35,9.35 L5.1,9.35 L5.1,15.3 C5.1,16.23925 5.86075,17 6.8,17 L13.6,17 C14.53925,17 15.3,16.23925 15.3,15.3 L15.3,1.7 C15.3,0.76075 14.53925,0 13.6,0 L6.8,0 Z M5.1,9.35 L5.1,7.65 L2.55,7.65 C2.0808,7.65 1.7,8.0308 1.7,8.5 C1.7,8.9692 2.0808,9.35 2.55,9.35 L5.1,9.35 Z" id="Shape" fill="color(display-p3 0.000 0.000 0.000)"></path>
    </g>
</svg>