<?xml version="1.0" encoding="UTF-8"?>
<svg width="26px" height="26px" viewBox="0 0 26 26" version="1.1" xmlns="http://www.w3.org/2000/svg" xmlns:xlink="http://www.w3.org/1999/xlink">
    <title>Incognito</title>
    <g id="Incognito" stroke="none" stroke-width="1" fill="none" fill-rule="evenodd">
        <path d="M9.59375,0 C7.09375,0 5.898438,5.085938 5,8.6875 C5,8.710938 5.03125,8.726563 5.03125,8.75 C1.984375,9.390625 0,10.378906 0,11.5 C0,12.351563 1.183594,13.113281 3.0625,13.71875 C3.019531,13.914063 3,14.105469 3,14.3125 C3,15.078125 3.242188,15.8125 3.65625,16.5 C3.71875,16.605469 3.796875,16.710938 3.875,16.8125 C3.046875,17.257813 1.507813,18.28125 0,20.40625 L4.1875,23.59375 L3.8125,26 L22.3125,26 L21.8125,23.59375 L26,20.40625 C24.507813,18.300781 22.992188,17.265625 22.15625,16.8125 C22.214844,16.734375 22.261719,16.644531 22.3125,16.5625 C22.734375,15.878906 23,15.105469 23,14.3125 C23,14.109375 22.972656,13.910156 22.9375,13.71875 C24.816406,13.113281 26,12.351563 26,11.5 C26,10.382813 24.027344,9.390625 21,8.75 C21,8.730469 21,8.707031 21,8.6875 C19.898438,4.886719 18.90625,0 16.40625,0 C15.105469,0 14.398438,0.5 13,0.5 C11.601563,0.5 10.992188,0 9.59375,0 Z M5,14.25 C7.210938,14.71875 9.96875,15 13,15 C16.03125,15 18.789063,14.71875 21,14.25 C21.003906,14.285156 21,14.246094 21,14.3125 C21,14.621094 20.851563,15.132813 20.625,15.5 C20.398438,15.867188 20.128906,15.996094 20.09375,16 C19.722656,16.046875 19.40625,16.300781 19.28125,16.65625 C18.546875,18.5625 17.632813,20.46875 16.5625,21.84375 C15.492188,23.21875 14.359375,24 13,24 C11.660156,24 10.492188,23.183594 9.40625,21.78125 C8.320313,20.378906 7.429688,18.457031 6.75,16.65625 C6.617188,16.292969 6.289063,16.039063 5.90625,16 C5.90625,16 5.609375,15.855469 5.375,15.46875 C5.140625,15.082031 5,14.546875 5,14.3125 C5,14.277344 5,14.277344 5,14.25 Z M9.34375,15.03125 C8.5,15.003906 8,15.136719 8,15.8125 C8,17.011719 8.8125,18.210938 10.3125,18.3125 C11.3125,18.414063 12.5,17.804688 12.5,16.40625 C12.5,15.40625 11.710938,15.195313 10.3125,15.09375 C9.960938,15.070313 9.625,15.039063 9.34375,15.03125 Z M16.65625,15.03125 C16.375,15.039063 16.039063,15.070313 15.6875,15.09375 C14.289063,15.195313 13.5,15.40625 13.5,16.40625 C13.5,17.804688 14.6875,18.414063 15.6875,18.3125 C17.1875,18.210938 18,17.011719 18,15.8125 C18,15.136719 17.5,15.003906 16.65625,15.03125 Z" id="Shape" fill="#000000" fill-rule="nonzero"></path>
    </g>
</svg>