<?xml version="1.0" encoding="UTF-8"?>
<svg width="17px" height="17px" viewBox="0 0 17 17" version="1.1" xmlns="http://www.w3.org/2000/svg" xmlns:xlink="http://www.w3.org/1999/xlink">
    <title>Incomplete</title>
    <g id="Incomplete" stroke="none" fill="none" fill-rule="nonzero">
        <path d="M8.52081528,0.0208152802 C3.83485991,0.0208152802 0.0208152802,3.83485991 0.0208152802,8.52081528 C0.0208152802,13.2067704 3.83485991,17.0208153 8.52081528,17.0208153 C13.2067704,17.0208153 17.0208153,13.2067704 17.0208153,8.52081528 C17.0208153,3.83485991 13.2067704,0.0208152802 8.52081528,0.0208152802 Z M13.5331038,3.50852685 C14.1570739,4.13249691 14.6609695,4.87535844 15.0175601,5.69716628 C14.977333,5.69043917 14.9366,5.68719902 14.8958153,5.68748195 C14.5046136,5.68748195 14.1874819,6.00461358 14.1874819,6.39581528 C14.1874819,6.78701698 14.5046136,7.10414861 14.8958153,7.10414861 C15.0891209,7.10418526 15.274044,7.025218 15.4076966,6.8855612 C15.5314226,7.41096107 15.6041486,7.95692103 15.6041486,8.52081528 C15.6041486,9.08470953 15.5314226,9.63066949 15.4076966,10.1560694 C15.274044,10.0164126 15.0891209,9.93744531 14.8958153,9.93748195 C14.5046136,9.93748195 14.1874819,10.2546136 14.1874819,10.6458153 C14.1874819,11.037017 14.5046136,11.3541486 14.8958153,11.3541486 C14.9366,11.3544315 14.977333,11.3511914 15.0175601,11.3444643 C14.3046353,12.9874895 12.9862903,14.3008202 11.3444643,15.0147933 C11.3510344,14.9754771 11.354274,14.9356765 11.3541486,14.8958153 C11.3541486,14.5046136 11.037017,14.1874819 10.6458153,14.1874819 C10.2546136,14.1874819 9.93748195,14.5046136 9.93748195,14.8958153 C9.93774545,15.0913904 10.0188596,15.2781535 10.1616029,15.4118474 C9.63496624,15.5364192 9.08639678,15.6041486 8.52081528,15.6041486 C7.95645282,15.6041486 7.40997578,15.5316224 6.88417782,15.4076966 C7.02434424,15.2742799 7.10382434,15.0893264 7.10414861,14.8958153 C7.10414861,14.5046136 6.78701698,14.1874819 6.39581528,14.1874819 C6.00461358,14.1874819 5.68748195,14.5046136 5.68748195,14.8958153 C5.68765588,14.93664 5.69135891,14.9773732 5.69854966,15.0175601 C4.87628346,14.6609447 4.13278739,14.1573643 3.50852685,13.5331038 L3.77000151,13.2716289 C3.90281788,13.4044737 4.08296445,13.4791202 4.27081528,13.4791486 C4.66201698,13.4791486 4.97914861,13.162017 4.97914861,12.7708153 C4.97912018,12.5829645 4.9044738,12.402818 4.77162905,12.2700017 L5.89500166,11.1466289 C6.02781798,11.2794737 6.2079645,11.3541201 6.39581528,11.3541486 C6.78701698,11.3541486 7.10414861,11.037017 7.10414861,10.6458153 C7.10412014,10.4579645 7.02947371,10.277818 6.89662891,10.1450017 L8.02000166,9.02162891 C8.15281798,9.15447371 8.3329645,9.22912014 8.52081528,9.22914861 C8.91201698,9.22914861 9.22914861,8.91201698 9.22914861,8.52081528 C9.22912014,8.3329645 9.15447371,8.15281798 9.02162891,8.02000166 L10.1450017,6.89662891 C10.277818,7.02947371 10.4579645,7.10412014 10.6458153,7.10414861 C11.037017,7.10414861 11.3541486,6.78701698 11.3541486,6.39581528 C11.3541201,6.2079645 11.2794737,6.02781798 11.1466289,5.89500166 L12.2700017,4.77162905 C12.402818,4.9044738 12.5829645,4.97912018 12.7708153,4.97914861 C13.162017,4.97914861 13.4791486,4.66201698 13.4791486,4.27081528 C13.4791202,4.08296445 13.4044737,3.90281788 13.2716289,3.77000151 L13.5331038,3.50852685 Z M12.7708153,7.81248195 C12.3796136,7.81248195 12.0624819,8.12961358 12.0624819,8.52081528 C12.0624819,8.91201698 12.3796136,9.22914861 12.7708153,9.22914861 C13.162017,9.22914861 13.4791486,8.91201698 13.4791486,8.52081528 C13.4791486,8.12961358 13.162017,7.81248195 12.7708153,7.81248195 Z M10.6458153,9.93748195 C10.2546136,9.93748195 9.93748195,10.2546136 9.93748195,10.6458153 C9.93748195,11.037017 10.2546136,11.3541486 10.6458153,11.3541486 C11.037017,11.3541486 11.3541486,11.037017 11.3541486,10.6458153 C11.3541486,10.2546136 11.037017,9.93748195 10.6458153,9.93748195 Z M8.52081528,12.0624819 C8.12961358,12.0624819 7.81248195,12.3796136 7.81248195,12.7708153 C7.81248195,13.162017 8.12961358,13.4791486 8.52081528,13.4791486 C8.91201698,13.4791486 9.22914861,13.162017 9.22914861,12.7708153 C9.22914861,12.3796136 8.91201698,12.0624819 8.52081528,12.0624819 Z M12.7708153,12.0624819 C12.3796136,12.0624819 12.0624819,12.3796136 12.0624819,12.7708153 C12.0624819,13.162017 12.3796136,13.4791486 12.7708153,13.4791486 C13.162017,13.4791486 13.4791486,13.162017 13.4791486,12.7708153 C13.4791486,12.3796136 13.162017,12.0624819 12.7708153,12.0624819 Z" id="Shape" fill="color(display-p3 0.000 0.000 0.000)" transform="translate(8.5208, 8.5208) rotate(-45) translate(-8.5208, -8.5208)"></path>
    </g>
</svg>