<?xml version="1.0" encoding="UTF-8"?>
<svg width="22px" height="22px" viewBox="0 0 22 22" version="1.1" xmlns="http://www.w3.org/2000/svg" xmlns:xlink="http://www.w3.org/1999/xlink">
    <title>Ingredients basket</title>
    <g id="Ingredients-basket" stroke="none" stroke-width="1" fill="none" fill-rule="evenodd">
        <path d="M13.5384615,0.425 C13.0713846,0.425 12.6923077,0.804076923 12.6923077,1.27115385 C12.6923077,1.57864201 12.8648968,1.83693258 13.110427,1.98509615 L11.7238584,4.29549283 C11.2500122,5.08410813 11,5.98855411 11,6.90832334 L11,7.19423077 L18.6153846,7.19423077 L18.6153846,6.90832334 C18.6153846,5.98770795 18.3645262,5.08410822 17.8915262,4.29549283 L16.5049576,1.98509615 C16.7504878,1.83693258 16.9230769,1.57864201 16.9230769,1.27115385 C16.9230769,0.804076923 16.544,0.425 16.0769231,0.425 L13.5384615,0.425 Z M8.88461538,2.96346154 C8.17553846,2.96346154 7.53396854,3.22227885 7.02373777,3.63774038 L9.51262062,5.29699519 C9.673389,4.64122596 9.92252885,4.00920192 10.2728365,3.42620192 L10.3174576,3.34852762 C9.89099608,3.11075839 9.40753846,2.96346154 8.88461538,2.96346154 Z M4.70507815,4.2227764 C4.34243514,4.16629563 3.96428365,4.34258654 3.78786058,4.69543269 L2.53846154,7.19423077 L9.30769231,7.19423077 L5.05543872,4.35829327 C4.94607334,4.28552404 4.82595909,4.24160341 4.70507815,4.2227764 Z M0.846153846,8.88653846 C0.379076923,8.88653846 0,9.26561538 0,9.73269231 L0,11.425 C0,11.8920769 0.379076923,12.2711538 0.846153846,12.2711538 L0.986628585,12.2711538 L2.30213339,20.1641827 C2.43836416,20.979875 3.1446118,21.5788462 3.97130411,21.5788462 L18.0270437,21.5788462 C18.8545822,21.5788462 19.5599834,20.979875 19.6962142,20.1641827 L21.0133711,12.2711538 L21.1538462,12.2711538 C21.6209231,12.2711538 22,11.8920769 22,11.425 L22,9.73269231 C22,9.26561538 21.6209231,8.88653846 21.1538462,8.88653846 L0.846153846,8.88653846 Z M7.61538462,12.2711538 C8.08330769,12.2711538 8.46153846,12.6493846 8.46153846,13.1173077 L8.46153846,18.1942308 C8.46153846,18.6621538 8.08330769,19.0403846 7.61538462,19.0403846 C7.14746154,19.0403846 6.76923077,18.6621538 6.76923077,18.1942308 L6.76923077,13.1173077 C6.76923077,12.6493846 7.14746154,12.2711538 7.61538462,12.2711538 Z M11,12.2711538 C11.4679231,12.2711538 11.8461538,12.6493846 11.8461538,13.1173077 L11.8461538,18.1942308 C11.8461538,18.6621538 11.4679231,19.0403846 11,19.0403846 C10.5320769,19.0403846 10.1538462,18.6621538 10.1538462,18.1942308 L10.1538462,13.1173077 C10.1538462,12.6493846 10.5320769,12.2711538 11,12.2711538 Z M14.3846154,12.2711538 C14.8525385,12.2711538 15.2307692,12.6493846 15.2307692,13.1173077 L15.2307692,18.1942308 C15.2307692,18.6621538 14.8525385,19.0403846 14.3846154,19.0403846 C13.9166923,19.0403846 13.5384615,18.6621538 13.5384615,18.1942308 L13.5384615,13.1173077 C13.5384615,12.6493846 13.9166923,12.2711538 14.3846154,12.2711538 Z" id="Shape" fill="#000000" fill-rule="nonzero"></path>
    </g>
</svg>