<?xml version="1.0" encoding="UTF-8"?>
<svg width="17px" height="17px" viewBox="0 0 17 17" version="1.1" xmlns="http://www.w3.org/2000/svg" xmlns:xlink="http://www.w3.org/1999/xlink">
    <title>INstagram</title>
    <g id="INstagram" stroke="none" fill="none" fill-rule="nonzero">
        <path d="M4.72222222,0 C2.11461111,0 0,2.11461111 0,4.72222222 L0,12.2777778 C0,14.8853889 2.11461111,17 4.72222222,17 L12.2777778,17 C14.8853889,17 17,14.8853889 17,12.2777778 L17,4.72222222 C17,2.11461111 14.8853889,0 12.2777778,0 L4.72222222,0 Z M14.1666667,1.88888889 C14.688,1.88888889 15.1111111,2.312 15.1111111,2.83333333 C15.1111111,3.35466667 14.688,3.77777778 14.1666667,3.77777778 C13.6453333,3.77777778 13.2222222,3.35466667 13.2222222,2.83333333 C13.2222222,2.312 13.6453333,1.88888889 14.1666667,1.88888889 Z M8.5,3.77777778 C11.1076111,3.77777778 13.2222222,5.89238889 13.2222222,8.5 C13.2222222,11.1076111 11.1076111,13.2222222 8.5,13.2222222 C5.89238889,13.2222222 3.77777778,11.1076111 3.77777778,8.5 C3.77777778,5.89238889 5.89238889,3.77777778 8.5,3.77777778 Z M8.5,5.66666667 C6.93519321,5.66666667 5.66666667,6.93519321 5.66666667,8.5 C5.66666667,10.0648068 6.93519321,11.3333333 8.5,11.3333333 C10.0648068,11.3333333 11.3333333,10.0648068 11.3333333,8.5 C11.3333333,6.93519321 10.0648068,5.66666667 8.5,5.66666667 Z" id="Shape" fill="color(display-p3 0.000 0.000 0.000)"></path>
    </g>
</svg>