<?xml version="1.0" encoding="UTF-8"?>
<svg width="17px" height="17px" viewBox="0 0 17 17" version="1.1" xmlns="http://www.w3.org/2000/svg" xmlns:xlink="http://www.w3.org/1999/xlink">
    <title>Lab</title>
    <g id="Lab" stroke="none" fill="none" fill-rule="nonzero">
        <path d="M6.67847894,1.82005863 C6.45952445,1.81702304 6.25586396,1.9320602 6.14548306,2.12118109 C6.03510216,2.31030199 6.03510216,2.54420611 6.14548306,2.73332701 C6.25586396,2.92244791 6.45952445,3.03748506 6.67847894,3.0343885 L6.67847894,8.30886902 L3.230145,13.3046846 C3.22307305,13.3155342 3.21635003,13.3266073 3.20998625,13.3378869 C2.74021767,14.1212239 3.33760239,15.1770775 4.25112694,15.1770775 L12.7486377,15.1770775 C13.6621231,15.1770775 14.259547,14.1212257 13.7897786,13.3378869 C13.7834148,13.3266073 13.7766918,13.3155342 13.7696199,13.3046846 L10.3212856,8.30886902 L10.3212856,3.0343885 C10.5402401,3.03748506 10.7439006,2.92244791 10.8542815,2.73332701 C10.9646624,2.54420611 10.9646624,2.31030199 10.8542815,2.12118109 C10.7439006,1.9320602 10.5402401,1.81702304 10.3212856,1.82005863 L6.67847894,1.82005863 Z M7.89274784,3.0343885 L9.10701673,3.0343885 L9.10701673,8.49859854 C9.10711242,8.62191079 9.14475084,8.74227121 9.21492517,8.84366887 L10.2335359,10.3200019 L6.76622869,10.3200019 L7.7848394,8.84366887 C7.85501373,8.74227121 7.89265215,8.62191079 7.89274784,8.49859854 L7.89274784,3.0343885 Z M1.82140335,3.64152295 C1.485658,3.64152295 1.2142689,3.91351918 1.2142689,4.2486574 L1.2142689,7.29737332 C0.457779374,7.86686543 0,8.76391629 0,9.71286744 C0,11.1044196 0.946532077,12.2682204 2.22576436,12.6252155 C2.22758576,12.6221798 2.22926492,12.6187647 2.23169339,12.615729 L4.65311636,9.10573299 L1.33284984,9.10573299 C1.47552644,8.71170273 1.74363319,8.36983868 2.12734216,8.1464132 C2.31433957,8.03773614 2.4285378,7.83723909 2.4285378,7.62109984 L2.4285378,4.85579185 L3.64280669,4.85579185 L3.64280669,7.62109984 C3.64280669,7.83723909 3.75700492,8.03773614 3.94400233,8.1464132 C4.30281873,8.35526745 4.55535824,8.66975338 4.70410618,9.03221265 L5.46421004,7.93059573 L5.46421004,7.91280851 C5.29239099,7.68209742 5.09082235,7.47225658 4.85707559,7.29618759 L4.85707559,4.2486574 C4.85707559,3.91351918 4.58568649,3.64152295 4.24994114,3.64152295 L1.82140335,3.64152295 Z M12.142689,4.2486574 C11.8069436,4.2486574 11.5355545,4.52065363 11.5355545,4.85579185 L11.5355545,7.93059573 L14.7680713,12.615729 C14.7899281,12.6473 14.8108834,12.6789943 14.8309188,12.7117795 C14.8382044,12.7233151 14.8414204,12.736397 14.848706,12.7485397 L15.1783612,12.7485397 C15.8480305,12.7485397 16.3926301,12.2039401 16.3926301,11.5342708 L16.3926301,6.21354361 L16.9357307,5.1273422 C17.0298365,4.93913052 17.0201418,4.71591378 16.9096427,4.53680911 C16.7985377,4.35831159 16.6033058,4.2486574 16.3926301,4.2486574 L12.142689,4.2486574 Z M12.7498234,5.4629263 L15.4107796,5.4629263 L15.2423951,5.79851015 C15.2005028,5.8822947 15.1783612,5.9759549 15.1783612,6.07006074 L15.1783612,7.28432964 L12.7498234,7.28432964 L12.7498234,5.4629263 Z" id="Shape" fill="color(display-p3 0.000 0.000 0.000)"></path>
    </g>
</svg>