<?xml version="1.0" encoding="UTF-8"?>
<svg width="18px" height="18px" viewBox="0 0 18 18" version="1.1" xmlns="http://www.w3.org/2000/svg" xmlns:xlink="http://www.w3.org/1999/xlink">
    <title>Laboratoy</title>
    <g id="Laboratoy" stroke="none" fill="none" fill-rule="nonzero">
        <path d="M6,0 C5.448,0 5,0.448 5,1 C5,1.552 5.448,2 6,2 L6,7 L0.4277344,14.773438 L0.4316406,14.773438 C0.1656406,15.112437 0,15.535 0,16 C0,17.105 0.895,18 2,18 L16,18 C17.105,18 18,17.105 18,16 C18,15.535 17.834359,15.112437 17.568359,14.773438 L17.572266,14.773438 L12,7 L12,2 C12.552,2 13,1.552 13,1 C13,0.448 12.552,0 12,0 L6,0 Z M8,2 L10,2 L10,7 L8,7 L8,2 Z M10,10 C10.552,10 11,10.448 11,11 C11,11.552 10.552,12 10,12 C9.448,12 9,11.552 9,11 C9,10.448 9.448,10 10,10 Z M6.5,13 C7.328,13 8,13.672 8,14.5 C8,15.328 7.328,16 6.5,16 C5.672,16 5,15.328 5,14.5 C5,13.672 5.672,13 6.5,13 Z" id="Shape" fill="color(display-p3 0.000 0.000 0.000)"></path>
    </g>
</svg>