<?xml version="1.0" encoding="UTF-8"?>
<svg width="18px" height="18px" viewBox="0 0 18 18" version="1.1" xmlns="http://www.w3.org/2000/svg" xmlns:xlink="http://www.w3.org/1999/xlink">
    <title>Language (world)</title>
    <g id="Language-(world)" stroke="none" stroke-width="1" fill="none" fill-rule="evenodd">
        <path d="M9,0 C4.03589636,0 0,4.03590825 0,9.00001197 C0,13.960546 4.03014834,17.9942132 8.98934639,18.0000138 C8.99291528,18.0000138 8.99643041,18.0000138 9,18.0000138 C13.9641038,18.0000138 18,13.9641157 18,9.00001197 C18,4.03947792 13.9698518,0.00581083142 9.01065376,0 C9.00912413,0 9.00761748,0 9.00608784,0 C9.00405862,0 9.0020293,0 9,0 L9,0 Z M8.6103831,0.824904091 L8.6103831,4.69139596 C7.61691122,4.66697165 6.67065392,4.55149229 5.79555275,4.37026663 C5.94830949,3.90562422 6.12175606,3.4737299 6.31453465,3.08574795 C6.95524341,1.79627058 7.76842353,1.01165425 8.6103831,0.824904091 Z M9.38961706,0.824904091 C10.2315766,1.01165425 11.0447567,1.79627058 11.6854655,3.08574795 C11.881003,3.47928233 12.0562266,3.9185108 12.2105352,4.39081269 C11.3359428,4.56339899 10.3863824,4.67039404 9.38961706,4.6929178 L9.38961706,0.824904091 Z M6.75589744,1.09124384 C6.32452326,1.53305088 5.93967363,2.08878468 5.6167244,2.73874533 C5.39666483,3.18163288 5.20319078,3.67000335 5.03458208,4.19067736 C4.26389047,3.98469309 3.56921119,3.7236466 2.9731124,3.42057524 C3.98445406,2.32855922 5.28299953,1.50793706 6.75589744,1.09124384 Z M11.2433414,1.09124384 C12.7263082,1.51064178 14.0323787,2.33952635 15.0466729,3.44264314 C14.4572786,3.75343866 13.7577669,4.01551413 12.973789,4.21807211 C12.8032349,3.68720144 12.607122,3.18925379 12.3832758,2.73874533 C12.0602342,2.08859907 11.6748695,1.53309147 11.2433414,1.09124384 Z M2.46021819,4.03087361 C3.14451122,4.39764229 3.93805418,4.70623218 4.81694437,4.94251657 C4.53020849,6.0540455 4.3628302,7.29543417 4.33448907,8.61039499 L0.789126571,8.61039499 C0.869300629,6.89083096 1.4830558,5.31518716 2.46021819,4.03087361 Z M15.5550015,4.05141968 C16.5231202,5.3320642 17.131123,6.89990865 17.2108737,8.61039499 L13.6655111,8.61039499 C13.6374119,7.30665397 13.4722213,6.07567743 13.1899045,4.97143316 C14.0775856,4.74019393 14.8745654,4.43117233 15.5550015,4.05141968 Z M5.57715412,5.1236273 C6.5224105,5.32288288 7.54096825,5.44686835 8.6103831,5.47139084 L8.6103831,8.61039499 L5.11372303,8.61039499 C5.14255664,7.35342047 5.3064498,6.170105 5.57715412,5.1236273 Z M12.4281729,5.14569559 C12.6955795,6.18683165 12.8576422,7.36209335 12.8862771,8.61039499 L9.38961706,8.61039499 L9.38961706,5.47291308 C10.4606274,5.45057439 11.4817866,5.33607492 12.4281729,5.14569559 Z M0.789126571,9.38962895 L4.33448907,9.38962895 C4.36258825,10.69337 4.52777883,11.9243465 4.81009569,13.0285908 C3.92241457,13.25983 3.12543495,13.5688516 2.44499874,13.9486043 C1.47687995,12.6679597 0.868877388,11.1001149 0.789126571,9.38962895 Z M5.11372303,9.38962895 L8.6103831,9.38962895 L8.6103831,12.5271109 C7.53937277,12.5494495 6.51821355,12.663949 5.57182728,12.8543283 C5.30442067,11.8131919 5.14235793,10.6379306 5.11372303,9.38962895 Z M9.38961706,9.38962895 L12.8862771,9.38962895 C12.8574435,10.6466035 12.6935504,11.8299189 12.422846,12.8763966 C11.4775897,12.6771411 10.4590319,12.5531556 9.38961706,12.5286331 L9.38961706,9.38962895 Z M13.6655111,9.38962895 L17.2108737,9.38962895 C17.1306994,11.109193 16.5169444,12.6848368 15.5397819,13.9691503 C14.855489,13.6023816 14.061946,13.2937918 13.1830558,13.0575074 C13.4697917,11.9459788 13.63717,10.7045898 13.6655111,9.38962895 Z M8.6103831,13.3071061 L8.6103831,17.1751199 C7.76842353,16.9883698 6.95524341,16.2037533 6.31453465,14.9142762 C6.11899718,14.5207416 5.94377357,14.0815131 5.78946498,13.6092112 C6.66405731,13.4366249 7.61361779,13.3296299 8.6103831,13.3071061 Z M9.38961706,13.308628 C10.3830889,13.3330523 11.3293462,13.4485316 12.2044474,13.6297573 C12.0516907,14.0943997 11.8782441,14.526294 11.6854655,14.9142762 C11.0447567,16.2037533 10.2315766,16.9883698 9.38961706,17.1751199 L9.38961706,13.308628 Z M5.02621116,13.7819518 C5.19676522,14.3128221 5.39287814,14.8107701 5.6167244,15.2612784 C5.93976597,15.9114249 6.32513067,16.4669326 6.75665875,16.9087801 C5.27369197,16.4893823 3.96762143,15.6604975 2.95332718,14.5573808 C3.54272152,14.2465853 4.24223322,13.9845098 5.02621116,13.7819518 Z M12.9654181,13.8093466 C13.7361097,14.0153308 14.4307886,14.2763773 15.0268878,14.5794487 C14.0155461,15.6714648 12.7170006,16.492087 11.2441027,16.9087801 C11.6754769,16.4669731 12.0603265,15.9112394 12.3832758,15.2612784 C12.6033353,14.8183914 12.7968094,14.3300206 12.9654181,13.8093466 Z" id="Shape" fill="#000000" fill-rule="nonzero"></path>
    </g>
</svg>