<?xml version="1.0" encoding="UTF-8"?>
<svg width="18px" height="18px" viewBox="0 0 18 18" version="1.1" xmlns="http://www.w3.org/2000/svg" xmlns:xlink="http://www.w3.org/1999/xlink">
    <title>Language (world)</title>
    <g id="Language-(world)" stroke="none" fill="none" fill-rule="nonzero">
        <path d="M9,0 C4.0374,0 0,4.0374 0,9 C0,13.9626 4.0374,18 9,18 C13.9626,18 18,13.9626 18,9 C18,4.0374 13.9626,0 9,0 Z M15.2262,5.4 L13.1517,5.4 C12.9294,4.3209 12.6072,3.3615 12.2049,2.5614 C13.4676,3.1932 14.5188,4.1832 15.2262,5.4 Z M16.2,9 C16.2,9.6228 16.1127,10.2231 15.9633,10.8 L13.4163,10.8 C13.4703,10.2213 13.5,9.6201 13.5,9 C13.5,8.3799 13.4703,7.7787 13.4163,7.2 L15.9633,7.2 C16.1127,7.7769 16.2,8.3772 16.2,9 Z M9,16.2 C8.2413,16.2 7.2459,14.8671 6.7005,12.6 L11.2986,12.6 C10.7541,14.8671 9.7587,16.2 9,16.2 Z M6.3972,10.8 C6.3369,10.2339 6.3,9.6363 6.3,9 C6.3,8.3637 6.3369,7.7661 6.3972,7.2 L11.6028,7.2 C11.6631,7.7661 11.7,8.3637 11.7,9 C11.7,9.6363 11.6631,10.2339 11.6028,10.8 L6.3972,10.8 Z M1.8,9 C1.8,8.3772 1.8873,7.7769 2.0367,7.2 L4.5837,7.2 C4.5297,7.7787 4.5,8.3799 4.5,9 C4.5,9.6201 4.5297,10.2213 4.5837,10.8 L2.0367,10.8 C1.8873,10.2231 1.8,9.6228 1.8,9 Z M9,1.8 C9.7587,1.8 10.7541,3.1329 11.2995,5.4 L6.7005,5.4 C7.2459,3.1329 8.2413,1.8 9,1.8 Z M5.796,2.5614 C5.3937,3.3615 5.0715,4.3209 4.8492,5.4 L2.7738,5.4 C3.4812,4.1832 4.5324,3.1932 5.796,2.5614 Z M2.7738,12.6 L4.8483,12.6 C5.0706,13.6791 5.3928,14.6385 5.7951,15.4386 C4.5324,14.8068 3.4812,13.8168 2.7738,12.6 Z M12.204,15.4386 C12.6063,14.6385 12.9276,13.6791 13.1508,12.6 L15.2253,12.6 C14.5188,13.8168 13.4676,14.8068 12.204,15.4386 Z" id="Shape" fill="color(display-p3 0.000 0.000 0.000)"></path>
    </g>
</svg>