<?xml version="1.0" encoding="UTF-8"?>
<svg width="20px" height="20px" viewBox="0 0 20 20" version="1.1" xmlns="http://www.w3.org/2000/svg" xmlns:xlink="http://www.w3.org/1999/xlink">
    <title>Language</title>
    <g id="Language" stroke="none" stroke-width="1" fill="none" fill-rule="evenodd">
        <path d="M1.66666667,0 C0.745833333,0 0,0.745833333 0,1.66666667 L0,14.1666667 C0,15.0875 0.745833333,15.8333333 1.66666667,15.8333333 L5,15.8333333 L5,19.1666667 C5,19.626904 5.37309604,20 5.83333333,20 C6.11555732,19.9994743 6.37833718,19.8561399 6.53157583,19.6191408 L9.375,15.8333333 L18.3333333,15.8333333 C19.2541667,15.8333333 20,15.0875 20,14.1666667 L20,1.66666667 C20,0.745833333 19.2541667,0 18.3333333,0 L1.66666667,0 Z M5,2.5 C5.33333333,2.5 5.63576825,2.69789058 5.76660158,3.00455733 L8.26660167,8.83789083 C8.44826833,9.26039083 8.25127583,9.75160167 7.82877583,9.93326833 C7.72210917,9.979935 7.61,10 7.5,10 C7.17666667,10 6.86839833,9.81127583 6.73339833,9.4954425 L6.59342417,9.16666667 L3.4065755,9.16666667 L3.26660158,9.4954425 C3.08576825,9.91877583 2.59289067,10.1166017 2.171224,9.93326833 C1.748724,9.75160167 1.55173175,9.261185 1.73339842,8.83951833 L4.23339842,3.00618492 C4.36423175,2.69868492 4.66666667,2.5 5,2.5 Z M15,5.0016275 C15.46,5.0016275 15.8333333,5.3741275 15.8333333,5.83496083 L15.8333333,6.66829417 L17.5,6.66829417 C17.96,6.66829417 18.3333333,7.04079417 18.3333333,7.5016275 C18.3333333,7.96246083 17.96,8.33333333 17.5,8.33333333 L17.4088542,8.33333333 C17.2346875,9.19916667 16.8131117,10.2119267 16.1897783,11.10026 L17.1663408,11.8326825 C17.5346742,12.1085158 17.6098175,12.6321742 17.3339842,12.9996742 C17.1706508,13.2188408 16.9183725,13.3317058 16.6650392,13.3317058 C16.4917058,13.3317058 16.3169925,13.27819 16.1669925,13.16569 L15.0634767,12.3388675 C14.3401433,12.9388675 13.4775,13.3333333 12.5,13.3333333 C12.04,13.3333333 11.6666667,12.9608333 11.6666667,12.5 C11.6666667,12.0391667 12.04,11.6666667 12.5,11.6666667 C12.9183333,11.6666667 13.3125908,11.525495 13.6767575,11.2988283 L12.8336592,10.6673175 C12.4653258,10.3914842 12.3901825,9.86782583 12.6660158,9.50032583 C12.9426825,9.1319925 13.4646742,9.05931 13.8330075,9.33431 L14.8714192,10.112305 C15.2622525,9.54563833 15.5505858,8.9066275 15.7047525,8.33496083 L12.5,8.33496083 C12.04,8.33496083 11.6666667,7.96246083 11.6666667,7.5016275 C11.6666667,7.04079417 12.04,6.66829417 12.5,6.66829417 L14.1666667,6.66829417 L14.1666667,5.83496083 C14.1666667,5.3741275 14.54,5.0016275 15,5.0016275 Z M5,5.44921833 L4.12109375,7.5 L5.87890667,7.5 L5,5.44921833 Z" id="Shape" fill="#000000" fill-rule="nonzero"></path>
    </g>
</svg>