<?xml version="1.0" encoding="UTF-8"?>
<svg width="20px" height="20px" viewBox="0 0 20 20" version="1.1" xmlns="http://www.w3.org/2000/svg" xmlns:xlink="http://www.w3.org/1999/xlink">
    <title>Nutrition facts</title>
    <g id="Nutrition-facts" stroke="none" stroke-width="1" fill="none" fill-rule="evenodd">
        <path d="M10,1.25 C10.59439,1.25105104 11.1432355,1.56856719 11.44043,2.0833125 L17.5,2.0833125 C17.96,2.0833125 18.3333333,2.4566365 18.3333333,2.916625 C18.3333333,3.3766135 17.96,3.7499375 17.5,3.7499375 L16.6666667,3.7499375 L20,10.4164375 C20,12.7172133 18.1341667,14.583 15.8333333,14.583 C13.5325,14.583 11.6666667,12.7172133 11.6666667,10.4164375 L15,3.7499375 L11.4420575,3.7499375 C11.2957732,4.00330323 11.0885267,4.20887545 10.8449004,4.35244885 L10.845,17.085 L16.1675,17.085 C16.6272771,17.085 17,17.4577229 17,17.9175 C17,18.3772771 16.6272771,18.75 16.1675,18.75 L3.83249998,18.75 C3.37272294,18.75 3,18.3772771 3,17.9175 C3,17.4577229 3.37272294,17.085 3.83249998,17.085 L9.18,17.085 L9.17912856,4.36541879 C8.92579697,4.22137238 8.71031237,4.01102551 8.55957,3.7499375 L5,3.7499375 L8.33333333,10.4164375 C8.33333333,12.7172133 6.4675,14.583 4.16666667,14.583 C1.86583333,14.583 0,12.7172133 0,10.4164375 L3.33333333,3.7499375 L2.5,3.7499375 C2.04,3.7499375 1.66666667,3.3766135 1.66666667,2.916625 C1.66666667,2.4566365 2.04,2.0833125 2.5,2.0833125 L8.5579425,2.0833125 C8.85542824,1.56806454 9.40502834,1.25047066 10,1.25 Z M4.16666667,5.43446572 L1.67643233,10.4164375 L6.656901,10.4164375 L4.16666667,5.43446572 Z M15.8333333,5.43446572 L13.3430992,10.4164375 L18.3235675,10.4164375 L15.8333333,5.43446572 Z" id="Shape" fill="#000000" fill-rule="nonzero"></path>
    </g>
</svg>