<?xml version="1.0" encoding="UTF-8"?>
<svg width="17px" height="17px" viewBox="0 0 17 17" version="1.1" xmlns="http://www.w3.org/2000/svg" xmlns:xlink="http://www.w3.org/1999/xlink">
    <title>lifecycle</title>
    <g id="lifecycle" stroke="none" fill="none" fill-rule="nonzero">
        <path d="M8.5,0 C8.01852005,0 7.54511085,0.040370325 7.08388683,0.117871115 C6.77759219,0.160812803 6.51878904,0.366724091 6.40811494,0.655534819 C6.29744084,0.944345548 6.35236154,1.2704778 6.5515207,1.50711258 C6.75067986,1.74374737 7.06264771,1.85354078 7.36611317,1.79379882 C7.73448915,1.73189961 8.11277995,1.7 8.5,1.7 C10.2287304,1.7 11.8000319,2.34223612 12.9973632,3.4 L11.9,3.4 C11.5934595,3.39566475 11.3083308,3.556719 11.1537954,3.82149192 C10.99926,4.08626484 10.99926,4.41373516 11.1537954,4.67850808 C11.3083308,4.943281 11.5934595,5.10433525 11.9,5.1 L14.875,5.1 C15.3444226,5.09995306 15.7249531,4.71942259 15.7250796,4.25 L15.7250796,1.275 C15.7281408,1.04539092 15.6382574,0.824277686 15.4758059,0.661982556 C15.3133544,0.499687426 15.0921547,0.410016958 14.8625488,0.413378885 C14.393434,0.420253786 14.0185828,0.805878775 14.025,1.275 L14.025,2.04614257 C12.5374048,0.772305027 10.6066706,0 8.5,0 Z M1.275,1.27491463 C0.968459471,1.27066475 0.68333084,1.431719 0.528795437,1.69649192 C0.374260033,1.96126484 0.374260033,2.28873516 0.528795437,2.55350808 C0.68333084,2.818281 0.968459471,2.97933525 1.275,2.975 L2.04614257,2.975 C0.772305027,4.4625952 0,6.3933294 0,8.5 C0,8.98147995 0.040370325,9.45488915 0.117871115,9.91611318 C0.160812803,10.2224078 0.366724091,10.481211 0.655534819,10.5918851 C0.944345548,10.7025592 1.2704778,10.6476385 1.50711258,10.4484793 C1.74374737,10.2493201 1.85354078,9.93735229 1.79379882,9.63388683 C1.73189961,9.26551085 1.7,8.88722005 1.7,8.5 C1.7,6.77126958 2.34223612,5.19996807 3.4,4.00263682 L3.4,5.1 C3.39566475,5.40654053 3.556719,5.69166916 3.82149192,5.84620456 C4.08626484,6.00073997 4.41373516,6.00073997 4.67850808,5.84620456 C4.943281,5.69166916 5.10433525,5.40654053 5.1,5.1 L5.1,2.125 C5.09995306,1.65557741 4.71942259,1.27504694 4.25,1.27491463 L1.275,1.27491463 Z M16.0578613,6.3633788 C15.8030064,6.35875559 15.5595267,6.46873756 15.3945179,6.66301694 C15.2295091,6.85729633 15.1603876,7.1153673 15.2062012,7.36611317 C15.2681004,7.73448915 15.3,8.11277995 15.3,8.5 C15.3,10.2287304 14.6577638,11.8000319 13.6,12.9973632 L13.6,11.9 C13.6031408,11.6703909 13.5132574,11.4492776 13.3508059,11.2869825 C13.1883544,11.1246874 12.9671547,11.0350169 12.7375488,11.0383788 C12.268434,11.0452537 11.8935828,11.4308787 11.9,11.9 L11.9,14.875 C11.9000469,15.3444226 12.2805774,15.7249531 12.75,15.7250854 L15.725,15.7250854 C16.0315405,15.7293352 16.3166692,15.568281 16.4712046,15.3035081 C16.62574,15.0387352 16.62574,14.7112648 16.4712046,14.4464919 C16.3166692,14.181719 16.0315405,14.0206648 15.725,14.025 L14.9538575,14.025 C16.2276951,12.5374048 17,10.6066706 17,8.5 C17,8.01852005 16.9596297,7.54511085 16.8821288,7.08388682 C16.8191729,6.67521265 16.4712838,6.37111611 16.0578613,6.3633788 L16.0578613,6.3633788 Z M2.125,11.9 C1.65557741,11.9000469 1.27504694,12.2805774 1.27491463,12.75 L1.27491463,15.725 C1.27066475,16.0315405 1.431719,16.3166692 1.69649192,16.4712046 C1.96126484,16.62574 2.28873516,16.62574 2.55350808,16.4712046 C2.818281,16.3166692 2.97933525,16.0315405 2.975,15.725 L2.975,14.9538575 C4.4625952,16.2276951 6.3933294,17 8.5,17 C8.98147995,17 9.45488915,16.9596293 9.91611317,16.8821288 C10.2224085,16.8391879 10.4812125,16.6332766 10.591887,16.3444655 C10.7025616,16.0556543 10.6476408,15.7295214 10.4484811,15.4928864 C10.2493213,15.2562514 9.93735267,15.1464583 9.63388682,15.2062012 C9.26551085,15.2681004 8.88722005,15.3 8.5,15.3 C6.77126957,15.3 5.19996807,14.6577638 4.00263682,13.6 L5.1,13.6 C5.40654053,13.6043352 5.69166916,13.443281 5.84620456,13.1785081 C6.00073997,12.9137352 6.00073997,12.5862648 5.84620456,12.3214919 C5.69166916,12.056719 5.40654053,11.8956648 5.1,11.9 L2.125,11.9 Z" id="Shape" fill="color(display-p3 0.000 0.000 0.000)"></path>
    </g>
</svg>