<?xml version="1.0" encoding="UTF-8"?>
<svg width="21px" height="21px" viewBox="0 0 21 21" version="1.1" xmlns="http://www.w3.org/2000/svg" xmlns:xlink="http://www.w3.org/1999/xlink">
    <title>Support</title>
    <g id="Support" stroke="none" fill="none" fill-rule="nonzero">
        <path d="M5.65830003,0.00688683931 C4.42481818,0.0718069921 3.03416089,0.526247712 1.77676088,1.78364772 C0.102505873,3.4579036 -0.133257285,5.39183904 0.0546695655,6.84058253 C0.11275576,7.28135568 0.194760108,7.67087677 0.30068261,8.01597819 C0.105922502,8.81552102 -2.23820962e-13,9.64581439 -2.23820962e-13,10.5034434 C-2.23820962e-13,11.3610724 0.105922502,12.1913667 0.30068261,12.9909087 C0.194760108,13.3360101 0.11275576,13.7255312 0.0546695655,14.1663043 C-0.133257285,15.6150478 0.102505873,17.5489841 1.77676088,19.2232391 C3.45101676,20.897495 5.3849522,21.1332573 6.83369569,20.9453304 C7.27446884,20.8872442 7.66398994,20.8052399 8.00909135,20.6993174 C8.80863418,20.8940775 9.63892755,21 10.4965566,21 C11.3541856,21 12.1844799,20.8940775 12.9840218,20.6993174 C13.3291232,20.8052399 13.7186443,20.8872442 14.1594175,20.9453304 C15.608161,21.1332573 17.5420973,20.897495 19.2163523,19.2232391 C20.8906082,17.5489841 21.1263704,15.6150478 20.9384436,14.1663043 C20.8803574,13.7255312 20.7983531,13.3360101 20.6924306,12.9909087 C20.8871907,12.1913667 20.9931132,11.3610724 20.9931132,10.5034434 C20.9931132,9.64581439 20.8871907,8.81552102 20.6924306,8.01597819 C20.7983531,7.67087677 20.8803574,7.28135568 20.9384436,6.84058253 C21.1263704,5.39183904 20.8906082,3.4579036 19.2163523,1.78364772 C17.5420973,0.109392712 15.608161,-0.126370445 14.1594175,0.0615564048 C13.7186443,0.1196426 13.3291232,0.201646948 12.9840218,0.30756945 C12.1844799,0.112809341 11.3541856,0.00688683931 10.4965566,0.00688683931 C9.63892755,0.00688683931 8.80863418,0.112809341 8.00909135,0.30756945 C7.66398994,0.201646948 7.27446884,0.1196426 6.83369569,0.0615564048 C6.47151026,0.013720535 6.06832177,-0.0136142478 5.65830003,0.00688683931 Z M5.7129696,0.854265105 C5.9248146,0.844014343 6.14007536,0.840597714 6.3416696,0.854265105 C3.89520654,1.916905 1.91001816,3.90209338 0.847378266,6.34855644 C0.77220805,5.15607676 1.07630729,3.74150132 2.40546088,2.41234772 C3.51251958,1.30528902 4.66741459,0.90893467 5.7129696,0.854265105 Z M14.6514436,0.854265105 C15.8439232,0.77909489 17.2584987,1.08319413 18.5876523,2.41234772 C19.9168059,3.74150132 20.220906,5.15607676 20.1457349,6.34855644 C19.083095,3.90209338 17.0979066,1.916905 14.6514436,0.854265105 Z M8.7197957,1.92032163 C8.73004646,1.916905 8.73687972,1.92373826 8.74713048,1.92032163 L8.74713048,5.55584774 C7.25738482,6.08545937 6.10590732,7.26768829 5.57629568,8.75401732 L1.91343479,8.75401732 C2.6036385,5.32008546 5.28928046,2.62077522 8.7197957,1.92032163 Z M12.2459827,1.92032163 C15.6867487,2.61052533 18.3894755,5.31325132 19.0796784,8.75401732 L15.4168175,8.75401732 C14.8872058,7.26768829 13.7357283,6.08545937 12.2459827,5.55584774 L12.2459827,1.92032163 Z M10.4965566,7.00459123 C12.4407428,7.00459123 13.9954088,8.55925721 13.9954088,10.5034434 C13.9954088,12.4476296 12.4407428,14.0022956 10.4965566,14.0022956 C8.55237038,14.0022956 6.99770439,12.4476296 6.99770439,10.5034434 C6.99770439,8.55925721 8.55237038,7.00459123 10.4965566,7.00459123 Z M1.91343479,12.2528695 L5.57629568,12.2528695 C6.10590732,13.7391985 7.25738482,14.9214275 8.74713048,15.4510391 L8.74713048,19.0865652 C5.30636448,18.3963624 2.6036385,15.6936355 1.91343479,12.2528695 Z M15.4168175,12.2528695 L19.0796784,12.2528695 C18.3894755,15.6936355 15.6867487,18.3963624 12.2459827,19.0865652 L12.2459827,15.4510391 C13.7357283,14.9214275 14.8872058,13.7391985 15.4168175,12.2528695 Z M0.847378266,14.6583304 C1.91001816,17.1047935 3.89520654,19.0899818 6.3416696,20.1526217 C5.14918992,20.2277928 3.73461448,19.9236927 2.40546088,18.5945391 C1.07630729,17.2653855 0.77220805,15.8508101 0.847378266,14.6583304 Z M20.1457349,14.6583304 C20.220906,15.8508101 19.9168059,17.2653855 18.5876523,18.5945391 C17.2584987,19.9236927 15.8439232,20.2277928 14.6514436,20.1526217 C17.0979066,19.0899818 19.083095,17.1047935 20.1457349,14.6583304 Z" id="Shape" fill="color(display-p3 0.000 0.000 0.000)"></path>
    </g>
</svg>