<?xml version="1.0" encoding="UTF-8"?>
<svg width="24px" height="24px" viewBox="0 0 24 24" version="1.1" xmlns="http://www.w3.org/2000/svg" xmlns:xlink="http://www.w3.org/1999/xlink">
    <title>Light bulb</title>
    <g id="Light-bulb" stroke="none" stroke-width="1" fill="none" fill-rule="evenodd">
        <path d="M12,0.5 C11.4477153,0.5 11,0.94771525 11,1.5 C11,2.05228475 11.4477153,2.5 12,2.5 C12.5522847,2.5 13,2.05228475 13,1.5 C13,0.94771525 12.5522847,0.5 12,0.5 Z M4.2226562,3.7226562 C3.67037145,3.7226562 3.2226562,4.17037145 3.2226562,4.7226562 C3.2226562,5.27494095 3.67037145,5.7226562 4.2226562,5.7226562 C4.77494095,5.7226562 5.2226562,5.27494095 5.2226562,4.7226562 C5.2226562,4.17037145 4.77494095,3.7226562 4.2226562,3.7226562 Z M19.777344,3.7226562 C19.2250593,3.7226562 18.777344,4.17037145 18.777344,4.7226562 C18.777344,5.27494095 19.2250593,5.7226562 19.777344,5.7226562 C20.3296287,5.7226562 20.777344,5.27494095 20.777344,4.7226562 C20.777344,4.17037145 20.3296287,3.7226562 19.777344,3.7226562 Z M12,5.5 C8.14,5.5 5,8.64 5,12.5 C5,15.285 6.639,17.688453 9,18.814453 L9,21.5 C9,22.603 9.897,23.5 11,23.5 L13,23.5 C14.103,23.5 15,22.603 15,21.5 L15,18.814453 C17.361,17.688453 19,15.285 19,12.5 C19,8.64 15.86,5.5 12,5.5 Z M1,11.5 C0.44771525,11.5 0,11.9477153 0,12.5 C0,13.0522847 0.44771525,13.5 1,13.5 C1.55228475,13.5 2,13.0522847 2,12.5 C2,11.9477153 1.55228475,11.5 1,11.5 Z M23,11.5 C22.4477153,11.5 22,11.9477153 22,12.5 C22,13.0522847 22.4477153,13.5 23,13.5 C23.5522847,13.5 24,13.0522847 24,12.5 C24,11.9477153 23.5522847,11.5 23,11.5 Z M4.2226562,19.277344 C3.67037145,19.277344 3.2226562,19.7250593 3.2226562,20.277344 C3.2226562,20.8296287 3.67037145,21.277344 4.2226562,21.277344 C4.77494095,21.277344 5.2226562,20.8296287 5.2226562,20.277344 C5.2226562,19.7250593 4.77494095,19.277344 4.2226562,19.277344 Z M19.777344,19.277344 C19.2250593,19.277344 18.777344,19.7250593 18.777344,20.277344 C18.777344,20.8296287 19.2250593,21.277344 19.777344,21.277344 C20.3296287,21.277344 20.777344,20.8296287 20.777344,20.277344 C20.777344,19.7250593 20.3296287,19.277344 19.777344,19.277344 Z" id="Shape" fill="#000000" fill-rule="nonzero"></path>
    </g>
</svg>