<?xml version="1.0" encoding="UTF-8"?>
<svg width="17px" height="17px" viewBox="0 0 17 17" version="1.1" xmlns="http://www.w3.org/2000/svg" xmlns:xlink="http://www.w3.org/1999/xlink">
    <title>Line Chart</title>
    <g id="Line-Chart" stroke="none" fill="none" fill-rule="nonzero">
        <path d="M15.3,0 C14.3611159,0 13.6,0.761115925 13.6,1.7 C13.6000597,1.97595208 13.6672949,2.24774163 13.7958986,2.49189451 L12.3416014,4.30976563 C12.197661,4.27055337 12.0491852,4.2504589 11.9,4.25 C11.5017076,4.25059721 11.116269,4.39102377 10.8109375,4.64677737 L8.49501985,3.48798826 C8.49743998,3.4587068 8.49910058,3.42936753 8.5,3.4 C8.5,2.46111593 7.73888407,1.7 6.8,1.7 C5.86111593,1.7 5.1,2.46111593 5.1,3.4 C5.10034689,3.42935317 5.10145402,3.45869243 5.10332027,3.48798826 L2.7890625,4.64511723 C2.48350076,4.3899621 2.09808554,4.25013156 1.7,4.25 C0.761115925,4.25 0,5.01111593 0,5.95 C0,6.88888407 0.761115925,7.65 1.7,7.65 C2.63888407,7.65 3.4,6.88888407 3.4,5.95 C3.39965311,5.92064683 3.39854598,5.89130757 3.39667973,5.86201174 L5.7109375,4.70488277 C6.01649924,4.9600379 6.40191446,5.09986844 6.8,5.1 C7.19808554,5.09986844 7.58350076,4.9600379 7.8890625,4.70488277 L10.2049802,5.86201174 C10.20256,5.8912932 10.2008994,5.92063247 10.2,5.95 C10.2,6.88888407 10.9611159,7.65 11.9,7.65 C12.8388841,7.65 13.6,6.88888407 13.6,5.95 C13.5996712,5.67460957 13.5324438,5.40342155 13.4041014,5.15976563 L14.8583986,3.34189451 C15.0024138,3.38054623 15.1508883,3.40008237 15.3,3.4 C16.2388841,3.4 17,2.63888407 17,1.7 C17,0.761115925 16.2388841,0 15.3,0 Z M15.3,9.35 C14.3611159,9.35 13.6,10.1111159 13.6,11.05 C13.6004135,11.3078011 13.6594546,11.5621318 13.7726563,11.79375 L12.3216799,13.6547851 C12.1839668,13.6189468 12.0422989,13.6005412 11.9,13.6 C11.6240478,13.6000596 11.3522581,13.6672948 11.1081052,13.7958987 L9.29189485,12.3416014 C9.33054646,12.1975862 9.35008248,12.0491117 9.35,11.9 C9.35,10.9611159 8.58888407,10.2 7.65,10.2 C6.80014895,10.2014892 6.08196133,10.8303465 5.96826174,11.6725587 L3.00986326,12.5175777 C2.68713956,12.1267443 2.20685425,11.9002982 1.7,11.9 C0.761115925,11.9 0,12.6611159 0,13.6 C0,14.5388841 0.761115925,15.3 1.7,15.3 C2.54985105,15.2985108 3.26803867,14.6696535 3.38173826,13.8274413 L6.34013674,12.9824223 C6.66286044,13.3732557 7.14314575,13.5997018 7.65,13.6 C7.92539057,13.5996712 8.19657875,13.5324439 8.4402348,13.4041014 L10.2581052,14.8583987 C10.2194535,15.0024138 10.1999175,15.1508883 10.2,15.3 C10.2,16.2388841 10.9611159,17 11.9,17 C12.8388841,17 13.6,16.2388841 13.6,15.3 C13.5998776,15.0170235 13.5291187,14.7385535 13.3941402,14.4898438 L14.8085938,12.6769527 C14.967935,12.7252342 15.1335046,12.7498461 15.3,12.75 C16.2388841,12.75 17,11.9888841 17,11.05 C17,10.1111159 16.2388841,9.35 15.3,9.35 Z" id="Shape" fill="color(display-p3 0.000 0.000 0.000)"></path>
    </g>
</svg>