<?xml version="1.0" encoding="UTF-8"?>
<svg width="21px" height="21px" viewBox="0 0 21 21" version="1.1" xmlns="http://www.w3.org/2000/svg" xmlns:xlink="http://www.w3.org/1999/xlink">
    <title>Lists</title>
    <g id="Lists" stroke="none" stroke-width="1" fill="none" fill-rule="evenodd">
        <path d="M1.76,3 C0.931572875,3 0.26,3.67157288 0.26,4.5 C0.26,5.32842712 0.931572875,6 1.76,6 C2.58842712,6 3.26,5.32842712 3.26,4.5 C3.26,3.67157288 2.58842712,3 1.76,3 Z M6.76,3.5 C6.39936408,3.49489971 6.06391864,3.6843753 5.88211228,3.99587285 C5.70030592,4.3073704 5.70030592,4.6926296 5.88211228,5.00412715 C6.06391864,5.3156247 6.39936408,5.50510029 6.76,5.5 L19.76,5.5 C20.1206359,5.50510029 20.4560814,5.3156247 20.6378877,5.00412715 C20.8196941,4.6926296 20.8196941,4.3073704 20.6378877,3.99587285 C20.4560814,3.6843753 20.1206359,3.49489971 19.76,3.5 L6.76,3.5 Z M1.76,9 C0.931572875,9 0.26,9.67157288 0.26,10.5 C0.26,11.3284271 0.931572875,12 1.76,12 C2.58842712,12 3.26,11.3284271 3.26,10.5 C3.26,9.67157288 2.58842712,9 1.76,9 Z M6.76,9.5 C6.39936408,9.49489971 6.06391864,9.6843753 5.88211228,9.99587285 C5.70030592,10.3073704 5.70030592,10.6926296 5.88211228,11.0041272 C6.06391864,11.3156247 6.39936408,11.5051003 6.76,11.5 L19.76,11.5 C20.1206359,11.5051003 20.4560814,11.3156247 20.6378877,11.0041272 C20.8196941,10.6926296 20.8196941,10.3073704 20.6378877,9.99587285 C20.4560814,9.6843753 20.1206359,9.49489971 19.76,9.5 L6.76,9.5 Z M1.76,15 C0.931572875,15 0.26,15.6715729 0.26,16.5 C0.26,17.3284271 0.931572875,18 1.76,18 C2.58842712,18 3.26,17.3284271 3.26,16.5 C3.26,15.6715729 2.58842712,15 1.76,15 Z M6.76,15.5 C6.39936408,15.4948997 6.06391864,15.6843753 5.88211228,15.9958728 C5.70030592,16.3073704 5.70030592,16.6926296 5.88211228,17.0041272 C6.06391864,17.3156247 6.39936408,17.5051003 6.76,17.5 L19.76,17.5 C20.1206359,17.5051003 20.4560814,17.3156247 20.6378877,17.0041272 C20.8196941,16.6926296 20.8196941,16.3073704 20.6378877,15.9958728 C20.4560814,15.6843753 20.1206359,15.4948997 19.76,15.5 L6.76,15.5 Z" id="Shape" fill="#000000" fill-rule="nonzero"></path>
    </g>
</svg>