<?xml version="1.0" encoding="UTF-8"?>
<svg width="18px" height="18px" viewBox="0 0 18 18" version="1.1" xmlns="http://www.w3.org/2000/svg" xmlns:xlink="http://www.w3.org/1999/xlink">
    <title>Location</title>
    <g id="Location" stroke="none" fill="none" fill-rule="nonzero">
        <path d="M9.00098141,-5.68434189e-14 C5.42162796,-5.68434189e-14 2.52,2.90162796 2.52,6.48098141 C2.52,10.1529203 6.59746316,15.5728725 8.28437003,17.6569709 C8.65471183,18.114343 9.34725098,18.114343 9.71759278,17.6569709 C11.4044997,15.5728725 15.4819628,10.1529203 15.4819628,6.48098141 C15.4819628,2.90162796 12.5803349,-5.68434189e-14 9.00098141,-5.68434189e-14 Z M9.00098141,8.79561762 C7.72237636,8.79561762 6.68634519,7.75958645 6.68634519,6.48098141 C6.68634519,5.20237636 7.72237636,4.16634519 9.00098141,4.16634519 C10.2795865,4.16634519 11.3156176,5.20237636 11.3156176,6.48098141 C11.3156176,7.75958645 10.2795865,8.79561762 9.00098141,8.79561762 Z" id="Shape-Copy" fill="#000000"></path>
    </g>
</svg>