<?xml version="1.0" encoding="UTF-8"?>
<svg width="18px" height="18px" viewBox="0 0 18 18" version="1.1" xmlns="http://www.w3.org/2000/svg" xmlns:xlink="http://www.w3.org/1999/xlink">
    <title>Logout</title>
    <g id="Logout" stroke="none" stroke-width="1" fill="none" fill-rule="evenodd">
        <path d="M16,0 L2,0 C0.895,0 0,0.895 0,2 L0,16 C0,17.105 0.895,18 2,18 L16,18 C17.105,18 18,17.105 18,16 L18,2 C18,0.895 17.105,0 16,0 Z M16.707,9.707 L13.407,13.007 C13.212,13.202 12.956,13.3 12.7,13.3 C12.444,13.3 12.188,13.202 11.993,13.007 C11.602,12.616 11.602,11.984 11.993,11.593 L13.586,10 L6,10 C5.447,10 5,9.553 5,9 C5,8.447 5.447,8 6,8 L13.586,8 L11.993,6.407 C11.602,6.016 11.602,5.384 11.993,4.993 C12.384,4.602 13.016,4.602 13.407,4.993 L16.707,8.293 C17.098,8.684 17.098,9.316 16.707,9.707 Z" id="Shape" fill="#000000" fill-rule="nonzero"></path>
    </g>
</svg>