<?xml version="1.0" encoding="UTF-8"?>
<svg width="20px" height="20px" viewBox="0 0 20 20" version="1.1" xmlns="http://www.w3.org/2000/svg" xmlns:xlink="http://www.w3.org/1999/xlink">
    <title>logo_opf</title>
    <g id="logo_opf" stroke="none" fill="none" fill-rule="nonzero">
        <path d="M14.1146684,4.23 C14.6831101,4.23 15.1813133,4.60732767 15.3332244,5.15453447 L15.7889579,6.78798759 L16.3639334,6.78798759 C18.3714472,6.78798759 20,8.41654035 20,10.4240542 L20,15.7670794 L17.4648808,15.7670794 C17.4648808,11.6442437 14.1228357,8.30219863 10,8.30219863 C5.87716433,8.30219863 2.53511924,11.6442437 2.53511924,15.7670794 L0,15.7670794 L0,10.4240542 C0,8.41654035 1.62855276,6.78798759 3.63606664,6.78798759 L4.23227703,6.78798759 L4.23227703,5.6445704 C4.23227703,5.42405423 4.41032342,5.24600784 4.63083959,5.24600784 L6.08951323,5.24600784 C6.3100294,5.24600784 6.48807579,5.42405423 6.48807579,5.6445704 L6.48807579,6.78798759 L9.74518131,6.78798759 L10.2009147,5.15453447 C10.3544593,4.60896112 10.8526625,4.23 11.4194708,4.23 Z M9.999,10.438 L10.2180517,10.4432013 C13.0596006,10.5584262 15.3266906,12.8987765 15.3266906,15.7670794 L4.67167592,15.7670794 C4.67167592,12.8235969 7.05815093,10.4387553 10,10.4387553 L9.999,10.438 Z M12.9745181,12.5867462 C12.822607,12.4430023 12.5841228,12.4479026 12.440379,12.5998138 C12.2966351,12.7517249 12.3015354,12.9902091 12.4534466,13.133953 C12.7229664,13.3904051 12.9467494,13.6860601 13.118262,14.0143842 C13.1852336,14.143427 13.3175433,14.2169324 13.4531199,14.2169324 C13.5135577,14.2169324 13.5739954,14.2022313 13.6295328,14.1728291 C13.814113,14.0764554 13.8843515,13.847772 13.7879778,13.6631918 C13.5772623,13.2629958 13.3044757,12.9003692 12.9745181,12.5867462 Z M11.4652074,11.670379 C11.2675596,11.6034074 11.0519438,11.7079484 10.9849722,11.9055962 C10.9180007,12.103244 11.0225417,12.3188598 11.2201895,12.3858314 C11.3361647,12.4266678 11.4521398,12.4740379 11.5648481,12.5263084 C11.6154851,12.5508102 11.6710225,12.5622444 11.7249265,12.5622444 C11.8686704,12.5622444 12.004247,12.4822052 12.0679516,12.3449951 C12.1561581,12.1555145 12.0744855,11.930098 11.8866384,11.8418915 C11.7494283,11.7765534 11.6073179,11.7193826 11.4652074,11.670379 Z M17.2508984,8.51618099 C16.7146357,8.51618099 16.2838942,8.94656321 16.2838942,9.47746815 C16.2838942,10.0083731 16.7146357,10.4387553 17.245998,10.4387553 C17.7822607,10.4387553 18.2130023,10.0083731 18.2130023,9.47746815 C18.2130023,8.94656321 17.7822607,8.51618099 17.2508984,8.51618099 Z" id="Combined-Shape" fill="color(display-p3 0.000 0.000 0.000)"></path>
    </g>
</svg>