<?xml version="1.0" encoding="UTF-8"?>
<svg width="20px" height="20px" viewBox="0 0 20 20" version="1.1" xmlns="http://www.w3.org/2000/svg" xmlns:xlink="http://www.w3.org/1999/xlink">
    <title>logo_off</title>
    <g id="logo_off" stroke="none" fill="none" fill-rule="nonzero">
        <path d="M14.1343796,2.49 C14.4564329,2.49 14.771947,2.52106098 15.0776524,2.57664378 C15.0367827,5.01084355 13.320255,7.03307667 11.0315514,7.5464002 C11.0173359,7.55485845 11.0014577,7.55834126 10.9855522,7.56175245 C16.0456209,8.05542193 20,12.3224737 20,17.5120696 L0,17.5120696 C0,12.370343 3.88176451,8.13421975 8.87424415,7.57474917 C6.97546232,7.19411066 5.45207883,5.77491037 4.91907798,3.93515285 C5.28363577,3.85341344 5.66290665,3.80927415 6.05198627,3.80927415 C7.41536715,3.80927415 8.65567989,4.3358533 9.58121005,5.19666858 C10.4600909,3.58484953 12.1681411,2.49 14.1343796,2.49 Z M13.3415073,13.6572388 C13.0897499,13.4872209 12.7480791,13.555882 12.5780611,13.8076394 C12.4080432,14.0593968 12.4767043,14.4010675 12.7284617,14.5710855 C12.9802191,14.7411035 13.3218898,14.6724424 13.4919078,14.420685 C13.6619258,14.1689276 13.5932647,13.8272568 13.3415073,13.6572388 Z M16.37077,13.0556368 C16.1190126,12.8856188 15.775707,12.9542799 15.6073239,13.2060373 C15.4389407,13.4577947 15.505967,13.7994654 15.7577244,13.9694834 C16.0094818,14.1395014 16.3511525,14.0708403 16.5211705,13.8190829 C16.6895537,13.5673255 16.6225274,13.2256547 16.37077,13.0556368 Z M13.6929868,10.5969152 C13.4412294,10.4268972 13.0995586,10.4955583 12.9295406,10.7473157 C12.7611574,10.9990731 12.8281838,11.3407438 13.0799411,11.5107618 C13.3316985,11.6807798 13.6733693,11.6121187 13.8433873,11.3603613 C14.0134053,11.1086039 13.9447442,10.7669331 13.6929868,10.5969152 Z" id="Shape" fill="color(display-p3 0.000 0.000 0.000)"></path>
    </g>
</svg>