<?xml version="1.0" encoding="UTF-8"?>
<svg width="20px" height="20px" viewBox="0 0 20 20" version="1.1" xmlns="http://www.w3.org/2000/svg" xmlns:xlink="http://www.w3.org/1999/xlink">
    <title>logo_opff</title>
    <g id="logo_opff" stroke="none" fill="none" fill-rule="nonzero">
        <path d="M2.06254593,4.16349922 L6.92251164,6.3877174 L6.91434637,6.39424961 C7.26545276,6.2799359 7.62799053,6.19175104 7.99542745,6.1166306 C7.98726219,6.14275945 7.97909692,6.17052135 7.97909692,6.1999163 L7.97909692,8.24123254 C7.97909692,8.39637258 8.10647506,8.52375071 8.26161509,8.52375071 C8.41675512,8.52375071 8.54413326,8.39800563 8.54413326,8.24123254 L8.54413326,6.1999163 C8.54413326,6.13296113 8.51637136,6.07417122 8.47717808,6.02517963 C8.8936066,5.96149057 9.31983343,5.92882951 9.75095942,5.91739814 C9.72972973,5.95822446 9.7133992,6.00231689 9.7133992,6.05130848 L9.7133992,9.26842288 C9.7133992,9.42356291 9.84077733,9.55094104 9.99591737,9.55094104 C10.1510574,9.55094104 10.2784355,9.42519596 10.2784355,9.26842288 L10.2784355,6.05130848 C10.2784355,6.00231689 10.262105,5.95822446 10.2392423,5.91739814 C10.6720013,5.92882951 11.0982281,5.96149057 11.5146567,6.02517963 C11.4754634,6.07417122 11.4477015,6.13296113 11.4477015,6.20154936 L11.4477015,8.2428656 C11.4477015,8.39800563 11.5750796,8.52538376 11.7302196,8.52538376 C11.8853597,8.52538376 12.0127378,8.39963868 12.0127378,8.2428656 L12.0127378,6.20154936 C12.0127378,6.1721544 12.0045725,6.1443925 11.9964073,6.1166306 C12.358945,6.19175104 12.7165837,6.27830285 13.0644239,6.38935045 L17.9227566,4.16676533 C18.4975912,3.9038438 19.136115,4.38396138 19.0430309,5.00942067 L18.2591655,10.2727505 C19.3565771,11.8780416 20,13.8181085 20,15.9100494 L15.7703927,15.9100494 C15.8193843,15.5393464 15.8487793,15.1555789 15.8487793,14.757114 C15.8487793,12.2634421 14.8330203,10.2139606 13.529844,9.96736956 C13.4432922,9.95103903 13.3518413,9.94287376 13.2652895,9.94287376 C13.1787377,9.94287376 13.0938189,9.95267208 13.0089001,9.96736956 C12.9811382,9.97390177 12.9533763,9.98370009 12.9256144,9.9902323 C12.8700906,10.0049298 12.8145668,10.0179942 12.7606761,10.0375908 L12.6626929,10.0816833 C12.6153344,10.102913 12.5679758,10.1241426 12.5206173,10.1502715 C12.4863232,10.1682351 12.4536621,10.1927309 12.419368,10.2139606 C12.3769086,10.2417225 12.3328162,10.2694844 12.2903568,10.3021454 C12.2560627,10.3282743 12.2234016,10.3576692 12.1891075,10.3870642 C12.1482812,10.4213583 12.1090879,10.4556524 12.0698947,10.4932126 C12.0356006,10.5275067 12.0029395,10.5618008 11.9702784,10.597728 C11.9343513,10.6369213 11.8984241,10.6777476 11.8624969,10.720207 C11.8298359,10.7594003 11.7971748,10.8002266 11.7661468,10.842686 C11.7334858,10.8867784 11.7008247,10.9325039 11.6681636,10.9798624 C11.6371356,11.0255879 11.6061076,11.0729464 11.5767127,11.121938 C11.5473177,11.1692966 11.5179228,11.2199212 11.4885278,11.2705458 C11.4591328,11.3228035 11.4297379,11.3750612 11.401976,11.430585 C11.3742141,11.4828427 11.3497183,11.5367335 11.3235895,11.5906242 L11.2435699,11.768627 C11.2207071,11.8241508 11.1994774,11.8796746 11.1766147,11.9368315 C11.1521189,12.0005205 11.12599,12.0658427 11.1031273,12.1327978 C11.0835307,12.1899547 11.0655671,12.2487446 11.0476035,12.3059014 C11.0247408,12.3777558 11.001878,12.4479771 10.9806483,12.5214644 C10.9643178,12.5769882 10.9512534,12.6357781 10.9365559,12.692935 C10.9169593,12.7713215 10.8957296,12.8497081 10.877766,12.9313607 C10.8663346,12.9836184 10.8581693,13.0391422 10.846738,13.093033 C10.8287744,13.1812178 10.8108108,13.2694027 10.7961133,13.3608537 C10.7912142,13.3967808 10.786315,13.4343411 10.7814159,13.4702682 C10.7438556,13.7201253 10.7144607,13.9781477 10.6997632,14.2443353 C11.3382869,14.5203213 11.7873765,15.1637442 11.7873765,15.9133155 L8.21752266,15.9133155 C8.21752266,15.1637442 8.66661223,14.5203213 9.30513595,14.2443353 L9.30513595,14.234537 C9.29043847,13.9781477 9.26267657,13.7282906 9.22674941,13.4849657 C9.2202172,13.4441394 9.21531804,13.4000469 9.20878583,13.3592206 C9.19408835,13.2710358 9.17612477,13.186117 9.15979424,13.0995652 C9.14999592,13.0440414 9.13856455,12.9868845 9.12713318,12.9313607 C9.10916959,12.8513411 9.0879399,12.7745877 9.06834327,12.6962011 C9.05201274,12.6374112 9.03894831,12.5786213 9.02261778,12.5214644 C9.0013881,12.4479771 8.97852535,12.3777558 8.95566261,12.3059014 C8.93769903,12.2471115 8.91973545,12.1883216 8.90013881,12.1327978 C8.87727607,12.0642096 8.85114722,12.0005205 8.82665142,11.9351984 C8.80542174,11.8796746 8.78255899,11.8225178 8.75969625,11.768627 C8.7335674,11.708204 8.7058055,11.6494141 8.6780436,11.5906242 C8.65354781,11.5367335 8.62741896,11.4844758 8.60129011,11.4322181 C8.57352821,11.3783273 8.54413326,11.3244366 8.5147383,11.2721789 C8.48534335,11.2215543 8.4559484,11.1725627 8.42655344,11.1235711 C8.39715849,11.0745795 8.36613048,11.0272209 8.33510247,10.9814955 L8.23711929,10.8459521 C8.20609129,10.8034927 8.17343023,10.7610333 8.14076917,10.72184 C8.104842,10.6793807 8.06891484,10.6385543 8.03298767,10.5993611 C8.00032661,10.5634339 7.96766555,10.5275067 7.93337144,10.4948457 C7.89417817,10.4572855 7.85498489,10.4229913 7.81579162,10.3886972 C7.78313056,10.3593023 7.74883645,10.3299073 7.71454234,10.3037785 C7.67208296,10.2711174 7.62799053,10.2433555 7.58553115,10.2155936 C7.55287009,10.1927309 7.51857598,10.1698681 7.48428186,10.1502715 C7.43692333,10.1241426 7.38956479,10.102913 7.34220625,10.0816833 L7.24422308,10.0375908 C7.19033233,10.0163611 7.13480852,10.0032967 7.07928472,9.9902323 C7.05152282,9.98206703 7.02376092,9.97226872 6.99599902,9.96736956 C6.91108026,9.95103903 6.82616151,9.94287376 6.7396097,9.94287376 C6.38197109,9.94287376 6.04229607,10.0784172 5.73364906,10.3217421 C5.57850902,10.444221 5.43153425,10.5928289 5.2943578,10.7659325 C5.22576958,10.8524843 5.1588144,10.9455683 5.09512534,11.0435515 C4.83873602,11.4371173 4.62480607,11.9188679 4.46639993,12.4643076 C4.26716747,13.1452907 4.15448681,13.9275231 4.15448681,14.758747 C4.15448681,15.157212 4.18388177,15.5409794 4.23287336,15.9116824 L0,15.9067833 C0,13.8230077 0.63852372,11.8894729 1.72777007,10.2874479 L0.942271577,5.00615457 C0.849187556,4.38069527 1.48771128,3.90057769 2.06254593,4.16349922 Z M13.2685556,10.9145403 C14.0589532,10.9145403 14.69911,11.7424982 14.69911,12.7631563 C14.69911,13.7838144 14.0589532,14.6117723 13.2685556,14.6117723 C12.4781579,14.6117723 11.8380011,13.7838144 11.8380011,12.7631563 C11.8380011,12.3352964 11.9523149,11.9417306 12.141749,11.6281845 C12.2299339,11.8421144 12.4389646,11.9923553 12.6839226,11.9923553 C13.0072671,11.9907222 13.2685556,11.7294337 13.2685556,11.4077223 C13.2685556,11.2166551 13.1738385,11.0484506 13.0317629,10.9423022 C13.1085164,10.9259717 13.188536,10.9145403 13.2685556,10.9145403 Z M6.7396097,10.9145403 C6.82616151,10.9145403 6.91108026,10.9259717 6.99436597,10.9455683 C6.85392341,11.0517167 6.76247244,11.2182881 6.76247244,11.4077223 C6.76247244,11.7294337 7.02539397,11.9907222 7.34873847,11.9907222 C7.5838981,11.9907222 7.78639667,11.8502797 7.87948069,11.6494141 C8.06074957,11.9596942 8.17016412,12.3450947 8.17016412,12.7631563 C8.17016412,13.7838144 7.53000735,14.6117723 6.7396097,14.6117723 C5.94921205,14.6117723 5.30905528,13.7838144 5.30905528,12.7631563 C5.30905528,11.7424982 5.94921205,10.9145403 6.7396097,10.9145403 Z M2.21931902,5.64794439 L2.7271985,9.05612599 C3.50943088,8.22490201 4.43210582,7.52922144 5.4576631,7.00501143 L2.32220136,5.56955785 C2.26831061,5.54669511 2.21115375,5.59078754 2.21931902,5.64794439 Z M17.702804,5.56264677 L17.6712664,5.56955785 L14.5423369,7.00174532 C15.5646281,7.52268923 16.4840369,8.2151037 17.2662693,9.04142851 L17.7725157,5.64631134 C17.7783947,5.61201723 17.7595819,5.58242631 17.7323034,5.56953172 L17.702804,5.56264677 Z" id="Combined-Shape" fill="color(display-p3 0.000 0.000 0.000)"></path>
    </g>
</svg>