<?xml version="1.0" encoding="UTF-8"?>
<svg width="20px" height="20px" viewBox="0 0 20 20" version="1.1" xmlns="http://www.w3.org/2000/svg" xmlns:xlink="http://www.w3.org/1999/xlink">
    <title>logo_obf</title>
    <g id="logo_obf" stroke="none" fill="none" fill-rule="nonzero">
        <path d="M13.2898385,2.09 C13.5654869,2.09 13.7873104,2.31182352 13.7873104,2.58747186 C13.7873104,2.86312021 13.5638558,3.08494373 13.2898385,3.08494373 L11.6587832,3.08494373 L11.6587832,5.62775893 L12.6928723,5.62775893 C12.9000163,5.62775893 13.0696461,5.79575763 13.0696461,6.0045327 L13.0699001,8.41430863 C17.0715202,9.71471578 19.9641168,13.474339 19.9641168,17.9096053 L7.10542736e-15,17.9096053 C7.10542736e-15,13.4414688 2.93563016,9.65902694 6.98336801,8.38580219 L6.89447072,8.41360137 L6.89447072,6.00127059 C6.89447072,5.79412657 7.06246942,5.62449682 7.2712445,5.62449682 L8.30533355,5.62449682 L8.30533355,2.46677377 C8.30533355,2.25962975 8.47333225,2.09 8.68210732,2.09 Z" id="Combined-Shape" fill="color(display-p3 0.000 0.000 0.000)"></path>
    </g>
</svg>