<?xml version="1.0" encoding="UTF-8"?>
<svg width="17px" height="17px" viewBox="0 0 17 17" version="1.1" xmlns="http://www.w3.org/2000/svg" xmlns:xlink="http://www.w3.org/1999/xlink">
    <title>Loyalty card</title>
    <g id="Loyalty-card" stroke="none" fill="none" fill-rule="nonzero">
        <path d="M14.5,0.7 C15.8807119,0.7 17,1.81928813 17,3.2 L17,13.8 C17,15.1807119 15.8807119,16.3 14.5,16.3 L2.5,16.3 C1.11928813,16.3 -5.4574123e-12,15.1807119 -5.45696821e-12,13.8 L-5.45696821e-12,3.2 C-5.4574123e-12,1.81928813 1.11928813,0.7 2.5,0.7 Z M12.3181818,11.9818182 L4.68181818,11.9818182 C4.38072727,11.9818182 4.13636364,12.2261818 4.13636364,12.5272727 C4.13636364,12.8283636 4.38072727,13.0727273 4.68181818,13.0727273 L12.3181818,13.0727273 C12.6192727,13.0727273 12.8636364,12.8283636 12.8636364,12.5272727 C12.8636364,12.2261818 12.6192727,11.9818182 12.3181818,11.9818182 Z M8.5,3.8 C8.19875377,3.8 7.95454545,4.04420832 7.95454545,4.34545455 C7.95431886,4.52166966 8.03923608,4.68713909 8.18252855,4.78970169 L6.50674715,7.1355824 L3.56214487,6.15440338 C3.5809573,6.09879758 3.59067031,6.04051959 3.59090909,5.98181818 C3.59090909,5.68057195 3.34670077,5.43636364 3.04545455,5.43636364 C2.74420832,5.43636364 2.5,5.68057195 2.5,5.98181818 C2.5,6.28306441 2.74420832,6.52727273 3.04545455,6.52727273 C3.08525943,6.52698498 3.12491321,6.52234085 3.1637074,6.51342331 L3.94673298,10.0365058 C4.0574602,10.5355967 4.4999176,10.8909091 5.01100851,10.8909091 L11.987926,10.8909091 C12.4990169,10.8909091 12.9425396,10.5355967 13.0532669,10.0365058 L13.8362925,6.51448864 C13.8751263,6.52304782 13.9147797,6.52733466 13.9545455,6.52727273 C14.2557917,6.52727273 14.5,6.28306441 14.5,5.98181818 C14.5,5.68057195 14.2557917,5.43636364 13.9545455,5.43636364 C13.6532992,5.43636364 13.4090909,5.68057195 13.4090909,5.98181818 C13.4093296,6.04051958 13.4190426,6.09879757 13.4378549,6.15440338 L10.4932529,7.1355824 L8.81640618,4.78863636 C8.95979602,4.68652389 9.04509149,4.52148713 9.04545455,4.34545455 C9.04545455,4.04420832 8.80124623,3.8 8.5,3.8 Z" id="Shape" fill="color(display-p3 0.000 0.000 0.000)"></path>
    </g>
</svg>