<?xml version="1.0" encoding="UTF-8"?>
<svg width="17px" height="17px" viewBox="0 0 17 17" version="1.1" xmlns="http://www.w3.org/2000/svg" xmlns:xlink="http://www.w3.org/1999/xlink">
    <title>Manufacturing</title>
    <g id="Manufacturing" stroke="none" fill="none" fill-rule="nonzero">
        <path d="M3.48201815,4.56828629 L3.91466129,8.27887903 L1.18276815,8.27887903 L1.61541129,4.56828629 C1.63566734,4.39465323 1.78102419,4.26523387 1.95585685,4.26523387 L3.14157258,4.26523387 C3.31640524,4.26523387 3.46179637,4.39465323 3.48201815,4.56828629 L3.48201815,4.56828629 Z M6.5111371,1.90319355 C6.66256048,1.90319355 6.78533065,2.026786 6.78533065,2.17922359 C6.78533065,2.33166118 6.66256048,2.45525363 6.5111371,2.45525363 L3.46289315,2.45525363 C3.44397379,2.45525363 3.42652823,2.45884202 3.41113911,2.46529422 C3.39417339,2.4724365 3.37868145,2.48299464 3.36552016,2.49607157 L3.36606855,2.49662363 C3.34073992,2.5221219 3.32500806,2.55669466 3.32500806,2.59409673 L3.32500806,3.32716351 C3.32500806,3.4796011 3.2022379,3.60319355 3.05081452,3.60319355 C2.89939113,3.60319355 2.77662097,3.4796011 2.77662097,3.32716351 L2.77662097,2.59402773 C2.77662097,2.40422257 2.85390927,2.23153128 2.97835887,2.10624815 L2.97890726,2.10680021 L2.97942137,2.10624815 C3.04252016,2.04276124 3.11778629,1.99141965 3.20120968,1.95636383 C3.28267944,1.92213611 3.37110685,1.90319355 3.46289315,1.90319355 L6.5111371,1.90319355 L6.5111371,1.90319355 Z M2.42184879,3.31762097 L2.42184879,2.58943145 C2.42184879,2.44808468 2.44978226,2.31400403 2.50026815,2.19239919 C2.55291331,2.0656875 2.63068145,1.95086895 2.72750605,1.85404435 C2.82433065,1.75721976 2.93918347,1.67945161 3.06586089,1.62680645 C3.18746573,1.57632056 3.32154637,1.5483871 3.46285887,1.5483871 L6.51110282,1.5483871 C6.66252621,1.5483871 6.78529637,1.42561694 6.78529637,1.27419355 C6.78529637,1.12277016 6.66252621,1 6.51110282,1 L3.46285887,1 C3.24905645,1 3.0439254,1.04318548 2.85589718,1.12129637 C2.66077419,1.20232056 2.48566734,1.32042944 2.33972782,1.46633468 C2.19378831,1.61227419 2.07571371,1.78738105 1.99468952,1.98250403 C1.91657863,2.17053226 1.87342742,2.37562903 1.87342742,2.58946573 L1.87342742,3.31765524 C1.87342742,3.46907863 1.99619758,3.59184879 2.14762097,3.59184879 C2.29907863,3.59181452 2.42184879,3.46904435 2.42184879,3.31762097 L2.42184879,3.31762097 Z M13.2466331,5.93788306 L16.5645121,5.00528226 C16.6712419,4.97529234 16.775881,4.99510282 16.8642399,5.06204032 C16.9525988,5.12897782 17,5.2243629 17,5.33520565 L17,15.8157742 C17,16.0045565 16.8460403,16.1585161 16.6572581,16.1585161 L12.9966371,16.1585161 L12.9966371,6.26784073 C12.9966371,6.11199597 13.0966149,5.98004032 13.2466331,5.93788306 L13.2466331,5.93788306 Z M15.8556357,11.8543629 L14.6413361,11.8543629 C14.5075742,11.8543629 14.3984859,11.9634543 14.3984859,12.09722 L14.3984859,13.3115058 C14.3984859,13.4452715 14.5075742,13.5543629 14.6413361,13.5543629 L15.8556357,13.5543629 C15.9893976,13.5543629 16.0984859,13.4452715 16.0984859,13.3115058 L16.0984859,12.09722 C16.0984859,11.9634543 15.9893976,11.8543629 15.8556357,11.8543629 L15.8556357,11.8543629 Z M15.8556357,8.32795968 L14.6413361,8.32795968 C14.5075742,8.32795968 14.3984859,8.43705111 14.3984859,8.57081682 L14.3984859,9.78510253 C14.3984859,9.91886825 14.5075742,10.0279597 14.6413361,10.0279597 L15.8556357,10.0279597 C15.9893976,10.0279597 16.0984859,9.91886825 16.0984859,9.78510253 L16.0984859,8.57081682 C16.0984859,8.43700253 15.9893976,8.32795968 15.8556357,8.32795968 L15.8556357,8.32795968 Z M9.54169556,9.95666935 L12.4482843,9.1396754 L12.4482843,16.1584819 L9.54169556,16.1584819 L9.54169556,9.95666935 L9.54169556,9.95666935 Z M11.8523344,11.8543629 L10.6380487,11.8543629 C10.504283,11.8543629 10.3951915,11.9634543 10.3951915,12.09722 L10.3951915,13.3115058 C10.3951915,13.4452715 10.504283,13.5543629 10.6380487,13.5543629 L11.8523344,13.5543629 C11.9861001,13.5543629 12.0951915,13.4452715 12.0951915,13.3115058 L12.0951915,12.09722 C12.095143,11.9634543 11.9860515,11.8543629 11.8523344,11.8543629 L11.8523344,11.8543629 Z M5.53833266,9.95670363 L8.55785484,9.10797177 C8.66458468,9.07798185 8.76922379,9.09779234 8.85758266,9.16472984 C8.94594153,9.23166734 8.99334274,9.32705242 8.99334274,9.43789516 L8.99334274,16.1584819 L5.53833266,16.1584819 L5.53833266,9.95670363 L5.53833266,9.95670363 Z M7.84894415,11.8543629 L6.63464456,11.8543629 C6.50088267,11.8543629 6.39179435,11.9634543 6.39179435,12.09722 L6.39179435,13.3115058 C6.39179435,13.4452715 6.50088267,13.5543629 6.63464456,13.5543629 L7.84894415,13.5543629 C7.98270604,13.5543629 8.09179435,13.4452715 8.09179435,13.3115058 L8.09179435,12.09722 C8.09179435,11.9634543 7.98270604,11.8543629 7.84894415,11.8543629 L7.84894415,11.8543629 Z M0.342741935,8.82726613 L4.64720363,8.82726613 C4.83598589,8.82726613 4.98994556,8.98122581 4.98994556,9.17000806 L4.98994556,16.1585161 L3.83912097,16.1585161 L3.83912097,12.3030464 C3.83912097,12.1329778 3.7698871,11.9786754 3.65822177,11.8670101 C3.54655645,11.7553448 3.39225403,11.6861109 3.22218548,11.6861109 L1.76779435,11.6861109 C1.59772581,11.6861109 1.44345766,11.7553448 1.33175806,11.8670101 C1.22009274,11.9786754 1.15085887,12.1329778 1.15085887,12.3030464 L1.15085887,16.1585161 L0.342741935,16.1585161 C0.153959677,16.1585161 0,16.0045565 0,15.8157742 L0,9.17000806 C0,8.98122581 0.153959677,8.82726613 0.342741935,8.82726613 L0.342741935,8.82726613 Z M3.39924597,16.1585161 L3.39924597,12.3030464 C3.39924597,12.2843669 3.39097168,12.2672298 3.37760834,12.254754 C3.364245,12.2422782 3.34597566,12.234498 3.32602218,12.234498 L1.77246975,12.234498 C1.75251627,12.234498 1.73421032,12.242244 1.7208836,12.254754 C1.70755687,12.2672641 1.69924597,12.2843669 1.69924597,12.3030464 L1.69924597,16.1585161 L3.39924597,16.1585161 L3.39924597,16.1585161 Z" id="Shape" fill="color(display-p3 0.000 0.000 0.000)"></path>
    </g>
</svg>