<?xml version="1.0" encoding="UTF-8"?>
<svg width="17px" height="17px" viewBox="0 0 17 17" version="1.1" xmlns="http://www.w3.org/2000/svg" xmlns:xlink="http://www.w3.org/1999/xlink">
    <title>Mastodon</title>
    <g id="Mastodon" stroke="none" fill="none" fill-rule="nonzero">
        <path d="M8.45713358,0.000214893055 C6.31492358,0.00890288265 4.18790649,0.280879085 3.081163,0.791165494 C3.081163,0.791165494 0.700000008,1.87512518 0.700000008,5.56734316 C0.700000008,9.96240206 0.69680851,15.4818464 4.64505652,16.549228 C6.15712132,16.9556131 7.45744953,17.0430803 8.50284518,16.9827962 C10.4000184,16.8757035 11.3383546,16.2943507 11.3383546,16.2943507 L11.2746351,14.8925262 C11.2746351,14.8925262 10.0449413,15.3258732 8.52223819,15.2762269 C7.0137195,15.2230358 5.4244933,15.109826 5.17697425,13.226128 C5.15427909,13.0509497 5.14302017,12.8735772 5.14372939,12.6969805 C8.34020034,13.4906017 11.0658908,13.0426384 11.8162494,12.9518577 C13.911296,12.6972464 15.7350759,11.3835536 15.9677013,10.182838 C16.3322422,8.29062932 16.301535,5.56734316 16.301535,5.56734316 C16.301535,1.87512518 13.9245273,0.791165494 13.9245273,0.791165494 C12.7574998,0.246127127 10.5993436,-0.00847309654 8.45713358,0.000214893055 Z M6.16462349,2.8163314 C6.8985813,2.83601236 7.62385113,3.1643829 8.07066202,3.85800362 L8.50284518,4.59216066 L8.93364322,3.85800362 C9.83081112,2.46296072 11.8416155,2.55000686 12.7983582,3.62944524 C13.6806324,4.65640143 13.4840334,5.31921489 13.4840334,9.90718262 L13.4840334,9.90856774 L11.7483745,9.90856774 L11.7483745,5.91641453 C11.7483745,4.04761017 9.36582637,3.97543553 9.36582637,6.17544712 L9.36582637,8.48873534 L7.64124909,8.48873534 L7.64124909,6.17544712 C7.64124909,3.97543553 5.26008675,4.04622498 5.26008675,5.91502942 L5.26008675,9.90718262 L3.52027215,9.90718262 C3.52027215,5.31566877 3.32721928,4.64859997 4.20594737,3.62944524 C4.68786455,3.08617993 5.43066567,2.79665044 6.16462349,2.8163314 Z" id="Shape" fill="color(display-p3 0.000 0.000 0.000)"></path>
    </g>
</svg>