<?xml version="1.0" encoding="UTF-8"?>
<svg width="17px" height="17px" viewBox="0 0 17 17" version="1.1" xmlns="http://www.w3.org/2000/svg" xmlns:xlink="http://www.w3.org/1999/xlink">
    <title>Megaphone</title>
    <g id="Megaphone" stroke="none" fill="none" fill-rule="nonzero">
        <path d="M15.8578125,0.85 C15.5050625,0.85 15.1739076,1.01280152 14.9580076,1.29160152 L14.45,1.94238277 L3.95947263,5.74746098 C3.62287263,5.86901098 3.4,6.18814612 3.4,6.54599612 L3.4,10.4540038 C3.4,10.8118538 3.62287263,11.1309889 3.95947263,11.2525389 L5.48349611,11.8053712 L5.24277348,12.4860351 C5.06172339,12.9968851 5.32872964,13.5567427 5.84042973,13.7377927 L7.6915038,14.3935549 C8.2023538,14.5746049 8.76387145,14.3059386 8.9449223,13.7942386 L9.17402365,13.1434574 L14.45,15.0576174 L14.9580076,15.7083987 C15.1739076,15.9871986 15.5050625,16.15 15.8578125,16.15 C16.4885125,16.15 17,15.6385125 17,15.0078125 L17,1.9921875 C17,1.3614875 16.4885125,0.85 15.8578125,0.85 Z M0.85,5.95 C0.3808,5.95 0,6.3308 0,6.8 L0,10.2 C0,10.6692 0.3808,11.05 0.85,11.05 C1.3192,11.05 1.7,10.6692 1.7,10.2 L1.7,6.8 C1.7,6.3308 1.3192,5.95 0.85,5.95 Z" id="Shape" fill="color(display-p3 0.000 0.000 0.000)"></path>
    </g>
</svg>