<?xml version="1.0" encoding="UTF-8"?>
<svg width="22px" height="22px" viewBox="0 0 22 22" version="1.1" xmlns="http://www.w3.org/2000/svg" xmlns:xlink="http://www.w3.org/1999/xlink">
    <title>Message</title>
    <g id="Message" stroke="none" stroke-width="1" fill="none" fill-rule="evenodd">
        <path d="M18.3473286,12.8578826 L20.2420516,14.7526056 L14.794723,20.1999342 L12.9,20.1999342 L12.9,18.3052112 L18.3473286,12.8578826 Z M20.5603058,11.2 C20.9031323,11.2 21.2459587,11.3305583 21.5076673,11.5922669 C22.0306109,12.1156841 22.0306109,12.9640463 21.5076673,13.4869899 L20.9525727,14.0420845 L19.0578497,12.1473615 L19.6129443,11.5922669 C19.874653,11.3305583 20.2174794,11.2 20.5603058,11.2 Z M18,2.2 C19.024,2.2 19.859563,2.972625 19.976562,3.965625 L10,10.2 L0.0234375,3.965625 C0.1404375,2.972625 0.976,2.2 2,2.2 Z M-7.15871806e-13,5.9519531 L-7.15871806e-13,16.2 C-7.15871806e-13,17.305 0.895,18.2 2,18.2 L10.171875,18.2 L20,8.371875 L20,5.9519531 L10.529297,11.869922 C10.205297,12.072922 9.794703,12.072922 9.470703,11.869922 L-7.15871806e-13,5.9519531 Z" id="Shape" fill="#000000" fill-rule="nonzero"></path>
    </g>
</svg>