<?xml version="1.0" encoding="UTF-8"?>
<svg width="20px" height="20px" viewBox="0 0 20 20" version="1.1" xmlns="http://www.w3.org/2000/svg" xmlns:xlink="http://www.w3.org/1999/xlink">
    <title>Milk unhappy</title>
    <g id="Milk-unhappy" stroke="none" stroke-width="1" fill="none" fill-rule="evenodd">
        <g id="milk" transform="translate(2.3658, 0)" fill="#000000" fill-rule="nonzero">
            <path d="M11.4633,0 C11.8676862,0 12.195,0.327804878 12.195,0.731707317 L12.195,1.53487044 L14.351038,5.84603658 L14.4363169,6.03592792 C14.5661362,6.35563495 14.634,6.69818569 14.634,7.04554097 L14.634,18.2926829 C14.634,19.2268073 13.8608151,20 12.9267,20 L1.7073,20 C0.773184953,20 0,19.2268073 0,18.2926829 L0,7.04554097 C0,6.62981317 0.096321328,6.21897902 0.282962094,5.84603658 L2.439,1.53487044 L2.439,0.731707317 C2.439,0.327804878 2.7663138,0 3.1707,0 Z M11.4633,3.34317834 L9.88461917,6.50057171 C9.80032147,6.66886927 9.75599997,6.85572829 9.75599997,7.04554098 L9.75599997,18.5365853 L12.9267,18.5365853 C13.070623,18.5365853 13.1706,18.4366073 13.1706,18.2926829 L13.1706,7.04554098 C13.1706,6.85682634 13.1267082,6.67096439 13.0419808,6.50057171 L11.4633,3.34317834 Z M2.59239018,13.6213316 C2.36544773,13.8197992 2.28344871,14.1371369 2.38583509,14.4207037 C2.48822147,14.7042704 2.7540355,14.8960222 3.0554192,14.9037253 C3.25324571,14.9087908 3.44468983,14.8335183 3.58609194,14.695074 C4.33501226,14.0015023 5.3384871,14.0013135 6.08797275,14.695074 C6.22575693,14.8263728 6.40927459,14.8988238 6.59959109,14.8970559 C6.90140598,14.8943975 7.170625,14.7067048 7.27750378,14.4244321 C7.38438257,14.1421595 7.30699136,13.8232248 7.08262725,13.6213316 C5.81164529,12.4448482 3.86296235,12.4446599 2.59239018,13.6213316 Z M3.1707,10.2439024 C2.76659325,10.2439024 2.439,10.571499 2.439,10.9756098 C2.439,11.3797206 2.76659325,11.7073171 3.1707,11.7073171 C3.57480675,11.7073171 3.9024,11.3797206 3.9024,10.9756098 C3.9024,10.571499 3.57480675,10.2439024 3.1707,10.2439024 Z M6.5853,10.2439024 C6.18119327,10.2439024 5.8536,10.571499 5.8536,10.9756098 C5.8536,11.3797206 6.18119327,11.7073171 6.5853,11.7073171 C6.98940673,11.7073171 7.317,11.3797206 7.317,10.9756098 C7.317,10.571499 6.98940673,10.2439024 6.5853,10.2439024 Z M10.2790513,2.43902439 L3.62229597,2.43902439 L1.91499597,5.85365853 L8.57270403,5.85365853 L10.2790513,2.43902439 Z" id="Combined-Shape"></path>
        </g>
    </g>
</svg>