<?xml version="1.0" encoding="UTF-8"?>
<svg width="25px" height="25px" viewBox="0 0 25 25" version="1.1" xmlns="http://www.w3.org/2000/svg" xmlns:xlink="http://www.w3.org/1999/xlink">
    <title>Milk extract</title>
    <g id="Milk-extract" stroke="none" stroke-width="1" fill="none" fill-rule="evenodd">
        <path d="M13.4633,-3.55271368e-15 C13.8676862,-3.55271368e-15 14.195,0.327804878 14.195,0.731707317 L14.195,1.53487044 L16.351038,5.84603658 L16.4363169,6.03592792 C16.5661362,6.35563495 16.634,6.69818569 16.634,7.04554097 L16.6343082,12.5571444 C16.1252303,12.6248937 15.6347736,12.7515646 15.1700189,12.9300762 L15.1706,7.04554098 C15.1706,6.85682634 15.1267082,6.67096439 15.0419808,6.50057171 L13.4633,3.34317834 L11.8846192,6.50057171 C11.8003215,6.66886927 11.756,6.85572829 11.756,7.04554098 L11.755397,15.955927 C11.2731824,16.864046 11,17.9001204 11,19 C11,19.3403809 11.0261633,19.6746509 11.0765886,20.0009089 L3.7073,20 C2.77318495,20 2,19.2268073 2,18.2926829 L2,7.04554097 C2,6.62981317 2.09632133,6.21897902 2.28296209,5.84603658 L4.439,1.53487044 L4.439,0.731707317 C4.439,0.327804878 4.7663138,-3.55271368e-15 5.1707,-3.55271368e-15 L13.4633,-3.55271368e-15 Z M5.0554192,12.7391385 C4.7540355,12.7468416 4.48822147,12.9385933 4.38583509,13.2221601 C4.28344871,13.5057268 4.36544773,13.8230646 4.59239018,14.0215322 C5.86296235,15.1982039 7.81164529,15.1980156 9.08262725,14.0215322 C9.30699136,13.819639 9.38438257,13.5007042 9.27750378,13.2184317 C9.170625,12.936159 8.90140598,12.7484662 8.59959109,12.7458078 C8.40927459,12.74404 8.22575693,12.816491 8.08797275,12.9477897 C7.3384871,13.6415502 6.33501226,13.6413615 5.58609194,12.9477897 C5.44468983,12.8093455 5.25324571,12.734073 5.0554192,12.7391385 Z M5.1707,10.2439024 C4.76659325,10.2439024 4.439,10.571499 4.439,10.9756098 C4.439,11.3797206 4.76659325,11.7073171 5.1707,11.7073171 C5.57480675,11.7073171 5.9024,11.3797206 5.9024,10.9756098 C5.9024,10.571499 5.57480675,10.2439024 5.1707,10.2439024 Z M8.5853,10.2439024 C8.18119327,10.2439024 7.8536,10.571499 7.8536,10.9756098 C7.8536,11.3797206 8.18119327,11.7073171 8.5853,11.7073171 C8.98940673,11.7073171 9.317,11.3797206 9.317,10.9756098 C9.317,10.571499 8.98940673,10.2439024 8.5853,10.2439024 Z M12.2790513,2.43902439 L5.62229597,2.43902439 L3.91499597,5.85365853 L10.572704,5.85365853 L12.2790513,2.43902439 Z" id="Combined-Shape" fill="#000000" fill-rule="nonzero"></path>
        <path d="M17.5,13.5 C14.462625,13.5 12,15.962625 12,19 C12,22.037375 14.462625,24.5 17.5,24.5 C20.537375,24.5 23,22.037375 23,19 C23,15.962625 20.537375,13.5 17.5,13.5 Z M20.1157083,19.3240417 L18.282375,21.157375 C18.193,21.24675 18.0756667,21.2916667 17.9583333,21.2916667 C17.841,21.2916667 17.7236667,21.24675 17.6342917,21.157375 C17.4550833,20.9781667 17.4550833,20.6885 17.6342917,20.5092917 L18.68525,19.4583333 L15.2083333,19.4583333 C14.9553333,19.4583333 14.75,19.2534583 14.75,19 C14.75,18.7465417 14.9553333,18.5416667 15.2083333,18.5416667 L18.68525,18.5416667 L17.6342917,17.4907083 C17.4550833,17.3115 17.4550833,17.0218333 17.6342917,16.842625 C17.8135,16.6634167 18.1031667,16.6634167 18.282375,16.842625 L20.1157083,18.6759583 C20.2949167,18.8551667 20.2949167,19.1448333 20.1157083,19.3240417 Z" id="Shape" fill="#000000" fill-rule="nonzero" transform="translate(17.5, 19) scale(1, -1) rotate(270) translate(-17.5, -19)"></path>
    </g>
</svg>