<?xml version="1.0" encoding="UTF-8"?>
<svg width="25px" height="25px" viewBox="0 0 25 25" version="1.1" xmlns="http://www.w3.org/2000/svg" xmlns:xlink="http://www.w3.org/1999/xlink">
    <title>Milk camera</title>
    <g id="Milk-camera" stroke="none" fill="none">
        <path d="M13.4633,-3.55271368e-15 C13.8676862,-3.55271368e-15 14.195,0.327804878 14.195,0.731707317 L14.195,1.53487044 L16.351038,5.84603658 L16.4363169,6.03592792 C16.5661362,6.35563495 16.634,6.69818569 16.634,7.04554097 L16.6327762,13.6670292 C16.1410006,13.6739285 15.8440205,13.7042852 15.59045,13.837855 C15.48305,13.89441 15.38295,13.963785 15.2923,14.04446 C15.2483853,14.0835434 15.2078951,14.1258614 15.1697261,14.172396 L15.1706,7.04554098 C15.1706,6.85682634 15.1267082,6.67096439 15.0419808,6.50057171 L13.4633,3.34317834 L11.8846192,6.50057171 C11.8003215,6.66886927 11.756,6.85572829 11.756,7.04554098 L11.7537125,16.1244177 C11.1239839,16.2364291 10.7635019,16.3330635 10.5026,16.56535 C10.397435,16.65895 10.30598,16.7669 10.23092,16.88605 C10.0355262,17.1961654 10.0054656,17.5898352 10.0008409,18.2891553 L10,20 L3.7073,20 C2.77318495,20 2,19.2268073 2,18.2926829 L2,7.04554097 C2,6.62981317 2.09632133,6.21897902 2.28296209,5.84603658 L4.439,1.53487044 L4.439,0.731707317 C4.439,0.327804878 4.7663138,-3.55271368e-15 5.1707,-3.55271368e-15 L13.4633,-3.55271368e-15 Z M5.0554192,12.7391385 C4.7540355,12.7468416 4.48822147,12.9385933 4.38583509,13.2221601 C4.28344871,13.5057268 4.36544773,13.8230646 4.59239018,14.0215322 C5.86296235,15.1982039 7.81164529,15.1980156 9.08262725,14.0215322 C9.30699136,13.819639 9.38438257,13.5007042 9.27750378,13.2184317 C9.170625,12.936159 8.90140598,12.7484662 8.59959109,12.7458078 C8.40927459,12.74404 8.22575693,12.816491 8.08797275,12.9477897 C7.3384871,13.6415502 6.33501226,13.6413615 5.58609194,12.9477897 C5.44468983,12.8093455 5.25324571,12.734073 5.0554192,12.7391385 Z M5.1707,10.2439024 C4.76659325,10.2439024 4.439,10.571499 4.439,10.9756098 C4.439,11.3797206 4.76659325,11.7073171 5.1707,11.7073171 C5.57480675,11.7073171 5.9024,11.3797206 5.9024,10.9756098 C5.9024,10.571499 5.57480675,10.2439024 5.1707,10.2439024 Z M8.5853,10.2439024 C8.18119327,10.2439024 7.8536,10.571499 7.8536,10.9756098 C7.8536,11.3797206 8.18119327,11.7073171 8.5853,11.7073171 C8.98940673,11.7073171 9.317,11.3797206 9.317,10.9756098 C9.317,10.571499 8.98940673,10.2439024 8.5853,10.2439024 Z M12.2790513,2.43902439 L5.62229597,2.43902439 L3.91499597,5.85365853 L10.572704,5.85365853 L12.2790513,2.43902439 Z" id="Combined-Shape" fill="color(display-p3 0.000 0.000 0.000)" fill-rule="nonzero"></path>
        <path d="M12,19.3589833 C12,18.6502167 12,18.29587 12.1693413,18.0271033 C12.2243853,17.9397267 12.2914523,17.8605633 12.3685733,17.7919233 C12.6058323,17.5806867 12.9553867,17.5224233 13.654499,17.4059333 L15.3,17.1316667 L15.3682,16.9497633 C15.5746333,16.3993197 15.67785,16.1240887 15.88102,15.9432707 C15.9474967,15.884109 16.0209033,15.833234 16.0996633,15.7917603 C16.3403067,15.665 16.6342633,15.665 17.22214,15.665 L17.77786,15.665 C18.3657367,15.665 18.6596933,15.665 18.9003367,15.7917603 C18.9790967,15.833234 19.0525033,15.884109 19.11898,15.9432707 C19.32215,16.1240887 19.4253667,16.3993197 19.6318,16.9497633 L19.7,17.1316667 L21.34549,17.4059333 C22.0446133,17.5224233 22.3941567,17.5806867 22.6314267,17.7919233 C22.7085367,17.8605633 22.7756,17.9397267 22.8306733,18.0271033 C23,18.29587 23,18.6502167 23,19.3589833 L23,22.8516667 C23,23.67663 23,24.0890933 22.7899367,24.3782467 C22.7220667,24.4716367 22.6399333,24.5537333 22.54658,24.6216033 C22.2574267,24.8316667 21.8449267,24.8316667 21.02,24.8316667 L13.98,24.8316667 C13.1550587,24.8316667 12.742588,24.8316667 12.4534347,24.6216033 C12.360052,24.5537333 12.2779297,24.4716367 12.2100817,24.3782467 C12,24.0890933 12,23.67663 12,22.8516667 L12,19.3589833 Z M17.5,23.7316667 C19.1200433,23.7316667 20.4333333,22.4183767 20.4333333,20.7983333 C20.4333333,19.17829 19.1200433,17.865 17.5,17.865 C15.8799567,17.865 14.5666667,19.17829 14.5666667,20.7983333 C14.5666667,22.4183767 15.8799567,23.7316667 17.5,23.7316667 Z M22.2666667,18.7816667 C22.2666667,19.0854133 22.0204133,19.3316667 21.7166667,19.3316667 C21.41292,19.3316667 21.1666667,19.0854133 21.1666667,18.7816667 C21.1666667,18.47792 21.41292,18.2316667 21.7166667,18.2316667 C22.0204133,18.2316667 22.2666667,18.47792 22.2666667,18.7816667 Z M12.9166667,16.5083333 C12.9166667,16.2333517 12.9166667,16.0958627 12.9866927,15.999477 C13.0093087,15.9683507 13.036684,15.9409753 13.0678103,15.9183593 C13.164196,15.8483333 13.301685,15.8483333 13.5766667,15.8483333 L13.9066667,15.8483333 C14.18163,15.8483333 14.31913,15.8483333 14.4155267,15.9183593 C14.4466567,15.9409753 14.47401,15.9683507 14.4966333,15.999477 C14.5666667,16.0958627 14.5666667,16.2333517 14.5666667,16.5083333 L14.5666667,16.545 L12.9166667,16.82 L12.9166667,16.5083333 Z M17.5,22.4483333 C18.4112767,22.4483333 19.15,21.70961 19.15,20.7983333 C19.15,19.8870567 18.4112767,19.1483333 17.5,19.1483333 C16.5887233,19.1483333 15.85,19.8870567 15.85,20.7983333 C15.85,21.70961 16.5887233,22.4483333 17.5,22.4483333 Z" id="Shape" fill="color(display-p3 0.000 0.000 0.000)" fill-rule="evenodd"></path>
    </g>
</svg>