<?xml version="1.0" encoding="UTF-8"?>
<svg width="20px" height="20px" viewBox="0 0 20 20" version="1.1" xmlns="http://www.w3.org/2000/svg" xmlns:xlink="http://www.w3.org/1999/xlink">
    <title>Milk error</title>
    <g id="Milk-error" stroke="none" fill="none" fill-rule="evenodd" stroke-width="1">
        <g id="milk" transform="translate(2.3658, 0)" fill="color(display-p3 0.000 0.000 0.000)">
            <path d="M11.4633,0 C11.8676862,0 12.195,0.327804878 12.195,0.731707317 L12.195,1.53487044 L14.351038,5.84603658 L14.4363169,6.03592792 C14.5661362,6.35563495 14.634,6.69818569 14.634,7.04554097 L14.634,18.2926829 C14.634,19.2268073 13.8608151,20 12.9267,20 L1.7073,20 C0.773184953,20 0,19.2268073 0,18.2926829 L0,7.04554097 C0,6.62981317 0.096321328,6.21897902 0.282962094,5.84603658 L2.439,1.53487044 L2.439,0.731707317 C2.439,0.327804878 2.7663138,0 3.1707,0 Z M11.4633,3.34317834 L9.88461917,6.50057171 C9.80032147,6.66886927 9.75599997,6.85572829 9.75599997,7.04554098 L9.75599997,18.5365853 L12.9267,18.5365853 C13.070623,18.5365853 13.1706,18.4366073 13.1706,18.2926829 L13.1706,7.04554098 C13.1706,6.85682634 13.1267082,6.67096439 13.0419808,6.50057171 L11.4633,3.34317834 Z M3.61843074,11.832233 C3.38411616,12.0665476 3.38411616,12.4464466 3.61843074,12.6807612 L4.184,13.246 L3.61843074,13.812132 C3.38411616,14.0464466 3.38411616,14.4263456 3.61843074,14.6606602 C3.85274531,14.8949747 4.2326443,14.8949747 4.46695887,14.6606602 L5.032,14.094 L5.59832972,14.6606602 C5.80660934,14.8689398 6.12991863,14.892082 6.3637604,14.7300867 L6.44685786,14.6606602 C6.68117244,14.4263456 6.68117244,14.0464466 6.44685786,13.812132 L5.88,13.246 L6.44685786,12.6807612 C6.68117244,12.4464466 6.68117244,12.0665476 6.44685786,11.832233 C6.21254329,11.5979185 5.8326443,11.5979185 5.59832972,11.832233 L5.032,12.398 L4.46695887,11.832233 C4.2326443,11.5979185 3.85274531,11.5979185 3.61843074,11.832233 Z M10.2790513,2.43902439 L3.62229597,2.43902439 L1.91499597,5.85365853 L8.57270403,5.85365853 L10.2790513,2.43902439 Z" id="Combined-Shape" fill-rule="nonzero"></path>
        </g>
    </g>
</svg>