<?xml version="1.0" encoding="UTF-8"?>
<svg width="24px" height="24px" viewBox="0 0 24 24" version="1.1" xmlns="http://www.w3.org/2000/svg" xmlns:xlink="http://www.w3.org/1999/xlink">
    <title>Milk add</title>
    <g id="Milk-add" stroke="none" stroke-width="1" fill="none" fill-rule="evenodd">
        <path d="M13.9633,-1.42108547e-14 C14.3676862,-1.42108547e-14 14.695,0.327804878 14.695,0.731707317 L14.695,1.53487044 L16.851038,5.84603658 L16.9363169,6.03592792 C17.0661362,6.35563495 17.134,6.69818569 17.134,7.04554097 L17.1343811,13.9016095 C17.0897172,13.9005385 17.0449215,13.9 17,13.9 C16.541452,13.9 16.0960104,13.9561155 15.6701679,14.0618539 L15.6706,7.04554097 C15.6706,6.85682634 15.6267082,6.67096439 15.5419808,6.50057171 L13.9633,3.34317834 L12.3846192,6.50057171 C12.3003215,6.66886927 12.256,6.85572829 12.256,7.04554097 L12.2544074,16.618085 C11.77494,17.4342325 11.5,18.3850084 11.5,19.4 C11.5,19.6030532 11.5110035,19.8035364 11.5324469,20.0008858 L4.2073,20 C3.27318495,20 2.5,19.2268073 2.5,18.2926829 L2.5,7.04554097 C2.5,6.62981317 2.59632133,6.21897902 2.78296209,5.84603658 L4.939,1.53487044 L4.939,0.731707317 C4.939,0.327804878 5.2663138,-1.42108547e-14 5.6707,-1.42108547e-14 L13.9633,-1.42108547e-14 Z M5.5554192,12.7391385 C5.2540355,12.7468416 4.98822147,12.9385933 4.88583509,13.2221601 C4.78344871,13.5057268 4.86544773,13.8230646 5.09239018,14.0215322 C6.36296235,15.1982039 8.31164529,15.1980156 9.58262725,14.0215322 C9.80699136,13.819639 9.88438257,13.5007042 9.77750378,13.2184317 C9.670625,12.936159 9.40140598,12.7484662 9.09959109,12.7458078 C8.90927459,12.74404 8.72575693,12.816491 8.58797275,12.9477897 C7.8384871,13.6415502 6.83501226,13.6413615 6.08609194,12.9477897 C5.94468983,12.8093455 5.75324571,12.734073 5.5554192,12.7391385 Z M5.6707,10.2439024 C5.26659325,10.2439024 4.939,10.571499 4.939,10.9756098 C4.939,11.3797206 5.26659325,11.7073171 5.6707,11.7073171 C6.07480675,11.7073171 6.4024,11.3797206 6.4024,10.9756098 C6.4024,10.571499 6.07480675,10.2439024 5.6707,10.2439024 Z M9.0853,10.2439024 C8.68119327,10.2439024 8.3536,10.571499 8.3536,10.9756098 C8.3536,11.3797206 8.68119327,11.7073171 9.0853,11.7073171 C9.48940673,11.7073171 9.817,11.3797206 9.817,10.9756098 C9.817,10.571499 9.48940673,10.2439024 9.0853,10.2439024 Z M12.7790513,2.43902439 L6.12229597,2.43902439 L4.41499597,5.85365853 L11.072704,5.85365853 L12.7790513,2.43902439 Z" id="Combined-Shape" fill="#000000" fill-rule="nonzero"></path>
        <path d="M17,14.9 C14.51465,14.9 12.5,16.91465 12.5,19.4 C12.5,21.88535 14.51465,23.9 17,23.9 C19.48535,23.9 21.5,21.88535 21.5,19.4 C21.5,16.91465 19.48535,14.9 17,14.9 Z M18.35,19.85 L17.45,19.85 L17.45,20.75 C17.45,20.9984 17.2484,21.2 17,21.2 L17,21.2 C16.7516,21.2 16.55,20.9984 16.55,20.75 L16.55,19.85 L15.65,19.85 C15.4016,19.85 15.2,19.6484 15.2,19.4 L15.2,19.4 C15.2,19.1516 15.4016,18.95 15.65,18.95 L16.55,18.95 L16.55,18.05 C16.55,17.8016 16.7516,17.6 17,17.6 L17,17.6 C17.2484,17.6 17.45,17.8016 17.45,18.05 L17.45,18.95 L18.35,18.95 C18.5984,18.95 18.8,19.1516 18.8,19.4 L18.8,19.4 C18.8,19.6484 18.5984,19.85 18.35,19.85 Z" id="Shape" fill="#000000" fill-rule="nonzero"></path>
    </g>
</svg>