<?xml version="1.0" encoding="UTF-8"?>
<svg width="25px" height="25px" viewBox="0 0 25 25" version="1.1" xmlns="http://www.w3.org/2000/svg" xmlns:xlink="http://www.w3.org/1999/xlink">
    <title>Milk certification</title>
    <g id="Milk-certification" stroke="none" fill="none" fill-rule="evenodd" stroke-width="1">
        <g id="badge" transform="translate(13.545, 13.35)" fill="color(display-p3 0.000 0.000 0.000)">
            <path d="M2.99700611,8.8117397 C2.9307602,8.72211012 2.8138224,8.67144162 2.70471033,8.6909241 C2.08893275,8.79615838 1.40690925,8.69872645 0.943133271,8.24272944 C0.44429349,9.19366506 0.0350832887,9.97312049 0.0350832887,9.98092283 C-0.0740482655,10.1835851 0.101333103,10.4291175 0.323481796,10.4096116 L1.52772484,10.2810171 C1.52772484,10.2810171 2.10453745,11.3410648 2.10841524,11.3449659 C2.21755069,11.5476321 2.51374765,11.5437349 2.62285971,11.3410687 L3.62056266,9.43919742 C3.41011749,9.29499816 3.19967232,9.09623313 2.99700611,8.8117397 Z M8.21546799,8.24662672 C7.74778694,8.69872645 7.05796499,8.79225721 6.44998975,8.6909241 C6.34477886,8.67534279 6.22393989,8.72601129 6.16159514,8.8117397 C5.95892894,9.09623313 5.74848377,9.29499816 5.5380386,9.43529624 C6.0329772,10.3784529 6.53184037,11.3371675 6.53574154,11.3410687 C6.64485361,11.5437349 6.94105057,11.5437349 7.05018602,11.3449698 L7.63087642,10.2810171 C7.63087642,10.2810171 8.83122218,10.4096116 8.83512336,10.4096116 C9.0650744,10.4329953 9.23265342,10.1874863 9.12351797,9.98091894 L8.21546799,8.24662672 Z M4.57930063,2.53323014 C3.4510311,2.53323014 2.53323014,3.4510311 2.53323014,4.57930063 C2.53323014,5.70757015 3.4510311,6.62537112 4.57930063,6.62537112 C5.70757015,6.62537112 6.62537112,5.70757015 6.62537112,4.57930063 C6.62537112,3.4510311 5.70757015,2.53323014 4.57930063,2.53323014 Z M5.95514468,4.00650612 C5.95514468,4.00650612 4.40099241,5.56065839 4.39623383,5.56539359 C4.28854817,5.67310263 4.09632666,5.67881214 3.9829081,5.56541697 L3.20345268,4.78596154 C3.08927415,4.67178302 3.08927415,4.48681435 3.20345268,4.37263582 C3.31763121,4.25845729 3.50259988,4.25845729 3.6167784,4.37263582 L4.18957292,4.94543033 L5.54182285,3.59318039 C5.65600138,3.47900186 5.84097005,3.47900186 5.95514858,3.59318039 C6.06932711,3.70735892 6.06932321,3.89232759 5.95514468,4.00650612 Z" id="Shape" fill-rule="nonzero"></path>
            <path d="M6.5481115,8.1148247 C7.23641351,8.2297632 7.61815181,8.01644184 7.81757937,7.81739231 C8.01662891,7.61815181 8.2297632,7.23622644 8.1148247,6.5481115 C8.05983022,6.21889681 8.19988667,5.88093273 8.47144115,5.68701981 C9.03947708,5.2816874 9.15860126,4.86094126 9.15860126,4.57930063 C9.15860126,4.29766 9.03947708,3.87691386 8.47144115,3.47158145 C8.19988667,3.27766853 8.05983022,2.93970055 8.1148247,2.61048976 C8.2297632,1.92237871 8.0166328,1.54044945 7.81739231,1.34102188 C7.61815181,1.14216332 7.23641741,0.928460023 6.5481115,1.04377656 C6.21832781,1.0995349 5.8811198,0.958714585 5.68701981,0.687160109 C5.2816874,0.119124173 4.86094126,0 4.57930063,0 C4.29766,0 3.87691386,0.119124173 3.47158145,0.687160109 C3.27766853,0.958714585 2.94046442,1.0995349 2.61048976,1.04377656 C1.92180581,0.928456125 1.54026238,1.14177749 1.34102188,1.34120895 C1.14197235,1.54044945 0.928838059,1.92237481 1.04377656,2.61048976 C1.09877103,2.93970445 0.958714585,3.27766853 0.687160109,3.47158145 C0.119124173,3.87691386 0,4.29766 0,4.57930063 C0,4.86094126 0.119124173,5.2816874 0.687160109,5.68701981 C0.958714585,5.88093273 1.09877103,6.21890071 1.04377656,6.5481115 C0.928838059,7.23622255 1.14196845,7.61815181 1.34120895,7.81757937 C1.54025848,8.01643794 1.92180581,8.2297632 2.61048976,8.1148247 C2.94046442,8.06020826 3.27766853,8.19988667 3.47158145,8.47144115 C3.87691386,9.03947708 4.29766,9.15860126 4.57930063,9.15860126 C4.86094126,9.15860126 5.2816874,9.03947708 5.68701981,8.47144115 C5.8811198,8.19988667 6.21832781,8.06020826 6.5481115,8.1148247 Z M4.57930063,7.20996269 C3.12866783,7.20996269 1.94863857,6.02993343 1.94863857,4.57930063 C1.94863857,3.12866783 3.12866783,1.94863857 4.57930063,1.94863857 C6.02993343,1.94863857 7.20996269,3.12866783 7.20996269,4.57930063 C7.20996269,6.02993343 6.02993343,7.20996269 4.57930063,7.20996269 Z" id="Shape" fill-rule="nonzero"></path>
            <path d="M0.213300028,-13.25 C0.617686172,-13.25 0.945000028,-12.9221951 0.945000028,-12.5182927 L0.945000028,-11.7151296 L3.10103797,-7.40396342 L3.18631692,-7.21407208 C3.31613619,-6.89436505 3.384,-6.55181431 3.384,-6.20445902 L3.38375989,-0.360943082 C3.33233939,-0.300475435 3.28091082,-0.23457124 3.22968433,-0.162782038 C2.99342588,0.168072856 2.58258519,0.339644656 2.18055266,0.271710143 C2.08892958,0.256367817 2.00176846,0.245799818 1.91887128,0.239462776 L1.9206,-6.20445902 C1.9206,-6.39317366 1.87670825,-6.57903561 1.7919808,-6.74942829 L0.213300028,-9.90682166 L-1.36538083,-6.74942829 C-1.44967853,-6.58113073 -1.49400003,-6.39427171 -1.49400003,-6.20445902 L-1.49400003,5.28658533 L-0.790338905,5.28634655 C-0.663268097,5.49364535 -0.465264632,5.7130747 -0.162782038,5.92891667 C0.10532928,6.12037089 0.268231086,6.42708129 0.284718495,6.7499712 L-9.5427,6.75 C-10.476815,6.75 -11.25,5.97680733 -11.25,5.04268292 L-11.25,-6.20445902 C-11.25,-6.62018683 -11.1536787,-7.03102097 -10.9670379,-7.40396342 L-8.811,-11.7151296 L-8.811,-12.5182927 C-8.811,-12.9221951 -8.4836862,-13.25 -8.0793,-13.25 L0.213300028,-13.25 Z M-8.1945808,-0.5108615 C-8.4959645,-0.503158417 -8.76177853,-0.311406667 -8.86416491,-0.0278399167 C-8.96655129,0.255726833 -8.88455227,0.573064583 -8.65760982,0.771532167 C-7.38703765,1.94820392 -5.43835471,1.94801558 -4.16737275,0.771532167 C-3.94300864,0.569639 -3.86561743,0.25070425 -3.97249622,-0.0315683333 C-4.079375,-0.313841 -4.34859402,-0.50153375 -4.65040891,-0.504192167 C-4.84072541,-0.50596 -5.02424307,-0.433509 -5.16202725,-0.30221025 C-5.9115129,0.39155025 -6.91498774,0.3913615 -7.66390806,-0.30221025 C-7.80531017,-0.4406545 -7.99675429,-0.515927 -8.1945808,-0.5108615 Z M-8.0793,-3.00609758 C-8.48340675,-3.00609758 -8.811,-2.678501 -8.811,-2.27439025 C-8.811,-1.87027942 -8.48340675,-1.54268292 -8.0793,-1.54268292 C-7.67519325,-1.54268292 -7.3476,-1.87027942 -7.3476,-2.27439025 C-7.3476,-2.678501 -7.67519325,-3.00609758 -8.0793,-3.00609758 Z M-4.6647,-3.00609758 C-5.06880673,-3.00609758 -5.3964,-2.678501 -5.3964,-2.27439025 C-5.3964,-1.87027942 -5.06880673,-1.54268292 -4.6647,-1.54268292 C-4.26059327,-1.54268292 -3.933,-1.87027942 -3.933,-2.27439025 C-3.933,-2.678501 -4.26059327,-3.00609758 -4.6647,-3.00609758 Z M-0.970948651,-10.8109756 L-7.62770403,-10.8109756 L-9.33500403,-7.39634147 L-2.67729597,-7.39634147 L-0.970948651,-10.8109756 Z" id="Combined-Shape" fill-rule="nonzero"></path>
        </g>
    </g>
</svg>