<?xml version="1.0" encoding="UTF-8"?>
<svg width="25px" height="25px" viewBox="0 0 25 25" version="1.1" xmlns="http://www.w3.org/2000/svg" xmlns:xlink="http://www.w3.org/1999/xlink">
    <title>Milk new</title>
    <g id="Milk-new" stroke="none" fill="none" fill-rule="nonzero">
        <path d="M13.4633,-3.55271368e-15 C13.8676862,-3.55271368e-15 14.195,0.327804878 14.195,0.731707317 L14.195,1.53487044 L16.351038,5.84603658 L16.4363169,6.03592792 C16.5661362,6.35563495 16.634,6.69818569 16.634,7.04554097 L16.634,11.485 L16.1172595,11.239925 C15.9149312,11.1421707 15.6716823,11.2035513 15.5375544,11.3831463 L15.17,11.872 L15.1706,7.04554098 C15.1706,6.85682634 15.1267082,6.67096439 15.0419808,6.50057171 L13.4633,3.34317834 L11.8846192,6.50057171 C11.8003215,6.66886927 11.756,6.85572829 11.756,7.04554098 L11.755,15.043 L10.75442,15.620676 C10.558912,15.7320702 10.4702511,15.9662256 10.5429984,16.1799205 L11.0658698,17.7462611 L10.1815351,19.1398262 C10.0610476,19.3285146 10.0928745,19.5785831 10.2542824,19.7331711 L10.532,20 L3.7073,20 C2.77318495,20 2,19.2268073 2,18.2926829 L2,7.04554097 C2,6.62981317 2.09632133,6.21897902 2.28296209,5.84603658 L4.439,1.53487044 L4.439,0.731707317 C4.439,0.327804878 4.7663138,-3.55271368e-15 5.1707,-3.55271368e-15 L13.4633,-3.55271368e-15 Z M5.0554192,12.7391385 C4.7540355,12.7468416 4.48822147,12.9385933 4.38583509,13.2221601 C4.28344871,13.5057268 4.36544773,13.8230646 4.59239018,14.0215322 C5.86296235,15.1982039 7.81164529,15.1980156 9.08262725,14.0215322 C9.30699136,13.819639 9.38438257,13.5007042 9.27750378,13.2184317 C9.170625,12.936159 8.90140598,12.7484662 8.59959109,12.7458078 C8.40927459,12.74404 8.22575693,12.816491 8.08797275,12.9477897 C7.3384871,13.6415502 6.33501226,13.6413615 5.58609194,12.9477897 C5.44468983,12.8093455 5.25324571,12.734073 5.0554192,12.7391385 Z M5.1707,10.2439024 C4.76659325,10.2439024 4.439,10.571499 4.439,10.9756098 C4.439,11.3797206 4.76659325,11.7073171 5.1707,11.7073171 C5.57480675,11.7073171 5.9024,11.3797206 5.9024,10.9756098 C5.9024,10.571499 5.57480675,10.2439024 5.1707,10.2439024 Z M8.5853,10.2439024 C8.18119327,10.2439024 7.8536,10.571499 7.8536,10.9756098 C7.8536,11.3797206 8.18119327,11.7073171 8.5853,11.7073171 C8.98940673,11.7073171 9.317,11.3797206 9.317,10.9756098 C9.317,10.571499 8.98940673,10.2439024 8.5853,10.2439024 Z M12.2790513,2.43902439 L5.62229597,2.43902439 L3.91499597,5.85365853 L10.572704,5.85365853 L12.2790513,2.43902439 Z" id="Combined-Shape" fill="color(display-p3 0.000 0.000 0.000)"></path>
        <path d="M23.0550778,19.0207119 L22.4065661,17.9987641 L22.7900047,16.8501144 C22.8433527,16.6934048 22.7783347,16.5216908 22.6349622,16.4400018 L21.5863404,15.8348351 L21.3929539,14.6395063 C21.3662798,14.4777953 21.2295753,14.3560948 21.0645298,14.3477593 L19.854197,14.3010798 L19.1273303,13.33248 C19.0289698,13.19911 18.8505873,13.1557645 18.7022132,13.227451 L17.608579,13.7475941 L16.5149447,13.227451 C16.3665706,13.1557645 16.1881881,13.200777 16.0898276,13.33248 L15.3629609,14.3010798 L14.1526281,14.3477593 C13.9875826,14.3560948 13.8508785,14.4777953 13.8242045,14.6395063 L13.630818,15.8348351 L12.5821958,16.4400018 C12.4388232,16.5216908 12.3738052,16.6934048 12.4271532,16.8501144 L12.8105923,17.9987641 L12.1620802,19.0207119 C12.0737226,19.1590834 12.0970624,19.342467 12.2154282,19.4558315 L13.0890019,20.2943957 L12.9906418,21.4997275 C12.9773048,21.6647726 13.0823334,21.8164811 13.2407104,21.8614936 L14.4043642,22.1965857 L14.8778278,23.3118925 C14.9411783,23.463601 15.1045568,23.5502915 15.2662679,23.515282 L16.4515941,23.2718815 L17.3885184,24.0387592 C17.4518694,24.0904402 17.530224,24.1187812 17.608579,24.1187812 C17.686934,24.1187812 17.7636215,24.0921072 17.8286395,24.0387592 L18.7655642,23.2718815 L19.9508901,23.515282 C20.1126015,23.5502915 20.2759796,23.463601 20.3393306,23.3118925 L20.8127942,22.1965857 L21.9764475,21.8614936 C22.1348246,21.8164811 22.2398536,21.6647726 22.2265166,21.4997275 L22.128156,20.2943957 L23.0017298,19.4558315 C23.1200958,19.342467 23.1434353,19.1607504 23.0550778,19.0207119 Z M15.904777,19.9559691 L15.3396214,19.9559691 C15.3396214,19.9559691 14.3610187,18.4305493 14.2509886,18.1554737 C14.2509886,18.1554737 14.2859981,18.6872868 14.2859981,19.2291025 L14.2859981,19.9559691 L13.7441825,19.9559691 L13.7441825,17.348585 L14.3076707,17.348585 C14.3076707,17.348585 15.2996104,18.8856748 15.4196434,19.1374105 C15.4196434,19.1374105 15.3629609,18.5522498 15.3629609,18.0871217 L15.3629609,17.348585 L15.904777,17.348585 L15.904777,19.9559691 Z M18.0086891,19.9559691 L16.3148897,19.9559691 L16.3148897,17.348585 L17.845311,17.348585 L17.845311,17.7953746 L16.8083588,17.7953746 L16.8083588,18.2288272 L17.833641,18.2288272 L17.833641,18.6706154 L16.8083588,18.6706154 L16.8083588,19.502511 L18.0086891,19.502511 L18.0086891,19.9559691 Z M21.1478863,19.9559691 L20.5010417,19.9559691 C20.5010417,19.9559691 20.0609205,18.5772563 20.0075725,18.2721727 L19.9959025,18.2721727 C19.9308846,18.5772563 19.4490854,19.9559691 19.4490854,19.9559691 L18.8372503,19.9559691 L18.1120511,17.348585 L18.7722327,17.348585 C18.7722327,17.348585 19.1456688,18.8873419 19.1940153,19.2057629 L19.2106864,19.2057629 C19.2640344,18.8806734 19.7691735,17.348585 19.7691735,17.348585 L20.2926511,17.348585 C20.2926511,17.348585 20.7627802,18.8539994 20.8161282,19.2057629 L20.8277982,19.2057629 C20.8878147,18.8489979 21.2612508,17.348585 21.2612508,17.348585 L21.886423,17.348585 L21.1478863,19.9559691 Z" id="Shape" fill="color(display-p3 0.000 0.000 0.000)"></path>
    </g>
</svg>