<?xml version="1.0" encoding="UTF-8"?>
<svg width="24px" height="24px" viewBox="0 0 24 24" version="1.1" xmlns="http://www.w3.org/2000/svg" xmlns:xlink="http://www.w3.org/1999/xlink">
    <title>Milk edit</title>
    <g id="Milk-edit" stroke="none" fill="none">
        <path d="M13.9633,0 C14.3676862,0 14.695,0.327804878 14.695,0.731707317 L14.695,1.53487044 L16.851038,5.84603658 L16.9363169,6.03592792 C17.0661362,6.35563495 17.134,6.69818569 17.134,7.04554097 L17.134,15.663 L15.67,17.127 L15.6706,7.04554098 C15.6706,6.904005 15.6459109,6.76407366 15.5978219,6.63106957 L15.5419808,6.50057171 L13.9633,3.34317834 L12.3846192,6.50057171 C12.3003215,6.66886927 12.256,6.85572829 12.256,7.04554098 L12.256,18.5365853 L14.261,18.536 L12.797,20 L4.2073,20 C3.3223489,20 2.58183368,19.3060542 2.5063361,18.4387496 L2.5,18.2926829 L2.5,7.04554097 C2.5,6.62981317 2.59632133,6.21897902 2.78296209,5.84603658 L4.939,1.53487044 L4.939,0.731707317 C4.939,0.327804878 5.2663138,0 5.6707,0 Z M5.5554192,12.7391385 C5.2540355,12.7468416 4.98822147,12.9385933 4.88583509,13.2221601 C4.78344871,13.5057268 4.86544773,13.8230646 5.09239018,14.0215322 C6.36296235,15.1982039 8.31164529,15.1980156 9.58262725,14.0215322 C9.80699136,13.819639 9.88438257,13.5007042 9.77750378,13.2184317 C9.670625,12.936159 9.40140598,12.7484662 9.09959109,12.7458078 C8.90927459,12.74404 8.72575693,12.816491 8.58797275,12.9477897 C7.8384871,13.6415502 6.83501226,13.6413615 6.08609194,12.9477897 C5.94468983,12.8093455 5.75324571,12.734073 5.5554192,12.7391385 Z M5.6707,10.2439024 C5.26659325,10.2439024 4.939,10.571499 4.939,10.9756098 C4.939,11.3797206 5.26659325,11.7073171 5.6707,11.7073171 C6.07480675,11.7073171 6.4024,11.3797206 6.4024,10.9756098 C6.4024,10.571499 6.07480675,10.2439024 5.6707,10.2439024 Z M9.0853,10.2439024 C8.68119327,10.2439024 8.3536,10.571499 8.3536,10.9756098 C8.3536,11.3797206 8.68119327,11.7073171 9.0853,11.7073171 C9.48940673,11.7073171 9.817,11.3797206 9.817,10.9756098 C9.817,10.571499 9.48940673,10.2439024 9.0853,10.2439024 Z M12.7790513,2.43902439 L6.12229597,2.43902439 L4.41499597,5.85365853 L11.072704,5.85365853 L12.7790513,2.43902439 Z" id="Combined-Shape" fill="color(display-p3 0.000 0.000 0.000)" fill-rule="nonzero"></path>
        <path d="M17.5571433,17.1297057 L19.4798455,19.052408 L14.67309,23.8591635 C14.582723,23.9485691 14.4601363,23.9999861 14.333238,23.9999861 L13.0902408,23.9999861 C12.8249079,23.9999861 12.6095652,23.7846434 12.6095652,23.5193105 L12.6095652,22.2763133 C12.6095652,22.1484536 12.6609821,22.0268283 12.7503878,21.9364613 L17.5571433,17.1297057 Z M19.9023151,15.3478261 C20.2503233,15.3478261 20.5983333,15.4805531 20.8636662,15.745885 C21.394332,16.2765509 21.3943311,17.1379224 20.8636662,17.6685873 L20.1595515,18.372702 L18.2368493,16.4499997 L18.940964,15.745885 C19.2062959,15.4805531 19.554306,15.3478261 19.9023151,15.3478261 Z" id="Combined-Shape" fill="color(display-p3 0.000 0.000 0.000)" fill-rule="evenodd"></path>
    </g>
</svg>