<?xml version="1.0" encoding="UTF-8"?>
<svg width="25px" height="25px" viewBox="0 0 25 25" version="1.1" xmlns="http://www.w3.org/2000/svg" xmlns:xlink="http://www.w3.org/1999/xlink">
    <title>milk search</title>
    <g id="milk-search" stroke="none" fill="none" fill-rule="nonzero">
        <path d="M15.3199882,5.3 C15.6593486,5.3 15.93403,5.57509348 15.93403,5.91404794 L15.93403,6.58806151 L17.7433746,10.2059872 L17.827764,10.3976306 C17.9283497,10.6566454 17.980836,10.9327697 17.980836,11.2126099 L17.9811708,16.5564168 C17.6223831,17.0255709 17.2102058,17.4514638 16.7535086,17.8252257 L16.7527524,11.2126099 C16.7527524,11.0542408 16.7159185,10.8982656 16.6448153,10.7552723 L15.3199882,8.10559142 L13.995161,10.7552723 C13.9244185,10.8965074 13.887224,11.0533193 13.887224,11.2126099 L13.8873078,19.2901634 C13.2580105,19.4567558 12.59621,19.545465 11.9127325,19.545465 C9.3439803,19.545465 7.08142148,18.2924253 5.69979093,16.3610827 L5.7,11.2126099 C5.7,10.8637316 5.78083275,10.51896 5.93746146,10.2059872 L7.74680599,6.58806151 L7.74680599,5.91404794 C7.74680599,5.57509348 8.02148736,5.3 8.36084779,5.3 L15.3199882,5.3 Z M8.26410428,15.9906704 C8.01118343,15.9971348 7.7881126,16.1580526 7.70219006,16.3960215 C7.61626753,16.6339904 7.68508101,16.9002999 7.87553085,17.0668537 C8.94179356,18.0543152 10.577126,18.0541572 11.6437326,17.0668537 C11.8320187,16.8974252 11.8969654,16.6297755 11.8072728,16.3928927 C11.7175803,16.1560098 11.491652,15.9984982 11.2383693,15.9962673 C11.0786559,15.9947837 10.9246481,16.0555845 10.8090197,16.1657703 C10.1800522,16.7479733 9.3379373,16.7478149 8.70944423,16.1657703 C8.59077974,16.049588 8.43012006,15.9864194 8.26410428,15.9906704 Z M8.36084779,13.8966711 C8.02172187,13.8966711 7.74680599,14.1715898 7.74680599,14.5107191 C7.74680599,14.8498484 8.02172187,15.124767 8.36084779,15.124767 C8.69997372,15.124767 8.97488959,14.8498484 8.97488959,14.5107191 C8.97488959,14.1715898 8.69997372,13.8966711 8.36084779,13.8966711 Z M11.2263762,13.8966711 C10.8872503,13.8966711 10.6123344,14.1715898 10.6123344,14.5107191 C10.6123344,14.8498484 10.8872503,15.124767 11.2263762,15.124767 C11.5655021,15.124767 11.840418,14.8498484 11.840418,14.5107191 C11.840418,14.1715898 11.5655021,13.8966711 11.2263762,13.8966711 Z M14.3261681,7.34682646 L8.73982661,7.34682646 L7.30706242,10.2123835 L12.8942034,10.2123835 L14.3261681,7.34682646 Z" id="Combined-Shape" fill="color(display-p3 0.000 0.000 0.000)"></path>
        <path d="M11.8275813,0 C5.31406445,0 0,5.31406918 0,11.8275813 C0,18.3410933 5.31406445,23.6551625 11.8275813,23.6551625 C14.5164502,23.6551625 16.972035,22.7143565 18.9626312,21.192623 L22.2850977,24.5150888 C22.6806382,24.9270684 23.2679965,25.0930249 23.8206474,24.9489542 C24.3732984,24.8048835 24.8048835,24.3732984 24.9489542,23.8206474 C25.0930249,23.2679965 24.9270684,22.6806382 24.5150888,22.2850977 L21.192623,18.9626312 C22.7143549,16.9720335 23.6551625,14.5164486 23.6551625,11.8275813 C23.6551625,5.31406918 18.3410981,0 11.8275813,0 Z M11.8275813,3.15402167 C16.6365394,3.15402167 20.5011408,7.01862628 20.5011408,11.8275813 C20.5011408,16.6365362 16.6365394,20.5011408 11.8275813,20.5011408 C7.01862313,20.5011408 3.15402167,16.6365362 3.15402167,11.8275813 C3.15402167,7.01862628 7.01862313,3.15402167 11.8275813,3.15402167 Z" id="Shape" fill="color(display-p3 0.000 0.000 0.000)"></path>
    </g>
</svg>