<?xml version="1.0" encoding="UTF-8"?>
<svg width="25px" height="25px" viewBox="0 0 25 25" version="1.1" xmlns="http://www.w3.org/2000/svg" xmlns:xlink="http://www.w3.org/1999/xlink">
    <title>Milk incomplete</title>
    <g id="Milk-incomplete" stroke="none" fill="none" fill-rule="nonzero">
        <path d="M13.4633,-3.55271368e-15 C13.8676862,-3.55271368e-15 14.195,0.327804878 14.195,0.731707317 L14.195,1.53487044 L16.351038,5.84603658 L16.4363169,6.03592792 C16.5661362,6.35563495 16.634,6.69818569 16.634,7.04554097 L16.6343082,12.5571444 C16.1252303,12.6248937 15.6347736,12.7515646 15.1700189,12.9300762 L15.1706,7.04554098 C15.1706,6.85682634 15.1267082,6.67096439 15.0419808,6.50057171 L13.4633,3.34317834 L11.8846192,6.50057171 C11.8003215,6.66886927 11.756,6.85572829 11.756,7.04554098 L11.755397,15.955927 C11.2731824,16.864046 11,17.9001204 11,19 C11,19.3403809 11.0261633,19.6746509 11.0765886,20.0009089 L3.7073,20 C2.77318495,20 2,19.2268073 2,18.2926829 L2,7.04554097 C2,6.62981317 2.09632133,6.21897902 2.28296209,5.84603658 L4.439,1.53487044 L4.439,0.731707317 C4.439,0.327804878 4.7663138,-3.55271368e-15 5.1707,-3.55271368e-15 L13.4633,-3.55271368e-15 Z M5.0554192,12.7391385 C4.7540355,12.7468416 4.48822147,12.9385933 4.38583509,13.2221601 C4.28344871,13.5057268 4.36544773,13.8230646 4.59239018,14.0215322 C5.86296235,15.1982039 7.81164529,15.1980156 9.08262725,14.0215322 C9.30699136,13.819639 9.38438257,13.5007042 9.27750378,13.2184317 C9.170625,12.936159 8.90140598,12.7484662 8.59959109,12.7458078 C8.40927459,12.74404 8.22575693,12.816491 8.08797275,12.9477897 C7.3384871,13.6415502 6.33501226,13.6413615 5.58609194,12.9477897 C5.44468983,12.8093455 5.25324571,12.734073 5.0554192,12.7391385 Z M5.1707,10.2439024 C4.76659325,10.2439024 4.439,10.571499 4.439,10.9756098 C4.439,11.3797206 4.76659325,11.7073171 5.1707,11.7073171 C5.57480675,11.7073171 5.9024,11.3797206 5.9024,10.9756098 C5.9024,10.571499 5.57480675,10.2439024 5.1707,10.2439024 Z M8.5853,10.2439024 C8.18119327,10.2439024 7.8536,10.571499 7.8536,10.9756098 C7.8536,11.3797206 8.18119327,11.7073171 8.5853,11.7073171 C8.98940673,11.7073171 9.317,11.3797206 9.317,10.9756098 C9.317,10.571499 8.98940673,10.2439024 8.5853,10.2439024 Z M12.2790513,2.43902439 L5.62229597,2.43902439 L3.91499597,5.85365853 L10.572704,5.85365853 L12.2790513,2.43902439 Z" id="Combined-Shape" fill="color(display-p3 0.000 0.000 0.000)"></path>
        <path d="M17.5,13.5 C14.4679112,13.5 12,15.9679112 12,19 C12,22.0320886 14.4679112,24.5 17.5,24.5 C20.5320886,24.5 23,22.0320886 23,19 C23,15.9679112 20.5320886,13.5 17.5,13.5 Z M20.7432455,15.7567545 C21.1469909,16.1604999 21.473041,16.641175 21.703776,17.172933 C21.6777467,17.1685802 21.6513901,17.1664836 21.625,17.1666667 C21.3718695,17.1666667 21.1666667,17.3718695 21.1666667,17.625 C21.1666667,17.8781305 21.3718695,18.0833333 21.625,18.0833333 C21.7500801,18.083357 21.8697362,18.0322606 21.9562173,17.9418944 C22.0362753,18.281859 22.0833333,18.6351273 22.0833333,19 C22.0833333,19.3648727 22.0362753,19.718141 21.9562173,20.0581056 C21.8697362,19.9677394 21.7500801,19.916643 21.625,19.9166667 C21.3718695,19.9166667 21.1666667,20.1218695 21.1666667,20.375 C21.1666667,20.6281305 21.3718695,20.8333333 21.625,20.8333333 C21.6513901,20.8335164 21.6777467,20.8314198 21.703776,20.827067 C21.2424718,21.890201 20.389425,22.7400032 19.327067,23.2019858 C19.3313182,23.1765459 19.3334145,23.1507925 19.3333333,23.125 C19.3333333,22.8718695 19.1281305,22.6666667 18.875,22.6666667 C18.6218695,22.6666667 18.4166667,22.8718695 18.4166667,23.125 C18.4168372,23.2515486 18.4693228,23.3723953 18.5616861,23.4589032 C18.2209212,23.5395084 17.8659645,23.5833333 17.5,23.5833333 C17.1348243,23.5833333 16.7812215,23.5364046 16.4409993,23.4562173 C16.5316952,23.3698889 16.5831235,23.2502131 16.5833333,23.125 C16.5833333,22.8718695 16.3781305,22.6666667 16.125,22.6666667 C15.8718695,22.6666667 15.6666667,22.8718695 15.6666667,23.125 C15.6667792,23.151416 15.6691753,23.1777728 15.6738281,23.203776 C15.1417735,22.9730249 14.6606878,22.6471788 14.2567545,22.2432455 L14.425944,22.0740559 C14.511884,22.1600143 14.6284495,22.2083149 14.75,22.2083333 C15.0031305,22.2083333 15.2083333,22.0031305 15.2083333,21.75 C15.2083149,21.6284495 15.1600143,21.5118841 15.074056,21.4259441 L15.8009441,20.6990559 C15.8868841,20.7850143 16.0034495,20.8333149 16.125,20.8333333 C16.3781305,20.8333333 16.5833333,20.6281305 16.5833333,20.375 C16.5833149,20.2534495 16.5350143,20.1368841 16.4490559,20.0509441 L17.1759441,19.3240559 C17.2618841,19.4100143 17.3784495,19.4583149 17.5,19.4583333 C17.7531305,19.4583333 17.9583333,19.2531305 17.9583333,19 C17.9583149,18.8784495 17.9100143,18.7618841 17.8240559,18.6759441 L18.5509441,17.9490559 C18.6368841,18.0350143 18.7534495,18.0833149 18.875,18.0833333 C19.1281305,18.0833333 19.3333333,17.8781305 19.3333333,17.625 C19.3333149,17.5034495 19.2850143,17.3868841 19.1990559,17.3009441 L19.9259441,16.574056 C20.0118841,16.6600143 20.1284495,16.7083149 20.25,16.7083333 C20.5031305,16.7083333 20.7083333,16.5031305 20.7083333,16.25 C20.7083149,16.1284495 20.6600143,16.011884 20.5740559,15.925944 L20.7432455,15.7567545 Z M20.25,18.5416667 C19.9968695,18.5416667 19.7916667,18.7468695 19.7916667,19 C19.7916667,19.2531305 19.9968695,19.4583333 20.25,19.4583333 C20.5031305,19.4583333 20.7083333,19.2531305 20.7083333,19 C20.7083333,18.7468695 20.5031305,18.5416667 20.25,18.5416667 Z M18.875,19.9166667 C18.6218695,19.9166667 18.4166667,20.1218695 18.4166667,20.375 C18.4166667,20.6281305 18.6218695,20.8333333 18.875,20.8333333 C19.1281305,20.8333333 19.3333333,20.6281305 19.3333333,20.375 C19.3333333,20.1218695 19.1281305,19.9166667 18.875,19.9166667 Z M17.5,21.2916667 C17.2468695,21.2916667 17.0416667,21.4968695 17.0416667,21.75 C17.0416667,22.0031305 17.2468695,22.2083333 17.5,22.2083333 C17.7531305,22.2083333 17.9583333,22.0031305 17.9583333,21.75 C17.9583333,21.4968695 17.7531305,21.2916667 17.5,21.2916667 Z M20.25,21.2916667 C19.9968695,21.2916667 19.7916667,21.4968695 19.7916667,21.75 C19.7916667,22.0031305 19.9968695,22.2083333 20.25,22.2083333 C20.5031305,22.2083333 20.7083333,22.0031305 20.7083333,21.75 C20.7083333,21.4968695 20.5031305,21.2916667 20.25,21.2916667 Z" id="Shape" fill="color(display-p3 0.000 0.000 0.000)" transform="translate(17.5, 19) rotate(-45) translate(-17.5, -19)"></path>
    </g>
</svg>