<?xml version="1.0" encoding="UTF-8"?>
<svg width="17px" height="17px" viewBox="0 0 17 17" version="1.1" xmlns="http://www.w3.org/2000/svg" xmlns:xlink="http://www.w3.org/1999/xlink">
    <title>Monkey happy</title>
    <g id="Monkey-happy" stroke="none" fill="none" fill-rule="nonzero">
        <path d="M8.5,0.86 C10.3374158,0.86 12.008374,1.64270827 13.0878739,3.00624982 L13.0949573,3.01404149 L13.2699907,3.24706372 C13.7200939,3.87765768 14.0361051,4.59512424 14.1971238,5.35508296 C14.3047905,5.3409163 14.4103321,5.3154163 14.5208321,5.3154163 C15.8879154,5.3154163 17,6.42749954 17,7.79458276 C17.001081,8.71638089 16.4864489,9.56134006 15.6669154,9.98333258 C15.723304,10.2560067 15.7522539,10.533641 15.753332,10.8120825 C15.753332,13.8564989 12.6317073,16.1529154 8.49291597,16.1529154 C4.35412464,16.1529154 1.2324999,13.8564989 1.2324999,10.8120825 C1.2324999,10.5315825 1.26366656,10.2524992 1.32033322,9.97837425 C0.52770829,9.55974928 3.39284156e-13,8.73454102 3.39284156e-13,7.79458276 C3.39284156e-13,6.42749954 1.11208324,5.3154163 2.47916646,5.3154163 C2.59037479,5.3154163 2.69520811,5.3409163 2.8035831,5.35508296 C2.98491023,4.5026233 3.3603741,3.70345973 3.90079134,3.01970816 C4.99020792,1.64695827 6.66683278,0.86 8.5,0.86 Z M11.3000407,3.89587112 C11.1923148,3.89922724 11.0850206,3.91106986 10.9791658,3.93133308 C10.9402074,3.93770808 10.9005408,3.93841641 10.8615824,3.94762475 C9.95730088,4.15552239 9.28912406,4.92115356 9.20549924,5.84524959 C9.17255281,6.21044162 8.86635062,6.49012181 8.49967548,6.48993774 C8.13300035,6.48975367 7.82707911,6.20976618 7.79449936,5.84454126 C7.73392774,5.08964401 7.27630252,4.4239828 6.59316612,4.09708307 C6.4585828,4.03262474 6.31479115,3.98516641 6.16816616,3.95116641 C6.11645783,3.93983308 6.06333283,3.93770808 6.01091617,3.92991641 C5.91316618,3.91433308 5.81612452,3.89945808 5.71695786,3.89733308 C5.65958287,3.89662475 5.60220787,3.90441642 5.54483288,3.90795808 C5.44991622,3.91362475 5.35499956,3.91999975 5.26149957,3.93841641 C5.20412457,3.94974974 5.14887458,3.96816641 5.09220791,3.98445808 C5.02633292,4.00358307 4.96116626,4.02624974 4.89741626,4.05174974 C4.35766631,4.79691634 4.07291633,5.70854127 4.07291633,6.70374952 C4.07197033,7.00972263 4.10259073,7.31497714 4.16429132,7.61466611 C4.2164685,7.86510495 4.12955554,8.1242193 3.93691634,8.29254105 C3.34899972,8.80608268 2.64916645,9.65962427 2.64916645,10.8120825 C2.64916645,13.048999 5.16162457,14.7362489 8.49291597,14.7362489 C11.8242074,14.7362489 14.3366655,13.048999 14.3366655,10.8120825 C14.3366655,9.66104094 13.6439155,8.81458268 13.0630823,8.30670772 C12.871049,8.13917939 12.7839283,7.88133448 12.8349989,7.63166611 C12.8973323,7.3292078 12.9270823,7.02533282 12.9270823,6.70374952 C12.9270823,5.70216627 12.6409156,4.78912468 12.099749,4.04749974 C12.0374157,4.02412474 11.9757907,4.00216641 11.912749,3.98445808 C11.855374,3.96816641 11.797999,3.94904141 11.7399157,3.93770808 C11.6435824,3.91858308 11.547249,3.91149975 11.4509157,3.90583308 C11.4006241,3.90299975 11.3503324,3.89520808 11.3000407,3.89587112 Z M10.4479158,10.9820812 C10.597704,10.9822232 10.7405677,11.0451758 10.8417491,11.1556242 C10.9421543,11.2665827 10.9912557,11.4146579 10.9770408,11.5636241 C10.8544991,12.847124 9.78916586,13.8154156 8.4999993,13.8154156 C7.21083274,13.8154156 6.14549949,12.847124 6.02366617,11.5643324 C6.00884143,11.4152213 6.05784961,11.2668055 6.15855304,11.1558428 C6.25925647,11.04488 6.40223687,10.981748 6.55208279,10.9820812 Z M7.47362438,9.2813743 C8.04036127,8.71625171 8.95751232,8.71625171 9.52424921,9.2813743 C9.62395155,9.38101277 9.67996912,9.51618987 9.67996912,9.65714511 C9.67996912,9.79810035 9.62395155,9.93327745 9.52424921,10.0329159 C9.42482443,10.1327495 9.28972985,10.18887 9.14883258,10.18887 C9.0079353,10.18887 8.87284073,10.1327495 8.77341594,10.0329159 C8.62215075,9.88187527 8.37713951,9.88187527 8.22587432,10.0329159 C8.09162434,10.1672924 7.89588323,10.2198399 7.71238478,10.1707643 C7.52888632,10.1216887 7.38550829,9.97844563 7.33625981,9.79499348 C7.28701133,9.61154134 7.33937441,9.41575081 7.47362438,9.2813743 Z M6.02083284,6.37791621 C6.60763533,6.37791621 7.08333275,6.85361363 7.08333275,7.44041612 C7.08333275,8.02721862 6.60763533,8.50291604 6.02083284,8.50291604 C5.43403034,8.50291604 4.95833292,8.02721862 4.95833292,7.44041612 C4.95833292,6.85361363 5.43403034,6.37791621 6.02083284,6.37791621 Z M10.9791658,6.37791621 C11.5659683,6.37791621 12.0416657,6.85361363 12.0416657,7.44041612 C12.0416657,8.02721862 11.5659683,8.50291604 10.9791658,8.50291604 C10.3923633,8.50291604 9.91666585,8.02721862 9.91666585,7.44041612 C9.91666585,6.85361363 10.3923633,6.37791621 10.9791658,6.37791621 Z" id="Combined-Shape" fill="color(display-p3 0.000 0.000 0.000)"></path>
    </g>
</svg>