<?xml version="1.0" encoding="UTF-8"?>
<svg width="17px" height="17px" viewBox="0 0 17 17" version="1.1" xmlns="http://www.w3.org/2000/svg" xmlns:xlink="http://www.w3.org/1999/xlink">
    <title>Monkey sad</title>
    <g id="Monkey-sad" stroke="none" fill="none" fill-rule="nonzero">
        <path d="M8.5,0.855 C10.3374156,0.855 12.0083738,1.63770825 13.0878737,3.00124978 L13.094957,3.00904145 L13.2699904,3.24206368 C13.7200936,3.87265763 14.0361049,4.59012417 14.1971236,5.35008288 C14.3047902,5.33591622 14.4103319,5.31041622 14.5208319,5.31041622 C15.8879151,5.31041622 17,6.42249944 17,7.78958264 C17.0010807,8.71138075 16.4864487,9.55633991 15.6669151,9.97833242 C15.7233037,10.2510065 15.7522536,10.5286408 15.7533318,10.8070823 C15.7533318,13.8514987 12.6317071,16.1479151 8.49291582,16.1479151 C4.35412456,16.1479151 1.23249988,13.8514987 1.23249988,10.8070823 C1.23249988,10.5265824 1.26366654,10.2474991 1.3203332,9.97337409 C0.52770828,9.55474913 0,8.72954088 0,7.78958264 C0,6.42249944 1.11208322,5.31041622 2.47916642,5.31041622 C2.59037474,5.31041622 2.69520806,5.33591622 2.80358305,5.35008288 C2.98491018,4.49762323 3.36037404,3.69845968 3.90079128,3.01470812 C4.99020783,1.64195825 6.66683267,0.855 8.5,0.855 Z M11.2993322,3.89016273 C11.1937905,3.89233303 11.0896656,3.90720803 10.9862489,3.92491636 C10.9444572,3.93199969 10.9019572,3.93270802 10.8608739,3.94262469 C9.95687083,4.15078762 9.28903284,4.91635801 9.20549908,5.8402495 C9.1727355,6.20545759 8.86667394,6.4852909 8.49999915,6.4852909 C8.13332435,6.4852909 7.8272628,6.20545759 7.79449922,5.8402495 C7.7339276,5.08535227 7.27630239,4.41969107 6.59316601,4.09279134 C6.45787435,4.02833302 6.31479103,3.98087469 6.16745772,3.94687469 C6.11858272,3.93554136 6.06687439,3.93412469 6.01658273,3.92633303 C5.91670774,3.91004136 5.81754108,3.89516636 5.71624943,3.89304136 C5.65958277,3.8916247 5.6029161,3.90012469 5.54624944,3.90366636 C5.45062445,3.90933303 5.35499946,3.91570803 5.26220781,3.93341636 C5.20412448,3.94474969 5.14887448,3.96387469 5.09291616,3.97945802 C5.02633283,3.99858302 4.96116617,4.02124968 4.89741618,4.04674968 C4.35766623,4.79191627 4.07291626,5.70354118 4.07291626,6.69874941 C4.07197025,7.00472252 4.10259065,7.30997703 4.16429125,7.60966599 C4.21646843,7.86010483 4.12955546,8.11921917 3.93691627,8.28754092 C3.34899966,8.80108254 2.6491664,9.65462412 2.6491664,10.8070823 C2.6491664,13.0439988 5.16162448,14.7312486 8.49291582,14.7312486 C11.8242071,14.7312486 14.3366652,13.0439988 14.3366652,10.8056657 C14.3366652,9.65462412 13.6439153,8.80816587 13.063082,8.30029092 C12.8710488,8.13276259 12.783928,7.87491769 12.8349987,7.62524932 C12.897332,7.32279102 12.927082,7.01891605 12.927082,6.69733275 C12.927082,5.69574951 12.6409154,4.78270794 12.0997488,4.04108301 C12.0388321,4.01770802 11.9772071,3.99645802 11.9148738,3.97874969 C11.8560821,3.96174969 11.7979988,3.94262469 11.7392072,3.93129136 C11.6457072,3.91287469 11.5514988,3.90579136 11.4572905,3.90012469 C11.4041655,3.89729136 11.3517489,3.8894997 11.2993322,3.89016273 Z M6.11433272,11.9623739 C7.42856464,10.6507803 9.55655866,10.6507803 10.8707906,11.9623739 C10.9704929,12.0620123 11.0265105,12.1971894 11.0265105,12.3381447 C11.0265105,12.4790999 10.9704929,12.614277 10.8707906,12.7139155 C10.7713658,12.8137491 10.6362712,12.8698696 10.4953739,12.8698696 C10.3544767,12.8698696 10.2193821,12.8137491 10.1199573,12.7139155 C9.22047124,11.8174907 7.76536039,11.8174907 6.86587431,12.7139155 C6.73162434,12.8481655 6.53595073,12.9005961 6.35256185,12.8514572 C6.16917296,12.8023183 6.02592994,12.6590752 5.97679104,12.4756863 C5.92765214,12.2922975 5.98008273,12.0966239 6.11433272,11.9623739 Z M7.47362425,9.27637416 C8.04036113,8.71125157 8.95751216,8.71125157 9.52424905,9.27637416 C9.62395138,9.37601262 9.67996895,9.51118971 9.67996895,9.65214495 C9.67996895,9.79310019 9.62395138,9.92827729 9.52424905,10.0279157 C9.42482426,10.1277494 9.28972969,10.1838698 9.14883242,10.1838698 C9.00793514,10.1838698 8.87284057,10.1277494 8.77341579,10.0279157 C8.6221506,9.87687511 8.37713936,9.87687511 8.22587418,10.0279157 C8.0916242,10.1622923 7.8958831,10.2148398 7.71238464,10.1657641 C7.52888618,10.1166885 7.38550816,9.97344547 7.33625968,9.78999333 C7.2870112,9.60654118 7.33937428,9.41075066 7.47362425,9.27637416 Z M6.17666605,6.17387447 C6.38419853,5.96634199 6.72067516,5.96634199 6.92820764,6.17387447 C7.13574012,6.38140695 7.13574012,6.71788358 6.92820764,6.92541606 L6.41820769,7.43541601 L6.92749931,7.94470762 C7.02720164,8.04434608 7.08321921,8.17952318 7.08321921,8.32047842 C7.08321921,8.46143366 7.02720164,8.59661075 6.92749931,8.69624921 C6.82408265,8.8003742 6.68808266,8.85208253 6.55208268,8.85208253 C6.41608269,8.85208253 6.2800827,8.8003742 6.17666605,8.69624921 L5.6666661,8.1869576 L5.15666615,8.69624921 C5.02334766,8.83441257 4.82585394,8.88989059 4.64009131,8.8413604 C4.45432868,8.79283022 4.30920587,8.64784419 4.26050054,8.4621274 C4.21179521,8.27641061 4.26708698,8.07886467 4.40512456,7.94541596 L4.91512451,7.43541601 L4.40512456,6.92612439 C4.27087458,6.79187442 4.21844399,6.59620081 4.26758289,6.41281194 C4.3167218,6.22942306 4.45996482,6.08618004 4.64335369,6.03704114 C4.82674257,5.98790224 5.02241618,6.04033282 5.15666615,6.1745828 L5.6666661,6.68387442 Z M12.2183946,6.0188629 C12.3593498,6.0188629 12.4945269,6.07488046 12.5941654,6.1745828 C12.8015157,6.38179973 12.8018327,6.71780828 12.5948737,6.92541606 L12.0848738,7.43541601 L12.5934571,7.94541596 C12.6931594,8.04505442 12.749177,8.18023151 12.749177,8.32118675 C12.749177,8.46214199 12.6931594,8.59731909 12.5934571,8.69695755 C12.4940323,8.79679118 12.3589377,8.85291162 12.2180404,8.85291162 C12.0771432,8.85291162 11.9420486,8.79679118 11.8426238,8.69695755 L11.3326239,8.1869576 L10.8226239,8.69695755 C10.6140781,8.89819046 10.2827339,8.895156 10.0779086,8.69013741 C9.8730832,8.48511882 9.87036118,8.15377194 10.0717907,7.94541596 L10.5817906,7.43541601 L10.0717907,6.92541606 C9.93754067,6.79116608 9.88511008,6.59549248 9.93424898,6.4121036 C9.98338788,6.22871472 10.1266309,6.08547169 10.3100198,6.03633279 C10.4934087,5.98719389 10.6890823,6.03962448 10.8233322,6.17387447 L11.3333322,6.68387442 L11.8426238,6.1745828 C11.9422623,6.07488046 12.0774394,6.0188629 12.2183946,6.0188629 Z" id="Combined-Shape" fill="color(display-p3 0.000 0.000 0.000)"></path>
    </g>
</svg>