<?xml version="1.0" encoding="UTF-8"?>
<svg width="17px" height="17px" viewBox="0 0 17 17" version="1.1" xmlns="http://www.w3.org/2000/svg" xmlns:xlink="http://www.w3.org/1999/xlink">
    <title>Monkey wondering</title>
    <g id="Monkey-wondering" stroke="none" fill="none" fill-rule="nonzero">
        <path d="M14.5208319,5.31041622 C14.4103319,5.31041622 14.3047902,5.33591622 14.1964152,5.35008288 C14.0152595,4.4955615 13.6379406,3.69485003 13.0942487,3.01116645 L13.0935404,3.00904145 L13.0914154,3.00691645 L13.0892904,3.00408312 L13.0878737,3.00266645 C12.0104988,1.63770825 10.338124,0.855 8.5,0.855 C6.66683267,0.855 4.99020783,1.64124992 3.90149961,3.01329145 L3.90008294,3.01399978 C3.36027791,3.69830677 2.98510602,4.49760711 2.80358305,5.35008288 C2.69520806,5.33591622 2.59037474,5.31041622 2.47916642,5.31041622 C1.11208322,5.31041622 0,6.42249944 0,7.78958264 C0,8.72883254 0.52770828,9.55474913 1.3203332,9.97337409 C1.26366654,10.2474991 1.23249988,10.5265824 1.23249988,10.8070823 C1.23249988,13.8514987 4.35341623,16.1479151 8.49291582,16.1479151 C12.6324154,16.1479151 15.7533318,13.8514987 15.7533318,10.8070823 C15.7522536,10.5286408 15.7233037,10.2510065 15.6669151,9.97833242 C16.4864487,9.55633991 17.0010807,8.71138075 17,7.78958264 C17,6.42249944 15.8879151,5.31041622 14.5208319,5.31041622 Z M11.2950822,3.89087112 C11.3510405,3.89020803 11.4077072,3.89799969 11.4636655,3.90154136 C11.5550405,3.90720803 11.6464155,3.91429136 11.7377905,3.93199969 C11.7965822,3.94333302 11.8546655,3.96245802 11.9134571,3.97945802 C11.9757905,3.99716635 12.0381238,4.01912468 12.0997488,4.04249968 C12.6416237,4.78412461 12.927082,5.69787451 12.927082,6.69804108 C12.927082,7.02033272 12.8966237,7.32349935 12.8349987,7.62524932 C12.7839987,7.87529096 12.8711237,8.1338326 13.063082,8.30170759 C13.6439153,8.8088742 14.3366652,9.65533245 14.3366652,10.8070823 C14.3366652,13.0439988 11.8242071,14.7312486 8.49291582,14.7312486 C5.16162448,14.7312486 2.6491664,13.0439988 2.6491664,10.8070823 C2.6491664,9.65462412 3.34899966,8.80108254 3.93691627,8.28754092 C4.12954528,8.11892615 4.21620354,7.85949297 4.16358292,7.60895766 C4.10278371,7.30938267 4.07240723,7.00443137 4.07291626,6.69874941 C4.07291626,5.70354118 4.35766623,4.79120794 4.89741618,4.04604135 C4.96110429,4.02036598 5.02612901,3.99813935 5.09220782,3.97945802 C5.14816615,3.96387469 5.20270781,3.94474969 5.26008281,3.93412469 C5.3557078,3.91570803 5.45274945,3.90862469 5.54979111,3.90295803 C5.6050411,3.90012469 5.65958277,3.8916247 5.71554109,3.89304136 C5.81612442,3.89445803 5.91458274,3.91004136 6.0137494,3.92562469 C6.06545773,3.93341636 6.11787439,3.93483302 6.16816605,3.94687469 C6.31479103,3.98087469 6.45858269,4.02833302 6.59316601,4.09279134 C7.27640012,4.41957677 7.73406932,5.08530196 7.79449922,5.8402495 C7.8272628,6.20545759 8.13332435,6.4852909 8.49999915,6.4852909 C8.86667394,6.4852909 9.1727355,6.20545759 9.20549908,5.8402495 C9.28962904,4.9182177 9.95500022,4.15379727 10.8566239,3.94333302 C10.9069156,3.93129136 10.9586239,3.92987469 11.0103322,3.92208303 C11.1045406,3.90720803 11.1994572,3.89233303 11.2950822,3.89087112 Z M10.6249989,11.6854156 L5.84374941,11.6854156 C6.08159812,11.6854156 5.84374941,11.9232643 5.84374941,12.2166655 C5.84374941,12.5100668 6.08159812,12.7479155 5.84374941,12.7479155 L10.6249989,12.7479155 C10.9184002,12.7479155 11.1562489,12.5100668 11.1562489,12.2166655 C11.1562489,11.9232643 10.9184002,11.6854156 10.6249989,11.6854156 Z M7.47433258,9.27566582 C7.26721093,9.48375905 7.26752774,9.82021295 7.47504092,10.0279157 C7.6826962,10.2351515 8.01892723,10.2351515 8.22658251,10.0279157 C8.29913623,9.95520403 8.39763507,9.9143417 8.50035331,9.9143417 C8.60307156,9.9143417 8.7015704,9.95520403 8.77412412,10.0279157 C8.87373559,10.1274812 9.00884827,10.1833426 9.1496876,10.183221 C9.29052693,10.1830881 9.42553394,10.1269607 9.52495738,10.0272074 C9.62465972,9.92756895 9.68067728,9.79239186 9.68067728,9.65143662 C9.68067728,9.51048138 9.62465972,9.37530428 9.52495738,9.27566582 C8.95805976,8.71093222 8.0412302,8.71093222 7.47433258,9.27566582 Z M7.43749925,7.43541601 L5.31249947,7.43541601 C5.01909823,7.43541601 4.78124954,7.67326472 4.78124954,7.96666595 C4.78124954,8.26006719 5.01909823,8.4979159 5.31249947,8.4979159 L7.43749925,8.4979159 C7.7309005,8.4979159 7.9687492,8.2600672 7.9687492,7.96666595 C7.9687492,7.67326471 7.7309005,7.43541601 7.43749925,7.43541601 Z M12.0416655,7.43541601 L9.91666567,7.43541601 C9.62326444,7.43541601 9.38541575,7.67326472 9.38541575,7.96666595 C9.38541575,8.26006719 9.62326444,8.4979159 9.91666567,8.4979159 L12.0416655,8.4979159 C12.3350667,8.4979159 12.5729154,8.2600672 12.5729154,7.96666595 C12.5729154,7.67326471 12.3350667,7.43541601 12.0416655,7.43541601 Z" id="Shape" fill="color(display-p3 0.000 0.000 0.000)"></path>
    </g>
</svg>