<?xml version="1.0" encoding="UTF-8"?>
<svg width="20px" height="20px" viewBox="0 0 20 20" version="1.1" xmlns="http://www.w3.org/2000/svg" xmlns:xlink="http://www.w3.org/1999/xlink">
    <title>Move</title>
    <g id="Move" stroke="none" stroke-width="1" fill="none" fill-rule="evenodd">
        <path d="M9.99810353,0 L7.05748484,2.90837348 C6.81721501,3.13788756 6.71859658,3.47857275 6.80107712,3.80132692 C6.88355812,4.12228767 7.1327936,4.37511212 7.45375103,4.4611799 C7.77470891,4.54724768 8.11718352,4.45221416 8.34848817,4.2137348 L9.08005672,3.48933099 L9.08005672,6.77425124 C9.07467742,7.10597069 9.2486046,7.41258727 9.53549423,7.57934348 C9.82059046,7.74789311 10.1756166,7.74789311 10.4607133,7.57934348 C10.7476029,7.41258727 10.9215296,7.10597069 10.9161503,6.77425124 L10.9161503,3.48933099 L11.6477189,4.2137348 C11.8790235,4.45221416 12.2214981,4.54724768 12.542456,4.4611799 C12.8634139,4.37511212 13.1126489,4.12228767 13.1951299,3.80132692 C13.2776105,3.47857275 13.1789925,3.13788756 12.9387222,2.90837348 L9.99810353,0 Z M16.4316034,6.77782694 C16.0586469,6.7760442 15.7215516,7.00017939 15.5798997,7.34624347 C15.4364549,7.69051459 15.5189359,8.08857784 15.7843088,8.35036756 L16.5087051,9.08194369 L13.2238189,9.08194369 C12.8921029,9.07656434 12.5854895,9.25049286 12.418735,9.53738546 C12.2501871,9.82248509 12.2501871,10.1775149 12.418735,10.4626141 C12.5854895,10.7495067 12.8921029,10.9234357 13.2238189,10.9180563 L16.5087051,10.9180563 L15.7843088,11.6496324 C15.5458319,11.8809395 15.4507994,12.2234176 15.5368663,12.5443788 C15.6229332,12.8653396 15.875755,13.1145777 16.1967124,13.1970595 C16.5194633,13.2795409 16.8601449,13.1809214 17.0896566,12.9406491 L19.998,10 L17.0896566,7.05935087 C16.9175229,6.880043 16.6808389,6.77963059 16.4316034,6.77782694 Z M3.53591466,6.77963059 C3.29743777,6.7868029 3.07151196,6.88721531 2.90475748,7.05935087 L-2.04281037e-13,10 L2.90475748,12.9406491 C3.26157657,13.3010578 3.84432101,13.3046442 4.20472599,12.9478214 C4.56513143,12.5909987 4.56871732,12.0100411 4.21189823,11.6496324 L3.48750192,10.9180563 L6.77059522,10.9180563 C7.10231123,10.9234357 7.41071758,10.7495067 7.57747252,10.4626141 C7.744227,10.1775149 7.744227,9.82248509 7.57747252,9.53738546 C7.41071758,9.25049286 7.10231123,9.07656434 6.77059522,9.08194369 L3.48750192,9.08194369 L4.21189823,8.35036756 C4.48085749,8.08499191 4.55975214,7.68154931 4.41092803,7.3336918 C4.26210392,6.98583476 3.91425047,6.76528596 3.53591466,6.77963059 Z M9.98375905,12.2969337 C9.47811631,12.3041061 9.07288448,12.7201003 9.08005672,13.2275417 L9.08005672,16.510669 L8.34848817,15.7880582 C8.17456145,15.6105433 7.93608456,15.5119238 7.68864202,15.5119238 C7.31389256,15.5155102 6.98038314,15.7432313 6.84052468,16.0910884 C6.70245916,16.4371524 6.78852605,16.8334232 7.05748484,17.0934195 L9.27012133,19.2809755 C9.32032701,19.3455264 9.37949788,19.4046979 9.44584099,19.4549041 L9.99810353,20 L10.5485731,19.4549041 C10.6167092,19.4046979 10.6776734,19.3437334 10.7296721,19.2755962 L12.9387222,17.0934195 C13.2130603,16.8316298 13.2991272,16.4281872 13.1556824,16.0785367 C13.0122376,15.7288867 12.66797,15.5029585 12.2878413,15.5101308 C12.0475714,15.5137172 11.8162668,15.6141296 11.6477189,15.7880582 L10.9161503,16.510669 L10.9161503,13.2275417 C10.9197367,12.9783037 10.8229112,12.7398243 10.6471915,12.5641024 C10.4714714,12.3883809 10.2329945,12.2915544 9.98375905,12.2969337 Z" id="Shape" fill="#000000" fill-rule="nonzero"></path>
    </g>
</svg>