<?xml version="1.0" encoding="UTF-8"?>
<svg width="17px" height="17px" viewBox="0 0 17 17" version="1.1" xmlns="http://www.w3.org/2000/svg" xmlns:xlink="http://www.w3.org/1999/xlink">
    <title>New</title>
    <g id="New" stroke="none" fill="none" fill-rule="nonzero">
        <path d="M16.9173163,9.06123575 L15.915071,7.48186192 L16.5076579,5.70667599 C16.5901049,5.46448846 16.4896225,5.19911224 16.2680467,5.07286555 L14.6474494,4.13760803 L14.3485793,2.29028169 C14.3073559,2.0403646 14.0960853,1.85228205 13.8410149,1.83939988 L11.9705005,1.76725882 L10.8471611,0.270331923 C10.6951494,0.0642146003 10.4194674,-0.0027738594 10.190162,0.108014367 L8.5,0.911871926 L6.8098379,0.108014367 C6.58053255,-0.0027738594 6.30485046,0.066790902 6.15283877,0.270331923 L5.02949936,1.76725882 L3.15898499,1.83939988 C2.90391463,1.85228205 2.69264471,2.0403646 2.65142124,2.29028169 L2.35255113,4.13760803 L0.731953179,5.07286555 C0.510377387,5.19911224 0.409895027,5.46448846 0.492341956,5.70667599 L1.08492959,7.48186192 L0.0826836121,9.06123575 C-0.0538689494,9.27508263 -0.0177984179,9.55849362 0.165130541,9.73369335 L1.51519901,11.0296562 L1.36318798,12.8924416 C1.34257624,13.1475113 1.50489314,13.38197 1.74965763,13.4515347 L3.5480316,13.9694043 L4.27974809,15.6930603 C4.37765349,15.9275189 4.63014754,16.0614952 4.88006463,16.0073895 L6.7119325,15.6312251 L8.15990637,16.8163997 C8.25781243,16.8962703 8.37890586,16.9400701 8.5,16.9400701 C8.62109404,16.9400701 8.73961117,16.8988466 8.84009353,16.8163997 L10.2880681,15.6312251 L12.1199353,16.0073895 C12.369853,16.0614952 12.6223464,15.9275189 12.7202525,15.6930603 L13.451969,13.9694043 L15.2503423,13.4515347 C15.4951068,13.38197 15.6574243,13.1475113 15.6368126,12.8924416 L15.4848009,11.0296562 L16.8348694,9.73369335 C17.0177987,9.55849362 17.0538689,9.27765893 16.9173163,9.06123575 Z M5.86685148,10.5066333 L4.99342916,10.5066333 C4.99342916,10.5066333 3.48104314,8.14916626 3.31099668,7.72404945 C3.31099668,7.72404945 3.36510231,8.54594244 3.36510231,9.3832939 L3.36510231,10.5066333 L2.52775085,10.5066333 L2.52775085,6.47703964 L3.39859621,6.47703964 C3.39859621,6.47703964 4.93159396,8.85254212 5.11709955,9.24158807 C5.11709955,9.24158807 5.02949936,8.33724881 5.02949936,7.61841448 L5.02949936,6.47703964 L5.86685148,6.47703964 L5.86685148,10.5066333 Z M9.11835192,10.5066333 L6.50066192,10.5066333 L6.50066192,6.47703964 L8.86585853,6.47703964 L8.86585853,7.16753268 L7.26329601,7.16753268 L7.26329601,7.83741398 L8.8478231,7.83741398 L8.8478231,8.52017744 L7.26329601,8.52017744 L7.26329601,9.80583441 L9.11835192,9.80583441 L9.11835192,10.5066333 Z M13.9698386,10.5066333 L12.9701696,10.5066333 C12.9701696,10.5066333 12.2899824,8.37589532 12.2075355,7.90440244 L12.1895,7.90440244 C12.0890177,8.37589532 11.344419,10.5066333 11.344419,10.5066333 L10.3988556,10.5066333 L9.27809318,6.47703964 L10.2983739,6.47703964 C10.2983739,6.47703964 10.8755024,8.85511842 10.9502198,9.3472237 L10.9759841,9.3472237 C11.0584311,8.84481256 11.8391006,6.47703964 11.8391006,6.47703964 L12.6481114,6.47703964 C12.6481114,6.47703964 13.3746746,8.80358909 13.4571216,9.3472237 L13.475157,9.3472237 C13.5679098,8.79585953 14.1450383,6.47703964 14.1450383,6.47703964 L15.1112134,6.47703964 L13.9698386,10.5066333 Z" id="Shape" fill="color(display-p3 0.000 0.000 0.000)"></path>
    </g>
</svg>