<?xml version="1.0" encoding="UTF-8"?>
<svg width="17px" height="17px" viewBox="0 0 17 17" version="1.1" xmlns="http://www.w3.org/2000/svg" xmlns:xlink="http://www.w3.org/1999/xlink">
    <title>newspaper</title>
    <g id="newspaper" stroke="none" fill="none" fill-rule="nonzero">
        <path d="M3.64285714,0.305 C3.30892857,0.305 3.03571429,0.578214283 3.03571429,0.912142852 L3.03571429,13.662143 C3.03571429,13.9960716 2.76249994,14.2692853 2.42857144,14.2692859 C2.09464287,14.2692859 1.82142859,13.996071 1.82142859,13.662143 L1.82142859,4.55499996 L0.607142882,4.55499996 C0.273214283,4.55499996 0,4.82821425 0,5.16214281 L0,13.662143 C0,15.0039287 1.08678573,16.0907144 2.42857144,16.0907144 L9.71428578,16.0907144 C8.5,16.0907144 6.32666545,14.5854744 7.5288083,12.0233315 C7.87487972,11.2886887 8.500759,10.9243556 9.12611614,10.760427 C9.20504471,10.377927 9.66040185,10.0192859 10.0368304,10.0192859 L15.1785714,10.0192859 L15.1785714,0.912142852 C15.1785714,0.578214283 14.9053572,0.305 14.5714286,0.305 L3.64285714,0.305 Z M4.85714284,2.73357141 L13.3571428,2.73357141 L13.3571428,4.55499996 L4.85714284,4.55499996 L4.85714284,2.73357141 Z M4.85714284,6.37642852 L13.3571428,6.37642852 L13.3571428,8.19785738 L4.85714284,8.19785738 L4.85714284,6.37642852 Z M10.9890484,11.2335716 C10.9647627,11.2335716 10.9469278,11.2346147 10.9226421,11.2406861 C10.8133564,11.2589004 10.7218582,11.3068556 10.6368582,11.3675699 C10.606501,11.3857842 10.5769502,11.4096904 10.5526645,11.4339761 C10.4555216,11.5371904 10.3823323,11.6828573 10.3641181,11.8407145 L10.3214286,11.8407145 C9.98750006,11.8407145 9.57521182,11.9261413 9.23521182,12.1264984 C8.82235468,12.3572127 8.50000008,12.7574996 8.50000008,13.3585716 C8.50000008,14.6457145 9.62961789,15.2111636 10.6617607,15.3993779 C10.8621179,15.4418779 11.0618582,15.4656415 11.244001,15.4717129 C11.4018582,15.71457 11.5846652,15.9207138 11.7728795,16.0907144 L11.5060688,16.0907144 C11.5182116,16.0967859 11.5235715,16.1036156 11.5357143,16.1096877 L11.7965957,16.1096877 C11.8512386,16.1643299 11.9125697,16.213044 11.973284,16.255544 C12.2647126,16.468044 12.5865456,16.6189281 12.9326171,16.6978573 L14.3899973,16.6978573 C14.8089259,16.6007138 15.1907617,16.4071871 15.5307617,16.1096877 C16.2836188,15.447902 16.8064259,14.2696174 16.9703544,12.4846174 L16.9703544,12.4478573 C16.9824973,12.3142859 16.9939286,12.1749746 17.0000001,12.0292603 L16.9822125,11.9201646 L16.9632393,11.9201646 C16.9632393,11.7319503 16.8853071,11.5554047 16.7699493,11.4339761 C16.7456642,11.4096904 16.714927,11.3857842 16.6845705,11.3675699 C16.5995699,11.3068556 16.5080716,11.2589004 16.3987859,11.2406861 C16.3623573,11.2346147 16.3320481,11.2335716 16.295619,11.2335716 L10.9890484,11.2335716 Z M10.3214286,13.0550002 L10.4245956,13.0550002 C10.4610241,13.3585716 10.5214537,13.6440235 10.5882394,13.9111663 C10.6064537,13.9900949 10.6316877,14.0754744 10.649902,14.1483315 C10.4434735,14.0997601 10.2304046,14.020452 10.066476,13.9111663 C9.86004742,13.7836663 9.71428578,13.6014281 9.71428578,13.3585716 C9.71428578,13.0732145 10.3214286,13.0550002 10.3214286,13.0550002 Z" id="Shape" fill="color(display-p3 0.000 0.000 0.000)"></path>
    </g>
</svg>