<?xml version="1.0" encoding="UTF-8"?>
<svg width="17px" height="17px" viewBox="0 0 17 17" version="1.1" xmlns="http://www.w3.org/2000/svg" xmlns:xlink="http://www.w3.org/1999/xlink">
    <title>Newsletter</title>
    <g id="Newsletter" stroke="none" fill="none" fill-rule="nonzero">
        <path d="M4.4625,1.06 C3.64864413,1.06 2.975,1.73364421 2.975,2.5475 L2.975,3.81502935 L0.935498057,5.02860368 C0.356287445,5.3729476 0,5.99876052 0,6.67215815 L0,13.1725 C0,14.6905737 1.24442631,15.935 2.7625,15.935 L14.2375,15.935 C15.7555737,15.935 17,14.6905737 17,13.1725 L17,6.67298818 C17,5.99918892 16.6438789,5.37376105 16.0653319,5.0294337 C16.0650555,5.02915677 16.0647788,5.0288801 16.0645019,5.02860368 L14.025,3.81585938 L14.025,2.5475 C14.025,1.73364421 13.3513559,1.06 12.5375,1.06 L4.4625,1.06 Z M4.4625,2.335 L12.5375,2.335 C12.6628941,2.335 12.75,2.42210588 12.75,2.5475 L12.75,7.84588872 L8.5,9.91361318 L4.25,7.84588872 L4.25,4.27655258 C4.26124198,4.2081147 4.26124198,4.13830105 4.25,4.06986317 L4.25,2.5475 C4.25,2.42210588 4.33710587,2.335 4.4625,2.335 Z M2.975,5.29920883 L2.975,7.2258201 L1.32978513,6.425625 C1.38184453,6.30264998 1.46779003,6.1952427 1.58710937,6.1243068 L2.975,5.29920883 Z M14.025,5.30003885 L15.4128906,6.12513683 C15.5315434,6.19595075 15.6171414,6.30305415 15.6693849,6.425625 L14.025,7.2258201 L14.025,5.30003885 Z" id="Shape" fill="color(display-p3 0.000 0.000 0.000)"></path>
    </g>
</svg>