<?xml version="1.0" encoding="UTF-8"?>
<svg width="29px" height="29px" viewBox="0 0 29 29" version="1.1" xmlns="http://www.w3.org/2000/svg" xmlns:xlink="http://www.w3.org/1999/xlink">
    <title>Nutritional facts</title>
    <g id="Nutritional-facts" stroke="none" stroke-width="1" fill="none" fill-rule="evenodd">
        <path d="M10,-7.10542736e-15 C11.480509,-7.10542736e-15 12.7,1.21949136 12.7,2.7 L16.3,2.7 C17.780473,2.7 19,3.91952718 19,5.4 L19.0004212,18.253477 C19.6295624,17.8504926 20.3405864,17.5643219 21.1023988,17.4256898 C20.9605363,17.8571273 20.8945922,18.2536359 20.8945922,18.5611266 C20.8945922,19.6060828 21.5690219,19.884375 21.9671875,19.884375 C23.6794094,19.884375 25.0546965,19.535643 26.0733277,18.845343 C27.2912246,19.9425836 28,21.4909313 28,23.175 C28,26.4005438 25.3755437,29.025 22.15,29.025 C19.3079942,29.025 16.9326282,26.9875668 16.4079179,24.2967164 L16.3,24.3 L3.7,24.3 C2.21952718,24.3 1,23.080473 1,21.6 L1,5.4 C1,3.91952718 2.21952718,2.7 3.7,2.7 L7.3,2.7 C7.3,1.21949136 8.519491,-7.10542736e-15 10,-7.10542736e-15 Z M7.3,4.5 L3.7,4.5 C3.19147282,4.5 2.8,4.89147282 2.8,5.4 L2.8,21.6 C2.8,22.108527 3.19147282,22.5 3.7,22.5 L16.3,22.5 C16.3134888,22.5 16.3268952,22.4997246 16.3402141,22.4991788 C16.4417538,21.611638 16.7437911,20.7855571 17.1989665,20.0653672 L17.2,5.4 C17.2,4.89147282 16.808527,4.5 16.3,4.5 L12.7,4.5 L12.7,5.4 C12.7,5.8968 12.2968,6.3 11.8,6.3 L8.2,6.3 C7.7032,6.3 7.3,5.8968 7.3,5.4 L7.3,4.5 Z M27.0859375,14.4 C27.1755156,14.4 27.2512687,14.4647042 27.2658937,14.5528198 C27.2772277,14.6211917 27.5333996,16.2486914 26.4182434,17.5649414 C25.5992434,18.5316539 24.2653633,19.0558973 22.4606383,19.1367004 C22.4193227,19.1465723 22.3770531,19.153125 22.3328125,19.153125 C22.3017344,19.153125 22.2713703,19.1493258 22.2421203,19.1438414 C22.1496172,19.1460352 22.0625984,19.1524109 21.9679016,19.1524109 C21.8651609,19.1524109 21.6265563,19.0949563 21.6265563,18.5604125 C21.6265563,18.3648031 21.6621648,18.1331227 21.7272461,17.8848633 C21.4479086,16.1733727 20.2020356,15.8835463 20.0440856,15.8539307 C19.7482949,15.7987213 19.5497664,15.5156076 19.6020508,15.2190857 C19.6543352,14.9229295 19.9310562,14.7259661 20.2290406,14.7727661 C20.8436562,14.8751411 21.8232457,15.3604512 22.4042234,16.4737793 C22.5109863,16.3253355 22.6253867,16.1785714 22.7562805,16.0381714 C23.4531617,15.2911995 24.7700687,14.4 27.0859375,14.4 Z M13.6,17.1 C14.0970563,17.1 14.5,17.5029437 14.5,18 C14.5,18.4970563 14.0970563,18.9 13.6,18.9 C13.1029437,18.9 12.7,18.4970563 12.7,18 C12.7,17.5029437 13.1029437,17.1 13.6,17.1 Z M10,17.1 C10.3245723,17.0954097 10.6264732,17.2659378 10.7900989,17.5462856 C10.9537247,17.8266334 10.9537247,18.1733666 10.7900989,18.4537144 C10.6264732,18.7340622 10.3245723,18.9045903 10,18.9 L6.4,18.9 C6.07542768,18.9045903 5.77352677,18.7340622 5.60990105,18.4537144 C5.44627533,18.1733666 5.44627533,17.8266334 5.60990105,17.5462856 C5.77352677,17.2659378 6.07542768,17.0954097 6.4,17.1 Z M10,13.5 C10.3245723,13.4954097 10.6264732,13.6659378 10.7900989,13.9462856 C10.9537247,14.2266334 10.9537247,14.5733666 10.7900989,14.8537144 C10.6264732,15.1340622 10.3245723,15.3045903 10,15.3 L6.4,15.3 C6.07542768,15.3045903 5.77352677,15.1340622 5.60990105,14.8537144 C5.44627533,14.5733666 5.44627533,14.2266334 5.60990105,13.9462856 C5.77352677,13.6659378 6.07542768,13.4954097 6.4,13.5 Z M13.6,13.5 C14.0970563,13.5 14.5,13.9029437 14.5,14.4 C14.5,14.8970563 14.0970563,15.3 13.6,15.3 C13.1029437,15.3 12.7,14.8970563 12.7,14.4 C12.7,13.9029437 13.1029437,13.5 13.6,13.5 Z M13.6,9.9 C14.0970563,9.9 14.5,10.3029437 14.5,10.8 C14.5,11.2970563 14.0970563,11.7 13.6,11.7 C13.1029437,11.7 12.7,11.2970563 12.7,10.8 C12.7,10.3029437 13.1029437,9.9 13.6,9.9 Z M10,9.9 C10.3245723,9.89540974 10.6264732,10.0659378 10.7900989,10.3462856 C10.9537247,10.6266334 10.9537247,10.9733666 10.7900989,11.2537144 C10.6264732,11.5340622 10.3245723,11.7045903 10,11.7 L6.4,11.7 C6.07542768,11.7045903 5.77352677,11.5340622 5.60990105,11.2537144 C5.44627533,10.9733666 5.44627533,10.6266334 5.60990105,10.3462856 C5.77352677,10.0659378 6.07542768,9.89540974 6.4,9.9 Z M10,1.8 C9.4922839,1.8 9.1,2.19228354 9.1,2.7 C9.1,3.20771646 9.4922839,3.6 10,3.6 C10.5077161,3.6 10.9,3.20771646 10.9,2.7 C10.9,2.19228354 10.5077161,1.8 10,1.8 Z" id="Shape" fill="#000000" fill-rule="nonzero"></path>
    </g>
</svg>