<?xml version="1.0" encoding="UTF-8"?>
<svg width="29px" height="29px" viewBox="0 0 29 29" version="1.1" xmlns="http://www.w3.org/2000/svg" xmlns:xlink="http://www.w3.org/1999/xlink">
    <title>Nutritional facts</title>
    <g id="Nutritional-facts" stroke="none" fill="none" fill-rule="nonzero">
        <path d="M28,7.10542736e-15 C28.5522847,7.10542736e-15 29,0.44771525 29,1 L29,29 L1.8189894e-12,29 L1.8189894e-12,1 C1.8189894e-12,0.44771525 0.44771525,7.21644966e-15 1,7.10542736e-15 L28,7.10542736e-15 Z M26.1816416,1.82449673 L2.81835853,1.82482943 C2.2660789,1.82483667 1.81837165,2.2725498 1.81837165,2.82482943 L1.81835853,28.8244967 L27.1816416,28.8244967 L27.1816547,2.82449673 C27.1816547,2.31166089 26.7956146,1.88898957 26.2982759,1.83122446 L26.1816416,1.82449673 Z M6.97840717,3.48714102 C7.40191234,3.06873832 8.17493684,3.17078775 8.26167886,3.18609517 C8.37393324,3.20140259 8.46067527,3.28814461 8.47598268,3.39784776 C8.4912901,3.48458978 8.59333954,4.25506304 8.16983437,4.67346574 C7.89685212,4.94644799 7.47589818,4.99747271 7.19015975,4.99747271 C7.14933998,4.99747271 7.11107144,4.99747271 7.07535414,4.99492147 C7.11617391,5.18371293 7.1365838,5.34699204 7.14933998,5.4720026 C7.38915616,5.33168462 7.67234335,5.20667406 8.0728874,5.20667406 C9.27962201,5.20667406 10.0271342,5.9899035 10.0271342,7.23745789 C10.0271342,8.48501228 9.33064673,10.8193932 7.64938223,10.8193932 C7.40191234,10.8193932 7.1723011,10.7300999 6.96565099,10.5540647 C6.75900088,10.7300999 6.52938964,10.8193932 6.28191975,10.8193932 C4.60065525,10.8193932 3.90416783,8.49011475 3.90416783,7.23745789 C3.90416783,5.98480103 4.65167997,5.20667406 5.85841458,5.20667406 C6.1722166,5.20667406 6.41713526,5.28321114 6.62378537,5.38781181 C6.56255571,4.92858934 6.36611054,4.09943765 5.73340402,3.62490776 C5.62114963,3.54071697 5.59818851,3.3799891 5.6823793,3.26773472 C5.76657008,3.15548034 5.92729795,3.13251922 6.03955233,3.21671 C6.33294447,3.4361163 6.54724829,3.70909854 6.70797616,3.99228574 C6.7538984,3.81114798 6.83553795,3.63001023 6.97840717,3.48714102 Z" id="Shape" fill="color(display-p3 0.000 0.000 0.000)"></path>
        <path d="M4.34886447,14.3919785 L24.7711355,14.3919785 C25.0135137,14.3919785 25.21,14.5884649 25.21,14.830843 C25.21,15.0732212 25.0135137,15.2697075 24.7711355,15.2697075 L4.34886447,15.2697075 C4.10648632,15.2697075 3.91,15.0732212 3.91,14.830843 C3.91,14.5884649 4.10648632,14.3919785 4.34886447,14.3919785 Z M4.34886447,20.5065161 L24.7711355,20.5065161 C25.0135137,20.5065161 25.21,20.7030024 25.21,20.9453806 C25.21,21.1877587 25.0135137,21.3842451 24.7711355,21.3842451 L4.34886447,21.3842451 C4.10648632,21.3842451 3.91,21.1877587 3.91,20.9453806 C3.91,20.7030024 4.10648632,20.5065161 4.34886447,20.5065161 Z M4.41,17.4575368 L8.08940173,17.4575368 C8.36554411,17.4575368 8.58940173,17.6813945 8.58940173,17.9575368 L8.58940173,19.1521073 C8.58940173,19.4282497 8.36554411,19.6521073 8.08940173,19.6521073 L4.41,19.6521073 C4.13385763,19.6521073 3.91,19.4282497 3.91,19.1521073 L3.91,17.9575368 C3.91,17.6813945 4.13385763,17.4575368 4.41,17.4575368 Z M23.4419479,17.3940268 L24.782393,17.3940268 C25.0585354,17.3940268 25.282393,17.6178844 25.282393,17.8940268 L25.282393,19.088101 C25.282393,19.3642434 25.0585354,19.588101 24.782393,19.588101 L23.4419479,19.588101 C23.1658055,19.588101 22.9419479,19.3642434 22.9419479,19.088101 L22.9419479,17.8940268 C22.9419479,17.6178844 23.1658055,17.3940268 23.4419479,17.3940268 Z M21.660689,11.2799854 L24.782393,11.2799854 C25.0585354,11.2799854 25.282393,11.503843 25.282393,11.7799854 L25.282393,12.9740596 C25.282393,13.250202 25.0585354,13.4740596 24.782393,13.4740596 L21.660689,13.4740596 C21.3845466,13.4740596 21.160689,13.250202 21.160689,12.9740596 L21.160689,11.7799854 C21.160689,11.503843 21.3845466,11.2799854 21.660689,11.2799854 Z M4.41,23.5571892 L10.0453133,23.5571892 C10.3214556,23.5571892 10.5453133,23.7810469 10.5453133,24.0571892 L10.5453133,25.2512635 C10.5453133,25.5274059 10.3214556,25.7512635 10.0453133,25.7512635 L4.41,25.7512635 C4.13385763,25.7512635 3.91,25.5274059 3.91,25.2512635 L3.91,24.0571892 C3.91,23.7810469 4.13385763,23.5571892 4.41,23.5571892 Z M23.8954494,23.5080682 L24.782393,23.5080682 C25.0585354,23.5080682 25.282393,23.7319258 25.282393,24.0080682 L25.282393,25.2026386 C25.282393,25.478781 25.0585354,25.7026386 24.782393,25.7026386 L23.8954494,25.7026386 C23.6193071,25.7026386 23.3954494,25.478781 23.3954494,25.2026386 L23.3954494,24.0080682 C23.3954494,23.7319258 23.6193071,23.5080682 23.8954494,23.5080682 Z M4.34886447,26.6205575 L24.7711355,26.6205575 C25.0135137,26.6205575 25.21,26.8170438 25.21,27.059422 C25.21,27.3018002 25.0135137,27.4982865 24.7711355,27.4982865 L4.34886447,27.4982865 C4.10648632,27.4982865 3.91,27.3018002 3.91,27.059422 C3.91,26.8170438 4.10648632,26.6205575 4.34886447,26.6205575 Z" id="Shape" fill="color(display-p3 0.000 0.000 0.000)"></path>
    </g>
</svg>