<?xml version="1.0" encoding="UTF-8"?>
<svg width="18px" height="18px" viewBox="0 0 18 18" version="1.1" xmlns="http://www.w3.org/2000/svg" xmlns:xlink="http://www.w3.org/1999/xlink">
    <title>Gallery</title>
    <g id="Gallery" stroke="none" stroke-width="1" fill="none" fill-rule="evenodd">
        <g id="icons8-ocr" transform="translate(0, -0)" fill="#000000" fill-rule="nonzero">
            <path d="M2.75010259,7.53245353e-05 C1.24020246,7.53245353e-05 7.87622083e-05,1.24019902 7.87622083e-05,2.75009915 L7.87622083e-05,4.25011215 C-0.0037464881,4.52059143 0.138361433,4.7721777 0.371986622,4.90853365 C0.605611811,5.0448896 0.89455871,5.0448896 1.1281839,4.90853365 C1.36180909,4.7721777 1.50391701,4.52059143 1.50009176,4.25011215 L1.50009176,2.75009915 C1.50009176,2.0509801 2.05098353,1.50008832 2.75010259,1.50008832 L4.25011559,1.50008832 C4.52059487,1.50391357 4.77218113,1.36180565 4.90853708,1.12818046 C5.04489303,0.894555273 5.04489303,0.605608374 4.90853708,0.371983184 C4.77218113,0.138357995 4.52059487,-0.00374992577 4.25011559,7.53245353e-05 L2.75010259,7.53245353e-05 Z M13.7501979,7.53245353e-05 C13.4797186,-0.00374992577 13.2281324,0.138357995 13.0917764,0.371983184 C12.9554205,0.605608374 12.9554205,0.894555273 13.0917764,1.12818046 C13.2281324,1.36180565 13.4797186,1.50391357 13.7501979,1.50008832 L15.2502109,1.50008832 C15.94933,1.50008832 16.5002217,2.0509801 16.5002217,2.75009915 L16.5002217,4.25011215 C16.4963965,4.52059143 16.6385044,4.7721777 16.8721296,4.90853365 C17.1057548,5.0448896 17.3947017,5.0448896 17.6283269,4.90853365 C17.8619521,4.7721777 18.00406,4.52059143 18.0002347,4.25011215 L18.0002347,2.75009915 C18.0002347,1.24019902 16.760111,7.53245353e-05 15.2502109,7.53245353e-05 L13.7501979,7.53245353e-05 Z M8.96792997,3.50108216 C8.65466309,3.51447207 8.38277975,3.72130592 8.28628356,4.01964115 L6.21985916,10.407392 C6.18353728,10.478532 6.1588116,10.5550169 6.14661652,10.6339565 L5.53625973,12.5197148 C5.40897413,12.9139761 5.62540067,13.3367733 6.01966193,13.464059 C6.41392319,13.5913446 6.83672048,13.3749181 6.9640061,12.9806568 L7.44252625,11.500175 L10.5577872,11.500175 L11.0363074,12.9806568 C11.1186467,13.2356991 11.3307949,13.4274404 11.5928377,13.4836536 C11.8548805,13.5398668 12.1270075,13.4520118 12.3067109,13.2531826 C12.4864144,13.0543535 12.5463931,12.7747571 12.4640538,12.5197148 L11.8449079,10.6046592 C11.8331948,10.5460013 11.8145072,10.4889551 11.7892434,10.4347362 L9.71402993,4.01964115 C9.61022539,3.69868538 9.30493955,3.48650374 8.96792997,3.50108216 Z M9.00015675,6.68665676 L10.0724315,10.000162 L7.92788195,10.000162 L9.00015675,6.68665676 Z M0.738366409,12.9894459 C0.324532481,12.995911 -0.00585768679,13.3363526 7.87622074e-05,13.7501945 L7.87622074e-05,15.2502075 C7.87622074e-05,16.7601075 1.24020246,18.0002313 2.75010259,18.0002313 L4.25011559,18.0002313 C4.52059487,18.0040565 4.77218113,17.8619486 4.90853708,17.6283234 C5.04489303,17.3946982 5.04489303,17.1057513 4.90853708,16.8721262 C4.77218113,16.638501 4.52059487,16.496393 4.25011559,16.5002183 L2.75010259,16.5002183 C2.05098353,16.5002183 1.50009176,15.9493265 1.50009176,15.2502075 L1.50009176,13.7501945 C1.50300105,13.5473834 1.42365055,13.3520397 1.28013475,13.2087079 C1.13661895,13.0653761 0.94117355,12.9862764 0.738366409,12.9894459 Z M17.2385091,12.9894459 C16.8246753,12.9959111 16.4942853,13.3363527 16.5002217,13.7501945 L16.5002217,15.2502075 C16.5002217,15.9493265 15.94933,16.5002183 15.2502109,16.5002183 L13.7501979,16.5002183 C13.4797186,16.496393 13.2281324,16.638501 13.0917764,16.8721262 C12.9554205,17.1057513 12.9554205,17.3946982 13.0917764,17.6283234 C13.2281324,17.8619486 13.4797186,18.0040565 13.7501979,18.0002313 L15.2502109,18.0002313 C16.760111,18.0002313 18.0002347,16.7601075 18.0002347,15.2502075 L18.0002347,13.7501945 C18.003144,13.5473834 17.9237935,13.3520396 17.7802776,13.2087078 C17.6367618,13.065376 17.4413163,12.9862763 17.2385091,12.9894459 Z" id="Shape"></path>
        </g>
    </g>
</svg>