<?xml version="1.0" encoding="UTF-8"?>
<svg width="17px" height="17px" viewBox="0 0 17 17" version="1.1" xmlns="http://www.w3.org/2000/svg" xmlns:xlink="http://www.w3.org/1999/xlink">
    <title>offline</title>
    <g id="offline" stroke="none" fill="none" fill-rule="nonzero">
        <path d="M16.1259038,0.000371414415 C15.9053462,0.00694329789 15.6960108,0.0991222318 15.5422466,0.257379589 L14.2986585,1.50096739 L13.552506,0.75481464 C12.5914879,-0.207052468 10.9129423,-0.20790134 9.95107523,0.75481464 L8.0774031,2.62848703 L7.40420733,1.95529152 C7.24437353,1.79099078 7.02489808,1.69829675 6.79567858,1.69828334 C6.4502188,1.69837407 6.13925817,1.90776784 6.00926433,2.2278367 C5.87927049,2.54790555 5.95616561,2.91482436 6.20373079,3.15576823 L7.72588269,4.67791979 L6.20373079,6.20007135 C5.98195136,6.41300414 5.89261354,6.72919694 5.97017179,7.02670527 C6.04773005,7.3242136 6.28006507,7.55654863 6.57757341,7.63410689 C6.87508174,7.71166514 7.19127454,7.62232732 7.40420733,7.40054789 L8.92635906,5.87839658 L11.1217066,8.07374365 L9.59955482,9.59589538 C9.37777289,9.8088276 9.28843315,10.1250216 9.36599107,10.4225315 C9.44354899,10.7200414 9.67588521,10.9523776 9.97339509,11.0299355 C10.270905,11.1074934 10.587099,11.0181537 10.8000312,10.7963717 L12.3221829,9.27422002 L13.8443347,10.7963717 C14.0572669,11.0181537 14.3734609,11.1074934 14.6709708,11.0299355 C14.9684806,10.9523776 15.2008169,10.7200414 15.2783748,10.4225315 C15.3559327,10.1250216 15.266593,9.8088276 15.044811,9.59589538 L14.3716153,8.92269961 L16.2452882,7.04902748 C17.2385667,6.05574883 17.2385667,4.44087532 16.2452882,3.44759684 L15.4991357,2.70144418 L16.742723,1.4578563 C16.9938105,1.2137888 17.0693068,0.840609365 16.9328336,0.518136171 C16.7963603,0.195662976 16.4759143,-0.00995053804 16.1259038,0.000371414415 Z M2.55089876,5.94306317 C2.20543905,5.94306317 1.89447851,6.15254771 1.76448469,6.47261649 C1.63449087,6.79268527 1.71138591,7.159604 1.95895097,7.40054789 L2.63214648,8.07374365 L0.758474089,9.94741578 C-0.234804305,10.9406943 -0.234804305,12.5555681 0.758474089,13.5488466 L1.50462684,14.2949991 L0.261039038,15.5385871 C0.0392596324,15.75152 -0.0500781454,16.0677128 0.0274801514,16.3652211 C0.105038448,16.6627294 0.337373511,16.8950644 0.634881856,16.9726226 C0.932390202,17.0501808 1.24858299,16.960843 1.46151575,16.7390635 L2.70510363,15.4954763 L3.45125629,16.2416288 C3.93176537,16.7221379 4.57110884,16.9877813 5.25197153,16.9877813 C5.93198525,16.9877813 6.57217768,16.7229868 7.05268693,16.2416288 L8.92635906,14.3679558 L9.59955482,15.0411516 C9.81248705,15.2629335 10.1286811,15.3522732 10.4261909,15.2747153 C10.7237008,15.1971574 10.956037,14.9648212 11.033595,14.6673113 C11.1111529,14.3698014 11.0218131,14.0536074 10.8000312,13.8406752 L3.15942768,6.20007135 C2.99959383,6.03577057 2.78011831,5.94306317 2.55089876,5.94306317 Z" id="Shape" fill="color(display-p3 0.000 0.000 0.000)"></path>
    </g>
</svg>