<?xml version="1.0" encoding="UTF-8"?>
<svg width="17px" height="17px" viewBox="0 0 17 17" version="1.1" xmlns="http://www.w3.org/2000/svg" xmlns:xlink="http://www.w3.org/1999/xlink">
    <title>Combined Shape</title>
    <g id="Icons" stroke="none" stroke-width="1" fill="none" fill-rule="evenodd">
        <g id="Graph" fill="color(display-p3 0.000 0.000 0.000)" fill-rule="nonzero">
            <path d="M0.0165954422,9.08077217 C-0.323395074,3.95966502 3.87070669,-0.271623212 8.98118914,0.012587611 C13.146073,0.243674915 16.5778523,3.54530157 16.9603416,7.69690452 C17.1011189,9.2215495 16.8355013,10.6771339 16.2591111,11.962723 L16.2537988,11.9733477 C16.1714573,12.1566239 16.0838035,12.3345877 15.9908374,12.5125515 C16.0067744,9.79528349 14.1102648,8.0634568 12.920298,8.0634568 C12.8406127,8.0634568 12.7635836,8.06876915 12.6918669,8.08205003 C12.5032784,8.11658032 12.3492202,8.13251737 12.2190676,8.13251737 C11.9295444,8.13251737 11.7462683,8.03955122 11.6772077,7.85627508 C11.5815854,7.60393837 11.7887671,7.34894548 11.9242321,7.21879286 C11.9587623,7.12848288 11.9853241,7.01957967 11.9428253,6.94255056 C11.8817332,6.828335 11.6851762,6.77521148 11.6240842,6.76724295 L11.2708128,6.71943179 L11.4169025,6.39537833 C11.7462683,5.6702423 11.4009654,5.34618884 11.3903407,5.33822031 L11.092849,5.09119595 L11.4301833,4.90260746 C11.5842415,4.81229748 11.68252,4.60245959 11.7037695,4.53074284 L11.7781424,4.29434318 L12.0171982,4.35012287 C12.0251667,4.35277905 12.0836026,4.36340375 12.3146899,4.36340375 C12.5006222,4.36340375 12.6812422,4.35543523 12.6812422,4.35543523 L12.7821769,4.35277905 L12.859206,4.4138711 C12.9096733,4.45371374 12.949516,4.48293167 12.9813901,4.5015249 C12.9787339,4.33152964 12.9176418,4.02341324 12.829988,3.75248329 L12.7874892,3.6196745 L12.8698307,3.50811511 C12.9468598,3.40718043 12.9707654,3.31155809 12.949516,3.20796723 C12.8724869,2.86266436 12.3359393,2.50673679 12.1287576,2.3951774 L11.9481376,2.33408536 C11.4567451,2.16940245 11.0344131,2.02862513 10.609425,2.02862513 C10.3438074,2.02862513 10.0835021,2.08440482 9.83116544,2.18533951 C9.69304429,2.33142918 9.68773194,3.24780987 9.82319691,4.14825351 L9.84179014,4.26778142 L9.76210486,4.36074758 C9.55757932,4.59449106 8.9200971,3.45233542 8.77400742,3.45233542 C8.16308696,3.45233542 7.82309645,3.2664031 7.56810356,2.8812576 C7.41138918,2.65017029 7.11655365,2.55454796 6.86421694,2.67673205 C6.44719732,2.87860142 6.13111239,3.07781461 6.09392593,3.17609312 C6.10455063,3.54530157 5.98502272,3.83748092 5.91064979,3.98622677 C5.97705419,4.15622203 6.19751679,4.18278379 6.22407855,4.18543997 L6.54547583,4.2146579 L6.45782203,4.52543048 C6.4392288,4.58121018 6.30642,5.04072861 6.09392593,5.36478207 C6.14173709,5.57727615 6.17626738,5.99695194 5.97439801,6.64240269 C6.22363276,6.75318768 6.43373623,6.93644974 6.57734994,7.16832552 C6.77921931,7.49503515 6.84031136,7.89877389 6.73937667,8.2732947 C6.69687786,8.4379776 6.6809408,8.5814111 6.69422168,8.69562667 C6.86952929,8.70890755 7.18295805,8.72218843 7.64778884,8.72218843 C7.65310119,8.72218843 8.13918138,8.68500196 8.72619626,8.28126322 L8.83244329,8.2068903 L8.95462739,8.24407676 C8.98915767,8.25470146 9.28930555,8.35563615 9.39555259,8.67703343 C9.48586257,8.95593191 9.39024023,9.28795389 9.09009236,9.68106793 C9.08478,9.68903646 8.4127675,10.4433904 8.30917664,11.1844635 L8.18168019,12.1008442 L7.80450322,11.2561802 C7.73013029,11.0914973 7.49904299,10.7276012 7.29451744,10.7276012 C7.25201863,10.7276012 7.20686364,10.7435383 7.16436482,10.7701001 C7.12717836,10.7966618 6.78187549,11.0197806 6.39407381,11.0197806 C6.2293909,11.0197806 6.07798887,10.979938 5.94518008,10.9002527 C5.79112187,11.0011874 5.56003457,11.1207153 5.32363491,11.1207153 C5.19348229,11.1207153 5.07395438,11.0835288 4.97567587,11.0171244 C4.73130769,11.0649356 4.4205351,11.1791511 4.343506,11.327897 C4.3328813,11.3464902 4.30631954,11.3943014 4.34881835,11.5005484 C4.43912834,11.6041393 4.67552799,11.917568 5.05801732,12.6745782 L5.06864203,12.6931714 L5.07395438,12.7117646 C5.2147317,13.1367528 5.63175132,14.015947 6.03283388,14.015947 C6.06736417,14.015947 6.09923828,14.0106347 6.13376857,13.9973538 L6.2293909,13.9628235 L6.32501323,14.00001 C6.33563794,14.0053223 7.38482742,14.4356228 8.44198543,14.9296715 L8.47120337,14.9456086 L8.48714042,14.9588895 C8.48714042,14.9588895 8.59869981,15.0306062 8.84838035,15.0306062 C9.03165649,15.0306062 9.24415056,14.9934198 9.47789404,14.9190468 L9.60273431,14.876548 L9.71163752,14.9535771 C9.7249184,14.9642018 11.0131637,15.8646455 11.9481376,15.8673016 C12.2456293,15.9018319 12.482029,15.9151128 12.662649,15.9124566 C11.2389387,16.7146217 9.56289167,17.1183605 7.78325381,16.9722708 C3.62899468,16.6322803 0.292837737,13.2403437 0.0165954422,9.08077217 Z M12.1261014,8.90280839 C13.7118384,8.90280839 15.0000838,10.1937099 15.0000838,11.7794469 C15.0000838,12.3664618 14.8247761,12.913634 14.5193159,13.3678401 L14.9602411,13.8061091 L15.0558635,13.9043876 L16.2591111,15.102323 C16.4795737,15.3254417 16.4795737,15.6866817 16.2591111,15.9071443 C16.1475518,16.0213598 16.0014621,16.0771395 15.8553724,16.0771395 C15.7092827,16.0771395 15.5631931,16.0213598 15.4516337,15.9098004 L14.2749477,14.7331145 L14.2058872,14.6667101 L13.7144946,14.1753176 C13.2602885,14.4754655 12.7131163,14.6534292 12.1261014,14.6534292 C10.5430206,14.6534292 9.25211909,13.3651839 9.25211909,11.7794469 C9.25211909,10.1937099 10.5430206,8.90280839 12.1261014,8.90280839 Z M12.1261014,9.96262258 C11.1247231,9.96262258 10.3092771,10.7780686 10.3092771,11.7794469 C10.3092771,12.7808252 11.1247231,13.5962712 12.1261014,13.5962712 C13.1274797,13.5962712 13.9429257,12.7808252 13.9429257,11.7794469 C13.9429257,10.7780686 13.1274797,9.96262258 12.1261014,9.96262258 Z M2.72855105,5.72867817 C2.46027728,5.75523993 2.04325766,5.84820609 1.83607594,6.15897867 C1.62358187,7.02223584 1.51202248,7.88549301 1.58905158,8.05017592 C1.71654803,8.24938911 1.7749839,8.61859756 1.86795005,9.25607978 C1.95029151,9.81122055 2.05388237,10.5018263 2.22387762,10.815255 C2.25840791,10.8816594 2.28762585,10.9215021 2.30887525,10.9427515 C2.35668642,10.8949403 2.45496493,10.7568192 2.61433548,10.3663613 C2.76042516,10.0104337 3.00213717,9.78465879 3.24650535,9.6730994 C3.13228979,9.53497825 2.99151246,9.36763917 2.86135984,9.2215495 L2.81620485,9.17108215 L2.80292397,9.10733393 C2.78964309,9.05155424 2.48949522,7.72081011 3.52009147,7.23472991 C3.69539908,7.15238846 3.79898994,7.0594223 3.79367759,6.98770556 C3.78305289,6.87083381 3.58118352,6.70083856 3.43509384,6.65833974 L3.3846265,6.64505886 L3.34212768,6.61052858 C3.27572329,6.55740506 2.80823633,6.1669472 2.72855105,5.72867817 Z" id="Combined-Shape"></path>
        </g>
    </g>
</svg>