<?xml version="1.0" encoding="UTF-8"?>
<svg width="17px" height="17px" viewBox="0 0 17 17" version="1.1" xmlns="http://www.w3.org/2000/svg" xmlns:xlink="http://www.w3.org/1999/xlink">
    <title>osm</title>
    <g id="osm" stroke="none" fill="none" fill-rule="nonzero">
        <path d="M16.9623609,4.68545847 C16.7229459,3.11651129 15.8871186,1.78343743 14.602211,0.920693566 C12.263311,-0.653211912 9.09708349,-0.165173715 7.32980439,2.04056061 C6.58889299,2.96847068 6.1461878,4.14287899 6.1461878,5.42141157 C6.1461878,5.84145025 6.1936458,6.25086401 6.27722854,6.60715314 C6.40543596,7.17381578 6.68947561,7.85876925 6.99051513,8.32768258 L7.1449307,8.57063919 L5.90818949,9.80596374 L5.71198255,9.70679778 C5.54056711,9.61896507 5.48602583,9.60763182 5.27211068,9.60763182 C4.81169729,9.60621516 4.94344635,9.49500762 2.38992284,12.0506561 C-0.137392532,14.5808048 0.00143981416,14.417181 0.00143981416,14.8740527 C-0.00139349904,15.2848831 0.0488978101,15.3620909 0.840100519,16.1504603 C1.50451246,16.8120389 1.63342821,16.9147465 1.8834681,16.9777878 L1.88417643,16.9784961 C2.06480015,17.0245374 2.36229803,16.9919543 2.554255,16.9034133 C2.7044206,16.8347054 3.00616846,16.5457075 4.96398787,14.5935547 C7.50405315,12.0563227 7.39567892,12.1866551 7.39355393,11.7255334 C7.39355393,11.5123266 7.38292901,11.459202 7.29438797,11.2884949 L7.19522201,11.0901629 L8.43196322,9.85483839 L8.67491983,10.009254 C9.62266309,10.6169996 10.8615293,10.9258308 11.9771464,10.8330398 C12.7612658,10.7671652 13.33997,10.6063747 14.0206735,10.2642521 L14.0490066,10.2522106 C14.554753,10.0064206 15.0109165,9.67350635 15.398372,9.2718842 L15.3990804,9.27117587 C16.2271161,8.46155663 16.7930705,7.38560594 16.9623609,6.15382303 C17.0126522,5.80390885 17.0126522,5.01553946 16.9623609,4.68545847 Z M15.6533702,7.39552254 L15.6413286,7.42243902 C15.0201247,8.67759676 13.8357998,9.60550683 12.3886851,9.88175487 L12.3893934,9.88317152 C12.0182294,9.95046271 11.2858179,9.96462928 10.9245705,9.90937967 L10.899779,9.90654636 C9.81532839,9.74150586 8.85554354,9.19255143 8.16067348,8.39851541 C7.46580342,7.60447939 7.04434808,6.56394512 7.04434808,5.42566154 C7.04434808,4.43896022 7.36097083,3.52592505 7.88938374,2.79563857 C8.10825719,2.48609911 8.62321186,1.97114443 8.93912628,1.74660436 C9.44487269,1.38889857 10.0249936,1.12823376 10.6830306,0.988693083 C11.1122775,0.897318733 11.982813,0.888110465 12.39506,0.970984876 C12.9893475,1.08998403 13.6211763,1.34781553 14.0737981,1.6523967 C15.9763679,2.92809596 16.6400715,5.34137048 15.6533702,7.39552254 Z M1.9210095,3.86663096 C1.93021777,3.8800892 2.62508783,4.08975437 3.46729018,4.32987767 L3.47083182,4.32987767 L5.01852915,4.77541727 C5.04261231,4.77754115 4.16853519,1.71189628 4.13453543,1.67577153 C4.10549397,1.64602174 1.0674739,0.775486265 1.04905737,0.793194473 C1.03772411,0.805944382 1.89267637,3.8227146 1.9210095,3.86663096 Z M9.072292,11.4939101 C9.08858355,11.4754935 12.0805623,12.3099043 12.2023948,12.3694038 C12.2463111,12.3871121 12.2002698,12.5734024 11.8298141,13.8583099 C12.1783116,12.3899454 12.0246043,12.9190666 11.8716054,13.4488962 L11.3793173,15.442132 C11.3616091,15.5037566 11.3304426,15.5526312 11.3106094,15.5526312 C11.2907762,15.5505062 10.5810313,15.349341 9.73670394,15.1056761 C8.8095022,14.8556362 8.29029756,14.6983873 7.77392623,14.5333468 L8.18050667,14.6452627 C8.17239041,14.6361725 8.351611,13.9812984 8.55155792,13.2709039 L8.66167397,12.8814577 C8.86364997,12.170387 9.05605948,11.5111165 9.072292,11.4939101 Z M15.7652861,11.5406597 C15.7787443,11.5534097 14.9152921,14.6126796 14.8926256,14.6289711 C14.8784591,14.6424294 11.9665214,15.4725901 11.8723138,15.491715 C11.834064,15.4995066 11.8028976,15.491715 11.8028976,15.4782568 L11.8073067,15.4576966 C11.8739542,15.192616 12.6739938,12.4079487 12.6868913,12.3984453 C12.7201827,12.3743621 15.7532445,11.5272015 15.7652861,11.5406597 Z M8.59355061,11.5315621 L8.60833697,11.5335765 C8.61580393,11.5416927 8.43652923,12.1853258 8.23746438,12.8828734 L8.12792436,13.2652051 C7.92718216,13.9631315 7.73700462,14.6092265 7.72434325,14.6218878 C7.71017668,14.6332211 7.24409666,14.7727618 6.68593396,14.930719 L5.67585781,15.2175919 L6.76597506,14.1253497 C7.3652208,13.5204373 7.89930034,12.9714829 7.95242496,12.8999417 C8.07425743,12.7455262 8.24000625,12.3814454 8.28746425,12.1809885 C8.30588078,12.0974058 8.32500565,11.931657 8.32854729,11.8112412 L8.3363389,11.5937844 L8.46525465,11.5576596 C8.53821246,11.5378264 8.60196201,11.5264932 8.60833697,11.5335765 Z M15.6277344,10.3766837 L15.639912,10.3853763 C15.6781617,10.5022505 15.8325773,11.0582882 15.827619,11.0646631 C15.8042441,11.0887463 12.6507666,11.97274 12.6422666,11.9578651 C12.6281001,11.9203237 12.6139335,11.8764074 12.6026002,11.830366 L12.5700171,11.7134918 L12.6805164,11.6936587 C13.6303846,11.5328681 14.649669,11.0873296 15.452205,10.4802923 C15.5655375,10.3917512 15.6307037,10.3591681 15.639912,10.3853763 Z M1.0497657,7.99618494 C1.03843244,7.93739369 1.15318163,7.96572682 2.59108807,8.3758489 C4.09557738,8.8036792 4.14586869,8.8213874 4.16711854,8.90001185 C4.18695173,8.96942802 4.17491015,8.9913862 4.0785775,9.05796906 C4.02757786,9.09379023 3.66329474,9.44497651 3.22347862,9.88136043 L2.99837684,10.1055866 C2.6767958,10.4307093 2.35592308,10.7466237 2.03009206,11.0575798 L2.01238385,11.0738714 C2.0010506,11.0738714 1.97271747,11.0561632 1.94650932,11.0356217 C1.91038458,11.0072885 1.1099736,8.29651614 1.0497657,7.99618494 Z M1.90259297,4.33200265 C1.91817619,4.3157111 5.03907067,5.18978822 5.0723621,5.21882968 C5.07873706,5.22520463 4.88111346,5.93919956 4.63390688,6.80477674 C4.22520146,8.2355999 4.17774346,8.38009887 4.1210772,8.37730547 C4.08566078,8.37514058 3.36954087,8.175392 2.52804685,7.93456038 L2.36176852,7.88660896 C1.59663922,7.66603154 0.993666094,7.49313018 0.991682775,7.49114686 C0.979641194,7.48264692 1.88559309,4.35112751 1.90259297,4.33200265 Z M5.23952758,6.18357282 L5.27919396,6.41023788 C5.3450685,6.80477674 5.46690096,7.2517319 5.60785829,7.64414577 C5.68294109,7.85381095 5.74031569,8.02593473 5.73606572,8.0301847 C5.73039909,8.03443467 5.50019239,8.10172585 5.22606934,8.18035029 L5.12411019,8.2089283 C4.89088618,8.27448048 4.6965054,8.33033881 4.66861497,8.33901583 C4.62753193,8.35034909 4.61549035,8.3432658 4.6268236,8.31493267 C4.63461521,8.29368282 4.7769892,7.80351964 4.94132137,7.22906539 L5.23952758,6.18357282 Z M7.01601495,0.936276789 C7.04009811,0.925651865 6.9572237,1.03615108 6.83184959,1.17498343 C6.19647911,1.87197847 5.71623252,2.72055577 5.4527344,3.66192408 L5.4428178,3.70513211 C5.40810971,3.81350634 5.37552661,3.94738038 5.35215178,4.08408775 L5.34931847,4.10250428 C5.34931847,4.31004447 5.26786071,4.08479607 4.99090435,3.11792795 L4.62257363,1.83727038 L4.56732402,1.63893846 L5.76794049,1.29681589 C5.86983079,1.26793789 5.96930691,1.23964667 6.06479292,1.21240908 L6.33770468,1.13432403 C6.72438907,1.0233383 6.99836123,0.943142125 7.01601495,0.936276789 Z" id="Shape" fill="color(display-p3 0.000 0.000 0.000)"></path>
    </g>
</svg>