<?xml version="1.0" encoding="UTF-8"?>
<svg width="19px" height="19px" viewBox="0 0 19 19" version="1.1" xmlns="http://www.w3.org/2000/svg" xmlns:xlink="http://www.w3.org/1999/xlink">
    <title>Packaging</title>
    <g id="Packaging" stroke="none" fill="none" fill-rule="nonzero">
        <path d="M2.38073921,3.12127444 C1.12691307,4.41611222 0.5,5.70902074 0.5,7 C0.5,10.8666667 0.5,14.7333333 0.5,18.6 C0.5,18.8209139 0.6790861,19 0.9,19 L8.1,19 C8.3209139,19 8.5,18.8209139 8.5,18.6 C8.5,14.7333333 8.5,10.8666667 8.5,7 C8.5,5.70755826 7.85459299,4.41460547 6.56377898,3.12114161 L6.56625204,3.11869523 C6.49143998,3.04306736 6.38958412,3.00035494 6.28320605,3.0000022 L2.66549122,3.00000246 C2.55806796,3.00037939 2.45531113,3.04394905 2.38035654,3.1209017 Z M1.9,9 L7.1,9 C7.3209139,9 7.5,9.1790861 7.5,9.4 L7.5,13.6 C7.5,13.8209139 7.3209139,14 7.1,14 L1.9,14 C1.6790861,14 1.5,13.8209139 1.5,13.6 L1.5,9.4 C1.5,9.1790861 1.6790861,9 1.9,9 Z M2.9,0 L6.1,0 C6.3209139,-5.55111512e-17 6.5,0.1790861 6.5,0.4 L6.5,1.6 C6.5,1.8209139 6.3209139,2 6.1,2 L2.9,2 C2.6790861,2 2.5,1.8209139 2.5,1.6 L2.5,0.4 C2.5,0.1790861 2.6790861,0 2.9,0 Z M10.9,11 L18.1,11 C18.3209139,11 18.5,11.1790861 18.5,11.4 L18.5,18.6 C18.5,18.8209139 18.3209139,19 18.1,19 L10.9,19 C10.6790861,19 10.5,18.8209139 10.5,18.6 L10.5,11.4 C10.5,11.1790861 10.6790861,11 10.9,11 Z M10.9,8 L18.1,8 C18.3209139,8 18.5,8.1790861 18.5,8.4 L18.5,9.6 C18.5,9.8209139 18.3209139,10 18.1,10 L10.9,10 C10.6790861,10 10.5,9.8209139 10.5,9.6 L10.5,8.4 C10.5,8.1790861 10.6790861,8 10.9,8 Z" id="Shape" fill="color(display-p3 0.000 0.000 0.000)"></path>
    </g>
</svg>