<?xml version="1.0" encoding="UTF-8"?>
<svg width="19px" height="19px" viewBox="0 0 19 19" version="1.1" xmlns="http://www.w3.org/2000/svg" xmlns:xlink="http://www.w3.org/1999/xlink">
    <title>Packaging</title>
    <g id="Packaging" stroke="none" fill="none" fill-rule="nonzero">
        <path d="M2.4418354,3.05868259 C1.14727847,4.37444699 0.5,5.68821946 0.5,7 C0.5,8.9969226 0.5,17 0.5,18 C0.5,18.6653646 0.832032522,18.9986966 1.49609756,18.9999962 L1.49609823,18.9999619 C1.49837502,19.0000064 1.5006524,19.0000119 1.50292937,18.9999785 L7.49707063,18.9999785 C7.4993476,19.0000119 7.50162498,19.0000064 7.50390177,18.9999619 C8.16796748,18.9986966 8.5,18.6653646 8.5,18 C8.5,17 8.5,8.9991848 8.5,7 C8.5,5.68673342 7.83362682,4.37293918 6.50088045,3.05861728 L6.50320146,3.05621674 C6.46682407,3.02104463 6.41846704,3.00096849 6.36787535,3.0000341 L2.58082137,3.00000833 C2.52853668,3.0004855 2.47851788,3.02141911 2.4414792,3.05832511 Z M1.7,9 L7.3,9 C7.41045695,9 7.5,9.08954305 7.5,9.2 L7.5,13.8 C7.5,13.9104569 7.41045695,14 7.3,14 L1.7,14 C1.58954305,14 1.5,13.9104569 1.5,13.8 L1.5,9.2 C1.5,9.08954305 1.58954305,9 1.7,9 Z M2.7,0 L6.3,0 C6.41045695,-2.77555756e-17 6.5,0.08954305 6.5,0.2 L6.5,1.8 C6.5,1.91045695 6.41045695,2 6.3,2 L2.7,2 C2.58954305,2 2.5,1.91045695 2.5,1.8 L2.5,0.2 C2.5,0.08954305 2.58954305,-5.55111512e-17 2.7,-5.55111512e-17 Z M10.7,11 L18.3,11 C18.4104569,11 18.5,11.0895431 18.5,11.2 L18.5,18.8 C18.5,18.9104569 18.4104569,19 18.3,19 L10.7,19 C10.5895431,19 10.5,18.9104569 10.5,18.8 L10.5,11.2 C10.5,11.0895431 10.5895431,11 10.7,11 Z M10.7,8 L18.3,8 C18.4104569,8 18.5,8.08954305 18.5,8.2 L18.5,9.8 C18.5,9.91045695 18.4104569,10 18.3,10 L10.7,10 C10.5895431,10 10.5,9.91045695 10.5,9.8 L10.5,8.2 C10.5,8.08954305 10.5895431,8 10.7,8 Z" id="Shape" fill="color(display-p3 0.000 0.000 0.000)"></path>
    </g>
</svg>