<?xml version="1.0" encoding="UTF-8"?>
<svg width="17px" height="17px" viewBox="0 0 17 17" version="1.1" xmlns="http://www.w3.org/2000/svg" xmlns:xlink="http://www.w3.org/1999/xlink">
    <title>panel</title>
    <g id="panel" stroke="none" fill="none" fill-rule="nonzero">
        <path d="M1.88888889,0 C0.8565518,0 0,0.8565518 0,1.88888889 L0,15.1111111 C0,16.1434484 0.8565518,17 1.88888889,17 L15.1111111,17 C16.1434484,17 17,16.1434484 17,15.1111111 L17,1.88888889 C17,0.8565518 16.1434484,0 15.1111111,0 L1.88888889,0 Z M2.83333333,1.88888889 L5.66666667,1.88888889 C6.18826893,1.88888889 6.61111111,2.31173107 6.61111111,2.83333333 C6.61111111,3.3549356 6.18826893,3.77777778 5.66666667,3.77777778 L2.83333333,3.77777778 C2.31173107,3.77777778 1.88888889,3.3549356 1.88888889,2.83333333 C1.88888889,2.31173107 2.31173107,1.88888889 2.83333333,1.88888889 Z M2.83333333,5.88888889 L5.66666667,5.88888889 C6.18826893,5.88888889 6.61111111,6.31173107 6.61111111,6.83333333 C6.61111111,7.3549356 6.18826893,7.77777778 5.66666667,7.77777778 L2.83333333,7.77777778 C2.31173107,7.77777778 1.88888889,7.3549356 1.88888889,6.83333333 C1.88888889,6.31173107 2.31173107,5.88888889 2.83333333,5.88888889 Z M2.83333333,9.88888889 L5.66666667,9.88888889 C6.18826893,9.88888889 6.61111111,10.3117311 6.61111111,10.8333333 C6.61111111,11.3549356 6.18826893,11.7777778 5.66666667,11.7777778 L2.83333333,11.7777778 C2.31173107,11.7777778 1.88888889,11.3549356 1.88888889,10.8333333 C1.88888889,10.3117311 2.31173107,9.88888889 2.83333333,9.88888889 Z M9.5,1.88888889 L14.1111111,1.88888889 C14.6633959,1.88888889 15.1111111,2.33660414 15.1111111,2.88888889 L15.1111111,14.1111111 C15.1111111,14.6633959 14.6633959,15.1111111 14.1111111,15.1111111 L9.5,15.1111111 C8.94771525,15.1111111 8.5,14.6633959 8.5,14.1111111 L8.5,2.88888889 C8.5,2.33660414 8.94771525,1.88888889 9.5,1.88888889 Z" id="Shape" fill="color(display-p3 0.000 0.000 0.000)"></path>
    </g>
</svg>