<?xml version="1.0" encoding="UTF-8"?>
<svg width="17px" height="17px" viewBox="0 0 17 17" version="1.1" xmlns="http://www.w3.org/2000/svg" xmlns:xlink="http://www.w3.org/1999/xlink">
    <title>Partners</title>
    <g id="Partners" stroke="none" fill="none" fill-rule="nonzero">
        <path d="M3.4,0 C2.46111593,0 1.7,0.761115925 1.7,1.7 C1.7,2.63888407 2.46111593,3.4 3.4,3.4 C4.33888407,3.4 5.1,2.63888407 5.1,1.7 C5.1,0.761115925 4.33888407,0 3.4,0 Z M13.6,0 C12.6611159,0 11.9,0.761115925 11.9,1.7 C11.9,2.63888407 12.6611159,3.4 13.6,3.4 C14.5388841,3.4 15.3,2.63888407 15.3,1.7 C15.3,0.761115925 14.5388841,0 13.6,0 Z M2.55,5.1 C1.61075,5.1 0.85,5.86075 0.85,6.8 L0.85,11.9 L0.85,16.15 C0.85,16.6192 1.2308,17 1.7,17 C2.1692,17 2.55,16.6192 2.55,16.15 L2.55,11.9 L4.25,11.9 L4.25,16.15 C4.25,16.6192 4.6308,17 5.1,17 C5.5692,17 5.95,16.6192 5.95,16.15 L5.95,11.05 L5.95,8.6444337 L7.89902365,10.5951174 C8.23137365,10.9274674 8.76947635,10.9274674 9.10097635,10.5951174 L11.05,8.6444337 L11.05,11.9 L11.05,16.15 C11.05,16.6192 11.4308,17 11.9,17 C12.3692,17 12.75,16.6192 12.75,16.15 L12.75,11.9 L14.45,11.9 L14.45,16.15 C14.45,16.6192 14.8308,17 15.3,17 C15.7692,17 16.15,16.6192 16.15,16.15 L16.15,11.05 L16.15,6.8 C16.15,5.86075 15.38925,5.1 14.45,5.1 L12.75,5.1 C12.2773839,5.1 11.8511114,5.29363238 11.5430663,5.6046875 L11.5414062,5.60302737 L8.5,8.64609375 L5.45195313,5.59804688 L5.43037111,5.57480473 L5.42705076,5.578125 C5.12142331,5.28371926 4.70812144,5.1 4.25,5.1 L2.55,5.1 Z" id="Shape" fill="color(display-p3 0.000 0.000 0.000)"></path>
        <path d="M9.4,2 C8.821,2 8.5,2.418 8.5,2.418 C8.5,2.418 8.179,2 7.6,2 C6.9924,2 6.5,2.4924 6.5,3.1 C6.5,4.037 7.9512,5.1918 8.3812,5.5134 C8.452,5.5664 8.5478,5.5664 8.6186,5.5134 C9.0488,5.1918 10.5,4.037 10.5,3.1 C10.5,2.4924 10.0076,2 9.4,2 Z" id="Path" fill="color(display-p3 0.000 0.000 0.000)"></path>
    </g>
</svg>