<?xml version="1.0" encoding="UTF-8"?>
<svg width="21px" height="21px" viewBox="0 0 21 21" version="1.1" xmlns="http://www.w3.org/2000/svg" xmlns:xlink="http://www.w3.org/1999/xlink">
    <title>Password</title>
    <g id="Password" stroke="none" stroke-width="1" fill="none" fill-rule="evenodd">
        <path d="M10.5,0 C7.1761905,0 4.5,2.6761905 4.5,6 L4.5,7 C3.4,7 2.5,7.9 2.5,9 L2.5,19 C2.5,20.1 3.4,21 4.5,21 L16.5,21 C17.6,21 18.5,20.1 18.5,19 L18.5,9 C18.5,7.9 17.6,7 16.5,7 L16.5,6 C16.5,2.6761905 13.82381,0 10.5,0 Z M10.5,2 C12.77619,2 14.5,3.7238095 14.5,6 L14.5,7 L6.5,7 L6.5,6 C6.5,3.7238095 8.2238095,2 10.5,2 Z M6.5,13 C7.05,13 7.5,13.45 7.5,14 C7.5,14.55 7.05,15 6.5,15 C5.95,15 5.5,14.55 5.5,14 C5.5,13.45 5.95,13 6.5,13 Z M10.5,13 C11.05,13 11.5,13.45 11.5,14 C11.5,14.55 11.05,15 10.5,15 C9.95,15 9.5,14.55 9.5,14 C9.5,13.45 9.95,13 10.5,13 Z M14.5,13 C15.05,13 15.5,13.45 15.5,14 C15.5,14.55 15.05,15 14.5,15 C13.95,15 13.5,14.55 13.5,14 C13.5,13.45 13.95,13 14.5,13 Z" id="Shape" fill="#000000" fill-rule="nonzero"></path>
    </g>
</svg>