<?xml version="1.0" encoding="UTF-8"?>
<svg width="21px" height="21px" viewBox="0 0 21 21" version="1.1" xmlns="http://www.w3.org/2000/svg" xmlns:xlink="http://www.w3.org/1999/xlink">
    <title>Password</title>
    <g id="Password" stroke="none" fill="none" fill-rule="nonzero">
        <path d="M10.5,0 C7.1761905,0 4.5,2.6761905 4.5,6 L4.5,7 C3.4,7 2.5,7.9 2.5,9 L2.5,19 C2.5,20.1 3.4,21 4.5,21 L16.5,21 C17.6,21 18.5,20.1 18.5,19 L18.5,9 C18.5,7.9 17.6,7 16.5,7 L16.5,6 C16.5,2.6761905 13.82381,0 10.5,0 Z M10.5,2 C12.77619,2 14.5,3.7238095 14.5,6 L14.5,7 L6.5,7 L6.5,6 C6.5,3.7238095 8.2238095,2 10.5,2 Z M10.5,12 C11.6,12 12.5,12.9 12.5,14 C12.5,15.1 11.6,16 10.5,16 C9.4,16 8.5,15.1 8.5,14 C8.5,12.9 9.4,12 10.5,12 Z" id="Shape" fill="color(display-p3 0.000 0.000 0.000)"></path>
    </g>
</svg>