<?xml version="1.0" encoding="UTF-8"?>
<svg width="20px" height="20px" viewBox="0 0 20 20" version="1.1" xmlns="http://www.w3.org/2000/svg" xmlns:xlink="http://www.w3.org/1999/xlink">
    <title>Personalization  alt</title>
    <g id="Personalization--alt" stroke="none" stroke-width="1" fill="none" fill-rule="evenodd">
        <path d="M8,0 C6.6983906,0 5.5978609,0.8387486 5.1835938,2 L0,2 L0,4 L5.1835938,4 C5.5978609,5.1612514 6.6983906,6 8,6 C9.654,6 11,4.654 11,3 C11,1.346 9.654,0 8,0 Z M13,2 L13,4 L20,4 L20,2 L13,2 Z M13,7 C11.698391,7 10.597861,7.8387486 10.183594,9 L0,9 L0,11 L10.183594,11 C10.597861,12.161251 11.698391,13 13,13 C14.654,13 16,11.654 16,10 C16,8.346 14.654,7 13,7 Z M18,9 L18,11 L20,11 L20,9 L18,9 Z M5,14 C3.6983906,14 2.5978609,14.838749 2.1835938,16 L0,16 L0,18 L2.1835938,18 C2.5978609,19.161251 3.6983906,20 5,20 C6.654,20 8,18.654 8,17 C8,15.346 6.654,14 5,14 Z M10,16 L10,18 L20,18 L20,16 L10,16 Z" id="Shape" fill="#000000" fill-rule="nonzero"></path>
    </g>
</svg>