<?xml version="1.0" encoding="UTF-8"?>
<svg width="17px" height="17px" viewBox="0 0 17 17" version="1.1" xmlns="http://www.w3.org/2000/svg" xmlns:xlink="http://www.w3.org/1999/xlink">
    <title>Pie Chart</title>
    <g id="Pie-Chart" stroke="none" fill="none" fill-rule="nonzero">
        <path d="M9.74403317,0 C9.40072228,0 9.12209316,0.278629126 9.12209316,0.621940014 L9.12209316,7.25596683 C9.12209316,7.59927772 9.40072228,7.87790684 9.74403317,7.87790684 L16.37806,7.87790684 C16.7213709,7.87790684 17,7.59927772 17,7.25596683 C17,3.25523403 13.744766,0 9.74403317,0 Z M7.25465358,2.48776006 C2.88490305,2.48858931 -0.595065237,6.3723327 0.0853371377,10.8693736 C0.553036028,13.9616594 3.03834062,16.446964 6.13062637,16.9146629 C10.6276673,17.5950653 14.5114107,14.115097 14.5122399,9.74534642 C14.5122399,9.40203553 14.2336108,9.12178687 13.8902999,9.12178687 L8.70746648,9.12178687 C8.249304,9.12178687 7.87821313,8.750696 7.87821313,8.29253352 L7.87821313,3.10970007 C7.87821313,2.76638918 7.59796447,2.48776006 7.25465358,2.48776006 Z" id="Shape" fill="color(display-p3 0.000 0.000 0.000)"></path>
    </g>
</svg>