<?xml version="1.0" encoding="UTF-8"?>
<svg width="17px" height="17px" viewBox="0 0 17 17" version="1.1" xmlns="http://www.w3.org/2000/svg" xmlns:xlink="http://www.w3.org/1999/xlink">
    <title>Piggy bank new</title>
    <g id="Piggy-bank-new" stroke="none" fill="none" fill-rule="nonzero">
        <path d="M3.50834169,0.315 C3.2930524,0.315 3.11852595,0.489526453 3.11852595,0.704815743 C3.11852595,0.920105033 3.2930524,1.09463149 3.50834169,1.09463149 C3.72363098,1.09463149 3.89815743,0.920105033 3.89815743,0.704815743 C3.89815743,0.489526453 3.72363098,0.315 3.50834169,0.315 Z M7.40649912,0.315 C5.89947146,0.315 4.67778892,1.53668254 4.67778892,3.0437102 C4.67778892,4.13051649 5.31786637,5.06092138 6.23705189,5.49985391 L6.23705189,6.55205189 C6.23705189,6.98240847 6.5863268,7.33168338 7.01668338,7.33168338 L7.79631486,7.33168338 C8.22667145,7.33168338 8.57594635,6.98240847 8.57594635,6.55205189 L8.57594635,5.49985391 C9.49513187,5.06092138 10.1352093,4.13051649 10.1352093,3.0437102 C10.1352093,1.53668254 8.91352678,0.315 7.40649912,0.315 Z M11.3046566,0.315 C11.0893673,0.315 10.9148408,0.489526453 10.9148408,0.704815743 C10.9148408,0.920105033 11.0893673,1.09463149 11.3046566,1.09463149 C11.5199458,1.09463149 11.6944723,0.920105033 11.6944723,0.704815743 C11.6944723,0.489526453 11.5199458,0.315 11.3046566,0.315 Z M7.40649912,1.87426297 C8.05125436,1.87426297 8.57594635,2.39895496 8.57594635,3.0437102 C8.57594635,3.68846544 8.05125436,4.21315743 7.40649912,4.21315743 C6.76174388,4.21315743 6.23705189,3.68846544 6.23705189,3.0437102 C6.23705189,2.39895496 6.76174388,1.87426297 7.40649912,1.87426297 Z M2.7287102,2.65389446 C2.51342091,2.65389446 2.33889446,2.82842091 2.33889446,3.0437102 C2.33889446,3.25899949 2.51342091,3.43352595 2.7287102,3.43352595 C2.94399949,3.43352595 3.11852595,3.25899949 3.11852595,3.0437102 C3.11852595,2.82842091 2.94399949,2.65389446 2.7287102,2.65389446 Z M12.084288,2.65389446 C11.8689988,2.65389446 11.6944723,2.82842091 11.6944723,3.0437102 C11.6944723,3.25899949 11.8689988,3.43352595 12.084288,3.43352595 C12.2995773,3.43352595 12.4741038,3.25899949 12.4741038,3.0437102 C12.4741038,2.82842091 12.2995773,2.65389446 12.084288,2.65389446 Z M14.8129982,4.21315743 L12.4741038,4.99278892 L11.392974,4.59231413 C11.1271197,5.26669537 10.6981033,5.87187215 10.1352093,6.33887141 L10.1352093,6.55205189 C10.1352093,7.84156237 9.08582534,8.89094635 7.79631486,8.89094635 L7.01668338,8.89094635 C5.7271729,8.89094635 4.67778892,7.84156237 4.67778892,6.55205189 L4.67778892,6.33887141 C4.23807676,5.97400387 3.88227244,5.52450975 3.61797737,5.02476597 C2.22008727,5.80488566 1.42565308,7.02806307 1.05067521,8.16156445 C0.96402922,8.12884814 0.872246908,8.11183235 0.779631486,8.11131486 C0.349052906,8.11131486 0,8.46036777 0,8.89094635 C0,9.32152493 0.349052906,9.67057784 0.779631486,9.67057784 C0.779631486,10.5780689 1.08463798,11.5029917 1.61712629,12.3551289 L2.23078148,16.0355376 C2.293152,16.41132 2.61851413,16.6872612 2.99975392,16.6872612 L4.79656094,16.6872612 C5.17780066,16.6872612 5.50316287,16.4120996 5.56553338,16.0355376 L5.65841915,15.4782235 C6.44818584,15.7471964 7.29735071,15.9076297 8.18613061,15.9076297 C8.72797449,15.9076297 9.25382345,15.8631058 9.76214318,15.7812444 L10.0788685,16.3081046 C10.2199818,16.5435533 10.4729114,16.6872612 10.7473417,16.6872612 L12.4741038,16.6872612 C12.9660513,16.6872612 13.334403,16.2379495 13.2385083,15.7553583 L13.0055326,14.5889564 C13.7867233,14.09467 14.4233532,13.4821962 14.8708617,12.7891038 L15.7646967,12.7891038 C16.1225476,12.7891038 16.4334256,12.5460046 16.5199647,12.1982897 L16.9767805,10.3710284 C17.075014,9.97575523 16.8533671,9.57080918 16.4666699,9.44216998 L15.3535628,9.07062724 C15.1547567,8.46407394 14.8203564,7.83082996 14.3440016,7.22661587 C14.6067374,6.37447866 14.8129982,5.34596198 14.8129982,4.21315743 Z M12.4741038,8.89094635 C12.9044604,8.89094635 13.2537353,9.24022126 13.2537353,9.67057784 C13.2537353,10.1009344 12.9044604,10.4502093 12.4741038,10.4502093 C12.0437472,10.4502093 11.6944723,10.1009344 11.6944723,9.67057784 C11.6944723,9.24022126 12.0437472,8.89094635 12.4741038,8.89094635 Z" id="Shape" fill="color(display-p3 0.000 0.000 0.000)"></path>
    </g>
</svg>