<?xml version="1.0" encoding="UTF-8"?>
<svg width="17px" height="17px" viewBox="0 0 17 17" version="1.1" xmlns="http://www.w3.org/2000/svg" xmlns:xlink="http://www.w3.org/1999/xlink">
    <title>Piggy bank</title>
    <g id="Piggy-bank" stroke="none" fill="none" fill-rule="nonzero">
        <path d="M7.01657439,0.315 C5.72474508,0.315 4.67771626,1.36202882 4.67771626,2.65385813 C4.67771626,3.25572429 4.91183354,3.79833937 5.28527122,4.21309688 L8.74787748,4.21309688 C9.12131516,3.79833937 9.35543252,3.25572429 9.35543252,2.65385813 C9.35543252,1.36202882 8.3084037,0.315 7.01657439,0.315 Z M14.8127682,4.21309688 L12.5226362,5.58808967 C11.9251695,5.21799125 11.2522012,4.90561968 10.5020211,4.67447321 L10.3132074,5.23939266 C10.2071792,5.55747737 9.90919382,5.77233564 9.57317787,5.77233564 L4.45997098,5.77233564 C4.12395503,5.77233564 3.82596993,5.55825699 3.71994169,5.23939266 L3.65903393,5.0551467 C2.32263222,5.75794877 1.41415829,6.85507181 1.01411423,8.14773842 C0.938272273,8.12366137 0.85919127,8.11133705 0.779619377,8.11119377 C0.349047484,8.11119377 0,8.46024125 0,8.89081314 C0,9.32138504 0.349047484,9.67043252 0.779619377,9.67043252 C0.779619377,10.5781239 1.0850553,11.5030892 1.61710117,12.3549419 L2.23074683,16.0352934 C2.29311638,16.4118496 2.61847345,16.6870069 2.99970733,16.6870069 L4.79648644,16.6870069 C5.17772024,16.6870069 5.50307739,16.4118496 5.56544694,16.0352934 L5.65833126,15.477988 C6.44838553,15.7474533 7.29655676,15.9073875 8.18600345,15.9073875 C8.72747328,15.9073875 9.25357057,15.8622803 9.76199155,15.7810042 L10.0787119,16.3078562 C10.219823,16.5433012 10.4727487,16.6870069 10.7471747,16.6870069 L12.47391,16.6870069 C12.9658499,16.6870069 13.3341958,16.2377021 13.2383027,15.7551185 L13.0053306,14.5887346 C13.7864803,14.0943421 14.4232578,13.4816837 14.8706307,12.78891 L15.7629293,12.78891 C16.1207746,12.78891 16.4331704,12.5458146 16.5197081,12.1981051 L16.9765168,10.3708722 C17.0755284,9.97560439 16.8531053,9.57066541 16.4664141,9.44202821 L15.3776874,9.0796276 C15.1670116,8.39452148 14.8024616,7.72649916 14.2965752,7.11535179 C14.5807074,6.37707516 14.8127682,5.41327266 14.8127682,4.21309688 Z M13.2535294,8.89081314 C13.6838793,8.89081314 14.0331488,9.24008262 14.0331488,9.67043252 C14.0331488,10.1007824 13.6838793,10.4500519 13.2535294,10.4500519 C12.8231795,10.4500519 12.47391,10.1007824 12.47391,9.67043252 C12.47391,9.24008262 12.8231795,8.89081314 13.2535294,8.89081314 Z" id="Shape" fill="color(display-p3 0.000 0.000 0.000)"></path>
    </g>
</svg>