<?xml version="1.0" encoding="UTF-8"?>
<svg width="24px" height="24px" viewBox="0 0 24 24" version="1.1" xmlns="http://www.w3.org/2000/svg" xmlns:xlink="http://www.w3.org/1999/xlink">
    <title>Pinch to zoom</title>
    <g id="Pinch-to-zoom" stroke="none" stroke-width="1" fill="none" fill-rule="evenodd">
        <path d="M23.1770919,0.000333607107 C23.1473064,0.00127498281 23.1175969,0.00388112762 23.0881024,0.00813983813 L19.1959812,0.00813983813 C18.9077088,0.00406288059 18.6395723,0.155521717 18.4942464,0.404519796 C18.3489205,0.653517875 18.3489205,0.961477915 18.4942464,1.21047599 C18.6395723,1.45947407 18.9077088,1.61093291 19.1959812,1.60685595 L21.2630366,1.60685595 L18.1999227,4.67002096 C17.5471496,4.23745363 16.7816863,4.00618207 15.998603,4.00493012 C13.7912741,4.00493012 12.0018804,5.79435408 12.0018804,8.0017204 C12.0018804,10.2090867 13.7912741,11.9985107 15.998603,11.9985107 C18.205932,11.9985107 19.9953257,10.2090867 19.9953257,8.0017204 C19.9940739,7.21862387 19.7628063,6.45314754 19.3302463,5.8003633 L22.3933593,2.7371982 L22.3933593,4.80428818 C22.3892824,5.0925654 22.5407387,5.36070642 22.7897326,5.5060348 C23.0387264,5.65136318 23.3466813,5.65136318 23.5956751,5.5060348 C23.844669,5.36070642 23.9961253,5.0925654 23.9920484,4.80428818 L23.9920484,0.908978878 C24.0242699,0.676036655 23.9522978,0.440722734 23.795286,0.265660522 C23.6382741,0.0905983108 23.4121502,-0.00645335296 23.1770919,0.000333607107 L23.1770919,0.000333607107 Z M8.00515769,11.9985107 C5.7978287,11.9985107 4.00843501,13.7879346 4.00843501,15.995301 C4.00968694,16.7783975 4.24095459,17.5438737 4.67351461,18.1966579 L1.61040141,21.2598236 L1.61040141,19.1927332 C1.61336015,18.9766664 1.52872704,18.7686045 1.37578606,18.615955 C1.22284508,18.4633055 1.01462411,18.3790716 0.798567115,18.3824463 C0.357715657,18.3893376 0.00567511298,18.7518618 0.0117123385,19.1927332 L0.0117123385,23.0677461 C-0.0312586567,23.3228246 0.0518440278,23.5829305 0.234750209,23.7658398 C0.417656391,23.9487491 0.67775785,24.0318532 0.932832057,23.9888815 L4.80777955,23.9888815 C5.0960519,23.9929585 5.36418838,23.8414997 5.5095143,23.5925016 C5.65484022,23.3435035 5.65484022,23.0355435 5.5095143,22.7865454 C5.36418838,22.5375473 5.0960519,22.3860885 4.80777955,22.3901654 L2.74072454,22.3901654 L5.80383782,19.3270006 C6.45661102,19.7595679 7.2220744,19.9908394 8.00515769,19.9920913 C10.2124867,19.9920913 12.0018804,18.2026673 12.0018804,15.995301 C12.0018804,13.7879346 10.2124867,11.9985107 8.00515769,11.9985107 Z" id="Shape" fill="#000000" fill-rule="nonzero"></path>
    </g>
</svg>