<?xml version="1.0" encoding="UTF-8"?>
<svg width="17px" height="17px" viewBox="0 0 17 17" version="1.1" xmlns="http://www.w3.org/2000/svg" xmlns:xlink="http://www.w3.org/1999/xlink">
    <title>plant</title>
    <g id="plant" stroke="none" fill="none" fill-rule="nonzero">
        <path d="M2.15543623,2.3 C2.30276957,3.15566667 3.0557279,7.25833333 5.6971029,7.25833333 C6.35197598,7.25833333 6.96519778,7.08117463 7.37662725,6.81977541 C7.48120133,7.01440805 7.58763621,7.31175513 7.65747079,7.67475613 C7.81545038,8.49593475 7.82210304,9.52358333 7.82210304,10.0916667 L5.66666667,10.0916667 L5.66666667,8.675 L0,8.675 L0,9.38333333 L0,10.0916667 L0,11.5083333 L1.41666667,11.5083333 C1.41666667,11.84125 1.94791667,12.2166667 2.65625,12.2166667 C3.36458333,12.2166667 4.25,11.84125 4.25,11.5083333 L5.66666667,11.5083333 C5.66666667,11.84125 5.84375,12.2166667 6.55208333,12.2166667 C7.26041667,12.2166667 7.79166667,11.84125 7.79166667,11.5083333 L9.20833333,11.5083333 C9.20833333,11.84125 9.91666667,12.2166667 10.625,12.2166667 C11.3333333,12.2166667 12.0416667,11.84125 12.0416667,11.5083333 L12.75,11.5083333 L13.4583333,11.5083333 C13.4583333,11.84125 13.6354167,12.2166667 14.34375,12.2166667 C15.0520833,12.2166667 15.5833333,11.84125 15.5833333,11.5083333 L17,11.5083333 L17,10.0916667 L17,9.38333333 L17,8.675 L11.3333333,8.675 L11.3333333,10.0916667 L9.23876971,10.0916667 L9.23876971,8.675 C9.23579683,8.64156313 9.22563933,8.58615092 9.22216779,8.55048846 C9.29309604,7.86614708 9.92938904,7.18948567 10.6803385,6.68142905 C11.0197528,7.00267203 11.5383491,7.25833333 12.072103,7.25833333 C14.1262697,7.25833333 15.6137697,3.657875 15.6137697,3.00833333 L12.072103,3.00833333 C10.8211864,3.00833333 9.94710304,3.5144375 9.94710304,4.8234375 C10.6150614,4.4111875 11.6878209,4.3665846 12.4414875,4.4388346 C12.4063556,4.44506 12.3816525,4.45063728 12.3474124,4.45681968 C11.8426094,4.5085851 11.1878062,4.64835089 10.5143229,4.90091146 C10.3085974,4.97327876 10.1176052,5.04829778 9.94710304,5.13333333 C9.94881296,5.13544523 9.94958504,5.13811395 9.95125317,5.14025063 C9.49573604,5.35987321 9.061034,5.63036056 8.70613633,5.97309572 C7.83664867,4.22333509 6.09625907,3.99600167 4.98876957,3.71666667 C6.12776957,3.74216667 7.79235304,4.189125 8.53043638,5.13333333 C8.53043638,3.45104167 7.30572804,2.3 5.6971029,2.3 L2.15543623,2.3 Z M0,12.925 C0,14.117125 1.166625,15.05 2.65625,15.05 C3.43683333,15.05 4.1225,14.7899531 4.60416667,14.3748698 C5.08583333,14.7899531 5.77220833,15.05 6.55208333,15.05 C7.33195833,15.05 8.01833333,14.7899531 8.5,14.3748698 C8.98166667,14.7899531 9.66804167,15.05 10.4479167,15.05 C11.2277917,15.05 11.9141667,14.7899531 12.3958333,14.3748698 C12.8775,14.7899531 13.563875,15.05 14.34375,15.05 C15.833375,15.05 17,14.117125 17,12.925 L16.3345541,12.925 L15.5833333,12.925 C15.5833333,12.9917016 15.5567772,13.05998 15.5169271,13.1269855 C15.511497,13.1361095 15.5078193,13.145604 15.5017092,13.1546551 C15.4829483,13.1823814 15.4491134,13.206746 15.4242353,13.2335125 C15.3775717,13.2836221 15.3270753,13.3333152 15.2609864,13.3773927 C15.2244357,13.4017636 15.1797037,13.4219993 15.1378583,13.4437989 C15.0644558,13.4817904 14.9861736,13.5157259 14.8985188,13.5434083 C14.8524778,13.5580495 14.8027578,13.5695529 14.7532552,13.5807615 C14.624425,13.6093605 14.4912668,13.6333333 14.34375,13.6333333 C14.2418272,13.6333333 14.1535476,13.6240145 14.0725915,13.6098145 C13.9723276,13.5915353 13.8868736,13.564093 13.8152667,13.5281898 C13.8027108,13.5219826 13.7882807,13.5168692 13.7765301,13.5102052 C13.7095721,13.4717724 13.6591883,13.4236447 13.616048,13.3732418 C13.5787819,13.3296652 13.5524857,13.2814822 13.5302731,13.2321291 C13.5190842,13.2073084 13.5021947,13.1844561 13.4943032,13.1588053 C13.4708857,13.082092 13.4583333,13.0026128 13.4583333,12.925 L12.0416667,12.925 C12.0416667,12.9727112 12.0236318,13.0199974 11.9973958,13.0674968 C11.9893116,13.0821338 11.9772735,13.0972355 11.9669595,13.1117677 C11.9472968,13.1393225 11.923523,13.16665 11.8964031,13.1933918 C11.826895,13.2623126 11.7344405,13.3284511 11.6252439,13.387077 C11.5989612,13.4011445 11.5689108,13.4125628 11.540853,13.4258136 C11.4506277,13.4681599 11.3496611,13.5027847 11.2447917,13.533724 C11.1522918,13.5584901 11.0559188,13.5783022 10.9570312,13.5932126 C10.9262627,13.5980583 10.8955019,13.6006933 10.8643395,13.6042803 C10.7643965,13.6158729 10.663624,13.6243609 10.5585938,13.6250324 C10.5072396,13.6233331 10.4586167,13.6123773 10.407796,13.6070478 C10.2925345,13.5959043 10.1768758,13.5835042 10.0688478,13.5558594 C9.99336854,13.5361217 9.92926225,13.5071891 9.85994475,13.4811522 C9.78279096,13.4523988 9.69980688,13.4276518 9.63305638,13.3926105 C9.563503,13.3558721 9.51638183,13.3123755 9.46150725,13.2708657 C9.41604713,13.2365902 9.35790217,13.2047839 9.32454392,13.1684896 C9.25175488,13.0888141 9.20833333,13.0058903 9.20833333,12.925 L7.79166667,12.925 C7.79166667,12.9917016 7.76511054,13.05998 7.72526042,13.1269855 C7.71982467,13.1361095 7.71615833,13.145604 7.71004258,13.1546551 C7.69128167,13.1823814 7.65744671,13.206746 7.63256863,13.2335125 C7.58586821,13.2836221 7.53543983,13.3333152 7.46931975,13.3773927 C7.43276904,13.4017636 7.38803708,13.4219993 7.34619158,13.4437989 C7.27276929,13.4817904 7.19449704,13.5157259 7.10685212,13.5434083 C7.06081088,13.5580495 7.01109148,13.5695529 6.96158854,13.5807615 C6.83280193,13.6093605 6.69945272,13.6333333 6.55208333,13.6333333 C6.45026205,13.6333333 6.36183145,13.6240145 6.28092448,13.6098145 C6.18066117,13.5915353 6.09520678,13.564093 6.02360022,13.5281898 C6.01104438,13.5219826 5.99661471,13.5168692 5.98486332,13.5102052 C5.91790556,13.4717724 5.86752167,13.4236447 5.82438147,13.3732418 C5.7870844,13.3296652 5.76085517,13.2814822 5.73860677,13.2321291 C5.72741765,13.2073084 5.71052815,13.1844561 5.70263668,13.1588053 C5.6791696,13.082092 5.66666667,13.0026128 5.66666667,12.925 L4.25,12.925 C4.25,12.9635971 4.2359801,13.0021935 4.21402998,13.0412106 C4.2054272,13.0565127 4.19106879,13.0716363 4.17944334,13.0868655 C4.1619514,13.1097503 4.14372322,13.1335326 4.11995439,13.1560385 C4.09205187,13.1824367 4.04479732,13.2052429 4.00927731,13.2307457 C3.93598641,13.2831865 3.85748912,13.3357065 3.75887042,13.3815428 C3.71407415,13.4024351 3.66357445,13.4192424 3.61499022,13.4382647 C3.50573086,13.480565 3.39166745,13.519121 3.27050781,13.5489418 C3.22749087,13.5597347 3.18410595,13.5676829 3.14046227,13.5766114 C2.97806113,13.6086748 2.81293716,13.6333333 2.65625,13.6333333 C2.50888061,13.6333333 2.37553141,13.6093605 2.24674479,13.5807615 C2.19724185,13.5695529 2.14752245,13.5580495 2.10148114,13.5434083 C2.0138365,13.5157259 1.93556383,13.4817904 1.86214189,13.4437989 C1.82029653,13.4219993 1.77556436,13.4017636 1.73901365,13.3773927 C1.67289343,13.3333152 1.62246527,13.2836221 1.57576499,13.2335125 C1.55088691,13.206746 1.51705181,13.1823814 1.49829103,13.1546551 C1.49217472,13.145604 1.48850838,13.1361095 1.48307292,13.1269855 C1.44322244,13.05998 1.41666667,12.9917016 1.41666667,12.925 L0,12.925 Z M11.2323406,13.5378741 C11.1790222,13.5532541 11.1290663,13.566269 11.0732418,13.5779948 C11.1270943,13.5658922 11.1813824,13.5544767 11.2323406,13.5378741 Z" id="Shape" fill="color(display-p3 0.000 0.000 0.000)"></path>
    </g>
</svg>