<?xml version="1.0" encoding="UTF-8"?>
<svg width="17px" height="17px" viewBox="0 0 17 17" version="1.1" xmlns="http://www.w3.org/2000/svg" xmlns:xlink="http://www.w3.org/1999/xlink">
    <title>Podium</title>
    <g id="Podium" stroke="none" fill="none" fill-rule="nonzero">
        <path d="M4.73412469,12.2126566 C4.73329043,11.8810388 4.46466851,11.6124169 4.13305068,11.6115819 L1.24910974,11.6115819 C0.916444881,11.6110783 0.646171564,11.8799934 0.645,12.2126566 L0.645,14.33463 L4.73412469,14.33463 L4.73412469,12.2126566 Z M12.2627277,9.46532339 L12.2627277,14.33463 L16.3518532,14.33463 L16.3518532,9.46532339 C16.3519337,9.30507884 16.2883125,9.15137434 16.1750025,9.03806431 C16.0616924,8.92475429 15.9079879,8.86113307 15.7477434,8.86121358 L12.8638024,8.86121358 C12.5311393,8.86238522 12.2622241,9.13265854 12.2627277,9.46532339 L12.2627277,9.46532339 Z M15.7477434,16.9999993 C16.0804082,17.0005029 16.3506816,16.7315878 16.3518531,16.3989246 L16.3518531,14.9417755 L12.2627284,14.9417755 L12.2627284,16.3989246 C12.2633965,16.7306115 12.5321155,16.9993305 12.8638024,16.9999993 L15.7477434,16.9999993 Z M10.5445068,6.71799018 C10.5445874,6.55774562 10.4809661,6.40404112 10.3676561,6.29073109 C10.2543461,6.17742107 10.1006416,6.11388036 9.94039703,6.11388036 L7.05645609,6.11388036 C6.89621153,6.11388036 6.74250703,6.17742107 6.629197,6.29073109 C6.51588698,6.40404112 6.45226576,6.55774562 6.45234627,6.71799018 L6.45234627,14.33463 L10.5445068,14.33463 L10.5445068,6.71799018 Z M6.45234635,16.3989246 C6.45351791,16.7315878 6.72379123,17.0005029 7.05645609,16.9999993 L9.94039703,16.9999993 C10.2730619,17.0005029 10.5433352,16.7315878 10.5445068,16.3989246 L10.5445068,14.9417755 L6.45234635,14.9417755 L6.45234635,16.3989246 Z M10.7995079,1.67261138 C10.7169709,1.40412543 10.4671482,1.22232374 10.1862909,1.22635947 L9.39396612,1.22635947 C9.37755718,1.22507453 9.36336543,1.21443071 9.35753739,1.19903792 L9.11164348,0.446177547 C9.02563025,0.180202734 8.77796345,0 8.49842656,0 C8.21888966,0 7.97122286,0.180202734 7.88520964,0.446177547 L7.63931573,1.19903792 C7.63348769,1.21443071 7.61929593,1.22507453 7.602887,1.22635947 L6.81056217,1.22635947 C6.53109491,1.22719533 6.28379116,1.40747955 6.1974894,1.67328898 C6.11118764,1.93909841 6.20542091,2.23027127 6.43109626,2.39511448 L7.07163472,2.85958076 C7.08401268,2.86995671 7.08981788,2.88621125 7.08681336,2.90208094 L6.84091945,3.65494132 C6.75198739,3.92164117 6.84816854,4.21511698 7.07770618,4.37744442 C7.18805519,4.45761671 7.3207759,4.5011491 7.45717209,4.50190924 C7.59349234,4.50068474 7.72607515,4.45719758 7.836638,4.37744442 L8.47414074,3.91297814 C8.48906085,3.9039075 8.50779227,3.9039075 8.52271238,3.91297814 L9.16021511,4.37744442 C9.38689563,4.54161609 9.69342172,4.54147873 9.91995501,4.37710397 C10.1464883,4.2127292 10.2416967,3.92136409 10.1559337,3.65494132 L9.91003976,2.90208094 C9.90703524,2.88621125 9.91284044,2.86995671 9.9252184,2.85958076 L10.5657569,2.39511448 C10.7945117,2.2322048 10.8894881,1.93864123 10.7995079,1.67261138 L10.7995079,1.67261138 Z M1.24910974,16.9999993 L4.13305068,16.9999993 C4.46473758,16.9993305 4.73345664,16.7306115 4.73412469,16.3989246 L4.73412469,14.9417755 L0.645,14.9417755 L0.645,16.3989246 C0.646171564,16.7315878 0.916444881,17.0005029 1.24910974,16.9999993 Z" id="Shape" fill="color(display-p3 0.000 0.000 0.000)"></path>
    </g>
</svg>