<?xml version="1.0" encoding="UTF-8"?>
<svg width="17px" height="17px" viewBox="0 0 17 17" version="1.1" xmlns="http://www.w3.org/2000/svg" xmlns:xlink="http://www.w3.org/1999/xlink">
    <title>postal_code</title>
    <g id="postal_code" stroke="none" fill="none" fill-rule="nonzero">
        <path d="M13.5227273,1.45 C11.6025,1.45 10.0454545,3.00704545 10.0454545,4.92727273 C10.0454545,6.91086364 12.0565615,9.39729445 13.0201524,10.4737035 C13.2890615,10.7742945 13.756393,10.7742945 14.0253021,10.4737035 C14.9881203,9.39729445 17,6.91086364 17,4.92727273 C17,3.00704545 15.4429545,1.45 13.5227273,1.45 Z M1.54545455,2.99545455 C1.03004545,2.99545455 0.575536932,3.24893328 0.295809659,3.63838775 C0.108036932,3.89956964 0.192071023,4.26828125 0.46484375,4.43828125 L7.25488291,8.67017045 C7.54620109,8.85176136 7.914418,8.85028855 8.20419073,8.66715218 L9.00106573,8.16457732 C9.20042936,8.03862277 9.26900891,7.78549432 9.17009982,7.57144886 C8.76518995,6.69672159 8.5,5.79813636 8.5,4.92727273 C8.5,4.43890909 8.57087377,3.96579476 8.70223741,3.5191584 C8.77951014,3.2556584 8.57057164,2.99545455 8.29625345,2.99545455 L1.54545455,2.99545455 Z M13.5227273,3.76818182 C14.1625455,3.76818182 14.6818182,4.28745455 14.6818182,4.92727273 C14.6818182,5.56709091 14.1625455,6.08636364 13.5227273,6.08636364 C12.8829091,6.08636364 12.3636364,5.56709091 12.3636364,4.92727273 C12.3636364,4.28745455 12.8829091,3.76818182 13.5227273,3.76818182 Z M0.372780559,6.20105848 C0.179357264,6.19987001 -3.63797881e-12,6.35500706 -3.63797881e-12,6.57233661 L-3.63797881e-12,13.8136364 C-3.63797881e-12,14.6675 0.691590909,15.3590909 1.54545455,15.3590909 L13.9090909,15.3590909 C14.7629545,15.3590909 15.4545455,14.6675 15.4545455,13.8136364 L15.4545455,12.2681818 C15.4545455,12.2681818 15.4545455,11.4961307 14.6818182,11.9180398 C14.3364091,12.129767 13.9353636,12.2455432 13.5227273,12.2455432 C12.8921818,12.2455432 12.2897443,11.975101 11.868608,11.5045101 C11.3678807,10.9450556 10.8364375,10.2976307 10.3473011,9.59985795 C10.2043466,9.39663068 9.93115118,9.33715464 9.72096936,9.47006373 L8.20419073,10.4254081 C7.914418,10.6085445 7.54542836,10.610018 7.25488291,10.4284271 L0.564453164,6.25841615 C0.503021345,6.22016615 0.437254991,6.20146376 0.372780559,6.20105848 Z" id="Shape" fill="color(display-p3 0.000 0.000 0.000)"></path>
    </g>
</svg>