<?xml version="1.0" encoding="UTF-8"?>
<svg width="17px" height="17px" viewBox="0 0 17 17" version="1.1" xmlns="http://www.w3.org/2000/svg" xmlns:xlink="http://www.w3.org/1999/xlink">
    <title>Press</title>
    <g id="Press" stroke="none" fill="none" fill-rule="nonzero">
        <path d="M12.752627,4.85844374 L4.25353766,4.85844374 C2.23803932,4.85844374 0.611070778,6.48541228 0.611070778,8.49483984 L0.605,13.9706817 C0.605,14.6384673 1.14529925,15.7919152 1.81915563,15.7919152 L2.43230422,15.7919152 L2.43230422,16.3929222 C2.43230422,16.726815 2.70548923,17 3.03938203,17 L3.64645984,17 C3.98035264,17 4.25353766,16.726815 4.25353766,16.3929222 L4.25353766,15.7919152 L12.752627,15.7919152 L12.752627,16.3929222 C12.752627,16.726815 13.0258121,17 13.3597049,17 L13.9667827,17 C14.3006755,17 14.5738605,16.726815 14.5738605,16.3929222 L14.5738605,15.7919152 L15.1748675,15.7919152 C15.272,15.7919152 15.3691324,15.7737028 15.4601941,15.7494197 C15.8972901,15.6765704 16.1340505,15.43981 16.2493952,15.1241296 C16.3343861,14.9602185 16.3890231,14.1649466 16.3890231,13.9706817 L16.3890231,12.7504553 L16.3950939,12.7504553 L16.3950939,8.50091062 C16.3950939,6.48541228 14.7620546,4.85844374 12.752627,4.85844374 Z M3.9075033,12.4408456 C3.37327483,11.8944756 3.03938203,11.1477699 3.03938203,10.3221441 C3.03938203,9.49651823 3.37327483,8.74981252 3.9075033,8.19737171 L3.9075033,12.4408456 Z M13.6632438,7.28675499 C14.1671183,7.28675499 14.5738605,7.69349713 14.5738605,8.19737171 C14.5738605,8.7012463 14.1671183,9.10798843 13.6632438,9.10798843 C13.1593692,9.10798843 12.752627,8.7012463 12.752627,8.19737171 C12.752627,7.69349713 13.1593692,7.28675499 13.6632438,7.28675499 Z M5.64374585,13.3089669 C5.33413616,13.2664714 5.04273881,13.1814806 4.77562458,13.0539942 L4.77562458,7.5902939 C5.04273881,7.45673678 5.33413616,7.37174588 5.64374585,7.32925044 L5.64374585,13.3089669 Z M7.37391762,13.0539942 C7.10680338,13.1814806 6.81540603,13.2664714 6.50579634,13.3089669 L6.50579634,7.32925044 C6.81540603,7.37174588 7.10680338,7.45673678 7.37391762,7.5902939 L7.37391762,13.0539942 Z M8.24203889,12.4408456 L8.24203889,8.19737171 C8.77626736,8.74981252 9.11016016,9.49651823 9.11016016,10.3221441 C9.11016016,11.1477699 8.77626736,11.8944756 8.24203889,12.4408456 Z M13.6632438,13.3575331 C12.8254764,13.3575331 12.1455492,12.677606 12.1455492,11.8398386 C12.1455492,11.0020712 12.8254764,10.3221441 13.6632438,10.3221441 C14.5010111,10.3221441 15.1809383,11.0020712 15.1809383,11.8398386 C15.1809383,12.677606 14.5010111,13.3575331 13.6632438,13.3575331 Z M6.0747711,3.03538907 C6.40987805,3.03538907 6.68184891,2.76341821 6.68184891,2.42831125 L6.68184891,0.607077813 C6.68184891,0.27197086 6.40987805,0 6.0747711,0 C5.73966414,0 5.46769328,0.27197086 5.46769328,0.607077813 L5.46769328,2.42831125 C5.46769328,2.76341821 5.73905707,3.03538907 6.0747711,3.03538907 Z M3.64645984,3.03538907 C3.9815668,3.03538907 4.25353766,2.76341821 4.25353766,2.42831125 L3.64645984,0.607077813 C3.64645984,0.27197086 3.37448898,0 3.03938203,0 C2.70427508,0 2.43230422,0.27197086 2.43230422,0.607077813 L3.03938203,2.42831125 C3.03938203,2.76341821 3.31074581,3.03538907 3.64645984,3.03538907 Z M8.50308235,3.03538907 C8.8381893,3.03538907 9.11016016,2.76341821 9.11016016,2.42831125 L9.71723797,0.607077813 C9.71723797,0.27197086 9.44526711,0 9.11016016,0 C8.77505321,0 8.50308235,0.27197086 8.50308235,0.607077813 L7.89600454,2.42831125 C7.89600454,2.76341821 8.16736832,3.03538907 8.50308235,3.03538907 Z" id="Shape" fill="color(display-p3 0.000 0.000 0.000)"></path>
    </g>
</svg>