<?xml version="1.0" encoding="UTF-8"?>
<svg width="20px" height="20px" viewBox="0 0 20 20" version="1.1" xmlns="http://www.w3.org/2000/svg" xmlns:xlink="http://www.w3.org/1999/xlink">
    <title>Price tag - dollar</title>
    <g id="Price-tag---dollar" stroke="none" fill="none">
        <path d="M9.72043422,1.8 C10.0851172,1.80087605 10.4343293,1.94744637 10.690395,2.20710929 L19.3880494,11.0598028 C19.7892651,11.4714752 19.7869199,12.1286215 19.382776,12.5374196 L12.425004,19.4923791 C12.228942,19.6899515 11.9619014,19.8007436 11.6835588,19.8 C11.4000992,19.7996068 11.1317468,19.6864629 10.9357855,19.486051 L2.23953734,10.6347638 C1.9892314,10.3809167 1.84924355,10.0385276 1.85000307,9.6820296 L1.85000307,3.1594919 C1.8509759,2.40851824 2.45993006,1.80019332 3.21090433,1.8 Z M7.88645898,7.19668167 C7.70903946,7.37410119 7.70903946,7.6620865 7.88645898,7.83950601 L8.38496926,8.3380163 C7.99059652,8.83845505 7.78874968,9.34500063 7.78553556,9.85797446 C7.78232144,10.3825191 7.98384687,10.8482454 8.39075468,11.2551532 C8.79027001,11.6546685 9.25438919,11.8494443 9.78311221,11.8394805 C10.3115138,11.8291953 10.9508026,11.6109565 11.7003358,11.1841211 C12.2496292,10.8881005 12.6912496,10.7293229 13.0258396,10.7071454 C13.3601083,10.6859322 13.6416654,10.7887841 13.869868,11.0169868 C14.140497,11.2876158 14.2500986,11.6048496 14.1993155,11.9680454 C14.1482109,12.3315625 13.9418643,12.6941155 13.5799542,13.0560256 C13.2100088,13.425971 12.7912087,13.6589948 12.4035857,13.6744226 C12.1429204,13.6850292 11.8922189,13.6136757 11.6508384,13.4610049 C11.6418388,13.4552195 11.5428439,13.4031507 11.4949534,13.3886872 C11.3130342,13.3327615 11.1047591,13.3809733 10.960445,13.5252874 C10.7492772,13.7351695 10.7492772,14.0771521 10.9601236,14.2879984 C11.0526903,14.3805652 11.2301098,14.465418 11.2828214,14.4898453 C11.5528076,14.615196 11.8497925,14.67755 12.1416347,14.6756215 C12.7047489,14.6711218 13.2971115,14.4008141 13.8393338,13.953087 L14.2343494,14.3481025 C14.4117689,14.525522 14.6994328,14.5258435 14.8768523,14.3484239 C15.0542719,14.1710044 15.0542719,13.8830191 14.8768523,13.7055996 L14.4879436,13.3166909 L14.4956575,13.3083341 C14.9536698,12.7558266 15.1956932,12.2116758 15.2201205,11.6755603 C15.2448693,11.1397662 15.0478436,10.6618263 14.6287221,10.2427048 C14.365807,9.97978968 14.0797501,9.8062271 13.7721587,9.7216957 C13.4645672,9.63780712 13.1184063,9.64005701 12.7349616,9.72844536 C12.3508741,9.8168337 11.8867549,10.0103238 11.3426041,10.3082729 C10.7987747,10.6065434 10.3597257,10.7723921 10.025457,10.8051761 C9.69150974,10.8389244 9.39741761,10.72868 9.1438234,10.4750858 C8.87062305,10.2018855 8.74430807,9.90136511 8.76584269,9.57448893 C8.78673448,9.24761275 8.96190411,8.92009374 9.29038735,8.5916105 C9.60504987,8.27694798 9.95860326,8.12974121 10.3500833,8.15159723 C10.5336096,8.16156101 10.7123148,8.20784437 10.8868416,8.28980447 C10.9736229,8.33094523 11.1626133,8.43765407 11.1712914,8.44183243 C11.4293854,8.57071871 11.6524454,8.57329001 11.8427214,8.383014 C12.052925,8.17281044 12.0902088,7.86939735 11.8427214,7.62190997 C11.7961167,7.57530521 11.7369768,7.53609292 11.7019429,7.51327266 C11.3561034,7.28314154 11.0012644,7.15650515 10.6364615,7.13368488 C10.0855611,7.09961519 9.54944556,7.28539143 9.02843643,7.69262065 L8.52928333,7.19668167 C8.35186381,7.01926215 8.0638785,7.01926215 7.88645898,7.19668167 Z M2.60094352,9.90281081 L2.24059203,10.2635139 L2.6132482,10.63617 L2.97395125,10.2758185 L2.60094352,9.90281081 Z M3.9372323,8.56722515 L3.26926369,9.23519376 L3.64227143,9.6082015 L4.31024004,8.94023288 L3.9372323,8.56722515 Z M5.27281796,7.23163949 L4.60484935,7.8996081 L4.97820865,8.27226427 L5.64547413,7.60429566 L5.27281796,7.23163949 Z M6.60875518,5.89570227 L5.94078657,6.56367088 L6.31379431,6.93667862 L6.98141135,6.26835844 L6.60875518,5.89570227 Z M4.64598215,3.4832809 C3.9398129,3.4832809 3.36734961,4.05574419 3.36734961,4.76191344 C3.36734961,5.4680827 3.9398129,6.04054599 4.64598215,6.04054599 C5.35175297,6.04031598 5.92403313,5.46803583 5.9246147,4.76191344 C5.9246147,4.05574419 5.35215141,3.4832809 4.64598215,3.4832809 Z M7.94398928,4.56046817 L7.27602067,5.22843678 L7.6490284,5.60109296 L8.31699701,4.93312435 L7.94398928,4.56046817 Z M9.27922337,3.22523408 L8.61160633,3.89285113 L8.9842625,4.26621042 L9.65223111,3.59824181 L9.27922337,3.22523408 Z M10.3068403,2.19867179 L9.94719198,2.55726547 L10.3201997,2.9302732 L10.6805512,2.56992171 L10.3068403,2.19867179 Z" id="Shape" fill="color(display-p3 0.000 0.000 0.000)" fill-rule="nonzero"></path>
        <path d="M-0.195836944,2.00416306 L5.00416306,2.00416306 C5.22507696,2.00416306 5.40416306,2.18324916 5.40416306,2.40416306 C5.40416306,2.62507696 5.22507696,2.80416306 5.00416306,2.80416306 L-0.195836944,2.80416306 C-0.416750844,2.80416306 -0.595836944,2.62507696 -0.595836944,2.40416306 C-0.595836944,2.18324916 -0.416750844,2.00416306 -0.195836944,2.00416306 Z" id="Rectangle-2" fill="color(display-p3 0.000 0.000 0.000)" fill-rule="evenodd" transform="translate(2.4042, 2.4042) rotate(45) translate(-2.4042, -2.4042)"></path>
    </g>
</svg>