<?xml version="1.0" encoding="UTF-8"?>
<svg width="17px" height="17px" viewBox="0 0 17 17" version="1.1" xmlns="http://www.w3.org/2000/svg" xmlns:xlink="http://www.w3.org/1999/xlink">
    <title>Price receipt Add</title>
    <g id="Price-receipt-Add" stroke="none" fill="none" fill-rule="nonzero">
        <path d="M1.36666667,3.33 C1.36666667,3.7072 1.6728,4.01333333 2.05,4.01333333 C2.4272,4.01333333 2.73333333,3.7072 2.73333333,3.33 L4.1,3.33 C4.1,3.7072 4.40613333,4.01333333 4.78333333,4.01333333 C5.16053333,4.01333333 5.46666667,3.7072 5.46666667,3.33 L6.83333333,3.33 C6.83333333,3.7072 7.13946667,4.01333333 7.51666667,4.01333333 C7.89386667,4.01333333 8.2,3.7072 8.2,3.33 L10.0211808,3.32937706 C10.1664877,4.82864527 11.0476334,6.11268478 12.2989241,6.81580164 L12.3,15.63 C12.3,16.3850833 11.6884167,16.9966667 10.9333333,16.9966667 L1.36666667,16.9966667 C0.611583333,16.9966667 -3.64153152e-13,16.3850833 -3.64153152e-13,15.63 L-3.64153152e-13,3.33 Z M7.01666667,12.8966667 L2.55,12.8966667 C2.27385763,12.8966667 2.05,13.1205243 2.05,13.3966667 L2.05,13.7633333 C2.05,14.0394757 2.27385763,14.2633333 2.55,14.2633333 L7.01666667,14.2633333 C7.29280904,14.2633333 7.51666667,14.0394757 7.51666667,13.7633333 L7.51666667,13.3966667 C7.51666667,13.1205243 7.29280904,12.8966667 7.01666667,12.8966667 Z M9.75,12.8966667 L9.38333333,12.8966667 C9.10719096,12.8966667 8.88333333,13.1205243 8.88333333,13.3966667 L8.88333333,13.7633333 C8.88333333,14.0394757 9.10719096,14.2633333 9.38333333,14.2633333 L9.75,14.2633333 C10.0261424,14.2633333 10.25,14.0394757 10.25,13.7633333 L10.25,13.3966667 C10.25,13.1205243 10.0261424,12.8966667 9.75,12.8966667 Z M7.01666667,10.1633333 L2.55,10.1633333 C2.27385763,10.1633333 2.05,10.387191 2.05,10.6633333 L2.05,11.03 C2.05,11.3061424 2.27385763,11.53 2.55,11.53 L7.01666667,11.53 C7.29280904,11.53 7.51666667,11.3061424 7.51666667,11.03 L7.51666667,10.6633333 C7.51666667,10.387191 7.29280904,10.1633333 7.01666667,10.1633333 Z M9.75,10.1633333 L9.38333333,10.1633333 C9.10719096,10.1633333 8.88333333,10.387191 8.88333333,10.6633333 L8.88333333,11.03 C8.88333333,11.3061424 9.10719096,11.53 9.38333333,11.53 L9.75,11.53 C10.0261424,11.53 10.25,11.3061424 10.25,11.03 L10.25,10.6633333 C10.25,10.387191 10.0261424,10.1633333 9.75,10.1633333 Z M9.75,6.74666667 L2.55,6.74666667 C2.27385763,6.74666667 2.05,6.97052429 2.05,7.24666667 L2.05,7.61333333 C2.05,7.88947571 2.27385763,8.11333333 2.55,8.11333333 L9.75,8.11333333 C10.0261424,8.11333333 10.25,7.88947571 10.25,7.61333333 L10.25,7.24666667 C10.25,6.97052429 10.0261424,6.74666667 9.75,6.74666667 Z" id="Shape" fill="color(display-p3 0.000 0.000 0.000)"></path>
        <path d="M14,0 C15.65675,0 17,1.34325 17,3 C17,4.65675 15.65675,6 14,6 C12.34325,6 11,4.65675 11,3 C11,1.34325 12.34325,0 14,0 Z M14.0001364,1.18458108 C13.8495151,1.18438822 13.7274366,1.30646667 13.7274366,1.4572808 L13.7274366,2.72743664 L12.4572808,2.72743664 C12.3066595,2.72724379 12.1845811,2.84932223 12.1845811,3.00013636 C12.1843882,3.15075764 12.3064667,3.27283609 12.4572808,3.27283609 L13.7274366,3.27283609 L13.7274366,4.54299193 C13.7272438,4.69361321 13.8493222,4.81569165 14.0001364,4.81569165 C14.1507576,4.81588451 14.2728361,4.69380606 14.2728361,4.54299193 L14.2728361,3.27283609 L15.5429919,3.27283609 C15.6936132,3.27302894 15.8156917,3.1509505 15.8156917,3.00013636 C15.8158845,2.84951509 15.6938061,2.72743664 15.5429919,2.72743664 L14.2728361,2.72743664 L14.2728361,1.4572808 C14.2730289,1.30665952 14.1509505,1.18458108 14.0001364,1.18458108 Z" id="Shape" fill="color(display-p3 0.000 0.000 0.000)"></path>
    </g>
</svg>