<?xml version="1.0" encoding="UTF-8"?>
<svg width="17px" height="17px" viewBox="0 0 17 17" version="1.1" xmlns="http://www.w3.org/2000/svg" xmlns:xlink="http://www.w3.org/1999/xlink">
    <title>Price receipt</title>
    <g id="Price-receipt" stroke="none" fill="none" fill-rule="nonzero">
        <path d="M14.45,0 C14.45,0.4692 14.0692,0.85 13.6,0.85 C13.1308,0.85 12.75,0.4692 12.75,0 L11.05,0 C11.05,0.4692 10.6692,0.85 10.2,0.85 C9.7308,0.85 9.35,0.4692 9.35,0 L7.65,0 C7.65,0.4692 7.2692,0.85 6.8,0.85 C6.3308,0.85 5.95,0.4692 5.95,0 L4.25,0 C4.25,0.4692 3.8692,0.85 3.4,0.85 C2.9308,0.85 2.55,0.4692 2.55,0 L0.85,0 L0.85,15.3 C0.85,16.23925 1.61075,17 2.55,17 L14.45,17 C15.38925,17 16.15,16.23925 16.15,15.3 L16.15,0 L14.45,0 Z M9.7,13.6 L3.9,13.6 C3.62385763,13.6 3.4,13.3761424 3.4,13.1 L3.4,12.4 C3.4,12.1238576 3.62385763,11.9 3.9,11.9 L9.7,11.9 C9.97614237,11.9 10.2,12.1238576 10.2,12.4 L10.2,13.1 C10.2,13.3761424 9.97614237,13.6 9.7,13.6 Z M9.7,10.2 L3.9,10.2 C3.62385763,10.2 3.4,9.97614237 3.4,9.7 L3.4,9 C3.4,8.72385763 3.62385763,8.5 3.9,8.5 L9.7,8.5 C9.97614237,8.5 10.2,8.72385763 10.2,9 L10.2,9.7 C10.2,9.97614237 9.97614237,10.2 9.7,10.2 Z M13.1,13.6 L12.4,13.6 C12.1238576,13.6 11.9,13.3761424 11.9,13.1 L11.9,12.4 C11.9,12.1238576 12.1238576,11.9 12.4,11.9 L13.1,11.9 C13.3761424,11.9 13.6,12.1238576 13.6,12.4 L13.6,13.1 C13.6,13.3761424 13.3761424,13.6 13.1,13.6 Z M13.1,10.2 L12.4,10.2 C12.1238576,10.2 11.9,9.97614237 11.9,9.7 L11.9,9 C11.9,8.72385763 12.1238576,8.5 12.4,8.5 L13.1,8.5 C13.3761424,8.5 13.6,8.72385763 13.6,9 L13.6,9.7 C13.6,9.97614237 13.3761424,10.2 13.1,10.2 Z M13.1,5.95 L3.9,5.95 C3.62385763,5.95 3.4,5.72614237 3.4,5.45 L3.4,4.75 C3.4,4.47385763 3.62385763,4.25 3.9,4.25 L13.1,4.25 C13.3761424,4.25 13.6,4.47385763 13.6,4.75 L13.6,5.45 C13.6,5.72614237 13.3761424,5.95 13.1,5.95 Z" id="Shape" fill="color(display-p3 0.000 0.000 0.000)"></path>
    </g>
</svg>