<?xml version="1.0" encoding="UTF-8"?>
<svg width="22px" height="22px" viewBox="0 0 22 22" version="1.1" xmlns="http://www.w3.org/2000/svg" xmlns:xlink="http://www.w3.org/1999/xlink">
    <title>Price tag - dollar</title>
    <g id="Price-tag---dollar" stroke="none" fill="none" fill-rule="evenodd" stroke-width="1">
        <g id="price-tag" transform="translate(0.075, -0)" fill="color(display-p3 0.000 0.000 0.000)">
            <path d="M0.682842712,0.117157288 L3.03171988,2.4661616 C3.25122029,2.3383518 3.5064031,2.26512082 3.77867154,2.26505073 L10.8910151,2.26505073 C11.2894696,2.26600791 11.6710203,2.42615134 11.9507989,2.7098603 L21.5611438,12.478371 C21.9460869,12.8696495 21.9436919,13.4980753 21.5557777,13.8864084 L13.7459246,21.7046925 C13.3452081,22.0983806 12.7120683,22.0927285 12.3250457,21.6987337 L2.71735131,11.917956 C2.44386584,11.6406015 2.29091444,11.2665056 2.29162329,10.8769941 L2.29162329,3.75043811 C2.29199531,3.49260835 2.35794632,3.25016799 2.47368402,3.03889685 L0.117157288,0.682842712 C-0.0390524292,0.526632996 -0.0390524292,0.273367004 0.117157288,0.117157288 C0.273367004,-0.0390524292 0.526632996,-0.0390524292 0.682842712,0.117157288 Z M8.91985302,8.81926478 C8.7260036,9.0131142 8.7260036,9.32776833 8.91985302,9.52161774 L9.46452775,10.0662925 C9.0336342,10.6130743 8.81309537,11.1665284 8.8095836,11.7270061 C8.80607184,12.3001261 9.02625949,12.8089808 9.47084892,13.2535702 C9.90736129,13.6900826 10.4144601,13.9028955 10.9921454,13.8920091 C11.5694796,13.8807714 12.2679696,13.6423226 13.0869132,13.1759602 C13.6870738,12.8525267 14.1695903,12.6790455 14.535165,12.6548143 C14.9003885,12.6316367 15.2080191,12.7440132 15.4573544,12.9933485 C15.753045,13.2890391 15.8727962,13.6356502 15.8173103,14.0324797 C15.7614733,14.4296603 15.536018,14.8257873 15.1405932,15.2212121 C14.7363891,15.6254162 14.2788062,15.8800191 13.8552873,15.8968756 C13.5704832,15.9084644 13.2965655,15.8305033 13.032832,15.6636944 C13.022999,15.6573733 12.9148367,15.6004827 12.8625114,15.5846797 C12.6637455,15.523575 12.4361831,15.5762515 12.2785049,15.7339297 C12.047782,15.963248 12.047782,16.3368998 12.2781537,16.5672715 C12.3792926,16.6684104 12.573142,16.7611209 12.6307349,16.7878104 C12.9257232,16.9247692 13.2502102,16.9928974 13.5690785,16.9907904 C14.1843397,16.9858739 14.8315579,16.6905345 15.4239927,16.2013456 L15.8555886,16.6329415 C16.049438,16.8267909 16.3637409,16.8271421 16.5575904,16.6332927 C16.7514398,16.4394433 16.7514398,16.1247892 16.5575904,15.9309397 L16.1326668,15.5060162 L16.141095,15.4968856 C16.6415215,14.8932132 16.9059574,14.2986714 16.9326468,13.7129091 C16.9596874,13.1274979 16.7444162,12.6052984 16.2864821,12.1473643 C15.9992197,11.8601019 15.6866727,11.6704666 15.3505968,11.5781072 C15.0145209,11.4864502 14.6363038,11.4889084 14.2173503,11.5854819 C13.7976944,11.6820555 13.2905955,11.8934637 12.6960537,12.2190043 C12.1018631,12.5448961 11.6221561,12.7261032 11.2569325,12.7619232 C10.8920601,12.7987967 10.5707337,12.6783432 10.2936554,12.4012649 C9.99515541,12.1027649 9.85714305,11.7744149 9.88067188,11.4172684 C9.90349835,11.0601219 10.0948895,10.7022731 10.4537919,10.3433707 C10.7975937,9.99956894 11.1838878,9.83873011 11.6116208,9.86261011 C11.8121425,9.87349658 12.0073967,9.92406599 12.1980855,10.013616 C12.2929031,10.0585666 12.4993949,10.1751572 12.5088767,10.1797225 C12.7908714,10.3205442 13.0345879,10.3233537 13.2424844,10.1154572 C13.4721538,9.88578776 13.5128902,9.55427716 13.2424844,9.28387127 C13.1915638,9.23295068 13.1269473,9.19010714 13.0886691,9.16517361 C12.7108032,8.91373125 12.3231043,8.77536772 11.924519,8.75043419 C11.3226025,8.71320948 10.7368401,8.91618949 10.1675831,9.36113009 L9.62220599,8.81926478 C9.42835657,8.62541536 9.11370244,8.62541536 8.91985302,8.81926478 Z M3.11222544,11.1182207 L2.71850367,11.5123266 L3.12566959,11.9194925 L3.51977548,11.5257708 L3.11222544,11.1182207 Z M4.57226097,9.65895341 L3.84243526,10.3887791 L4.24998531,10.7963292 L4.97981102,10.0665035 L4.57226097,9.65895341 Z M6.03152828,8.19968611 L5.30170257,8.92951182 L5.70963673,9.33667775 L6.4386942,8.60685204 L6.03152828,8.19968611 Z M7.4911797,6.74003469 L6.76135399,7.4698604 L7.16890403,7.87741044 L7.89834562,7.14720062 L7.4911797,6.74003469 Z M5.34664446,4.10421152 C5.14764382,4.10421152 4.95836122,4.14581943 4.78702165,4.22081027 L5.06690476,4.50121933 C5.22311447,4.65742905 5.22311447,4.91069504 5.06690476,5.06690476 C4.91069504,5.22311447 4.65742905,5.22311447 4.50121933,5.06690476 L4.17473659,4.7404558 C4.03233539,4.95935769 3.94960441,5.22064321 3.94960441,5.50125158 C3.94960441,6.2728155 4.57508055,6.89829164 5.34664446,6.89829164 C6.11777305,6.89804033 6.74304909,6.27276429 6.74368452,5.50125158 C6.74368452,4.72968766 6.11820838,4.10421152 5.34664446,4.10421152 Z M8.95006288,5.28115151 L8.22023717,6.01097722 L8.62778721,6.41814314 L9.35761292,5.68831743 L8.95006288,5.28115151 Z M10.4089461,3.82226833 L9.67950447,4.55170992 L10.0866704,4.95964408 L10.8164961,4.22981837 L10.4089461,3.82226833 Z M11.5317253,2.70064145 L11.1387718,3.09244262 L11.5463218,3.49999266 L11.9400436,3.10627089 L11.5317253,2.70064145 Z" id="Shape" fill-rule="nonzero"></path>
        </g>
    </g>
</svg>