<?xml version="1.0" encoding="UTF-8"?>
<svg width="17px" height="17px" viewBox="0 0 17 17" version="1.1" xmlns="http://www.w3.org/2000/svg" xmlns:xlink="http://www.w3.org/1999/xlink">
    <title>Producer</title>
    <g id="Producer" stroke="none" fill="none" fill-rule="nonzero">
        <path d="M7.15150531,1.30581135 C7.12752112,1.30747418 7.10364688,1.31045847 7.07999135,1.31475061 L3.26931861,1.31475061 C2.55462828,1.31475061 1.96163467,1.90774421 1.96163467,2.62243455 L1.96163467,7.04736109 C0.767990444,8.00742145 5.312229e-05,9.47728173 5.312229e-05,11.1223802 C-0.00229239774,11.306596 0.0731268797,11.483278 0.207818295,11.6089738 C0.342509711,11.7346696 0.523975291,11.797716 0.707586169,11.7826076 C1.03020317,13.9910837 2.93558427,15.699274 5.23084452,15.699274 C7.52610511,15.699274 9.43148561,13.9910837 9.75410301,11.7826076 C9.80652764,11.7868034 9.85926702,11.7846595 9.91117808,11.7762221 L12.1357734,11.7762221 C11.908953,12.1630547 11.7692642,12.6061608 11.7692642,13.0839061 C11.7692642,14.5205891 12.9479491,15.699274 14.3846321,15.699274 C15.8213152,15.699274 17,14.5205891 17,13.0839061 C17,12.2231911 16.5715916,11.4607238 15.9234597,10.9831831 L16.9719051,7.38832921 L16.9757366,7.37428207 C16.9775359,7.36792305 16.9792387,7.36153711 16.9808444,7.35512646 C16.9934629,7.30415144 17,7.25184186 17,7.19932835 C17,6.8382214 16.707265,6.54548638 16.346158,6.54548638 L13.0769482,6.54548638 L13.0769482,3.27627652 L13.7307901,3.27627652 L13.7307901,1.96859258 L12.4231062,1.96859258 C12.0620142,1.96862868 11.7693003,2.26134256 11.7692642,2.62243455 L11.7692642,6.54548638 L9.01086842,6.54548638 L8.03010546,2.62243455 L8.50005312,2.62243455 C8.73585328,2.62576933 8.95518159,2.50188224 9.07405422,2.29821207 C9.19292684,2.09454189 9.19292684,1.84264326 9.07405422,1.63897309 C8.95518159,1.43530291 8.73585328,1.31141582 8.50005312,1.31475061 L7.2958102,1.31475061 C7.26962433,1.31016417 7.24318315,1.30717888 7.21663386,1.30581135 C7.19493782,1.30472955 7.17320135,1.30472955 7.15150531,1.30581135 L7.15150531,1.30581135 Z M3.26931861,2.62243455 L6.6815564,2.62243455 L7.64827221,6.49057411 C6.92418211,6.11068866 6.10262968,5.8916444 5.23084452,5.8916444 C4.53745407,5.8916444 3.87579601,6.03046879 3.26931861,6.27730917 L3.26931861,2.62243455 Z M5.23084452,7.85317032 C7.04412354,7.85317032 8.50005438,9.30910116 8.50005438,11.1223802 C8.50005438,12.9356592 7.04412354,14.39159 5.23084452,14.39159 C3.41756525,14.39159 1.96163467,12.9356592 1.96163467,11.1223802 C1.96163467,9.30910116 3.41756525,7.85317032 5.23084452,7.85317032 Z M5.23084452,9.81469623 C4.50863063,9.81469623 3.92316058,10.4001663 3.92316058,11.1223802 C3.92316058,11.8445941 4.50863063,12.4300641 5.23084452,12.4300641 C5.95305842,12.4300641 6.53852847,11.8445941 6.53852847,11.1223802 C6.53852847,10.4001663 5.95305842,9.81469623 5.23084452,9.81469623 Z M14.3846321,11.7762221 C15.1145904,11.7762221 15.6923161,12.3539478 15.6923161,13.0839061 C15.6923161,13.8138644 15.1145904,14.39159 14.3846321,14.39159 C13.6546738,14.39159 13.0769482,13.8138644 13.0769482,13.0839061 C13.0769482,12.3539478 13.6546738,11.7762221 14.3846321,11.7762221 Z" id="Shape" fill="color(display-p3 0.000 0.000 0.000)"></path>
    </g>
</svg>