<?xml version="1.0" encoding="UTF-8"?>
<svg width="20px" height="20px" viewBox="0 0 20 20" version="1.1" xmlns="http://www.w3.org/2000/svg" xmlns:xlink="http://www.w3.org/1999/xlink">
    <title>Profile</title>
    <g id="Profile" stroke="none" stroke-width="1" fill="none" fill-rule="evenodd">
        <path d="M10,0 C4.477,0 0,4.477 0,10 C0,15.523 4.477,20 10,20 C15.523,20 20,15.523 20,10 C20,4.477 15.523,0 10,0 Z M10,2.75 C11.795,2.75 13.25,4.205 13.25,6 C13.25,7.795 11.795,9.25 10,9.25 C8.205,9.25 6.75,7.795 6.75,6 C6.75,4.205 8.205,2.75 10,2.75 Z M10,18 C7.562,18 5.379,16.909 3.912,15.188 C3.531,14.741 3.616,14.07 4.085,13.717 C5.602,12.576 8.366,12 10,12 C11.634,12 14.398,12.576 15.916,13.717 C16.385,14.07 16.47,14.742 16.089,15.188 C14.621,16.909 12.438,18 10,18 Z" id="Shape" fill="#000000" fill-rule="nonzero"></path>
    </g>
</svg>