<?xml version="1.0" encoding="UTF-8"?>
<svg width="20px" height="20px" viewBox="0 0 20 20" version="1.1" xmlns="http://www.w3.org/2000/svg" xmlns:xlink="http://www.w3.org/1999/xlink">
    <title>Profile</title>
    <g id="Profile" stroke="none" fill="none" fill-rule="evenodd">
        <path d="M9.99375,0 C7.44474346,0 5.37836538,2.06637808 5.37836538,4.61538462 C5.37836538,7.16439115 7.44474346,9.23076923 9.99375,9.23076923 C12.5427565,9.23076923 14.6091346,7.16439115 14.6091346,4.61538462 C14.6091346,2.06637808 12.5427565,0 9.99375,0 Z M9.99975923,10.7211538 C4.73975954,10.7211538 0.775,13.0451923 0.775,16.1298077 L0.775,18.4615385 C0.775,19.3107692 1.46423077,20 2.31346154,20 L17.6860577,20 C18.5352885,20 19.2245192,19.3107692 19.2245192,18.4615385 L19.2245192,16.1298077 C19.2245192,13.0467308 15.2582208,10.7211538 9.99975923,10.7211538 Z" id="Combined-Shape" fill="color(display-p3 0.000 0.000 0.000)"></path>
    </g>
</svg>