<?xml version="1.0" encoding="UTF-8"?>
<svg width="19px" height="19px" viewBox="0 0 19 19" version="1.1" xmlns="http://www.w3.org/2000/svg" xmlns:xlink="http://www.w3.org/1999/xlink">
    <title>programming</title>
    <g id="programming" stroke="none" stroke-width="1" fill="none" fill-rule="evenodd">
        <path d="M1.72727273,0.9 C0.772954545,0.9 0,1.67295455 0,2.62727273 L0,12.9909091 C0,13.9452273 0.772954545,14.7181818 1.72727273,14.7181818 L7.77272727,14.7181818 L7.77272727,16.4454545 L6.04545455,16.4454545 L6.04545455,18.1727273 L12.9545455,18.1727273 L12.9545455,16.4454545 L11.2272727,16.4454545 L11.2272727,14.7181818 L17.2727273,14.7181818 C18.2270455,14.7181818 19,13.9452273 19,12.9909091 L19,2.62727273 C19,1.67295455 18.2270455,0.9 17.2727273,0.9 L1.72727273,0.9 Z M1.72727273,2.62727273 L17.2727273,2.62727273 L17.2727273,12.9909091 L1.72727273,12.9909091 L1.72727273,2.62727273 Z M9.73446345,4.19767403 L8.00719073,11.1067646 L9.26553655,11.4205081 L10.9928093,4.51141688 L9.73446345,4.19767403 Z M6.22425422,5.03938215 L3.45454545,7.80909091 L6.22425422,10.5787995 L7.08789058,9.71516314 L5.18181818,7.80909091 L7.08789058,5.90301851 L6.22425422,5.03938215 Z M12.775746,5.03938215 L11.9121096,5.90301851 L13.8181818,7.80909091 L11.9121096,9.71516314 L12.775746,10.5787995 L15.5454545,7.80909091 L12.775746,5.03938215 Z" id="Shape" fill="#000000" fill-rule="nonzero"></path>
    </g>
</svg>