<?xml version="1.0" encoding="UTF-8"?>
<svg width="17px" height="17px" viewBox="0 0 17 17" version="1.1" xmlns="http://www.w3.org/2000/svg" xmlns:xlink="http://www.w3.org/1999/xlink">
    <title>Proofs</title>
    <g id="Proofs" stroke="none" fill="none" fill-rule="nonzero">
        <path d="M2.48082139,0 C2.42650144,0 2.37235291,0.0124993374 2.32241575,0.0374679544 L1.77249283,0.312775324 L1.22256978,0.0374679544 C1.11277885,-0.0170733443 0.982922321,-0.0117719655 0.878089695,0.052685933 C0.773965398,0.117497996 0.71,0.231383946 0.71,0.354278951 L0.71,15.9375072 C0.71,16.13336 0.868665596,16.2916714 1.06416428,16.2916714 L10.6397425,16.2916714 C11.2308256,16.7339929 11.960868,17 12.7515854,17 C14.699489,17 16.2932282,15.4062608 16.2932282,13.4583572 C16.2932282,12.0137718 15.4157189,10.7656551 14.1682426,10.2162322 L14.1682426,0.354278951 C14.1682426,0.231383946 14.1042773,0.117497996 14.000153,0.052685933 C13.8953204,-0.0121261298 13.7651094,-0.0170733443 13.6556726,0.0374679544 L13.1057497,0.312775324 L12.5558268,0.0374679544 C12.4563066,-0.0124692441 12.3388898,-0.0124692441 12.2390155,0.0374679544 L11.6890926,0.312775324 L11.1391697,0.0374679544 C11.0396495,-0.0124692441 10.9222327,-0.0124692441 10.8223584,0.0374679544 L10.2724355,0.312775324 L9.72251258,0.0374679544 C9.62299242,-0.0124692441 9.50557563,-0.0124692441 9.4057013,0.0374679544 L8.85577839,0.312775324 L8.30585547,0.0374679544 C8.20633531,-0.0124692441 8.08891852,-0.0124692441 7.98904419,0.0374679544 L7.43912128,0.312775324 L6.88919836,0.0374679544 C6.7896782,-0.0124692441 6.67226141,-0.0124692441 6.57238708,0.0374679544 L6.02246416,0.312775324 L5.47254125,0.0374679544 C5.37302109,-0.0124692441 5.2556043,-0.0124692441 5.15572997,0.0374679544 L4.60580705,0.312775324 L4.05588414,0.0374679544 C3.95636398,-0.0124692441 3.83894719,-0.0124692441 3.73907286,0.0374679544 L3.18914994,0.312775324 L2.63922703,0.0374679544 C2.58946695,0.0124993374 2.53514133,0 2.48082139,0 Z M3.18914994,3.18759317 L8.50161411,3.18759317 C8.69746695,3.18759317 8.85577839,3.3459046 8.85577839,3.54175745 C8.85577839,3.7376103 8.69746695,3.89592173 8.50161411,3.89592173 L3.18914994,3.89592173 C2.9932971,3.89592173 2.83498567,3.7376103 2.83498567,3.54175745 C2.83498567,3.3459046 2.9932971,3.18759317 3.18914994,3.18759317 Z M10.6265998,3.18759317 L11.6890926,3.18759317 C11.8849455,3.18759317 12.0432569,3.3459046 12.0432569,3.54175745 C12.0432569,3.7376103 11.8849455,3.89592173 11.6890926,3.89592173 L10.6265998,3.89592173 C10.4307469,3.89592173 10.2724355,3.7376103 10.2724355,3.54175745 C10.2724355,3.3459046 10.4307469,3.18759317 10.6265998,3.18759317 Z M3.18914994,5.31257884 L7.084957,5.31257884 C7.28080984,5.31257884 7.43912128,5.47089027 7.43912128,5.66674312 C7.43912128,5.86259596 7.28080984,6.02090739 7.084957,6.02090739 L3.18914994,6.02090739 C2.9932971,6.02090739 2.83498567,5.86259596 2.83498567,5.66674312 C2.83498567,5.47089027 2.9932971,5.31257884 3.18914994,5.31257884 Z M10.6265998,5.31257884 L11.6890926,5.31257884 C11.8849455,5.31257884 12.0432569,5.47089027 12.0432569,5.66674312 C12.0432569,5.86259596 11.8849455,6.02090739 11.6890926,6.02090739 L10.6265998,6.02090739 C10.4307469,6.02090739 10.2724355,5.86259596 10.2724355,5.66674312 C10.2724355,5.47089027 10.4307469,5.31257884 10.6265998,5.31257884 Z M3.18914994,7.4375645 L8.50161411,7.4375645 C8.69746695,7.4375645 8.85577839,7.59587594 8.85577839,7.79172878 C8.85577839,7.98758163 8.69746695,8.14589306 8.50161411,8.14589306 L3.18914994,8.14589306 C2.9932971,8.14589306 2.83498567,7.98758163 2.83498567,7.79172878 C2.83498567,7.59587594 2.9932971,7.4375645 3.18914994,7.4375645 Z M10.6265998,7.4375645 L11.6890926,7.4375645 C11.8849455,7.4375645 12.0432569,7.59587594 12.0432569,7.79172878 C12.0432569,7.98758163 11.8849455,8.14589306 11.6890926,8.14589306 L10.6265998,8.14589306 C10.4307469,8.14589306 10.2724355,7.98758163 10.2724355,7.79172878 C10.2724355,7.59587594 10.4307469,7.4375645 10.6265998,7.4375645 Z M3.18914994,9.56255017 L7.084957,9.56255017 C7.28080984,9.56255017 7.43912128,9.7208616 7.43912128,9.91671445 C7.43912128,10.1125673 7.28080984,10.2708787 7.084957,10.2708787 L3.18914994,10.2708787 C2.9932971,10.2708787 2.83498567,10.1125673 2.83498567,9.91671445 C2.83498567,9.7208616 2.9932971,9.56255017 3.18914994,9.56255017 Z M10.6265998,9.56255017 L11.6890926,9.56255017 C11.8849455,9.56255017 12.0432569,9.7208616 12.0432569,9.91671445 C12.0432569,9.94353779 12.0336675,9.9670079 12.0280388,9.99211283 C11.7450417,10.0515101 11.4756711,10.1478991 11.2214853,10.2708787 L10.6265998,10.2708787 C10.4307469,10.2708787 10.2724355,10.1125673 10.2724355,9.91671445 C10.2724355,9.7208616 10.4307469,9.56255017 10.6265998,9.56255017 Z M12.7515854,10.625043 C14.3099083,10.625043 15.5848997,11.9000344 15.5848997,13.4583572 C15.5848997,15.01668 14.3099083,16.2916714 12.7515854,16.2916714 C11.1932626,16.2916714 9.91827122,15.01668 9.91827122,13.4583572 C9.91827122,11.9000344 11.1932626,10.625043 12.7515854,10.625043 Z M3.18914994,11.6875358 C3.38464862,11.6875358 3.54331422,11.8462014 3.54331422,12.0417001 C3.54331422,12.2371988 3.38464862,12.3958644 3.18914994,12.3958644 C2.99365126,12.3958644 2.83498567,12.2371988 2.83498567,12.0417001 C2.83498567,11.8462014 2.99365126,11.6875358 3.18914994,11.6875358 Z M4.25164278,11.6875358 C4.44714146,11.6875358 4.60580705,11.8462014 4.60580705,12.0417001 C4.60580705,12.2371988 4.44714146,12.3958644 4.25164278,12.3958644 C4.0561441,12.3958644 3.8974785,12.2371988 3.8974785,12.0417001 C3.8974785,11.8462014 4.0561441,11.6875358 4.25164278,11.6875358 Z M5.31413561,11.6875358 C5.50963429,11.6875358 5.66829989,11.8462014 5.66829989,12.0417001 C5.66829989,12.2371988 5.50963429,12.3958644 5.31413561,12.3958644 C5.11863693,12.3958644 4.95997133,12.2371988 4.95997133,12.0417001 C4.95997133,11.8462014 5.11863693,11.6875358 5.31413561,11.6875358 Z M6.37662844,11.6875358 C6.57212712,11.6875358 6.73079272,11.8462014 6.73079272,12.0417001 C6.73079272,12.2371988 6.57212712,12.3958644 6.37662844,12.3958644 C6.18112976,12.3958644 6.02246416,12.2371988 6.02246416,12.0417001 C6.02246416,11.8462014 6.18112976,11.6875358 6.37662844,11.6875358 Z M7.43912128,11.6875358 C7.63461996,11.6875358 7.79328555,11.8462014 7.79328555,12.0417001 C7.79328555,12.2371988 7.63461996,12.3958644 7.43912128,12.3958644 C7.24362259,12.3958644 7.084957,12.2371988 7.084957,12.0417001 C7.084957,11.8462014 7.24362259,11.6875358 7.43912128,11.6875358 Z M8.50161411,11.6875358 C8.69711279,11.6875358 8.85577839,11.8462014 8.85577839,12.0417001 C8.85577839,12.2371988 8.69711279,12.3958644 8.50161411,12.3958644 C8.30611543,12.3958644 8.14744983,12.2371988 8.14744983,12.0417001 C8.14744983,11.8462014 8.30611543,11.6875358 8.50161411,11.6875358 Z M14.2747684,11.82934 L12.3621432,14.0601599 L11.1931241,13.1747492 L10.768404,13.7419652 L12.4326991,15.0168185 L14.8060149,12.2893385 L14.2747684,11.82934 Z" id="Shape" fill="color(display-p3 0.000 0.000 0.000)"></path>
    </g>
</svg>