<?xml version="1.0" encoding="UTF-8"?>
<svg width="17px" height="17px" viewBox="0 0 17 17" version="1.1" xmlns="http://www.w3.org/2000/svg" xmlns:xlink="http://www.w3.org/1999/xlink">
    <title>recipe</title>
    <g id="recipe" stroke="none" fill="none" fill-rule="nonzero">
        <path d="M12.4442857,0 C13.4502329,0 14.2657143,0.815481349 14.2657143,1.82142857 L14.2657143,15.1785714 C14.2657143,16.1845187 13.4502329,17 12.4442857,17 L4.55142857,17 C3.54548135,17 2.73,16.1845187 2.73,15.1785714 L2.73,1.82142857 C2.73,0.815481349 3.54548135,0 4.55142857,0 Z M11.8371429,13.75 L5.15857143,13.75 C4.82325569,13.75 4.55142857,14.0218271 4.55142857,14.3571429 C4.55142857,14.6924586 4.82325569,14.9642857 5.15857143,14.9642857 L11.8371429,14.9642857 C12.1724586,14.9642857 12.4442857,14.6924586 12.4442857,14.3571429 C12.4442857,14.0218271 12.1724586,13.75 11.8371429,13.75 Z M11.8371429,11.3214286 L5.15857143,11.3214286 C4.82325569,11.3214286 4.55142857,11.5932557 4.55142857,11.9285714 C4.55142857,12.2638872 4.82325569,12.5357143 5.15857143,12.5357143 L11.8371429,12.5357143 C12.1724586,12.5357143 12.4442857,12.2638872 12.4442857,11.9285714 C12.4442857,11.5932557 12.1724586,11.3214286 11.8371429,11.3214286 Z M11.8371429,8.89285714 L5.15857143,8.89285714 C4.82325569,8.89285714 4.55142857,9.16468426 4.55142857,9.5 C4.55142857,9.83531574 4.82325569,10.1071429 5.15857143,10.1071429 L11.8371429,10.1071429 C12.1724586,10.1071429 12.4442857,9.83531574 12.4442857,9.5 C12.4442857,9.16468426 12.1724586,8.89285714 11.8371429,8.89285714 Z M8.22429377,6.22631579 C8.18297798,6.24105263 8.13903061,6.25052632 8.09271482,6.25052632 L5.72429377,6.25052632 C5.67797798,6.25052632 5.63403061,6.24105263 5.59271482,6.22631579 L5.59271482,6.38210526 C5.59271482,6.745 5.88771482,7.04 6.25060956,7.04 L7.56639903,7.04 C7.92929377,7.04 8.22429377,6.745 8.22429377,6.38210526 Z M6.9085043,2.04 C6.44403061,2.04 6.04113588,2.34157895 5.90587272,2.79052632 C5.89587272,2.82421053 5.87245167,2.85236842 5.84113588,2.86894737 C5.81008325,2.88526316 5.77403061,2.88842105 5.73982009,2.87789474 C5.65587272,2.85105263 5.56455693,2.82947368 5.4635043,2.82947368 C5.31192535,2.82947368 5.13929377,2.87789474 4.94008325,3.02947368 C4.68324114,3.225 4.53718851,3.49157895 4.54004102,3.76052632 C4.54560956,4.26289474 4.95876746,4.67157895 5.46113588,4.67157895 C5.53376746,4.67157895 5.59271482,4.73052632 5.59271482,4.80315789 L5.59271482,5.48526316 C5.63403061,5.47052632 5.67797798,5.46105263 5.72429377,5.46105263 L8.09271482,5.46105263 C8.13903061,5.46105263 8.18297798,5.47052632 8.22429377,5.48526316 L8.22429377,4.80315789 C8.22429377,4.73052632 8.28324114,4.67157895 8.35587272,4.67157895 C8.85824114,4.67157895 9.27139903,4.26289474 9.27722353,3.76052632 C9.27982009,3.49157895 9.13403061,3.225 8.87718851,3.02947368 C8.5453464,2.77684211 8.28692535,2.81078947 8.07745167,2.87789474 C8.0435043,2.88815789 8.00692535,2.88526316 7.97613588,2.86894737 C7.94482009,2.85236842 7.92139903,2.82421053 7.91139903,2.79052632 C7.77587272,2.34157895 7.37297798,2.04 6.9085043,2.04 Z" id="Shape" fill="color(display-p3 0.000 0.000 0.000)"></path>
    </g>
</svg>