<?xml version="1.0" encoding="UTF-8"?>
<svg width="20px" height="20px" viewBox="0 0 20 20" version="1.1" xmlns="http://www.w3.org/2000/svg" xmlns:xlink="http://www.w3.org/1999/xlink">
    <title>Recycling</title>
    <g id="Recycling" stroke="none" stroke-width="1" fill="none" fill-rule="evenodd">
        <g id="icons8-recycle" transform="translate(0.123, 0)" fill="#000000" fill-rule="nonzero">
            <path d="M13.7423413,0.00692575964 L8.43173927,0.0329584084 C8.60745814,0.0817698331 9.00445126,0.150105328 9.29080725,0.63170933 L11.9200759,5.21345551 L10.4882959,6.04650027 L15.1480889,6.02046762 L17.4389368,2.01143971 L16.0071569,2.84448447 L14.653474,0.475513437 C14.510296,0.172884104 14.2857671,-0.041885665 13.7423413,0.00692575964 Z M7.18218585,0.579644032 C6.47605822,0.534087313 5.65603879,0.781397476 5.0475321,1.62094998 L5.02149974,1.69904793 L3.32939615,4.69280253 L7.39044476,7.03574092 L9.68129269,3.00068037 L8.6920629,1.28252555 C8.50007402,0.963626018 7.88831349,0.625201584 7.18218585,0.579644032 Z M17.7773575,6.41095735 L13.7163089,8.75389574 L16.0331892,12.7889563 L18.0116488,12.7889563 C18.7470635,12.7726861 20.3675776,11.3701769 19.5215259,9.4828099 L19.4954935,9.37867931 L17.7773575,6.41095735 Z M0.101383156,7.37416536 L1.53316311,8.20721012 L0.153447882,10.5761812 C-0.0222701506,10.8462701 -0.0971134021,11.1423917 0.205512608,11.5914545 L2.88684598,16.1992333 C2.83803509,16.0072423 2.72088946,15.6102448 2.99097543,15.1318947 L5.62024408,10.5761812 L7.05202404,11.4092259 L4.70911138,7.37416536 L0.101383156,7.37416536 Z M12.8832733,11.9559115 L10.566393,15.9909721 L12.857241,20 L12.8832733,18.3339105 L15.6166714,18.3339105 C15.9355683,18.363197 16.2251781,18.2818452 16.449707,17.7872249 L19.105008,13.179446 C18.9781001,13.3063554 18.7015064,13.6057309 18.1418106,13.6220011 L12.8832733,13.6220011 L12.8832733,11.9559115 Z M4.81324083,13.5959684 L3.82401105,15.3141232 C3.47257415,15.971448 3.8695681,18.073584 5.93263244,18.2818452 L6.03676189,18.3078778 L9.47303379,18.3078778 L9.47303379,13.5959684 L4.81324083,13.5959684 Z" id="Shape"></path>
        </g>
    </g>
</svg>