<?xml version="1.0" encoding="UTF-8"?>
<svg width="17px" height="17px" viewBox="0 0 17 17" version="1.1" xmlns="http://www.w3.org/2000/svg" xmlns:xlink="http://www.w3.org/1999/xlink">
    <title>redo</title>
    <g id="redo" stroke="none" fill="none" fill-rule="nonzero">
        <path d="M0.424051116,5.11 C0.31549403,5.11 0.206923714,5.15154378 0.124233747,5.23423375 C0.0411197279,5.31649966 0,5.42549403 0,5.53405112 L0,11.0467156 C0,11.5151096 0.379708303,11.8948179 0.848102232,11.8948179 L6.36076674,11.8948179 C6.46932383,11.8948179 6.57747009,11.8528504 6.66058411,11.7705845 C6.82596439,11.6052045 6.82596439,11.336329 6.66058411,11.170949 L4.42768995,8.9380553 C5.62145915,7.8794736 7.18347934,7.23025558 8.90507344,7.23025558 C11.5757474,7.23025558 13.8816313,8.77613392 14.9875566,11.0202124 C15.2216329,11.4951497 15.7650679,11.7281395 16.2679926,11.5602152 C16.869297,11.3600631 17.1748123,10.6732725 16.8957867,10.1041959 C15.4489243,7.14855959 12.418761,5.11 8.90507344,5.11 C6.59780742,5.11 4.50984282,6.00077356 2.93191588,7.44228114 L0.723868486,5.23423375 C0.641178518,5.15154378 0.532608202,5.11 0.424051116,5.11 Z" id="Path" fill="color(display-p3 0.000 0.000 0.000)" transform="translate(8.5, 8.5024) scale(-1, 1) translate(-8.5, -8.5024)"></path>
    </g>
</svg>