<?xml version="1.0" encoding="UTF-8"?>
<svg width="17px" height="17px" viewBox="0 0 17 17" version="1.1" xmlns="http://www.w3.org/2000/svg" xmlns:xlink="http://www.w3.org/1999/xlink">
    <title>reinit</title>
    <g id="reinit" stroke="none" fill="none" fill-rule="nonzero">
        <path d="M6.69993019,0.0951744925 C6.63484596,0.0943148942 6.56697457,0.100063458 6.5001408,0.115321328 C5.53481198,0.333659301 4.63293216,0.717751985 3.82061175,1.23179178 C3.35900746,1.52405521 3.2986609,2.17720217 3.68462055,2.56316181 L3.68629951,2.56484069 C3.96309017,2.84163135 4.3971336,2.90721604 4.72721927,2.69747405 C5.38653118,2.27799007 6.1216221,1.96790338 6.90643493,1.79254541 C7.28723699,1.70744509 7.54441849,1.35088646 7.54441849,0.961488423 C7.54441849,0.481617662 7.15552074,0.101191681 6.69993019,0.0951744925 Z M10.1097822,0.095078525 C9.65402749,0.101767526 9.26361513,0.481617662 9.26361513,0.961488423 L9.26361513,0.963167305 C9.26361513,1.35686334 9.52910981,1.70740486 9.91335025,1.7942243 C12.9812567,2.48362215 15.2808034,5.22559302 15.2808034,8.49808382 C15.2808034,11.7705746 12.9812567,14.5125454 9.91335025,15.2019433 C9.52910981,15.2887627 9.26361513,15.6393043 9.26361513,16.0330003 L9.26361513,16.0346791 C9.26361513,16.5831029 9.77322283,17.0029092 10.307893,16.8808462 C14.1339651,16.0126519 17,12.5837546 17,8.49808382 C17,4.41241301 14.1339651,0.984375229 10.307893,0.115321328 C10.2410592,0.100170908 10.1748899,0.0942326307 10.1097822,0.095078525 Z M1.7673134,3.52853104 C1.51899694,3.55281469 1.28385648,3.68387662 1.13772477,3.91467876 C0.623684973,4.72699918 0.240451888,5.62887899 0.0212543166,6.59420781 C-0.0999490464,7.1288778 0.318997684,7.6384855 0.867421412,7.6384855 C1.25681945,7.6384855 1.61337808,7.38044526 1.6984784,7.00050194 C1.87297686,6.21482951 2.18392306,5.48059819 2.60340704,4.82128628 C2.81314903,4.49120053 2.74756434,4.0571571 2.47077368,3.78036653 L2.4690948,3.77868756 C2.27611498,3.58570774 2.01562987,3.50424739 1.7673134,3.52853104 Z M8.40401681,4.20009223 C7.92951854,4.20009223 7.54441849,4.58519227 7.54441849,5.05969054 L7.54441849,9.35768214 L6.34064508,9.35768214 C6.06299483,9.35768214 5.81260991,9.52456542 5.70601972,9.78244491 C5.67077619,9.86754515 5.65397371,9.95749351 5.65397371,10.0460321 C5.65397371,10.2248286 5.72306401,10.3988569 5.85544206,10.531235 L7.91881396,12.5946071 C8.18700863,12.8628017 8.62270378,12.8628017 8.89089845,12.5946071 L10.9542705,10.531235 C11.1502589,10.334387 11.2077446,10.0403244 11.102014,9.78244491 C10.9954238,9.52542502 10.7450391,9.35768214 10.4673889,9.35768214 L9.26361513,9.35768214 L9.26361513,5.05969054 C9.26361513,4.58519227 8.87851508,4.20009223 8.40401681,4.20009223 Z M0.867421412,9.35768214 C0.318997684,9.35768214 -0.100808645,9.86728985 0.0212543166,10.40196 C0.240451888,11.3672889 0.622825375,12.2691683 1.13772477,13.0814887 C1.4291286,13.543093 2.08313515,13.6034394 2.4690948,13.2174797 C2.74674506,12.9398295 2.81314903,12.5049673 2.60340704,12.1748815 C2.18392306,11.5155696 1.87383637,10.7804781 1.6984784,9.9956657 C1.61337808,9.61486364 1.25681945,9.35768214 0.867421412,9.35768214 Z M4.18829144,14.1828491 C4.0036927,14.2075625 3.82469476,14.2929318 3.68629951,14.4313271 L3.68462055,14.4330059 C3.2986609,14.8189656 3.35900746,15.4721124 3.82061175,15.7643759 C4.63293216,16.2784157 5.53481198,16.6616487 6.5001408,16.8808462 C7.03481078,17.0020496 7.54441849,16.5831029 7.54441849,16.0346791 C7.54441849,15.6452811 7.28637825,15.2887223 6.90643493,15.2036221 C6.1216221,15.028264 5.38735055,14.7181777 4.72889824,14.2986937 C4.56385536,14.1938227 4.37289018,14.1581356 4.18829144,14.1828491 Z" id="Shape" fill="color(display-p3 0.000 0.000 0.000)"></path>
    </g>
</svg>