<?xml version="1.0" encoding="UTF-8"?>
<svg width="17px" height="17px" viewBox="0 0 17 17" version="1.1" xmlns="http://www.w3.org/2000/svg" xmlns:xlink="http://www.w3.org/1999/xlink">
    <title>Reload</title>
    <g id="Reload" stroke="none" fill="none" fill-rule="nonzero">
        <path d="M10.0420452,13.5999441 C8.74910773,13.9822039 7.37746975,13.8416672 6.19134018,13.1951985 C5.00521061,12.5487297 4.13950467,11.480651 3.7572449,10.1877135 C3.62795116,9.74361763 3.15574792,9.48503015 2.71165201,9.61994536 C2.26755611,9.75486057 2.00896862,10.2214423 2.14388383,10.6655382 C2.65543734,12.3913287 3.80783811,13.8191813 5.39309184,14.6792658 C6.393713,15.2245481 7.49552056,15.5 8.60294959,15.5 C9.24379684,15.5 9.89026557,15.4044351 10.5254914,15.2189266 C14.0895015,14.1620908 16.1357156,10.4069508 15.0788797,6.83731912 C14.0164225,3.26768747 10.2612824,1.22147343 6.69165076,2.27830925 C5.56735732,2.60997582 4.56673617,3.2283372 3.76848784,4.05469287 L3.67854436,3.43071002 C3.61108675,2.96974971 3.18385525,2.65494755 2.72289494,2.71678369 C2.26193464,2.78986277 1.94151101,3.21709427 2.00896862,3.67805458 L2.41371425,6.41008761 C2.44744305,6.62932483 2.56549386,6.83169765 2.74538081,6.96661286 C2.89153896,7.07342074 3.06580444,7.12963541 3.24569139,7.12963541 C3.28504166,7.12963541 3.3300134,7.12401394 3.36936367,7.11839247 L6.0845323,6.71364684 C6.54549261,6.64618923 6.86029477,6.21333626 6.79283716,5.75237596 C6.72537956,5.29703712 6.29814805,4.97661349 5.83156628,5.04407109 L5.04456088,5.1621219 C5.63481493,4.57748932 6.35998419,4.13901488 7.16947546,3.89729179 C9.8509153,3.11028639 12.6672703,4.63932546 13.4542757,7.31514382 C14.2469026,9.98534072 12.7178635,12.8073172 10.0420452,13.5999441 Z" id="Path" fill="color(display-p3 0.000 0.000 0.000)" transform="translate(8.6786, 8.75) scale(-1, 1) translate(-8.6786, -8.75)"></path>
    </g>
</svg>