<?xml version="1.0" encoding="UTF-8"?>
<svg width="17px" height="17px" viewBox="0 0 17 17" version="1.1" xmlns="http://www.w3.org/2000/svg" xmlns:xlink="http://www.w3.org/1999/xlink">
    <title>reset</title>
    <g id="reset" stroke="none" fill="none" fill-rule="nonzero">
        <path d="M3.38341313,0.00242093786 C3.23954003,0.0204052397 3.10080558,0.12317174 3.01345373,0.331273737 L0.649824232,6.02453782 C0.475121182,6.44074248 0.696069486,6.72335002 1.14310343,6.66169012 L7.18577362,5.79845152 C7.63280822,5.73679163 7.61482392,5.44390743 7.35020002,5.07908603 L6.30198172,3.64035503 C6.98794827,3.36031648 7.73043607,3.20873573 8.52173811,3.20873573 C11.8025585,3.20873573 14.4410885,5.84726578 14.4410885,9.12808612 C14.4385195,9.16148507 14.4385195,9.19745367 14.4410885,9.23085262 L14.3999819,9.78579172 L14.3177687,10.2790709 L14.5644083,11.1012029 L15.365987,11.4300557 L16.1059058,11.0189897 L16.2703322,10.5873704 L16.3730987,9.99132472 L16.3730987,9.88855822 L16.4142053,9.18974602 C16.4142053,9.16919272 16.4142053,9.14863942 16.4142053,9.12808612 C16.4142053,4.78106318 12.8687611,1.23561894 8.52173811,1.23561894 C7.30652442,1.23561894 6.14526297,1.52079614 5.10989032,2.01664433 L3.81503242,0.249060537 C3.68143598,0.0666498358 3.52728623,-0.0155631667 3.38341313,0.00242093786 Z M2.27353493,10.1557511 L1.43084963,10.1968577 L0.917017131,10.8751166 L0.958123731,11.3478425 L1.04033693,11.6766953 L1.08144353,11.7589085 L1.30752983,12.3138476 L1.34863643,12.3960608 L1.49250953,12.7249136 L2.17076843,13.2387461 L2.99290043,13.0537664 L3.36285983,12.2932943 L3.26009333,11.8411217 L3.09566693,11.5122689 L2.93124053,11.1012029 L2.84902733,10.7723501 L2.27353493,10.1557511 Z M14.3588753,12.4988273 L13.51619,12.5193806 L13.1462306,12.8071268 L13.1256773,12.8482334 L13.105124,12.8687867 L13.0640174,12.9304466 L12.7351646,13.2798527 L12.6735047,13.3415126 L12.3652052,13.6087055 L12.0569057,14.4102842 L12.4679717,15.150203 L13.2901037,15.2940761 L13.7011697,15.0679898 L14.0711291,14.739137 L14.132789,14.6774771 L14.5849616,14.1841979 L14.6466215,14.1019847 L14.7288347,13.9786649 L14.8932611,13.1565329 L14.3588753,12.4988273 Z M4.20554512,13.8142385 L3.58894613,14.3897309 L3.65060603,15.2324162 L3.95890552,15.561269 L4.43163142,15.8901218 L4.51384462,15.9312284 L5.04823042,16.2189746 L5.13044362,16.2600812 L5.25376342,16.3011878 L6.09644872,16.2806345 L6.61028122,15.6023756 L6.40474822,14.7802436 L6.03478882,14.4924974 L5.97312892,14.4719441 L5.91146902,14.4308375 L5.52095632,14.2253045 L5.43874312,14.1841979 L5.04823042,13.917005 L4.20554512,13.8142385 Z M10.3509818,14.8624568 L9.89880921,14.8830101 L9.75493611,14.9241167 L9.73438281,14.9241167 L9.67272291,14.94467 L9.17944371,15.0063299 L8.78893101,15.0268832 L8.04901222,15.4379492 L7.88458582,16.2600812 L8.43952491,16.9177868 L8.89169751,17 L9.28221021,16.9794467 L9.38497671,16.9794467 L10.0632356,16.8766802 L10.1660021,16.8561269 L10.3920884,16.794467 L11.0292407,16.2395279 L11.0292407,15.3968426 L10.3509818,14.8624568 Z" id="Shape" fill="color(display-p3 0.000 0.000 0.000)"></path>
    </g>
</svg>