<?xml version="1.0" encoding="UTF-8"?>
<svg width="17px" height="17px" viewBox="0 0 17 17" version="1.1" xmlns="http://www.w3.org/2000/svg" xmlns:xlink="http://www.w3.org/1999/xlink">
    <title>Robot</title>
    <g id="Robot" stroke="none" fill="none" fill-rule="nonzero">
        <path d="M4.57626923,16.3461538 L4.57626923,14.3846154 L2.61473077,14.3846154 C1.89223077,14.3846154 1.30703846,13.8007308 1.30703846,13.0769231 L1.30703846,10.4615385 L1.30573077,10.4615385 C0.583884615,10.4615385 0,9.87765385 0,9.15384615 C0,8.76153846 0,8.23846154 0,7.84615385 C0,7.12234615 0.585192308,6.53846154 1.30573077,6.53846154 L1.30638462,4.57692308 C1.30638462,3.85311538 1.89157692,3.26923077 2.61407692,3.26923077 L7.84484615,3.26923077 L7.84419231,2.44080769 C7.45384615,2.21392308 7.191,1.78696154 7.191,1.30769231 C7.191,0.583884615 7.77684615,0 8.49869231,0 C9.22053846,0 9.80638462,0.583884615 9.80638462,1.30769231 C9.80638462,1.78696154 9.54288462,2.21457692 9.15319231,2.44080769 L9.15319231,3.26923077 L14.3833077,3.26923077 C15.1051538,3.26923077 15.691,3.85311538 15.691,4.57692308 L15.691,6.53846154 C16.4121923,6.53846154 17,7.12234615 17,7.84615385 C17,8.23846154 17,8.76153846 17,9.15384615 C17,9.87765385 16.4141538,10.4615385 15.6923077,10.4615385 L15.6916538,13.0769231 C15.6916538,13.8007308 15.1058077,14.3846154 14.3839615,14.3846154 L7.51661538,14.3846154 L5.77738462,16.7038077 C5.65707692,16.8868846 5.45111538,17 5.23011538,17 C4.86788462,17 4.57626923,16.7038077 4.57626923,16.3461538 Z M10.4608846,9.80769231 L6.53584615,9.80769231 C6.82680769,10.5661538 7.59769231,11.1153846 8.49803846,11.1153846 C9.40034615,11.1153846 10.1692692,10.5661538 10.4608846,9.80769231 Z M7.19165385,7.51465385 C7.19165385,6.97392308 6.75226923,6.53846154 6.21088462,6.53846154 C5.6695,6.53846154 5.23011538,6.97457692 5.23011538,7.51465385 C5.23011538,8.05473077 5.6695,8.5 6.21088462,8.5 C6.75226923,8.5 7.19165385,8.05538462 7.19165385,7.51465385 Z M11.7685769,7.51465385 C11.7685769,6.97392308 11.3291923,6.53846154 10.7878077,6.53846154 C10.2464231,6.53846154 9.80703846,6.97457692 9.80703846,7.51465385 C9.80703846,8.05473077 10.2464231,8.5 10.7878077,8.5 C11.3291923,8.5 11.7685769,8.05538462 11.7685769,7.51465385 Z" id="Shape" fill="color(display-p3 0.000 0.000 0.000)"></path>
    </g>
</svg>