<?xml version="1.0" encoding="UTF-8"?>
<svg width="17px" height="17px" viewBox="0 0 17 17" version="1.1" xmlns="http://www.w3.org/2000/svg" xmlns:xlink="http://www.w3.org/1999/xlink">
    <title>rotate_cw</title>
    <g id="rotate_cw" stroke="none" fill="none" fill-rule="nonzero">
        <path d="M14.720081,9.87379822 C15.8246505,9.87379822 16.720081,10.7692287 16.720081,11.8737982 L16.720081,15 C16.720081,16.1045695 15.8246505,17 14.720081,17 L7.20852431,17 C6.10395481,17 5.20852431,16.1045695 5.20852431,15 L5.20852431,11.8737982 C5.20852431,10.7692287 6.10395481,9.87379822 7.20852431,9.87379822 L14.720081,9.87379822 Z M0.823169368,13.7109838 C1.12591495,13.7109838 1.37133874,13.9564076 1.37133874,14.2591532 L1.37133874,14.8073225 L1.9195081,14.8073225 C2.22225368,14.8073225 2.46767747,15.0527463 2.46767747,15.3554919 C2.46767747,15.6582375 2.22225368,15.9036613 1.9195081,15.9036613 L0.823169368,15.9036613 C0.520423786,15.9036613 0.275,15.6582375 0.275,15.3554919 L0.275,14.2591532 C0.275,13.9564076 0.520423786,13.7109838 0.823169368,13.7109838 Z M4.11218557,14.8073225 C4.41493115,14.8073225 4.66035494,15.0527463 4.66035494,15.3554919 C4.66035494,15.6582375 4.41493115,15.9036613 4.11218557,15.9036613 L3.56401621,15.9036613 C3.26127062,15.9036613 3.01584684,15.6582375 3.01584684,15.3554919 C3.01584684,15.0527463 3.26127062,14.8073225 3.56401621,14.8073225 Z M0.823169368,10.4219676 C1.12591495,10.4219676 1.37133874,10.6673914 1.37133874,10.970137 L1.37133874,12.6146451 C1.37133874,12.9173906 1.12591495,13.1628144 0.823169368,13.1628144 C0.520423786,13.1628144 0.275,12.9173906 0.275,12.6146451 L0.275,10.970137 C0.275,10.6673914 0.520423786,10.4219676 0.823169368,10.4219676 Z M0.823169368,7.13295138 C1.12591495,7.13295138 1.37133874,7.37837517 1.37133874,7.68112075 L1.37133874,9.32562885 C1.37133874,9.62837444 1.12591495,9.87379822 0.823169368,9.87379822 C0.520423786,9.87379822 0.275,9.62837444 0.275,9.32562885 L0.275,7.68112075 C0.275,7.37837517 0.520423786,7.13295138 0.823169368,7.13295138 Z M6.85303241,7.13295138 C7.15577799,7.13295138 7.40120178,7.37837517 7.40120178,7.68112075 L7.40120178,8.77745949 C7.40120178,9.08020507 7.15577799,9.32562885 6.85303241,9.32562885 C6.55028683,9.32562885 6.30486304,9.08020507 6.30486304,8.77745949 L6.30486304,7.68112075 C6.30486304,7.37837517 6.55028683,7.13295138 6.85303241,7.13295138 Z M10.7392826,0.00163732209 L10.835761,0.0178790026 C11.0274171,0.0680449638 11.177092,0.217719847 11.227258,0.409375992 C11.2607019,0.537146754 11.2644117,0.951107327 11.2383874,1.65125771 C13.0539843,1.65337221 14.5252891,3.124677 14.5274036,4.94027391 L14.5274036,7.45417863 C14.5274036,7.75692422 14.2819798,8.002348 13.9792342,8.002348 C13.6764886,8.002348 13.4310648,7.75692422 13.4310648,7.45417863 L13.4310648,4.94027391 C13.4298562,3.72979259 12.4488687,2.76995323 11.2383874,2.76874456 C11.2678249,3.59849218 11.2120612,4.08384847 11.0710962,4.22481344 C10.8596488,4.43626089 10.5177523,4.43923188 10.3026622,4.23149092 L8.65815414,2.58698282 C8.65486512,2.5836938 8.65431695,2.57930845 8.65102794,2.57601943 C8.60393558,2.52763337 8.56620715,2.47094779 8.53974955,2.40937594 C8.45540141,2.20928635 8.49925671,1.97812783 8.65102794,1.82283472 C8.65431695,1.8195457 8.65486512,1.81516035 8.65815414,1.81187133 L10.3026622,0.16736323 C10.4402936,0.024862994 10.6441048,-0.0322869586 10.835761,0.0178790026 Z M6.85303241,4.39210455 C7.15577799,4.39210455 7.40120178,4.63752833 7.40120178,4.94027391 L7.40120178,6.03661265 C7.40120178,6.33935823 7.15577799,6.58478202 6.85303241,6.58478202 C6.55028683,6.58478202 6.30486304,6.33935823 6.30486304,6.03661265 L6.30486304,5.48844328 L5.75669368,5.48844328 C5.45394809,5.48844328 5.20852431,5.2430195 5.20852431,4.94027391 C5.20852431,4.63752833 5.45394809,4.39210455 5.75669368,4.39210455 Z M1.9195081,4.39210455 C2.22225368,4.39210455 2.46767747,4.63752833 2.46767747,4.94027391 C2.46767747,5.2430195 2.22225368,5.48844328 1.9195081,5.48844328 L1.37133874,5.48844328 L1.37133874,6.03661265 C1.37133874,6.33935823 1.12591495,6.58478202 0.823169368,6.58478202 C0.520423786,6.58478202 0.275,6.33935823 0.275,6.03661265 L0.275,4.94027391 C0.275,4.63752833 0.520423786,4.39210455 0.823169368,4.39210455 Z M4.11218557,4.39210455 C4.41493115,4.39210455 4.66035494,4.63752833 4.66035494,4.94027391 C4.66035494,5.2430195 4.41493115,5.48844328 4.11218557,5.48844328 L3.56401621,5.48844328 C3.26127062,5.48844328 3.01584684,5.2430195 3.01584684,4.94027391 C3.01584684,4.63752833 3.26127062,4.39210455 3.56401621,4.39210455 Z" id="Combined-Shape" fill="color(display-p3 0.000 0.000 0.000)" transform="translate(8.4975, 8.5) scale(-1, 1) translate(-8.4975, -8.5)"></path>
    </g>
</svg>