<?xml version="1.0" encoding="UTF-8"?>
<svg width="18px" height="18px" viewBox="0 0 18 18" version="1.1" xmlns="http://www.w3.org/2000/svg" xmlns:xlink="http://www.w3.org/1999/xlink">
    <title>Scale</title>
    <g id="Scale" stroke="none" stroke-width="1" fill="none" fill-rule="evenodd">
        <path d="M15.8571429,0 L2.14285714,0 C0.961285714,0 0,0.961285714 0,2.14285714 L0,15.8571429 C0,17.0387143 0.961285714,18 2.14285714,18 L15.8571429,18 C17.0387143,18 18,17.0387143 18,15.8571429 L18,2.14285714 C18,0.961285714 17.0387143,0 15.8571429,0 Z M13.1798571,8.14285714 L9.42857143,8.14285714 L10.2857143,4.71428571 L7.71428571,8.14285714 L4.82014286,8.14285714 L2.721,5.478 C3.37714286,4.87885714 4.09842857,4.38171429 4.86471429,3.99342857 L5.38714286,5.25385714 L6.17914286,4.926 L5.64685714,3.64114286 C6.57814286,3.27257143 7.56428571,3.06814286 8.57185714,3.02014286 L8.57185714,4.71428571 L9.429,4.71428571 L9.429,3.02014286 C10.4365714,3.06771429 11.4227143,3.27257143 12.354,3.64071429 L11.8217143,4.92514286 L12.6137143,5.253 L13.1357143,3.99257143 C13.902,4.38085714 14.6228571,4.87842857 15.279,5.47757143 L13.1798571,8.14285714 Z" id="Shape" fill="#000000" fill-rule="nonzero"></path>
    </g>
</svg>