<?xml version="1.0" encoding="UTF-8"?>
<svg width="18px" height="18px" viewBox="0 0 18 18" version="1.1" xmlns="http://www.w3.org/2000/svg" xmlns:xlink="http://www.w3.org/1999/xlink">
    <title>Scale</title>
    <g id="Scale" stroke="none" stroke-width="1" fill="none" fill-rule="evenodd">
        <path d="M6.43005,0 C5.48289925,0 4.71575,0.767142857 4.71575,1.71428571 L4.71575,2.57142857 C4.71575,3.51857143 5.48289925,4.28571429 6.43005,4.28571429 L8.14435,4.28571429 L8.14435,9.42857143 L3.97244023,9.42857143 C3.36986378,9.42857143 2.81199311,9.74460257 2.50256196,10.2606026 L0.43,13.7142857 L17.573,13.7142857 L15.5004379,10.2606026 C15.1901496,9.74460257 14.6322786,9.42857143 14.0305602,9.42857143 L9.85865,9.42857143 L9.85865,4.28571429 L11.57295,4.28571429 C12.5201008,4.28571429 13.28725,3.51857143 13.28725,2.57142857 L13.28725,1.71428571 C13.28725,0.767142857 12.5201008,0 11.57295,0 L6.43005,0 Z M9.85865,1.71428571 L11.57295,1.71428571 L11.57295,2.57142857 L9.85865,2.57142857 L9.85865,1.71428571 Z M0.43,15.4285714 L0.43,16.2857143 C0.43,17.2328571 1.19714925,18 2.1443,18 L15.8587,18 C16.8058508,18 17.573,17.2328571 17.573,16.2857143 L17.573,15.4285714 L0.43,15.4285714 Z" id="Shape" fill="#000000" fill-rule="nonzero"></path>
    </g>
</svg>