<?xml version="1.0" encoding="UTF-8"?>
<svg width="17px" height="17px" viewBox="0 0 17 17" version="1.1" xmlns="http://www.w3.org/2000/svg" xmlns:xlink="http://www.w3.org/1999/xlink">
    <title>School</title>
    <g id="School" stroke="none" fill="none" fill-rule="nonzero">
        <path d="M5.90580043,0 C4.92779619,0 4.1349671,0.792829089 4.1349671,1.77083333 C4.1349671,2.74883758 4.92779619,3.54166667 5.90580043,3.54166667 C6.88380468,3.54166667 7.67663377,2.74883758 7.67663377,1.77083333 C7.67663377,1.30117913 7.49006436,0.850760745 7.15796869,0.518665075 C6.82587302,0.186569405 6.37545463,0 5.90580043,0 L5.90580043,0 Z M15.4683004,3.54166667 C14.685897,3.54166667 14.0516338,4.17592994 14.0516338,4.95833333 C14.0516338,5.74073673 14.685897,6.375 15.4683004,6.375 C16.2507038,6.375 16.8849671,5.74073673 16.8849671,4.95833333 C16.8849671,4.17592994 16.2507038,3.54166667 15.4683004,3.54166667 Z M1.65441699,4.2403052 C1.31767311,4.24175095 1.02848014,4.48004596 0.962685217,4.81030272 L0.0205464922,9.20971671 C-0.0411782823,9.46050917 0.0384791215,9.72501963 0.228431377,9.90001947 C0.418383633,10.0750193 0.688523888,10.1327716 0.933426432,10.0507378 C1.17832898,9.96870395 1.3591775,9.7598861 1.40539355,9.50577808 L2.34891565,5.10636367 C2.39704517,4.89552192 2.34622763,4.67424403 2.21093062,4.50552708 C2.07563361,4.33681012 1.87067911,4.2391373 1.65441699,4.2403052 Z M5.1974671,4.95833333 C4.33281483,4.95855064 3.59474391,5.5831623 3.45153608,6.43587275 L2.78332324,9.49747713 C2.74073309,9.63315161 2.71881314,9.77446532 2.71830043,9.91666667 C2.71908573,10.2197225 2.81703475,10.5145394 2.99776003,10.7578125 L6.2544336,16.4562989 L6.34159118,16.6223145 C6.51933838,16.9575894 6.9296667,17.0933172 7.27228212,16.930167 C7.61489754,16.7670168 7.76816252,16.3629114 7.61991185,16.0135906 L5.8615296,10.7425947 L6.23783168,9.44075521 C6.24188923,9.44681403 6.24604009,9.45280984 6.25028277,9.4587405 L7.78039327,11.3291832 C7.93919167,11.5300287 8.19400944,11.6295556 8.44689663,11.5895066 C8.69978381,11.5494576 8.91138023,11.3760659 9.00034989,11.1359821 C9.08931955,10.8958982 9.04181491,10.6264896 8.87609639,10.4313148 L7.45112948,8.68953442 L6.96138285,6.58390308 C6.88580617,5.66569021 6.11878489,4.95882732 5.1974671,4.95833333 Z M11.1422099,7.07363929 C10.8317077,7.07203044 10.5563414,7.27280679 10.4629295,7.56892912 L9.52770781,10.4022625 C9.44298044,10.6438622 9.49520793,10.9123792 9.66431624,11.1046071 C9.83342454,11.2968349 10.0930959,11.3828576 10.3435236,11.3296118 C10.5939513,11.276366 10.7961621,11.0921381 10.8724347,10.8477375 L11.8090391,8.01440421 C11.8840997,7.79821942 11.8501037,7.55909053 11.7177665,7.3723907 C11.5854293,7.18569087 11.3710534,7.07441943 11.1422099,7.07363929 L11.1422099,7.07363929 Z M14.0668516,7.78613317 C14.014441,7.78448486 13.9620093,7.78866081 13.9105203,7.79858425 C13.3495839,7.8555086 12.8758004,8.23964258 12.7041401,8.77669271 L12.7027567,8.77807608 C12.6968994,8.79503224 12.6913647,8.81209812 12.6861555,8.8292645 L12.0497619,10.7605792 C11.9692608,10.9408329 11.9273215,11.1359217 11.9266338,11.3333333 C11.9268416,11.6700933 12.047007,11.9957657 12.2655826,12.2519531 L14.7834859,16.5157876 L14.8443586,16.627848 C15.0307845,16.9641406 15.4513538,17.0904462 15.7922136,16.9125084 C16.1330734,16.7345705 16.2698812,16.3172994 16.1005432,15.9720865 L14.5662819,12.2049155 L14.7890201,11.4384769 L15.6232484,12.4829916 C15.7769283,12.692685 16.0331223,12.8013516 16.2906992,12.7660959 C16.5482762,12.7308403 16.765847,12.5573275 16.8575271,12.3140507 C16.9492071,12.0707738 16.9002645,11.7968242 16.7300192,11.6003417 L15.8127828,10.4506834 L15.4143453,8.81404596 C15.4017262,8.76379745 15.3836329,8.7150849 15.3603901,8.66878237 C15.1577721,8.17760905 14.6973512,7.84110648 14.1678444,7.79720017 C14.1344884,7.79109879 14.1007373,7.78740029 14.0668516,7.78613317 Z M2.32816375,12.4442543 L2.16629846,13.2217613 L0.959918255,15.9568687 C0.775751588,16.3011187 0.905487301,16.7321175 1.25044563,16.9169918 C1.35740397,16.9736592 1.47123533,17 1.58386033,17 C1.83673533,17 2.08097752,16.865173 2.20918585,16.6264647 L3.47643845,14.4530437 L2.32816375,12.4442543 Z M11.4106016,13.5911458 L11.1989318,14.3617353 L9.96626602,15.8378906 C9.71551602,16.138224 9.75585773,16.5853261 10.0561911,16.8353678 C10.1886494,16.9465761 10.3491754,17 10.5099671,17 C10.7125504,17 10.9134182,16.9133177 11.0536682,16.7454427 L12.3997785,15.2651365 L11.4106016,13.5911458 Z" id="Shape" fill="color(display-p3 0.000 0.000 0.000)"></path>
    </g>
</svg>