<?xml version="1.0" encoding="UTF-8"?>
<svg width="20px" height="20px" viewBox="0 0 20 20" version="1.1" xmlns="http://www.w3.org/2000/svg" xmlns:xlink="http://www.w3.org/1999/xlink">
    <title>Search alt</title>
    <g id="Search-alt" stroke="none" stroke-width="1" fill="none" fill-rule="evenodd">
        <path d="M7,1.77635684e-15 C3.1458514,1.77635684e-15 -3.55271368e-14,3.1458514 -3.55271368e-14,7 C-3.55271368e-14,10.854149 3.1458514,14 7,14 C8.747998,14 10.345009,13.348024 11.574219,12.28125 L12,12.707031 L12,14 L17.585938,19.585938 C18.137937,20.137937 19.033938,20.137938 19.585938,19.585938 C20.137938,19.033938 20.137938,18.137938 19.585938,17.585938 L14,12 L12.707031,12 L12.28125,11.574219 C13.348024,10.345009 14,8.747998 14,7 C14,3.1458514 10.854149,1.77635684e-15 7,1.77635684e-15 Z M7,2 C9.773268,2 12,4.2267316 12,7 C12,9.773268 9.773268,12 7,12 C4.2267316,12 2,9.773268 2,7 C2,4.2267316 4.2267316,2 7,2 Z" id="Shape" fill="#000000" fill-rule="nonzero"></path>
    </g>
</svg>