<?xml version="1.0" encoding="UTF-8"?>
<svg width="16px" height="16px" viewBox="0 0 16 16" version="1.1" xmlns="http://www.w3.org/2000/svg" xmlns:xlink="http://www.w3.org/1999/xlink">
    <title>Search_off_rounded</title>
    <g id="Search_off_rounded" stroke="none" fill="none" fill-rule="nonzero">
        <path d="M0.886983997,11.5049129 C2.80597604,15.0551398 7.22582397,16.3650389 10.7400981,14.4264425 C11.2892021,14.1228118 11.7843996,13.7588077 12.2217562,13.3461883 L14.6158989,15.2793205 C14.7448082,15.3834073 14.9336888,15.3632847 15.0377756,15.2343754 C15.0384115,15.2335879 15.0390434,15.2327971 15.0396713,15.2320031 L15.8157631,14.2506713 C15.9178118,14.1216355 15.8969061,13.9344862 15.7689,13.8311489 L13.3912363,11.9116984 L13.3912363,11.9116984 C14.7515144,9.73174408 14.938378,6.89193343 13.6320967,4.47453302 C11.7150267,0.924315204 7.29519684,-0.387555668 3.78088198,1.55105434 C0.266589723,3.48965982 -1.03200352,7.95468604 0.886983997,11.5049129 Z M2.50155847,10.613467 C1.07002165,7.96246449 2.0372215,4.63024663 4.6613793,3.18213087 C7.28556424,1.73595973 10.5840318,2.71304996 12.0175268,5.36405696 C13.4490319,8.01501421 12.4818366,11.3472637 9.8576969,12.7953659 C7.23351197,14.2415235 3.93501729,13.2644242 2.50155847,10.613467 Z" id="Shape" fill="color(display-p3 0.000 0.000 0.000)"></path>
    </g>
</svg>