<?xml version="1.0" encoding="UTF-8"?>
<svg width="16px" height="16px" viewBox="0 0 16 16" version="1.1" xmlns="http://www.w3.org/2000/svg" xmlns:xlink="http://www.w3.org/1999/xlink">
    <title>Search_off</title>
    <g id="Search_off" stroke="none" fill="none" fill-rule="nonzero">
        <path d="M0.886983997,11.4449129 C2.80597604,14.9951398 7.22582397,16.3050389 10.7400981,14.3664425 C11.2892021,14.0628118 11.7843996,13.6988077 12.2217562,13.2861883 L14.8516845,15.4097037 L16,13.9577123 L13.3912363,11.8516984 C14.7515144,9.67174408 14.938378,6.83193343 13.6320967,4.41453302 C11.7150267,0.864315204 7.29519684,-0.447555668 3.78088198,1.49105434 C0.266589723,3.42965982 -1.03200352,7.89468604 0.886983997,11.4449129 Z M2.50155847,10.553467 C1.07002165,7.90246449 2.0372215,4.57024663 4.6613793,3.12213087 C7.28556424,1.67595973 10.5840318,2.65304996 12.0175268,5.30405696 C13.4490319,7.95501421 12.4818366,11.2872637 9.8576969,12.7353659 C7.23351197,14.1815235 3.93501729,13.2044242 2.50155847,10.553467 Z" id="Shape" fill="color(display-p3 0.000 0.000 0.000)"></path>
    </g>
</svg>