<?xml version="1.0" encoding="UTF-8"?>
<svg width="17px" height="17px" viewBox="0 0 17 17" version="1.1" xmlns="http://www.w3.org/2000/svg" xmlns:xlink="http://www.w3.org/1999/xlink">
    <title>send</title>
    <g id="send" stroke="none" fill="none" fill-rule="nonzero">
        <path d="M1.41666661,0 C0.634263248,0 -1.11910481e-12,0.634263248 -1.11910481e-12,1.41666661 L-1.11910481e-12,5.66666646 C0.000944735402,6.26800298 0.381421237,6.80322147 0.94905599,7.00170899 C1.09922611,7.05502287 1.25731504,7.08261819 1.41666661,7.08333307 C1.42173928,7.08336032 1.42681206,7.08336032 1.43188473,7.08333307 L9.9166663,8.5 L1.43188473,9.91804968 C1.42681455,9.9175612 1.42174177,9.91710006 1.41666661,9.9166663 C1.25685027,9.91722542 1.09828063,9.94482299 0.947672473,9.99829038 C0.380583614,10.1972461 0.000738498307,10.7323565 -1.11910481e-12,11.3333329 L-1.11910481e-12,15.5833328 C-1.11910481e-12,16.3657361 0.634263248,17 1.41666661,17 C1.66331778,16.9995329 1.90557332,16.9346771 2.11946607,16.8118483 L2.12084951,16.8118483 L16.5683588,9.15299445 L16.5697421,9.1502277 C16.830279,9.03901918 16.9995035,8.78327789 17,8.5 C17.0003764,8.21538334 16.8303626,7.95818303 16.5683588,7.84700492 L2.12084951,0.188151035 C1.90654984,0.0650893729 1.66378697,0.000225421079 1.41666661,0 Z" id="Path" fill="color(display-p3 0.000 0.000 0.000)"></path>
    </g>
</svg>