<?xml version="1.0" encoding="UTF-8"?>
<svg width="17px" height="17px" viewBox="0 0 17 17" version="1.1" xmlns="http://www.w3.org/2000/svg" xmlns:xlink="http://www.w3.org/1999/xlink">
    <title>Shapes</title>
    <g id="Shapes" stroke="none" fill="none" fill-rule="nonzero">
        <path d="M3.77784415,9.44 C1.69143468,9.44 6.56203584e-05,11.1313691 6.56203584e-05,13.2177785 C6.56203584e-05,15.304188 1.69143468,16.9955571 3.77784415,16.9955571 C4.77977331,16.9955571 5.74066606,16.5975422 6.44913696,15.8890713 C7.15760787,15.1806004 7.55562268,14.2197077 7.55562268,13.2177785 C7.55562268,11.1313691 5.86425362,9.44 3.77784415,9.44 Z M11.3334012,9.44 C10.2897899,9.44 9.44451194,10.2852779 9.44451194,11.3288893 L9.44451194,15.1066678 C9.44451194,16.1502791 10.2897899,16.9955571 11.3334012,16.9955571 L15.1111797,16.9955571 C16.1547911,16.9955571 17.000069,16.1502791 17.000069,15.1066678 L17.000069,11.3288893 C17.000069,10.2852779 16.1547911,9.44 15.1111797,9.44 L11.3334012,9.44 Z M3.78522262,2.22044605e-14 C3.42482047,-0.00280515489 3.09421835,0.199706412 2.93300896,0.522056033 L0.0996750624,6.18872383 C-0.0466826876,6.48151486 -0.031014408,6.82920941 0.141084937,7.1076497 C0.313184281,7.38609 0.617176812,7.55558643 0.944510253,7.55558643 L6.61117805,7.55558643 C6.93851145,7.55558643 7.24250392,7.38608991 7.41460322,7.10764962 C7.58670252,6.82920934 7.60237078,6.48151483 7.45601305,6.18872383 L4.62267934,0.522056033 C4.46384753,0.204461274 4.14030907,0.00278434541 3.78522262,2.22044605e-14 L3.78522262,2.22044605e-14 Z" id="Shape" fill="color(display-p3 0.000 0.000 0.000)"></path>
        <path d="M11.519,0 C10.3741215,0 9.44,1.09581659 9.44,2.43887181 C9.44,3.34705313 10.0235649,4.20215373 10.7349452,5.07910641 C11.1698322,5.61521224 11.9016494,6.41114505 12.9303966,7.46690485 L12.9275949,7.46962706 C13.0815407,7.62806832 13.3347805,7.6317126 13.4932217,7.47776678 C13.4947371,7.47629441 13.4962408,7.47481006 13.4977326,7.47331386 C14.5335812,6.41453679 15.2692414,5.61635411 15.7050548,5.07910641 C16.4164353,4.20215373 17,3.34705313 17,2.43887181 C17,1.09581659 16.0658785,0 14.921,0 C14.2639536,0 13.6918992,0.413829609 13.22,1.11680574 C12.7481008,0.413829609 12.1760464,0 11.519,0 Z" id="Path" fill="color(display-p3 0.000 0.000 0.000)"></path>
    </g>
</svg>