<?xml version="1.0" encoding="UTF-8"?>
<svg width="20px" height="20px" viewBox="0 0 20 20" version="1.1" xmlns="http://www.w3.org/2000/svg" xmlns:xlink="http://www.w3.org/1999/xlink">
    <title>Shop</title>
    <g id="Shop" stroke="none" fill="none" fill-rule="nonzero">
        <path d="M3,1 C2.448,1 2,1.448 2,2 L2,5 L0.0722656,9.820312 C0.0242656,9.938313 0,10.065359 0,10.193359 L0,12 L1,12 L1,17 C1,18.093063 1.9069372,19 3,19 L17,19 C18.093063,19 19,18.093063 19,17 L19,12 L20,12 L20,10.193359 C20,10.066359 19.975734,9.940266 19.927734,9.822266 L18,5 L18,2 C18,1.448 17.552,1 17,1 L3,1 Z M5,3 C5.552,3 6,3.448 6,4 C6,4.552 5.552,5 5,5 C4.448,5 4,4.552 4,4 C4,3.448 4.448,3 5,3 Z M8,3 C8.552,3 9,3.448 9,4 C9,4.552 8.552,5 8,5 C7.448,5 7,4.552 7,4 C7,3.448 7.448,3 8,3 Z M3,12 L17,12 L17,17 L3,17 L3,12 Z" id="Shape" fill="#000000"></path>
    </g>
</svg>