<?xml version="1.0" encoding="UTF-8"?>
<svg width="20px" height="20px" viewBox="0 0 20 20" version="1.1" xmlns="http://www.w3.org/2000/svg" xmlns:xlink="http://www.w3.org/1999/xlink">
    <title>Shopping cart</title>
    <g id="Shopping-cart" stroke="none" fill="none" fill-rule="nonzero">
        <path d="M19.9790386,5.68475025 L18.0411339,13.4377482 C17.8873429,14.0529123 17.3370055,14.4825616 16.7025314,14.4825616 L4.7516595,14.4825616 C4.05166902,14.4825616 3.46271151,13.9584308 3.38202296,13.2632678 L1.98549023,2.06893737 L1.03446869,2.06893737 C0.462752325,2.06893737 0,1.60618505 0,1.03446869 C0,0.462752325 0.462752325,0 1.03446869,0 L2.88754693,0 C3.40478127,0 3.8420167,0.382063768 3.91236057,0.893780945 L4.45166358,4.82752053 L19.3100821,4.82752053 C19.7583519,4.82752053 20.0880026,5.24958376 19.9790386,5.68475025 Z M4.13787474,17.9307906 C4.13787474,19.0714647 5.06613798,19.9997279 6.20681212,19.9997279 C7.34748625,19.9997279 8.27574949,19.0714647 8.27574949,17.9307906 C8.27574949,16.7901164 7.34748625,15.8618532 6.20681212,15.8618532 C5.06613798,15.8618532 4.13787474,16.7901164 4.13787474,17.9307906 Z M16.551499,17.9307906 C16.551499,16.7901164 15.6232357,15.8618532 14.4825616,15.8618532 C13.3418875,15.8618532 12.4136242,16.7901164 12.4136242,17.9307906 C12.4136242,19.0714647 13.3418875,19.9997279 14.4825616,19.9997279 C15.6232357,19.9997279 16.551499,19.0714647 16.551499,17.9307906 Z" id="Shape" fill="color(display-p3 0.000 0.000 0.000)"></path>
    </g>
</svg>