<?xml version="1.0" encoding="UTF-8"?>
<svg width="20px" height="20px" viewBox="0 0 20 20" version="1.1" xmlns="http://www.w3.org/2000/svg" xmlns:xlink="http://www.w3.org/1999/xlink">
    <title>Shopping bag</title>
    <g id="Shopping-bag" stroke="none" fill="none" fill-rule="nonzero">
        <path d="M14.484933,4.21997333 C14.3382863,1.86666 12.3849597,0 9.99827965,0 C7.61159965,0 5.65827299,1.86666 5.51162632,4.21997333 L2.77159299,4.21997333 C2.27826632,4.21997333 1.85825965,4.59334667 1.81159299,5.09334667 L0.584946318,17.43998 C0.524926318,18.09334 0.738266318,18.74666 1.17828632,19.2333133 C1.61827299,19.7199733 2.24494632,20 2.90493965,20 L17.0916263,20 C17.7516197,20 18.3782863,19.7199733 18.818273,19.23332 C19.258293,18.7466667 19.471633,18.0933467 19.411613,17.4399867 L18.1849663,5.09334 C18.138293,4.59334 17.718293,4.21996667 17.2249663,4.21996667 L14.484933,4.21996667 L14.484933,4.21997333 Z M9.99827965,1.93330667 C11.3182663,1.93330667 12.391633,2.93998 12.5382797,4.21996667 L7.45827965,4.21996667 C7.60492632,2.93998 8.67829299,1.93330667 9.99827965,1.93330667 Z M3.65159965,6.15332 L5.49827965,6.15332 L5.49827965,7.45332667 C5.49827965,7.98665333 5.93162632,8.42 6.46495299,8.42 C6.99827965,8.42 7.43162632,7.98665333 7.43162632,7.45332667 L7.43162632,6.15332 L12.5649263,6.15332 L12.5649263,7.45332667 C12.5649263,7.98665333 12.998273,8.42 13.5315997,8.42 C14.0649263,8.42 14.4982797,7.98665333 14.4982797,7.45332667 L14.4982797,6.15332 L16.3449597,6.15332 L17.0849463,13.5999733 L2.91161299,13.5999733 L3.65159965,6.15332 Z" id="Shape" fill="color(display-p3 0.000 0.000 0.000)"></path>
    </g>
</svg>