<?xml version="1.0" encoding="UTF-8"?>
<svg width="20px" height="20px" viewBox="0 0 20 20" version="1.1" xmlns="http://www.w3.org/2000/svg" xmlns:xlink="http://www.w3.org/1999/xlink">
    <title>Shopping cart</title>
    <g id="Shopping-cart" stroke="none" fill="none" fill-rule="nonzero">
        <path d="M19.7464273,3.08635547 C19.5487474,2.85893396 19.2623021,2.72821487 18.9609754,2.72791511 L4.60362093,2.72791511 L4.40102421,1.51856852 C4.31773502,1.01758356 3.88447322,0.650233797 3.37661206,0.65 L1.03895756,0.65 C0.465157142,0.65 0,1.11515714 0,1.68895756 C0,2.26275797 0.465157142,2.72791511 1.03895756,2.72791511 L2.49661501,2.72791511 L4.42907606,14.3268373 L4.47582915,14.455668 L4.53193286,14.6125506 L4.65660777,14.798524 L4.75530873,14.9148872 L4.95582754,15.0499517 L5.07219079,15.117484 C5.19301988,15.1679852 5.32253349,15.1944526 5.45348821,15.1954058 L16.8830603,15.1954058 C17.4568607,15.1954058 17.9220178,14.7302486 17.9220178,14.1564482 C17.9220178,13.5826478 17.4568607,13.1174907 16.8830603,13.1174907 L6.33452422,13.1174907 L6.16205727,12.0785331 L17.9220178,12.0785331 C18.4388774,12.078602 18.8771918,11.6987296 18.9505858,11.1871075 L19.9895434,3.91440464 C20.032115,3.61621457 19.9434438,3.31420223 19.7464273,3.08635547 L19.7464273,3.08635547 Z M17.7630573,4.80583022 L17.4669544,6.88374534 L13.7661876,6.88374534 L13.7661876,4.80583022 L17.7630573,4.80583022 Z M12.7272301,4.80583022 L12.7272301,6.88374534 L9.6103574,6.88374534 L9.6103574,4.80583022 L12.7272301,4.80583022 Z M12.7272301,7.92270289 L12.7272301,10.000618 L9.6103574,10.000618 L9.6103574,7.92270289 L12.7272301,7.92270289 Z M8.57139984,4.80583022 L8.57139984,6.88374534 L5.45452717,6.88374534 L5.30076145,6.91491406 L4.9495938,4.80583022 L8.57139984,4.80583022 Z M5.46907258,7.92270289 L8.57139984,7.92270289 L8.57139984,10.000618 L5.81504544,10.000618 L5.46907258,7.92270289 L5.46907258,7.92270289 Z M7.0129635,16.2343633 C7.87366413,16.2343633 8.57139984,16.9320991 8.57139984,17.7927997 C8.57139984,18.6535003 7.87366413,19.351236 7.0129635,19.351236 C6.15226288,19.351236 5.45452717,18.6535003 5.45452717,17.7927997 C5.45452717,16.9320991 6.15226288,16.2343633 7.0129635,16.2343633 Z M16.3635815,16.2343633 C17.2242821,16.2343633 17.9220178,16.9320991 17.9220178,17.7927997 C17.9220178,18.6535003 17.2242821,19.351236 16.3635815,19.351236 C15.5028809,19.351236 14.8051452,18.6535003 14.8051452,17.7927997 C14.8051452,16.9320991 15.5028809,16.2343633 16.3635815,16.2343633 Z M17.3173445,7.92270289 L17.0212416,10.000618 L13.7661876,10.000618 L13.7661876,7.92270289 L17.3173445,7.92270289 Z" id="Shape" fill="color(display-p3 0.000 0.000 0.000)"></path>
    </g>
</svg>