<?xml version="1.0" encoding="UTF-8"?>
<svg width="17px" height="17px" viewBox="0 0 17 17" version="1.1" xmlns="http://www.w3.org/2000/svg" xmlns:xlink="http://www.w3.org/1999/xlink">
    <title>Slack</title>
    <g id="Slack" stroke="none" fill="none" fill-rule="nonzero">
        <path d="M12.5652174,1.84782609 C12.5652174,0.827086957 11.7381304,0 10.7173913,0 C9.69665217,0 8.86956522,0.827086957 8.86956522,1.84782609 C8.86956522,2.43617391 8.86956522,5.69278261 8.86956522,6.2826087 C8.86956522,7.30334783 9.69665217,8.13043478 10.7173913,8.13043478 C11.7381304,8.13043478 12.5652174,7.30334783 12.5652174,6.2826087 C12.5652174,5.69278261 12.5652174,2.43617391 12.5652174,1.84782609 Z M17,6.2826087 C17,7.30334783 16.172913,8.13043478 15.1521739,8.13043478 C14.6931739,8.13043478 13.3043478,8.13043478 13.3043478,8.13043478 C13.3043478,8.13043478 13.3043478,6.84434783 13.3043478,6.2826087 C13.3043478,5.26186957 14.1314348,4.43478261 15.1521739,4.43478261 C16.172913,4.43478261 17,5.26186957 17,6.2826087 Z M15.1521739,12.5652174 C16.172913,12.5652174 17,11.7381304 17,10.7173913 C17,9.69665217 16.172913,8.86956522 15.1521739,8.86956522 C14.5638261,8.86956522 11.3072174,8.86956522 10.7173913,8.86956522 C9.69665217,8.86956522 8.86956522,9.69665217 8.86956522,10.7173913 C8.86956522,11.7381304 9.69665217,12.5652174 10.7173913,12.5652174 C11.3072174,12.5652174 14.5638261,12.5652174 15.1521739,12.5652174 Z M10.7173913,17 C9.69665217,17 8.86956522,16.172913 8.86956522,15.1521739 C8.86956522,14.6931739 8.86956522,13.3043478 8.86956522,13.3043478 C8.86956522,13.3043478 10.1556522,13.3043478 10.7173913,13.3043478 C11.7381304,13.3043478 12.5652174,14.1314348 12.5652174,15.1521739 C12.5652174,16.172913 11.7381304,17 10.7173913,17 Z M4.43478261,15.1521739 C4.43478261,16.172913 5.26186957,17 6.2826087,17 C7.30334783,17 8.13043478,16.172913 8.13043478,15.1521739 C8.13043478,14.5638261 8.13043478,11.3072174 8.13043478,10.7173913 C8.13043478,9.69665217 7.30334783,8.86956522 6.2826087,8.86956522 C5.26186957,8.86956522 4.43478261,9.69665217 4.43478261,10.7173913 C4.43478261,11.3072174 4.43478261,14.5638261 4.43478261,15.1521739 Z M0,10.7173913 C0,9.69665217 0.827086957,8.86956522 1.84782609,8.86956522 C2.30682609,8.86956522 3.69565217,8.86956522 3.69565217,8.86956522 C3.69565217,8.86956522 3.69565217,10.1556522 3.69565217,10.7173913 C3.69565217,11.7381304 2.86856522,12.5652174 1.84782609,12.5652174 C0.827086957,12.5652174 0,11.7381304 0,10.7173913 Z M1.84782609,4.43478261 C0.827086957,4.43478261 0,5.26186957 0,6.2826087 C0,7.30334783 0.827086957,8.13043478 1.84782609,8.13043478 C2.43617391,8.13043478 5.69278261,8.13043478 6.2826087,8.13043478 C7.30334783,8.13043478 8.13043478,7.30334783 8.13043478,6.2826087 C8.13043478,5.26186957 7.30334783,4.43478261 6.2826087,4.43478261 C5.69278261,4.43478261 2.43617391,4.43478261 1.84782609,4.43478261 Z M6.2826087,0 C7.30334783,0 8.13043478,0.827086957 8.13043478,1.84782609 C8.13043478,2.30682609 8.13043478,3.69565217 8.13043478,3.69565217 C8.13043478,3.69565217 6.84434783,3.69565217 6.2826087,3.69565217 C5.26186957,3.69565217 4.43478261,2.86856522 4.43478261,1.84782609 C4.43478261,0.827086957 5.26186957,0 6.2826087,0 Z" id="Shape" fill="color(display-p3 0.000 0.000 0.000)"></path>
    </g>
</svg>