<?xml version="1.0" encoding="UTF-8"?>
<svg width="17px" height="17px" viewBox="0 0 17 17" version="1.1" xmlns="http://www.w3.org/2000/svg" xmlns:xlink="http://www.w3.org/1999/xlink">
    <title>Sort</title>
    <g id="Sort" stroke="none" fill="none" fill-rule="evenodd" stroke-width="1">
        <g id="filter" transform="translate(1.72, 0)" fill="color(display-p3 0.000 0.000 0.000)">
            <path d="M12.9484652,10.4263742 L10.5198938,10.4263742 C10.184305,10.4263742 9.91275093,10.6979283 9.91275093,11.033517 C9.91275093,11.3691058 10.184305,11.6406599 10.5198938,11.6406599 L12.9484652,11.6406599 C13.284054,11.6406599 13.5556081,11.3691058 13.5556081,11.033517 C13.5556081,10.6979283 13.284054,10.4263742 12.9484652,10.4263742 Z M13.5556081,13.4620885 C13.5556081,13.1264997 13.284054,12.8549456 12.9484652,12.8549456 L10.5198938,12.8549456 C10.184305,12.8549456 9.91275093,13.1264997 9.91275093,13.4620885 C9.91275093,13.7976772 10.184305,14.0692313 10.5198938,14.0692313 L12.9484652,14.0692313 C13.284054,14.0692313 13.5556081,13.7976772 13.5556081,13.4620885 Z M12.9484652,7.99780276 L10.5198938,7.99780276 C10.184305,7.99780276 9.91275093,8.26935687 9.91275093,8.60494561 C9.91275093,8.94053436 10.184305,9.21208847 10.5198938,9.21208847 L12.9484652,9.21208847 C13.284054,9.21208847 13.5556081,8.94053436 13.5556081,8.60494561 C13.5556081,8.26935687 13.284054,7.99780276 12.9484652,7.99780276 Z" id="Shape" fill-rule="nonzero"></path>
            <path d="M4.97482371,16.9514182 C5.04767788,16.9817679 5.12660943,17 5.20550388,17 C5.36336697,17 5.51515268,16.9392635 5.63051128,16.8239048 L8.40515857,14.1039167 C8.52659455,13.9885581 8.58729402,13.8367724 8.58729402,13.6728319 L8.58729402,8.54854471 L11.4894547,3.64285714 L1.69623747,3.64285714 L4.59836108,8.54854478 L4.59836108,16.3928571 C4.59836102,16.6356921 4.75014673,16.8603319 4.97482371,16.9514182 Z M12.5823045,0 L0.609465112,0 C0.390865512,0 0.190535023,0.1153586 0.0812167052,0.303571429 C-0.0280645769,0.497861575 -0.0280645769,0.728578836 0.0872940838,0.916791664 L0.97981333,2.42857143 L12.2119562,2.42857143 L13.1044384,0.916791664 C13.2137197,0.728578836 13.2197971,0.497861575 13.1105158,0.303571429 C13.0012345,0.1153586 12.800867,0 12.5823045,0 Z" id="Shape" fill-rule="nonzero"></path>
        </g>
    </g>
</svg>