<?xml version="1.0" encoding="UTF-8"?>
<svg width="17px" height="17px" viewBox="0 0 17 17" version="1.1" xmlns="http://www.w3.org/2000/svg" xmlns:xlink="http://www.w3.org/1999/xlink">
    <title>spell_checker</title>
    <g id="spell_checker" stroke="none" fill="none" fill-rule="nonzero">
        <path d="M3.34673331,0.990097306 C3.02947943,0.995050754 2.74593997,1.18924338 2.62666428,1.48326357 L0.744297314,6.11701955 C0.702990539,6.18632305 0.672538362,6.26154252 0.653999278,6.34006339 L0.0581865295,7.80567039 C-0.105916342,8.21017339 0.0889664645,8.67111952 0.493469462,8.8352224 C0.89797246,8.99932528 1.3589186,8.80444248 1.52302148,8.39993948 L1.96447859,7.31250409 L4.75368497,7.31250409 L5.19514188,8.39993948 C5.35924477,8.80444256 5.82019097,8.99932542 6.22469405,8.83522255 C6.62919713,8.67111967 6.82408001,8.21017348 6.65997715,7.80567039 L6.06647939,6.34469416 C6.04765885,6.26359083 6.01614189,6.18597054 5.97309428,6.11470437 L4.09149939,1.48326357 C3.96884042,1.18090307 3.67298639,0.984995613 3.34673331,0.990097306 Z M8.29846206,0.990097306 C7.86200903,0.990097306 7.50820485,1.34394513 7.50816121,1.78039815 L7.50816121,4.61591106 C7.49422464,4.70075273 7.49422464,4.78729994 7.50816121,4.87214161 L7.50816121,8.10280494 C7.50820485,8.53925797 7.86200903,8.89310578 8.29846206,8.89310578 L10.9657274,8.89310578 C12.320341,8.89310578 13.4354176,7.77802922 13.4354176,6.42341563 C13.4354176,5.68322223 13.0855684,5.03625983 12.5625366,4.58195302 C12.8419348,4.20445633 13.0402671,3.76296385 13.0402671,3.26221224 C13.0402671,2.01671419 12.0136501,0.990097306 10.7681522,0.990097306 L8.29846206,0.990097306 Z M9.08876291,2.570699 L10.7681522,2.570699 C11.1593673,2.570699 11.4596654,2.87099712 11.4596654,3.26221224 C11.4596654,3.65342736 11.1593673,3.95372549 10.7681522,3.95372549 L9.08876291,3.95372549 L9.08876291,2.570699 Z M3.35908176,3.88040651 L4.11156553,5.73190239 L2.60659803,5.73190239 L3.35908176,3.88040651 Z M9.08876291,5.53432718 L10.7573472,5.53432718 L10.7681522,5.53432718 L10.9657274,5.53432718 C11.4659515,5.53432718 11.8548159,5.92319313 11.8548159,6.42341563 C11.8548159,6.92363814 11.4659499,7.31250409 10.9657274,7.31250409 L9.08876291,7.31250409 L9.08876291,5.53432718 Z M16.2385159,8.29266247 C16.0057584,8.28386762 15.7809723,8.37818724 15.6241803,8.55043608 L10.452495,14.0786834 L7.67177799,11.2979668 C7.47355744,11.0915079 7.17920955,11.0083408 6.9022549,11.0805401 C6.62530024,11.1527395 6.40901633,11.3690234 6.33681696,11.6459781 C6.26461758,11.9229327 6.34778477,12.2172806 6.55424359,12.4155012 L9.91302219,15.7742798 C10.0644213,15.9257806 10.2708234,16.0093511 10.4849776,16.0058595 C10.6991318,16.0023679 10.9026999,15.9121134 11.0490797,15.7557575 L16.7787608,9.63092591 C16.9950792,9.40642362 17.0592173,9.07573634 16.9425129,8.78664294 C16.8258085,8.49754954 16.5500682,8.30406813 16.2385159,8.29266247 L16.2385159,8.29266247 Z" id="Shape" fill="color(display-p3 0.000 0.000 0.000)"></path>
    </g>
</svg>