<?xml version="1.0" encoding="UTF-8"?>
<svg width="17px" height="17px" viewBox="0 0 17 17" version="1.1" xmlns="http://www.w3.org/2000/svg" xmlns:xlink="http://www.w3.org/1999/xlink">
    <title>split</title>
    <g id="split" stroke="none" fill="none" fill-rule="nonzero">
        <path d="M8.4813015,2.84217094e-14 C8.26036362,0.00339132751 8.04940742,0.0926535124 7.89319821,0.248932553 L5.34502596,2.79710501 C5.12313045,3.01014628 5.03374495,3.32650222 5.11134259,3.62416447 C5.18894023,3.92182671 5.42139544,4.15428192 5.71905768,4.23187956 C6.01671993,4.3094772 6.33307587,4.2200917 6.54611714,3.99819619 L7.64435305,2.89996071 L7.64435305,8.50643738 C6.93271777,7.96856876 6.05148548,7.64460434 5.09618081,7.64460434 L2.89970942,7.64460434 L3.9979449,6.54636843 C4.24916084,6.3021759 4.32469565,5.92880548 4.18815258,5.60616725 C4.0516095,5.28352902 3.73099951,5.07781024 3.38080986,5.08813737 C3.1601393,5.09471264 2.95069672,5.18693881 2.79685372,5.34527725 L0.248681265,7.89344949 C-0.082893755,8.2251619 -0.082893755,8.76282827 0.248681265,9.09454067 L2.79685372,11.6427129 C3.009895,11.8646084 3.32625094,11.9539939 3.62391318,11.8763963 C3.92157542,11.7987986 4.15403063,11.5663434 4.23162827,11.2686812 C4.30922591,10.971019 4.21984041,10.654663 3.9979449,10.4416217 L2.89970942,9.34338583 L5.09618081,9.34338583 C6.51337568,9.34338583 7.64435305,10.4743632 7.64435305,11.8915581 L7.64435305,16.1385118 C7.64002091,16.4448326 7.80095972,16.7297569 8.06554286,16.8841815 C8.330126,17.0386062 8.65736159,17.0386062 8.92194473,16.8841815 C9.18652787,16.7297569 9.34746668,16.4448326 9.34313454,16.1385118 L9.34313454,11.8915581 C9.34313454,10.4743632 10.4741119,9.34338583 11.8913068,9.34338583 L14.0877782,9.34338583 L12.9895427,10.4416217 C12.7676472,10.654663 12.6782617,10.971019 12.7558593,11.2686812 C12.833457,11.5663434 13.0659122,11.7987986 13.3635744,11.8763963 C13.6612367,11.9539939 13.9775926,11.8646084 14.1906339,11.6427129 L16.7388061,9.09454067 C17.0703811,8.76282827 17.0703811,8.2251619 16.7388061,7.89344949 L14.1906339,5.34527725 C14.0305176,5.18068592 13.8105888,5.08792673 13.5809641,5.08813737 C13.2354786,5.08856531 12.9246675,5.29818932 12.7948203,5.61834568 C12.664973,5.93850204 12.7419588,6.3054066 12.9895427,6.54636843 L14.0877782,7.64460434 L11.8913068,7.64460434 C10.9360021,7.64460434 10.0547698,7.96856876 9.34313454,8.50643738 L9.34313454,2.89996071 L10.4413705,3.99819619 C10.6544117,4.2200917 10.9707677,4.3094772 11.2684299,4.23187956 C11.5660922,4.15428192 11.7985474,3.92182671 11.876145,3.62416447 C11.9537426,3.32650222 11.8643571,3.01014628 11.6424616,2.79710501 L9.09428939,0.248932553 C8.93198265,0.0865573018 8.71086269,-0.00320724923 8.4813015,2.84217094e-14 Z" id="Path" fill="color(display-p3 0.000 0.000 0.000)"></path>
    </g>
</svg>