<?xml version="1.0" encoding="UTF-8"?>
<svg width="17px" height="17px" viewBox="0 0 17 17" version="1.1" xmlns="http://www.w3.org/2000/svg" xmlns:xlink="http://www.w3.org/1999/xlink">
    <title>status</title>
    <g id="status" stroke="none" fill="none" fill-rule="nonzero">
        <path d="M7.91349981,1.25963013e-05 C7.37223277,-0.00093577254 6.82934668,0.0516642127 6.29445463,0.158925956 C6.03459787,0.211140164 5.83858614,0.425094476 5.80984809,0.68859408 L5.63118362,2.32582191 C5.59192178,2.68201194 5.38391252,3.00150136 5.07305584,3.18040585 C4.76300869,3.35931035 4.38308962,3.3802442 4.0548282,3.23574441 L2.54566923,2.57247341 C2.30605055,2.46642595 2.0228759,2.52793064 1.84761426,2.72504939 C1.11742488,3.54631007 0.572287305,4.48595694 0.225406873,5.5164792 C0.141216524,5.76662168 0.228708187,6.04287127 0.442017431,6.19951389 L1.76618766,7.17109926 C2.05478246,7.38278942 2.22707797,7.72280794 2.22707797,8.08102168 C2.22707797,8.43923543 2.05516824,8.7788678 1.7669782,8.9901536 L0.433321378,9.96806297 C0.220821697,10.1243008 0.132944215,10.3989694 0.21592028,10.6495167 C0.55915786,11.6808484 1.10246134,12.6211911 1.83022215,13.4456899 C2.00548379,13.6436181 2.28823498,13.7067038 2.52906795,13.5998468 L4.03032112,12.9397382 C4.35736825,12.7956432 4.73848258,12.8157675 5.04933926,12.9950768 C5.35938641,13.1739813 5.56741469,13.493085 5.60667654,13.8488702 L5.78692201,15.4971654 C5.81566006,15.7594507 6.01091934,15.9730194 6.26915705,16.0260431 C6.80060863,16.1349239 7.34690362,16.1896869 7.89373613,16.1896869 C8.42721152,16.1896869 8.96559464,16.1360435 9.49380813,16.029996 C9.70306972,15.9879009 9.86643502,15.8388601 9.93888729,15.6457889 C8.72905578,14.9463614 7.91270931,13.6412908 7.91270931,12.1428644 C7.91270931,11.7154365 7.9797985,11.3040598 8.10244117,10.9175128 C8.03322699,10.9223699 7.96455033,10.92779 7.89452663,10.92779 C6.32971945,10.92779 5.06119755,9.65926815 5.06119755,8.09446097 C5.06119755,6.5296538 6.32971945,5.26113189 7.89452663,5.26113189 C9.4593338,5.26113189 10.7278557,6.5296538 10.7278557,8.09446097 C10.7278557,8.16084182 10.722436,8.22614116 10.7175788,8.29130772 C11.1093873,8.1650222 11.5264182,8.09525147 11.9603223,8.09525147 C12.5537023,8.09525147 13.1152771,8.22624235 13.6228477,8.455742 C13.5864192,8.34402788 13.5603943,8.2285001 13.5603943,8.10869076 C13.5603943,7.75047701 13.7330946,7.41005374 14.0212846,7.19876834 L15.3549415,6.22164948 C15.5674412,6.06541162 15.6553185,5.79074303 15.5723425,5.54019579 C15.2291049,4.508864 14.6858015,3.56773084 13.9580407,2.74323208 C13.782779,2.54570857 13.5000468,2.48381773 13.2584043,2.5898656 L11.7579416,3.2499742 C11.4308945,3.39406922 11.0501659,3.3731544 10.739714,3.19384514 C10.4296668,3.01494065 10.2216386,2.69583696 10.1823767,2.34005178 L10.0013407,0.692546817 C9.9726027,0.430261496 9.77813392,0.215902423 9.51989621,0.162878734 C8.99431367,0.055414569 8.45476686,0.000986843619 7.91349981,1.25963013e-05 Z M11.9603223,8.90477406 C10.1749202,8.90477406 8.72223191,10.3574624 8.72223191,12.1428644 C8.72223191,13.9282665 10.1749202,15.3809548 11.9603223,15.3809548 C12.6342498,15.3809548 13.2596817,15.173426 13.7785861,14.8196646 L15.7810475,16.8221264 C15.8996426,16.9411263 16.0548876,17 16.2103159,17 C16.3657442,17 16.5209892,16.9407215 16.6395843,16.8221264 C16.8763696,16.5849363 16.8763696,16.2007798 16.6395843,15.9635897 L14.637913,13.9611283 C14.9912696,13.4422239 15.1984127,12.816792 15.1984127,12.1428644 C15.1984127,10.3574624 13.7457244,8.90477406 11.9603223,8.90477406 Z M11.9603223,10.119058 C13.0762492,10.119058 13.9841288,11.0269375 13.9841288,12.1428644 C13.9841288,13.2587913 13.0762492,14.1666709 11.9603223,14.1666709 C10.8443954,14.1666709 9.9365158,13.2587913 9.9365158,12.1428644 C9.9365158,11.0269375 10.8443954,10.119058 11.9603223,10.119058 Z" id="Shape" fill="color(display-p3 0.000 0.000 0.000)"></path>
    </g>
</svg>