<?xml version="1.0" encoding="UTF-8"?>
<svg width="17px" height="17px" viewBox="0 0 17 17" version="1.1" xmlns="http://www.w3.org/2000/svg" xmlns:xlink="http://www.w3.org/1999/xlink">
    <title>stop_sign</title>
    <g id="stop_sign" stroke="none" fill="none" fill-rule="nonzero">
        <path d="M5.99840661,0 C5.34122239,0 4.72355334,0.256041518 4.25873755,0.720857308 L0.719983553,4.25873755 C0.255615132,4.72400071 0,5.34122239 0,5.99840661 L0,11.0015934 C0,11.6587776 0.256041518,12.2764467 0.720857308,12.7412624 L4.25873755,16.2800164 C4.72400071,16.7448322 5.34122239,17 5.99840661,17 L11.0015934,17 C11.6587776,17 12.2764467,16.7439585 12.7412624,16.2791427 L16.2800164,12.7412624 C16.7448322,12.2759993 17,11.6587776 17,11.0015934 L17,5.99840661 C17,5.34122239 16.7439585,4.72400071 16.2791427,4.25873755 L12.7412624,0.719983553 C12.2759993,0.255615132 11.6587776,0 11.0015934,0 L5.99840661,0 Z M3.59817034,6.71052632 L3.98961771,6.71052632 C4.49559139,6.71052632 4.82802103,7.02903876 4.86425787,7.06527561 C5.03917892,7.24019666 5.03917892,7.52296124 4.86425787,7.69788229 C4.68933682,7.87280334 4.40744595,7.87235597 4.23252489,7.69788229 C4.23207753,7.69788229 4.12561771,7.60438945 3.98961771,7.60438945 L3.59817034,7.60438945 C3.47469666,7.60438945 3.37448613,7.70459997 3.37448613,7.82807366 C3.37448613,7.95154734 3.47469666,8.05175787 3.59817034,8.05175787 L3.98961771,8.05175787 C4.60609139,8.05175787 5.10803876,8.55370524 5.10803876,9.17017892 C5.10803876,9.78665261 4.60609139,10.2894737 3.98961771,10.2894737 L3.5003085,10.2894737 C3.01670324,10.2894737 2.67836655,10.002277 2.55489332,9.87880334 C2.37997182,9.70388229 2.37997182,9.42111771 2.55489332,9.24619666 C2.72981437,9.07127561 3.01170524,9.07127561 3.18662629,9.24619666 C3.22152103,9.28109139 3.3473085,9.39473684 3.5003085,9.39473684 L3.98961771,9.39473684 C4.11309139,9.39473684 4.21330192,9.29452632 4.21330192,9.17105263 C4.21330192,9.04757895 4.11309139,8.94736842 3.98961771,8.94736842 L3.59817034,8.94736842 C2.98169666,8.94736842 2.47974929,8.44542105 2.47974929,7.82894737 C2.47974929,7.21247368 2.98169666,6.71052632 3.59817034,6.71052632 Z M6.00277561,6.71052632 L7.79224929,6.71052632 C8.03919666,6.71052632 8.23961771,6.91094737 8.23961771,7.15789474 C8.23961771,7.40484211 8.03919666,7.60526316 7.79224929,7.60526316 L7.34488087,7.60526316 L7.34488087,9.84210526 C7.34488087,10.0890526 7.14445982,10.2894737 6.89751245,10.2894737 C6.65056508,10.2894737 6.45014403,10.0890526 6.45014403,9.84210526 L6.45014403,7.60526316 L6.00277561,7.60526316 C5.75582824,7.60526316 5.55540718,7.40484211 5.55540718,7.15789474 C5.55540718,6.91094737 5.75582824,6.71052632 6.00277561,6.71052632 Z M9.87880334,6.71052632 C10.7422244,6.71052632 11.4445928,7.51310526 11.4445928,8.5 C11.4445928,9.48689474 10.7422244,10.2894737 9.87880334,10.2894737 C9.01538229,10.2894737 8.31301387,9.48689474 8.31301387,8.5 C8.31301387,7.51310526 9.01538229,6.71052632 9.87880334,6.71052632 Z M12.3393297,6.71052632 L13.2340665,6.71052632 C13.9740139,6.71052632 14.5761718,7.31268421 14.5761718,8.05263158 C14.5761718,8.79257895 13.9740139,9.39473684 13.2340665,9.39473684 L12.7866981,9.39473684 L12.7866981,9.84210526 C12.7866981,10.0890526 12.586277,10.2894737 12.3393297,10.2894737 C12.0923823,10.2894737 11.8919612,10.0890526 11.8919612,9.84210526 L11.8919612,7.15789474 C11.8919612,6.91094737 12.0923823,6.71052632 12.3393297,6.71052632 Z M9.87880334,7.60526316 C9.50819121,7.60526316 9.20775071,8.00585049 9.20775071,8.5 C9.20775071,8.99414951 9.50819121,9.39473684 9.87880334,9.39473684 C10.2494155,9.39473684 10.549856,8.99414951 10.549856,8.5 C10.549856,8.00585049 10.2494155,7.60526316 9.87880334,7.60526316 Z M12.7866981,7.60526316 L12.7866981,8.5 L13.2340665,8.5 C13.4805665,8.5 13.6814349,8.29913158 13.6814349,8.05263158 C13.6814349,7.80613158 13.4805665,7.60526316 13.2340665,7.60526316 L12.7866981,7.60526316 Z" id="Shape" fill="color(display-p3 0.000 0.000 0.000)"></path>
    </g>
</svg>