<?xml version="1.0" encoding="UTF-8"?>
<svg width="17px" height="17px" viewBox="0 0 17 17" version="1.1" xmlns="http://www.w3.org/2000/svg" xmlns:xlink="http://www.w3.org/1999/xlink">
    <title>Strength</title>
    <g id="Strength" stroke="none" fill="none" fill-rule="nonzero">
        <path d="M6.72204615,0.00051868009 C6.26788705,-0.0127414457 5.82698808,0.229255639 5.63471583,0.610484468 L4.78606778,2.41386158 L6.90768791,3.34207039 L7.67677521,1.64477428 C7.93203242,1.05138344 7.6834057,0.361856897 7.17289043,0.106599687 C7.02371422,0.0436138769 6.87453802,0.00383349939 6.72204615,0.00051868009 Z M10.2757599,0.265721197 C9.82160078,0.232571307 9.40722206,0.431473194 9.21494981,0.875686985 L7.75633596,3.58075266 C7.75633596,3.58075266 8.9596926,4.18077314 9.21494981,4.34983995 C9.55308344,4.51890677 9.53319283,5.11892725 9.53319283,5.11892725 L11.2304889,1.88345655 C11.4857461,1.29006571 11.319995,0.627059414 10.7266042,0.371802203 C10.5774279,0.308816394 10.4282517,0.275666503 10.2757599,0.265721197 Z M12.7686635,2.09561856 C12.3940652,2.13208412 12.0526167,2.33430083 11.8404547,2.65254385 L10.0635979,5.96757531 C9.72546508,6.47809057 9.97740747,7.25049269 10.4879219,7.5057499 C11.0813127,7.84388354 11.8238798,7.67481672 12.079137,7.08142588 L13.8825141,3.76639442 C14.2206477,3.25588 13.9687053,2.48347703 13.4581901,2.22821982 C13.2360828,2.10224905 12.9940857,2.07241313 12.7686635,2.09561856 Z M4.282183,3.15642863 C3.34734455,3.15642863 2.49538083,3.85258566 2.24012362,5.0393665 C1.98486641,5.88801455 1.3019695,8.33450819 1.04671229,9.096965 C0.708579508,9.94561306 0.973782024,10.7147004 1.31191481,11.1390244 C1.48098163,11.3942816 2.25669856,12.0838081 2.85008941,12.677199 C3.36060467,13.1877142 3.5130957,13.7645293 3.5130957,14.6131773 L3.5130957,17 L12.079137,17 L12.079137,15.6474672 C12.079137,14.5435619 12.8415946,14.6993686 13.3521091,13.3402053 C13.6073663,12.7468144 14.4659596,10.4760181 14.4659596,10.4760181 C12.2581491,11.1555993 11.5686226,9.69035585 11.654813,8.67264098 C10.8061649,8.84170779 9.46026256,8.60965517 8.94974729,7.5057499 C8.52542326,7.93007393 7.93203242,8.43395871 6.82812716,8.00963468 L4.86562853,6.97534487 C4.49103019,6.84274361 4.35842893,6.41178995 4.30870325,5.88801455 L7.09332967,7.24054739 C7.77291091,7.57868102 8.53205375,7.33668309 8.87018653,6.65710185 C9.20832017,6.06371101 8.93980198,5.19185837 8.26022075,4.85372474 L4.97170954,3.34207039 C4.75954753,3.23598938 4.52086526,3.17963406 4.30870325,3.18294888 C4.29875794,3.17631924 4.29544312,3.15642863 4.282183,3.15642863 Z M15.0228849,5.092407 C14.5687258,5.05925711 14.1543471,5.258159 13.9620749,5.70237279 L12.6891028,8.08919544 C12.4338456,8.68258628 12.5995967,9.37211283 13.1929876,9.62737004 C13.7863784,9.88262725 14.4759049,9.60748027 14.7311622,9.096965 L16.0041342,6.7366626 C16.2593914,6.14327176 16.06712,5.45374522 15.4737292,5.19848801 C15.324553,5.1355022 15.1753768,5.10235231 15.0228849,5.092407 Z" id="Shape" fill="color(display-p3 0.000 0.000 0.000)"></path>
    </g>
</svg>