<?xml version="1.0" encoding="UTF-8"?>
<svg width="17px" height="17px" viewBox="0 0 17 17" version="1.1" xmlns="http://www.w3.org/2000/svg" xmlns:xlink="http://www.w3.org/1999/xlink">
    <title>street</title>
    <g id="street" stroke="none" fill="none" fill-rule="nonzero">
        <path d="M5.7304972,7.35111445e-05 C5.37911676,0.00564092914 5.09858731,0.294705108 5.10362796,0.64609227 L5.10362796,1.70745853 L0.645889656,1.70745853 C0.416229579,1.70421057 0.20261129,1.82487236 0.0868334101,2.02324016 C-0.02894447,2.22160796 -0.02894447,2.46694862 0.0868334101,2.66531642 C0.20261129,2.86368422 0.416229579,2.98434601 0.645889656,2.98109805 L5.10362796,2.98109805 L5.10362796,5.10383057 L0.645889656,5.10383057 C0.457748828,5.10142165 0.278171461,5.18232787 0.155326268,5.32484746 C0.0324810754,5.46736705 -0.021058048,5.65691232 0.0090698985,5.84264084 L0.0090698985,7.86338286 L1.49498267,7.86338286 C1.84735627,7.86338286 2.13180242,8.14782901 2.13180242,8.50020261 C2.13180242,8.85257621 1.84735627,9.13702237 1.49498267,9.13702237 L0.0090698985,9.13702237 L0.0090698985,11.1552765 C-0.0218788514,11.3413906 0.0312835831,11.5316477 0.154226312,11.6747608 C0.27716904,11.8178738 0.457237008,11.8991115 0.645889656,11.8965747 L5.10362796,11.8965747 L5.10362796,16.354313 C5.10121904,16.5424538 5.18212526,16.7220312 5.32464485,16.8448763 C5.46716444,16.9677215 5.65670971,17.0212607 5.84243822,16.9911327 L7.86318024,16.9911327 L7.86318024,15.5052199 C7.86318024,15.1528463 8.1476264,14.8684002 8.5,14.8684002 C8.8523736,14.8684002 9.13681976,15.1528463 9.13681976,15.5052199 L9.13681976,16.9911327 L11.1550739,16.9911327 C11.341188,17.0220815 11.5314451,16.968919 11.6745582,16.8459763 C11.8176712,16.7230336 11.8989088,16.5429656 11.896372,16.354313 L11.896372,15.2929467 L16.3541103,15.2929467 C16.5837704,15.2961947 16.7973887,15.1755329 16.9131666,14.9771651 C17.0289445,14.7787973 17.0289445,14.5334566 16.9131666,14.3350888 C16.7973887,14.136721 16.5837704,14.0160592 16.3541103,14.0193072 L11.896372,14.0193072 L11.896372,11.8965747 L16.3541103,11.8965747 C16.5422512,11.8989836 16.7218285,11.8180774 16.8446737,11.6755578 C16.9675189,11.5330382 17.021058,11.3434929 16.9909301,11.1577644 L16.9909301,9.13702237 L15.5050173,9.13702237 C15.1526437,9.13702237 14.8681976,8.85257621 14.8681976,8.50020261 C14.8681976,8.14782901 15.1526437,7.86338286 15.5050173,7.86338286 L16.9909301,7.86338286 L16.9909301,5.84512868 C17.0218789,5.65901465 16.9687164,5.4687575 16.8457737,5.32564446 C16.722831,5.18253141 16.542763,5.10129376 16.3541103,5.10383057 L11.896372,5.10383057 L11.896372,0.64609227 C11.8988423,0.473888259 11.8314669,0.308024609 11.7096097,0.186323615 C11.5877524,0.0646226206 11.4218025,-0.00253986453 11.2496018,7.35111445e-05 C11.2184639,0.000916739382 11.187424,0.00396529592 11.1567322,0.00927251209 L9.13681976,0.00927251209 L9.13681976,1.49518528 C9.13681976,1.84755888 8.8523736,2.13200504 8.5,2.13200504 C8.1476264,2.13200504 7.86318024,1.84755888 7.86318024,1.49518528 L7.86318024,0.00927251209 L5.84492606,0.00927251209 C5.80713543,0.0027938854 5.76883695,-0.000258887004 5.7304972,7.35111445e-05 L5.7304972,7.35111445e-05 Z M8.5,3.40564455 C8.8523736,3.40564455 9.13681976,3.69009071 9.13681976,4.04246431 L9.13681976,5.31610383 C9.13681976,5.66847742 8.8523736,5.95292358 8.5,5.95292358 C8.1476264,5.95292358 7.86318024,5.66847742 7.86318024,5.31610383 L7.86318024,4.04246431 C7.86318024,3.69009071 8.1476264,3.40564455 8.5,3.40564455 Z M4.0422617,7.86338286 L5.31590121,7.86338286 C5.66827481,7.86338286 5.95272097,8.14782901 5.95272097,8.50020261 C5.95272097,8.85257621 5.66827481,9.13702237 5.31590121,9.13702237 L4.0422617,9.13702237 C3.6898881,9.13702237 3.40544194,8.85257621 3.40544194,8.50020261 C3.40544194,8.14782901 3.6898881,7.86338286 4.0422617,7.86338286 Z M11.6840988,7.86338286 L12.9577383,7.86338286 C13.3101119,7.86338286 13.5945581,8.14782901 13.5945581,8.50020261 C13.5945581,8.85257621 13.3101119,9.13702237 12.9577383,9.13702237 L11.6840988,9.13702237 C11.3317252,9.13702237 11.047279,8.85257621 11.047279,8.50020261 C11.047279,8.14782901 11.3317252,7.86338286 11.6840988,7.86338286 Z M8.5,11.0474816 C8.8523736,11.0474816 9.13681976,11.3319278 9.13681976,11.6843014 L9.13681976,12.9579409 C9.13681976,13.3103145 8.8523736,13.5947607 8.5,13.5947607 C8.1476264,13.5947607 7.86318024,13.3103145 7.86318024,12.9579409 L7.86318024,11.6843014 C7.86318024,11.3319278 8.1476264,11.0474816 8.5,11.0474816 Z" id="Shape" fill="color(display-p3 0.000 0.000 0.000)"></path>
    </g>
</svg>