<?xml version="1.0" encoding="UTF-8"?>
<svg width="17px" height="17px" viewBox="0 0 17 17" version="1.1" xmlns="http://www.w3.org/2000/svg" xmlns:xlink="http://www.w3.org/1999/xlink">
    <title>Student</title>
    <g id="Student" stroke="none" fill="none" fill-rule="nonzero">
        <path d="M8.5,0.85 C8.4065185,0.85 8.31450565,0.873260866 8.2321616,0.917513007 L0.304361982,4.88085923 L0.304361982,4.88196593 C0.117583128,4.97950243 0.000347700306,5.17262124 0,5.38333333 C0.000347700306,5.59404543 0.117583128,5.78716423 0.304361982,5.88470073 L0.304361982,5.88580743 L8.22884093,9.84694003 C8.31197229,9.89249706 8.40520429,9.916471 8.5,9.91666667 C8.59348152,9.91666667 8.68549437,9.89340565 8.7678384,9.84915343 L16.6901042,5.88802083 C16.6919527,5.88729274 16.6937974,5.88655493 16.6956382,5.88580743 L16.6956382,5.88470073 C16.882417,5.78716418 16.9996523,5.59404538 17,5.38333333 C16.9996523,5.17262128 16.882417,4.97950249 16.6956382,4.88196593 L16.6956382,4.88085923 L8.77115907,0.919726577 C8.6880277,0.874169572 8.59479571,0.850195645 8.5,0.85 Z M16.4333333,7.28365907 L15.3,7.85032573 L15.3,12.9071616 C14.9624741,13.1033807 14.7333333,13.4645973 14.7333333,13.8833333 C14.7333333,14.5095 15.8666667,16.15 15.8666667,16.15 C15.8666667,16.15 17,14.5095 17,13.8833333 C17,13.4645973 16.7708593,13.1033807 16.4333333,12.9071616 L16.4333333,7.28365907 Z M3.4,8.69921847 L3.4,11.05 C3.4,12.6145667 5.6831,13.8833333 8.5,13.8833333 C11.3169,13.8833333 13.6,12.6145667 13.6,11.05 L13.6,8.69921847 L9.2736326,10.8629558 C9.2260326,10.8867558 9.17848587,10.9062882 9.12975253,10.9227216 C8.9246192,11.0071549 8.71363333,11.05 8.5,11.05 C8.28693333,11.05 8.07646087,11.0071549 7.87246087,10.9227216 C7.82316087,10.9062882 7.77453407,10.8862158 7.7263674,10.8618491 L3.4,8.69921847 Z" id="Shape" fill="color(display-p3 0.000 0.000 0.000)"></path>
    </g>
</svg>