<?xml version="1.0" encoding="UTF-8"?>
<svg width="17px" height="17px" viewBox="0 0 17 17" version="1.1" xmlns="http://www.w3.org/2000/svg" xmlns:xlink="http://www.w3.org/1999/xlink">
    <title>switches</title>
    <g id="switches" stroke="none" fill="none" fill-rule="nonzero">
        <path d="M2.59722222,0 C1.16544444,0 0,1.16544444 0,2.59722222 L0,14.4027778 C0,15.8345556 1.16544444,17 2.59722222,17 L14.4027778,17 C15.8345556,17 17,15.8345556 17,14.4027778 L17,2.59722222 C17,1.16544444 15.8345556,0 14.4027778,0 L2.59722222,0 Z M5.19444444,2.83333333 C6.50694597,2.83333333 7.55555556,3.88194292 7.55555556,5.19444444 C7.55555556,6.50694597 6.50694597,7.55555556 5.19444444,7.55555556 C3.89252778,7.55555556 2.83333333,6.49636111 2.83333333,5.19444444 C2.83333333,3.89252778 3.89252778,2.83333333 5.19444444,2.83333333 Z M8.13568811,2.83333333 L11.8055556,2.83333333 C13.1074722,2.83333333 14.1666667,3.89252778 14.1666667,5.19444444 C14.1666667,6.49636111 13.1074722,7.55555556 11.8055556,7.55555556 L8.13568811,7.55555556 C8.65749508,6.90749667 8.97222222,6.08640328 8.97222222,5.19444444 C8.97222222,4.30248561 8.65749508,3.48139222 8.13568811,2.83333333 Z M5.19444444,9.44444444 L8.86431189,9.44444444 C8.34250492,10.0925033 8.02777778,10.9135967 8.02777778,11.8055556 C8.02777778,12.6975144 8.34250492,13.5186078 8.86431189,14.1666667 L5.19444444,14.1666667 C3.89252778,14.1666667 2.83333333,13.1074722 2.83333333,11.8055556 C2.83333333,10.5036389 3.89252778,9.44444444 5.19444444,9.44444444 Z M11.8055556,9.44444444 C13.1074722,9.44444444 14.1666667,10.5036389 14.1666667,11.8055556 C14.1666667,13.1074722 13.1074722,14.1666667 11.8055556,14.1666667 C10.493054,14.1666667 9.44444444,13.1180571 9.44444444,11.8055556 C9.44444444,10.493054 10.493054,9.44444444 11.8055556,9.44444444 Z" id="Shape" fill="color(display-p3 0.000 0.000 0.000)"></path>
    </g>
</svg>