<?xml version="1.0" encoding="UTF-8"?>
<svg width="17px" height="17px" viewBox="0 0 17 17" version="1.1" xmlns="http://www.w3.org/2000/svg" xmlns:xlink="http://www.w3.org/1999/xlink">
    <title>Team</title>
    <g id="Team" stroke="none" fill="none" fill-rule="nonzero">
        <path d="M8.4519774,3.505 C7.17891425,3.505 6.14689266,4.53702159 6.14689266,5.81008475 C6.14689266,7.0831479 7.17891425,8.11516949 8.4519774,8.11516949 C9.72504055,8.11516949 10.7570621,7.0831479 10.7570621,5.81008475 C10.7570621,4.53702159 9.72504055,3.505 8.4519774,3.505 Z M3.84180791,5.04172316 C2.99309914,5.04172316 2.30508475,5.72973756 2.30508475,6.57844633 C2.30508475,7.4271551 2.99309914,8.11516949 3.84180791,8.11516949 C4.69051668,8.11516949 5.37853107,7.4271551 5.37853107,6.57844633 C5.37853107,5.72973756 4.69051668,5.04172316 3.84180791,5.04172316 Z M13.0621469,5.04172316 C12.2134381,5.04172316 11.5254237,5.72973756 11.5254237,6.57844633 C11.5254237,7.4271551 12.2134381,8.11516949 13.0621469,8.11516949 C13.9108557,8.11516949 14.5988701,7.4271551 14.5988701,6.57844633 C14.5988701,5.72973756 13.9108557,5.04172316 13.0621469,5.04172316 Z M8.45497862,8.85951977 C5.82795053,8.85951977 3.84781073,10.020226 3.84781073,11.560791 L3.84781073,12.725339 C3.84781073,13.1494746 4.19203672,13.4937006 4.61617232,13.4937006 L12.2937853,13.4937006 C12.7179209,13.4937006 13.0621469,13.1494746 13.0621469,12.725339 L13.0621469,11.560791 C13.0621469,10.0209944 11.0812385,8.85951977 8.45497862,8.85951977 Z M13.8860349,9.48381356 C14.3439784,10.0869774 14.5988701,10.7908927 14.5988701,11.560791 L14.5988701,13.4937006 L16.2316384,13.4937006 C16.655774,13.4937006 17,13.1494746 17,12.725339 L17,11.7798939 C17,10.6073741 15.7055151,9.6889661 13.8860349,9.48381356 Z M3.01191739,9.49882043 C1.24699084,9.72702382 0,10.6296566 0,11.7798939 L0,12.725339 C0,13.1494746 0.344225989,13.4937006 0.768361582,13.4937006 L2.31108757,13.4937006 L2.31108757,11.560791 C2.31108757,10.7970395 2.56088914,10.0989108 3.01191739,9.49882043 Z" id="Shape" fill="color(display-p3 0.000 0.000 0.000)"></path>
    </g>
</svg>