<?xml version="1.0" encoding="UTF-8"?>
<svg width="17px" height="17px" viewBox="0 0 17 17" version="1.1" xmlns="http://www.w3.org/2000/svg" xmlns:xlink="http://www.w3.org/1999/xlink">
    <title>thumb_down</title>
    <g id="thumb_down" stroke="none" fill="none" fill-rule="nonzero">
        <path d="M1.275,6.27244881 L1.275,6.27244881 C1.955,6.27244881 2.55,6.86744881 2.55,7.54744881 L2.55,15.1974488 C2.55,15.8774488 1.955,16.4724488 1.275,16.4724488 L1.275,16.4724488 C0.595,16.4724488 0,15.8774488 0,15.1974488 L0,7.54744881 C0,6.86744881 0.595,6.27244881 1.275,6.27244881 Z M12.75,16.4724488 L5.95,16.4724488 C5.015,16.4724488 4.25,15.7074488 4.25,14.7724488 L4.25,6.95244881 C4.25,6.52744881 4.42,6.10244881 4.675,5.84744881 L6.97,3.29744881 L7.48,1.17244881 C7.565,0.662448808 8.16,0.407448808 8.585,0.577448808 C9.35,0.747448808 10.2,1.42744881 10.2,2.78744881 C10.2,4.23244881 9.35,6.27244881 9.35,6.27244881 L15.3,6.27244881 C16.235,6.27244881 17,7.03744881 17,7.97244881 L17,8.73744881 C17,9.07744881 16.915,9.41744881 16.745,9.75744881 L14.195,15.5374488 C13.94,16.1324488 13.43,16.4724488 12.75,16.4724488 Z" id="Shape" fill="color(display-p3 0.000 0.000 0.000)" transform="translate(8.5, 8.4987) scale(1, -1) translate(-8.5, -8.4987)"></path>
    </g>
</svg>