<?xml version="1.0" encoding="UTF-8"?>
<svg width="17px" height="17px" viewBox="0 0 17 17" version="1.1" xmlns="http://www.w3.org/2000/svg" xmlns:xlink="http://www.w3.org/1999/xlink">
    <title>Tiktok</title>
    <g id="Tiktok" stroke="none" fill="none" fill-rule="nonzero">
        <path d="M15.7745625,6.8775625 C15.6364375,6.8903125 15.49725,6.8988125 15.357,6.8988125 C13.7685625,6.8988125 12.3724375,6.0828125 11.559625,4.847125 C11.559625,8.0866875 11.559625,11.7735625 11.559625,11.8351875 C11.559625,14.688 9.2465625,17 6.3948125,17 C3.5430625,16.9989375 1.23,14.685875 1.23,11.834125 C1.23,8.9813125 3.5430625,6.6693125 6.3948125,6.6693125 C6.5031875,6.6693125 6.608375,6.678875 6.7135625,6.68525 L6.7135625,9.231 C6.6073125,9.21825 6.50425,9.199125 6.3948125,9.199125 C4.9391875,9.199125 3.75875,10.3795625 3.75875,11.8351875 C3.75875,13.2908125 4.938125,14.47125 6.3948125,14.47125 C7.8515,14.47125 9.137125,13.32375 9.137125,11.868125 C9.137125,11.8096875 9.162625,0 9.162625,0 L11.5946875,0 C11.823125,2.1749375 13.5794375,3.8919375 15.7745625,4.0491875 L15.7745625,6.8775625 L15.7745625,6.8775625 Z" id="Shape" fill="color(display-p3 0.000 0.000 0.000)"></path>
    </g>
</svg>