<?xml version="1.0" encoding="UTF-8"?>
<svg width="17px" height="17px" viewBox="0 0 17 17" version="1.1" xmlns="http://www.w3.org/2000/svg" xmlns:xlink="http://www.w3.org/1999/xlink">
    <title>toolbox</title>
    <g id="toolbox" stroke="none" fill="none" fill-rule="nonzero">
        <path d="M4.43784621,0 C3.95524764,0 3.54967806,0.308790742 3.3976433,0.738673925 L1.85248748,0.738673925 C1.44473947,0.738673925 1.11381355,1.06959984 1.11381355,1.47734785 L1.11381355,2.9546957 C1.11381355,3.36244371 1.44473947,3.69336962 1.85248748,3.69336962 L3.32983533,3.69336962 C3.32974506,5.66243276 3.33034553,8.12541317 3.33127803,8.12541317 L5.5458571,8.12541317 L5.5458571,3.69336962 L7.76187888,3.69336962 C8.16983722,3.69336962 8.5005528,3.36265404 8.5005528,2.9546957 C8.50029907,2.70187163 8.3707588,2.46673983 8.15718466,2.33143958 L8.15862729,2.32855417 L6.25134832,0.738673925 L5.47804905,0.738673925 C5.32554095,0.309154243 4.91995357,0 4.43784621,0 Z M11.4552485,0.328940732 C10.5843519,0.851921871 9.97790065,1.92498425 9.97790065,2.9546957 C9.97790065,3.98510719 10.584496,4.67626776 11.4566911,4.98460629 L11.4566911,8.12541317 L13.6712703,8.12541317 L13.6712703,4.98316359 C14.5424955,4.67450248 15.1486181,3.98439851 15.1486181,2.9546957 C15.1486181,1.92498425 14.5421668,0.851921871 13.6712703,0.328940732 L13.6712703,2.9546957 L12.5632594,3.69336962 L11.4552485,2.9546957 L11.4552485,0.328940732 Z M1.10227177,8.11531402 C0.694881137,8.12168219 0.369560628,8.45668489 0.375068929,8.8640871 L0.375068929,16.2508263 C0.372417962,16.4687629 0.466072179,16.6767792 0.63104323,16.8192163 C0.79601428,16.9616533 1.01546393,17.023973 1.23067406,16.9895003 L15.7632177,16.9895003 C15.9795447,17.0263563 16.2010601,16.9651307 16.3677531,16.8224103 C16.5344462,16.6796898 16.6290612,16.4702486 16.6260396,16.2508263 L16.6260396,8.8640871 C16.6287001,8.66442329 16.5504907,8.47215657 16.409158,8.33109566 C16.2678253,8.19003474 16.0754084,8.11219554 15.8757503,8.11531402 C15.4683596,8.12168219 15.1430391,8.45668489 15.1486181,8.8640871 L15.1486181,9.60276102 L1.85248748,9.60276102 L1.85248748,8.8640871 C1.85522165,8.66442329 1.77701223,8.47215657 1.63567954,8.33109566 C1.49434685,8.19003474 1.30192995,8.11219554 1.10227177,8.11531402 Z M1.85248748,12.5574567 L15.1486181,12.5574567 L15.1486181,14.0348046 L1.85248748,14.0348046 L1.85248748,12.5574567 Z" id="Shape" fill="color(display-p3 0.000 0.000 0.000)"></path>
    </g>
</svg>