<?xml version="1.0" encoding="UTF-8"?>
<svg width="24px" height="24px" viewBox="0 0 24 24" version="1.1" xmlns="http://www.w3.org/2000/svg" xmlns:xlink="http://www.w3.org/1999/xlink">
    <title>Traces</title>
    <g id="Traces" stroke="none" fill="none" fill-rule="evenodd">
        <path d="M16.1017449,13.3809638 C18.4438017,13.3809638 20.3494108,15.2865498 20.3494108,17.6285782 C20.3494108,18.512613 20.0776844,19.3330328 19.6141579,20.0137135 L22.2399126,22.6404728 C22.5505231,22.9516105 22.5505231,23.4555337 22.2399126,23.7666715 C22.0843418,23.9222403 21.8806944,23.9999998 21.6768064,23.9999998 C21.4729184,23.9999998 21.269271,23.9227713 21.1137002,23.7666715 L18.4869091,21.1399117 C17.8062201,21.6039635 16.9857904,21.8761926 16.1017449,21.8761926 C13.7596881,21.8761926 11.854079,19.9706066 11.854079,17.6285782 C11.854079,15.2865498 13.7596881,13.3809638 16.1017449,13.3809638 Z M16.1017449,14.9738192 C14.637893,14.9738192 13.4469537,16.1647441 13.4469537,17.6285782 C13.4469537,19.0924123 14.637893,20.2833372 16.1017449,20.2833372 C17.5655967,20.2833372 18.7565361,19.0924123 18.7565361,17.6285782 C18.7565361,16.1647441 17.5655967,14.9738192 16.1017449,14.9738192 Z M12.9094011,0.0573020225 C13.2026761,0.0972940639 13.4292977,0.323915632 13.4692897,0.610525262 C13.5092817,0.83714683 13.7758953,2.85007958 12.6694489,3.94319538 C11.9562575,4.65638678 10.8564763,4.78969359 10.1099582,4.78969359 C10.0033128,4.78969359 9.90333267,4.78969359 9.81001791,4.78302825 C9.91666335,5.27626343 9.96998608,5.7028452 10.0033128,6.02944687 C10.6298548,5.66285316 11.3697075,5.33625149 12.4161659,5.33625149 C15.5688719,5.33625149 17.5218166,7.38251094 17.5218166,10.6418623 C17.5218166,11.1900036 17.4703521,11.8184521 17.3638406,12.4846936 C17.0198813,12.4166869 16.6649113,12.3809638 16.3017594,12.3809638 C13.2980446,12.3809638 10.854079,14.8248998 10.854079,17.8285782 C10.854079,18.6003325 11.0154205,19.3351346 11.3061436,20.0010249 C10.6613128,19.9992727 10.0624599,19.7659967 9.52340828,19.3068046 C8.98351572,19.7667131 8.3836351,20 7.7370971,20 C3.34463788,20 1.525,13.9145444 1.525,10.6418623 C1.525,7.36918026 3.47794469,5.33625149 6.63065062,5.33625149 C7.45048747,5.33625149 8.09036013,5.53621169 8.63025269,5.80949064 C8.47028452,4.6097294 7.95705332,2.44349383 6.30404895,1.20374054 C6.01077398,0.983784315 5.95078591,0.56386788 6.17074214,0.27059291 C6.39069837,-0.0226820602 6.8106148,-0.0826701223 7.10388978,0.137286105 C7.8704039,0.710505365 8.43029248,1.42369677 8.85020892,2.16354954 C8.97018504,1.69031038 9.18347593,1.21707122 9.55673498,0.84381217 C10.6631815,-0.249303628 12.6827796,0.0173099811 12.9094011,0.0573020225 Z" id="Combined-Shape" fill="color(display-p3 0.000 0.000 0.000)"></path>
    </g>
</svg>