<?xml version="1.0" encoding="UTF-8"?>
<svg width="17px" height="17px" viewBox="0 0 17 17" version="1.1" xmlns="http://www.w3.org/2000/svg" xmlns:xlink="http://www.w3.org/1999/xlink">
    <title>traffic_lights</title>
    <g id="traffic_lights" stroke="none" fill="none" fill-rule="nonzero">
        <path d="M16.4979373,8.94736842 L13.8683057,8.94736842 L13.8683057,7.40842105 C14.9312531,6.66221053 16.7958846,5.20289474 16.4979373,2.68421053 L13.8683057,2.68421053 L13.8683057,0.894736842 C13.8683057,0.402631579 13.4656741,0 12.9735688,0 L4.02620042,0 C3.53409516,0 3.13146358,0.402631579 3.13146358,0.894736842 L3.13146358,2.68421053 L0.501832003,2.68421053 C0.203884634,5.20289474 2.06851621,6.66221053 3.13146358,7.40842105 L3.13146358,8.94736842 L0.501832003,8.94736842 C0.203884634,11.4660526 2.06851621,12.9253684 3.13146358,13.6715789 L3.13146358,16.1052632 C3.13146358,16.5973684 3.53409516,17 4.02620042,17 L12.9735688,17 C13.4656741,17 13.8683057,16.5973684 13.8683057,16.1052632 L13.8683057,13.6715789 C14.9312531,12.9253684 16.7958846,11.4660526 16.4979373,8.94736842 Z M8.49988463,13.4210526 C7.51567411,13.4210526 6.71041095,12.6157895 6.71041095,11.6315789 C6.71041095,10.6473684 7.51567411,9.84210526 8.49988463,9.84210526 C9.48409516,9.84210526 10.2893583,10.6473684 10.2893583,11.6315789 C10.2893583,12.6157895 9.48409516,13.4210526 8.49988463,13.4210526 Z M8.49988463,7.15789474 C7.51567411,7.15789474 6.71041095,6.35263158 6.71041095,5.36842105 C6.71041095,4.38421053 7.51567411,3.57894737 8.49988463,3.57894737 C9.48409516,3.57894737 10.2893583,4.38421053 10.2893583,5.36842105 C10.2893583,6.35263158 9.48409516,7.15789474 8.49988463,7.15789474 Z" id="Shape" fill="color(display-p3 0.000 0.000 0.000)"></path>
    </g>
</svg>