<?xml version="1.0" encoding="UTF-8"?>
<svg width="17px" height="17px" viewBox="0 0 17 17" version="1.1" xmlns="http://www.w3.org/2000/svg" xmlns:xlink="http://www.w3.org/1999/xlink">
    <title>Transparency</title>
    <g id="Transparency" stroke="none" fill="none" fill-rule="nonzero">
        <path d="M13.7561337,11.8548283 L13.529488,11.6218869 L12.4843996,10.5830942 C13.2084066,9.50652717 13.6239237,8.20961022 13.6239237,6.81825757 C13.6239237,3.05971669 10.5705027,0 6.81196186,0 C3.05971669,0 0,3.05971669 0,6.81825757 C0,10.5767984 3.05971669,13.6302194 6.81196186,13.6302194 C8.20331451,13.6302194 9.50023146,13.2084066 10.5767984,12.496991 L11.7415054,13.661698 L11.905194,13.8190908 L14.694195,16.6080918 C14.9586149,16.8725118 15.3048792,17.0047218 15.6511434,17.0047218 C15.9974076,17.0047218 16.3436719,16.8725118 16.6080918,16.6017961 C17.1306361,16.0792519 17.1306361,15.2230349 16.6080918,14.694195 L13.7561337,11.8548283 L13.7561337,11.8548283 Z M6.81196186,11.1245255 C4.43847792,11.1245255 2.50569392,9.19174151 2.50569392,6.81825757 C2.50569392,4.44477363 4.43847792,2.51198963 6.81196186,2.51198963 C9.18544579,2.51198963 11.1182298,4.44477363 11.1182298,6.81825757 C11.1182298,9.19174151 9.18544579,11.1245255 6.81196186,11.1245255 L6.81196186,11.1245255 Z" id="Shape" fill="color(display-p3 0.000 0.000 0.000)"></path>
        <path d="M6.75,4 C3.75,4 3.75,6.681818 3.75,6.681818 C3.75,6.681818 3.75,9.363636 6.75,9.363636 C9.75,9.363636 9.75,6.681818 9.75,6.681818 C9.75,6.681818 9.75,4 6.75,4 Z M6.75,5.31818182 C7.503,5.31818182 8.11363636,5.92881818 8.11363636,6.68181818 C8.11363636,7.43481818 7.503,8.04545455 6.75,8.04545455 C5.997,8.04545455 5.38636364,7.43481818 5.38636364,6.68181818 C5.38636364,5.92881818 5.997,5.31818182 6.75,5.31818182 Z M6.75,5.86363636 C6.29813066,5.86363636 5.93181818,6.22994884 5.93181818,6.68181818 C5.93181818,7.13368752 6.29813066,7.5 6.75,7.5 C7.20186934,7.5 7.56818182,7.13368752 7.56818182,6.68181818 C7.56818182,6.22994884 7.20186934,5.86363636 6.75,5.86363636 Z" id="Shape" fill="color(display-p3 0.000 0.000 0.000)"></path>
    </g>
</svg>