<?xml version="1.0" encoding="UTF-8"?>
<svg width="17px" height="17px" viewBox="0 0 17 17" version="1.1" xmlns="http://www.w3.org/2000/svg" xmlns:xlink="http://www.w3.org/1999/xlink">
    <title>trash</title>
    <g id="trash" stroke="none" fill="none" fill-rule="nonzero">
        <path d="M6.8,0 L5.95,0.85 L2.55,0.85 C2.04,0.85 1.7,1.19 1.7,1.7 C1.7,2.21 2.04,2.55 2.55,2.55 L4.25,2.55 L12.75,2.55 L14.45,2.55 C14.96,2.55 15.3,2.21 15.3,1.7 C15.3,1.19 14.96,0.85 14.45,0.85 L11.05,0.85 L10.2,0 L6.8,0 Z M2.55,4.25 L2.55,15.3 C2.55,16.235 3.315,17 4.25,17 L12.75,17 C13.685,17 14.45,16.235 14.45,15.3 L14.45,4.25 L2.55,4.25 Z M5.95,5.95 C6.46,5.95 6.8,6.29 6.8,6.8 L6.8,14.45 C6.8,14.96 6.46,15.3 5.95,15.3 C5.44,15.3 5.1,14.96 5.1,14.45 L5.1,6.8 C5.1,6.29 5.44,5.95 5.95,5.95 Z M11.05,5.95 C11.56,5.95 11.9,6.29 11.9,6.8 L11.9,14.45 C11.9,14.96 11.56,15.3 11.05,15.3 C10.54,15.3 10.2,14.96 10.2,14.45 L10.2,6.8 C10.2,6.29 10.54,5.95 11.05,5.95 Z" id="Shape" fill="color(display-p3 0.000 0.000 0.000)"></path>
    </g>
</svg>