<?xml version="1.0" encoding="UTF-8"?>
<svg width="17px" height="17px" viewBox="0 0 17 17" version="1.1" xmlns="http://www.w3.org/2000/svg" xmlns:xlink="http://www.w3.org/1999/xlink">
    <title>trash_delete</title>
    <g id="trash_delete" stroke="none" fill="none" fill-rule="nonzero">
        <path d="M5.5,0 L4.75,0.75 L1.75,0.75 C1.3,0.75 1,1.05 1,1.5 C1,1.95 1.3,2.25 1.75,2.25 L3.25,2.25 L10.75,2.25 L12.25,2.25 C12.7,2.25 13,1.95 13,1.5 C13,1.05 12.7,0.75 12.25,0.75 L9.25,0.75 L8.5,0 L5.5,0 Z M12.5,10.047619 C14.4329545,10.047619 16,11.6146645 16,13.547619 C16,15.4805736 14.4329545,17.047619 12.5,17.047619 C10.5670455,17.047619 9,15.4805736 9,13.547619 C9,11.6146645 10.5670455,10.047619 12.5,10.047619 Z M10.9090909,11.6385281 C10.8277159,11.6385281 10.746331,11.669541 10.6841265,11.7317455 C10.5597174,11.8561546 10.5597174,12.0572653 10.6841265,12.1816744 L12.0500712,13.547619 L10.6841265,14.9135637 C10.5597174,15.0379728 10.5597174,15.2390835 10.6841265,15.3634925 C10.746172,15.425538 10.8276364,15.45671 10.9090909,15.45671 C10.9905455,15.45671 11.0720099,15.425538 11.1340553,15.3634925 L12.5,13.9975479 L13.8659447,15.3634925 C13.9279901,15.425538 14.0094545,15.45671 14.0909091,15.45671 C14.1723636,15.45671 14.253828,15.425538 14.3158735,15.3634925 C14.4402826,15.2390835 14.4402826,15.0379728 14.3158735,14.9135637 L12.9499288,13.547619 L14.3158735,12.1816744 C14.4402826,12.0572653 14.4402826,11.8561546 14.3158735,11.7317455 C14.1914644,11.6073365 13.9903538,11.6073365 13.8659447,11.7317455 L12.5,13.0976902 L11.1340553,11.7317455 C11.0718508,11.669541 10.9904659,11.6385281 10.9090909,11.6385281 Z M12.25,3.75 L12.2501003,9.05682206 C11.4200236,9.1022596 10.6498477,9.3726753 9.9995072,9.8081345 L10,6 C10,5.55 9.7,5.25 9.25,5.25 C8.8,5.25 8.5,5.55 8.5,6 L8.49841313,11.4895151 C8.17986898,12.106881 8,12.8074406 8,13.55 C8,14.0575649 8.08403826,14.5455067 8.23895911,15.0006697 L3.25,15 C2.425,15 1.75,14.325 1.75,13.5 L1.75,3.75 L12.25,3.75 Z M4.75,5.25 C4.3,5.25 4,5.55 4,6 L4,12.75 C4,13.2 4.3,13.5 4.75,13.5 C5.2,13.5 5.5,13.2 5.5,12.75 L5.5,6 C5.5,5.55 5.2,5.25 4.75,5.25 Z" id="Shape" fill="color(display-p3 0.000 0.000 0.000)"></path>
    </g>
</svg>