<?xml version="1.0" encoding="UTF-8"?>
<svg width="17px" height="17px" viewBox="0 0 17 17" version="1.1" xmlns="http://www.w3.org/2000/svg" xmlns:xlink="http://www.w3.org/1999/xlink">
    <title>trash_clear</title>
    <g id="trash_clear" stroke="none" fill="none">
        <path d="M10.74,7.25 C10.74,7.55375661 10.9862434,7.8 11.29,7.8 L16.45,7.8 C16.7537566,7.8 17,7.55375661 17,7.25 C17,6.94624339 16.7537566,6.7 16.45,6.7 L11.29,6.7 C10.9862434,6.7 10.74,6.94624339 10.74,7.25 Z" id="Path" fill="color(display-p3 0.000 0.000 0.000)" fill-rule="evenodd"></path>
        <path d="M10.74,10.25 C10.74,10.5537566 10.9862434,10.8 11.29,10.8 L15.45,10.8 C15.7537566,10.8 16,10.5537566 16,10.25 C16,9.94624339 15.7537566,9.7 15.45,9.7 L11.29,9.7 C10.9862434,9.7 10.74,9.94624339 10.74,10.25 Z" id="Path" fill="color(display-p3 0.000 0.000 0.000)" fill-rule="evenodd"></path>
        <path d="M10.74,13.25 C10.74,13.5537566 10.9862434,13.8 11.29,13.8 L14.45,13.8 C14.7537566,13.8 15,13.5537566 15,13.25 C15,12.9462434 14.7537566,12.7 14.45,12.7 L11.29,12.7 C10.9862434,12.7 10.74,12.9462434 10.74,13.25 Z" id="Path" fill="color(display-p3 0.000 0.000 0.000)" fill-rule="evenodd"></path>
        <path d="M3.9,2 L3.25,2.65 L0.65,2.65 C0.26,2.65 7.28306304e-13,2.91 7.28306304e-13,3.3 C7.28306304e-13,3.69 0.26,3.95 0.65,3.95 L1.95,3.95 L8.45,3.95 L9.75,3.95 C10.14,3.95 10.4,3.69 10.4,3.3 C10.4,2.91 10.14,2.65 9.75,2.65 L7.15,2.65 L6.5,2 L3.9,2 Z M0.65,5.25 L0.65,13.7 C0.65,14.415 1.235,15 1.95,15 L8.45,15 C9.165,15 9.75,14.415 9.75,13.7 L9.75,5.25 L0.65,5.25 Z M3.25,6.55 C3.64,6.55 3.9,6.81 3.9,7.2 L3.9,13.05 C3.9,13.44 3.64,13.7 3.25,13.7 C2.86,13.7 2.6,13.44 2.6,13.05 L2.6,7.2 C2.6,6.81 2.86,6.55 3.25,6.55 Z M7.15,6.55 C7.54,6.55 7.8,6.81 7.8,7.2 L7.8,13.05 C7.8,13.44 7.54,13.7 7.15,13.7 C6.76,13.7 6.5,13.44 6.5,13.05 L6.5,7.2 C6.5,6.81 6.76,6.55 7.15,6.55 Z" id="Shape" fill="color(display-p3 0.000 0.000 0.000)" fill-rule="nonzero"></path>
    </g>
</svg>