<?xml version="1.0" encoding="UTF-8"?>
<svg width="17px" height="17px" viewBox="0 0 17 17" version="1.1" xmlns="http://www.w3.org/2000/svg" xmlns:xlink="http://www.w3.org/1999/xlink">
    <title>Trophee</title>
    <g id="Trophee" stroke="none" fill="none" fill-rule="nonzero">
        <path d="M3.26923077,0.655063137 C3.03343036,0.651793999 2.81410065,0.775681882 2.69522726,0.979353359 C2.57635387,1.18302484 2.57635387,1.43492508 2.69522726,1.63859656 C2.81410065,1.84226803 3.03343036,1.96615592 3.26923077,1.96282111 L3.26923077,3.5144287 C2.9813459,3.36730292 2.65851741,3.27051342 2.28846154,3.27051342 C1.03229996,3.27051342 0,4.30281338 0,5.55897496 C0,6.44244534 0.576160012,7.12943561 1.25916463,7.69291434 C1.94216932,8.25639307 2.79671002,8.73056884 3.6421274,9.13214219 C4.3917258,9.4882013 5.11542502,9.77197053 5.71349142,9.99159223 C6.506954,11.0678916 7.19230769,11.7705134 7.19230769,11.7705134 L8.5,11.7705134 L9.80769231,11.7705134 C9.80769231,11.7705134 10.493046,11.0678916 11.2865086,9.99159223 C11.8845751,9.77197053 12.6082743,9.4882013 13.3578729,9.13214219 C14.2032901,8.73056884 15.0578304,8.25639307 15.7408355,7.69291434 C16.4238399,7.12943561 17,6.44244534 17,5.55897496 C17,4.30281338 15.9676998,3.27051342 14.7115385,3.27051342 C14.3414825,3.27051342 14.0186544,3.36730292 13.7307692,3.5144287 L13.7307692,1.96282111 C13.9665696,1.96615592 14.1858994,1.84226803 14.3047727,1.63859656 C14.4236461,1.43492508 14.4236461,1.18302484 14.3047727,0.979353359 C14.1858994,0.775681882 13.9665696,0.651793999 13.7307692,0.655063137 L3.26923077,0.655063137 Z M2.28846154,4.57820573 C2.7570513,4.57820573 3.15905423,4.988932 3.47611175,5.5525895 C3.48146747,5.5621108 3.48489937,5.57115611 3.49015924,5.58068461 C3.70753758,6.45588515 4.06500306,7.30223473 4.48114482,8.07347307 C4.38723956,8.03072396 4.29813785,7.99685669 4.20402644,7.95215388 C3.41482845,7.57728492 2.63475376,7.13198953 2.09179691,6.68405 C1.54883999,6.23611046 1.30769231,5.81973534 1.30769231,5.55897496 C1.30769231,5.00921346 1.73870004,4.57820573 2.28846154,4.57820573 Z M14.7115385,4.57820573 C15.2613002,4.57820573 15.6923077,5.00921346 15.6923077,5.55897496 C15.6923077,5.81973534 15.4511601,6.23611046 14.908203,6.68405 C14.3652465,7.13198953 13.5851714,7.57728492 12.7959732,7.95215388 C12.7018619,7.99685669 12.6127603,8.03072396 12.5188549,8.07347307 C12.9349973,7.30223473 13.2924622,6.45588515 13.5098405,5.58068461 C13.5151007,5.57115611 13.5185327,5.5621108 13.5238884,5.5525895 C13.8409456,4.988932 14.2429485,4.57820573 14.7115385,4.57820573 Z M6.53846154,13.0782057 C5.81596154,13.0782057 5.23076923,13.663398 5.23076923,14.385898 L5.23076923,15.0397442 C4.99496882,15.0364094 4.77563911,15.1602973 4.65676572,15.3639687 C4.53789233,15.5676402 4.53789233,15.8195405 4.65676572,16.0232119 C4.77563911,16.2268834 4.99496882,16.3507713 5.23076923,16.3474365 L11.7692308,16.3474365 C12.0050312,16.3507713 12.2243609,16.2268834 12.3432343,16.0232119 C12.4621077,15.8195405 12.4621077,15.5676402 12.3432343,15.3639687 C12.2243609,15.1602973 12.0050312,15.0364094 11.7692308,15.0397442 L11.7692308,14.385898 C11.7692308,13.663398 11.1840385,13.0782057 10.4615385,13.0782057 L6.53846154,13.0782057 Z" id="Shape" fill="color(display-p3 0.000 0.000 0.000)"></path>
    </g>
</svg>