<?xml version="1.0" encoding="UTF-8"?>
<svg width="17px" height="17px" viewBox="0 0 17 17" version="1.1" xmlns="http://www.w3.org/2000/svg" xmlns:xlink="http://www.w3.org/1999/xlink">
    <title>unselect</title>
    <g id="unselect" stroke="none" fill="none" fill-rule="nonzero">
        <path d="M8.5,0 C3.80545,0 0,3.80545 0,8.5 C0,13.19455 3.80545,17 8.5,17 C13.19455,17 17,13.19455 17,8.5 C17,3.80545 13.19455,0 8.5,0 Z M11.9,10.2 L5.1,10.2 C4.16075,10.2 3.4,9.43925 3.4,8.5 L3.4,8.5 C3.4,7.56075 4.16075,6.8 5.1,6.8 L11.9,6.8 C12.83925,6.8 13.6,7.56075 13.6,8.5 L13.6,8.5 C13.6,9.43925 12.83925,10.2 11.9,10.2 Z" id="Shape" fill="color(display-p3 0.000 0.000 0.000)"></path>
    </g>
</svg>