<?xml version="1.0" encoding="UTF-8"?>
<svg width="17px" height="17px" viewBox="0 0 17 17" version="1.1" xmlns="http://www.w3.org/2000/svg" xmlns:xlink="http://www.w3.org/1999/xlink">
    <title>upload_bulk</title>
    <g id="upload_bulk" stroke="none" fill="none">
        <path d="M7.65120889,13.8164139 C7.14193422,13.8164139 6.80241778,13.4768974 6.80241778,12.9676228 L6.80241778,9.17729389 L3.83164889,9.17729389 C3.57701156,9.17729389 3.40725334,9.00753567 3.40725334,8.75289834 C3.40725334,8.66801923 3.49180091,8.49792913 3.49180091,8.41305002 L7.82030421,4.25364255 C7.99006243,4.08388433 8.16081543,4 8.41545277,4 C8.6700901,4 8.83918457,4.08388433 9.00894279,4.25364255 L13.3374464,8.41305002 C13.5072046,8.49792913 13.5927467,8.66801923 13.5927467,8.75289834 C13.5927467,9.00753567 13.4229884,9.17729389 13.1683511,9.17729389 L10.1975822,9.17729389 L10.1975822,12.9676228 C10.1975822,13.4768974 9.85806578,13.8164139 9.34879111,13.8164139 L7.65120889,13.8164139 Z M0.860880008,15.27824 C0.554775448,15.2739109 0.270052334,15.4347361 0.115736715,15.6991324 C-0.0385789049,15.9635288 -0.0385789049,16.2905334 0.115736715,16.5549297 C0.270052334,16.8193261 0.554775448,16.9801513 0.860880008,16.9758222 L16.13912,16.9758222 C16.4452246,16.9801513 16.7299477,16.8193261 16.8842633,16.5549297 C17.0385789,16.2905334 17.0385789,15.9635288 16.8842633,15.6991324 C16.7299477,15.4347361 16.4452246,15.2739109 16.13912,15.27824 L0.860880008,15.27824 Z" id="Shape" fill="color(display-p3 0.000 0.000 0.000)" fill-rule="nonzero"></path>
        <path d="M8.41545277,-1.33226763e-15 C8.6700901,-1.33226763e-15 8.83918457,0.0838843278 9.00894279,0.25364255 L13.3374464,4.41305002 C13.5072046,4.49792913 13.5927467,4.66801923 13.5927467,4.75289834 C13.5927467,5.00753567 13.4229884,5.17729389 13.1683511,5.17729389 L12.0512533,5.177 L9.00894279,2.25364255 C8.8674776,2.11217736 8.72647336,2.03034683 8.53604197,2.00699957 L8.41545277,2 C8.16081543,2 7.99006243,2.08388433 7.82030421,2.25364255 L4.77725334,5.177 L3.83164889,5.17729389 C3.57701156,5.17729389 3.40725334,5.00753567 3.40725334,4.75289834 C3.40725334,4.66801923 3.49180091,4.49792913 3.49180091,4.41305002 L7.82030421,0.25364255 C7.99006243,0.0838843278 8.16081543,-1.33226763e-15 8.41545277,-1.33226763e-15 Z" id="Combined-Shape" fill="color(display-p3 0.000 0.000 0.000)" fill-rule="evenodd"></path>
    </g>
</svg>