<?xml version="1.0" encoding="UTF-8"?>
<svg width="17px" height="17px" viewBox="0 0 17 17" version="1.1" xmlns="http://www.w3.org/2000/svg" xmlns:xlink="http://www.w3.org/1999/xlink">
    <title>User question</title>
    <g id="User-question" stroke="none" fill="none" fill-rule="evenodd">
        <path d="M6.9140625,2 C5.0023076,2 3.45252404,3.54978356 3.45252404,5.46153846 C3.45252404,7.37329336 5.0023076,8.92307692 6.9140625,8.92307692 C8.8258174,8.92307692 10.375601,7.37329336 10.375601,5.46153846 C10.375601,3.54978356 8.8258174,2 6.9140625,2 Z M6.91856942,10.0408654 C2.97356965,10.0408654 0,11.7838942 0,14.0973558 L0,15.8461538 C0,16.4830769 0.516923077,17 1.15384615,17 L12.6832933,17 C13.3202163,17 13.8371394,16.4830769 13.8371394,15.8461538 L13.8371394,14.0973558 C13.8371394,11.7850481 10.8624156,10.0408654 6.91856942,10.0408654 Z" id="Combined-Shape" fill="color(display-p3 0.000 0.000 0.000)"></path>
        <path d="M14.3366667,0 C12.8705207,0 11.67,1.20052067 11.67,2.66666667 L11.67,3.13333333 C11.67,3.24379028 11.7595431,3.33333333 11.87,3.33333333 L12.8033333,3.33333333 C12.9137903,3.33333333 13.0033333,3.24379028 13.0033333,3.13333333 L13.0033333,2.66666667 L13.0033333,2.66666667 C13.0033333,1.92187533 13.5918753,1.33333333 14.3366667,1.33333333 C15.0892707,1.33333333 15.67,1.89843733 15.67,2.66666667 C15.67,3.35156267 15.3939587,3.559896 14.9616667,3.85416667 C14.7455207,4.002604 14.5033333,4.14583333 14.2533333,4.33333333 C14.0033333,4.52083333 13.67,4.84895867 13.67,5.33333333 L13.67,5.8 C13.67,5.91045695 13.7595431,6 13.87,6 L14.8033333,6 C14.9137903,6 15.0033333,5.91045695 15.0033333,5.8 L15.0033796,5.52148537 C15.0048255,5.4542929 15.039923,5.39231911 15.0968036,5.35652084 C15.3392119,5.20699546 15.5438676,5.0737916 15.7116667,4.95833333 C16.2793753,4.56770867 17.0033333,3.83072933 17.0033333,2.66666667 C17.0033333,1.190104 15.795,0 14.3366667,0 Z M14.3366667,7 C13.7845833,7 13.3366667,7.44791667 13.3366667,8 C13.3366667,8.55208333 13.7845833,9 14.3366667,9 C14.88875,9 15.3366667,8.55208333 15.3366667,8 C15.3366667,7.44791667 14.88875,7 14.3366667,7 Z" id="Combined-Shape" fill="color(display-p3 0.000 0.000 0.000)"></path>
    </g>
</svg>