<?xml version="1.0" encoding="UTF-8"?>
<svg width="17px" height="17px" viewBox="0 0 17 17" version="1.1" xmlns="http://www.w3.org/2000/svg" xmlns:xlink="http://www.w3.org/1999/xlink">
    <title>User edit</title>
    <g id="User-edit" stroke="none" fill="none">
        <path d="M15.5485489,9.71428571 C15.445031,9.71428571 15.3412987,9.75393943 15.2623701,9.832868 L14.4528463,10.6423918 L16.0718939,12.2614394 L16.8814177,11.4519156 C17.0392749,11.2940585 17.0392749,11.0374143 16.8814177,10.8795572 L15.8347285,9.832868 C15.7553952,9.75393943 15.6520668,9.71428571 15.5485489,9.71428571 Z M13.880487,11.214751 L9.71428571,15.3809524 L9.71428571,17 L11.3333333,17 L15.4995347,12.8337987 L13.880487,11.214751 Z" id="Shape" fill="color(display-p3 0.000 0.000 0.000)" fill-rule="nonzero"></path>
        <path d="M6.61999972,7.69386319 C9.71509107,7.69386319 12.1863845,8.81654663 12.9750607,10.4410362 L9.063,14.352 L1.10405212,14.3526775 C0.535244466,14.3526775 0.0664590306,13.9218126 0.00648233978,13.3688693 L0,13.2486254 L0,11.5752964 C0,9.36167192 2.84524576,7.69386319 6.61999972,7.69386319 Z M6.6156873,0 C8.44494074,0 9.92784365,1.48290291 9.92784365,3.31215635 C9.92784365,5.14140979 8.44494074,6.6243127 6.6156873,6.6243127 C4.78643385,6.6243127 3.30353094,5.14140979 3.30353094,3.31215635 C3.30353094,1.48290291 4.78643385,0 6.6156873,0 Z" id="Combined-Shape" fill="color(display-p3 0.000 0.000 0.000)" fill-rule="evenodd"></path>
    </g>
</svg>