<?xml version="1.0" encoding="UTF-8"?>
<svg width="24px" height="24px" viewBox="0 0 24 24" version="1.1" xmlns="http://www.w3.org/2000/svg" xmlns:xlink="http://www.w3.org/1999/xlink">
    <title>Vibration</title>
    <g id="Vibration" stroke="none" stroke-width="1" fill="none" fill-rule="evenodd">
        <path d="M7.38461538,2 C6.36461538,2 5.53846154,2.82615385 5.53846154,3.84615385 L5.53846154,20.4615385 C5.53846154,21.4815385 6.36461538,22.3076923 7.38461538,22.3076923 L16.6153846,22.3076923 C17.6353846,22.3076923 18.4615385,21.4815385 18.4615385,20.4615385 L18.4615385,3.84615385 C18.4615385,2.82615385 17.6353846,2 16.6153846,2 L7.38461538,2 Z M7.38461538,4.76923077 L16.6153846,4.76923077 L16.6153846,19.5384615 L7.38461538,19.5384615 L7.38461538,4.76923077 Z M0.520882345,6.61538462 C0.38681558,6.61538462 0.254946631,6.66820094 0.158242735,6.7736961 C-0.0527475776,6.98468642 -0.0527475793,7.31861693 0.158242735,7.51202472 L2.4264573,9.78023939 L0.158242735,12.0484541 C-0.0527475776,12.2594444 -0.0527475776,12.5933749 0.158242735,12.7867827 L2.4264573,15.0549973 L0.158242735,17.3232118 C-0.0527475776,17.5342022 -0.0527475776,17.8505505 0.158242735,18.0615408 C0.263737894,18.167036 0.404329429,18.2198521 0.527407115,18.2198521 C0.6504848,18.2198521 0.791076335,18.167036 0.896571494,18.0615408 L3.5339504,15.4241617 C3.74494072,15.2131713 3.74494072,14.8792408 3.5339504,14.685833 L1.26573587,12.4176184 L3.5339504,10.1494037 C3.74494072,9.93841338 3.74494072,9.60448287 3.5339504,9.41107508 L0.896571494,6.7736961 C0.791076335,6.66820094 0.654949109,6.61538462 0.520882345,6.61538462 Z M23.4660679,6.61538462 C23.3320011,6.61538462 23.2001322,6.66820094 23.1034283,6.7736961 L20.4660493,9.41107508 C20.255059,9.6220654 20.255059,9.95599591 20.4660493,10.1494037 L22.7342638,12.4176184 L20.4660493,14.685833 C20.255059,14.8968234 20.255059,15.2307539 20.4660493,15.4241617 L23.1034283,18.0615408 C23.2089235,18.167036 23.3495151,18.2198521 23.4725928,18.2198521 C23.5956705,18.2198521 23.7362621,18.167036 23.8417573,18.0615408 C24.0527476,17.8505505 24.0527476,17.5166196 23.8417573,17.3232118 L21.5735428,15.0549973 L23.8417573,12.7867827 C24.0527476,12.5757924 24.0527476,12.2594444 23.8417573,12.0484541 L21.5735428,9.78023939 L23.8417573,7.51202472 C24.0527476,7.3010344 24.0527476,6.96710389 23.8417573,6.7736961 C23.7362621,6.66820094 23.6001347,6.61538462 23.4660679,6.61538462 Z" id="Shape" fill="#000000" fill-rule="nonzero"></path>
    </g>
</svg>