<?xml version="1.0" encoding="UTF-8"?>
<svg width="17px" height="17px" viewBox="0 0 17 17" version="1.1" xmlns="http://www.w3.org/2000/svg" xmlns:xlink="http://www.w3.org/1999/xlink">
    <title>Vision</title>
    <g id="Vision" stroke="none" fill="none" fill-rule="nonzero">
        <path d="M9.70066244,-2.28744076 C9.48115224,-2.50367469 9.13386745,-2.50367469 8.91435725,-2.28744076 C8.1018419,-1.49458303 7.46624521,-0.613265973 6.99446209,0.317195163 L11.6107288,0.317195163 C11.1422219,-0.613265973 10.5099015,-1.49785931 9.70066244,-2.28744076 Z M7.44986385,9.45799293 C7.16482822,9.45799293 6.93221293,9.69060822 6.93221293,9.97564385 C6.93221293,10.2606795 7.16482822,10.4932948 7.44986385,10.4932948 L11.1520508,10.4932948 C11.4370864,10.4932948 11.6697017,10.2606795 11.6697017,9.97564385 C11.6697017,9.69060822 11.4370864,9.45799293 11.1520508,9.45799293 L7.44986385,9.45799293 Z M15.1441986,15.0709179 C14.7630517,14.972182 14.532071,14.9337349 14.4512563,14.9555767 C14.3464156,14.2413495 13.7337528,13.6909358 12.9867629,13.6909358 C12.7541476,13.6909358 12.5346374,13.7433562 12.3413374,13.8416443 C12.1185509,13.3076121 11.5910712,12.9341171 10.9751321,12.9341171 C10.8342524,12.9341171 10.6933727,12.957051 10.5623219,12.99309 C10.431271,12.4033611 10.3460879,11.7841458 10.2969439,11.1452728 L8.30497074,11.1452728 C8.25582666,11.7841458 8.17391987,12.4033611 8.03959274,12.99309 C7.90854187,12.9504985 7.77421474,12.9341171 7.63005879,12.9341171 C7.01411972,12.9341171 6.48664,13.3076121 6.26385353,13.8416443 C6.06727723,13.7433562 5.85104331,13.6909358 5.61842802,13.6909358 C4.8714381,13.6909358 4.25877531,14.2413495 4.15393462,14.9555767 C4.0753041,14.9337349 3.85532939,14.9142016 3.49401051,14.896977 L9.40607502,20.8090415 L15.1441986,15.0709179 Z M7.44986385,8.8158437 L11.1520508,8.8158437 C11.2142999,8.8158437 11.2732728,8.82567252 11.3289694,8.83222506 C12.7541476,6.38485017 12.9572764,3.52138879 11.9186983,0.962620668 L6.71270274,0.962620668 C5.65446701,3.52138879 5.82483313,6.38812644 7.24345874,8.83550133 C7.31226044,8.82239624 7.37778587,8.8158437 7.44986385,8.8158437 Z M9.3009573,1.94550215 C10.1724455,1.94550215 10.8768439,2.64662427 10.8768439,3.51811252 C10.8768439,4.38960077 10.1724455,5.09399916 9.3009573,5.09399916 C8.42946906,5.09399916 7.72505933,4.38960077 7.72505933,3.51811252 C7.72179439,2.64662427 8.42946906,1.94550215 9.3009573,1.94550215 Z M4.4324177,9.45799293 L4.45207533,9.45799293 C4.92713471,9.4154014 5.35960257,9.15657595 5.61187548,8.75359454 L6.10659249,7.97711817 C5.79534669,7.22029943 5.58238903,6.43399425 5.47427207,5.63458397 C5.01231778,5.98186876 4.69124316,6.49296713 4.58640247,7.06631466 L4.19324987,9.17623358 C4.1670397,9.3236658 4.28498548,9.45799293 4.4324177,9.45799293 Z M12.9867629,8.75359454 C13.242312,9.15657595 13.6715036,9.4154014 14.146563,9.45799293 C14.303824,9.47109802 14.4315986,9.33021834 14.4053885,9.17623358 L14.0122359,7.06631466 C13.9073952,6.48969086 13.5830443,5.97859249 13.1178137,5.62803143 C13.0064205,6.41761289 12.7901866,7.19736553 12.4789408,7.95418427 L12.9867629,8.75359454 Z" id="Shape" fill="color(display-p3 0.000 0.000 0.000)" transform="translate(9.301, 7.5504) rotate(45) translate(-9.301, -7.5504)"></path>
    </g>
</svg>