<?xml version="1.0" encoding="UTF-8"?>
<svg width="24px" height="24px" viewBox="0 0 24 24" version="1.1" xmlns="http://www.w3.org/2000/svg" xmlns:xlink="http://www.w3.org/1999/xlink">
    <title>Weight</title>
    <g id="Weight" stroke="none" stroke-width="1" fill="none" fill-rule="evenodd">
        <path d="M9.77842196,3 C10.2693537,3 10.6673694,3.39801566 10.6673694,3.88894745 L10.6673694,8.33368471 C10.6673694,8.82461649 10.2693537,9.22258307 9.77842196,9.22263216 L6.22263216,9.22263216 L6.222,16.334 L23.1126337,16.3342118 C23.3931468,16.3302446 23.6565152,16.4587059 23.8262446,16.6763879 L23.8930298,16.7750167 C24.0546461,17.0519216 24.0546461,17.3943968 23.8930298,17.6713018 C23.7314135,17.9482067 23.4332201,18.1166406 23.1126337,18.1121067 L23.1126337,20.778949 L21.3468925,20.778949 C21.3468906,21.016826 21.2515598,21.2447807 21.0822172,21.4118393 C20.9128746,21.5788978 20.6836465,21.6711246 20.4457914,21.6678965 L19.5568439,21.6678965 C19.3189888,21.6711246 19.0897607,21.5788978 18.9204181,21.4118393 C18.7510755,21.2447807 18.6557447,21.016826 18.6557428,20.778949 L8.01268066,20.778949 C8.01267878,21.016826 7.91734792,21.2447807 7.74800535,21.4118392 C7.57866279,21.5788978 7.3494347,21.6711246 7.11157961,21.6678965 L6.22263216,21.6678965 C5.98477707,21.6711246 5.75554898,21.5788978 5.58620641,21.4118392 C5.41686385,21.2447807 5.32153299,21.016826 5.32153111,20.778949 L3.5557898,20.778949 L3.5557898,18.1121067 C3.23520343,18.1166406 2.93701005,17.9482067 2.77539375,17.6713018 C2.61377745,17.3943968 2.61377745,17.0519216 2.77539375,16.7750167 C2.93701005,16.4981117 3.23520343,16.3296779 3.5557898,16.3342118 L4.444,16.334 L4.44473725,9.22263216 L0.888947451,9.22263216 C0.398015664,9.22258307 0,8.82461649 0,8.33368471 L0,3.88894745 C0,3.39801566 0.398015664,3 0.888947451,3 Z M16.9060144,3.71692102 C17.5838257,3.0472761 18.8210356,3.21060413 18.9598644,3.23510333 C19.1395252,3.25960254 19.2783541,3.39843136 19.3028533,3.574009 C19.3273525,3.71283782 19.4906805,4.94596445 18.8128692,5.61560938 C18.3759667,6.05251186 17.7022386,6.13417587 17.2449201,6.13417587 C17.1795889,6.13417587 17.1183409,6.13417587 17.0611761,6.13009267 C17.1265073,6.43224953 17.1591729,6.69357438 17.1795889,6.89365121 C17.5634097,6.66907517 18.016645,6.46899833 18.6577075,6.46899833 C20.5890615,6.46899833 21.7854393,7.72254097 21.7854393,9.71922614 C21.7854393,11.7159113 20.6707255,15.45204 17.9798962,15.45204 C17.5838257,15.45204 17.2163377,15.309128 16.8855984,15.0273871 C16.5548592,15.309128 16.1873711,15.45204 15.7913006,15.45204 C13.1004713,15.45204 11.9857575,11.7240777 11.9857575,9.71922614 C11.9857575,7.71437456 13.1821353,6.46899833 15.1134893,6.46899833 C15.615723,6.46899833 16.0077103,6.59149436 16.3384495,6.75890559 C16.2404527,6.02392945 15.9260462,4.6968892 14.9134125,3.93741386 C14.7337516,3.80266824 14.6970028,3.54542659 14.8317484,3.36576576 C14.9664941,3.18610492 15.2237357,3.14935612 15.4033965,3.28410174 C15.8729646,3.63525701 16.2159535,4.07215949 16.4731951,4.52539477 C16.5466928,4.23548752 16.6773552,3.94558027 16.9060144,3.71692102 Z M8.88947451,4.7778949 L1.7778949,4.7778949 L1.7778949,7.44473725 L8.88947451,7.44473725 L8.88947451,4.7778949 Z" id="Shape" fill="#000000" fill-rule="nonzero"></path>
    </g>
</svg>