<?xml version="1.0" encoding="UTF-8"?>
<svg width="29px" height="29px" viewBox="0 0 29 29" version="1.1" xmlns="http://www.w3.org/2000/svg" xmlns:xlink="http://www.w3.org/1999/xlink">
    <title>Weight alt</title>
    <g id="Weight-alt" stroke="none" stroke-width="1" fill="none" fill-rule="evenodd">
        <path d="M8.82086179,12.3139764 C8.36104553,12.321164 7.9938607,12.699277 8.0000778,13.1591063 C8.0000778,13.8538823 8.47056585,14.4307752 8.87785516,14.6344198 C9.28514446,14.8380645 9.66762009,14.8265688 9.66762009,14.8265688 L13.8362763,14.8265688 L13.8362763,16.5575382 C10.5477471,16.9924915 8.0000778,19.810199 8.0000778,23.2159895 L8.0000778,27.3325375 C8.0000778,28.2538105 8.74634706,29 9.66762009,29 L19.6723951,29 C20.5936681,29 21.3399413,28.2538105 21.3399413,27.3325375 L21.3399413,23.2159895 C21.3399413,19.810199 18.7922683,16.9924915 15.5037388,16.5575382 L15.5037388,14.8265688 L19.6723951,14.8265688 C19.6723951,14.8265688 20.0548709,14.8380643 20.4621603,14.6344198 C20.8694497,14.4307752 21.3399413,13.8538823 21.3399413,13.1591063 C21.3441098,12.8584329 21.1861381,12.5787615 20.9264329,12.4271839 C20.6667276,12.2756062 20.345525,12.2756062 20.0858197,12.4271839 C19.8261145,12.5787615 19.6681428,12.8584329 19.6723951,13.1591063 L14.7986498,13.1591063 C14.7518372,13.1512816 14.704442,13.1474682 14.6569805,13.1477076 C14.6165907,13.148583 14.576318,13.1523926 14.5364805,13.1591063 L9.66762009,13.1591063 C9.67070609,12.9337485 9.58243217,12.7167397 9.42291187,12.5575261 C9.26339158,12.3983126 9.04621325,12.3104566 8.82086179,12.3139764 L8.82086179,12.3139764 Z M14.6700076,19.8289563 C15.2869687,19.8289563 15.8576836,20.0077133 16.3537537,20.3011867 L14.0805337,22.5744074 C13.7545448,22.9003963 13.7545448,23.4273662 14.0805337,23.7533551 C14.2431113,23.9159327 14.4565724,23.9976125 14.6700076,23.9976125 C14.8834428,23.9976125 15.0969038,23.9159327 15.2594814,23.7533551 L17.5327022,21.4801352 C17.8261756,21.9762053 18.0049326,22.5469201 18.0049326,23.1638813 C18.0049326,25.0030924 16.5092187,26.4988063 14.6700076,26.4988063 C12.8307964,26.4988063 11.3350826,25.0030924 11.3350826,23.1638813 C11.3350826,21.3246701 12.8307964,19.8289563 14.6700076,19.8289563 Z M13.5587347,11.2892139 C13.92368,11.2892139 14.2622891,11.1575326 14.5670372,10.8979323 C14.8717853,11.1575326 15.2103944,11.2892139 15.5753396,11.2892139 C18.0547102,11.2892139 19.0818243,7.84668872 19.0818243,6.00691298 C19.0818243,4.16713724 17.9794638,3.01210421 16.1998852,3.01210421 C15.6092005,3.01210421 15.1915827,3.19645802 14.8379244,3.40338576 C14.8191128,3.21903196 14.7890142,2.97824331 14.7288171,2.69983144 C14.7814896,2.70359376 14.8379244,2.70359376 14.8981216,2.70359376 C15.3195017,2.70359376 15.9402849,2.62834731 16.3428534,2.2257788 C16.967399,1.6087579 16.8169061,0.47253648 16.7943322,0.344617513 C16.7717582,0.182837642 16.6438393,0.0549186748 16.4782971,0.0323447394 C16.3503781,0.00977080396 15.2103944,-0.140722099 14.5858488,0.476298803 C14.3751587,0.686988867 14.2547644,0.954113769 14.1870426,1.22123867 C13.9500163,0.803620866 13.6339812,0.401052351 13.2013141,0.0774926102 C13.0357719,-0.0466640346 12.7987456,-0.0128031315 12.6745889,0.152739062 C12.5504323,0.318281255 12.5842932,0.555307577 12.7498354,0.679464221 C13.6828914,1.37925622 13.9725902,2.60201105 14.062886,3.27922912 C13.7581378,3.12497389 13.3969549,3.01210421 12.9341892,3.01210421 C11.1546106,3.01210421 10.0522501,4.1596126 10.0522501,6.00691298 C10.0522501,7.85421336 11.0793642,11.2892139 13.5587347,11.2892139 Z" id="Shape" fill="#000000" fill-rule="nonzero"></path>
    </g>
</svg>