<?xml version="1.0" encoding="UTF-8"?>
<svg width="17px" height="17px" viewBox="0 0 17 17" version="1.1" xmlns="http://www.w3.org/2000/svg" xmlns:xlink="http://www.w3.org/1999/xlink">
    <title>Wizard</title>
    <g id="Wizard" stroke="none" fill="none" fill-rule="nonzero">
        <path d="M11.0130015,0 C10.8257067,0 10.6390608,0.0936473603 10.5336535,0.280234121 L9.67205684,1.79939804 L7.99065211,1.33234117 C7.57720354,1.217809 7.19642873,1.59858324 7.31096154,2.01203181 L7.77801809,3.69343654 L6.25885386,4.55380445 C5.88568096,4.76524847 5.88568096,5.30291468 6.25885386,5.5137294 L7.77801809,6.374097 L7.78170515,6.37778468 L9.99285077,4.16540979 C10.5139092,3.64435132 11.3596853,3.64435132 11.8807438,4.16540979 C12.4018023,4.68646827 12.4018023,5.5322446 11.8807438,6.05330307 L9.66959817,8.26567771 L9.67328586,8.26936477 L10.5324244,9.788529 C10.7438685,10.1617019 11.2827637,10.1617019 11.4935785,9.788529 L12.352717,8.26936477 L14.0353508,8.7351923 C14.4487994,8.84972448 14.8283445,8.47017932 14.7138124,8.05673074 L14.2479848,6.374097 L15.767149,5.51495842 C16.1409512,5.3035144 16.1403226,4.76524847 15.767149,4.55380445 L14.2479848,3.69343654 L14.7150414,2.01203181 C14.8295735,1.59858324 14.4487994,1.217809 14.0353508,1.33234117 L12.3539461,1.79939804 L11.4935785,0.280234121 C11.3878565,0.0936473603 11.2002962,0 11.0130015,0 Z M7.78047613,6.3790137 L0.705793856,13.4536958 C0.184735381,13.9747543 0.184735381,14.8205304 0.705793856,15.3415889 C1.22685227,15.8626473 2.07262841,15.8626473 2.59368688,15.3415889 L9.66836915,8.26690673 L7.78047613,6.3790137 Z M10.373871,11.3187544 C10.0268031,11.3241796 9.74965319,11.6095781 9.7544061,11.9566558 L9.7544061,12.5859535 L9.12510843,12.5859535 C8.89816108,12.5827439 8.68706604,12.7019805 8.57265572,12.8980051 C8.45824541,13.0940298 8.45824541,13.3364725 8.57265572,13.5324972 C8.68706604,13.7285219 8.89816108,13.8477585 9.12510843,13.8445489 L9.7544061,13.8445489 L9.7544061,14.4738465 C9.7511965,14.7007939 9.87043305,14.9118889 10.0664577,15.0262992 C10.2624824,15.1407096 10.5049251,15.1407096 10.7009498,15.0262992 C10.8969745,14.9118889 11.0162111,14.7007939 11.0130015,14.4738465 L11.0130015,13.8445489 L11.6422991,13.8445489 C11.8692465,13.8477585 12.0803415,13.7285219 12.1947518,13.5324972 C12.3091621,13.3364725 12.3091621,13.0940298 12.1947518,12.8980051 C12.0803415,12.7019805 11.8692465,12.5827439 11.6422991,12.5859535 L11.0130015,12.5859535 L11.0130015,11.9566558 C11.0153308,11.7865565 10.9487019,11.6227589 10.8282965,11.502585 C10.7078911,11.3824111 10.5439656,11.3160977 10.373871,11.3187544 Z M14.7789547,13.2066474 C14.4318869,13.2120726 14.1547369,13.4974711 14.1594898,13.8445489 L14.1594898,14.4738465 L13.5301922,14.4738465 C13.3032448,14.4706369 13.0921498,14.5898735 12.9777395,14.7858982 C12.8633291,14.9819229 12.8633291,15.2243656 12.9777395,15.4203903 C13.0921498,15.6164149 13.3032448,15.7356515 13.5301922,15.7324419 L14.1594898,15.7324419 L14.1594898,16.3617396 C14.1562802,16.5886869 14.2755168,16.7997819 14.4715415,16.9141923 C14.6675661,17.0286026 14.9100089,17.0286026 15.1060335,16.9141923 C15.3020582,16.7997819 15.4212948,16.5886869 15.4180852,16.3617396 L15.4180852,15.7324419 L16.0473829,15.7324419 C16.2743302,15.7356515 16.4854252,15.6164149 16.5998356,15.4203903 C16.7142459,15.2243656 16.7142459,14.9819229 16.5998356,14.7858982 C16.4854252,14.5898735 16.2743302,14.4706369 16.0473829,14.4738465 L15.4180852,14.4738465 L15.4180852,13.8445489 C15.4204145,13.6744495 15.3537856,13.5106519 15.2333802,13.390478 C15.1129748,13.2703042 14.9490493,13.2039907 14.7789547,13.2066474 Z" id="Shape" fill="color(display-p3 0.000 0.000 0.000)"></path>
    </g>
</svg>