<?xml version="1.0" encoding="UTF-8"?>
<svg width="17px" height="17px" viewBox="0 0 17 17" version="1.1" xmlns="http://www.w3.org/2000/svg" xmlns:xlink="http://www.w3.org/1999/xlink">
    <title>Worldwide help</title>
    <g id="Worldwide-help" stroke="none" fill="none" fill-rule="nonzero">
        <path d="M3.92337872,9.15455035 C3.67293638,9.15455035 3.42510962,9.20293869 3.19297638,9.29644588 L0,10.4623433 L0,15.6935149 L2.76009693,14.4942688 C3.08573736,14.3530272 3.45388107,14.347796 3.78279098,14.4824987 L9.70970844,16.9038772 C9.70970844,16.9038772 9.71232402,16.9038772 9.71232402,16.9038772 C9.84441111,16.9673052 9.98892222,17.0006539 10.1347411,17.0006539 C10.3041003,17 10.47019,16.955535 10.6173167,16.8718363 C10.6173167,16.8718363 10.6212401,16.8718363 10.6212401,16.8718363 L16.4971536,13.6075852 L16.4958458,13.6062774 C16.8064466,13.4336487 17,13.1060466 17,12.7503269 C17,12.2089007 16.5605816,11.7694823 16.0191553,11.7694823 C15.8752981,11.7701362 15.7327487,11.8021771 15.6026233,11.8642973 L15.6026233,11.8629895 L11.1162397,13.7318255 L10.135395,13.7318255 C10.6768213,13.7318255 11.1162397,13.2924071 11.1162397,12.7509808 C11.1162397,12.326602 10.842911,11.9499577 10.4394569,11.8185245 L10.4394569,11.8172167 L4.75513501,9.33829525 L4.74728825,9.33829525 C4.48899915,9.21797831 4.20782368,9.15520425 3.92337872,9.15455035 Z M8.8,0 C7.3334806,0 6.03191023,0.709824375 5.20966798,1.8 L5.2,1.8 L5.2,1.81230471 C4.63747871,2.56351189 4.3,3.49217334 4.3,4.5 C4.3,6.97995135 6.32004869,9 8.8,9 C11.2799513,9 13.3,6.97995135 13.3,4.5 C13.3,2.02004869 11.2799513,0 8.8,0 Z M10.15,1.16279298 C11.4707941,1.69531182 12.4,2.98469106 12.4,4.5 C12.4,5.43952395 12.0402641,6.2902431 11.4542971,6.93017595 C11.3391623,6.56580915 11.0025551,6.3 10.6,6.3 L10.15,6.3 L10.15,4.95 C10.15,4.7016 9.9484,4.5 9.7,4.5 L7.45,4.5 L7.45,3.6 L7.9,3.6 C8.1484,3.6 8.35,3.3984 8.35,3.15 L8.35,2.25 L9.25,2.25 C9.74725,2.25 10.15,1.84725 10.15,1.35 L10.15,1.16279298 Z M5.29316404,3.69316395 L6.1,4.5 L7.45,5.85 L7.45,6.3 C7.45,6.79725 7.85275,7.2 8.35,7.2 L8.35,8.06923845 C6.57059735,7.8485193 5.2,6.3407943 5.2,4.5 C5.2,4.2219846 5.23398602,3.95281485 5.29316404,3.69316395 Z" id="Shape" fill="color(display-p3 0.000 0.000 0.000)"></path>
    </g>
</svg>