<?xml version="1.0" encoding="UTF-8"?>
<svg width="17px" height="17px" viewBox="0 0 17 17" version="1.1" xmlns="http://www.w3.org/2000/svg" xmlns:xlink="http://www.w3.org/1999/xlink">
    <title>Shape</title>
    <g id="Icons" stroke="none" stroke-width="1" fill="none" fill-rule="evenodd">
        <g id="Worldwide-locations" fill="color(display-p3 0.000 0.000 0.000)" fill-rule="nonzero">
            <path d="M13.9091334,0 C12.2022022,0 10.8182667,1.38393554 10.8182667,3.09086665 C10.8182667,4.6842084 12.4272081,6.79472703 13.3235594,7.84639448 C13.6318733,8.20802588 14.1863934,8.20802588 14.4947073,7.84639448 C15.3902867,6.79472703 17,4.6842084 17,3.09086665 C17,1.38393554 15.6160645,0 13.9091334,0 Z M7.72740006,1.54543332 C5.20757103,1.54543332 2.97251219,2.7640075 1.56075885,4.63629997 L1.54566677,4.63629997 L1.54566677,4.65591971 C0.331728892,6.27707927 -0.272269877,8.37996692 0.117952037,10.6308906 C0.661171773,13.7642566 3.15810908,16.2997455 6.28761179,16.868465 C11.1781355,17.7563164 15.4545667,14.0047168 15.4545667,9.27259994 C15.4545667,9.21850977 15.447793,9.16594109 15.4470203,9.11262364 C15.2638865,9.31816627 15.1126032,9.47943455 15.0214227,9.57293327 L13.663132,10.9855559 C13.3957721,11.9104978 12.9142846,12.7433897 12.2822024,13.4365166 C12.0820688,12.8152524 11.5059845,12.3634666 10.8182667,12.3634666 L10.04555,12.3634666 L10.04555,10.8180333 C10.04555,9.96418135 9.35396863,9.27259994 8.50011672,9.27259994 L6.18196674,9.27259994 C5.75542714,9.27259994 5.40925008,8.92642287 5.40925008,8.49988328 C5.40925008,8.07334368 5.75542714,7.72716662 6.18196674,7.72716662 C6.60850633,7.72716662 6.9546834,7.38098955 6.9546834,6.95444995 L6.9546834,6.18173329 C6.9546834,5.7551937 7.30086046,5.40901663 7.72740006,5.40901663 L8.50011672,5.40901663 C8.95524684,5.40901663 9.36128549,5.20883472 9.64409979,4.89588447 C9.41846652,4.29239276 9.27283338,3.67967674 9.27283338,3.09086665 C9.27283338,2.6249185 9.34300533,2.17641683 9.47204901,1.75219538 C8.91028477,1.62160626 8.32780091,1.54543332 7.72740006,1.54543332 Z M13.9091334,1.98612329 C14.5188068,1.98612329 15.0138771,2.4811932 15.0138771,3.09086665 C15.0138771,3.70054009 14.5188068,4.19561 13.9091334,4.19561 C13.2994599,4.19561 12.8043896,3.70054009 12.8043896,3.09086665 C12.8043896,2.4811932 13.2994599,1.98612329 13.9091334,1.98612329 Z M1.70866169,7.89016192 L3.09110009,9.27259994 L5.40925008,11.5907499 L5.40925008,12.3634666 C5.40925008,13.2173185 6.10083149,13.9088999 6.9546834,13.9088999 L6.9546834,15.4015111 C3.91017975,15.0190163 1.54566677,12.4191022 1.54566677,9.27259994 C1.54566677,8.79660648 1.60589037,8.33524595 1.70866169,7.89016192 Z" id="Shape"></path>
        </g>
    </g>
</svg>