<?xml version="1.0" encoding="utf-8" ?>
<svg xmlns="http://www.w3.org/2000/svg" xmlns:xlink="http://www.w3.org/1999/xlink" width="55" height="38">
	<path fill="#61E3A7" transform="translate(0.157223 1.08881)" d="M44.504208 34.933552L0.80593234 20.678959C0.17081499 20.471672 -0.15714541 19.842131 0.074140087 19.272913L7.6086631 0.72231007C7.8399487 0.15309149 8.5423717 -0.14084026 9.1774883 0.066447429L52.874542 14.32104C53.509659 14.528328 53.83762 15.157868 53.606335 15.727087L46.073032 34.277691C45.840523 34.846909 45.139324 35.140839 44.504208 34.933552Z"/>
	<path fill="#107C42" transform="translate(5.74894 4.08881)" d="M8.0794239 0L0 20.052109L33.299274 31L41.378696 10.947892L8.0794239 0ZM13.422002 21.058235C9.1306934 19.647738 6.9183021 15.361831 8.4798517 11.485631C10.041401 7.6094303 14.78629 5.6110482 19.077599 7.0215454C23.368906 8.4320431 25.581299 12.717949 24.019749 16.594149C22.4582 20.47035 17.71331 22.468731 13.422002 21.058235ZM31.736544 27.080055C30.817568 26.778111 30.342726 25.859474 30.677006 25.028326C31.011286 24.198244 32.028301 23.769335 32.948456 24.07128C33.867432 24.373222 34.342278 25.291861 34.007996 26.123009C33.672535 26.954155 32.655518 27.382 31.736544 27.080055ZM27.296404 25.620478C26.377428 25.318533 25.902586 24.399897 26.236866 23.568748C26.571146 22.738668 27.588161 22.309757 28.508318 22.611702C29.427294 22.913647 29.902136 23.832283 29.567856 24.663431C29.232395 25.493513 28.21538 25.922422 27.296404 25.620478Z"/>
	<path transform="translate(1.27557 1.08881)" d="M51.443787 14.02863L9.0745564 0.066381976C8.4464788 -0.14070152 7.7518415 0.15294069 7.5231194 0.72159851L0.073318325 19.253927C-0.15540363 19.822586 0.16892169 20.451506 0.79699945 20.658588L7.1431265 22.750242L46.077896 28.966034L46.079109 28.967129C46.219486 28.990139 46.362286 29 46.503876 29C46.968582 29 47.419975 28.869614 47.81691 28.635139L49.336884 24.855043L51.443787 14.02863Z"/>
	<defs>
		<linearGradient id="gradient_0" gradientUnits="userSpaceOnUse" x1="25.719986" y1="29.133245" x2="25.719986" y2="8.4408846">
			<stop offset="0" stop-color="black"/>
			<stop offset="0.18799999" stop-color="#040405"/>
			<stop offset="0.39700001" stop-color="#111212"/>
			<stop offset="0.61500001" stop-color="#262828"/>
			<stop offset="0.838" stop-color="#444647"/>
			<stop offset="1" stop-color="#5E6162"/>
		</linearGradient>
	</defs>
	<path fill="url(#gradient_0)" transform="translate(1.27557 1.08881)" d="M7.5992355 0.73555797L0.063510522 19.626398C0.024338465 19.724682 0.01087307 19.825201 0.0035283091 19.924603C0 20.000551 -0.0038164521 20.077616 0.0084248167 20.151329C0.012097197 20.178135 0.019441959 20.203823 0.025562592 20.230627C0.12471687 20.620417 0.44666222 20.948778 0.89836502 21.058233L7.4400988 22.659832L46.705193 28.976883C46.705193 28.976883 46.706417 28.977999 46.706417 28.977999C46.855759 29.001453 47.005104 29.005922 47.149551 28.992519C47.623287 28.947844 48.048058 28.707716 48.294109 28.3559L49.414185 24.612131L51.443787 14.107913L9.1685658 0.067666143C8.5332441 -0.14342341 7.8305955 0.15589935 7.5992355 0.73555797Z"/>
	<path fill="#61E3A7" transform="translate(1.27557 0.0888062)" d="M46.245464 28.983042L0.99917728 21.714531C0.34143633 21.608774 -0.097460657 21.037033 0.018611275 20.43885L3.7969944 0.91037369C3.9130664 0.31109059 4.5405803 -0.088798672 5.1971121 0.016957166L50.444611 7.2865696C51.102352 7.3923254 51.541248 7.9640679 51.425175 8.5622492L47.645584 28.090727C47.53072 28.688908 46.903206 29.088797 46.245464 28.983042Z"/>
	<path fill="#21A366" transform="translate(5.74894 1.08881)" d="M4.2349157 0L0 21.352821L36.02544 27L40.260357 5.6471791L4.2349157 0ZM13.84487 20.221001C9.2026806 19.493555 6.1030097 15.557117 6.9212155 11.429873C7.7394214 7.3026299 12.167 4.5467978 16.809189 5.2742419C21.451378 6.0016866 24.551048 9.9381247 23.732843 14.065369C22.914639 18.192612 18.487059 20.948444 13.84487 20.221001ZM33.658619 23.327003C32.663601 23.170889 31.999039 22.327444 32.174629 21.442802C32.35022 20.558161 33.298901 19.967316 34.293915 20.123428C35.288933 20.279543 35.953495 21.122988 35.777905 22.007629C35.602314 22.892271 34.653633 23.483116 33.658619 23.327003ZM28.855469 22.574623C27.860453 22.41851 27.19589 21.575066 27.371481 20.690424C27.547071 19.805782 28.495752 19.214937 29.490768 19.37105C30.485785 19.527163 31.150347 20.370607 30.974756 21.255249C30.799166 22.139891 29.850487 22.730738 28.855469 22.574623Z"/>
	<path transform="translate(1.27557 0.0888062)" d="M47.870567 22C48.505154 22 49.078365 21.785723 49.514107 21.442028L50.325443 17.469395L50.325443 6.8806567L5.2772384 0.016328519C4.6107397 -0.08550667 3.9736993 0.29955763 3.8558652 0.87662369L0.018893817 19.680067C-0.098940238 20.257133 0.34661978 20.80768 1.0143461 20.908455L8.1727648 22L47.870567 22Z"/>
	<defs>
		<linearGradient id="gradient_1" gradientUnits="userSpaceOnUse" x1="24.044609" y1="22.164135" x2="24.044609" y2="-3.1801031">
			<stop offset="0" stop-color="black"/>
			<stop offset="0.18799999" stop-color="#040405"/>
			<stop offset="0.39700001" stop-color="#111212"/>
			<stop offset="0.61500001" stop-color="#262828"/>
			<stop offset="0.838" stop-color="#444647"/>
			<stop offset="1" stop-color="#5E6162"/>
		</linearGradient>
	</defs>
	<path fill="url(#gradient_1)" transform="translate(0.157223 0.0888062)" d="M3.6827364 0.89828008L0.034929063 19.815151C0.0099685071 19.945591 -0.030443825 20.424953 0.03730626 20.532564C0.057512425 20.636915 0.10386775 20.734745 0.15735465 20.827139C0.1882582 20.880402 0.22272755 20.930403 0.26195127 20.977142C0.32019258 21.044537 0.38556546 21.104321 0.46163574 21.156496C0.49610507 21.18041 0.53176302 21.20215 0.56979817 21.222803C0.60545611 21.264109 0.80038619 21.326067 0.8467415 21.356503C0.8586275 21.365198 0.8930968 21.376068 0.90617138 21.383677C0.95965832 21.414112 1.2021323 21.464115 1.2663165 21.477158C1.3079175 21.485853 1.4553037 21.517376 1.4992818 21.517376L7.470798 22L45.471466 22C45.778122 22 46.889462 21.890215 47.101032 21.714123C47.429085 21.714123 47.855793 20.641264 47.855793 20.340168L48.088757 17.88792L48.088757 6.9549837L5.0591326 0.016731903C4.4137239 -0.087619051 3.7968416 0.30695799 3.6827364 0.89828008Z"/>
	<path fill="#61E3A7" transform="translate(0.157223 0.0888062)" d="M46.886539 22L1.2022189 22C0.53859407 22 0 21.5072 0 20.9L0 1.1C0 0.4928 0.53859407 0 1.2022189 0L46.886539 0C47.550163 0 48.088757 0.4928 48.088757 1.1L48.088757 20.9C48.088757 21.5072 47.550163 22 46.886539 22Z"/>
	<path fill="#33C481" transform="translate(6.86728 0.0888062)" d="M0 0L0 22L36.905327 22L36.905327 0L0 0ZM13.531953 18.700001C8.7760868 18.700001 4.9207101 15.2526 4.9207101 11C4.9207101 6.7473998 8.7760868 3.3 13.531953 3.3C18.287819 3.3 22.143196 6.7473998 22.143196 11C22.143196 15.2526 18.287819 18.700001 13.531953 18.700001ZM33.82988 18.700001C32.811295 18.700001 31.984615 17.9608 31.984615 17.049999C31.984615 16.1392 32.811295 15.4 33.82988 15.4C34.848469 15.4 35.675148 16.1392 35.675148 17.049999C35.675148 17.9608 34.848469 18.700001 33.82988 18.700001ZM28.909172 18.700001C27.890585 18.700001 27.063906 17.9608 27.063906 17.049999C27.063906 16.1392 27.890585 15.4 28.909172 15.4C29.927759 15.4 30.754438 16.1392 30.754438 17.049999C30.754438 17.9608 29.927759 18.700001 28.909172 18.700001Z"/>
</svg>
